midi.Pattern(format=1, resolution=120, tracks=\
[midi.Track(\
  [midi.TrackNameEvent(tick=0, text="Duke Dumont - Won't Look Back", data=[68, 117, 107, 101, 32, 68, 117, 109, 111, 110, 116, 32, 45, 32, 87, 111, 110, 39, 116, 32, 76, 111, 111, 107, 32, 66, 97, 99, 107]),
   midi.TextMetaEvent(tick=0, text='Mark Norris\n', data=[77, 97, 114, 107, 32, 78, 111, 114, 114, 105, 115, 10]),
   midi.TextMetaEvent(tick=0, text='Vocal - 124.00\n', data=[86, 111, 99, 97, 108, 32, 45, 32, 49, 50, 52, 46, 48, 48, 10]),
   midi.TextMetaEvent(tick=0, text='Instrumental - 124.01\n', data=[73, 110, 115, 116, 114, 117, 109, 101, 110, 116, 97, 108, 32, 45, 32, 49, 50, 52, 46, 48, 49, 10]),
   midi.TextMetaEvent(tick=0, text='Karaoke - 124.04\n', data=[75, 97, 114, 97, 111, 107, 101, 32, 45, 32, 49, 50, 52, 46, 48, 52, 10]),
   midi.SysexEvent(tick=0, channel=0, data=[5, 126, 127, 9, 1]),
   midi.TimeSignatureEvent(tick=0, data=[4, 2, 24, 8]),
   midi.KeySignatureEvent(tick=0, data=[0, 0]),
   midi.SetTempoEvent(tick=0, data=[7, 97, 131]),
   midi.EndOfTrackEvent(tick=0, data=[])]),
 midi.Track(\
  [midi.TrackNameEvent(tick=0, text='Piano 1', data=[80, 105, 97, 110, 111, 32, 49]),
   midi.ControlChangeEvent(tick=120, channel=0, data=[0, 121]),
   midi.ControlChangeEvent(tick=0, channel=0, data=[32, 0]),
   midi.ProgramChangeEvent(tick=0, channel=0, data=[2]),
   midi.ControlChangeEvent(tick=0, channel=0, data=[7, 101]),
   midi.ControlChangeEvent(tick=0, channel=0, data=[91, 64]),
   midi.ControlChangeEvent(tick=0, channel=0, data=[93, 64]),
   midi.ControlChangeEvent(tick=60, channel=0, data=[7, 0]),
   midi.ControlChangeEvent(tick=2, channel=0, data=[7, 1]),
   midi.ControlChangeEvent(tick=3, channel=0, data=[7, 2]),
   midi.ControlChangeEvent(tick=2, channel=0, data=[7, 3]),
   midi.ControlChangeEvent(tick=3, channel=0, data=[7, 4]),
   midi.ControlChangeEvent(tick=2, channel=0, data=[7, 5]),
   midi.ControlChangeEvent(tick=2, channel=0, data=[7, 6]),
   midi.ControlChangeEvent(tick=3, channel=0, data=[7, 7]),
   midi.ControlChangeEvent(tick=2, channel=0, data=[7, 8]),
   midi.ControlChangeEvent(tick=2, channel=0, data=[7, 9]),
   midi.ControlChangeEvent(tick=3, channel=0, data=[7, 10]),
   midi.ControlChangeEvent(tick=2, channel=0, data=[7, 11]),
   midi.ControlChangeEvent(tick=2, channel=0, data=[7, 12]),
   midi.ControlChangeEvent(tick=3, channel=0, data=[7, 13]),
   midi.ControlChangeEvent(tick=2, channel=0, data=[7, 14]),
   midi.ControlChangeEvent(tick=2, channel=0, data=[7, 15]),
   midi.ControlChangeEvent(tick=3, channel=0, data=[7, 16]),
   midi.ControlChangeEvent(tick=2, channel=0, data=[7, 17]),
   midi.ControlChangeEvent(tick=3, channel=0, data=[7, 18]),
   midi.ControlChangeEvent(tick=2, channel=0, data=[7, 19]),
   midi.ControlChangeEvent(tick=2, channel=0, data=[7, 20]),
   midi.ControlChangeEvent(tick=3, channel=0, data=[7, 21]),
   midi.ControlChangeEvent(tick=2, channel=0, data=[7, 22]),
   midi.ControlChangeEvent(tick=2, channel=0, data=[7, 23]),
   midi.ControlChangeEvent(tick=3, channel=0, data=[7, 24]),
   midi.ControlChangeEvent(tick=2, channel=0, data=[7, 25]),
   midi.NoteOnEvent(tick=481, channel=0, data=[63, 100]),
   midi.NoteOnEvent(tick=0, channel=0, data=[52, 100]),
   midi.NoteOnEvent(tick=0, channel=0, data=[47, 100]),
   midi.NoteOnEvent(tick=0, channel=0, data=[75, 100]),
   midi.NoteOnEvent(tick=0, channel=0, data=[71, 100]),
   midi.NoteOnEvent(tick=0, channel=0, data=[68, 100]),
   midi.NoteOnEvent(tick=0, channel=0, data=[59, 100]),
   midi.NoteOnEvent(tick=0, channel=0, data=[40, 100]),
   midi.NoteOnEvent(tick=0, channel=0, data=[56, 100]),
   midi.ControlChangeEvent(tick=1, channel=0, data=[7, 26]),
   midi.ControlChangeEvent(tick=3, channel=0, data=[7, 27]),
   midi.ControlChangeEvent(tick=2, channel=0, data=[7, 28]),
   midi.ControlChangeEvent(tick=3, channel=0, data=[7, 29]),
   midi.ControlChangeEvent(tick=2, channel=0, data=[7, 30]),
   midi.ControlChangeEvent(tick=2, channel=0, data=[7, 31]),
   midi.ControlChangeEvent(tick=3, channel=0, data=[7, 32]),
   midi.ControlChangeEvent(tick=2, channel=0, data=[7, 33]),
   midi.ControlChangeEvent(tick=2, channel=0, data=[7, 34]),
   midi.ControlChangeEvent(tick=3, channel=0, data=[7, 35]),
   midi.ControlChangeEvent(tick=2, channel=0, data=[7, 36]),
   midi.ControlChangeEvent(tick=2, channel=0, data=[7, 37]),
   midi.ControlChangeEvent(tick=3, channel=0, data=[7, 38]),
   midi.ControlChangeEvent(tick=2, channel=0, data=[7, 39]),
   midi.ControlChangeEvent(tick=3, channel=0, data=[7, 40]),
   midi.ControlChangeEvent(tick=2, channel=0, data=[7, 41]),
   midi.ControlChangeEvent(tick=2, channel=0, data=[7, 42]),
   midi.ControlChangeEvent(tick=3, channel=0, data=[7, 43]),
   midi.ControlChangeEvent(tick=2, channel=0, data=[7, 44]),
   midi.ControlChangeEvent(tick=2, channel=0, data=[7, 45]),
   midi.ControlChangeEvent(tick=3, channel=0, data=[7, 46]),
   midi.ControlChangeEvent(tick=2, channel=0, data=[7, 47]),
   midi.ControlChangeEvent(tick=2, channel=0, data=[7, 48]),
   midi.ControlChangeEvent(tick=3, channel=0, data=[7, 49]),
   midi.ControlChangeEvent(tick=2, channel=0, data=[7, 50]),
   midi.ControlChangeEvent(tick=3, channel=0, data=[7, 51]),
   midi.ControlChangeEvent(tick=2, channel=0, data=[7, 52]),
   midi.ControlChangeEvent(tick=2, channel=0, data=[7, 53]),
   midi.ControlChangeEvent(tick=3, channel=0, data=[7, 54]),
   midi.ControlChangeEvent(tick=2, channel=0, data=[7, 55]),
   midi.ControlChangeEvent(tick=2, channel=0, data=[7, 56]),
   midi.ControlChangeEvent(tick=3, channel=0, data=[7, 57]),
   midi.ControlChangeEvent(tick=2, channel=0, data=[7, 58]),
   midi.ControlChangeEvent(tick=2, channel=0, data=[7, 59]),
   midi.ControlChangeEvent(tick=3, channel=0, data=[7, 60]),
   midi.ControlChangeEvent(tick=2, channel=0, data=[7, 61]),
   midi.ControlChangeEvent(tick=3, channel=0, data=[7, 62]),
   midi.ControlChangeEvent(tick=2, channel=0, data=[7, 63]),
   midi.ControlChangeEvent(tick=2, channel=0, data=[7, 64]),
   midi.ControlChangeEvent(tick=3, channel=0, data=[7, 65]),
   midi.ControlChangeEvent(tick=2, channel=0, data=[7, 66]),
   midi.ControlChangeEvent(tick=2, channel=0, data=[7, 67]),
   midi.ControlChangeEvent(tick=3, channel=0, data=[7, 68]),
   midi.ControlChangeEvent(tick=2, channel=0, data=[7, 69]),
   midi.ControlChangeEvent(tick=2, channel=0, data=[7, 70]),
   midi.ControlChangeEvent(tick=3, channel=0, data=[7, 71]),
   midi.ControlChangeEvent(tick=2, channel=0, data=[7, 72]),
   midi.ControlChangeEvent(tick=3, channel=0, data=[7, 73]),
   midi.ControlChangeEvent(tick=2, channel=0, data=[7, 74]),
   midi.ControlChangeEvent(tick=2, channel=0, data=[7, 75]),
   midi.ControlChangeEvent(tick=3, channel=0, data=[7, 76]),
   midi.ControlChangeEvent(tick=2, channel=0, data=[7, 77]),
   midi.ControlChangeEvent(tick=2, channel=0, data=[7, 78]),
   midi.ControlChangeEvent(tick=3, channel=0, data=[7, 79]),
   midi.ControlChangeEvent(tick=2, channel=0, data=[7, 80]),
   midi.ControlChangeEvent(tick=2, channel=0, data=[7, 81]),
   midi.ControlChangeEvent(tick=3, channel=0, data=[7, 82]),
   midi.ControlChangeEvent(tick=2, channel=0, data=[7, 83]),
   midi.ControlChangeEvent(tick=2, channel=0, data=[7, 84]),
   midi.ControlChangeEvent(tick=3, channel=0, data=[7, 85]),
   midi.ControlChangeEvent(tick=2, channel=0, data=[7, 86]),
   midi.ControlChangeEvent(tick=3, channel=0, data=[7, 87]),
   midi.ControlChangeEvent(tick=2, channel=0, data=[7, 88]),
   midi.ControlChangeEvent(tick=2, channel=0, data=[7, 89]),
   midi.ControlChangeEvent(tick=3, channel=0, data=[7, 90]),
   midi.ControlChangeEvent(tick=2, channel=0, data=[7, 91]),
   midi.ControlChangeEvent(tick=2, channel=0, data=[7, 92]),
   midi.ControlChangeEvent(tick=3, channel=0, data=[7, 93]),
   midi.ControlChangeEvent(tick=2, channel=0, data=[7, 94]),
   midi.ControlChangeEvent(tick=2, channel=0, data=[7, 95]),
   midi.ControlChangeEvent(tick=3, channel=0, data=[7, 96]),
   midi.ControlChangeEvent(tick=2, channel=0, data=[7, 97]),
   midi.ControlChangeEvent(tick=3, channel=0, data=[7, 98]),
   midi.ControlChangeEvent(tick=2, channel=0, data=[7, 99]),
   midi.ControlChangeEvent(tick=2, channel=0, data=[7, 100]),
   midi.ControlChangeEvent(tick=3, channel=0, data=[7, 101]),
   midi.ControlChangeEvent(tick=2, channel=0, data=[7, 102]),
   midi.ControlChangeEvent(tick=2, channel=0, data=[7, 103]),
   midi.ControlChangeEvent(tick=3, channel=0, data=[7, 104]),
   midi.ControlChangeEvent(tick=2, channel=0, data=[7, 105]),
   midi.ControlChangeEvent(tick=2, channel=0, data=[7, 106]),
   midi.ControlChangeEvent(tick=3, channel=0, data=[7, 107]),
   midi.ControlChangeEvent(tick=2, channel=0, data=[7, 108]),
   midi.ControlChangeEvent(tick=3, channel=0, data=[7, 109]),
   midi.ControlChangeEvent(tick=2, channel=0, data=[7, 110]),
   midi.ControlChangeEvent(tick=2, channel=0, data=[7, 111]),
   midi.ControlChangeEvent(tick=3, channel=0, data=[7, 112]),
   midi.ControlChangeEvent(tick=2, channel=0, data=[7, 113]),
   midi.ControlChangeEvent(tick=2, channel=0, data=[7, 114]),
   midi.ControlChangeEvent(tick=3, channel=0, data=[7, 115]),
   midi.ControlChangeEvent(tick=2, channel=0, data=[7, 116]),
   midi.ControlChangeEvent(tick=2, channel=0, data=[7, 117]),
   midi.ControlChangeEvent(tick=3, channel=0, data=[7, 118]),
   midi.ControlChangeEvent(tick=2, channel=0, data=[7, 119]),
   midi.ControlChangeEvent(tick=3, channel=0, data=[7, 120]),
   midi.ControlChangeEvent(tick=2, channel=0, data=[7, 121]),
   midi.ControlChangeEvent(tick=2, channel=0, data=[7, 122]),
   midi.ControlChangeEvent(tick=3, channel=0, data=[7, 123]),
   midi.ControlChangeEvent(tick=2, channel=0, data=[7, 124]),
   midi.ControlChangeEvent(tick=2, channel=0, data=[7, 125]),
   midi.ControlChangeEvent(tick=3, channel=0, data=[7, 126]),
   midi.NoteOnEvent(tick=2, channel=0, data=[56, 0]),
   midi.NoteOnEvent(tick=0, channel=0, data=[75, 0]),
   midi.NoteOnEvent(tick=0, channel=0, data=[63, 0]),
   midi.NoteOnEvent(tick=0, channel=0, data=[71, 0]),
   midi.NoteOnEvent(tick=0, channel=0, data=[52, 0]),
   midi.NoteOnEvent(tick=0, channel=0, data=[47, 0]),
   midi.NoteOnEvent(tick=0, channel=0, data=[59, 0]),
   midi.NoteOnEvent(tick=0, channel=0, data=[68, 0]),
   midi.NoteOnEvent(tick=0, channel=0, data=[40, 0]),
   midi.ControlChangeEvent(tick=0, channel=0, data=[7, 100]),
   midi.NoteOnEvent(tick=0, channel=0, data=[40, 100]),
   midi.NoteOnEvent(tick=0, channel=0, data=[56, 100]),
   midi.NoteOnEvent(tick=0, channel=0, data=[59, 100]),
   midi.NoteOnEvent(tick=0, channel=0, data=[63, 100]),
   midi.NoteOnEvent(tick=0, channel=0, data=[68, 100]),
   midi.NoteOnEvent(tick=0, channel=0, data=[71, 100]),
   midi.NoteOnEvent(tick=0, channel=0, data=[75, 100]),
   midi.NoteOnEvent(tick=0, channel=0, data=[47, 100]),
   midi.NoteOnEvent(tick=0, channel=0, data=[52, 100]),
   midi.NoteOnEvent(tick=240, channel=0, data=[52, 0]),
   midi.NoteOnEvent(tick=0, channel=0, data=[63, 0]),
   midi.NoteOnEvent(tick=0, channel=0, data=[40, 0]),
   midi.NoteOnEvent(tick=0, channel=0, data=[68, 0]),
   midi.NoteOnEvent(tick=0, channel=0, data=[56, 0]),
   midi.NoteOnEvent(tick=0, channel=0, data=[59, 0]),
   midi.NoteOnEvent(tick=0, channel=0, data=[75, 0]),
   midi.NoteOnEvent(tick=0, channel=0, data=[71, 0]),
   midi.NoteOnEvent(tick=0, channel=0, data=[47, 0]),
   midi.NoteOnEvent(tick=0, channel=0, data=[73, 100]),
   midi.NoteOnEvent(tick=0, channel=0, data=[66, 100]),
   midi.NoteOnEvent(tick=0, channel=0, data=[54, 100]),
   midi.NoteOnEvent(tick=0, channel=0, data=[49, 100]),
   midi.NoteOnEvent(tick=0, channel=0, data=[58, 100]),
   midi.NoteOnEvent(tick=0, channel=0, data=[42, 100]),
   midi.NoteOnEvent(tick=0, channel=0, data=[61, 100]),
   midi.NoteOnEvent(tick=0, channel=0, data=[68, 100]),
   midi.NoteOnEvent(tick=180, channel=0, data=[68, 0]),
   midi.NoteOnEvent(tick=0, channel=0, data=[73, 0]),
   midi.NoteOnEvent(tick=0, channel=0, data=[58, 0]),
   midi.NoteOnEvent(tick=0, channel=0, data=[66, 0]),
   midi.NoteOnEvent(tick=0, channel=0, data=[54, 0]),
   midi.NoteOnEvent(tick=0, channel=0, data=[49, 0]),
   midi.NoteOnEvent(tick=0, channel=0, data=[42, 0]),
   midi.NoteOnEvent(tick=0, channel=0, data=[61, 0]),
   midi.NoteOnEvent(tick=0, channel=0, data=[56, 100]),
   midi.NoteOnEvent(tick=0, channel=0, data=[68, 100]),
   midi.NoteOnEvent(tick=0, channel=0, data=[44, 100]),
   midi.NoteOnEvent(tick=0, channel=0, data=[51, 100]),
   midi.NoteOnEvent(tick=0, channel=0, data=[59, 100]),
   midi.NoteOnEvent(tick=0, channel=0, data=[63, 100]),
   midi.NoteOnEvent(tick=0, channel=0, data=[71, 100]),
   midi.NoteOnEvent(tick=0, channel=0, data=[75, 100]),
   midi.NoteOnEvent(tick=240, channel=0, data=[68, 0]),
   midi.NoteOnEvent(tick=0, channel=0, data=[56, 0]),
   midi.NoteOnEvent(tick=0, channel=0, data=[56, 100]),
   midi.NoteOnEvent(tick=0, channel=0, data=[68, 100]),
   midi.NoteOnEvent(tick=60, channel=0, data=[68, 0]),
   midi.NoteOnEvent(tick=0, channel=0, data=[56, 0]),
   midi.NoteOnEvent(tick=0, channel=0, data=[56, 100]),
   midi.NoteOnEvent(tick=0, channel=0, data=[68, 100]),
   midi.NoteOnEvent(tick=60, channel=0, data=[68, 0]),
   midi.NoteOnEvent(tick=0, channel=0, data=[56, 0]),
   midi.NoteOnEvent(tick=0, channel=0, data=[59, 0]),
   midi.NoteOnEvent(tick=0, channel=0, data=[71, 0]),
   midi.NoteOnEvent(tick=0, channel=0, data=[71, 100]),
   midi.NoteOnEvent(tick=0, channel=0, data=[59, 100]),
   midi.NoteOnEvent(tick=60, channel=0, data=[59, 0]),
   midi.NoteOnEvent(tick=0, channel=0, data=[71, 0]),
   midi.NoteOnEvent(tick=0, channel=0, data=[73, 100]),
   midi.NoteOnEvent(tick=0, channel=0, data=[61, 100]),
   midi.NoteOnEvent(tick=60, channel=0, data=[61, 0]),
   midi.NoteOnEvent(tick=0, channel=0, data=[75, 0]),
   midi.NoteOnEvent(tick=0, channel=0, data=[63, 0]),
   midi.NoteOnEvent(tick=0, channel=0, data=[73, 0]),
   midi.NoteOnEvent(tick=0, channel=0, data=[63, 100]),
   midi.NoteOnEvent(tick=0, channel=0, data=[75, 100]),
   midi.NoteOnEvent(tick=60, channel=0, data=[75, 0]),
   midi.NoteOnEvent(tick=0, channel=0, data=[44, 0]),
   midi.NoteOnEvent(tick=0, channel=0, data=[51, 0]),
   midi.NoteOnEvent(tick=0, channel=0, data=[63, 0]),
   midi.NoteOnEvent(tick=0, channel=0, data=[40, 100]),
   midi.NoteOnEvent(tick=0, channel=0, data=[56, 100]),
   midi.NoteOnEvent(tick=0, channel=0, data=[59, 100]),
   midi.NoteOnEvent(tick=0, channel=0, data=[63, 100]),
   midi.NoteOnEvent(tick=0, channel=0, data=[68, 100]),
   midi.NoteOnEvent(tick=0, channel=0, data=[71, 100]),
   midi.NoteOnEvent(tick=0, channel=0, data=[52, 100]),
   midi.NoteOnEvent(tick=0, channel=0, data=[47, 100]),
   midi.NoteOnEvent(tick=0, channel=0, data=[75, 100]),
   midi.NoteOnEvent(tick=240, channel=0, data=[75, 0]),
   midi.NoteOnEvent(tick=0, channel=0, data=[63, 0]),
   midi.NoteOnEvent(tick=0, channel=0, data=[40, 0]),
   midi.NoteOnEvent(tick=0, channel=0, data=[68, 0]),
   midi.NoteOnEvent(tick=0, channel=0, data=[56, 0]),
   midi.NoteOnEvent(tick=0, channel=0, data=[59, 0]),
   midi.NoteOnEvent(tick=0, channel=0, data=[52, 0]),
   midi.NoteOnEvent(tick=0, channel=0, data=[71, 0]),
   midi.NoteOnEvent(tick=0, channel=0, data=[47, 0]),
   midi.NoteOnEvent(tick=0, channel=0, data=[73, 100]),
   midi.NoteOnEvent(tick=0, channel=0, data=[54, 100]),
   midi.NoteOnEvent(tick=0, channel=0, data=[66, 100]),
   midi.NoteOnEvent(tick=0, channel=0, data=[58, 100]),
   midi.NoteOnEvent(tick=0, channel=0, data=[42, 100]),
   midi.NoteOnEvent(tick=0, channel=0, data=[49, 100]),
   midi.NoteOnEvent(tick=0, channel=0, data=[68, 100]),
   midi.NoteOnEvent(tick=0, channel=0, data=[61, 100]),
   midi.NoteOnEvent(tick=180, channel=0, data=[61, 0]),
   midi.NoteOnEvent(tick=0, channel=0, data=[73, 0]),
   midi.NoteOnEvent(tick=0, channel=0, data=[42, 0]),
   midi.NoteOnEvent(tick=0, channel=0, data=[54, 0]),
   midi.NoteOnEvent(tick=0, channel=0, data=[66, 0]),
   midi.NoteOnEvent(tick=0, channel=0, data=[58, 0]),
   midi.NoteOnEvent(tick=0, channel=0, data=[49, 0]),
   midi.NoteOnEvent(tick=0, channel=0, data=[68, 0]),
   midi.NoteOnEvent(tick=0, channel=0, data=[44, 100]),
   midi.NoteOnEvent(tick=0, channel=0, data=[51, 100]),
   midi.NoteOnEvent(tick=0, channel=0, data=[56, 100]),
   midi.NoteOnEvent(tick=0, channel=0, data=[75, 100]),
   midi.NoteOnEvent(tick=0, channel=0, data=[68, 100]),
   midi.NoteOnEvent(tick=0, channel=0, data=[71, 100]),
   midi.NoteOnEvent(tick=0, channel=0, data=[63, 100]),
   midi.NoteOnEvent(tick=0, channel=0, data=[59, 100]),
   midi.NoteOnEvent(tick=240, channel=0, data=[59, 0]),
   midi.NoteOnEvent(tick=0, channel=0, data=[71, 0]),
   midi.NoteOnEvent(tick=0, channel=0, data=[59, 100]),
   midi.NoteOnEvent(tick=0, channel=0, data=[71, 100]),
   midi.NoteOnEvent(tick=30, channel=0, data=[71, 0]),
   midi.NoteOnEvent(tick=0, channel=0, data=[59, 0]),
   midi.NoteOnEvent(tick=0, channel=0, data=[61, 100]),
   midi.NoteOnEvent(tick=0, channel=0, data=[73, 100]),
   midi.NoteOnEvent(tick=30, channel=0, data=[73, 0]),
   midi.NoteOnEvent(tick=0, channel=0, data=[61, 0]),
   midi.NoteOnEvent(tick=0, channel=0, data=[75, 0]),
   midi.NoteOnEvent(tick=0, channel=0, data=[63, 0]),
   midi.NoteOnEvent(tick=0, channel=0, data=[63, 100]),
   midi.NoteOnEvent(tick=0, channel=0, data=[75, 100]),
   midi.NoteOnEvent(tick=60, channel=0, data=[75, 0]),
   midi.NoteOnEvent(tick=0, channel=0, data=[63, 0]),
   midi.NoteOnEvent(tick=0, channel=0, data=[61, 100]),
   midi.NoteOnEvent(tick=0, channel=0, data=[73, 100]),
   midi.NoteOnEvent(tick=60, channel=0, data=[73, 0]),
   midi.NoteOnEvent(tick=0, channel=0, data=[61, 0]),
   midi.NoteOnEvent(tick=0, channel=0, data=[59, 100]),
   midi.NoteOnEvent(tick=0, channel=0, data=[71, 100]),
   midi.NoteOnEvent(tick=60, channel=0, data=[71, 0]),
   midi.NoteOnEvent(tick=0, channel=0, data=[56, 0]),
   midi.NoteOnEvent(tick=0, channel=0, data=[68, 0]),
   midi.NoteOnEvent(tick=0, channel=0, data=[59, 0]),
   midi.NoteOnEvent(tick=0, channel=0, data=[56, 100]),
   midi.NoteOnEvent(tick=0, channel=0, data=[68, 100]),
   midi.NoteOnEvent(tick=60, channel=0, data=[68, 0]),
   midi.NoteOnEvent(tick=0, channel=0, data=[51, 0]),
   midi.NoteOnEvent(tick=0, channel=0, data=[44, 0]),
   midi.NoteOnEvent(tick=0, channel=0, data=[56, 0]),
   midi.NoteOnEvent(tick=0, channel=0, data=[75, 100]),
   midi.NoteOnEvent(tick=0, channel=0, data=[47, 100]),
   midi.NoteOnEvent(tick=0, channel=0, data=[52, 100]),
   midi.NoteOnEvent(tick=0, channel=0, data=[40, 100]),
   midi.NoteOnEvent(tick=0, channel=0, data=[56, 100]),
   midi.NoteOnEvent(tick=0, channel=0, data=[63, 100]),
   midi.NoteOnEvent(tick=0, channel=0, data=[68, 100]),
   midi.NoteOnEvent(tick=0, channel=0, data=[71, 100]),
   midi.NoteOnEvent(tick=0, channel=0, data=[59, 100]),
   midi.NoteOnEvent(tick=240, channel=0, data=[59, 0]),
   midi.NoteOnEvent(tick=0, channel=0, data=[40, 0]),
   midi.NoteOnEvent(tick=0, channel=0, data=[75, 0]),
   midi.NoteOnEvent(tick=0, channel=0, data=[56, 0]),
   midi.NoteOnEvent(tick=0, channel=0, data=[47, 0]),
   midi.NoteOnEvent(tick=0, channel=0, data=[52, 0]),
   midi.NoteOnEvent(tick=0, channel=0, data=[68, 0]),
   midi.NoteOnEvent(tick=0, channel=0, data=[63, 0]),
   midi.NoteOnEvent(tick=0, channel=0, data=[71, 0]),
   midi.NoteOnEvent(tick=0, channel=0, data=[61, 100]),
   midi.NoteOnEvent(tick=0, channel=0, data=[42, 100]),
   midi.NoteOnEvent(tick=0, channel=0, data=[68, 100]),
   midi.NoteOnEvent(tick=0, channel=0, data=[73, 100]),
   midi.NoteOnEvent(tick=0, channel=0, data=[66, 100]),
   midi.NoteOnEvent(tick=0, channel=0, data=[49, 100]),
   midi.NoteOnEvent(tick=0, channel=0, data=[54, 100]),
   midi.NoteOnEvent(tick=0, channel=0, data=[58, 100]),
   midi.NoteOnEvent(tick=180, channel=0, data=[58, 0]),
   midi.NoteOnEvent(tick=0, channel=0, data=[61, 0]),
   midi.NoteOnEvent(tick=0, channel=0, data=[66, 0]),
   midi.NoteOnEvent(tick=0, channel=0, data=[42, 0]),
   midi.NoteOnEvent(tick=0, channel=0, data=[68, 0]),
   midi.NoteOnEvent(tick=0, channel=0, data=[73, 0]),
   midi.NoteOnEvent(tick=0, channel=0, data=[49, 0]),
   midi.NoteOnEvent(tick=0, channel=0, data=[54, 0]),
   midi.NoteOnEvent(tick=0, channel=0, data=[71, 100]),
   midi.NoteOnEvent(tick=0, channel=0, data=[68, 100]),
   midi.NoteOnEvent(tick=0, channel=0, data=[56, 100]),
   midi.NoteOnEvent(tick=0, channel=0, data=[51, 100]),
   midi.NoteOnEvent(tick=0, channel=0, data=[44, 100]),
   midi.NoteOnEvent(tick=0, channel=0, data=[63, 100]),
   midi.NoteOnEvent(tick=0, channel=0, data=[75, 100]),
   midi.NoteOnEvent(tick=0, channel=0, data=[59, 100]),
   midi.NoteOnEvent(tick=360, channel=0, data=[59, 0]),
   midi.NoteOnEvent(tick=0, channel=0, data=[71, 0]),
   midi.NoteOnEvent(tick=0, channel=0, data=[44, 0]),
   midi.NoteOnEvent(tick=0, channel=0, data=[68, 0]),
   midi.NoteOnEvent(tick=0, channel=0, data=[56, 0]),
   midi.NoteOnEvent(tick=0, channel=0, data=[51, 0]),
   midi.NoteOnEvent(tick=0, channel=0, data=[63, 0]),
   midi.NoteOnEvent(tick=0, channel=0, data=[75, 0]),
   midi.NoteOnEvent(tick=0, channel=0, data=[71, 100]),
   midi.NoteOnEvent(tick=0, channel=0, data=[59, 100]),
   midi.NoteOnEvent(tick=0, channel=0, data=[56, 100]),
   midi.NoteOnEvent(tick=0, channel=0, data=[68, 100]),
   midi.NoteOnEvent(tick=0, channel=0, data=[51, 100]),
   midi.NoteOnEvent(tick=0, channel=0, data=[75, 100]),
   midi.NoteOnEvent(tick=0, channel=0, data=[44, 100]),
   midi.NoteOnEvent(tick=0, channel=0, data=[63, 100]),
   midi.NoteOnEvent(tick=60, channel=0, data=[63, 0]),
   midi.NoteOnEvent(tick=0, channel=0, data=[71, 0]),
   midi.NoteOnEvent(tick=0, channel=0, data=[51, 0]),
   midi.NoteOnEvent(tick=0, channel=0, data=[59, 0]),
   midi.NoteOnEvent(tick=0, channel=0, data=[56, 0]),
   midi.NoteOnEvent(tick=0, channel=0, data=[68, 0]),
   midi.NoteOnEvent(tick=0, channel=0, data=[75, 0]),
   midi.NoteOnEvent(tick=0, channel=0, data=[44, 0]),
   midi.NoteOnEvent(tick=30, channel=0, data=[63, 100]),
   midi.NoteOnEvent(tick=0, channel=0, data=[44, 100]),
   midi.NoteOnEvent(tick=0, channel=0, data=[51, 100]),
   midi.NoteOnEvent(tick=0, channel=0, data=[68, 100]),
   midi.NoteOnEvent(tick=0, channel=0, data=[75, 100]),
   midi.NoteOnEvent(tick=0, channel=0, data=[56, 100]),
   midi.NoteOnEvent(tick=0, channel=0, data=[71, 100]),
   midi.NoteOnEvent(tick=0, channel=0, data=[59, 100]),
   midi.NoteOnEvent(tick=90, channel=0, data=[59, 0]),
   midi.NoteOnEvent(tick=0, channel=0, data=[63, 0]),
   midi.NoteOnEvent(tick=0, channel=0, data=[75, 0]),
   midi.NoteOnEvent(tick=0, channel=0, data=[44, 0]),
   midi.NoteOnEvent(tick=0, channel=0, data=[51, 0]),
   midi.NoteOnEvent(tick=0, channel=0, data=[68, 0]),
   midi.NoteOnEvent(tick=0, channel=0, data=[56, 0]),
   midi.NoteOnEvent(tick=0, channel=0, data=[71, 0]),
   midi.NoteOnEvent(tick=0, channel=0, data=[56, 100]),
   midi.NoteOnEvent(tick=0, channel=0, data=[59, 100]),
   midi.NoteOnEvent(tick=0, channel=0, data=[63, 100]),
   midi.NoteOnEvent(tick=0, channel=0, data=[40, 100]),
   midi.NoteOnEvent(tick=0, channel=0, data=[71, 100]),
   midi.NoteOnEvent(tick=0, channel=0, data=[75, 100]),
   midi.NoteOnEvent(tick=0, channel=0, data=[47, 100]),
   midi.NoteOnEvent(tick=0, channel=0, data=[68, 100]),
   midi.NoteOnEvent(tick=0, channel=0, data=[52, 100]),
   midi.NoteOnEvent(tick=240, channel=0, data=[52, 0]),
   midi.NoteOnEvent(tick=0, channel=0, data=[40, 0]),
   midi.NoteOnEvent(tick=0, channel=0, data=[56, 0]),
   midi.NoteOnEvent(tick=0, channel=0, data=[71, 0]),
   midi.NoteOnEvent(tick=0, channel=0, data=[59, 0]),
   midi.NoteOnEvent(tick=0, channel=0, data=[63, 0]),
   midi.NoteOnEvent(tick=0, channel=0, data=[47, 0]),
   midi.NoteOnEvent(tick=0, channel=0, data=[75, 0]),
   midi.NoteOnEvent(tick=0, channel=0, data=[68, 0]),
   midi.NoteOnEvent(tick=0, channel=0, data=[73, 100]),
   midi.NoteOnEvent(tick=0, channel=0, data=[66, 100]),
   midi.NoteOnEvent(tick=0, channel=0, data=[54, 100]),
   midi.NoteOnEvent(tick=0, channel=0, data=[68, 100]),
   midi.NoteOnEvent(tick=0, channel=0, data=[58, 100]),
   midi.NoteOnEvent(tick=0, channel=0, data=[42, 100]),
   midi.NoteOnEvent(tick=0, channel=0, data=[49, 100]),
   midi.NoteOnEvent(tick=0, channel=0, data=[61, 100]),
   midi.NoteOnEvent(tick=180, channel=0, data=[61, 0]),
   midi.NoteOnEvent(tick=0, channel=0, data=[73, 0]),
   midi.NoteOnEvent(tick=0, channel=0, data=[58, 0]),
   midi.NoteOnEvent(tick=0, channel=0, data=[66, 0]),
   midi.NoteOnEvent(tick=0, channel=0, data=[54, 0]),
   midi.NoteOnEvent(tick=0, channel=0, data=[68, 0]),
   midi.NoteOnEvent(tick=0, channel=0, data=[42, 0]),
   midi.NoteOnEvent(tick=0, channel=0, data=[49, 0]),
   midi.NoteOnEvent(tick=0, channel=0, data=[32, 120]),
   midi.NoteOnEvent(tick=0, channel=0, data=[75, 100]),
   midi.NoteOnEvent(tick=0, channel=0, data=[59, 100]),
   midi.NoteOnEvent(tick=0, channel=0, data=[71, 100]),
   midi.NoteOnEvent(tick=0, channel=0, data=[68, 100]),
   midi.NoteOnEvent(tick=0, channel=0, data=[44, 100]),
   midi.NoteOnEvent(tick=0, channel=0, data=[63, 100]),
   midi.NoteOnEvent(tick=0, channel=0, data=[51, 100]),
   midi.NoteOnEvent(tick=0, channel=0, data=[56, 100]),
   midi.NoteOnEvent(tick=540, channel=0, data=[56, 0]),
   midi.NoteOnEvent(tick=0, channel=0, data=[71, 0]),
   midi.NoteOnEvent(tick=0, channel=0, data=[32, 0]),
   midi.NoteOnEvent(tick=0, channel=0, data=[68, 0]),
   midi.NoteOnEvent(tick=0, channel=0, data=[75, 0]),
   midi.NoteOnEvent(tick=0, channel=0, data=[59, 0]),
   midi.NoteOnEvent(tick=0, channel=0, data=[63, 0]),
   midi.NoteOnEvent(tick=0, channel=0, data=[44, 0]),
   midi.NoteOnEvent(tick=0, channel=0, data=[51, 0]),
   midi.NoteOnEvent(tick=0, channel=0, data=[56, 100]),
   midi.NoteOnEvent(tick=0, channel=0, data=[40, 100]),
   midi.NoteOnEvent(tick=0, channel=0, data=[56, 100]),
   midi.NoteOnEvent(tick=0, channel=0, data=[59, 100]),
   midi.NoteOnEvent(tick=0, channel=0, data=[63, 100]),
   midi.NoteOnEvent(tick=0, channel=0, data=[68, 100]),
   midi.NoteOnEvent(tick=0, channel=0, data=[71, 100]),
   midi.NoteOnEvent(tick=0, channel=0, data=[75, 100]),
   midi.NoteOnEvent(tick=0, channel=0, data=[47, 100]),
   midi.NoteOnEvent(tick=0, channel=0, data=[52, 100]),
   midi.NoteOnEvent(tick=60, channel=0, data=[56, 0]),
   midi.NoteOnEvent(tick=180, channel=0, data=[59, 0]),
   midi.NoteOnEvent(tick=0, channel=0, data=[63, 0]),
   midi.NoteOnEvent(tick=0, channel=0, data=[40, 0]),
   midi.NoteOnEvent(tick=0, channel=0, data=[68, 0]),
   midi.NoteOnEvent(tick=0, channel=0, data=[56, 0]),
   midi.NoteOnEvent(tick=0, channel=0, data=[47, 0]),
   midi.NoteOnEvent(tick=0, channel=0, data=[75, 0]),
   midi.NoteOnEvent(tick=0, channel=0, data=[71, 0]),
   midi.NoteOnEvent(tick=0, channel=0, data=[52, 0]),
   midi.NoteOnEvent(tick=0, channel=0, data=[73, 100]),
   midi.NoteOnEvent(tick=0, channel=0, data=[66, 100]),
   midi.NoteOnEvent(tick=0, channel=0, data=[54, 100]),
   midi.NoteOnEvent(tick=0, channel=0, data=[49, 100]),
   midi.NoteOnEvent(tick=0, channel=0, data=[58, 100]),
   midi.NoteOnEvent(tick=0, channel=0, data=[42, 100]),
   midi.NoteOnEvent(tick=0, channel=0, data=[61, 100]),
   midi.NoteOnEvent(tick=0, channel=0, data=[68, 100]),
   midi.NoteOnEvent(tick=180, channel=0, data=[68, 0]),
   midi.NoteOnEvent(tick=0, channel=0, data=[73, 0]),
   midi.NoteOnEvent(tick=0, channel=0, data=[58, 0]),
   midi.NoteOnEvent(tick=0, channel=0, data=[66, 0]),
   midi.NoteOnEvent(tick=0, channel=0, data=[54, 0]),
   midi.NoteOnEvent(tick=0, channel=0, data=[49, 0]),
   midi.NoteOnEvent(tick=0, channel=0, data=[42, 0]),
   midi.NoteOnEvent(tick=0, channel=0, data=[61, 0]),
   midi.NoteOnEvent(tick=0, channel=0, data=[44, 100]),
   midi.NoteOnEvent(tick=0, channel=0, data=[51, 100]),
   midi.NoteOnEvent(tick=0, channel=0, data=[56, 100]),
   midi.NoteOnEvent(tick=0, channel=0, data=[63, 100]),
   midi.NoteOnEvent(tick=0, channel=0, data=[68, 100]),
   midi.NoteOnEvent(tick=0, channel=0, data=[75, 100]),
   midi.NoteOnEvent(tick=0, channel=0, data=[59, 100]),
   midi.NoteOnEvent(tick=0, channel=0, data=[71, 100]),
   midi.NoteOnEvent(tick=360, channel=0, data=[71, 0]),
   midi.NoteOnEvent(tick=0, channel=0, data=[44, 0]),
   midi.NoteOnEvent(tick=0, channel=0, data=[68, 0]),
   midi.NoteOnEvent(tick=0, channel=0, data=[51, 0]),
   midi.NoteOnEvent(tick=0, channel=0, data=[56, 0]),
   midi.NoteOnEvent(tick=0, channel=0, data=[63, 0]),
   midi.NoteOnEvent(tick=0, channel=0, data=[75, 0]),
   midi.NoteOnEvent(tick=0, channel=0, data=[59, 0]),
   midi.NoteOnEvent(tick=0, channel=0, data=[44, 100]),
   midi.NoteOnEvent(tick=0, channel=0, data=[51, 100]),
   midi.NoteOnEvent(tick=0, channel=0, data=[56, 100]),
   midi.NoteOnEvent(tick=0, channel=0, data=[63, 100]),
   midi.NoteOnEvent(tick=0, channel=0, data=[68, 100]),
   midi.NoteOnEvent(tick=0, channel=0, data=[75, 100]),
   midi.NoteOnEvent(tick=0, channel=0, data=[71, 100]),
   midi.NoteOnEvent(tick=0, channel=0, data=[59, 100]),
   midi.NoteOnEvent(tick=60, channel=0, data=[59, 0]),
   midi.NoteOnEvent(tick=0, channel=0, data=[44, 0]),
   midi.NoteOnEvent(tick=0, channel=0, data=[68, 0]),
   midi.NoteOnEvent(tick=0, channel=0, data=[51, 0]),
   midi.NoteOnEvent(tick=0, channel=0, data=[56, 0]),
   midi.NoteOnEvent(tick=0, channel=0, data=[63, 0]),
   midi.NoteOnEvent(tick=0, channel=0, data=[75, 0]),
   midi.NoteOnEvent(tick=0, channel=0, data=[71, 0]),
   midi.NoteOnEvent(tick=30, channel=0, data=[51, 100]),
   midi.NoteOnEvent(tick=0, channel=0, data=[44, 100]),
   midi.NoteOnEvent(tick=0, channel=0, data=[75, 100]),
   midi.NoteOnEvent(tick=0, channel=0, data=[71, 100]),
   midi.NoteOnEvent(tick=0, channel=0, data=[68, 100]),
   midi.NoteOnEvent(tick=0, channel=0, data=[63, 100]),
   midi.NoteOnEvent(tick=0, channel=0, data=[59, 100]),
   midi.NoteOnEvent(tick=0, channel=0, data=[56, 100]),
   midi.NoteOnEvent(tick=60, channel=0, data=[56, 0]),
   midi.NoteOnEvent(tick=0, channel=0, data=[51, 0]),
   midi.NoteOnEvent(tick=0, channel=0, data=[68, 0]),
   midi.NoteOnEvent(tick=0, channel=0, data=[44, 0]),
   midi.NoteOnEvent(tick=0, channel=0, data=[75, 0]),
   midi.NoteOnEvent(tick=0, channel=0, data=[71, 0]),
   midi.NoteOnEvent(tick=0, channel=0, data=[63, 0]),
   midi.NoteOnEvent(tick=0, channel=0, data=[59, 0]),
   midi.NoteOnEvent(tick=30, channel=0, data=[40, 100]),
   midi.NoteOnEvent(tick=0, channel=0, data=[56, 100]),
   midi.NoteOnEvent(tick=0, channel=0, data=[59, 100]),
   midi.NoteOnEvent(tick=0, channel=0, data=[63, 100]),
   midi.NoteOnEvent(tick=0, channel=0, data=[68, 100]),
   midi.NoteOnEvent(tick=0, channel=0, data=[71, 100]),
   midi.NoteOnEvent(tick=0, channel=0, data=[52, 100]),
   midi.NoteOnEvent(tick=0, channel=0, data=[47, 100]),
   midi.NoteOnEvent(tick=0, channel=0, data=[75, 100]),
   midi.NoteOnEvent(tick=240, channel=0, data=[75, 0]),
   midi.NoteOnEvent(tick=0, channel=0, data=[63, 0]),
   midi.NoteOnEvent(tick=0, channel=0, data=[40, 0]),
   midi.NoteOnEvent(tick=0, channel=0, data=[68, 0]),
   midi.NoteOnEvent(tick=0, channel=0, data=[56, 0]),
   midi.NoteOnEvent(tick=0, channel=0, data=[59, 0]),
   midi.NoteOnEvent(tick=0, channel=0, data=[52, 0]),
   midi.NoteOnEvent(tick=0, channel=0, data=[71, 0]),
   midi.NoteOnEvent(tick=0, channel=0, data=[47, 0]),
   midi.NoteOnEvent(tick=0, channel=0, data=[73, 100]),
   midi.NoteOnEvent(tick=0, channel=0, data=[54, 100]),
   midi.NoteOnEvent(tick=0, channel=0, data=[66, 100]),
   midi.NoteOnEvent(tick=0, channel=0, data=[58, 100]),
   midi.NoteOnEvent(tick=0, channel=0, data=[42, 100]),
   midi.NoteOnEvent(tick=0, channel=0, data=[49, 100]),
   midi.NoteOnEvent(tick=0, channel=0, data=[68, 100]),
   midi.NoteOnEvent(tick=0, channel=0, data=[61, 100]),
   midi.NoteOnEvent(tick=180, channel=0, data=[61, 0]),
   midi.NoteOnEvent(tick=0, channel=0, data=[73, 0]),
   midi.NoteOnEvent(tick=0, channel=0, data=[42, 0]),
   midi.NoteOnEvent(tick=0, channel=0, data=[54, 0]),
   midi.NoteOnEvent(tick=0, channel=0, data=[66, 0]),
   midi.NoteOnEvent(tick=0, channel=0, data=[58, 0]),
   midi.NoteOnEvent(tick=0, channel=0, data=[49, 0]),
   midi.NoteOnEvent(tick=0, channel=0, data=[68, 0]),
   midi.NoteOnEvent(tick=0, channel=0, data=[44, 100]),
   midi.NoteOnEvent(tick=0, channel=0, data=[51, 100]),
   midi.NoteOnEvent(tick=0, channel=0, data=[56, 100]),
   midi.NoteOnEvent(tick=0, channel=0, data=[59, 100]),
   midi.NoteOnEvent(tick=0, channel=0, data=[63, 100]),
   midi.NoteOnEvent(tick=0, channel=0, data=[68, 100]),
   midi.NoteOnEvent(tick=0, channel=0, data=[71, 100]),
   midi.NoteOnEvent(tick=0, channel=0, data=[75, 100]),
   midi.NoteOnEvent(tick=360, channel=0, data=[75, 0]),
   midi.NoteOnEvent(tick=0, channel=0, data=[44, 0]),
   midi.NoteOnEvent(tick=0, channel=0, data=[63, 0]),
   midi.NoteOnEvent(tick=0, channel=0, data=[51, 0]),
   midi.NoteOnEvent(tick=0, channel=0, data=[56, 0]),
   midi.NoteOnEvent(tick=0, channel=0, data=[59, 0]),
   midi.NoteOnEvent(tick=0, channel=0, data=[68, 0]),
   midi.NoteOnEvent(tick=0, channel=0, data=[71, 0]),
   midi.NoteOnEvent(tick=0, channel=0, data=[37, 100]),
   midi.NoteOnEvent(tick=0, channel=0, data=[44, 100]),
   midi.NoteOnEvent(tick=0, channel=0, data=[49, 100]),
   midi.NoteOnEvent(tick=0, channel=0, data=[56, 100]),
   midi.NoteOnEvent(tick=0, channel=0, data=[59, 100]),
   midi.NoteOnEvent(tick=0, channel=0, data=[63, 100]),
   midi.NoteOnEvent(tick=0, channel=0, data=[66, 100]),
   midi.NoteOnEvent(tick=0, channel=0, data=[71, 100]),
   midi.NoteOnEvent(tick=0, channel=0, data=[75, 100]),
   midi.NoteOnEvent(tick=60, channel=0, data=[75, 0]),
   midi.NoteOnEvent(tick=0, channel=0, data=[56, 0]),
   midi.NoteOnEvent(tick=0, channel=0, data=[37, 0]),
   midi.NoteOnEvent(tick=0, channel=0, data=[59, 0]),
   midi.NoteOnEvent(tick=0, channel=0, data=[44, 0]),
   midi.NoteOnEvent(tick=0, channel=0, data=[49, 0]),
   midi.NoteOnEvent(tick=0, channel=0, data=[66, 0]),
   midi.NoteOnEvent(tick=0, channel=0, data=[63, 0]),
   midi.NoteOnEvent(tick=0, channel=0, data=[71, 0]),
   midi.NoteOnEvent(tick=30, channel=0, data=[37, 100]),
   midi.NoteOnEvent(tick=0, channel=0, data=[44, 100]),
   midi.NoteOnEvent(tick=0, channel=0, data=[49, 100]),
   midi.NoteOnEvent(tick=0, channel=0, data=[56, 100]),
   midi.NoteOnEvent(tick=0, channel=0, data=[59, 100]),
   midi.NoteOnEvent(tick=0, channel=0, data=[63, 100]),
   midi.NoteOnEvent(tick=0, channel=0, data=[66, 100]),
   midi.NoteOnEvent(tick=0, channel=0, data=[71, 100]),
   midi.NoteOnEvent(tick=0, channel=0, data=[75, 100]),
   midi.NoteOnEvent(tick=60, channel=0, data=[75, 0]),
   midi.NoteOnEvent(tick=0, channel=0, data=[56, 0]),
   midi.NoteOnEvent(tick=0, channel=0, data=[37, 0]),
   midi.NoteOnEvent(tick=0, channel=0, data=[59, 0]),
   midi.NoteOnEvent(tick=0, channel=0, data=[44, 0]),
   midi.NoteOnEvent(tick=0, channel=0, data=[49, 0]),
   midi.NoteOnEvent(tick=0, channel=0, data=[66, 0]),
   midi.NoteOnEvent(tick=0, channel=0, data=[63, 0]),
   midi.NoteOnEvent(tick=0, channel=0, data=[71, 0]),
   midi.NoteOnEvent(tick=30, channel=0, data=[75, 100]),
   midi.NoteOnEvent(tick=0, channel=0, data=[47, 100]),
   midi.NoteOnEvent(tick=0, channel=0, data=[52, 100]),
   midi.NoteOnEvent(tick=0, channel=0, data=[40, 100]),
   midi.NoteOnEvent(tick=0, channel=0, data=[56, 100]),
   midi.NoteOnEvent(tick=0, channel=0, data=[63, 100]),
   midi.NoteOnEvent(tick=0, channel=0, data=[68, 100]),
   midi.NoteOnEvent(tick=0, channel=0, data=[71, 100]),
   midi.NoteOnEvent(tick=0, channel=0, data=[59, 100]),
   midi.NoteOnEvent(tick=240, channel=0, data=[59, 0]),
   midi.NoteOnEvent(tick=0, channel=0, data=[40, 0]),
   midi.NoteOnEvent(tick=0, channel=0, data=[75, 0]),
   midi.NoteOnEvent(tick=0, channel=0, data=[56, 0]),
   midi.NoteOnEvent(tick=0, channel=0, data=[47, 0]),
   midi.NoteOnEvent(tick=0, channel=0, data=[52, 0]),
   midi.NoteOnEvent(tick=0, channel=0, data=[68, 0]),
   midi.NoteOnEvent(tick=0, channel=0, data=[63, 0]),
   midi.NoteOnEvent(tick=0, channel=0, data=[71, 0]),
   midi.NoteOnEvent(tick=0, channel=0, data=[61, 100]),
   midi.NoteOnEvent(tick=0, channel=0, data=[42, 100]),
   midi.NoteOnEvent(tick=0, channel=0, data=[68, 100]),
   midi.NoteOnEvent(tick=0, channel=0, data=[73, 100]),
   midi.NoteOnEvent(tick=0, channel=0, data=[66, 100]),
   midi.NoteOnEvent(tick=0, channel=0, data=[49, 100]),
   midi.NoteOnEvent(tick=0, channel=0, data=[54, 100]),
   midi.NoteOnEvent(tick=0, channel=0, data=[58, 100]),
   midi.NoteOnEvent(tick=180, channel=0, data=[58, 0]),
   midi.NoteOnEvent(tick=0, channel=0, data=[61, 0]),
   midi.NoteOnEvent(tick=0, channel=0, data=[66, 0]),
   midi.NoteOnEvent(tick=0, channel=0, data=[42, 0]),
   midi.NoteOnEvent(tick=0, channel=0, data=[68, 0]),
   midi.NoteOnEvent(tick=0, channel=0, data=[73, 0]),
   midi.NoteOnEvent(tick=0, channel=0, data=[49, 0]),
   midi.NoteOnEvent(tick=0, channel=0, data=[54, 0]),
   midi.NoteOnEvent(tick=0, channel=0, data=[71, 100]),
   midi.NoteOnEvent(tick=0, channel=0, data=[68, 100]),
   midi.NoteOnEvent(tick=0, channel=0, data=[56, 100]),
   midi.NoteOnEvent(tick=0, channel=0, data=[51, 100]),
   midi.NoteOnEvent(tick=0, channel=0, data=[44, 100]),
   midi.NoteOnEvent(tick=0, channel=0, data=[63, 100]),
   midi.NoteOnEvent(tick=0, channel=0, data=[75, 100]),
   midi.NoteOnEvent(tick=0, channel=0, data=[59, 100]),
   midi.NoteOnEvent(tick=360, channel=0, data=[59, 0]),
   midi.NoteOnEvent(tick=0, channel=0, data=[71, 0]),
   midi.NoteOnEvent(tick=0, channel=0, data=[44, 0]),
   midi.NoteOnEvent(tick=0, channel=0, data=[68, 0]),
   midi.NoteOnEvent(tick=0, channel=0, data=[56, 0]),
   midi.NoteOnEvent(tick=0, channel=0, data=[51, 0]),
   midi.NoteOnEvent(tick=0, channel=0, data=[63, 0]),
   midi.NoteOnEvent(tick=0, channel=0, data=[75, 0]),
   midi.NoteOnEvent(tick=0, channel=0, data=[51, 100]),
   midi.NoteOnEvent(tick=0, channel=0, data=[75, 100]),
   midi.NoteOnEvent(tick=0, channel=0, data=[44, 100]),
   midi.NoteOnEvent(tick=0, channel=0, data=[63, 100]),
   midi.NoteOnEvent(tick=0, channel=0, data=[59, 100]),
   midi.NoteOnEvent(tick=0, channel=0, data=[56, 100]),
   midi.NoteOnEvent(tick=0, channel=0, data=[68, 100]),
   midi.NoteOnEvent(tick=0, channel=0, data=[71, 100]),
   midi.NoteOnEvent(tick=60, channel=0, data=[71, 0]),
   midi.NoteOnEvent(tick=0, channel=0, data=[51, 0]),
   midi.NoteOnEvent(tick=0, channel=0, data=[59, 0]),
   midi.NoteOnEvent(tick=0, channel=0, data=[75, 0]),
   midi.NoteOnEvent(tick=0, channel=0, data=[44, 0]),
   midi.NoteOnEvent(tick=0, channel=0, data=[63, 0]),
   midi.NoteOnEvent(tick=0, channel=0, data=[56, 0]),
   midi.NoteOnEvent(tick=0, channel=0, data=[68, 0]),
   midi.NoteOnEvent(tick=30, channel=0, data=[68, 100]),
   midi.NoteOnEvent(tick=0, channel=0, data=[63, 100]),
   midi.NoteOnEvent(tick=0, channel=0, data=[44, 100]),
   midi.NoteOnEvent(tick=0, channel=0, data=[51, 100]),
   midi.NoteOnEvent(tick=0, channel=0, data=[59, 100]),
   midi.NoteOnEvent(tick=0, channel=0, data=[56, 100]),
   midi.NoteOnEvent(tick=0, channel=0, data=[75, 100]),
   midi.NoteOnEvent(tick=0, channel=0, data=[71, 100]),
   midi.NoteOnEvent(tick=90, channel=0, data=[71, 0]),
   midi.NoteOnEvent(tick=0, channel=0, data=[68, 0]),
   midi.NoteOnEvent(tick=0, channel=0, data=[59, 0]),
   midi.NoteOnEvent(tick=0, channel=0, data=[63, 0]),
   midi.NoteOnEvent(tick=0, channel=0, data=[44, 0]),
   midi.NoteOnEvent(tick=0, channel=0, data=[51, 0]),
   midi.NoteOnEvent(tick=0, channel=0, data=[56, 0]),
   midi.NoteOnEvent(tick=0, channel=0, data=[75, 0]),
   midi.NoteOnEvent(tick=0, channel=0, data=[59, 100]),
   midi.NoteOnEvent(tick=0, channel=0, data=[56, 100]),
   midi.NoteOnEvent(tick=0, channel=0, data=[68, 100]),
   midi.NoteOnEvent(tick=0, channel=0, data=[63, 100]),
   midi.NoteOnEvent(tick=0, channel=0, data=[40, 100]),
   midi.NoteOnEvent(tick=0, channel=0, data=[71, 100]),
   midi.NoteOnEvent(tick=0, channel=0, data=[75, 100]),
   midi.NoteOnEvent(tick=0, channel=0, data=[47, 100]),
   midi.NoteOnEvent(tick=0, channel=0, data=[52, 100]),
   midi.NoteOnEvent(tick=240, channel=0, data=[52, 0]),
   midi.NoteOnEvent(tick=0, channel=0, data=[63, 0]),
   midi.NoteOnEvent(tick=0, channel=0, data=[59, 0]),
   midi.NoteOnEvent(tick=0, channel=0, data=[40, 0]),
   midi.NoteOnEvent(tick=0, channel=0, data=[56, 0]),
   midi.NoteOnEvent(tick=0, channel=0, data=[68, 0]),
   midi.NoteOnEvent(tick=0, channel=0, data=[75, 0]),
   midi.NoteOnEvent(tick=0, channel=0, data=[71, 0]),
   midi.NoteOnEvent(tick=0, channel=0, data=[47, 0]),
   midi.NoteOnEvent(tick=0, channel=0, data=[58, 100]),
   midi.NoteOnEvent(tick=0, channel=0, data=[68, 100]),
   midi.NoteOnEvent(tick=0, channel=0, data=[49, 100]),
   midi.NoteOnEvent(tick=0, channel=0, data=[61, 100]),
   midi.NoteOnEvent(tick=0, channel=0, data=[54, 100]),
   midi.NoteOnEvent(tick=0, channel=0, data=[73, 100]),
   midi.NoteOnEvent(tick=0, channel=0, data=[42, 100]),
   midi.NoteOnEvent(tick=0, channel=0, data=[66, 100]),
   midi.NoteOnEvent(tick=180, channel=0, data=[66, 0]),
   midi.NoteOnEvent(tick=0, channel=0, data=[58, 0]),
   midi.NoteOnEvent(tick=0, channel=0, data=[54, 0]),
   midi.NoteOnEvent(tick=0, channel=0, data=[68, 0]),
   midi.NoteOnEvent(tick=0, channel=0, data=[49, 0]),
   midi.NoteOnEvent(tick=0, channel=0, data=[61, 0]),
   midi.NoteOnEvent(tick=0, channel=0, data=[73, 0]),
   midi.NoteOnEvent(tick=0, channel=0, data=[42, 0]),
   midi.NoteOnEvent(tick=0, channel=0, data=[51, 100]),
   midi.NoteOnEvent(tick=0, channel=0, data=[56, 100]),
   midi.NoteOnEvent(tick=0, channel=0, data=[75, 100]),
   midi.NoteOnEvent(tick=0, channel=0, data=[68, 100]),
   midi.NoteOnEvent(tick=0, channel=0, data=[63, 100]),
   midi.NoteOnEvent(tick=0, channel=0, data=[44, 100]),
   midi.NoteOnEvent(tick=0, channel=0, data=[71, 100]),
   midi.NoteOnEvent(tick=0, channel=0, data=[59, 100]),
   midi.NoteOnEvent(tick=360, channel=0, data=[59, 0]),
   midi.NoteOnEvent(tick=0, channel=0, data=[51, 0]),
   midi.NoteOnEvent(tick=0, channel=0, data=[63, 0]),
   midi.NoteOnEvent(tick=0, channel=0, data=[56, 0]),
   midi.NoteOnEvent(tick=0, channel=0, data=[75, 0]),
   midi.NoteOnEvent(tick=0, channel=0, data=[68, 0]),
   midi.NoteOnEvent(tick=0, channel=0, data=[44, 0]),
   midi.NoteOnEvent(tick=0, channel=0, data=[71, 0]),
   midi.NoteOnEvent(tick=0, channel=0, data=[71, 100]),
   midi.NoteOnEvent(tick=0, channel=0, data=[63, 100]),
   midi.NoteOnEvent(tick=0, channel=0, data=[56, 100]),
   midi.NoteOnEvent(tick=0, channel=0, data=[68, 100]),
   midi.NoteOnEvent(tick=0, channel=0, data=[51, 100]),
   midi.NoteOnEvent(tick=0, channel=0, data=[59, 100]),
   midi.NoteOnEvent(tick=0, channel=0, data=[75, 100]),
   midi.NoteOnEvent(tick=0, channel=0, data=[44, 100]),
   midi.NoteOnEvent(tick=60, channel=0, data=[44, 0]),
   midi.NoteOnEvent(tick=0, channel=0, data=[71, 0]),
   midi.NoteOnEvent(tick=0, channel=0, data=[51, 0]),
   midi.NoteOnEvent(tick=0, channel=0, data=[63, 0]),
   midi.NoteOnEvent(tick=0, channel=0, data=[56, 0]),
   midi.NoteOnEvent(tick=0, channel=0, data=[68, 0]),
   midi.NoteOnEvent(tick=0, channel=0, data=[59, 0]),
   midi.NoteOnEvent(tick=0, channel=0, data=[75, 0]),
   midi.NoteOnEvent(tick=30, channel=0, data=[44, 100]),
   midi.NoteOnEvent(tick=0, channel=0, data=[56, 100]),
   midi.NoteOnEvent(tick=0, channel=0, data=[75, 100]),
   midi.NoteOnEvent(tick=0, channel=0, data=[63, 100]),
   midi.NoteOnEvent(tick=0, channel=0, data=[68, 100]),
   midi.NoteOnEvent(tick=0, channel=0, data=[71, 100]),
   midi.NoteOnEvent(tick=0, channel=0, data=[59, 100]),
   midi.NoteOnEvent(tick=0, channel=0, data=[51, 100]),
   midi.NoteOnEvent(tick=90, channel=0, data=[51, 0]),
   midi.NoteOnEvent(tick=0, channel=0, data=[44, 0]),
   midi.NoteOnEvent(tick=0, channel=0, data=[68, 0]),
   midi.NoteOnEvent(tick=0, channel=0, data=[56, 0]),
   midi.NoteOnEvent(tick=0, channel=0, data=[75, 0]),
   midi.NoteOnEvent(tick=0, channel=0, data=[63, 0]),
   midi.NoteOnEvent(tick=0, channel=0, data=[71, 0]),
   midi.NoteOnEvent(tick=0, channel=0, data=[59, 0]),
   midi.NoteOnEvent(tick=0, channel=0, data=[52, 100]),
   midi.NoteOnEvent(tick=0, channel=0, data=[59, 100]),
   midi.NoteOnEvent(tick=0, channel=0, data=[56, 100]),
   midi.NoteOnEvent(tick=0, channel=0, data=[68, 100]),
   midi.NoteOnEvent(tick=0, channel=0, data=[75, 100]),
   midi.NoteOnEvent(tick=0, channel=0, data=[71, 100]),
   midi.NoteOnEvent(tick=0, channel=0, data=[40, 100]),
   midi.NoteOnEvent(tick=0, channel=0, data=[63, 100]),
   midi.NoteOnEvent(tick=0, channel=0, data=[47, 100]),
   midi.NoteOnEvent(tick=240, channel=0, data=[47, 0]),
   midi.NoteOnEvent(tick=0, channel=0, data=[68, 0]),
   midi.NoteOnEvent(tick=0, channel=0, data=[52, 0]),
   midi.NoteOnEvent(tick=0, channel=0, data=[75, 0]),
   midi.NoteOnEvent(tick=0, channel=0, data=[59, 0]),
   midi.NoteOnEvent(tick=0, channel=0, data=[56, 0]),
   midi.NoteOnEvent(tick=0, channel=0, data=[40, 0]),
   midi.NoteOnEvent(tick=0, channel=0, data=[71, 0]),
   midi.NoteOnEvent(tick=0, channel=0, data=[63, 0]),
   midi.NoteOnEvent(tick=0, channel=0, data=[58, 100]),
   midi.NoteOnEvent(tick=0, channel=0, data=[61, 100]),
   midi.NoteOnEvent(tick=0, channel=0, data=[49, 100]),
   midi.NoteOnEvent(tick=0, channel=0, data=[42, 100]),
   midi.NoteOnEvent(tick=0, channel=0, data=[54, 100]),
   midi.NoteOnEvent(tick=0, channel=0, data=[66, 100]),
   midi.NoteOnEvent(tick=0, channel=0, data=[68, 100]),
   midi.NoteOnEvent(tick=0, channel=0, data=[73, 100]),
   midi.NoteOnEvent(tick=180, channel=0, data=[73, 0]),
   midi.NoteOnEvent(tick=0, channel=0, data=[58, 0]),
   midi.NoteOnEvent(tick=0, channel=0, data=[54, 0]),
   midi.NoteOnEvent(tick=0, channel=0, data=[61, 0]),
   midi.NoteOnEvent(tick=0, channel=0, data=[49, 0]),
   midi.NoteOnEvent(tick=0, channel=0, data=[42, 0]),
   midi.NoteOnEvent(tick=0, channel=0, data=[66, 0]),
   midi.NoteOnEvent(tick=0, channel=0, data=[68, 0]),
   midi.NoteOnEvent(tick=0, channel=0, data=[51, 100]),
   midi.NoteOnEvent(tick=0, channel=0, data=[56, 100]),
   midi.NoteOnEvent(tick=0, channel=0, data=[75, 100]),
   midi.NoteOnEvent(tick=0, channel=0, data=[59, 100]),
   midi.NoteOnEvent(tick=0, channel=0, data=[71, 100]),
   midi.NoteOnEvent(tick=0, channel=0, data=[44, 100]),
   midi.NoteOnEvent(tick=0, channel=0, data=[68, 100]),
   midi.NoteOnEvent(tick=0, channel=0, data=[63, 100]),
   midi.NoteOnEvent(tick=360, channel=0, data=[63, 0]),
   midi.NoteOnEvent(tick=0, channel=0, data=[51, 0]),
   midi.NoteOnEvent(tick=0, channel=0, data=[71, 0]),
   midi.NoteOnEvent(tick=0, channel=0, data=[56, 0]),
   midi.NoteOnEvent(tick=0, channel=0, data=[75, 0]),
   midi.NoteOnEvent(tick=0, channel=0, data=[59, 0]),
   midi.NoteOnEvent(tick=0, channel=0, data=[44, 0]),
   midi.NoteOnEvent(tick=0, channel=0, data=[68, 0]),
   midi.ControlChangeEvent(tick=7560, channel=0, data=[7, 0]),
   midi.ControlChangeEvent(tick=2, channel=0, data=[7, 1]),
   midi.ControlChangeEvent(tick=3, channel=0, data=[7, 2]),
   midi.ControlChangeEvent(tick=2, channel=0, data=[7, 3]),
   midi.ControlChangeEvent(tick=3, channel=0, data=[7, 4]),
   midi.ControlChangeEvent(tick=2, channel=0, data=[7, 5]),
   midi.ControlChangeEvent(tick=2, channel=0, data=[7, 6]),
   midi.ControlChangeEvent(tick=3, channel=0, data=[7, 7]),
   midi.ControlChangeEvent(tick=2, channel=0, data=[7, 8]),
   midi.ControlChangeEvent(tick=2, channel=0, data=[7, 9]),
   midi.ControlChangeEvent(tick=3, channel=0, data=[7, 10]),
   midi.ControlChangeEvent(tick=2, channel=0, data=[7, 11]),
   midi.ControlChangeEvent(tick=2, channel=0, data=[7, 12]),
   midi.ControlChangeEvent(tick=3, channel=0, data=[7, 13]),
   midi.ControlChangeEvent(tick=2, channel=0, data=[7, 14]),
   midi.ControlChangeEvent(tick=2, channel=0, data=[7, 15]),
   midi.ControlChangeEvent(tick=3, channel=0, data=[7, 16]),
   midi.ControlChangeEvent(tick=2, channel=0, data=[7, 17]),
   midi.ControlChangeEvent(tick=3, channel=0, data=[7, 18]),
   midi.ControlChangeEvent(tick=2, channel=0, data=[7, 19]),
   midi.ControlChangeEvent(tick=2, channel=0, data=[7, 20]),
   midi.ControlChangeEvent(tick=3, channel=0, data=[7, 21]),
   midi.ControlChangeEvent(tick=2, channel=0, data=[7, 22]),
   midi.ControlChangeEvent(tick=2, channel=0, data=[7, 23]),
   midi.ControlChangeEvent(tick=3, channel=0, data=[7, 24]),
   midi.ControlChangeEvent(tick=2, channel=0, data=[7, 25]),
   midi.NoteOnEvent(tick=1, channel=0, data=[63, 100]),
   midi.NoteOnEvent(tick=0, channel=0, data=[52, 100]),
   midi.NoteOnEvent(tick=0, channel=0, data=[47, 100]),
   midi.NoteOnEvent(tick=0, channel=0, data=[75, 100]),
   midi.NoteOnEvent(tick=0, channel=0, data=[71, 100]),
   midi.NoteOnEvent(tick=0, channel=0, data=[68, 100]),
   midi.NoteOnEvent(tick=0, channel=0, data=[59, 100]),
   midi.NoteOnEvent(tick=0, channel=0, data=[40, 100]),
   midi.NoteOnEvent(tick=0, channel=0, data=[56, 100]),
   midi.ControlChangeEvent(tick=1, channel=0, data=[7, 26]),
   midi.ControlChangeEvent(tick=3, channel=0, data=[7, 27]),
   midi.ControlChangeEvent(tick=2, channel=0, data=[7, 28]),
   midi.ControlChangeEvent(tick=3, channel=0, data=[7, 29]),
   midi.ControlChangeEvent(tick=2, channel=0, data=[7, 30]),
   midi.ControlChangeEvent(tick=2, channel=0, data=[7, 31]),
   midi.ControlChangeEvent(tick=3, channel=0, data=[7, 32]),
   midi.ControlChangeEvent(tick=2, channel=0, data=[7, 33]),
   midi.ControlChangeEvent(tick=2, channel=0, data=[7, 34]),
   midi.ControlChangeEvent(tick=3, channel=0, data=[7, 35]),
   midi.ControlChangeEvent(tick=2, channel=0, data=[7, 36]),
   midi.ControlChangeEvent(tick=2, channel=0, data=[7, 37]),
   midi.ControlChangeEvent(tick=3, channel=0, data=[7, 38]),
   midi.ControlChangeEvent(tick=2, channel=0, data=[7, 39]),
   midi.ControlChangeEvent(tick=3, channel=0, data=[7, 40]),
   midi.ControlChangeEvent(tick=2, channel=0, data=[7, 41]),
   midi.ControlChangeEvent(tick=2, channel=0, data=[7, 42]),
   midi.ControlChangeEvent(tick=3, channel=0, data=[7, 43]),
   midi.ControlChangeEvent(tick=2, channel=0, data=[7, 44]),
   midi.ControlChangeEvent(tick=2, channel=0, data=[7, 45]),
   midi.ControlChangeEvent(tick=3, channel=0, data=[7, 46]),
   midi.ControlChangeEvent(tick=2, channel=0, data=[7, 47]),
   midi.ControlChangeEvent(tick=2, channel=0, data=[7, 48]),
   midi.ControlChangeEvent(tick=3, channel=0, data=[7, 49]),
   midi.ControlChangeEvent(tick=2, channel=0, data=[7, 50]),
   midi.ControlChangeEvent(tick=3, channel=0, data=[7, 51]),
   midi.ControlChangeEvent(tick=2, channel=0, data=[7, 52]),
   midi.ControlChangeEvent(tick=2, channel=0, data=[7, 53]),
   midi.ControlChangeEvent(tick=3, channel=0, data=[7, 54]),
   midi.ControlChangeEvent(tick=2, channel=0, data=[7, 55]),
   midi.ControlChangeEvent(tick=2, channel=0, data=[7, 56]),
   midi.ControlChangeEvent(tick=3, channel=0, data=[7, 57]),
   midi.ControlChangeEvent(tick=2, channel=0, data=[7, 58]),
   midi.ControlChangeEvent(tick=2, channel=0, data=[7, 59]),
   midi.ControlChangeEvent(tick=3, channel=0, data=[7, 60]),
   midi.ControlChangeEvent(tick=2, channel=0, data=[7, 61]),
   midi.ControlChangeEvent(tick=3, channel=0, data=[7, 62]),
   midi.ControlChangeEvent(tick=2, channel=0, data=[7, 63]),
   midi.ControlChangeEvent(tick=2, channel=0, data=[7, 64]),
   midi.ControlChangeEvent(tick=3, channel=0, data=[7, 65]),
   midi.ControlChangeEvent(tick=2, channel=0, data=[7, 66]),
   midi.ControlChangeEvent(tick=2, channel=0, data=[7, 67]),
   midi.ControlChangeEvent(tick=3, channel=0, data=[7, 68]),
   midi.ControlChangeEvent(tick=2, channel=0, data=[7, 69]),
   midi.ControlChangeEvent(tick=2, channel=0, data=[7, 70]),
   midi.ControlChangeEvent(tick=3, channel=0, data=[7, 71]),
   midi.ControlChangeEvent(tick=2, channel=0, data=[7, 72]),
   midi.ControlChangeEvent(tick=3, channel=0, data=[7, 73]),
   midi.ControlChangeEvent(tick=2, channel=0, data=[7, 74]),
   midi.ControlChangeEvent(tick=2, channel=0, data=[7, 75]),
   midi.ControlChangeEvent(tick=3, channel=0, data=[7, 76]),
   midi.ControlChangeEvent(tick=2, channel=0, data=[7, 77]),
   midi.ControlChangeEvent(tick=2, channel=0, data=[7, 78]),
   midi.ControlChangeEvent(tick=3, channel=0, data=[7, 79]),
   midi.ControlChangeEvent(tick=2, channel=0, data=[7, 80]),
   midi.ControlChangeEvent(tick=2, channel=0, data=[7, 81]),
   midi.ControlChangeEvent(tick=3, channel=0, data=[7, 82]),
   midi.ControlChangeEvent(tick=2, channel=0, data=[7, 83]),
   midi.ControlChangeEvent(tick=2, channel=0, data=[7, 84]),
   midi.ControlChangeEvent(tick=3, channel=0, data=[7, 85]),
   midi.ControlChangeEvent(tick=2, channel=0, data=[7, 86]),
   midi.ControlChangeEvent(tick=3, channel=0, data=[7, 87]),
   midi.ControlChangeEvent(tick=2, channel=0, data=[7, 88]),
   midi.ControlChangeEvent(tick=2, channel=0, data=[7, 89]),
   midi.ControlChangeEvent(tick=3, channel=0, data=[7, 90]),
   midi.ControlChangeEvent(tick=2, channel=0, data=[7, 91]),
   midi.ControlChangeEvent(tick=2, channel=0, data=[7, 92]),
   midi.ControlChangeEvent(tick=3, channel=0, data=[7, 93]),
   midi.ControlChangeEvent(tick=2, channel=0, data=[7, 94]),
   midi.ControlChangeEvent(tick=2, channel=0, data=[7, 95]),
   midi.ControlChangeEvent(tick=3, channel=0, data=[7, 96]),
   midi.ControlChangeEvent(tick=2, channel=0, data=[7, 97]),
   midi.ControlChangeEvent(tick=3, channel=0, data=[7, 98]),
   midi.ControlChangeEvent(tick=2, channel=0, data=[7, 99]),
   midi.ControlChangeEvent(tick=2, channel=0, data=[7, 100]),
   midi.ControlChangeEvent(tick=3, channel=0, data=[7, 101]),
   midi.ControlChangeEvent(tick=2, channel=0, data=[7, 102]),
   midi.ControlChangeEvent(tick=2, channel=0, data=[7, 103]),
   midi.ControlChangeEvent(tick=3, channel=0, data=[7, 104]),
   midi.ControlChangeEvent(tick=2, channel=0, data=[7, 105]),
   midi.ControlChangeEvent(tick=2, channel=0, data=[7, 106]),
   midi.ControlChangeEvent(tick=3, channel=0, data=[7, 107]),
   midi.ControlChangeEvent(tick=2, channel=0, data=[7, 108]),
   midi.ControlChangeEvent(tick=3, channel=0, data=[7, 109]),
   midi.ControlChangeEvent(tick=2, channel=0, data=[7, 110]),
   midi.ControlChangeEvent(tick=2, channel=0, data=[7, 111]),
   midi.ControlChangeEvent(tick=3, channel=0, data=[7, 112]),
   midi.ControlChangeEvent(tick=2, channel=0, data=[7, 113]),
   midi.ControlChangeEvent(tick=2, channel=0, data=[7, 114]),
   midi.ControlChangeEvent(tick=3, channel=0, data=[7, 115]),
   midi.ControlChangeEvent(tick=2, channel=0, data=[7, 116]),
   midi.ControlChangeEvent(tick=2, channel=0, data=[7, 117]),
   midi.ControlChangeEvent(tick=3, channel=0, data=[7, 118]),
   midi.ControlChangeEvent(tick=2, channel=0, data=[7, 119]),
   midi.ControlChangeEvent(tick=3, channel=0, data=[7, 120]),
   midi.ControlChangeEvent(tick=2, channel=0, data=[7, 121]),
   midi.ControlChangeEvent(tick=2, channel=0, data=[7, 122]),
   midi.ControlChangeEvent(tick=3, channel=0, data=[7, 123]),
   midi.ControlChangeEvent(tick=2, channel=0, data=[7, 124]),
   midi.ControlChangeEvent(tick=2, channel=0, data=[7, 125]),
   midi.ControlChangeEvent(tick=3, channel=0, data=[7, 126]),
   midi.NoteOnEvent(tick=2, channel=0, data=[56, 0]),
   midi.NoteOnEvent(tick=0, channel=0, data=[75, 0]),
   midi.NoteOnEvent(tick=0, channel=0, data=[63, 0]),
   midi.NoteOnEvent(tick=0, channel=0, data=[71, 0]),
   midi.NoteOnEvent(tick=0, channel=0, data=[52, 0]),
   midi.NoteOnEvent(tick=0, channel=0, data=[47, 0]),
   midi.NoteOnEvent(tick=0, channel=0, data=[59, 0]),
   midi.NoteOnEvent(tick=0, channel=0, data=[68, 0]),
   midi.NoteOnEvent(tick=0, channel=0, data=[40, 0]),
   midi.ControlChangeEvent(tick=0, channel=0, data=[7, 100]),
   midi.NoteOnEvent(tick=0, channel=0, data=[40, 100]),
   midi.NoteOnEvent(tick=0, channel=0, data=[56, 100]),
   midi.NoteOnEvent(tick=0, channel=0, data=[59, 100]),
   midi.NoteOnEvent(tick=0, channel=0, data=[63, 100]),
   midi.NoteOnEvent(tick=0, channel=0, data=[68, 100]),
   midi.NoteOnEvent(tick=0, channel=0, data=[71, 100]),
   midi.NoteOnEvent(tick=0, channel=0, data=[75, 100]),
   midi.NoteOnEvent(tick=0, channel=0, data=[47, 100]),
   midi.NoteOnEvent(tick=0, channel=0, data=[52, 100]),
   midi.NoteOnEvent(tick=240, channel=0, data=[52, 0]),
   midi.NoteOnEvent(tick=0, channel=0, data=[63, 0]),
   midi.NoteOnEvent(tick=0, channel=0, data=[40, 0]),
   midi.NoteOnEvent(tick=0, channel=0, data=[68, 0]),
   midi.NoteOnEvent(tick=0, channel=0, data=[56, 0]),
   midi.NoteOnEvent(tick=0, channel=0, data=[59, 0]),
   midi.NoteOnEvent(tick=0, channel=0, data=[75, 0]),
   midi.NoteOnEvent(tick=0, channel=0, data=[71, 0]),
   midi.NoteOnEvent(tick=0, channel=0, data=[47, 0]),
   midi.NoteOnEvent(tick=0, channel=0, data=[73, 100]),
   midi.NoteOnEvent(tick=0, channel=0, data=[66, 100]),
   midi.NoteOnEvent(tick=0, channel=0, data=[54, 100]),
   midi.NoteOnEvent(tick=0, channel=0, data=[49, 100]),
   midi.NoteOnEvent(tick=0, channel=0, data=[58, 100]),
   midi.NoteOnEvent(tick=0, channel=0, data=[42, 100]),
   midi.NoteOnEvent(tick=0, channel=0, data=[61, 100]),
   midi.NoteOnEvent(tick=0, channel=0, data=[68, 100]),
   midi.NoteOnEvent(tick=180, channel=0, data=[68, 0]),
   midi.NoteOnEvent(tick=0, channel=0, data=[73, 0]),
   midi.NoteOnEvent(tick=0, channel=0, data=[58, 0]),
   midi.NoteOnEvent(tick=0, channel=0, data=[66, 0]),
   midi.NoteOnEvent(tick=0, channel=0, data=[54, 0]),
   midi.NoteOnEvent(tick=0, channel=0, data=[49, 0]),
   midi.NoteOnEvent(tick=0, channel=0, data=[42, 0]),
   midi.NoteOnEvent(tick=0, channel=0, data=[61, 0]),
   midi.NoteOnEvent(tick=0, channel=0, data=[44, 100]),
   midi.NoteOnEvent(tick=0, channel=0, data=[51, 100]),
   midi.NoteOnEvent(tick=0, channel=0, data=[56, 100]),
   midi.NoteOnEvent(tick=0, channel=0, data=[63, 100]),
   midi.NoteOnEvent(tick=0, channel=0, data=[68, 100]),
   midi.NoteOnEvent(tick=0, channel=0, data=[75, 100]),
   midi.NoteOnEvent(tick=0, channel=0, data=[59, 100]),
   midi.NoteOnEvent(tick=0, channel=0, data=[71, 100]),
   midi.NoteOnEvent(tick=360, channel=0, data=[71, 0]),
   midi.NoteOnEvent(tick=0, channel=0, data=[44, 0]),
   midi.NoteOnEvent(tick=0, channel=0, data=[68, 0]),
   midi.NoteOnEvent(tick=0, channel=0, data=[51, 0]),
   midi.NoteOnEvent(tick=0, channel=0, data=[56, 0]),
   midi.NoteOnEvent(tick=0, channel=0, data=[63, 0]),
   midi.NoteOnEvent(tick=0, channel=0, data=[75, 0]),
   midi.NoteOnEvent(tick=0, channel=0, data=[59, 0]),
   midi.NoteOnEvent(tick=0, channel=0, data=[44, 100]),
   midi.NoteOnEvent(tick=0, channel=0, data=[51, 100]),
   midi.NoteOnEvent(tick=0, channel=0, data=[56, 100]),
   midi.NoteOnEvent(tick=0, channel=0, data=[63, 100]),
   midi.NoteOnEvent(tick=0, channel=0, data=[68, 100]),
   midi.NoteOnEvent(tick=0, channel=0, data=[75, 100]),
   midi.NoteOnEvent(tick=0, channel=0, data=[71, 100]),
   midi.NoteOnEvent(tick=0, channel=0, data=[59, 100]),
   midi.NoteOnEvent(tick=60, channel=0, data=[59, 0]),
   midi.NoteOnEvent(tick=0, channel=0, data=[44, 0]),
   midi.NoteOnEvent(tick=0, channel=0, data=[68, 0]),
   midi.NoteOnEvent(tick=0, channel=0, data=[51, 0]),
   midi.NoteOnEvent(tick=0, channel=0, data=[56, 0]),
   midi.NoteOnEvent(tick=0, channel=0, data=[63, 0]),
   midi.NoteOnEvent(tick=0, channel=0, data=[75, 0]),
   midi.NoteOnEvent(tick=0, channel=0, data=[71, 0]),
   midi.NoteOnEvent(tick=30, channel=0, data=[51, 100]),
   midi.NoteOnEvent(tick=0, channel=0, data=[44, 100]),
   midi.NoteOnEvent(tick=0, channel=0, data=[75, 100]),
   midi.NoteOnEvent(tick=0, channel=0, data=[71, 100]),
   midi.NoteOnEvent(tick=0, channel=0, data=[68, 100]),
   midi.NoteOnEvent(tick=0, channel=0, data=[63, 100]),
   midi.NoteOnEvent(tick=0, channel=0, data=[59, 100]),
   midi.NoteOnEvent(tick=0, channel=0, data=[56, 100]),
   midi.NoteOnEvent(tick=60, channel=0, data=[56, 0]),
   midi.NoteOnEvent(tick=0, channel=0, data=[51, 0]),
   midi.NoteOnEvent(tick=0, channel=0, data=[68, 0]),
   midi.NoteOnEvent(tick=0, channel=0, data=[44, 0]),
   midi.NoteOnEvent(tick=0, channel=0, data=[75, 0]),
   midi.NoteOnEvent(tick=0, channel=0, data=[71, 0]),
   midi.NoteOnEvent(tick=0, channel=0, data=[63, 0]),
   midi.NoteOnEvent(tick=0, channel=0, data=[59, 0]),
   midi.NoteOnEvent(tick=30, channel=0, data=[40, 100]),
   midi.NoteOnEvent(tick=0, channel=0, data=[56, 100]),
   midi.NoteOnEvent(tick=0, channel=0, data=[59, 100]),
   midi.NoteOnEvent(tick=0, channel=0, data=[63, 100]),
   midi.NoteOnEvent(tick=0, channel=0, data=[68, 100]),
   midi.NoteOnEvent(tick=0, channel=0, data=[71, 100]),
   midi.NoteOnEvent(tick=0, channel=0, data=[52, 100]),
   midi.NoteOnEvent(tick=0, channel=0, data=[47, 100]),
   midi.NoteOnEvent(tick=0, channel=0, data=[75, 100]),
   midi.NoteOnEvent(tick=240, channel=0, data=[75, 0]),
   midi.NoteOnEvent(tick=0, channel=0, data=[63, 0]),
   midi.NoteOnEvent(tick=0, channel=0, data=[40, 0]),
   midi.NoteOnEvent(tick=0, channel=0, data=[68, 0]),
   midi.NoteOnEvent(tick=0, channel=0, data=[56, 0]),
   midi.NoteOnEvent(tick=0, channel=0, data=[59, 0]),
   midi.NoteOnEvent(tick=0, channel=0, data=[52, 0]),
   midi.NoteOnEvent(tick=0, channel=0, data=[71, 0]),
   midi.NoteOnEvent(tick=0, channel=0, data=[47, 0]),
   midi.NoteOnEvent(tick=0, channel=0, data=[73, 100]),
   midi.NoteOnEvent(tick=0, channel=0, data=[54, 100]),
   midi.NoteOnEvent(tick=0, channel=0, data=[66, 100]),
   midi.NoteOnEvent(tick=0, channel=0, data=[58, 100]),
   midi.NoteOnEvent(tick=0, channel=0, data=[42, 100]),
   midi.NoteOnEvent(tick=0, channel=0, data=[49, 100]),
   midi.NoteOnEvent(tick=0, channel=0, data=[68, 100]),
   midi.NoteOnEvent(tick=0, channel=0, data=[61, 100]),
   midi.NoteOnEvent(tick=180, channel=0, data=[61, 0]),
   midi.NoteOnEvent(tick=0, channel=0, data=[73, 0]),
   midi.NoteOnEvent(tick=0, channel=0, data=[42, 0]),
   midi.NoteOnEvent(tick=0, channel=0, data=[54, 0]),
   midi.NoteOnEvent(tick=0, channel=0, data=[66, 0]),
   midi.NoteOnEvent(tick=0, channel=0, data=[58, 0]),
   midi.NoteOnEvent(tick=0, channel=0, data=[49, 0]),
   midi.NoteOnEvent(tick=0, channel=0, data=[68, 0]),
   midi.NoteOnEvent(tick=0, channel=0, data=[44, 100]),
   midi.NoteOnEvent(tick=0, channel=0, data=[51, 100]),
   midi.NoteOnEvent(tick=0, channel=0, data=[56, 100]),
   midi.NoteOnEvent(tick=0, channel=0, data=[59, 100]),
   midi.NoteOnEvent(tick=0, channel=0, data=[63, 100]),
   midi.NoteOnEvent(tick=0, channel=0, data=[68, 100]),
   midi.NoteOnEvent(tick=0, channel=0, data=[71, 100]),
   midi.NoteOnEvent(tick=0, channel=0, data=[75, 100]),
   midi.NoteOnEvent(tick=360, channel=0, data=[75, 0]),
   midi.NoteOnEvent(tick=0, channel=0, data=[44, 0]),
   midi.NoteOnEvent(tick=0, channel=0, data=[63, 0]),
   midi.NoteOnEvent(tick=0, channel=0, data=[51, 0]),
   midi.NoteOnEvent(tick=0, channel=0, data=[56, 0]),
   midi.NoteOnEvent(tick=0, channel=0, data=[59, 0]),
   midi.NoteOnEvent(tick=0, channel=0, data=[68, 0]),
   midi.NoteOnEvent(tick=0, channel=0, data=[71, 0]),
   midi.NoteOnEvent(tick=0, channel=0, data=[37, 100]),
   midi.NoteOnEvent(tick=0, channel=0, data=[44, 100]),
   midi.NoteOnEvent(tick=0, channel=0, data=[49, 100]),
   midi.NoteOnEvent(tick=0, channel=0, data=[56, 100]),
   midi.NoteOnEvent(tick=0, channel=0, data=[59, 100]),
   midi.NoteOnEvent(tick=0, channel=0, data=[63, 100]),
   midi.NoteOnEvent(tick=0, channel=0, data=[66, 100]),
   midi.NoteOnEvent(tick=0, channel=0, data=[71, 100]),
   midi.NoteOnEvent(tick=0, channel=0, data=[75, 100]),
   midi.NoteOnEvent(tick=60, channel=0, data=[75, 0]),
   midi.NoteOnEvent(tick=0, channel=0, data=[56, 0]),
   midi.NoteOnEvent(tick=0, channel=0, data=[37, 0]),
   midi.NoteOnEvent(tick=0, channel=0, data=[59, 0]),
   midi.NoteOnEvent(tick=0, channel=0, data=[44, 0]),
   midi.NoteOnEvent(tick=0, channel=0, data=[49, 0]),
   midi.NoteOnEvent(tick=0, channel=0, data=[66, 0]),
   midi.NoteOnEvent(tick=0, channel=0, data=[63, 0]),
   midi.NoteOnEvent(tick=0, channel=0, data=[71, 0]),
   midi.NoteOnEvent(tick=30, channel=0, data=[37, 100]),
   midi.NoteOnEvent(tick=0, channel=0, data=[44, 100]),
   midi.NoteOnEvent(tick=0, channel=0, data=[49, 100]),
   midi.NoteOnEvent(tick=0, channel=0, data=[56, 100]),
   midi.NoteOnEvent(tick=0, channel=0, data=[59, 100]),
   midi.NoteOnEvent(tick=0, channel=0, data=[63, 100]),
   midi.NoteOnEvent(tick=0, channel=0, data=[66, 100]),
   midi.NoteOnEvent(tick=0, channel=0, data=[71, 100]),
   midi.NoteOnEvent(tick=0, channel=0, data=[75, 100]),
   midi.NoteOnEvent(tick=60, channel=0, data=[75, 0]),
   midi.NoteOnEvent(tick=0, channel=0, data=[56, 0]),
   midi.NoteOnEvent(tick=0, channel=0, data=[37, 0]),
   midi.NoteOnEvent(tick=0, channel=0, data=[59, 0]),
   midi.NoteOnEvent(tick=0, channel=0, data=[44, 0]),
   midi.NoteOnEvent(tick=0, channel=0, data=[49, 0]),
   midi.NoteOnEvent(tick=0, channel=0, data=[66, 0]),
   midi.NoteOnEvent(tick=0, channel=0, data=[63, 0]),
   midi.NoteOnEvent(tick=0, channel=0, data=[71, 0]),
   midi.NoteOnEvent(tick=30, channel=0, data=[75, 100]),
   midi.NoteOnEvent(tick=0, channel=0, data=[47, 100]),
   midi.NoteOnEvent(tick=0, channel=0, data=[52, 100]),
   midi.NoteOnEvent(tick=0, channel=0, data=[40, 100]),
   midi.NoteOnEvent(tick=0, channel=0, data=[56, 100]),
   midi.NoteOnEvent(tick=0, channel=0, data=[63, 100]),
   midi.NoteOnEvent(tick=0, channel=0, data=[68, 100]),
   midi.NoteOnEvent(tick=0, channel=0, data=[71, 100]),
   midi.NoteOnEvent(tick=0, channel=0, data=[59, 100]),
   midi.NoteOnEvent(tick=240, channel=0, data=[59, 0]),
   midi.NoteOnEvent(tick=0, channel=0, data=[40, 0]),
   midi.NoteOnEvent(tick=0, channel=0, data=[75, 0]),
   midi.NoteOnEvent(tick=0, channel=0, data=[56, 0]),
   midi.NoteOnEvent(tick=0, channel=0, data=[47, 0]),
   midi.NoteOnEvent(tick=0, channel=0, data=[52, 0]),
   midi.NoteOnEvent(tick=0, channel=0, data=[68, 0]),
   midi.NoteOnEvent(tick=0, channel=0, data=[63, 0]),
   midi.NoteOnEvent(tick=0, channel=0, data=[71, 0]),
   midi.NoteOnEvent(tick=0, channel=0, data=[61, 100]),
   midi.NoteOnEvent(tick=0, channel=0, data=[42, 100]),
   midi.NoteOnEvent(tick=0, channel=0, data=[68, 100]),
   midi.NoteOnEvent(tick=0, channel=0, data=[73, 100]),
   midi.NoteOnEvent(tick=0, channel=0, data=[66, 100]),
   midi.NoteOnEvent(tick=0, channel=0, data=[49, 100]),
   midi.NoteOnEvent(tick=0, channel=0, data=[54, 100]),
   midi.NoteOnEvent(tick=0, channel=0, data=[58, 100]),
   midi.NoteOnEvent(tick=180, channel=0, data=[58, 0]),
   midi.NoteOnEvent(tick=0, channel=0, data=[61, 0]),
   midi.NoteOnEvent(tick=0, channel=0, data=[66, 0]),
   midi.NoteOnEvent(tick=0, channel=0, data=[42, 0]),
   midi.NoteOnEvent(tick=0, channel=0, data=[68, 0]),
   midi.NoteOnEvent(tick=0, channel=0, data=[73, 0]),
   midi.NoteOnEvent(tick=0, channel=0, data=[49, 0]),
   midi.NoteOnEvent(tick=0, channel=0, data=[54, 0]),
   midi.NoteOnEvent(tick=0, channel=0, data=[71, 100]),
   midi.NoteOnEvent(tick=0, channel=0, data=[68, 100]),
   midi.NoteOnEvent(tick=0, channel=0, data=[56, 100]),
   midi.NoteOnEvent(tick=0, channel=0, data=[51, 100]),
   midi.NoteOnEvent(tick=0, channel=0, data=[44, 100]),
   midi.NoteOnEvent(tick=0, channel=0, data=[63, 100]),
   midi.NoteOnEvent(tick=0, channel=0, data=[75, 100]),
   midi.NoteOnEvent(tick=0, channel=0, data=[59, 100]),
   midi.NoteOnEvent(tick=360, channel=0, data=[59, 0]),
   midi.NoteOnEvent(tick=0, channel=0, data=[71, 0]),
   midi.NoteOnEvent(tick=0, channel=0, data=[44, 0]),
   midi.NoteOnEvent(tick=0, channel=0, data=[68, 0]),
   midi.NoteOnEvent(tick=0, channel=0, data=[56, 0]),
   midi.NoteOnEvent(tick=0, channel=0, data=[51, 0]),
   midi.NoteOnEvent(tick=0, channel=0, data=[63, 0]),
   midi.NoteOnEvent(tick=0, channel=0, data=[75, 0]),
   midi.NoteOnEvent(tick=0, channel=0, data=[51, 100]),
   midi.NoteOnEvent(tick=0, channel=0, data=[75, 100]),
   midi.NoteOnEvent(tick=0, channel=0, data=[44, 100]),
   midi.NoteOnEvent(tick=0, channel=0, data=[63, 100]),
   midi.NoteOnEvent(tick=0, channel=0, data=[59, 100]),
   midi.NoteOnEvent(tick=0, channel=0, data=[56, 100]),
   midi.NoteOnEvent(tick=0, channel=0, data=[68, 100]),
   midi.NoteOnEvent(tick=0, channel=0, data=[71, 100]),
   midi.NoteOnEvent(tick=60, channel=0, data=[71, 0]),
   midi.NoteOnEvent(tick=0, channel=0, data=[51, 0]),
   midi.NoteOnEvent(tick=0, channel=0, data=[59, 0]),
   midi.NoteOnEvent(tick=0, channel=0, data=[75, 0]),
   midi.NoteOnEvent(tick=0, channel=0, data=[44, 0]),
   midi.NoteOnEvent(tick=0, channel=0, data=[63, 0]),
   midi.NoteOnEvent(tick=0, channel=0, data=[56, 0]),
   midi.NoteOnEvent(tick=0, channel=0, data=[68, 0]),
   midi.NoteOnEvent(tick=30, channel=0, data=[68, 100]),
   midi.NoteOnEvent(tick=0, channel=0, data=[63, 100]),
   midi.NoteOnEvent(tick=0, channel=0, data=[44, 100]),
   midi.NoteOnEvent(tick=0, channel=0, data=[51, 100]),
   midi.NoteOnEvent(tick=0, channel=0, data=[59, 100]),
   midi.NoteOnEvent(tick=0, channel=0, data=[56, 100]),
   midi.NoteOnEvent(tick=0, channel=0, data=[75, 100]),
   midi.NoteOnEvent(tick=0, channel=0, data=[71, 100]),
   midi.NoteOnEvent(tick=90, channel=0, data=[71, 0]),
   midi.NoteOnEvent(tick=0, channel=0, data=[68, 0]),
   midi.NoteOnEvent(tick=0, channel=0, data=[59, 0]),
   midi.NoteOnEvent(tick=0, channel=0, data=[63, 0]),
   midi.NoteOnEvent(tick=0, channel=0, data=[44, 0]),
   midi.NoteOnEvent(tick=0, channel=0, data=[51, 0]),
   midi.NoteOnEvent(tick=0, channel=0, data=[56, 0]),
   midi.NoteOnEvent(tick=0, channel=0, data=[75, 0]),
   midi.NoteOnEvent(tick=0, channel=0, data=[59, 100]),
   midi.NoteOnEvent(tick=0, channel=0, data=[56, 100]),
   midi.NoteOnEvent(tick=0, channel=0, data=[68, 100]),
   midi.NoteOnEvent(tick=0, channel=0, data=[63, 100]),
   midi.NoteOnEvent(tick=0, channel=0, data=[40, 100]),
   midi.NoteOnEvent(tick=0, channel=0, data=[71, 100]),
   midi.NoteOnEvent(tick=0, channel=0, data=[75, 100]),
   midi.NoteOnEvent(tick=0, channel=0, data=[47, 100]),
   midi.NoteOnEvent(tick=0, channel=0, data=[52, 100]),
   midi.NoteOnEvent(tick=240, channel=0, data=[52, 0]),
   midi.NoteOnEvent(tick=0, channel=0, data=[63, 0]),
   midi.NoteOnEvent(tick=0, channel=0, data=[59, 0]),
   midi.NoteOnEvent(tick=0, channel=0, data=[40, 0]),
   midi.NoteOnEvent(tick=0, channel=0, data=[56, 0]),
   midi.NoteOnEvent(tick=0, channel=0, data=[68, 0]),
   midi.NoteOnEvent(tick=0, channel=0, data=[75, 0]),
   midi.NoteOnEvent(tick=0, channel=0, data=[71, 0]),
   midi.NoteOnEvent(tick=0, channel=0, data=[47, 0]),
   midi.NoteOnEvent(tick=0, channel=0, data=[58, 100]),
   midi.NoteOnEvent(tick=0, channel=0, data=[68, 100]),
   midi.NoteOnEvent(tick=0, channel=0, data=[49, 100]),
   midi.NoteOnEvent(tick=0, channel=0, data=[61, 100]),
   midi.NoteOnEvent(tick=0, channel=0, data=[54, 100]),
   midi.NoteOnEvent(tick=0, channel=0, data=[73, 100]),
   midi.NoteOnEvent(tick=0, channel=0, data=[42, 100]),
   midi.NoteOnEvent(tick=0, channel=0, data=[66, 100]),
   midi.NoteOnEvent(tick=180, channel=0, data=[66, 0]),
   midi.NoteOnEvent(tick=0, channel=0, data=[58, 0]),
   midi.NoteOnEvent(tick=0, channel=0, data=[54, 0]),
   midi.NoteOnEvent(tick=0, channel=0, data=[68, 0]),
   midi.NoteOnEvent(tick=0, channel=0, data=[49, 0]),
   midi.NoteOnEvent(tick=0, channel=0, data=[61, 0]),
   midi.NoteOnEvent(tick=0, channel=0, data=[73, 0]),
   midi.NoteOnEvent(tick=0, channel=0, data=[42, 0]),
   midi.NoteOnEvent(tick=0, channel=0, data=[59, 100]),
   midi.NoteOnEvent(tick=0, channel=0, data=[71, 100]),
   midi.NoteOnEvent(tick=0, channel=0, data=[44, 100]),
   midi.NoteOnEvent(tick=0, channel=0, data=[68, 100]),
   midi.NoteOnEvent(tick=0, channel=0, data=[75, 100]),
   midi.NoteOnEvent(tick=0, channel=0, data=[56, 100]),
   midi.NoteOnEvent(tick=0, channel=0, data=[51, 100]),
   midi.NoteOnEvent(tick=0, channel=0, data=[63, 100]),
   midi.NoteOnEvent(tick=540, channel=0, data=[63, 0]),
   midi.NoteOnEvent(tick=0, channel=0, data=[59, 0]),
   midi.NoteOnEvent(tick=0, channel=0, data=[75, 0]),
   midi.NoteOnEvent(tick=0, channel=0, data=[71, 0]),
   midi.NoteOnEvent(tick=0, channel=0, data=[44, 0]),
   midi.NoteOnEvent(tick=0, channel=0, data=[68, 0]),
   midi.NoteOnEvent(tick=0, channel=0, data=[56, 0]),
   midi.NoteOnEvent(tick=0, channel=0, data=[51, 0]),
   midi.NoteOnEvent(tick=0, channel=0, data=[40, 100]),
   midi.NoteOnEvent(tick=0, channel=0, data=[56, 100]),
   midi.NoteOnEvent(tick=0, channel=0, data=[59, 100]),
   midi.NoteOnEvent(tick=0, channel=0, data=[63, 100]),
   midi.NoteOnEvent(tick=0, channel=0, data=[68, 100]),
   midi.NoteOnEvent(tick=0, channel=0, data=[71, 100]),
   midi.NoteOnEvent(tick=0, channel=0, data=[75, 100]),
   midi.NoteOnEvent(tick=0, channel=0, data=[47, 100]),
   midi.NoteOnEvent(tick=0, channel=0, data=[52, 100]),
   midi.NoteOnEvent(tick=240, channel=0, data=[52, 0]),
   midi.NoteOnEvent(tick=0, channel=0, data=[63, 0]),
   midi.NoteOnEvent(tick=0, channel=0, data=[40, 0]),
   midi.NoteOnEvent(tick=0, channel=0, data=[68, 0]),
   midi.NoteOnEvent(tick=0, channel=0, data=[56, 0]),
   midi.NoteOnEvent(tick=0, channel=0, data=[59, 0]),
   midi.NoteOnEvent(tick=0, channel=0, data=[75, 0]),
   midi.NoteOnEvent(tick=0, channel=0, data=[71, 0]),
   midi.NoteOnEvent(tick=0, channel=0, data=[47, 0]),
   midi.NoteOnEvent(tick=0, channel=0, data=[73, 100]),
   midi.NoteOnEvent(tick=0, channel=0, data=[66, 100]),
   midi.NoteOnEvent(tick=0, channel=0, data=[54, 100]),
   midi.NoteOnEvent(tick=0, channel=0, data=[49, 100]),
   midi.NoteOnEvent(tick=0, channel=0, data=[58, 100]),
   midi.NoteOnEvent(tick=0, channel=0, data=[42, 100]),
   midi.NoteOnEvent(tick=0, channel=0, data=[61, 100]),
   midi.NoteOnEvent(tick=0, channel=0, data=[68, 100]),
   midi.NoteOnEvent(tick=180, channel=0, data=[68, 0]),
   midi.NoteOnEvent(tick=0, channel=0, data=[73, 0]),
   midi.NoteOnEvent(tick=0, channel=0, data=[58, 0]),
   midi.NoteOnEvent(tick=0, channel=0, data=[66, 0]),
   midi.NoteOnEvent(tick=0, channel=0, data=[54, 0]),
   midi.NoteOnEvent(tick=0, channel=0, data=[49, 0]),
   midi.NoteOnEvent(tick=0, channel=0, data=[42, 0]),
   midi.NoteOnEvent(tick=0, channel=0, data=[61, 0]),
   midi.NoteOnEvent(tick=0, channel=0, data=[44, 100]),
   midi.NoteOnEvent(tick=0, channel=0, data=[51, 100]),
   midi.NoteOnEvent(tick=0, channel=0, data=[56, 100]),
   midi.NoteOnEvent(tick=0, channel=0, data=[63, 100]),
   midi.NoteOnEvent(tick=0, channel=0, data=[68, 100]),
   midi.NoteOnEvent(tick=0, channel=0, data=[75, 100]),
   midi.NoteOnEvent(tick=0, channel=0, data=[59, 100]),
   midi.NoteOnEvent(tick=0, channel=0, data=[71, 100]),
   midi.NoteOnEvent(tick=360, channel=0, data=[71, 0]),
   midi.NoteOnEvent(tick=0, channel=0, data=[44, 0]),
   midi.NoteOnEvent(tick=0, channel=0, data=[68, 0]),
   midi.NoteOnEvent(tick=0, channel=0, data=[51, 0]),
   midi.NoteOnEvent(tick=0, channel=0, data=[56, 0]),
   midi.NoteOnEvent(tick=0, channel=0, data=[63, 0]),
   midi.NoteOnEvent(tick=0, channel=0, data=[75, 0]),
   midi.NoteOnEvent(tick=0, channel=0, data=[59, 0]),
   midi.NoteOnEvent(tick=0, channel=0, data=[44, 100]),
   midi.NoteOnEvent(tick=0, channel=0, data=[51, 100]),
   midi.NoteOnEvent(tick=0, channel=0, data=[56, 100]),
   midi.NoteOnEvent(tick=0, channel=0, data=[63, 100]),
   midi.NoteOnEvent(tick=0, channel=0, data=[68, 100]),
   midi.NoteOnEvent(tick=0, channel=0, data=[75, 100]),
   midi.NoteOnEvent(tick=0, channel=0, data=[71, 100]),
   midi.NoteOnEvent(tick=0, channel=0, data=[59, 100]),
   midi.NoteOnEvent(tick=60, channel=0, data=[59, 0]),
   midi.NoteOnEvent(tick=0, channel=0, data=[44, 0]),
   midi.NoteOnEvent(tick=0, channel=0, data=[68, 0]),
   midi.NoteOnEvent(tick=0, channel=0, data=[51, 0]),
   midi.NoteOnEvent(tick=0, channel=0, data=[56, 0]),
   midi.NoteOnEvent(tick=0, channel=0, data=[63, 0]),
   midi.NoteOnEvent(tick=0, channel=0, data=[75, 0]),
   midi.NoteOnEvent(tick=0, channel=0, data=[71, 0]),
   midi.NoteOnEvent(tick=30, channel=0, data=[51, 100]),
   midi.NoteOnEvent(tick=0, channel=0, data=[44, 100]),
   midi.NoteOnEvent(tick=0, channel=0, data=[75, 100]),
   midi.NoteOnEvent(tick=0, channel=0, data=[71, 100]),
   midi.NoteOnEvent(tick=0, channel=0, data=[68, 100]),
   midi.NoteOnEvent(tick=0, channel=0, data=[63, 100]),
   midi.NoteOnEvent(tick=0, channel=0, data=[59, 100]),
   midi.NoteOnEvent(tick=0, channel=0, data=[56, 100]),
   midi.NoteOnEvent(tick=60, channel=0, data=[56, 0]),
   midi.NoteOnEvent(tick=0, channel=0, data=[51, 0]),
   midi.NoteOnEvent(tick=0, channel=0, data=[68, 0]),
   midi.NoteOnEvent(tick=0, channel=0, data=[44, 0]),
   midi.NoteOnEvent(tick=0, channel=0, data=[75, 0]),
   midi.NoteOnEvent(tick=0, channel=0, data=[71, 0]),
   midi.NoteOnEvent(tick=0, channel=0, data=[63, 0]),
   midi.NoteOnEvent(tick=0, channel=0, data=[59, 0]),
   midi.NoteOnEvent(tick=30, channel=0, data=[40, 100]),
   midi.NoteOnEvent(tick=0, channel=0, data=[56, 100]),
   midi.NoteOnEvent(tick=0, channel=0, data=[59, 100]),
   midi.NoteOnEvent(tick=0, channel=0, data=[63, 100]),
   midi.NoteOnEvent(tick=0, channel=0, data=[68, 100]),
   midi.NoteOnEvent(tick=0, channel=0, data=[71, 100]),
   midi.NoteOnEvent(tick=0, channel=0, data=[52, 100]),
   midi.NoteOnEvent(tick=0, channel=0, data=[47, 100]),
   midi.NoteOnEvent(tick=0, channel=0, data=[75, 100]),
   midi.NoteOnEvent(tick=240, channel=0, data=[75, 0]),
   midi.NoteOnEvent(tick=0, channel=0, data=[63, 0]),
   midi.NoteOnEvent(tick=0, channel=0, data=[40, 0]),
   midi.NoteOnEvent(tick=0, channel=0, data=[68, 0]),
   midi.NoteOnEvent(tick=0, channel=0, data=[56, 0]),
   midi.NoteOnEvent(tick=0, channel=0, data=[59, 0]),
   midi.NoteOnEvent(tick=0, channel=0, data=[52, 0]),
   midi.NoteOnEvent(tick=0, channel=0, data=[71, 0]),
   midi.NoteOnEvent(tick=0, channel=0, data=[47, 0]),
   midi.NoteOnEvent(tick=0, channel=0, data=[73, 100]),
   midi.NoteOnEvent(tick=0, channel=0, data=[54, 100]),
   midi.NoteOnEvent(tick=0, channel=0, data=[66, 100]),
   midi.NoteOnEvent(tick=0, channel=0, data=[58, 100]),
   midi.NoteOnEvent(tick=0, channel=0, data=[42, 100]),
   midi.NoteOnEvent(tick=0, channel=0, data=[49, 100]),
   midi.NoteOnEvent(tick=0, channel=0, data=[68, 100]),
   midi.NoteOnEvent(tick=0, channel=0, data=[61, 100]),
   midi.NoteOnEvent(tick=180, channel=0, data=[61, 0]),
   midi.NoteOnEvent(tick=0, channel=0, data=[73, 0]),
   midi.NoteOnEvent(tick=0, channel=0, data=[42, 0]),
   midi.NoteOnEvent(tick=0, channel=0, data=[54, 0]),
   midi.NoteOnEvent(tick=0, channel=0, data=[66, 0]),
   midi.NoteOnEvent(tick=0, channel=0, data=[58, 0]),
   midi.NoteOnEvent(tick=0, channel=0, data=[49, 0]),
   midi.NoteOnEvent(tick=0, channel=0, data=[68, 0]),
   midi.NoteOnEvent(tick=0, channel=0, data=[44, 100]),
   midi.NoteOnEvent(tick=0, channel=0, data=[51, 100]),
   midi.NoteOnEvent(tick=0, channel=0, data=[56, 100]),
   midi.NoteOnEvent(tick=0, channel=0, data=[59, 100]),
   midi.NoteOnEvent(tick=0, channel=0, data=[63, 100]),
   midi.NoteOnEvent(tick=0, channel=0, data=[68, 100]),
   midi.NoteOnEvent(tick=0, channel=0, data=[71, 100]),
   midi.NoteOnEvent(tick=0, channel=0, data=[75, 100]),
   midi.NoteOnEvent(tick=360, channel=0, data=[75, 0]),
   midi.NoteOnEvent(tick=0, channel=0, data=[44, 0]),
   midi.NoteOnEvent(tick=0, channel=0, data=[63, 0]),
   midi.NoteOnEvent(tick=0, channel=0, data=[51, 0]),
   midi.NoteOnEvent(tick=0, channel=0, data=[56, 0]),
   midi.NoteOnEvent(tick=0, channel=0, data=[59, 0]),
   midi.NoteOnEvent(tick=0, channel=0, data=[68, 0]),
   midi.NoteOnEvent(tick=0, channel=0, data=[71, 0]),
   midi.NoteOnEvent(tick=0, channel=0, data=[37, 100]),
   midi.NoteOnEvent(tick=0, channel=0, data=[44, 100]),
   midi.NoteOnEvent(tick=0, channel=0, data=[49, 100]),
   midi.NoteOnEvent(tick=0, channel=0, data=[56, 100]),
   midi.NoteOnEvent(tick=0, channel=0, data=[59, 100]),
   midi.NoteOnEvent(tick=0, channel=0, data=[63, 100]),
   midi.NoteOnEvent(tick=0, channel=0, data=[66, 100]),
   midi.NoteOnEvent(tick=0, channel=0, data=[71, 100]),
   midi.NoteOnEvent(tick=0, channel=0, data=[75, 100]),
   midi.NoteOnEvent(tick=60, channel=0, data=[75, 0]),
   midi.NoteOnEvent(tick=0, channel=0, data=[56, 0]),
   midi.NoteOnEvent(tick=0, channel=0, data=[37, 0]),
   midi.NoteOnEvent(tick=0, channel=0, data=[59, 0]),
   midi.NoteOnEvent(tick=0, channel=0, data=[44, 0]),
   midi.NoteOnEvent(tick=0, channel=0, data=[49, 0]),
   midi.NoteOnEvent(tick=0, channel=0, data=[66, 0]),
   midi.NoteOnEvent(tick=0, channel=0, data=[63, 0]),
   midi.NoteOnEvent(tick=0, channel=0, data=[71, 0]),
   midi.NoteOnEvent(tick=30, channel=0, data=[37, 100]),
   midi.NoteOnEvent(tick=0, channel=0, data=[44, 100]),
   midi.NoteOnEvent(tick=0, channel=0, data=[49, 100]),
   midi.NoteOnEvent(tick=0, channel=0, data=[56, 100]),
   midi.NoteOnEvent(tick=0, channel=0, data=[59, 100]),
   midi.NoteOnEvent(tick=0, channel=0, data=[63, 100]),
   midi.NoteOnEvent(tick=0, channel=0, data=[66, 100]),
   midi.NoteOnEvent(tick=0, channel=0, data=[71, 100]),
   midi.NoteOnEvent(tick=0, channel=0, data=[75, 100]),
   midi.NoteOnEvent(tick=60, channel=0, data=[75, 0]),
   midi.NoteOnEvent(tick=0, channel=0, data=[56, 0]),
   midi.NoteOnEvent(tick=0, channel=0, data=[37, 0]),
   midi.NoteOnEvent(tick=0, channel=0, data=[59, 0]),
   midi.NoteOnEvent(tick=0, channel=0, data=[44, 0]),
   midi.NoteOnEvent(tick=0, channel=0, data=[49, 0]),
   midi.NoteOnEvent(tick=0, channel=0, data=[66, 0]),
   midi.NoteOnEvent(tick=0, channel=0, data=[63, 0]),
   midi.NoteOnEvent(tick=0, channel=0, data=[71, 0]),
   midi.NoteOnEvent(tick=30, channel=0, data=[75, 100]),
   midi.NoteOnEvent(tick=0, channel=0, data=[47, 100]),
   midi.NoteOnEvent(tick=0, channel=0, data=[52, 100]),
   midi.NoteOnEvent(tick=0, channel=0, data=[40, 100]),
   midi.NoteOnEvent(tick=0, channel=0, data=[56, 100]),
   midi.NoteOnEvent(tick=0, channel=0, data=[63, 100]),
   midi.NoteOnEvent(tick=0, channel=0, data=[68, 100]),
   midi.NoteOnEvent(tick=0, channel=0, data=[71, 100]),
   midi.NoteOnEvent(tick=0, channel=0, data=[59, 100]),
   midi.NoteOnEvent(tick=240, channel=0, data=[59, 0]),
   midi.NoteOnEvent(tick=0, channel=0, data=[40, 0]),
   midi.NoteOnEvent(tick=0, channel=0, data=[75, 0]),
   midi.NoteOnEvent(tick=0, channel=0, data=[56, 0]),
   midi.NoteOnEvent(tick=0, channel=0, data=[47, 0]),
   midi.NoteOnEvent(tick=0, channel=0, data=[52, 0]),
   midi.NoteOnEvent(tick=0, channel=0, data=[68, 0]),
   midi.NoteOnEvent(tick=0, channel=0, data=[63, 0]),
   midi.NoteOnEvent(tick=0, channel=0, data=[71, 0]),
   midi.NoteOnEvent(tick=0, channel=0, data=[61, 100]),
   midi.NoteOnEvent(tick=0, channel=0, data=[42, 100]),
   midi.NoteOnEvent(tick=0, channel=0, data=[68, 100]),
   midi.NoteOnEvent(tick=0, channel=0, data=[73, 100]),
   midi.NoteOnEvent(tick=0, channel=0, data=[66, 100]),
   midi.NoteOnEvent(tick=0, channel=0, data=[49, 100]),
   midi.NoteOnEvent(tick=0, channel=0, data=[54, 100]),
   midi.NoteOnEvent(tick=0, channel=0, data=[58, 100]),
   midi.NoteOnEvent(tick=180, channel=0, data=[58, 0]),
   midi.NoteOnEvent(tick=0, channel=0, data=[61, 0]),
   midi.NoteOnEvent(tick=0, channel=0, data=[66, 0]),
   midi.NoteOnEvent(tick=0, channel=0, data=[42, 0]),
   midi.NoteOnEvent(tick=0, channel=0, data=[68, 0]),
   midi.NoteOnEvent(tick=0, channel=0, data=[73, 0]),
   midi.NoteOnEvent(tick=0, channel=0, data=[49, 0]),
   midi.NoteOnEvent(tick=0, channel=0, data=[54, 0]),
   midi.NoteOnEvent(tick=0, channel=0, data=[71, 100]),
   midi.NoteOnEvent(tick=0, channel=0, data=[68, 100]),
   midi.NoteOnEvent(tick=0, channel=0, data=[56, 100]),
   midi.NoteOnEvent(tick=0, channel=0, data=[51, 100]),
   midi.NoteOnEvent(tick=0, channel=0, data=[44, 100]),
   midi.NoteOnEvent(tick=0, channel=0, data=[63, 100]),
   midi.NoteOnEvent(tick=0, channel=0, data=[75, 100]),
   midi.NoteOnEvent(tick=0, channel=0, data=[59, 100]),
   midi.NoteOnEvent(tick=360, channel=0, data=[59, 0]),
   midi.NoteOnEvent(tick=0, channel=0, data=[71, 0]),
   midi.NoteOnEvent(tick=0, channel=0, data=[44, 0]),
   midi.NoteOnEvent(tick=0, channel=0, data=[68, 0]),
   midi.NoteOnEvent(tick=0, channel=0, data=[56, 0]),
   midi.NoteOnEvent(tick=0, channel=0, data=[51, 0]),
   midi.NoteOnEvent(tick=0, channel=0, data=[63, 0]),
   midi.NoteOnEvent(tick=0, channel=0, data=[75, 0]),
   midi.NoteOnEvent(tick=0, channel=0, data=[51, 100]),
   midi.NoteOnEvent(tick=0, channel=0, data=[75, 100]),
   midi.NoteOnEvent(tick=0, channel=0, data=[44, 100]),
   midi.NoteOnEvent(tick=0, channel=0, data=[63, 100]),
   midi.NoteOnEvent(tick=0, channel=0, data=[59, 100]),
   midi.NoteOnEvent(tick=0, channel=0, data=[56, 100]),
   midi.NoteOnEvent(tick=0, channel=0, data=[68, 100]),
   midi.NoteOnEvent(tick=0, channel=0, data=[71, 100]),
   midi.NoteOnEvent(tick=60, channel=0, data=[71, 0]),
   midi.NoteOnEvent(tick=0, channel=0, data=[51, 0]),
   midi.NoteOnEvent(tick=0, channel=0, data=[59, 0]),
   midi.NoteOnEvent(tick=0, channel=0, data=[75, 0]),
   midi.NoteOnEvent(tick=0, channel=0, data=[44, 0]),
   midi.NoteOnEvent(tick=0, channel=0, data=[63, 0]),
   midi.NoteOnEvent(tick=0, channel=0, data=[56, 0]),
   midi.NoteOnEvent(tick=0, channel=0, data=[68, 0]),
   midi.NoteOnEvent(tick=30, channel=0, data=[68, 100]),
   midi.NoteOnEvent(tick=0, channel=0, data=[63, 100]),
   midi.NoteOnEvent(tick=0, channel=0, data=[44, 100]),
   midi.NoteOnEvent(tick=0, channel=0, data=[51, 100]),
   midi.NoteOnEvent(tick=0, channel=0, data=[59, 100]),
   midi.NoteOnEvent(tick=0, channel=0, data=[56, 100]),
   midi.NoteOnEvent(tick=0, channel=0, data=[75, 100]),
   midi.NoteOnEvent(tick=0, channel=0, data=[71, 100]),
   midi.NoteOnEvent(tick=90, channel=0, data=[71, 0]),
   midi.NoteOnEvent(tick=0, channel=0, data=[68, 0]),
   midi.NoteOnEvent(tick=0, channel=0, data=[59, 0]),
   midi.NoteOnEvent(tick=0, channel=0, data=[63, 0]),
   midi.NoteOnEvent(tick=0, channel=0, data=[44, 0]),
   midi.NoteOnEvent(tick=0, channel=0, data=[51, 0]),
   midi.NoteOnEvent(tick=0, channel=0, data=[56, 0]),
   midi.NoteOnEvent(tick=0, channel=0, data=[75, 0]),
   midi.NoteOnEvent(tick=0, channel=0, data=[59, 100]),
   midi.NoteOnEvent(tick=0, channel=0, data=[56, 100]),
   midi.NoteOnEvent(tick=0, channel=0, data=[68, 100]),
   midi.NoteOnEvent(tick=0, channel=0, data=[63, 100]),
   midi.NoteOnEvent(tick=0, channel=0, data=[40, 100]),
   midi.NoteOnEvent(tick=0, channel=0, data=[71, 100]),
   midi.NoteOnEvent(tick=0, channel=0, data=[75, 100]),
   midi.NoteOnEvent(tick=0, channel=0, data=[47, 100]),
   midi.NoteOnEvent(tick=0, channel=0, data=[52, 100]),
   midi.NoteOnEvent(tick=240, channel=0, data=[52, 0]),
   midi.NoteOnEvent(tick=0, channel=0, data=[63, 0]),
   midi.NoteOnEvent(tick=0, channel=0, data=[59, 0]),
   midi.NoteOnEvent(tick=0, channel=0, data=[40, 0]),
   midi.NoteOnEvent(tick=0, channel=0, data=[56, 0]),
   midi.NoteOnEvent(tick=0, channel=0, data=[68, 0]),
   midi.NoteOnEvent(tick=0, channel=0, data=[75, 0]),
   midi.NoteOnEvent(tick=0, channel=0, data=[71, 0]),
   midi.NoteOnEvent(tick=0, channel=0, data=[47, 0]),
   midi.NoteOnEvent(tick=0, channel=0, data=[58, 100]),
   midi.NoteOnEvent(tick=0, channel=0, data=[68, 100]),
   midi.NoteOnEvent(tick=0, channel=0, data=[49, 100]),
   midi.NoteOnEvent(tick=0, channel=0, data=[61, 100]),
   midi.NoteOnEvent(tick=0, channel=0, data=[54, 100]),
   midi.NoteOnEvent(tick=0, channel=0, data=[73, 100]),
   midi.NoteOnEvent(tick=0, channel=0, data=[42, 100]),
   midi.NoteOnEvent(tick=0, channel=0, data=[66, 100]),
   midi.NoteOnEvent(tick=180, channel=0, data=[66, 0]),
   midi.NoteOnEvent(tick=0, channel=0, data=[58, 0]),
   midi.NoteOnEvent(tick=0, channel=0, data=[54, 0]),
   midi.NoteOnEvent(tick=0, channel=0, data=[68, 0]),
   midi.NoteOnEvent(tick=0, channel=0, data=[49, 0]),
   midi.NoteOnEvent(tick=0, channel=0, data=[61, 0]),
   midi.NoteOnEvent(tick=0, channel=0, data=[73, 0]),
   midi.NoteOnEvent(tick=0, channel=0, data=[42, 0]),
   midi.NoteOnEvent(tick=0, channel=0, data=[51, 100]),
   midi.NoteOnEvent(tick=0, channel=0, data=[56, 100]),
   midi.NoteOnEvent(tick=0, channel=0, data=[75, 100]),
   midi.NoteOnEvent(tick=0, channel=0, data=[68, 100]),
   midi.NoteOnEvent(tick=0, channel=0, data=[63, 100]),
   midi.NoteOnEvent(tick=0, channel=0, data=[44, 100]),
   midi.NoteOnEvent(tick=0, channel=0, data=[71, 100]),
   midi.NoteOnEvent(tick=0, channel=0, data=[59, 100]),
   midi.NoteOnEvent(tick=360, channel=0, data=[59, 0]),
   midi.NoteOnEvent(tick=0, channel=0, data=[51, 0]),
   midi.NoteOnEvent(tick=0, channel=0, data=[63, 0]),
   midi.NoteOnEvent(tick=0, channel=0, data=[56, 0]),
   midi.NoteOnEvent(tick=0, channel=0, data=[75, 0]),
   midi.NoteOnEvent(tick=0, channel=0, data=[68, 0]),
   midi.NoteOnEvent(tick=0, channel=0, data=[44, 0]),
   midi.NoteOnEvent(tick=0, channel=0, data=[71, 0]),
   midi.NoteOnEvent(tick=0, channel=0, data=[71, 100]),
   midi.NoteOnEvent(tick=0, channel=0, data=[63, 100]),
   midi.NoteOnEvent(tick=0, channel=0, data=[56, 100]),
   midi.NoteOnEvent(tick=0, channel=0, data=[68, 100]),
   midi.NoteOnEvent(tick=0, channel=0, data=[51, 100]),
   midi.NoteOnEvent(tick=0, channel=0, data=[59, 100]),
   midi.NoteOnEvent(tick=0, channel=0, data=[75, 100]),
   midi.NoteOnEvent(tick=0, channel=0, data=[44, 100]),
   midi.NoteOnEvent(tick=60, channel=0, data=[44, 0]),
   midi.NoteOnEvent(tick=0, channel=0, data=[71, 0]),
   midi.NoteOnEvent(tick=0, channel=0, data=[51, 0]),
   midi.NoteOnEvent(tick=0, channel=0, data=[63, 0]),
   midi.NoteOnEvent(tick=0, channel=0, data=[56, 0]),
   midi.NoteOnEvent(tick=0, channel=0, data=[68, 0]),
   midi.NoteOnEvent(tick=0, channel=0, data=[59, 0]),
   midi.NoteOnEvent(tick=0, channel=0, data=[75, 0]),
   midi.NoteOnEvent(tick=30, channel=0, data=[44, 100]),
   midi.NoteOnEvent(tick=0, channel=0, data=[56, 100]),
   midi.NoteOnEvent(tick=0, channel=0, data=[75, 100]),
   midi.NoteOnEvent(tick=0, channel=0, data=[63, 100]),
   midi.NoteOnEvent(tick=0, channel=0, data=[68, 100]),
   midi.NoteOnEvent(tick=0, channel=0, data=[71, 100]),
   midi.NoteOnEvent(tick=0, channel=0, data=[59, 100]),
   midi.NoteOnEvent(tick=0, channel=0, data=[51, 100]),
   midi.NoteOnEvent(tick=90, channel=0, data=[51, 0]),
   midi.NoteOnEvent(tick=0, channel=0, data=[44, 0]),
   midi.NoteOnEvent(tick=0, channel=0, data=[68, 0]),
   midi.NoteOnEvent(tick=0, channel=0, data=[56, 0]),
   midi.NoteOnEvent(tick=0, channel=0, data=[75, 0]),
   midi.NoteOnEvent(tick=0, channel=0, data=[63, 0]),
   midi.NoteOnEvent(tick=0, channel=0, data=[71, 0]),
   midi.NoteOnEvent(tick=0, channel=0, data=[59, 0]),
   midi.NoteOnEvent(tick=0, channel=0, data=[52, 100]),
   midi.NoteOnEvent(tick=0, channel=0, data=[59, 100]),
   midi.NoteOnEvent(tick=0, channel=0, data=[56, 100]),
   midi.NoteOnEvent(tick=0, channel=0, data=[68, 100]),
   midi.NoteOnEvent(tick=0, channel=0, data=[75, 100]),
   midi.NoteOnEvent(tick=0, channel=0, data=[71, 100]),
   midi.NoteOnEvent(tick=0, channel=0, data=[40, 100]),
   midi.NoteOnEvent(tick=0, channel=0, data=[63, 100]),
   midi.NoteOnEvent(tick=0, channel=0, data=[47, 100]),
   midi.NoteOnEvent(tick=240, channel=0, data=[47, 0]),
   midi.NoteOnEvent(tick=0, channel=0, data=[68, 0]),
   midi.NoteOnEvent(tick=0, channel=0, data=[52, 0]),
   midi.NoteOnEvent(tick=0, channel=0, data=[75, 0]),
   midi.NoteOnEvent(tick=0, channel=0, data=[59, 0]),
   midi.NoteOnEvent(tick=0, channel=0, data=[56, 0]),
   midi.NoteOnEvent(tick=0, channel=0, data=[40, 0]),
   midi.NoteOnEvent(tick=0, channel=0, data=[71, 0]),
   midi.NoteOnEvent(tick=0, channel=0, data=[63, 0]),
   midi.NoteOnEvent(tick=0, channel=0, data=[58, 100]),
   midi.NoteOnEvent(tick=0, channel=0, data=[61, 100]),
   midi.NoteOnEvent(tick=0, channel=0, data=[49, 100]),
   midi.NoteOnEvent(tick=0, channel=0, data=[42, 100]),
   midi.NoteOnEvent(tick=0, channel=0, data=[54, 100]),
   midi.NoteOnEvent(tick=0, channel=0, data=[66, 100]),
   midi.NoteOnEvent(tick=0, channel=0, data=[68, 100]),
   midi.NoteOnEvent(tick=0, channel=0, data=[73, 100]),
   midi.NoteOnEvent(tick=180, channel=0, data=[73, 0]),
   midi.NoteOnEvent(tick=0, channel=0, data=[58, 0]),
   midi.NoteOnEvent(tick=0, channel=0, data=[54, 0]),
   midi.NoteOnEvent(tick=0, channel=0, data=[61, 0]),
   midi.NoteOnEvent(tick=0, channel=0, data=[49, 0]),
   midi.NoteOnEvent(tick=0, channel=0, data=[42, 0]),
   midi.NoteOnEvent(tick=0, channel=0, data=[66, 0]),
   midi.NoteOnEvent(tick=0, channel=0, data=[68, 0]),
   midi.NoteOnEvent(tick=0, channel=0, data=[51, 100]),
   midi.NoteOnEvent(tick=0, channel=0, data=[56, 100]),
   midi.NoteOnEvent(tick=0, channel=0, data=[75, 100]),
   midi.NoteOnEvent(tick=0, channel=0, data=[59, 100]),
   midi.NoteOnEvent(tick=0, channel=0, data=[71, 100]),
   midi.NoteOnEvent(tick=0, channel=0, data=[44, 100]),
   midi.NoteOnEvent(tick=0, channel=0, data=[68, 100]),
   midi.NoteOnEvent(tick=0, channel=0, data=[63, 100]),
   midi.NoteOnEvent(tick=360, channel=0, data=[63, 0]),
   midi.NoteOnEvent(tick=0, channel=0, data=[51, 0]),
   midi.NoteOnEvent(tick=0, channel=0, data=[71, 0]),
   midi.NoteOnEvent(tick=0, channel=0, data=[56, 0]),
   midi.NoteOnEvent(tick=0, channel=0, data=[75, 0]),
   midi.NoteOnEvent(tick=0, channel=0, data=[59, 0]),
   midi.NoteOnEvent(tick=0, channel=0, data=[44, 0]),
   midi.NoteOnEvent(tick=0, channel=0, data=[68, 0]),
   midi.ControlChangeEvent(tick=7560, channel=0, data=[7, 0]),
   midi.ControlChangeEvent(tick=2, channel=0, data=[7, 1]),
   midi.ControlChangeEvent(tick=3, channel=0, data=[7, 2]),
   midi.ControlChangeEvent(tick=2, channel=0, data=[7, 3]),
   midi.ControlChangeEvent(tick=3, channel=0, data=[7, 4]),
   midi.ControlChangeEvent(tick=2, channel=0, data=[7, 5]),
   midi.ControlChangeEvent(tick=2, channel=0, data=[7, 6]),
   midi.ControlChangeEvent(tick=3, channel=0, data=[7, 7]),
   midi.ControlChangeEvent(tick=2, channel=0, data=[7, 8]),
   midi.ControlChangeEvent(tick=2, channel=0, data=[7, 9]),
   midi.ControlChangeEvent(tick=3, channel=0, data=[7, 10]),
   midi.ControlChangeEvent(tick=2, channel=0, data=[7, 11]),
   midi.ControlChangeEvent(tick=2, channel=0, data=[7, 12]),
   midi.ControlChangeEvent(tick=3, channel=0, data=[7, 13]),
   midi.ControlChangeEvent(tick=2, channel=0, data=[7, 14]),
   midi.ControlChangeEvent(tick=2, channel=0, data=[7, 15]),
   midi.ControlChangeEvent(tick=3, channel=0, data=[7, 16]),
   midi.ControlChangeEvent(tick=2, channel=0, data=[7, 17]),
   midi.ControlChangeEvent(tick=3, channel=0, data=[7, 18]),
   midi.ControlChangeEvent(tick=2, channel=0, data=[7, 19]),
   midi.ControlChangeEvent(tick=2, channel=0, data=[7, 20]),
   midi.ControlChangeEvent(tick=3, channel=0, data=[7, 21]),
   midi.ControlChangeEvent(tick=2, channel=0, data=[7, 22]),
   midi.ControlChangeEvent(tick=2, channel=0, data=[7, 23]),
   midi.ControlChangeEvent(tick=3, channel=0, data=[7, 24]),
   midi.ControlChangeEvent(tick=2, channel=0, data=[7, 25]),
   midi.NoteOnEvent(tick=1, channel=0, data=[63, 100]),
   midi.NoteOnEvent(tick=0, channel=0, data=[52, 100]),
   midi.NoteOnEvent(tick=0, channel=0, data=[47, 100]),
   midi.NoteOnEvent(tick=0, channel=0, data=[75, 100]),
   midi.NoteOnEvent(tick=0, channel=0, data=[71, 100]),
   midi.NoteOnEvent(tick=0, channel=0, data=[68, 100]),
   midi.NoteOnEvent(tick=0, channel=0, data=[59, 100]),
   midi.NoteOnEvent(tick=0, channel=0, data=[40, 100]),
   midi.NoteOnEvent(tick=0, channel=0, data=[56, 100]),
   midi.ControlChangeEvent(tick=1, channel=0, data=[7, 26]),
   midi.ControlChangeEvent(tick=3, channel=0, data=[7, 27]),
   midi.ControlChangeEvent(tick=2, channel=0, data=[7, 28]),
   midi.ControlChangeEvent(tick=3, channel=0, data=[7, 29]),
   midi.ControlChangeEvent(tick=2, channel=0, data=[7, 30]),
   midi.ControlChangeEvent(tick=2, channel=0, data=[7, 31]),
   midi.ControlChangeEvent(tick=3, channel=0, data=[7, 32]),
   midi.ControlChangeEvent(tick=2, channel=0, data=[7, 33]),
   midi.ControlChangeEvent(tick=2, channel=0, data=[7, 34]),
   midi.ControlChangeEvent(tick=3, channel=0, data=[7, 35]),
   midi.ControlChangeEvent(tick=2, channel=0, data=[7, 36]),
   midi.ControlChangeEvent(tick=2, channel=0, data=[7, 37]),
   midi.ControlChangeEvent(tick=3, channel=0, data=[7, 38]),
   midi.ControlChangeEvent(tick=2, channel=0, data=[7, 39]),
   midi.ControlChangeEvent(tick=3, channel=0, data=[7, 40]),
   midi.ControlChangeEvent(tick=2, channel=0, data=[7, 41]),
   midi.ControlChangeEvent(tick=2, channel=0, data=[7, 42]),
   midi.ControlChangeEvent(tick=3, channel=0, data=[7, 43]),
   midi.ControlChangeEvent(tick=2, channel=0, data=[7, 44]),
   midi.ControlChangeEvent(tick=2, channel=0, data=[7, 45]),
   midi.ControlChangeEvent(tick=3, channel=0, data=[7, 46]),
   midi.ControlChangeEvent(tick=2, channel=0, data=[7, 47]),
   midi.ControlChangeEvent(tick=2, channel=0, data=[7, 48]),
   midi.ControlChangeEvent(tick=3, channel=0, data=[7, 49]),
   midi.ControlChangeEvent(tick=2, channel=0, data=[7, 50]),
   midi.ControlChangeEvent(tick=3, channel=0, data=[7, 51]),
   midi.ControlChangeEvent(tick=2, channel=0, data=[7, 52]),
   midi.ControlChangeEvent(tick=2, channel=0, data=[7, 53]),
   midi.ControlChangeEvent(tick=3, channel=0, data=[7, 54]),
   midi.ControlChangeEvent(tick=2, channel=0, data=[7, 55]),
   midi.ControlChangeEvent(tick=2, channel=0, data=[7, 56]),
   midi.ControlChangeEvent(tick=3, channel=0, data=[7, 57]),
   midi.ControlChangeEvent(tick=2, channel=0, data=[7, 58]),
   midi.ControlChangeEvent(tick=2, channel=0, data=[7, 59]),
   midi.ControlChangeEvent(tick=3, channel=0, data=[7, 60]),
   midi.ControlChangeEvent(tick=2, channel=0, data=[7, 61]),
   midi.ControlChangeEvent(tick=3, channel=0, data=[7, 62]),
   midi.ControlChangeEvent(tick=2, channel=0, data=[7, 63]),
   midi.ControlChangeEvent(tick=2, channel=0, data=[7, 64]),
   midi.ControlChangeEvent(tick=3, channel=0, data=[7, 65]),
   midi.ControlChangeEvent(tick=2, channel=0, data=[7, 66]),
   midi.ControlChangeEvent(tick=2, channel=0, data=[7, 67]),
   midi.ControlChangeEvent(tick=3, channel=0, data=[7, 68]),
   midi.ControlChangeEvent(tick=2, channel=0, data=[7, 69]),
   midi.ControlChangeEvent(tick=2, channel=0, data=[7, 70]),
   midi.ControlChangeEvent(tick=3, channel=0, data=[7, 71]),
   midi.ControlChangeEvent(tick=2, channel=0, data=[7, 72]),
   midi.ControlChangeEvent(tick=3, channel=0, data=[7, 73]),
   midi.ControlChangeEvent(tick=2, channel=0, data=[7, 74]),
   midi.ControlChangeEvent(tick=2, channel=0, data=[7, 75]),
   midi.ControlChangeEvent(tick=3, channel=0, data=[7, 76]),
   midi.ControlChangeEvent(tick=2, channel=0, data=[7, 77]),
   midi.ControlChangeEvent(tick=2, channel=0, data=[7, 78]),
   midi.ControlChangeEvent(tick=3, channel=0, data=[7, 79]),
   midi.ControlChangeEvent(tick=2, channel=0, data=[7, 80]),
   midi.ControlChangeEvent(tick=2, channel=0, data=[7, 81]),
   midi.ControlChangeEvent(tick=3, channel=0, data=[7, 82]),
   midi.ControlChangeEvent(tick=2, channel=0, data=[7, 83]),
   midi.ControlChangeEvent(tick=2, channel=0, data=[7, 84]),
   midi.ControlChangeEvent(tick=3, channel=0, data=[7, 85]),
   midi.ControlChangeEvent(tick=2, channel=0, data=[7, 86]),
   midi.ControlChangeEvent(tick=3, channel=0, data=[7, 87]),
   midi.ControlChangeEvent(tick=2, channel=0, data=[7, 88]),
   midi.ControlChangeEvent(tick=2, channel=0, data=[7, 89]),
   midi.ControlChangeEvent(tick=3, channel=0, data=[7, 90]),
   midi.ControlChangeEvent(tick=2, channel=0, data=[7, 91]),
   midi.ControlChangeEvent(tick=2, channel=0, data=[7, 92]),
   midi.ControlChangeEvent(tick=3, channel=0, data=[7, 93]),
   midi.ControlChangeEvent(tick=2, channel=0, data=[7, 94]),
   midi.ControlChangeEvent(tick=2, channel=0, data=[7, 95]),
   midi.ControlChangeEvent(tick=3, channel=0, data=[7, 96]),
   midi.ControlChangeEvent(tick=2, channel=0, data=[7, 97]),
   midi.ControlChangeEvent(tick=3, channel=0, data=[7, 98]),
   midi.ControlChangeEvent(tick=2, channel=0, data=[7, 99]),
   midi.ControlChangeEvent(tick=2, channel=0, data=[7, 100]),
   midi.ControlChangeEvent(tick=3, channel=0, data=[7, 101]),
   midi.ControlChangeEvent(tick=2, channel=0, data=[7, 102]),
   midi.ControlChangeEvent(tick=2, channel=0, data=[7, 103]),
   midi.ControlChangeEvent(tick=3, channel=0, data=[7, 104]),
   midi.ControlChangeEvent(tick=2, channel=0, data=[7, 105]),
   midi.ControlChangeEvent(tick=2, channel=0, data=[7, 106]),
   midi.ControlChangeEvent(tick=3, channel=0, data=[7, 107]),
   midi.ControlChangeEvent(tick=2, channel=0, data=[7, 108]),
   midi.ControlChangeEvent(tick=3, channel=0, data=[7, 109]),
   midi.ControlChangeEvent(tick=2, channel=0, data=[7, 110]),
   midi.ControlChangeEvent(tick=2, channel=0, data=[7, 111]),
   midi.ControlChangeEvent(tick=3, channel=0, data=[7, 112]),
   midi.ControlChangeEvent(tick=2, channel=0, data=[7, 113]),
   midi.ControlChangeEvent(tick=2, channel=0, data=[7, 114]),
   midi.ControlChangeEvent(tick=3, channel=0, data=[7, 115]),
   midi.ControlChangeEvent(tick=2, channel=0, data=[7, 116]),
   midi.ControlChangeEvent(tick=2, channel=0, data=[7, 117]),
   midi.ControlChangeEvent(tick=3, channel=0, data=[7, 118]),
   midi.ControlChangeEvent(tick=2, channel=0, data=[7, 119]),
   midi.ControlChangeEvent(tick=3, channel=0, data=[7, 120]),
   midi.ControlChangeEvent(tick=2, channel=0, data=[7, 121]),
   midi.ControlChangeEvent(tick=2, channel=0, data=[7, 122]),
   midi.ControlChangeEvent(tick=3, channel=0, data=[7, 123]),
   midi.ControlChangeEvent(tick=2, channel=0, data=[7, 124]),
   midi.ControlChangeEvent(tick=2, channel=0, data=[7, 125]),
   midi.ControlChangeEvent(tick=3, channel=0, data=[7, 126]),
   midi.NoteOnEvent(tick=2, channel=0, data=[56, 0]),
   midi.NoteOnEvent(tick=0, channel=0, data=[75, 0]),
   midi.NoteOnEvent(tick=0, channel=0, data=[63, 0]),
   midi.NoteOnEvent(tick=0, channel=0, data=[71, 0]),
   midi.NoteOnEvent(tick=0, channel=0, data=[52, 0]),
   midi.NoteOnEvent(tick=0, channel=0, data=[47, 0]),
   midi.NoteOnEvent(tick=0, channel=0, data=[59, 0]),
   midi.NoteOnEvent(tick=0, channel=0, data=[68, 0]),
   midi.NoteOnEvent(tick=0, channel=0, data=[40, 0]),
   midi.ControlChangeEvent(tick=0, channel=0, data=[7, 100]),
   midi.NoteOnEvent(tick=0, channel=0, data=[40, 100]),
   midi.NoteOnEvent(tick=0, channel=0, data=[56, 100]),
   midi.NoteOnEvent(tick=0, channel=0, data=[59, 100]),
   midi.NoteOnEvent(tick=0, channel=0, data=[63, 100]),
   midi.NoteOnEvent(tick=0, channel=0, data=[68, 100]),
   midi.NoteOnEvent(tick=0, channel=0, data=[71, 100]),
   midi.NoteOnEvent(tick=0, channel=0, data=[75, 100]),
   midi.NoteOnEvent(tick=0, channel=0, data=[47, 100]),
   midi.NoteOnEvent(tick=0, channel=0, data=[52, 100]),
   midi.NoteOnEvent(tick=240, channel=0, data=[52, 0]),
   midi.NoteOnEvent(tick=0, channel=0, data=[63, 0]),
   midi.NoteOnEvent(tick=0, channel=0, data=[40, 0]),
   midi.NoteOnEvent(tick=0, channel=0, data=[68, 0]),
   midi.NoteOnEvent(tick=0, channel=0, data=[56, 0]),
   midi.NoteOnEvent(tick=0, channel=0, data=[59, 0]),
   midi.NoteOnEvent(tick=0, channel=0, data=[75, 0]),
   midi.NoteOnEvent(tick=0, channel=0, data=[71, 0]),
   midi.NoteOnEvent(tick=0, channel=0, data=[47, 0]),
   midi.NoteOnEvent(tick=0, channel=0, data=[73, 100]),
   midi.NoteOnEvent(tick=0, channel=0, data=[66, 100]),
   midi.NoteOnEvent(tick=0, channel=0, data=[54, 100]),
   midi.NoteOnEvent(tick=0, channel=0, data=[49, 100]),
   midi.NoteOnEvent(tick=0, channel=0, data=[58, 100]),
   midi.NoteOnEvent(tick=0, channel=0, data=[42, 100]),
   midi.NoteOnEvent(tick=0, channel=0, data=[61, 100]),
   midi.NoteOnEvent(tick=0, channel=0, data=[68, 100]),
   midi.NoteOnEvent(tick=180, channel=0, data=[68, 0]),
   midi.NoteOnEvent(tick=0, channel=0, data=[73, 0]),
   midi.NoteOnEvent(tick=0, channel=0, data=[58, 0]),
   midi.NoteOnEvent(tick=0, channel=0, data=[66, 0]),
   midi.NoteOnEvent(tick=0, channel=0, data=[54, 0]),
   midi.NoteOnEvent(tick=0, channel=0, data=[49, 0]),
   midi.NoteOnEvent(tick=0, channel=0, data=[42, 0]),
   midi.NoteOnEvent(tick=0, channel=0, data=[61, 0]),
   midi.NoteOnEvent(tick=0, channel=0, data=[44, 100]),
   midi.NoteOnEvent(tick=0, channel=0, data=[51, 100]),
   midi.NoteOnEvent(tick=0, channel=0, data=[56, 100]),
   midi.NoteOnEvent(tick=0, channel=0, data=[63, 100]),
   midi.NoteOnEvent(tick=0, channel=0, data=[68, 100]),
   midi.NoteOnEvent(tick=0, channel=0, data=[75, 100]),
   midi.NoteOnEvent(tick=0, channel=0, data=[59, 100]),
   midi.NoteOnEvent(tick=0, channel=0, data=[71, 100]),
   midi.NoteOnEvent(tick=360, channel=0, data=[71, 0]),
   midi.NoteOnEvent(tick=0, channel=0, data=[44, 0]),
   midi.NoteOnEvent(tick=0, channel=0, data=[68, 0]),
   midi.NoteOnEvent(tick=0, channel=0, data=[51, 0]),
   midi.NoteOnEvent(tick=0, channel=0, data=[56, 0]),
   midi.NoteOnEvent(tick=0, channel=0, data=[63, 0]),
   midi.NoteOnEvent(tick=0, channel=0, data=[75, 0]),
   midi.NoteOnEvent(tick=0, channel=0, data=[59, 0]),
   midi.NoteOnEvent(tick=0, channel=0, data=[44, 100]),
   midi.NoteOnEvent(tick=0, channel=0, data=[51, 100]),
   midi.NoteOnEvent(tick=0, channel=0, data=[56, 100]),
   midi.NoteOnEvent(tick=0, channel=0, data=[63, 100]),
   midi.NoteOnEvent(tick=0, channel=0, data=[68, 100]),
   midi.NoteOnEvent(tick=0, channel=0, data=[75, 100]),
   midi.NoteOnEvent(tick=0, channel=0, data=[71, 100]),
   midi.NoteOnEvent(tick=0, channel=0, data=[59, 100]),
   midi.NoteOnEvent(tick=60, channel=0, data=[59, 0]),
   midi.NoteOnEvent(tick=0, channel=0, data=[44, 0]),
   midi.NoteOnEvent(tick=0, channel=0, data=[68, 0]),
   midi.NoteOnEvent(tick=0, channel=0, data=[51, 0]),
   midi.NoteOnEvent(tick=0, channel=0, data=[56, 0]),
   midi.NoteOnEvent(tick=0, channel=0, data=[63, 0]),
   midi.NoteOnEvent(tick=0, channel=0, data=[75, 0]),
   midi.NoteOnEvent(tick=0, channel=0, data=[71, 0]),
   midi.NoteOnEvent(tick=30, channel=0, data=[51, 100]),
   midi.NoteOnEvent(tick=0, channel=0, data=[44, 100]),
   midi.NoteOnEvent(tick=0, channel=0, data=[75, 100]),
   midi.NoteOnEvent(tick=0, channel=0, data=[71, 100]),
   midi.NoteOnEvent(tick=0, channel=0, data=[68, 100]),
   midi.NoteOnEvent(tick=0, channel=0, data=[63, 100]),
   midi.NoteOnEvent(tick=0, channel=0, data=[59, 100]),
   midi.NoteOnEvent(tick=0, channel=0, data=[56, 100]),
   midi.NoteOnEvent(tick=60, channel=0, data=[56, 0]),
   midi.NoteOnEvent(tick=0, channel=0, data=[51, 0]),
   midi.NoteOnEvent(tick=0, channel=0, data=[68, 0]),
   midi.NoteOnEvent(tick=0, channel=0, data=[44, 0]),
   midi.NoteOnEvent(tick=0, channel=0, data=[75, 0]),
   midi.NoteOnEvent(tick=0, channel=0, data=[71, 0]),
   midi.NoteOnEvent(tick=0, channel=0, data=[63, 0]),
   midi.NoteOnEvent(tick=0, channel=0, data=[59, 0]),
   midi.NoteOnEvent(tick=30, channel=0, data=[40, 100]),
   midi.NoteOnEvent(tick=0, channel=0, data=[56, 100]),
   midi.NoteOnEvent(tick=0, channel=0, data=[59, 100]),
   midi.NoteOnEvent(tick=0, channel=0, data=[63, 100]),
   midi.NoteOnEvent(tick=0, channel=0, data=[68, 100]),
   midi.NoteOnEvent(tick=0, channel=0, data=[71, 100]),
   midi.NoteOnEvent(tick=0, channel=0, data=[52, 100]),
   midi.NoteOnEvent(tick=0, channel=0, data=[47, 100]),
   midi.NoteOnEvent(tick=0, channel=0, data=[75, 100]),
   midi.NoteOnEvent(tick=240, channel=0, data=[75, 0]),
   midi.NoteOnEvent(tick=0, channel=0, data=[63, 0]),
   midi.NoteOnEvent(tick=0, channel=0, data=[40, 0]),
   midi.NoteOnEvent(tick=0, channel=0, data=[68, 0]),
   midi.NoteOnEvent(tick=0, channel=0, data=[56, 0]),
   midi.NoteOnEvent(tick=0, channel=0, data=[59, 0]),
   midi.NoteOnEvent(tick=0, channel=0, data=[52, 0]),
   midi.NoteOnEvent(tick=0, channel=0, data=[71, 0]),
   midi.NoteOnEvent(tick=0, channel=0, data=[47, 0]),
   midi.NoteOnEvent(tick=0, channel=0, data=[73, 100]),
   midi.NoteOnEvent(tick=0, channel=0, data=[54, 100]),
   midi.NoteOnEvent(tick=0, channel=0, data=[66, 100]),
   midi.NoteOnEvent(tick=0, channel=0, data=[58, 100]),
   midi.NoteOnEvent(tick=0, channel=0, data=[42, 100]),
   midi.NoteOnEvent(tick=0, channel=0, data=[49, 100]),
   midi.NoteOnEvent(tick=0, channel=0, data=[68, 100]),
   midi.NoteOnEvent(tick=0, channel=0, data=[61, 100]),
   midi.NoteOnEvent(tick=180, channel=0, data=[61, 0]),
   midi.NoteOnEvent(tick=0, channel=0, data=[73, 0]),
   midi.NoteOnEvent(tick=0, channel=0, data=[42, 0]),
   midi.NoteOnEvent(tick=0, channel=0, data=[54, 0]),
   midi.NoteOnEvent(tick=0, channel=0, data=[66, 0]),
   midi.NoteOnEvent(tick=0, channel=0, data=[58, 0]),
   midi.NoteOnEvent(tick=0, channel=0, data=[49, 0]),
   midi.NoteOnEvent(tick=0, channel=0, data=[68, 0]),
   midi.NoteOnEvent(tick=0, channel=0, data=[44, 100]),
   midi.NoteOnEvent(tick=0, channel=0, data=[51, 100]),
   midi.NoteOnEvent(tick=0, channel=0, data=[56, 100]),
   midi.NoteOnEvent(tick=0, channel=0, data=[59, 100]),
   midi.NoteOnEvent(tick=0, channel=0, data=[63, 100]),
   midi.NoteOnEvent(tick=0, channel=0, data=[68, 100]),
   midi.NoteOnEvent(tick=0, channel=0, data=[71, 100]),
   midi.NoteOnEvent(tick=0, channel=0, data=[75, 100]),
   midi.NoteOnEvent(tick=360, channel=0, data=[75, 0]),
   midi.NoteOnEvent(tick=0, channel=0, data=[44, 0]),
   midi.NoteOnEvent(tick=0, channel=0, data=[63, 0]),
   midi.NoteOnEvent(tick=0, channel=0, data=[51, 0]),
   midi.NoteOnEvent(tick=0, channel=0, data=[56, 0]),
   midi.NoteOnEvent(tick=0, channel=0, data=[59, 0]),
   midi.NoteOnEvent(tick=0, channel=0, data=[68, 0]),
   midi.NoteOnEvent(tick=0, channel=0, data=[71, 0]),
   midi.NoteOnEvent(tick=0, channel=0, data=[37, 100]),
   midi.NoteOnEvent(tick=0, channel=0, data=[44, 100]),
   midi.NoteOnEvent(tick=0, channel=0, data=[49, 100]),
   midi.NoteOnEvent(tick=0, channel=0, data=[56, 100]),
   midi.NoteOnEvent(tick=0, channel=0, data=[59, 100]),
   midi.NoteOnEvent(tick=0, channel=0, data=[63, 100]),
   midi.NoteOnEvent(tick=0, channel=0, data=[66, 100]),
   midi.NoteOnEvent(tick=0, channel=0, data=[71, 100]),
   midi.NoteOnEvent(tick=0, channel=0, data=[75, 100]),
   midi.NoteOnEvent(tick=60, channel=0, data=[75, 0]),
   midi.NoteOnEvent(tick=0, channel=0, data=[56, 0]),
   midi.NoteOnEvent(tick=0, channel=0, data=[37, 0]),
   midi.NoteOnEvent(tick=0, channel=0, data=[59, 0]),
   midi.NoteOnEvent(tick=0, channel=0, data=[44, 0]),
   midi.NoteOnEvent(tick=0, channel=0, data=[49, 0]),
   midi.NoteOnEvent(tick=0, channel=0, data=[66, 0]),
   midi.NoteOnEvent(tick=0, channel=0, data=[63, 0]),
   midi.NoteOnEvent(tick=0, channel=0, data=[71, 0]),
   midi.NoteOnEvent(tick=30, channel=0, data=[37, 100]),
   midi.NoteOnEvent(tick=0, channel=0, data=[44, 100]),
   midi.NoteOnEvent(tick=0, channel=0, data=[49, 100]),
   midi.NoteOnEvent(tick=0, channel=0, data=[56, 100]),
   midi.NoteOnEvent(tick=0, channel=0, data=[59, 100]),
   midi.NoteOnEvent(tick=0, channel=0, data=[63, 100]),
   midi.NoteOnEvent(tick=0, channel=0, data=[66, 100]),
   midi.NoteOnEvent(tick=0, channel=0, data=[71, 100]),
   midi.NoteOnEvent(tick=0, channel=0, data=[75, 100]),
   midi.NoteOnEvent(tick=60, channel=0, data=[75, 0]),
   midi.NoteOnEvent(tick=0, channel=0, data=[56, 0]),
   midi.NoteOnEvent(tick=0, channel=0, data=[37, 0]),
   midi.NoteOnEvent(tick=0, channel=0, data=[59, 0]),
   midi.NoteOnEvent(tick=0, channel=0, data=[44, 0]),
   midi.NoteOnEvent(tick=0, channel=0, data=[49, 0]),
   midi.NoteOnEvent(tick=0, channel=0, data=[66, 0]),
   midi.NoteOnEvent(tick=0, channel=0, data=[63, 0]),
   midi.NoteOnEvent(tick=0, channel=0, data=[71, 0]),
   midi.NoteOnEvent(tick=30, channel=0, data=[75, 100]),
   midi.NoteOnEvent(tick=0, channel=0, data=[47, 100]),
   midi.NoteOnEvent(tick=0, channel=0, data=[52, 100]),
   midi.NoteOnEvent(tick=0, channel=0, data=[40, 100]),
   midi.NoteOnEvent(tick=0, channel=0, data=[56, 100]),
   midi.NoteOnEvent(tick=0, channel=0, data=[63, 100]),
   midi.NoteOnEvent(tick=0, channel=0, data=[68, 100]),
   midi.NoteOnEvent(tick=0, channel=0, data=[71, 100]),
   midi.NoteOnEvent(tick=0, channel=0, data=[59, 100]),
   midi.NoteOnEvent(tick=240, channel=0, data=[59, 0]),
   midi.NoteOnEvent(tick=0, channel=0, data=[40, 0]),
   midi.NoteOnEvent(tick=0, channel=0, data=[75, 0]),
   midi.NoteOnEvent(tick=0, channel=0, data=[56, 0]),
   midi.NoteOnEvent(tick=0, channel=0, data=[47, 0]),
   midi.NoteOnEvent(tick=0, channel=0, data=[52, 0]),
   midi.NoteOnEvent(tick=0, channel=0, data=[68, 0]),
   midi.NoteOnEvent(tick=0, channel=0, data=[63, 0]),
   midi.NoteOnEvent(tick=0, channel=0, data=[71, 0]),
   midi.NoteOnEvent(tick=0, channel=0, data=[61, 100]),
   midi.NoteOnEvent(tick=0, channel=0, data=[42, 100]),
   midi.NoteOnEvent(tick=0, channel=0, data=[68, 100]),
   midi.NoteOnEvent(tick=0, channel=0, data=[73, 100]),
   midi.NoteOnEvent(tick=0, channel=0, data=[66, 100]),
   midi.NoteOnEvent(tick=0, channel=0, data=[49, 100]),
   midi.NoteOnEvent(tick=0, channel=0, data=[54, 100]),
   midi.NoteOnEvent(tick=0, channel=0, data=[58, 100]),
   midi.NoteOnEvent(tick=180, channel=0, data=[58, 0]),
   midi.NoteOnEvent(tick=0, channel=0, data=[61, 0]),
   midi.NoteOnEvent(tick=0, channel=0, data=[66, 0]),
   midi.NoteOnEvent(tick=0, channel=0, data=[42, 0]),
   midi.NoteOnEvent(tick=0, channel=0, data=[68, 0]),
   midi.NoteOnEvent(tick=0, channel=0, data=[73, 0]),
   midi.NoteOnEvent(tick=0, channel=0, data=[49, 0]),
   midi.NoteOnEvent(tick=0, channel=0, data=[54, 0]),
   midi.NoteOnEvent(tick=0, channel=0, data=[71, 100]),
   midi.NoteOnEvent(tick=0, channel=0, data=[68, 100]),
   midi.NoteOnEvent(tick=0, channel=0, data=[56, 100]),
   midi.NoteOnEvent(tick=0, channel=0, data=[51, 100]),
   midi.NoteOnEvent(tick=0, channel=0, data=[44, 100]),
   midi.NoteOnEvent(tick=0, channel=0, data=[63, 100]),
   midi.NoteOnEvent(tick=0, channel=0, data=[75, 100]),
   midi.NoteOnEvent(tick=0, channel=0, data=[59, 100]),
   midi.NoteOnEvent(tick=360, channel=0, data=[59, 0]),
   midi.NoteOnEvent(tick=0, channel=0, data=[71, 0]),
   midi.NoteOnEvent(tick=0, channel=0, data=[44, 0]),
   midi.NoteOnEvent(tick=0, channel=0, data=[68, 0]),
   midi.NoteOnEvent(tick=0, channel=0, data=[56, 0]),
   midi.NoteOnEvent(tick=0, channel=0, data=[51, 0]),
   midi.NoteOnEvent(tick=0, channel=0, data=[63, 0]),
   midi.NoteOnEvent(tick=0, channel=0, data=[75, 0]),
   midi.NoteOnEvent(tick=0, channel=0, data=[51, 100]),
   midi.NoteOnEvent(tick=0, channel=0, data=[75, 100]),
   midi.NoteOnEvent(tick=0, channel=0, data=[44, 100]),
   midi.NoteOnEvent(tick=0, channel=0, data=[63, 100]),
   midi.NoteOnEvent(tick=0, channel=0, data=[59, 100]),
   midi.NoteOnEvent(tick=0, channel=0, data=[56, 100]),
   midi.NoteOnEvent(tick=0, channel=0, data=[68, 100]),
   midi.NoteOnEvent(tick=0, channel=0, data=[71, 100]),
   midi.NoteOnEvent(tick=60, channel=0, data=[71, 0]),
   midi.NoteOnEvent(tick=0, channel=0, data=[51, 0]),
   midi.NoteOnEvent(tick=0, channel=0, data=[59, 0]),
   midi.NoteOnEvent(tick=0, channel=0, data=[75, 0]),
   midi.NoteOnEvent(tick=0, channel=0, data=[44, 0]),
   midi.NoteOnEvent(tick=0, channel=0, data=[63, 0]),
   midi.NoteOnEvent(tick=0, channel=0, data=[56, 0]),
   midi.NoteOnEvent(tick=0, channel=0, data=[68, 0]),
   midi.NoteOnEvent(tick=30, channel=0, data=[68, 100]),
   midi.NoteOnEvent(tick=0, channel=0, data=[63, 100]),
   midi.NoteOnEvent(tick=0, channel=0, data=[44, 100]),
   midi.NoteOnEvent(tick=0, channel=0, data=[51, 100]),
   midi.NoteOnEvent(tick=0, channel=0, data=[59, 100]),
   midi.NoteOnEvent(tick=0, channel=0, data=[56, 100]),
   midi.NoteOnEvent(tick=0, channel=0, data=[75, 100]),
   midi.NoteOnEvent(tick=0, channel=0, data=[71, 100]),
   midi.NoteOnEvent(tick=90, channel=0, data=[71, 0]),
   midi.NoteOnEvent(tick=0, channel=0, data=[68, 0]),
   midi.NoteOnEvent(tick=0, channel=0, data=[59, 0]),
   midi.NoteOnEvent(tick=0, channel=0, data=[63, 0]),
   midi.NoteOnEvent(tick=0, channel=0, data=[44, 0]),
   midi.NoteOnEvent(tick=0, channel=0, data=[51, 0]),
   midi.NoteOnEvent(tick=0, channel=0, data=[56, 0]),
   midi.NoteOnEvent(tick=0, channel=0, data=[75, 0]),
   midi.NoteOnEvent(tick=0, channel=0, data=[59, 100]),
   midi.NoteOnEvent(tick=0, channel=0, data=[56, 100]),
   midi.NoteOnEvent(tick=0, channel=0, data=[68, 100]),
   midi.NoteOnEvent(tick=0, channel=0, data=[63, 100]),
   midi.NoteOnEvent(tick=0, channel=0, data=[40, 100]),
   midi.NoteOnEvent(tick=0, channel=0, data=[71, 100]),
   midi.NoteOnEvent(tick=0, channel=0, data=[75, 100]),
   midi.NoteOnEvent(tick=0, channel=0, data=[47, 100]),
   midi.NoteOnEvent(tick=0, channel=0, data=[52, 100]),
   midi.NoteOnEvent(tick=240, channel=0, data=[52, 0]),
   midi.NoteOnEvent(tick=0, channel=0, data=[63, 0]),
   midi.NoteOnEvent(tick=0, channel=0, data=[59, 0]),
   midi.NoteOnEvent(tick=0, channel=0, data=[40, 0]),
   midi.NoteOnEvent(tick=0, channel=0, data=[56, 0]),
   midi.NoteOnEvent(tick=0, channel=0, data=[68, 0]),
   midi.NoteOnEvent(tick=0, channel=0, data=[75, 0]),
   midi.NoteOnEvent(tick=0, channel=0, data=[71, 0]),
   midi.NoteOnEvent(tick=0, channel=0, data=[47, 0]),
   midi.NoteOnEvent(tick=0, channel=0, data=[58, 100]),
   midi.NoteOnEvent(tick=0, channel=0, data=[68, 100]),
   midi.NoteOnEvent(tick=0, channel=0, data=[49, 100]),
   midi.NoteOnEvent(tick=0, channel=0, data=[61, 100]),
   midi.NoteOnEvent(tick=0, channel=0, data=[54, 100]),
   midi.NoteOnEvent(tick=0, channel=0, data=[73, 100]),
   midi.NoteOnEvent(tick=0, channel=0, data=[42, 100]),
   midi.NoteOnEvent(tick=0, channel=0, data=[66, 100]),
   midi.NoteOnEvent(tick=180, channel=0, data=[66, 0]),
   midi.NoteOnEvent(tick=0, channel=0, data=[58, 0]),
   midi.NoteOnEvent(tick=0, channel=0, data=[54, 0]),
   midi.NoteOnEvent(tick=0, channel=0, data=[68, 0]),
   midi.NoteOnEvent(tick=0, channel=0, data=[49, 0]),
   midi.NoteOnEvent(tick=0, channel=0, data=[61, 0]),
   midi.NoteOnEvent(tick=0, channel=0, data=[73, 0]),
   midi.NoteOnEvent(tick=0, channel=0, data=[42, 0]),
   midi.NoteOnEvent(tick=0, channel=0, data=[59, 100]),
   midi.NoteOnEvent(tick=0, channel=0, data=[71, 100]),
   midi.NoteOnEvent(tick=0, channel=0, data=[44, 100]),
   midi.NoteOnEvent(tick=0, channel=0, data=[68, 100]),
   midi.NoteOnEvent(tick=0, channel=0, data=[75, 100]),
   midi.NoteOnEvent(tick=0, channel=0, data=[56, 100]),
   midi.NoteOnEvent(tick=0, channel=0, data=[51, 100]),
   midi.NoteOnEvent(tick=0, channel=0, data=[63, 100]),
   midi.NoteOnEvent(tick=540, channel=0, data=[63, 0]),
   midi.NoteOnEvent(tick=0, channel=0, data=[59, 0]),
   midi.NoteOnEvent(tick=0, channel=0, data=[75, 0]),
   midi.NoteOnEvent(tick=0, channel=0, data=[71, 0]),
   midi.NoteOnEvent(tick=0, channel=0, data=[44, 0]),
   midi.NoteOnEvent(tick=0, channel=0, data=[68, 0]),
   midi.NoteOnEvent(tick=0, channel=0, data=[56, 0]),
   midi.NoteOnEvent(tick=0, channel=0, data=[51, 0]),
   midi.NoteOnEvent(tick=0, channel=0, data=[40, 100]),
   midi.NoteOnEvent(tick=0, channel=0, data=[56, 100]),
   midi.NoteOnEvent(tick=0, channel=0, data=[59, 100]),
   midi.NoteOnEvent(tick=0, channel=0, data=[63, 100]),
   midi.NoteOnEvent(tick=0, channel=0, data=[68, 100]),
   midi.NoteOnEvent(tick=0, channel=0, data=[71, 100]),
   midi.NoteOnEvent(tick=0, channel=0, data=[75, 100]),
   midi.NoteOnEvent(tick=0, channel=0, data=[47, 100]),
   midi.NoteOnEvent(tick=0, channel=0, data=[52, 100]),
   midi.NoteOnEvent(tick=240, channel=0, data=[52, 0]),
   midi.NoteOnEvent(tick=0, channel=0, data=[63, 0]),
   midi.NoteOnEvent(tick=0, channel=0, data=[40, 0]),
   midi.NoteOnEvent(tick=0, channel=0, data=[68, 0]),
   midi.NoteOnEvent(tick=0, channel=0, data=[56, 0]),
   midi.NoteOnEvent(tick=0, channel=0, data=[59, 0]),
   midi.NoteOnEvent(tick=0, channel=0, data=[75, 0]),
   midi.NoteOnEvent(tick=0, channel=0, data=[71, 0]),
   midi.NoteOnEvent(tick=0, channel=0, data=[47, 0]),
   midi.NoteOnEvent(tick=0, channel=0, data=[73, 100]),
   midi.NoteOnEvent(tick=0, channel=0, data=[66, 100]),
   midi.NoteOnEvent(tick=0, channel=0, data=[54, 100]),
   midi.NoteOnEvent(tick=0, channel=0, data=[49, 100]),
   midi.NoteOnEvent(tick=0, channel=0, data=[58, 100]),
   midi.NoteOnEvent(tick=0, channel=0, data=[42, 100]),
   midi.NoteOnEvent(tick=0, channel=0, data=[61, 100]),
   midi.NoteOnEvent(tick=0, channel=0, data=[68, 100]),
   midi.NoteOnEvent(tick=180, channel=0, data=[68, 0]),
   midi.NoteOnEvent(tick=0, channel=0, data=[73, 0]),
   midi.NoteOnEvent(tick=0, channel=0, data=[58, 0]),
   midi.NoteOnEvent(tick=0, channel=0, data=[66, 0]),
   midi.NoteOnEvent(tick=0, channel=0, data=[54, 0]),
   midi.NoteOnEvent(tick=0, channel=0, data=[49, 0]),
   midi.NoteOnEvent(tick=0, channel=0, data=[42, 0]),
   midi.NoteOnEvent(tick=0, channel=0, data=[61, 0]),
   midi.NoteOnEvent(tick=0, channel=0, data=[44, 100]),
   midi.NoteOnEvent(tick=0, channel=0, data=[51, 100]),
   midi.NoteOnEvent(tick=0, channel=0, data=[56, 100]),
   midi.NoteOnEvent(tick=0, channel=0, data=[63, 100]),
   midi.NoteOnEvent(tick=0, channel=0, data=[68, 100]),
   midi.NoteOnEvent(tick=0, channel=0, data=[75, 100]),
   midi.NoteOnEvent(tick=0, channel=0, data=[59, 100]),
   midi.NoteOnEvent(tick=0, channel=0, data=[71, 100]),
   midi.NoteOnEvent(tick=360, channel=0, data=[71, 0]),
   midi.NoteOnEvent(tick=0, channel=0, data=[44, 0]),
   midi.NoteOnEvent(tick=0, channel=0, data=[68, 0]),
   midi.NoteOnEvent(tick=0, channel=0, data=[51, 0]),
   midi.NoteOnEvent(tick=0, channel=0, data=[56, 0]),
   midi.NoteOnEvent(tick=0, channel=0, data=[63, 0]),
   midi.NoteOnEvent(tick=0, channel=0, data=[75, 0]),
   midi.NoteOnEvent(tick=0, channel=0, data=[59, 0]),
   midi.NoteOnEvent(tick=0, channel=0, data=[44, 100]),
   midi.NoteOnEvent(tick=0, channel=0, data=[51, 100]),
   midi.NoteOnEvent(tick=0, channel=0, data=[56, 100]),
   midi.NoteOnEvent(tick=0, channel=0, data=[63, 100]),
   midi.NoteOnEvent(tick=0, channel=0, data=[68, 100]),
   midi.NoteOnEvent(tick=0, channel=0, data=[75, 100]),
   midi.NoteOnEvent(tick=0, channel=0, data=[71, 100]),
   midi.NoteOnEvent(tick=0, channel=0, data=[59, 100]),
   midi.NoteOnEvent(tick=60, channel=0, data=[59, 0]),
   midi.NoteOnEvent(tick=0, channel=0, data=[44, 0]),
   midi.NoteOnEvent(tick=0, channel=0, data=[68, 0]),
   midi.NoteOnEvent(tick=0, channel=0, data=[51, 0]),
   midi.NoteOnEvent(tick=0, channel=0, data=[56, 0]),
   midi.NoteOnEvent(tick=0, channel=0, data=[63, 0]),
   midi.NoteOnEvent(tick=0, channel=0, data=[75, 0]),
   midi.NoteOnEvent(tick=0, channel=0, data=[71, 0]),
   midi.NoteOnEvent(tick=30, channel=0, data=[51, 100]),
   midi.NoteOnEvent(tick=0, channel=0, data=[44, 100]),
   midi.NoteOnEvent(tick=0, channel=0, data=[75, 100]),
   midi.NoteOnEvent(tick=0, channel=0, data=[71, 100]),
   midi.NoteOnEvent(tick=0, channel=0, data=[68, 100]),
   midi.NoteOnEvent(tick=0, channel=0, data=[63, 100]),
   midi.NoteOnEvent(tick=0, channel=0, data=[59, 100]),
   midi.NoteOnEvent(tick=0, channel=0, data=[56, 100]),
   midi.NoteOnEvent(tick=60, channel=0, data=[56, 0]),
   midi.NoteOnEvent(tick=0, channel=0, data=[51, 0]),
   midi.NoteOnEvent(tick=0, channel=0, data=[68, 0]),
   midi.NoteOnEvent(tick=0, channel=0, data=[44, 0]),
   midi.NoteOnEvent(tick=0, channel=0, data=[75, 0]),
   midi.NoteOnEvent(tick=0, channel=0, data=[71, 0]),
   midi.NoteOnEvent(tick=0, channel=0, data=[63, 0]),
   midi.NoteOnEvent(tick=0, channel=0, data=[59, 0]),
   midi.NoteOnEvent(tick=30, channel=0, data=[40, 100]),
   midi.NoteOnEvent(tick=0, channel=0, data=[56, 100]),
   midi.NoteOnEvent(tick=0, channel=0, data=[59, 100]),
   midi.NoteOnEvent(tick=0, channel=0, data=[63, 100]),
   midi.NoteOnEvent(tick=0, channel=0, data=[68, 100]),
   midi.NoteOnEvent(tick=0, channel=0, data=[71, 100]),
   midi.NoteOnEvent(tick=0, channel=0, data=[52, 100]),
   midi.NoteOnEvent(tick=0, channel=0, data=[47, 100]),
   midi.NoteOnEvent(tick=0, channel=0, data=[75, 100]),
   midi.NoteOnEvent(tick=240, channel=0, data=[75, 0]),
   midi.NoteOnEvent(tick=0, channel=0, data=[63, 0]),
   midi.NoteOnEvent(tick=0, channel=0, data=[40, 0]),
   midi.NoteOnEvent(tick=0, channel=0, data=[68, 0]),
   midi.NoteOnEvent(tick=0, channel=0, data=[56, 0]),
   midi.NoteOnEvent(tick=0, channel=0, data=[59, 0]),
   midi.NoteOnEvent(tick=0, channel=0, data=[52, 0]),
   midi.NoteOnEvent(tick=0, channel=0, data=[71, 0]),
   midi.NoteOnEvent(tick=0, channel=0, data=[47, 0]),
   midi.NoteOnEvent(tick=0, channel=0, data=[73, 100]),
   midi.NoteOnEvent(tick=0, channel=0, data=[54, 100]),
   midi.NoteOnEvent(tick=0, channel=0, data=[66, 100]),
   midi.NoteOnEvent(tick=0, channel=0, data=[58, 100]),
   midi.NoteOnEvent(tick=0, channel=0, data=[42, 100]),
   midi.NoteOnEvent(tick=0, channel=0, data=[49, 100]),
   midi.NoteOnEvent(tick=0, channel=0, data=[68, 100]),
   midi.NoteOnEvent(tick=0, channel=0, data=[61, 100]),
   midi.NoteOnEvent(tick=180, channel=0, data=[61, 0]),
   midi.NoteOnEvent(tick=0, channel=0, data=[73, 0]),
   midi.NoteOnEvent(tick=0, channel=0, data=[42, 0]),
   midi.NoteOnEvent(tick=0, channel=0, data=[54, 0]),
   midi.NoteOnEvent(tick=0, channel=0, data=[66, 0]),
   midi.NoteOnEvent(tick=0, channel=0, data=[58, 0]),
   midi.NoteOnEvent(tick=0, channel=0, data=[49, 0]),
   midi.NoteOnEvent(tick=0, channel=0, data=[68, 0]),
   midi.NoteOnEvent(tick=0, channel=0, data=[44, 100]),
   midi.NoteOnEvent(tick=0, channel=0, data=[51, 100]),
   midi.NoteOnEvent(tick=0, channel=0, data=[56, 100]),
   midi.NoteOnEvent(tick=0, channel=0, data=[59, 100]),
   midi.NoteOnEvent(tick=0, channel=0, data=[63, 100]),
   midi.NoteOnEvent(tick=0, channel=0, data=[68, 100]),
   midi.NoteOnEvent(tick=0, channel=0, data=[71, 100]),
   midi.NoteOnEvent(tick=0, channel=0, data=[75, 100]),
   midi.NoteOnEvent(tick=360, channel=0, data=[75, 0]),
   midi.NoteOnEvent(tick=0, channel=0, data=[44, 0]),
   midi.NoteOnEvent(tick=0, channel=0, data=[63, 0]),
   midi.NoteOnEvent(tick=0, channel=0, data=[51, 0]),
   midi.NoteOnEvent(tick=0, channel=0, data=[56, 0]),
   midi.NoteOnEvent(tick=0, channel=0, data=[59, 0]),
   midi.NoteOnEvent(tick=0, channel=0, data=[68, 0]),
   midi.NoteOnEvent(tick=0, channel=0, data=[71, 0]),
   midi.NoteOnEvent(tick=0, channel=0, data=[37, 100]),
   midi.NoteOnEvent(tick=0, channel=0, data=[44, 100]),
   midi.NoteOnEvent(tick=0, channel=0, data=[49, 100]),
   midi.NoteOnEvent(tick=0, channel=0, data=[56, 100]),
   midi.NoteOnEvent(tick=0, channel=0, data=[59, 100]),
   midi.NoteOnEvent(tick=0, channel=0, data=[63, 100]),
   midi.NoteOnEvent(tick=0, channel=0, data=[66, 100]),
   midi.NoteOnEvent(tick=0, channel=0, data=[71, 100]),
   midi.NoteOnEvent(tick=0, channel=0, data=[75, 100]),
   midi.NoteOnEvent(tick=60, channel=0, data=[75, 0]),
   midi.NoteOnEvent(tick=0, channel=0, data=[56, 0]),
   midi.NoteOnEvent(tick=0, channel=0, data=[37, 0]),
   midi.NoteOnEvent(tick=0, channel=0, data=[59, 0]),
   midi.NoteOnEvent(tick=0, channel=0, data=[44, 0]),
   midi.NoteOnEvent(tick=0, channel=0, data=[49, 0]),
   midi.NoteOnEvent(tick=0, channel=0, data=[66, 0]),
   midi.NoteOnEvent(tick=0, channel=0, data=[63, 0]),
   midi.NoteOnEvent(tick=0, channel=0, data=[71, 0]),
   midi.NoteOnEvent(tick=30, channel=0, data=[37, 100]),
   midi.NoteOnEvent(tick=0, channel=0, data=[44, 100]),
   midi.NoteOnEvent(tick=0, channel=0, data=[49, 100]),
   midi.NoteOnEvent(tick=0, channel=0, data=[56, 100]),
   midi.NoteOnEvent(tick=0, channel=0, data=[59, 100]),
   midi.NoteOnEvent(tick=0, channel=0, data=[63, 100]),
   midi.NoteOnEvent(tick=0, channel=0, data=[66, 100]),
   midi.NoteOnEvent(tick=0, channel=0, data=[71, 100]),
   midi.NoteOnEvent(tick=0, channel=0, data=[75, 100]),
   midi.NoteOnEvent(tick=60, channel=0, data=[75, 0]),
   midi.NoteOnEvent(tick=0, channel=0, data=[56, 0]),
   midi.NoteOnEvent(tick=0, channel=0, data=[37, 0]),
   midi.NoteOnEvent(tick=0, channel=0, data=[59, 0]),
   midi.NoteOnEvent(tick=0, channel=0, data=[44, 0]),
   midi.NoteOnEvent(tick=0, channel=0, data=[49, 0]),
   midi.NoteOnEvent(tick=0, channel=0, data=[66, 0]),
   midi.NoteOnEvent(tick=0, channel=0, data=[63, 0]),
   midi.NoteOnEvent(tick=0, channel=0, data=[71, 0]),
   midi.NoteOnEvent(tick=30, channel=0, data=[75, 100]),
   midi.NoteOnEvent(tick=0, channel=0, data=[47, 100]),
   midi.NoteOnEvent(tick=0, channel=0, data=[52, 100]),
   midi.NoteOnEvent(tick=0, channel=0, data=[40, 100]),
   midi.NoteOnEvent(tick=0, channel=0, data=[56, 100]),
   midi.NoteOnEvent(tick=0, channel=0, data=[63, 100]),
   midi.NoteOnEvent(tick=0, channel=0, data=[68, 100]),
   midi.NoteOnEvent(tick=0, channel=0, data=[71, 100]),
   midi.NoteOnEvent(tick=0, channel=0, data=[59, 100]),
   midi.NoteOnEvent(tick=240, channel=0, data=[59, 0]),
   midi.NoteOnEvent(tick=0, channel=0, data=[40, 0]),
   midi.NoteOnEvent(tick=0, channel=0, data=[75, 0]),
   midi.NoteOnEvent(tick=0, channel=0, data=[56, 0]),
   midi.NoteOnEvent(tick=0, channel=0, data=[47, 0]),
   midi.NoteOnEvent(tick=0, channel=0, data=[52, 0]),
   midi.NoteOnEvent(tick=0, channel=0, data=[68, 0]),
   midi.NoteOnEvent(tick=0, channel=0, data=[63, 0]),
   midi.NoteOnEvent(tick=0, channel=0, data=[71, 0]),
   midi.NoteOnEvent(tick=0, channel=0, data=[61, 100]),
   midi.NoteOnEvent(tick=0, channel=0, data=[42, 100]),
   midi.NoteOnEvent(tick=0, channel=0, data=[68, 100]),
   midi.NoteOnEvent(tick=0, channel=0, data=[73, 100]),
   midi.NoteOnEvent(tick=0, channel=0, data=[66, 100]),
   midi.NoteOnEvent(tick=0, channel=0, data=[49, 100]),
   midi.NoteOnEvent(tick=0, channel=0, data=[54, 100]),
   midi.NoteOnEvent(tick=0, channel=0, data=[58, 100]),
   midi.NoteOnEvent(tick=180, channel=0, data=[58, 0]),
   midi.NoteOnEvent(tick=0, channel=0, data=[61, 0]),
   midi.NoteOnEvent(tick=0, channel=0, data=[66, 0]),
   midi.NoteOnEvent(tick=0, channel=0, data=[42, 0]),
   midi.NoteOnEvent(tick=0, channel=0, data=[68, 0]),
   midi.NoteOnEvent(tick=0, channel=0, data=[73, 0]),
   midi.NoteOnEvent(tick=0, channel=0, data=[49, 0]),
   midi.NoteOnEvent(tick=0, channel=0, data=[54, 0]),
   midi.NoteOnEvent(tick=0, channel=0, data=[71, 100]),
   midi.NoteOnEvent(tick=0, channel=0, data=[68, 100]),
   midi.NoteOnEvent(tick=0, channel=0, data=[56, 100]),
   midi.NoteOnEvent(tick=0, channel=0, data=[51, 100]),
   midi.NoteOnEvent(tick=0, channel=0, data=[44, 100]),
   midi.NoteOnEvent(tick=0, channel=0, data=[63, 100]),
   midi.NoteOnEvent(tick=0, channel=0, data=[75, 100]),
   midi.NoteOnEvent(tick=0, channel=0, data=[59, 100]),
   midi.NoteOnEvent(tick=360, channel=0, data=[59, 0]),
   midi.NoteOnEvent(tick=0, channel=0, data=[71, 0]),
   midi.NoteOnEvent(tick=0, channel=0, data=[44, 0]),
   midi.NoteOnEvent(tick=0, channel=0, data=[68, 0]),
   midi.NoteOnEvent(tick=0, channel=0, data=[56, 0]),
   midi.NoteOnEvent(tick=0, channel=0, data=[51, 0]),
   midi.NoteOnEvent(tick=0, channel=0, data=[63, 0]),
   midi.NoteOnEvent(tick=0, channel=0, data=[75, 0]),
   midi.NoteOnEvent(tick=0, channel=0, data=[51, 100]),
   midi.NoteOnEvent(tick=0, channel=0, data=[75, 100]),
   midi.NoteOnEvent(tick=0, channel=0, data=[44, 100]),
   midi.NoteOnEvent(tick=0, channel=0, data=[63, 100]),
   midi.NoteOnEvent(tick=0, channel=0, data=[59, 100]),
   midi.NoteOnEvent(tick=0, channel=0, data=[56, 100]),
   midi.NoteOnEvent(tick=0, channel=0, data=[68, 100]),
   midi.NoteOnEvent(tick=0, channel=0, data=[71, 100]),
   midi.NoteOnEvent(tick=60, channel=0, data=[71, 0]),
   midi.NoteOnEvent(tick=0, channel=0, data=[51, 0]),
   midi.NoteOnEvent(tick=0, channel=0, data=[59, 0]),
   midi.NoteOnEvent(tick=0, channel=0, data=[75, 0]),
   midi.NoteOnEvent(tick=0, channel=0, data=[44, 0]),
   midi.NoteOnEvent(tick=0, channel=0, data=[63, 0]),
   midi.NoteOnEvent(tick=0, channel=0, data=[56, 0]),
   midi.NoteOnEvent(tick=0, channel=0, data=[68, 0]),
   midi.NoteOnEvent(tick=30, channel=0, data=[68, 100]),
   midi.NoteOnEvent(tick=0, channel=0, data=[63, 100]),
   midi.NoteOnEvent(tick=0, channel=0, data=[44, 100]),
   midi.NoteOnEvent(tick=0, channel=0, data=[51, 100]),
   midi.NoteOnEvent(tick=0, channel=0, data=[59, 100]),
   midi.NoteOnEvent(tick=0, channel=0, data=[56, 100]),
   midi.NoteOnEvent(tick=0, channel=0, data=[75, 100]),
   midi.NoteOnEvent(tick=0, channel=0, data=[71, 100]),
   midi.NoteOnEvent(tick=90, channel=0, data=[71, 0]),
   midi.NoteOnEvent(tick=0, channel=0, data=[68, 0]),
   midi.NoteOnEvent(tick=0, channel=0, data=[59, 0]),
   midi.NoteOnEvent(tick=0, channel=0, data=[63, 0]),
   midi.NoteOnEvent(tick=0, channel=0, data=[44, 0]),
   midi.NoteOnEvent(tick=0, channel=0, data=[51, 0]),
   midi.NoteOnEvent(tick=0, channel=0, data=[56, 0]),
   midi.NoteOnEvent(tick=0, channel=0, data=[75, 0]),
   midi.NoteOnEvent(tick=0, channel=0, data=[59, 100]),
   midi.NoteOnEvent(tick=0, channel=0, data=[56, 100]),
   midi.NoteOnEvent(tick=0, channel=0, data=[68, 100]),
   midi.NoteOnEvent(tick=0, channel=0, data=[63, 100]),
   midi.NoteOnEvent(tick=0, channel=0, data=[40, 100]),
   midi.NoteOnEvent(tick=0, channel=0, data=[71, 100]),
   midi.NoteOnEvent(tick=0, channel=0, data=[75, 100]),
   midi.NoteOnEvent(tick=0, channel=0, data=[47, 100]),
   midi.NoteOnEvent(tick=0, channel=0, data=[52, 100]),
   midi.NoteOnEvent(tick=240, channel=0, data=[52, 0]),
   midi.NoteOnEvent(tick=0, channel=0, data=[63, 0]),
   midi.NoteOnEvent(tick=0, channel=0, data=[59, 0]),
   midi.NoteOnEvent(tick=0, channel=0, data=[40, 0]),
   midi.NoteOnEvent(tick=0, channel=0, data=[56, 0]),
   midi.NoteOnEvent(tick=0, channel=0, data=[68, 0]),
   midi.NoteOnEvent(tick=0, channel=0, data=[75, 0]),
   midi.NoteOnEvent(tick=0, channel=0, data=[71, 0]),
   midi.NoteOnEvent(tick=0, channel=0, data=[47, 0]),
   midi.NoteOnEvent(tick=0, channel=0, data=[58, 100]),
   midi.NoteOnEvent(tick=0, channel=0, data=[68, 100]),
   midi.NoteOnEvent(tick=0, channel=0, data=[49, 100]),
   midi.NoteOnEvent(tick=0, channel=0, data=[61, 100]),
   midi.NoteOnEvent(tick=0, channel=0, data=[54, 100]),
   midi.NoteOnEvent(tick=0, channel=0, data=[73, 100]),
   midi.NoteOnEvent(tick=0, channel=0, data=[42, 100]),
   midi.NoteOnEvent(tick=0, channel=0, data=[66, 100]),
   midi.NoteOnEvent(tick=180, channel=0, data=[66, 0]),
   midi.NoteOnEvent(tick=0, channel=0, data=[58, 0]),
   midi.NoteOnEvent(tick=0, channel=0, data=[54, 0]),
   midi.NoteOnEvent(tick=0, channel=0, data=[68, 0]),
   midi.NoteOnEvent(tick=0, channel=0, data=[49, 0]),
   midi.NoteOnEvent(tick=0, channel=0, data=[61, 0]),
   midi.NoteOnEvent(tick=0, channel=0, data=[73, 0]),
   midi.NoteOnEvent(tick=0, channel=0, data=[42, 0]),
   midi.NoteOnEvent(tick=0, channel=0, data=[51, 100]),
   midi.NoteOnEvent(tick=0, channel=0, data=[56, 100]),
   midi.NoteOnEvent(tick=0, channel=0, data=[75, 100]),
   midi.NoteOnEvent(tick=0, channel=0, data=[68, 100]),
   midi.NoteOnEvent(tick=0, channel=0, data=[63, 100]),
   midi.NoteOnEvent(tick=0, channel=0, data=[44, 100]),
   midi.NoteOnEvent(tick=0, channel=0, data=[71, 100]),
   midi.NoteOnEvent(tick=0, channel=0, data=[59, 100]),
   midi.NoteOnEvent(tick=360, channel=0, data=[59, 0]),
   midi.NoteOnEvent(tick=0, channel=0, data=[51, 0]),
   midi.NoteOnEvent(tick=0, channel=0, data=[63, 0]),
   midi.NoteOnEvent(tick=0, channel=0, data=[56, 0]),
   midi.NoteOnEvent(tick=0, channel=0, data=[75, 0]),
   midi.NoteOnEvent(tick=0, channel=0, data=[68, 0]),
   midi.NoteOnEvent(tick=0, channel=0, data=[44, 0]),
   midi.NoteOnEvent(tick=0, channel=0, data=[71, 0]),
   midi.NoteOnEvent(tick=0, channel=0, data=[71, 100]),
   midi.NoteOnEvent(tick=0, channel=0, data=[63, 100]),
   midi.NoteOnEvent(tick=0, channel=0, data=[56, 100]),
   midi.NoteOnEvent(tick=0, channel=0, data=[68, 100]),
   midi.NoteOnEvent(tick=0, channel=0, data=[51, 100]),
   midi.NoteOnEvent(tick=0, channel=0, data=[59, 100]),
   midi.NoteOnEvent(tick=0, channel=0, data=[75, 100]),
   midi.NoteOnEvent(tick=0, channel=0, data=[44, 100]),
   midi.NoteOnEvent(tick=60, channel=0, data=[44, 0]),
   midi.NoteOnEvent(tick=0, channel=0, data=[71, 0]),
   midi.NoteOnEvent(tick=0, channel=0, data=[51, 0]),
   midi.NoteOnEvent(tick=0, channel=0, data=[63, 0]),
   midi.NoteOnEvent(tick=0, channel=0, data=[56, 0]),
   midi.NoteOnEvent(tick=0, channel=0, data=[68, 0]),
   midi.NoteOnEvent(tick=0, channel=0, data=[59, 0]),
   midi.NoteOnEvent(tick=0, channel=0, data=[75, 0]),
   midi.NoteOnEvent(tick=30, channel=0, data=[44, 100]),
   midi.NoteOnEvent(tick=0, channel=0, data=[56, 100]),
   midi.NoteOnEvent(tick=0, channel=0, data=[75, 100]),
   midi.NoteOnEvent(tick=0, channel=0, data=[63, 100]),
   midi.NoteOnEvent(tick=0, channel=0, data=[68, 100]),
   midi.NoteOnEvent(tick=0, channel=0, data=[71, 100]),
   midi.NoteOnEvent(tick=0, channel=0, data=[59, 100]),
   midi.NoteOnEvent(tick=0, channel=0, data=[51, 100]),
   midi.NoteOnEvent(tick=90, channel=0, data=[51, 0]),
   midi.NoteOnEvent(tick=0, channel=0, data=[44, 0]),
   midi.NoteOnEvent(tick=0, channel=0, data=[68, 0]),
   midi.NoteOnEvent(tick=0, channel=0, data=[56, 0]),
   midi.NoteOnEvent(tick=0, channel=0, data=[75, 0]),
   midi.NoteOnEvent(tick=0, channel=0, data=[63, 0]),
   midi.NoteOnEvent(tick=0, channel=0, data=[71, 0]),
   midi.NoteOnEvent(tick=0, channel=0, data=[59, 0]),
   midi.NoteOnEvent(tick=0, channel=0, data=[52, 100]),
   midi.NoteOnEvent(tick=0, channel=0, data=[59, 100]),
   midi.NoteOnEvent(tick=0, channel=0, data=[56, 100]),
   midi.NoteOnEvent(tick=0, channel=0, data=[68, 100]),
   midi.NoteOnEvent(tick=0, channel=0, data=[75, 100]),
   midi.NoteOnEvent(tick=0, channel=0, data=[71, 100]),
   midi.NoteOnEvent(tick=0, channel=0, data=[40, 100]),
   midi.NoteOnEvent(tick=0, channel=0, data=[63, 100]),
   midi.NoteOnEvent(tick=0, channel=0, data=[47, 100]),
   midi.NoteOnEvent(tick=240, channel=0, data=[47, 0]),
   midi.NoteOnEvent(tick=0, channel=0, data=[68, 0]),
   midi.NoteOnEvent(tick=0, channel=0, data=[52, 0]),
   midi.NoteOnEvent(tick=0, channel=0, data=[75, 0]),
   midi.NoteOnEvent(tick=0, channel=0, data=[59, 0]),
   midi.NoteOnEvent(tick=0, channel=0, data=[56, 0]),
   midi.NoteOnEvent(tick=0, channel=0, data=[40, 0]),
   midi.NoteOnEvent(tick=0, channel=0, data=[71, 0]),
   midi.NoteOnEvent(tick=0, channel=0, data=[63, 0]),
   midi.NoteOnEvent(tick=0, channel=0, data=[58, 100]),
   midi.NoteOnEvent(tick=0, channel=0, data=[61, 100]),
   midi.NoteOnEvent(tick=0, channel=0, data=[49, 100]),
   midi.NoteOnEvent(tick=0, channel=0, data=[42, 100]),
   midi.NoteOnEvent(tick=0, channel=0, data=[54, 100]),
   midi.NoteOnEvent(tick=0, channel=0, data=[66, 100]),
   midi.NoteOnEvent(tick=0, channel=0, data=[68, 100]),
   midi.NoteOnEvent(tick=0, channel=0, data=[73, 100]),
   midi.NoteOnEvent(tick=180, channel=0, data=[73, 0]),
   midi.NoteOnEvent(tick=0, channel=0, data=[58, 0]),
   midi.NoteOnEvent(tick=0, channel=0, data=[54, 0]),
   midi.NoteOnEvent(tick=0, channel=0, data=[61, 0]),
   midi.NoteOnEvent(tick=0, channel=0, data=[49, 0]),
   midi.NoteOnEvent(tick=0, channel=0, data=[42, 0]),
   midi.NoteOnEvent(tick=0, channel=0, data=[66, 0]),
   midi.NoteOnEvent(tick=0, channel=0, data=[68, 0]),
   midi.NoteOnEvent(tick=0, channel=0, data=[51, 100]),
   midi.NoteOnEvent(tick=0, channel=0, data=[56, 100]),
   midi.NoteOnEvent(tick=0, channel=0, data=[75, 100]),
   midi.NoteOnEvent(tick=0, channel=0, data=[59, 100]),
   midi.NoteOnEvent(tick=0, channel=0, data=[71, 100]),
   midi.NoteOnEvent(tick=0, channel=0, data=[44, 100]),
   midi.NoteOnEvent(tick=0, channel=0, data=[68, 100]),
   midi.NoteOnEvent(tick=0, channel=0, data=[63, 100]),
   midi.NoteOnEvent(tick=360, channel=0, data=[63, 0]),
   midi.NoteOnEvent(tick=0, channel=0, data=[51, 0]),
   midi.NoteOnEvent(tick=0, channel=0, data=[71, 0]),
   midi.NoteOnEvent(tick=0, channel=0, data=[56, 0]),
   midi.NoteOnEvent(tick=0, channel=0, data=[75, 0]),
   midi.NoteOnEvent(tick=0, channel=0, data=[59, 0]),
   midi.NoteOnEvent(tick=0, channel=0, data=[44, 0]),
   midi.NoteOnEvent(tick=0, channel=0, data=[68, 0]),
   midi.NoteOnEvent(tick=180, channel=0, data=[40, 100]),
   midi.NoteOnEvent(tick=0, channel=0, data=[56, 100]),
   midi.NoteOnEvent(tick=0, channel=0, data=[59, 100]),
   midi.NoteOnEvent(tick=0, channel=0, data=[63, 100]),
   midi.NoteOnEvent(tick=0, channel=0, data=[68, 100]),
   midi.NoteOnEvent(tick=0, channel=0, data=[71, 100]),
   midi.NoteOnEvent(tick=0, channel=0, data=[75, 100]),
   midi.NoteOnEvent(tick=0, channel=0, data=[47, 100]),
   midi.NoteOnEvent(tick=0, channel=0, data=[52, 100]),
   midi.NoteOnEvent(tick=240, channel=0, data=[52, 0]),
   midi.NoteOnEvent(tick=0, channel=0, data=[63, 0]),
   midi.NoteOnEvent(tick=0, channel=0, data=[40, 0]),
   midi.NoteOnEvent(tick=0, channel=0, data=[68, 0]),
   midi.NoteOnEvent(tick=0, channel=0, data=[56, 0]),
   midi.NoteOnEvent(tick=0, channel=0, data=[59, 0]),
   midi.NoteOnEvent(tick=0, channel=0, data=[75, 0]),
   midi.NoteOnEvent(tick=0, channel=0, data=[71, 0]),
   midi.NoteOnEvent(tick=0, channel=0, data=[47, 0]),
   midi.NoteOnEvent(tick=0, channel=0, data=[73, 100]),
   midi.NoteOnEvent(tick=0, channel=0, data=[66, 100]),
   midi.NoteOnEvent(tick=0, channel=0, data=[54, 100]),
   midi.NoteOnEvent(tick=0, channel=0, data=[49, 100]),
   midi.NoteOnEvent(tick=0, channel=0, data=[58, 100]),
   midi.NoteOnEvent(tick=0, channel=0, data=[42, 100]),
   midi.NoteOnEvent(tick=0, channel=0, data=[61, 100]),
   midi.NoteOnEvent(tick=0, channel=0, data=[68, 100]),
   midi.NoteOnEvent(tick=180, channel=0, data=[68, 0]),
   midi.NoteOnEvent(tick=0, channel=0, data=[73, 0]),
   midi.NoteOnEvent(tick=0, channel=0, data=[58, 0]),
   midi.NoteOnEvent(tick=0, channel=0, data=[66, 0]),
   midi.NoteOnEvent(tick=0, channel=0, data=[54, 0]),
   midi.NoteOnEvent(tick=0, channel=0, data=[49, 0]),
   midi.NoteOnEvent(tick=0, channel=0, data=[42, 0]),
   midi.NoteOnEvent(tick=0, channel=0, data=[61, 0]),
   midi.NoteOnEvent(tick=0, channel=0, data=[44, 100]),
   midi.NoteOnEvent(tick=0, channel=0, data=[51, 100]),
   midi.NoteOnEvent(tick=0, channel=0, data=[56, 100]),
   midi.NoteOnEvent(tick=0, channel=0, data=[63, 100]),
   midi.NoteOnEvent(tick=0, channel=0, data=[68, 100]),
   midi.NoteOnEvent(tick=0, channel=0, data=[75, 100]),
   midi.NoteOnEvent(tick=0, channel=0, data=[59, 100]),
   midi.NoteOnEvent(tick=0, channel=0, data=[71, 100]),
   midi.NoteOnEvent(tick=360, channel=0, data=[71, 0]),
   midi.NoteOnEvent(tick=0, channel=0, data=[44, 0]),
   midi.NoteOnEvent(tick=0, channel=0, data=[68, 0]),
   midi.NoteOnEvent(tick=0, channel=0, data=[51, 0]),
   midi.NoteOnEvent(tick=0, channel=0, data=[56, 0]),
   midi.NoteOnEvent(tick=0, channel=0, data=[63, 0]),
   midi.NoteOnEvent(tick=0, channel=0, data=[75, 0]),
   midi.NoteOnEvent(tick=0, channel=0, data=[59, 0]),
   midi.NoteOnEvent(tick=0, channel=0, data=[44, 100]),
   midi.NoteOnEvent(tick=0, channel=0, data=[51, 100]),
   midi.NoteOnEvent(tick=0, channel=0, data=[56, 100]),
   midi.NoteOnEvent(tick=0, channel=0, data=[63, 100]),
   midi.NoteOnEvent(tick=0, channel=0, data=[68, 100]),
   midi.NoteOnEvent(tick=0, channel=0, data=[75, 100]),
   midi.NoteOnEvent(tick=0, channel=0, data=[71, 100]),
   midi.NoteOnEvent(tick=0, channel=0, data=[59, 100]),
   midi.NoteOnEvent(tick=60, channel=0, data=[59, 0]),
   midi.NoteOnEvent(tick=0, channel=0, data=[44, 0]),
   midi.NoteOnEvent(tick=0, channel=0, data=[68, 0]),
   midi.NoteOnEvent(tick=0, channel=0, data=[51, 0]),
   midi.NoteOnEvent(tick=0, channel=0, data=[56, 0]),
   midi.NoteOnEvent(tick=0, channel=0, data=[63, 0]),
   midi.NoteOnEvent(tick=0, channel=0, data=[75, 0]),
   midi.NoteOnEvent(tick=0, channel=0, data=[71, 0]),
   midi.NoteOnEvent(tick=30, channel=0, data=[51, 100]),
   midi.NoteOnEvent(tick=0, channel=0, data=[44, 100]),
   midi.NoteOnEvent(tick=0, channel=0, data=[75, 100]),
   midi.NoteOnEvent(tick=0, channel=0, data=[71, 100]),
   midi.NoteOnEvent(tick=0, channel=0, data=[68, 100]),
   midi.NoteOnEvent(tick=0, channel=0, data=[63, 100]),
   midi.NoteOnEvent(tick=0, channel=0, data=[59, 100]),
   midi.NoteOnEvent(tick=0, channel=0, data=[56, 100]),
   midi.NoteOnEvent(tick=60, channel=0, data=[56, 0]),
   midi.NoteOnEvent(tick=0, channel=0, data=[51, 0]),
   midi.NoteOnEvent(tick=0, channel=0, data=[68, 0]),
   midi.NoteOnEvent(tick=0, channel=0, data=[44, 0]),
   midi.NoteOnEvent(tick=0, channel=0, data=[75, 0]),
   midi.NoteOnEvent(tick=0, channel=0, data=[71, 0]),
   midi.NoteOnEvent(tick=0, channel=0, data=[63, 0]),
   midi.NoteOnEvent(tick=0, channel=0, data=[59, 0]),
   midi.NoteOnEvent(tick=30, channel=0, data=[40, 100]),
   midi.NoteOnEvent(tick=0, channel=0, data=[56, 100]),
   midi.NoteOnEvent(tick=0, channel=0, data=[59, 100]),
   midi.NoteOnEvent(tick=0, channel=0, data=[63, 100]),
   midi.NoteOnEvent(tick=0, channel=0, data=[68, 100]),
   midi.NoteOnEvent(tick=0, channel=0, data=[71, 100]),
   midi.NoteOnEvent(tick=0, channel=0, data=[52, 100]),
   midi.NoteOnEvent(tick=0, channel=0, data=[47, 100]),
   midi.NoteOnEvent(tick=0, channel=0, data=[75, 100]),
   midi.NoteOnEvent(tick=240, channel=0, data=[75, 0]),
   midi.NoteOnEvent(tick=0, channel=0, data=[63, 0]),
   midi.NoteOnEvent(tick=0, channel=0, data=[40, 0]),
   midi.NoteOnEvent(tick=0, channel=0, data=[68, 0]),
   midi.NoteOnEvent(tick=0, channel=0, data=[56, 0]),
   midi.NoteOnEvent(tick=0, channel=0, data=[59, 0]),
   midi.NoteOnEvent(tick=0, channel=0, data=[52, 0]),
   midi.NoteOnEvent(tick=0, channel=0, data=[71, 0]),
   midi.NoteOnEvent(tick=0, channel=0, data=[47, 0]),
   midi.NoteOnEvent(tick=0, channel=0, data=[73, 100]),
   midi.NoteOnEvent(tick=0, channel=0, data=[54, 100]),
   midi.NoteOnEvent(tick=0, channel=0, data=[66, 100]),
   midi.NoteOnEvent(tick=0, channel=0, data=[58, 100]),
   midi.NoteOnEvent(tick=0, channel=0, data=[42, 100]),
   midi.NoteOnEvent(tick=0, channel=0, data=[49, 100]),
   midi.NoteOnEvent(tick=0, channel=0, data=[68, 100]),
   midi.NoteOnEvent(tick=0, channel=0, data=[61, 100]),
   midi.NoteOnEvent(tick=180, channel=0, data=[61, 0]),
   midi.NoteOnEvent(tick=0, channel=0, data=[73, 0]),
   midi.NoteOnEvent(tick=0, channel=0, data=[42, 0]),
   midi.NoteOnEvent(tick=0, channel=0, data=[54, 0]),
   midi.NoteOnEvent(tick=0, channel=0, data=[66, 0]),
   midi.NoteOnEvent(tick=0, channel=0, data=[58, 0]),
   midi.NoteOnEvent(tick=0, channel=0, data=[49, 0]),
   midi.NoteOnEvent(tick=0, channel=0, data=[68, 0]),
   midi.NoteOnEvent(tick=0, channel=0, data=[44, 100]),
   midi.NoteOnEvent(tick=0, channel=0, data=[51, 100]),
   midi.NoteOnEvent(tick=0, channel=0, data=[56, 100]),
   midi.NoteOnEvent(tick=0, channel=0, data=[59, 100]),
   midi.NoteOnEvent(tick=0, channel=0, data=[63, 100]),
   midi.NoteOnEvent(tick=0, channel=0, data=[68, 100]),
   midi.NoteOnEvent(tick=0, channel=0, data=[71, 100]),
   midi.NoteOnEvent(tick=0, channel=0, data=[75, 100]),
   midi.NoteOnEvent(tick=360, channel=0, data=[75, 0]),
   midi.NoteOnEvent(tick=0, channel=0, data=[44, 0]),
   midi.NoteOnEvent(tick=0, channel=0, data=[63, 0]),
   midi.NoteOnEvent(tick=0, channel=0, data=[51, 0]),
   midi.NoteOnEvent(tick=0, channel=0, data=[56, 0]),
   midi.NoteOnEvent(tick=0, channel=0, data=[59, 0]),
   midi.NoteOnEvent(tick=0, channel=0, data=[68, 0]),
   midi.NoteOnEvent(tick=0, channel=0, data=[71, 0]),
   midi.NoteOnEvent(tick=0, channel=0, data=[37, 100]),
   midi.NoteOnEvent(tick=0, channel=0, data=[44, 100]),
   midi.NoteOnEvent(tick=0, channel=0, data=[49, 100]),
   midi.NoteOnEvent(tick=0, channel=0, data=[56, 100]),
   midi.NoteOnEvent(tick=0, channel=0, data=[59, 100]),
   midi.NoteOnEvent(tick=0, channel=0, data=[63, 100]),
   midi.NoteOnEvent(tick=0, channel=0, data=[66, 100]),
   midi.NoteOnEvent(tick=0, channel=0, data=[71, 100]),
   midi.NoteOnEvent(tick=0, channel=0, data=[75, 100]),
   midi.NoteOnEvent(tick=60, channel=0, data=[75, 0]),
   midi.NoteOnEvent(tick=0, channel=0, data=[56, 0]),
   midi.NoteOnEvent(tick=0, channel=0, data=[37, 0]),
   midi.NoteOnEvent(tick=0, channel=0, data=[59, 0]),
   midi.NoteOnEvent(tick=0, channel=0, data=[44, 0]),
   midi.NoteOnEvent(tick=0, channel=0, data=[49, 0]),
   midi.NoteOnEvent(tick=0, channel=0, data=[66, 0]),
   midi.NoteOnEvent(tick=0, channel=0, data=[63, 0]),
   midi.NoteOnEvent(tick=0, channel=0, data=[71, 0]),
   midi.NoteOnEvent(tick=30, channel=0, data=[37, 100]),
   midi.NoteOnEvent(tick=0, channel=0, data=[44, 100]),
   midi.NoteOnEvent(tick=0, channel=0, data=[49, 100]),
   midi.NoteOnEvent(tick=0, channel=0, data=[56, 100]),
   midi.NoteOnEvent(tick=0, channel=0, data=[59, 100]),
   midi.NoteOnEvent(tick=0, channel=0, data=[63, 100]),
   midi.NoteOnEvent(tick=0, channel=0, data=[66, 100]),
   midi.NoteOnEvent(tick=0, channel=0, data=[71, 100]),
   midi.NoteOnEvent(tick=0, channel=0, data=[75, 100]),
   midi.NoteOnEvent(tick=60, channel=0, data=[75, 0]),
   midi.NoteOnEvent(tick=0, channel=0, data=[56, 0]),
   midi.NoteOnEvent(tick=0, channel=0, data=[37, 0]),
   midi.NoteOnEvent(tick=0, channel=0, data=[59, 0]),
   midi.NoteOnEvent(tick=0, channel=0, data=[44, 0]),
   midi.NoteOnEvent(tick=0, channel=0, data=[49, 0]),
   midi.NoteOnEvent(tick=0, channel=0, data=[66, 0]),
   midi.NoteOnEvent(tick=0, channel=0, data=[63, 0]),
   midi.NoteOnEvent(tick=0, channel=0, data=[71, 0]),
   midi.NoteOnEvent(tick=30, channel=0, data=[75, 100]),
   midi.NoteOnEvent(tick=0, channel=0, data=[47, 100]),
   midi.NoteOnEvent(tick=0, channel=0, data=[52, 100]),
   midi.NoteOnEvent(tick=0, channel=0, data=[40, 100]),
   midi.NoteOnEvent(tick=0, channel=0, data=[56, 100]),
   midi.NoteOnEvent(tick=0, channel=0, data=[63, 100]),
   midi.NoteOnEvent(tick=0, channel=0, data=[68, 100]),
   midi.NoteOnEvent(tick=0, channel=0, data=[71, 100]),
   midi.NoteOnEvent(tick=0, channel=0, data=[59, 100]),
   midi.NoteOnEvent(tick=240, channel=0, data=[59, 0]),
   midi.NoteOnEvent(tick=0, channel=0, data=[40, 0]),
   midi.NoteOnEvent(tick=0, channel=0, data=[75, 0]),
   midi.NoteOnEvent(tick=0, channel=0, data=[56, 0]),
   midi.NoteOnEvent(tick=0, channel=0, data=[47, 0]),
   midi.NoteOnEvent(tick=0, channel=0, data=[52, 0]),
   midi.NoteOnEvent(tick=0, channel=0, data=[68, 0]),
   midi.NoteOnEvent(tick=0, channel=0, data=[63, 0]),
   midi.NoteOnEvent(tick=0, channel=0, data=[71, 0]),
   midi.NoteOnEvent(tick=0, channel=0, data=[61, 100]),
   midi.NoteOnEvent(tick=0, channel=0, data=[42, 100]),
   midi.NoteOnEvent(tick=0, channel=0, data=[68, 100]),
   midi.NoteOnEvent(tick=0, channel=0, data=[73, 100]),
   midi.NoteOnEvent(tick=0, channel=0, data=[66, 100]),
   midi.NoteOnEvent(tick=0, channel=0, data=[49, 100]),
   midi.NoteOnEvent(tick=0, channel=0, data=[54, 100]),
   midi.NoteOnEvent(tick=0, channel=0, data=[58, 100]),
   midi.NoteOnEvent(tick=180, channel=0, data=[58, 0]),
   midi.NoteOnEvent(tick=0, channel=0, data=[61, 0]),
   midi.NoteOnEvent(tick=0, channel=0, data=[66, 0]),
   midi.NoteOnEvent(tick=0, channel=0, data=[42, 0]),
   midi.NoteOnEvent(tick=0, channel=0, data=[68, 0]),
   midi.NoteOnEvent(tick=0, channel=0, data=[73, 0]),
   midi.NoteOnEvent(tick=0, channel=0, data=[49, 0]),
   midi.NoteOnEvent(tick=0, channel=0, data=[54, 0]),
   midi.NoteOnEvent(tick=0, channel=0, data=[71, 100]),
   midi.NoteOnEvent(tick=0, channel=0, data=[68, 100]),
   midi.NoteOnEvent(tick=0, channel=0, data=[56, 100]),
   midi.NoteOnEvent(tick=0, channel=0, data=[51, 100]),
   midi.NoteOnEvent(tick=0, channel=0, data=[44, 100]),
   midi.NoteOnEvent(tick=0, channel=0, data=[63, 100]),
   midi.NoteOnEvent(tick=0, channel=0, data=[75, 100]),
   midi.NoteOnEvent(tick=0, channel=0, data=[59, 100]),
   midi.NoteOnEvent(tick=360, channel=0, data=[59, 0]),
   midi.NoteOnEvent(tick=0, channel=0, data=[71, 0]),
   midi.NoteOnEvent(tick=0, channel=0, data=[44, 0]),
   midi.NoteOnEvent(tick=0, channel=0, data=[68, 0]),
   midi.NoteOnEvent(tick=0, channel=0, data=[56, 0]),
   midi.NoteOnEvent(tick=0, channel=0, data=[51, 0]),
   midi.NoteOnEvent(tick=0, channel=0, data=[63, 0]),
   midi.NoteOnEvent(tick=0, channel=0, data=[75, 0]),
   midi.NoteOnEvent(tick=0, channel=0, data=[51, 100]),
   midi.NoteOnEvent(tick=0, channel=0, data=[75, 100]),
   midi.NoteOnEvent(tick=0, channel=0, data=[44, 100]),
   midi.NoteOnEvent(tick=0, channel=0, data=[63, 100]),
   midi.NoteOnEvent(tick=0, channel=0, data=[59, 100]),
   midi.NoteOnEvent(tick=0, channel=0, data=[56, 100]),
   midi.NoteOnEvent(tick=0, channel=0, data=[68, 100]),
   midi.NoteOnEvent(tick=0, channel=0, data=[71, 100]),
   midi.NoteOnEvent(tick=60, channel=0, data=[71, 0]),
   midi.NoteOnEvent(tick=0, channel=0, data=[51, 0]),
   midi.NoteOnEvent(tick=0, channel=0, data=[59, 0]),
   midi.NoteOnEvent(tick=0, channel=0, data=[75, 0]),
   midi.NoteOnEvent(tick=0, channel=0, data=[44, 0]),
   midi.NoteOnEvent(tick=0, channel=0, data=[63, 0]),
   midi.NoteOnEvent(tick=0, channel=0, data=[56, 0]),
   midi.NoteOnEvent(tick=0, channel=0, data=[68, 0]),
   midi.NoteOnEvent(tick=30, channel=0, data=[68, 100]),
   midi.NoteOnEvent(tick=0, channel=0, data=[63, 100]),
   midi.NoteOnEvent(tick=0, channel=0, data=[44, 100]),
   midi.NoteOnEvent(tick=0, channel=0, data=[51, 100]),
   midi.NoteOnEvent(tick=0, channel=0, data=[59, 100]),
   midi.NoteOnEvent(tick=0, channel=0, data=[56, 100]),
   midi.NoteOnEvent(tick=0, channel=0, data=[75, 100]),
   midi.NoteOnEvent(tick=0, channel=0, data=[71, 100]),
   midi.NoteOnEvent(tick=90, channel=0, data=[71, 0]),
   midi.NoteOnEvent(tick=0, channel=0, data=[68, 0]),
   midi.NoteOnEvent(tick=0, channel=0, data=[59, 0]),
   midi.NoteOnEvent(tick=0, channel=0, data=[63, 0]),
   midi.NoteOnEvent(tick=0, channel=0, data=[44, 0]),
   midi.NoteOnEvent(tick=0, channel=0, data=[51, 0]),
   midi.NoteOnEvent(tick=0, channel=0, data=[56, 0]),
   midi.NoteOnEvent(tick=0, channel=0, data=[75, 0]),
   midi.NoteOnEvent(tick=0, channel=0, data=[59, 100]),
   midi.NoteOnEvent(tick=0, channel=0, data=[56, 100]),
   midi.NoteOnEvent(tick=0, channel=0, data=[68, 100]),
   midi.NoteOnEvent(tick=0, channel=0, data=[63, 100]),
   midi.NoteOnEvent(tick=0, channel=0, data=[40, 100]),
   midi.NoteOnEvent(tick=0, channel=0, data=[71, 100]),
   midi.NoteOnEvent(tick=0, channel=0, data=[75, 100]),
   midi.NoteOnEvent(tick=0, channel=0, data=[47, 100]),
   midi.NoteOnEvent(tick=0, channel=0, data=[52, 100]),
   midi.NoteOnEvent(tick=240, channel=0, data=[52, 0]),
   midi.NoteOnEvent(tick=0, channel=0, data=[63, 0]),
   midi.NoteOnEvent(tick=0, channel=0, data=[59, 0]),
   midi.NoteOnEvent(tick=0, channel=0, data=[40, 0]),
   midi.NoteOnEvent(tick=0, channel=0, data=[56, 0]),
   midi.NoteOnEvent(tick=0, channel=0, data=[68, 0]),
   midi.NoteOnEvent(tick=0, channel=0, data=[75, 0]),
   midi.NoteOnEvent(tick=0, channel=0, data=[71, 0]),
   midi.NoteOnEvent(tick=0, channel=0, data=[47, 0]),
   midi.NoteOnEvent(tick=0, channel=0, data=[58, 100]),
   midi.NoteOnEvent(tick=0, channel=0, data=[68, 100]),
   midi.NoteOnEvent(tick=0, channel=0, data=[49, 100]),
   midi.NoteOnEvent(tick=0, channel=0, data=[61, 100]),
   midi.NoteOnEvent(tick=0, channel=0, data=[54, 100]),
   midi.NoteOnEvent(tick=0, channel=0, data=[73, 100]),
   midi.NoteOnEvent(tick=0, channel=0, data=[42, 100]),
   midi.NoteOnEvent(tick=0, channel=0, data=[66, 100]),
   midi.NoteOnEvent(tick=180, channel=0, data=[66, 0]),
   midi.NoteOnEvent(tick=0, channel=0, data=[58, 0]),
   midi.NoteOnEvent(tick=0, channel=0, data=[54, 0]),
   midi.NoteOnEvent(tick=0, channel=0, data=[68, 0]),
   midi.NoteOnEvent(tick=0, channel=0, data=[49, 0]),
   midi.NoteOnEvent(tick=0, channel=0, data=[61, 0]),
   midi.NoteOnEvent(tick=0, channel=0, data=[73, 0]),
   midi.NoteOnEvent(tick=0, channel=0, data=[42, 0]),
   midi.NoteOnEvent(tick=0, channel=0, data=[59, 100]),
   midi.NoteOnEvent(tick=0, channel=0, data=[71, 100]),
   midi.NoteOnEvent(tick=0, channel=0, data=[44, 100]),
   midi.NoteOnEvent(tick=0, channel=0, data=[68, 100]),
   midi.NoteOnEvent(tick=0, channel=0, data=[75, 100]),
   midi.NoteOnEvent(tick=0, channel=0, data=[56, 100]),
   midi.NoteOnEvent(tick=0, channel=0, data=[51, 100]),
   midi.NoteOnEvent(tick=0, channel=0, data=[63, 100]),
   midi.NoteOnEvent(tick=540, channel=0, data=[63, 0]),
   midi.NoteOnEvent(tick=0, channel=0, data=[59, 0]),
   midi.NoteOnEvent(tick=0, channel=0, data=[75, 0]),
   midi.NoteOnEvent(tick=0, channel=0, data=[71, 0]),
   midi.NoteOnEvent(tick=0, channel=0, data=[44, 0]),
   midi.NoteOnEvent(tick=0, channel=0, data=[68, 0]),
   midi.NoteOnEvent(tick=0, channel=0, data=[56, 0]),
   midi.NoteOnEvent(tick=0, channel=0, data=[51, 0]),
   midi.NoteOnEvent(tick=0, channel=0, data=[40, 100]),
   midi.NoteOnEvent(tick=0, channel=0, data=[56, 100]),
   midi.NoteOnEvent(tick=0, channel=0, data=[59, 100]),
   midi.NoteOnEvent(tick=0, channel=0, data=[63, 100]),
   midi.NoteOnEvent(tick=0, channel=0, data=[68, 100]),
   midi.NoteOnEvent(tick=0, channel=0, data=[71, 100]),
   midi.NoteOnEvent(tick=0, channel=0, data=[75, 100]),
   midi.NoteOnEvent(tick=0, channel=0, data=[47, 100]),
   midi.NoteOnEvent(tick=0, channel=0, data=[52, 100]),
   midi.NoteOnEvent(tick=240, channel=0, data=[52, 0]),
   midi.NoteOnEvent(tick=0, channel=0, data=[63, 0]),
   midi.NoteOnEvent(tick=0, channel=0, data=[40, 0]),
   midi.NoteOnEvent(tick=0, channel=0, data=[68, 0]),
   midi.NoteOnEvent(tick=0, channel=0, data=[56, 0]),
   midi.NoteOnEvent(tick=0, channel=0, data=[59, 0]),
   midi.NoteOnEvent(tick=0, channel=0, data=[75, 0]),
   midi.NoteOnEvent(tick=0, channel=0, data=[71, 0]),
   midi.NoteOnEvent(tick=0, channel=0, data=[47, 0]),
   midi.NoteOnEvent(tick=0, channel=0, data=[73, 100]),
   midi.NoteOnEvent(tick=0, channel=0, data=[66, 100]),
   midi.NoteOnEvent(tick=0, channel=0, data=[54, 100]),
   midi.NoteOnEvent(tick=0, channel=0, data=[49, 100]),
   midi.NoteOnEvent(tick=0, channel=0, data=[58, 100]),
   midi.NoteOnEvent(tick=0, channel=0, data=[42, 100]),
   midi.NoteOnEvent(tick=0, channel=0, data=[61, 100]),
   midi.NoteOnEvent(tick=0, channel=0, data=[68, 100]),
   midi.NoteOnEvent(tick=180, channel=0, data=[68, 0]),
   midi.NoteOnEvent(tick=0, channel=0, data=[73, 0]),
   midi.NoteOnEvent(tick=0, channel=0, data=[58, 0]),
   midi.NoteOnEvent(tick=0, channel=0, data=[66, 0]),
   midi.NoteOnEvent(tick=0, channel=0, data=[54, 0]),
   midi.NoteOnEvent(tick=0, channel=0, data=[49, 0]),
   midi.NoteOnEvent(tick=0, channel=0, data=[42, 0]),
   midi.NoteOnEvent(tick=0, channel=0, data=[61, 0]),
   midi.NoteOnEvent(tick=0, channel=0, data=[44, 100]),
   midi.NoteOnEvent(tick=0, channel=0, data=[51, 100]),
   midi.NoteOnEvent(tick=0, channel=0, data=[56, 100]),
   midi.NoteOnEvent(tick=0, channel=0, data=[63, 100]),
   midi.NoteOnEvent(tick=0, channel=0, data=[68, 100]),
   midi.NoteOnEvent(tick=0, channel=0, data=[75, 100]),
   midi.NoteOnEvent(tick=0, channel=0, data=[59, 100]),
   midi.NoteOnEvent(tick=0, channel=0, data=[71, 100]),
   midi.NoteOnEvent(tick=360, channel=0, data=[71, 0]),
   midi.NoteOnEvent(tick=0, channel=0, data=[44, 0]),
   midi.NoteOnEvent(tick=0, channel=0, data=[68, 0]),
   midi.NoteOnEvent(tick=0, channel=0, data=[51, 0]),
   midi.NoteOnEvent(tick=0, channel=0, data=[56, 0]),
   midi.NoteOnEvent(tick=0, channel=0, data=[63, 0]),
   midi.NoteOnEvent(tick=0, channel=0, data=[75, 0]),
   midi.NoteOnEvent(tick=0, channel=0, data=[59, 0]),
   midi.NoteOnEvent(tick=0, channel=0, data=[44, 100]),
   midi.NoteOnEvent(tick=0, channel=0, data=[51, 100]),
   midi.NoteOnEvent(tick=0, channel=0, data=[56, 100]),
   midi.NoteOnEvent(tick=0, channel=0, data=[63, 100]),
   midi.NoteOnEvent(tick=0, channel=0, data=[68, 100]),
   midi.NoteOnEvent(tick=0, channel=0, data=[75, 100]),
   midi.NoteOnEvent(tick=0, channel=0, data=[71, 100]),
   midi.NoteOnEvent(tick=0, channel=0, data=[59, 100]),
   midi.NoteOnEvent(tick=60, channel=0, data=[59, 0]),
   midi.NoteOnEvent(tick=0, channel=0, data=[44, 0]),
   midi.NoteOnEvent(tick=0, channel=0, data=[68, 0]),
   midi.NoteOnEvent(tick=0, channel=0, data=[51, 0]),
   midi.NoteOnEvent(tick=0, channel=0, data=[56, 0]),
   midi.NoteOnEvent(tick=0, channel=0, data=[63, 0]),
   midi.NoteOnEvent(tick=0, channel=0, data=[75, 0]),
   midi.NoteOnEvent(tick=0, channel=0, data=[71, 0]),
   midi.NoteOnEvent(tick=30, channel=0, data=[51, 100]),
   midi.NoteOnEvent(tick=0, channel=0, data=[44, 100]),
   midi.NoteOnEvent(tick=0, channel=0, data=[75, 100]),
   midi.NoteOnEvent(tick=0, channel=0, data=[71, 100]),
   midi.NoteOnEvent(tick=0, channel=0, data=[68, 100]),
   midi.NoteOnEvent(tick=0, channel=0, data=[63, 100]),
   midi.NoteOnEvent(tick=0, channel=0, data=[59, 100]),
   midi.NoteOnEvent(tick=0, channel=0, data=[56, 100]),
   midi.NoteOnEvent(tick=60, channel=0, data=[56, 0]),
   midi.NoteOnEvent(tick=0, channel=0, data=[51, 0]),
   midi.NoteOnEvent(tick=0, channel=0, data=[68, 0]),
   midi.NoteOnEvent(tick=0, channel=0, data=[44, 0]),
   midi.NoteOnEvent(tick=0, channel=0, data=[75, 0]),
   midi.NoteOnEvent(tick=0, channel=0, data=[71, 0]),
   midi.NoteOnEvent(tick=0, channel=0, data=[63, 0]),
   midi.NoteOnEvent(tick=0, channel=0, data=[59, 0]),
   midi.NoteOnEvent(tick=30, channel=0, data=[40, 100]),
   midi.NoteOnEvent(tick=0, channel=0, data=[56, 100]),
   midi.NoteOnEvent(tick=0, channel=0, data=[59, 100]),
   midi.NoteOnEvent(tick=0, channel=0, data=[63, 100]),
   midi.NoteOnEvent(tick=0, channel=0, data=[68, 100]),
   midi.NoteOnEvent(tick=0, channel=0, data=[71, 100]),
   midi.NoteOnEvent(tick=0, channel=0, data=[52, 100]),
   midi.NoteOnEvent(tick=0, channel=0, data=[47, 100]),
   midi.NoteOnEvent(tick=0, channel=0, data=[75, 100]),
   midi.NoteOnEvent(tick=240, channel=0, data=[75, 0]),
   midi.NoteOnEvent(tick=0, channel=0, data=[63, 0]),
   midi.NoteOnEvent(tick=0, channel=0, data=[40, 0]),
   midi.NoteOnEvent(tick=0, channel=0, data=[68, 0]),
   midi.NoteOnEvent(tick=0, channel=0, data=[56, 0]),
   midi.NoteOnEvent(tick=0, channel=0, data=[59, 0]),
   midi.NoteOnEvent(tick=0, channel=0, data=[52, 0]),
   midi.NoteOnEvent(tick=0, channel=0, data=[71, 0]),
   midi.NoteOnEvent(tick=0, channel=0, data=[47, 0]),
   midi.NoteOnEvent(tick=0, channel=0, data=[73, 100]),
   midi.NoteOnEvent(tick=0, channel=0, data=[54, 100]),
   midi.NoteOnEvent(tick=0, channel=0, data=[66, 100]),
   midi.NoteOnEvent(tick=0, channel=0, data=[58, 100]),
   midi.NoteOnEvent(tick=0, channel=0, data=[42, 100]),
   midi.NoteOnEvent(tick=0, channel=0, data=[49, 100]),
   midi.NoteOnEvent(tick=0, channel=0, data=[68, 100]),
   midi.NoteOnEvent(tick=0, channel=0, data=[61, 100]),
   midi.NoteOnEvent(tick=180, channel=0, data=[61, 0]),
   midi.NoteOnEvent(tick=0, channel=0, data=[73, 0]),
   midi.NoteOnEvent(tick=0, channel=0, data=[42, 0]),
   midi.NoteOnEvent(tick=0, channel=0, data=[54, 0]),
   midi.NoteOnEvent(tick=0, channel=0, data=[66, 0]),
   midi.NoteOnEvent(tick=0, channel=0, data=[58, 0]),
   midi.NoteOnEvent(tick=0, channel=0, data=[49, 0]),
   midi.NoteOnEvent(tick=0, channel=0, data=[68, 0]),
   midi.NoteOnEvent(tick=0, channel=0, data=[44, 100]),
   midi.NoteOnEvent(tick=0, channel=0, data=[51, 100]),
   midi.NoteOnEvent(tick=0, channel=0, data=[56, 100]),
   midi.NoteOnEvent(tick=0, channel=0, data=[59, 100]),
   midi.NoteOnEvent(tick=0, channel=0, data=[63, 100]),
   midi.NoteOnEvent(tick=0, channel=0, data=[68, 100]),
   midi.NoteOnEvent(tick=0, channel=0, data=[71, 100]),
   midi.NoteOnEvent(tick=0, channel=0, data=[75, 100]),
   midi.NoteOnEvent(tick=360, channel=0, data=[75, 0]),
   midi.NoteOnEvent(tick=0, channel=0, data=[44, 0]),
   midi.NoteOnEvent(tick=0, channel=0, data=[63, 0]),
   midi.NoteOnEvent(tick=0, channel=0, data=[51, 0]),
   midi.NoteOnEvent(tick=0, channel=0, data=[56, 0]),
   midi.NoteOnEvent(tick=0, channel=0, data=[59, 0]),
   midi.NoteOnEvent(tick=0, channel=0, data=[68, 0]),
   midi.NoteOnEvent(tick=0, channel=0, data=[71, 0]),
   midi.NoteOnEvent(tick=0, channel=0, data=[37, 100]),
   midi.NoteOnEvent(tick=0, channel=0, data=[44, 100]),
   midi.NoteOnEvent(tick=0, channel=0, data=[49, 100]),
   midi.NoteOnEvent(tick=0, channel=0, data=[56, 100]),
   midi.NoteOnEvent(tick=0, channel=0, data=[59, 100]),
   midi.NoteOnEvent(tick=0, channel=0, data=[63, 100]),
   midi.NoteOnEvent(tick=0, channel=0, data=[66, 100]),
   midi.NoteOnEvent(tick=0, channel=0, data=[71, 100]),
   midi.NoteOnEvent(tick=0, channel=0, data=[75, 100]),
   midi.NoteOnEvent(tick=60, channel=0, data=[75, 0]),
   midi.NoteOnEvent(tick=0, channel=0, data=[56, 0]),
   midi.NoteOnEvent(tick=0, channel=0, data=[37, 0]),
   midi.NoteOnEvent(tick=0, channel=0, data=[59, 0]),
   midi.NoteOnEvent(tick=0, channel=0, data=[44, 0]),
   midi.NoteOnEvent(tick=0, channel=0, data=[49, 0]),
   midi.NoteOnEvent(tick=0, channel=0, data=[66, 0]),
   midi.NoteOnEvent(tick=0, channel=0, data=[63, 0]),
   midi.NoteOnEvent(tick=0, channel=0, data=[71, 0]),
   midi.NoteOnEvent(tick=30, channel=0, data=[37, 100]),
   midi.NoteOnEvent(tick=0, channel=0, data=[44, 100]),
   midi.NoteOnEvent(tick=0, channel=0, data=[49, 100]),
   midi.NoteOnEvent(tick=0, channel=0, data=[56, 100]),
   midi.NoteOnEvent(tick=0, channel=0, data=[59, 100]),
   midi.NoteOnEvent(tick=0, channel=0, data=[63, 100]),
   midi.NoteOnEvent(tick=0, channel=0, data=[66, 100]),
   midi.NoteOnEvent(tick=0, channel=0, data=[71, 100]),
   midi.NoteOnEvent(tick=0, channel=0, data=[75, 100]),
   midi.NoteOnEvent(tick=60, channel=0, data=[75, 0]),
   midi.NoteOnEvent(tick=0, channel=0, data=[56, 0]),
   midi.NoteOnEvent(tick=0, channel=0, data=[37, 0]),
   midi.NoteOnEvent(tick=0, channel=0, data=[59, 0]),
   midi.NoteOnEvent(tick=0, channel=0, data=[44, 0]),
   midi.NoteOnEvent(tick=0, channel=0, data=[49, 0]),
   midi.NoteOnEvent(tick=0, channel=0, data=[66, 0]),
   midi.NoteOnEvent(tick=0, channel=0, data=[63, 0]),
   midi.NoteOnEvent(tick=0, channel=0, data=[71, 0]),
   midi.NoteOnEvent(tick=30, channel=0, data=[75, 100]),
   midi.NoteOnEvent(tick=0, channel=0, data=[47, 100]),
   midi.NoteOnEvent(tick=0, channel=0, data=[52, 100]),
   midi.NoteOnEvent(tick=0, channel=0, data=[40, 100]),
   midi.NoteOnEvent(tick=0, channel=0, data=[56, 100]),
   midi.NoteOnEvent(tick=0, channel=0, data=[63, 100]),
   midi.NoteOnEvent(tick=0, channel=0, data=[68, 100]),
   midi.NoteOnEvent(tick=0, channel=0, data=[71, 100]),
   midi.NoteOnEvent(tick=0, channel=0, data=[59, 100]),
   midi.NoteOnEvent(tick=240, channel=0, data=[59, 0]),
   midi.NoteOnEvent(tick=0, channel=0, data=[40, 0]),
   midi.NoteOnEvent(tick=0, channel=0, data=[75, 0]),
   midi.NoteOnEvent(tick=0, channel=0, data=[56, 0]),
   midi.NoteOnEvent(tick=0, channel=0, data=[47, 0]),
   midi.NoteOnEvent(tick=0, channel=0, data=[52, 0]),
   midi.NoteOnEvent(tick=0, channel=0, data=[68, 0]),
   midi.NoteOnEvent(tick=0, channel=0, data=[63, 0]),
   midi.NoteOnEvent(tick=0, channel=0, data=[71, 0]),
   midi.NoteOnEvent(tick=0, channel=0, data=[61, 100]),
   midi.NoteOnEvent(tick=0, channel=0, data=[42, 100]),
   midi.NoteOnEvent(tick=0, channel=0, data=[68, 100]),
   midi.NoteOnEvent(tick=0, channel=0, data=[73, 100]),
   midi.NoteOnEvent(tick=0, channel=0, data=[66, 100]),
   midi.NoteOnEvent(tick=0, channel=0, data=[49, 100]),
   midi.NoteOnEvent(tick=0, channel=0, data=[54, 100]),
   midi.NoteOnEvent(tick=0, channel=0, data=[58, 100]),
   midi.NoteOnEvent(tick=180, channel=0, data=[58, 0]),
   midi.NoteOnEvent(tick=0, channel=0, data=[61, 0]),
   midi.NoteOnEvent(tick=0, channel=0, data=[66, 0]),
   midi.NoteOnEvent(tick=0, channel=0, data=[42, 0]),
   midi.NoteOnEvent(tick=0, channel=0, data=[68, 0]),
   midi.NoteOnEvent(tick=0, channel=0, data=[73, 0]),
   midi.NoteOnEvent(tick=0, channel=0, data=[49, 0]),
   midi.NoteOnEvent(tick=0, channel=0, data=[54, 0]),
   midi.NoteOnEvent(tick=0, channel=0, data=[71, 100]),
   midi.NoteOnEvent(tick=0, channel=0, data=[68, 100]),
   midi.NoteOnEvent(tick=0, channel=0, data=[56, 100]),
   midi.NoteOnEvent(tick=0, channel=0, data=[51, 100]),
   midi.NoteOnEvent(tick=0, channel=0, data=[44, 100]),
   midi.NoteOnEvent(tick=0, channel=0, data=[63, 100]),
   midi.NoteOnEvent(tick=0, channel=0, data=[75, 100]),
   midi.NoteOnEvent(tick=0, channel=0, data=[59, 100]),
   midi.NoteOnEvent(tick=360, channel=0, data=[59, 0]),
   midi.NoteOnEvent(tick=0, channel=0, data=[71, 0]),
   midi.NoteOnEvent(tick=0, channel=0, data=[44, 0]),
   midi.NoteOnEvent(tick=0, channel=0, data=[68, 0]),
   midi.NoteOnEvent(tick=0, channel=0, data=[56, 0]),
   midi.NoteOnEvent(tick=0, channel=0, data=[51, 0]),
   midi.NoteOnEvent(tick=0, channel=0, data=[63, 0]),
   midi.NoteOnEvent(tick=0, channel=0, data=[75, 0]),
   midi.NoteOnEvent(tick=0, channel=0, data=[51, 100]),
   midi.NoteOnEvent(tick=0, channel=0, data=[75, 100]),
   midi.NoteOnEvent(tick=0, channel=0, data=[44, 100]),
   midi.NoteOnEvent(tick=0, channel=0, data=[63, 100]),
   midi.NoteOnEvent(tick=0, channel=0, data=[59, 100]),
   midi.NoteOnEvent(tick=0, channel=0, data=[56, 100]),
   midi.NoteOnEvent(tick=0, channel=0, data=[68, 100]),
   midi.NoteOnEvent(tick=0, channel=0, data=[71, 100]),
   midi.NoteOnEvent(tick=60, channel=0, data=[71, 0]),
   midi.NoteOnEvent(tick=0, channel=0, data=[51, 0]),
   midi.NoteOnEvent(tick=0, channel=0, data=[59, 0]),
   midi.NoteOnEvent(tick=0, channel=0, data=[75, 0]),
   midi.NoteOnEvent(tick=0, channel=0, data=[44, 0]),
   midi.NoteOnEvent(tick=0, channel=0, data=[63, 0]),
   midi.NoteOnEvent(tick=0, channel=0, data=[56, 0]),
   midi.NoteOnEvent(tick=0, channel=0, data=[68, 0]),
   midi.NoteOnEvent(tick=30, channel=0, data=[68, 100]),
   midi.NoteOnEvent(tick=0, channel=0, data=[63, 100]),
   midi.NoteOnEvent(tick=0, channel=0, data=[44, 100]),
   midi.NoteOnEvent(tick=0, channel=0, data=[51, 100]),
   midi.NoteOnEvent(tick=0, channel=0, data=[59, 100]),
   midi.NoteOnEvent(tick=0, channel=0, data=[56, 100]),
   midi.NoteOnEvent(tick=0, channel=0, data=[75, 100]),
   midi.NoteOnEvent(tick=0, channel=0, data=[71, 100]),
   midi.NoteOnEvent(tick=90, channel=0, data=[71, 0]),
   midi.NoteOnEvent(tick=0, channel=0, data=[68, 0]),
   midi.NoteOnEvent(tick=0, channel=0, data=[59, 0]),
   midi.NoteOnEvent(tick=0, channel=0, data=[63, 0]),
   midi.NoteOnEvent(tick=0, channel=0, data=[44, 0]),
   midi.NoteOnEvent(tick=0, channel=0, data=[51, 0]),
   midi.NoteOnEvent(tick=0, channel=0, data=[56, 0]),
   midi.NoteOnEvent(tick=0, channel=0, data=[75, 0]),
   midi.NoteOnEvent(tick=0, channel=0, data=[59, 100]),
   midi.NoteOnEvent(tick=0, channel=0, data=[56, 100]),
   midi.NoteOnEvent(tick=0, channel=0, data=[68, 100]),
   midi.NoteOnEvent(tick=0, channel=0, data=[63, 100]),
   midi.NoteOnEvent(tick=0, channel=0, data=[40, 100]),
   midi.NoteOnEvent(tick=0, channel=0, data=[71, 100]),
   midi.NoteOnEvent(tick=0, channel=0, data=[75, 100]),
   midi.NoteOnEvent(tick=0, channel=0, data=[47, 100]),
   midi.NoteOnEvent(tick=0, channel=0, data=[52, 100]),
   midi.NoteOnEvent(tick=240, channel=0, data=[52, 0]),
   midi.NoteOnEvent(tick=0, channel=0, data=[63, 0]),
   midi.NoteOnEvent(tick=0, channel=0, data=[59, 0]),
   midi.NoteOnEvent(tick=0, channel=0, data=[40, 0]),
   midi.NoteOnEvent(tick=0, channel=0, data=[56, 0]),
   midi.NoteOnEvent(tick=0, channel=0, data=[68, 0]),
   midi.NoteOnEvent(tick=0, channel=0, data=[75, 0]),
   midi.NoteOnEvent(tick=0, channel=0, data=[71, 0]),
   midi.NoteOnEvent(tick=0, channel=0, data=[47, 0]),
   midi.NoteOnEvent(tick=0, channel=0, data=[58, 100]),
   midi.NoteOnEvent(tick=0, channel=0, data=[68, 100]),
   midi.NoteOnEvent(tick=0, channel=0, data=[49, 100]),
   midi.NoteOnEvent(tick=0, channel=0, data=[61, 100]),
   midi.NoteOnEvent(tick=0, channel=0, data=[54, 100]),
   midi.NoteOnEvent(tick=0, channel=0, data=[73, 100]),
   midi.NoteOnEvent(tick=0, channel=0, data=[42, 100]),
   midi.NoteOnEvent(tick=0, channel=0, data=[66, 100]),
   midi.NoteOnEvent(tick=180, channel=0, data=[66, 0]),
   midi.NoteOnEvent(tick=0, channel=0, data=[58, 0]),
   midi.NoteOnEvent(tick=0, channel=0, data=[54, 0]),
   midi.NoteOnEvent(tick=0, channel=0, data=[68, 0]),
   midi.NoteOnEvent(tick=0, channel=0, data=[49, 0]),
   midi.NoteOnEvent(tick=0, channel=0, data=[61, 0]),
   midi.NoteOnEvent(tick=0, channel=0, data=[73, 0]),
   midi.NoteOnEvent(tick=0, channel=0, data=[42, 0]),
   midi.NoteOnEvent(tick=0, channel=0, data=[59, 100]),
   midi.NoteOnEvent(tick=0, channel=0, data=[71, 100]),
   midi.NoteOnEvent(tick=0, channel=0, data=[44, 100]),
   midi.NoteOnEvent(tick=0, channel=0, data=[68, 100]),
   midi.NoteOnEvent(tick=0, channel=0, data=[32, 100]),
   midi.NoteOnEvent(tick=0, channel=0, data=[75, 100]),
   midi.NoteOnEvent(tick=0, channel=0, data=[56, 100]),
   midi.NoteOnEvent(tick=0, channel=0, data=[51, 100]),
   midi.NoteOnEvent(tick=0, channel=0, data=[63, 100]),
   midi.NoteOnEvent(tick=540, channel=0, data=[63, 0]),
   midi.NoteOnEvent(tick=0, channel=0, data=[68, 0]),
   midi.NoteOnEvent(tick=0, channel=0, data=[59, 0]),
   midi.NoteOnEvent(tick=0, channel=0, data=[32, 0]),
   midi.NoteOnEvent(tick=0, channel=0, data=[71, 0]),
   midi.NoteOnEvent(tick=0, channel=0, data=[44, 0]),
   midi.NoteOnEvent(tick=0, channel=0, data=[56, 0]),
   midi.NoteOnEvent(tick=0, channel=0, data=[75, 0]),
   midi.NoteOnEvent(tick=0, channel=0, data=[51, 0]),
   midi.EndOfTrackEvent(tick=0, data=[])]),
 midi.Track(\
  [midi.TrackNameEvent(tick=0, text='Bass', data=[66, 97, 115, 115]),
   midi.ControlChangeEvent(tick=121, channel=1, data=[0, 121]),
   midi.ControlChangeEvent(tick=0, channel=1, data=[32, 2]),
   midi.ProgramChangeEvent(tick=0, channel=1, data=[80]),
   midi.ControlChangeEvent(tick=0, channel=1, data=[91, 64]),
   midi.ControlChangeEvent(tick=0, channel=1, data=[93, 64]),
   midi.NoteOnEvent(tick=9479, channel=1, data=[51, 58]),
   midi.NoteOnEvent(tick=0, channel=1, data=[63, 71]),
   midi.NoteOnEvent(tick=0, channel=1, data=[44, 110]),
   midi.NoteOnEvent(tick=0, channel=1, data=[32, 123]),
   midi.NoteOnEvent(tick=30, channel=1, data=[32, 0]),
   midi.NoteOnEvent(tick=0, channel=1, data=[51, 0]),
   midi.NoteOnEvent(tick=0, channel=1, data=[63, 0]),
   midi.NoteOnEvent(tick=0, channel=1, data=[44, 0]),
   midi.NoteOnEvent(tick=60, channel=1, data=[63, 63]),
   midi.NoteOnEvent(tick=0, channel=1, data=[51, 58]),
   midi.NoteOnEvent(tick=0, channel=1, data=[32, 126]),
   midi.NoteOnEvent(tick=0, channel=1, data=[44, 107]),
   midi.NoteOnEvent(tick=30, channel=1, data=[44, 0]),
   midi.NoteOnEvent(tick=0, channel=1, data=[63, 0]),
   midi.NoteOnEvent(tick=0, channel=1, data=[51, 0]),
   midi.NoteOnEvent(tick=0, channel=1, data=[32, 0]),
   midi.NoteOnEvent(tick=60, channel=1, data=[25, 119]),
   midi.NoteOnEvent(tick=0, channel=1, data=[44, 70]),
   midi.NoteOnEvent(tick=0, channel=1, data=[37, 82]),
   midi.NoteOnEvent(tick=0, channel=1, data=[56, 51]),
   midi.NoteOnEvent(tick=30, channel=1, data=[56, 0]),
   midi.NoteOnEvent(tick=0, channel=1, data=[25, 0]),
   midi.NoteOnEvent(tick=0, channel=1, data=[44, 0]),
   midi.NoteOnEvent(tick=0, channel=1, data=[37, 0]),
   midi.NoteOnEvent(tick=30, channel=1, data=[56, 46]),
   midi.NoteOnEvent(tick=0, channel=1, data=[40, 57]),
   midi.NoteOnEvent(tick=0, channel=1, data=[59, 57]),
   midi.NoteOnEvent(tick=0, channel=1, data=[47, 63]),
   midi.NoteOnEvent(tick=0, channel=1, data=[28, 114]),
   midi.NoteOnEvent(tick=30, channel=1, data=[28, 0]),
   midi.NoteOnEvent(tick=0, channel=1, data=[59, 0]),
   midi.NoteOnEvent(tick=0, channel=1, data=[56, 0]),
   midi.NoteOnEvent(tick=0, channel=1, data=[40, 0]),
   midi.NoteOnEvent(tick=0, channel=1, data=[47, 0]),
   midi.NoteOnEvent(tick=60, channel=1, data=[47, 75]),
   midi.NoteOnEvent(tick=0, channel=1, data=[59, 63]),
   midi.NoteOnEvent(tick=0, channel=1, data=[28, 121]),
   midi.NoteOnEvent(tick=0, channel=1, data=[40, 105]),
   midi.NoteOnEvent(tick=30, channel=1, data=[40, 0]),
   midi.NoteOnEvent(tick=0, channel=1, data=[47, 0]),
   midi.NoteOnEvent(tick=0, channel=1, data=[59, 0]),
   midi.NoteOnEvent(tick=0, channel=1, data=[28, 0]),
   midi.NoteOnEvent(tick=60, channel=1, data=[42, 78]),
   midi.NoteOnEvent(tick=0, channel=1, data=[54, 40]),
   midi.NoteOnEvent(tick=0, channel=1, data=[49, 43]),
   midi.NoteOnEvent(tick=0, channel=1, data=[30, 109]),
   midi.NoteOnEvent(tick=0, channel=1, data=[61, 51]),
   midi.NoteOnEvent(tick=30, channel=1, data=[61, 0]),
   midi.NoteOnEvent(tick=0, channel=1, data=[49, 0]),
   midi.NoteOnEvent(tick=0, channel=1, data=[42, 0]),
   midi.NoteOnEvent(tick=0, channel=1, data=[54, 0]),
   midi.NoteOnEvent(tick=0, channel=1, data=[30, 0]),
   midi.NoteOnEvent(tick=60, channel=1, data=[30, 119]),
   midi.NoteOnEvent(tick=0, channel=1, data=[42, 96]),
   midi.NoteOnEvent(tick=0, channel=1, data=[49, 49]),
   midi.NoteOnEvent(tick=30, channel=1, data=[49, 0]),
   midi.NoteOnEvent(tick=0, channel=1, data=[42, 0]),
   midi.NoteOnEvent(tick=0, channel=1, data=[30, 0]),
   midi.NoteOnEvent(tick=60, channel=1, data=[49, 74]),
   midi.NoteOnEvent(tick=0, channel=1, data=[42, 107]),
   midi.NoteOnEvent(tick=0, channel=1, data=[30, 127]),
   midi.NoteOnEvent(tick=30, channel=1, data=[30, 0]),
   midi.NoteOnEvent(tick=0, channel=1, data=[42, 0]),
   midi.NoteOnEvent(tick=0, channel=1, data=[49, 0]),
   midi.NoteOnEvent(tick=60, channel=1, data=[30, 112]),
   midi.NoteOnEvent(tick=0, channel=1, data=[49, 46]),
   midi.NoteOnEvent(tick=0, channel=1, data=[42, 110]),
   midi.NoteOnEvent(tick=30, channel=1, data=[42, 0]),
   midi.NoteOnEvent(tick=0, channel=1, data=[49, 0]),
   midi.NoteOnEvent(tick=0, channel=1, data=[30, 0]),
   midi.NoteOnEvent(tick=60, channel=1, data=[30, 120]),
   midi.NoteOnEvent(tick=0, channel=1, data=[42, 105]),
   midi.NoteOnEvent(tick=0, channel=1, data=[49, 56]),
   midi.NoteOnEvent(tick=30, channel=1, data=[49, 0]),
   midi.NoteOnEvent(tick=0, channel=1, data=[42, 0]),
   midi.NoteOnEvent(tick=0, channel=1, data=[30, 0]),
   midi.NoteOnEvent(tick=30, channel=1, data=[51, 63]),
   midi.NoteOnEvent(tick=0, channel=1, data=[32, 127]),
   midi.NoteOnEvent(tick=0, channel=1, data=[44, 95]),
   midi.NoteOnEvent(tick=30, channel=1, data=[44, 0]),
   midi.NoteOnEvent(tick=0, channel=1, data=[32, 0]),
   midi.NoteOnEvent(tick=0, channel=1, data=[51, 0]),
   midi.NoteOnEvent(tick=0, channel=1, data=[42, 107]),
   midi.NoteOnEvent(tick=0, channel=1, data=[30, 119]),
   midi.NoteOnEvent(tick=30, channel=1, data=[30, 0]),
   midi.NoteOnEvent(tick=0, channel=1, data=[42, 0]),
   midi.NoteOnEvent(tick=0, channel=1, data=[28, 116]),
   midi.NoteOnEvent(tick=0, channel=1, data=[52, 44]),
   midi.NoteOnEvent(tick=0, channel=1, data=[47, 46]),
   midi.NoteOnEvent(tick=0, channel=1, data=[40, 78]),
   midi.NoteOnEvent(tick=0, channel=1, data=[59, 57]),
   midi.NoteOnEvent(tick=30, channel=1, data=[40, 0]),
   midi.NoteOnEvent(tick=0, channel=1, data=[47, 0]),
   midi.NoteOnEvent(tick=0, channel=1, data=[28, 0]),
   midi.NoteOnEvent(tick=0, channel=1, data=[52, 0]),
   midi.NoteOnEvent(tick=30, channel=1, data=[59, 0]),
   midi.NoteOnEvent(tick=0, channel=1, data=[25, 112]),
   midi.NoteOnEvent(tick=0, channel=1, data=[37, 93]),
   midi.NoteOnEvent(tick=0, channel=1, data=[44, 64]),
   midi.NoteOnEvent(tick=0, channel=1, data=[56, 46]),
   midi.NoteOnEvent(tick=30, channel=1, data=[56, 0]),
   midi.NoteOnEvent(tick=0, channel=1, data=[25, 0]),
   midi.NoteOnEvent(tick=0, channel=1, data=[37, 0]),
   midi.NoteOnEvent(tick=0, channel=1, data=[44, 0]),
   midi.NoteOnEvent(tick=60, channel=1, data=[25, 120]),
   midi.NoteOnEvent(tick=0, channel=1, data=[44, 79]),
   midi.NoteOnEvent(tick=0, channel=1, data=[56, 71]),
   midi.NoteOnEvent(tick=0, channel=1, data=[37, 106]),
   midi.NoteOnEvent(tick=30, channel=1, data=[37, 0]),
   midi.NoteOnEvent(tick=0, channel=1, data=[25, 0]),
   midi.NoteOnEvent(tick=0, channel=1, data=[44, 0]),
   midi.NoteOnEvent(tick=0, channel=1, data=[56, 0]),
   midi.NoteOnEvent(tick=60, channel=1, data=[44, 82]),
   midi.NoteOnEvent(tick=0, channel=1, data=[51, 51]),
   midi.NoteOnEvent(tick=0, channel=1, data=[63, 57]),
   midi.NoteOnEvent(tick=0, channel=1, data=[32, 114]),
   midi.NoteOnEvent(tick=30, channel=1, data=[32, 0]),
   midi.NoteOnEvent(tick=0, channel=1, data=[44, 0]),
   midi.NoteOnEvent(tick=0, channel=1, data=[51, 0]),
   midi.NoteOnEvent(tick=0, channel=1, data=[63, 0]),
   midi.NoteOnEvent(tick=30, channel=1, data=[30, 113]),
   midi.NoteOnEvent(tick=0, channel=1, data=[49, 49]),
   midi.NoteOnEvent(tick=0, channel=1, data=[42, 91]),
   midi.NoteOnEvent(tick=30, channel=1, data=[42, 0]),
   midi.NoteOnEvent(tick=0, channel=1, data=[49, 0]),
   midi.NoteOnEvent(tick=0, channel=1, data=[30, 0]),
   midi.NoteOnEvent(tick=60, channel=1, data=[42, 112]),
   midi.NoteOnEvent(tick=0, channel=1, data=[49, 70]),
   midi.NoteOnEvent(tick=0, channel=1, data=[30, 127]),
   midi.NoteOnEvent(tick=30, channel=1, data=[30, 0]),
   midi.NoteOnEvent(tick=0, channel=1, data=[49, 0]),
   midi.NoteOnEvent(tick=0, channel=1, data=[42, 0]),
   midi.NoteOnEvent(tick=60, channel=1, data=[46, 46]),
   midi.NoteOnEvent(tick=0, channel=1, data=[39, 100]),
   midi.NoteOnEvent(tick=0, channel=1, data=[58, 50]),
   midi.NoteOnEvent(tick=0, channel=1, data=[27, 110]),
   midi.NoteOnEvent(tick=30, channel=1, data=[27, 0]),
   midi.NoteOnEvent(tick=0, channel=1, data=[46, 0]),
   midi.NoteOnEvent(tick=0, channel=1, data=[39, 0]),
   midi.NoteOnEvent(tick=0, channel=1, data=[58, 0]),
   midi.NoteOnEvent(tick=60, channel=1, data=[39, 81]),
   midi.NoteOnEvent(tick=0, channel=1, data=[27, 112]),
   midi.NoteOnEvent(tick=0, channel=1, data=[46, 65]),
   midi.NoteOnEvent(tick=0, channel=1, data=[58, 47]),
   midi.NoteOnEvent(tick=30, channel=1, data=[58, 0]),
   midi.NoteOnEvent(tick=0, channel=1, data=[39, 0]),
   midi.NoteOnEvent(tick=0, channel=1, data=[27, 0]),
   midi.NoteOnEvent(tick=0, channel=1, data=[46, 0]),
   midi.NoteOnEvent(tick=60, channel=1, data=[47, 77]),
   midi.NoteOnEvent(tick=0, channel=1, data=[59, 72]),
   midi.NoteOnEvent(tick=0, channel=1, data=[28, 127]),
   midi.NoteOnEvent(tick=0, channel=1, data=[40, 92]),
   midi.NoteOnEvent(tick=30, channel=1, data=[40, 0]),
   midi.NoteOnEvent(tick=0, channel=1, data=[47, 0]),
   midi.NoteOnEvent(tick=0, channel=1, data=[59, 0]),
   midi.NoteOnEvent(tick=0, channel=1, data=[28, 0]),
   midi.NoteOnEvent(tick=60, channel=1, data=[52, 39]),
   midi.NoteOnEvent(tick=0, channel=1, data=[40, 81]),
   midi.NoteOnEvent(tick=0, channel=1, data=[47, 47]),
   midi.NoteOnEvent(tick=0, channel=1, data=[28, 107]),
   midi.NoteOnEvent(tick=0, channel=1, data=[59, 46]),
   midi.NoteOnEvent(tick=30, channel=1, data=[59, 0]),
   midi.NoteOnEvent(tick=0, channel=1, data=[47, 0]),
   midi.NoteOnEvent(tick=0, channel=1, data=[52, 0]),
   midi.NoteOnEvent(tick=0, channel=1, data=[40, 0]),
   midi.NoteOnEvent(tick=0, channel=1, data=[28, 0]),
   midi.NoteOnEvent(tick=60, channel=1, data=[47, 75]),
   midi.NoteOnEvent(tick=0, channel=1, data=[28, 123]),
   midi.NoteOnEvent(tick=0, channel=1, data=[40, 96]),
   midi.NoteOnEvent(tick=0, channel=1, data=[59, 64]),
   midi.NoteOnEvent(tick=30, channel=1, data=[59, 0]),
   midi.NoteOnEvent(tick=0, channel=1, data=[47, 0]),
   midi.NoteOnEvent(tick=0, channel=1, data=[28, 0]),
   midi.NoteOnEvent(tick=0, channel=1, data=[40, 0]),
   midi.NoteOnEvent(tick=60, channel=1, data=[59, 53]),
   midi.NoteOnEvent(tick=0, channel=1, data=[40, 103]),
   midi.NoteOnEvent(tick=0, channel=1, data=[28, 114]),
   midi.NoteOnEvent(tick=0, channel=1, data=[47, 54]),
   midi.NoteOnEvent(tick=30, channel=1, data=[47, 0]),
   midi.NoteOnEvent(tick=0, channel=1, data=[59, 0]),
   midi.NoteOnEvent(tick=0, channel=1, data=[40, 0]),
   midi.NoteOnEvent(tick=0, channel=1, data=[28, 0]),
   midi.NoteOnEvent(tick=60, channel=1, data=[32, 123]),
   midi.NoteOnEvent(tick=0, channel=1, data=[44, 110]),
   midi.NoteOnEvent(tick=0, channel=1, data=[51, 58]),
   midi.NoteOnEvent(tick=0, channel=1, data=[63, 71]),
   midi.NoteOnEvent(tick=30, channel=1, data=[63, 0]),
   midi.NoteOnEvent(tick=0, channel=1, data=[32, 0]),
   midi.NoteOnEvent(tick=0, channel=1, data=[44, 0]),
   midi.NoteOnEvent(tick=0, channel=1, data=[51, 0]),
   midi.NoteOnEvent(tick=60, channel=1, data=[32, 126]),
   midi.NoteOnEvent(tick=0, channel=1, data=[44, 107]),
   midi.NoteOnEvent(tick=0, channel=1, data=[51, 58]),
   midi.NoteOnEvent(tick=0, channel=1, data=[63, 63]),
   midi.NoteOnEvent(tick=30, channel=1, data=[63, 0]),
   midi.NoteOnEvent(tick=0, channel=1, data=[32, 0]),
   midi.NoteOnEvent(tick=0, channel=1, data=[44, 0]),
   midi.NoteOnEvent(tick=0, channel=1, data=[51, 0]),
   midi.NoteOnEvent(tick=60, channel=1, data=[44, 70]),
   midi.NoteOnEvent(tick=0, channel=1, data=[25, 119]),
   midi.NoteOnEvent(tick=0, channel=1, data=[56, 51]),
   midi.NoteOnEvent(tick=0, channel=1, data=[37, 82]),
   midi.NoteOnEvent(tick=30, channel=1, data=[37, 0]),
   midi.NoteOnEvent(tick=0, channel=1, data=[44, 0]),
   midi.NoteOnEvent(tick=0, channel=1, data=[25, 0]),
   midi.NoteOnEvent(tick=0, channel=1, data=[56, 0]),
   midi.NoteOnEvent(tick=30, channel=1, data=[47, 63]),
   midi.NoteOnEvent(tick=0, channel=1, data=[56, 46]),
   midi.NoteOnEvent(tick=0, channel=1, data=[59, 57]),
   midi.NoteOnEvent(tick=0, channel=1, data=[40, 57]),
   midi.NoteOnEvent(tick=0, channel=1, data=[28, 114]),
   midi.NoteOnEvent(tick=30, channel=1, data=[28, 0]),
   midi.NoteOnEvent(tick=0, channel=1, data=[59, 0]),
   midi.NoteOnEvent(tick=0, channel=1, data=[47, 0]),
   midi.NoteOnEvent(tick=0, channel=1, data=[56, 0]),
   midi.NoteOnEvent(tick=0, channel=1, data=[40, 0]),
   midi.NoteOnEvent(tick=60, channel=1, data=[59, 63]),
   midi.NoteOnEvent(tick=0, channel=1, data=[47, 75]),
   midi.NoteOnEvent(tick=0, channel=1, data=[40, 105]),
   midi.NoteOnEvent(tick=0, channel=1, data=[28, 121]),
   midi.NoteOnEvent(tick=30, channel=1, data=[28, 0]),
   midi.NoteOnEvent(tick=0, channel=1, data=[59, 0]),
   midi.NoteOnEvent(tick=0, channel=1, data=[47, 0]),
   midi.NoteOnEvent(tick=0, channel=1, data=[40, 0]),
   midi.NoteOnEvent(tick=60, channel=1, data=[42, 78]),
   midi.NoteOnEvent(tick=0, channel=1, data=[54, 40]),
   midi.NoteOnEvent(tick=0, channel=1, data=[61, 51]),
   midi.NoteOnEvent(tick=0, channel=1, data=[49, 43]),
   midi.NoteOnEvent(tick=0, channel=1, data=[30, 109]),
   midi.NoteOnEvent(tick=30, channel=1, data=[30, 0]),
   midi.NoteOnEvent(tick=0, channel=1, data=[61, 0]),
   midi.NoteOnEvent(tick=0, channel=1, data=[42, 0]),
   midi.NoteOnEvent(tick=0, channel=1, data=[54, 0]),
   midi.NoteOnEvent(tick=0, channel=1, data=[49, 0]),
   midi.NoteOnEvent(tick=60, channel=1, data=[49, 49]),
   midi.NoteOnEvent(tick=0, channel=1, data=[42, 96]),
   midi.NoteOnEvent(tick=0, channel=1, data=[30, 119]),
   midi.NoteOnEvent(tick=30, channel=1, data=[30, 0]),
   midi.NoteOnEvent(tick=0, channel=1, data=[42, 0]),
   midi.NoteOnEvent(tick=0, channel=1, data=[49, 0]),
   midi.NoteOnEvent(tick=60, channel=1, data=[42, 107]),
   midi.NoteOnEvent(tick=0, channel=1, data=[49, 74]),
   midi.NoteOnEvent(tick=0, channel=1, data=[30, 127]),
   midi.NoteOnEvent(tick=30, channel=1, data=[30, 0]),
   midi.NoteOnEvent(tick=0, channel=1, data=[49, 0]),
   midi.NoteOnEvent(tick=0, channel=1, data=[42, 0]),
   midi.NoteOnEvent(tick=60, channel=1, data=[42, 110]),
   midi.NoteOnEvent(tick=0, channel=1, data=[30, 112]),
   midi.NoteOnEvent(tick=0, channel=1, data=[49, 46]),
   midi.NoteOnEvent(tick=30, channel=1, data=[49, 0]),
   midi.NoteOnEvent(tick=0, channel=1, data=[30, 0]),
   midi.NoteOnEvent(tick=0, channel=1, data=[42, 0]),
   midi.NoteOnEvent(tick=60, channel=1, data=[30, 120]),
   midi.NoteOnEvent(tick=0, channel=1, data=[42, 105]),
   midi.NoteOnEvent(tick=0, channel=1, data=[49, 56]),
   midi.NoteOnEvent(tick=30, channel=1, data=[49, 0]),
   midi.NoteOnEvent(tick=0, channel=1, data=[42, 0]),
   midi.NoteOnEvent(tick=0, channel=1, data=[30, 0]),
   midi.NoteOnEvent(tick=30, channel=1, data=[51, 63]),
   midi.NoteOnEvent(tick=0, channel=1, data=[44, 95]),
   midi.NoteOnEvent(tick=0, channel=1, data=[32, 127]),
   midi.NoteOnEvent(tick=30, channel=1, data=[32, 0]),
   midi.NoteOnEvent(tick=0, channel=1, data=[44, 0]),
   midi.NoteOnEvent(tick=0, channel=1, data=[51, 0]),
   midi.NoteOnEvent(tick=0, channel=1, data=[30, 119]),
   midi.NoteOnEvent(tick=0, channel=1, data=[42, 107]),
   midi.NoteOnEvent(tick=30, channel=1, data=[42, 0]),
   midi.NoteOnEvent(tick=0, channel=1, data=[30, 0]),
   midi.NoteOnEvent(tick=0, channel=1, data=[28, 116]),
   midi.NoteOnEvent(tick=0, channel=1, data=[47, 46]),
   midi.NoteOnEvent(tick=0, channel=1, data=[40, 78]),
   midi.NoteOnEvent(tick=0, channel=1, data=[59, 57]),
   midi.NoteOnEvent(tick=0, channel=1, data=[52, 44]),
   midi.NoteOnEvent(tick=30, channel=1, data=[52, 0]),
   midi.NoteOnEvent(tick=0, channel=1, data=[40, 0]),
   midi.NoteOnEvent(tick=0, channel=1, data=[28, 0]),
   midi.NoteOnEvent(tick=0, channel=1, data=[47, 0]),
   midi.NoteOnEvent(tick=0, channel=1, data=[59, 0]),
   midi.NoteOnEvent(tick=30, channel=1, data=[44, 64]),
   midi.NoteOnEvent(tick=0, channel=1, data=[56, 46]),
   midi.NoteOnEvent(tick=0, channel=1, data=[37, 93]),
   midi.NoteOnEvent(tick=0, channel=1, data=[25, 112]),
   midi.NoteOnEvent(tick=30, channel=1, data=[25, 0]),
   midi.NoteOnEvent(tick=0, channel=1, data=[44, 0]),
   midi.NoteOnEvent(tick=0, channel=1, data=[56, 0]),
   midi.NoteOnEvent(tick=0, channel=1, data=[37, 0]),
   midi.NoteOnEvent(tick=60, channel=1, data=[56, 71]),
   midi.NoteOnEvent(tick=0, channel=1, data=[56, 0]),
   midi.NoteOnEvent(tick=0, channel=1, data=[37, 106]),
   midi.NoteOnEvent(tick=0, channel=1, data=[37, 0]),
   midi.NoteOnEvent(tick=0, channel=1, data=[44, 79]),
   midi.NoteOnEvent(tick=0, channel=1, data=[44, 0]),
   midi.NoteOnEvent(tick=0, channel=1, data=[25, 120]),
   midi.NoteOnEvent(tick=0, channel=1, data=[25, 0]),
   midi.NoteOnEvent(tick=60, channel=1, data=[37, 106]),
   midi.NoteOnEvent(tick=0, channel=1, data=[37, 0]),
   midi.NoteOnEvent(tick=0, channel=1, data=[25, 120]),
   midi.NoteOnEvent(tick=0, channel=1, data=[25, 0]),
   midi.NoteOnEvent(tick=0, channel=1, data=[56, 71]),
   midi.NoteOnEvent(tick=0, channel=1, data=[56, 0]),
   midi.NoteOnEvent(tick=0, channel=1, data=[44, 79]),
   midi.NoteOnEvent(tick=0, channel=1, data=[44, 0]),
   midi.NoteOnEvent(tick=30, channel=1, data=[32, 114]),
   midi.NoteOnEvent(tick=0, channel=1, data=[63, 57]),
   midi.NoteOnEvent(tick=0, channel=1, data=[44, 82]),
   midi.NoteOnEvent(tick=0, channel=1, data=[51, 51]),
   midi.NoteOnEvent(tick=30, channel=1, data=[51, 0]),
   midi.NoteOnEvent(tick=0, channel=1, data=[32, 0]),
   midi.NoteOnEvent(tick=0, channel=1, data=[63, 0]),
   midi.NoteOnEvent(tick=0, channel=1, data=[44, 0]),
   midi.NoteOnEvent(tick=30, channel=1, data=[42, 91]),
   midi.NoteOnEvent(tick=0, channel=1, data=[30, 113]),
   midi.NoteOnEvent(tick=0, channel=1, data=[49, 49]),
   midi.NoteOnEvent(tick=30, channel=1, data=[49, 0]),
   midi.NoteOnEvent(tick=0, channel=1, data=[30, 0]),
   midi.NoteOnEvent(tick=0, channel=1, data=[42, 0]),
   midi.NoteOnEvent(tick=60, channel=1, data=[49, 70]),
   midi.NoteOnEvent(tick=0, channel=1, data=[30, 127]),
   midi.NoteOnEvent(tick=0, channel=1, data=[42, 112]),
   midi.NoteOnEvent(tick=30, channel=1, data=[42, 0]),
   midi.NoteOnEvent(tick=0, channel=1, data=[30, 0]),
   midi.NoteOnEvent(tick=0, channel=1, data=[49, 0]),
   midi.NoteOnEvent(tick=60, channel=1, data=[39, 100]),
   midi.NoteOnEvent(tick=0, channel=1, data=[27, 110]),
   midi.NoteOnEvent(tick=0, channel=1, data=[46, 46]),
   midi.NoteOnEvent(tick=0, channel=1, data=[58, 50]),
   midi.NoteOnEvent(tick=30, channel=1, data=[58, 0]),
   midi.NoteOnEvent(tick=0, channel=1, data=[39, 0]),
   midi.NoteOnEvent(tick=0, channel=1, data=[27, 0]),
   midi.NoteOnEvent(tick=0, channel=1, data=[46, 0]),
   midi.NoteOnEvent(tick=60, channel=1, data=[46, 65]),
   midi.NoteOnEvent(tick=0, channel=1, data=[39, 81]),
   midi.NoteOnEvent(tick=0, channel=1, data=[27, 112]),
   midi.NoteOnEvent(tick=0, channel=1, data=[58, 47]),
   midi.NoteOnEvent(tick=30, channel=1, data=[58, 0]),
   midi.NoteOnEvent(tick=0, channel=1, data=[46, 0]),
   midi.NoteOnEvent(tick=0, channel=1, data=[39, 0]),
   midi.NoteOnEvent(tick=0, channel=1, data=[27, 0]),
   midi.NoteOnEvent(tick=60, channel=1, data=[47, 77]),
   midi.NoteOnEvent(tick=0, channel=1, data=[28, 127]),
   midi.NoteOnEvent(tick=0, channel=1, data=[40, 92]),
   midi.NoteOnEvent(tick=0, channel=1, data=[59, 72]),
   midi.NoteOnEvent(tick=30, channel=1, data=[59, 0]),
   midi.NoteOnEvent(tick=0, channel=1, data=[47, 0]),
   midi.NoteOnEvent(tick=0, channel=1, data=[28, 0]),
   midi.NoteOnEvent(tick=0, channel=1, data=[40, 0]),
   midi.NoteOnEvent(tick=60, channel=1, data=[59, 46]),
   midi.NoteOnEvent(tick=0, channel=1, data=[28, 107]),
   midi.NoteOnEvent(tick=0, channel=1, data=[40, 81]),
   midi.NoteOnEvent(tick=0, channel=1, data=[47, 47]),
   midi.NoteOnEvent(tick=0, channel=1, data=[52, 39]),
   midi.NoteOnEvent(tick=30, channel=1, data=[52, 0]),
   midi.NoteOnEvent(tick=0, channel=1, data=[40, 0]),
   midi.NoteOnEvent(tick=0, channel=1, data=[59, 0]),
   midi.NoteOnEvent(tick=0, channel=1, data=[28, 0]),
   midi.NoteOnEvent(tick=0, channel=1, data=[47, 0]),
   midi.NoteOnEvent(tick=60, channel=1, data=[59, 64]),
   midi.NoteOnEvent(tick=0, channel=1, data=[40, 96]),
   midi.NoteOnEvent(tick=0, channel=1, data=[28, 123]),
   midi.NoteOnEvent(tick=0, channel=1, data=[47, 75]),
   midi.NoteOnEvent(tick=30, channel=1, data=[47, 0]),
   midi.NoteOnEvent(tick=0, channel=1, data=[59, 0]),
   midi.NoteOnEvent(tick=0, channel=1, data=[40, 0]),
   midi.NoteOnEvent(tick=0, channel=1, data=[28, 0]),
   midi.NoteOnEvent(tick=150, channel=1, data=[51, 58]),
   midi.NoteOnEvent(tick=0, channel=1, data=[63, 71]),
   midi.NoteOnEvent(tick=0, channel=1, data=[44, 110]),
   midi.NoteOnEvent(tick=0, channel=1, data=[32, 123]),
   midi.NoteOnEvent(tick=30, channel=1, data=[32, 0]),
   midi.NoteOnEvent(tick=0, channel=1, data=[51, 0]),
   midi.NoteOnEvent(tick=0, channel=1, data=[63, 0]),
   midi.NoteOnEvent(tick=0, channel=1, data=[44, 0]),
   midi.NoteOnEvent(tick=60, channel=1, data=[63, 63]),
   midi.NoteOnEvent(tick=0, channel=1, data=[51, 58]),
   midi.NoteOnEvent(tick=0, channel=1, data=[32, 126]),
   midi.NoteOnEvent(tick=0, channel=1, data=[44, 107]),
   midi.NoteOnEvent(tick=30, channel=1, data=[44, 0]),
   midi.NoteOnEvent(tick=0, channel=1, data=[63, 0]),
   midi.NoteOnEvent(tick=0, channel=1, data=[51, 0]),
   midi.NoteOnEvent(tick=0, channel=1, data=[32, 0]),
   midi.NoteOnEvent(tick=60, channel=1, data=[25, 119]),
   midi.NoteOnEvent(tick=0, channel=1, data=[44, 70]),
   midi.NoteOnEvent(tick=0, channel=1, data=[37, 82]),
   midi.NoteOnEvent(tick=0, channel=1, data=[56, 51]),
   midi.NoteOnEvent(tick=30, channel=1, data=[56, 0]),
   midi.NoteOnEvent(tick=0, channel=1, data=[25, 0]),
   midi.NoteOnEvent(tick=0, channel=1, data=[44, 0]),
   midi.NoteOnEvent(tick=0, channel=1, data=[37, 0]),
   midi.NoteOnEvent(tick=30, channel=1, data=[56, 46]),
   midi.NoteOnEvent(tick=0, channel=1, data=[40, 57]),
   midi.NoteOnEvent(tick=0, channel=1, data=[59, 57]),
   midi.NoteOnEvent(tick=0, channel=1, data=[47, 63]),
   midi.NoteOnEvent(tick=0, channel=1, data=[28, 114]),
   midi.NoteOnEvent(tick=30, channel=1, data=[28, 0]),
   midi.NoteOnEvent(tick=0, channel=1, data=[59, 0]),
   midi.NoteOnEvent(tick=0, channel=1, data=[56, 0]),
   midi.NoteOnEvent(tick=0, channel=1, data=[40, 0]),
   midi.NoteOnEvent(tick=0, channel=1, data=[47, 0]),
   midi.NoteOnEvent(tick=60, channel=1, data=[47, 75]),
   midi.NoteOnEvent(tick=0, channel=1, data=[59, 63]),
   midi.NoteOnEvent(tick=0, channel=1, data=[28, 121]),
   midi.NoteOnEvent(tick=0, channel=1, data=[40, 105]),
   midi.NoteOnEvent(tick=30, channel=1, data=[40, 0]),
   midi.NoteOnEvent(tick=0, channel=1, data=[47, 0]),
   midi.NoteOnEvent(tick=0, channel=1, data=[59, 0]),
   midi.NoteOnEvent(tick=0, channel=1, data=[28, 0]),
   midi.NoteOnEvent(tick=60, channel=1, data=[42, 78]),
   midi.NoteOnEvent(tick=0, channel=1, data=[54, 40]),
   midi.NoteOnEvent(tick=0, channel=1, data=[49, 43]),
   midi.NoteOnEvent(tick=0, channel=1, data=[30, 109]),
   midi.NoteOnEvent(tick=0, channel=1, data=[61, 51]),
   midi.NoteOnEvent(tick=30, channel=1, data=[61, 0]),
   midi.NoteOnEvent(tick=0, channel=1, data=[49, 0]),
   midi.NoteOnEvent(tick=0, channel=1, data=[42, 0]),
   midi.NoteOnEvent(tick=0, channel=1, data=[54, 0]),
   midi.NoteOnEvent(tick=0, channel=1, data=[30, 0]),
   midi.NoteOnEvent(tick=60, channel=1, data=[30, 119]),
   midi.NoteOnEvent(tick=0, channel=1, data=[42, 96]),
   midi.NoteOnEvent(tick=0, channel=1, data=[49, 49]),
   midi.NoteOnEvent(tick=30, channel=1, data=[49, 0]),
   midi.NoteOnEvent(tick=0, channel=1, data=[42, 0]),
   midi.NoteOnEvent(tick=0, channel=1, data=[30, 0]),
   midi.NoteOnEvent(tick=60, channel=1, data=[49, 74]),
   midi.NoteOnEvent(tick=0, channel=1, data=[42, 107]),
   midi.NoteOnEvent(tick=0, channel=1, data=[30, 127]),
   midi.NoteOnEvent(tick=30, channel=1, data=[30, 0]),
   midi.NoteOnEvent(tick=0, channel=1, data=[42, 0]),
   midi.NoteOnEvent(tick=0, channel=1, data=[49, 0]),
   midi.NoteOnEvent(tick=60, channel=1, data=[30, 112]),
   midi.NoteOnEvent(tick=0, channel=1, data=[49, 46]),
   midi.NoteOnEvent(tick=0, channel=1, data=[42, 110]),
   midi.NoteOnEvent(tick=30, channel=1, data=[42, 0]),
   midi.NoteOnEvent(tick=0, channel=1, data=[49, 0]),
   midi.NoteOnEvent(tick=0, channel=1, data=[30, 0]),
   midi.NoteOnEvent(tick=60, channel=1, data=[30, 120]),
   midi.NoteOnEvent(tick=0, channel=1, data=[42, 105]),
   midi.NoteOnEvent(tick=0, channel=1, data=[49, 56]),
   midi.NoteOnEvent(tick=30, channel=1, data=[49, 0]),
   midi.NoteOnEvent(tick=0, channel=1, data=[42, 0]),
   midi.NoteOnEvent(tick=0, channel=1, data=[30, 0]),
   midi.NoteOnEvent(tick=30, channel=1, data=[51, 63]),
   midi.NoteOnEvent(tick=0, channel=1, data=[32, 127]),
   midi.NoteOnEvent(tick=0, channel=1, data=[44, 95]),
   midi.NoteOnEvent(tick=30, channel=1, data=[44, 0]),
   midi.NoteOnEvent(tick=0, channel=1, data=[32, 0]),
   midi.NoteOnEvent(tick=0, channel=1, data=[51, 0]),
   midi.NoteOnEvent(tick=0, channel=1, data=[42, 107]),
   midi.NoteOnEvent(tick=0, channel=1, data=[30, 119]),
   midi.NoteOnEvent(tick=30, channel=1, data=[30, 0]),
   midi.NoteOnEvent(tick=0, channel=1, data=[42, 0]),
   midi.NoteOnEvent(tick=0, channel=1, data=[28, 116]),
   midi.NoteOnEvent(tick=0, channel=1, data=[52, 44]),
   midi.NoteOnEvent(tick=0, channel=1, data=[47, 46]),
   midi.NoteOnEvent(tick=0, channel=1, data=[40, 78]),
   midi.NoteOnEvent(tick=0, channel=1, data=[59, 57]),
   midi.NoteOnEvent(tick=30, channel=1, data=[40, 0]),
   midi.NoteOnEvent(tick=0, channel=1, data=[47, 0]),
   midi.NoteOnEvent(tick=0, channel=1, data=[28, 0]),
   midi.NoteOnEvent(tick=0, channel=1, data=[52, 0]),
   midi.NoteOnEvent(tick=30, channel=1, data=[59, 0]),
   midi.NoteOnEvent(tick=0, channel=1, data=[25, 112]),
   midi.NoteOnEvent(tick=0, channel=1, data=[37, 93]),
   midi.NoteOnEvent(tick=0, channel=1, data=[44, 64]),
   midi.NoteOnEvent(tick=0, channel=1, data=[56, 46]),
   midi.NoteOnEvent(tick=30, channel=1, data=[56, 0]),
   midi.NoteOnEvent(tick=0, channel=1, data=[25, 0]),
   midi.NoteOnEvent(tick=0, channel=1, data=[37, 0]),
   midi.NoteOnEvent(tick=0, channel=1, data=[44, 0]),
   midi.NoteOnEvent(tick=60, channel=1, data=[25, 120]),
   midi.NoteOnEvent(tick=0, channel=1, data=[44, 79]),
   midi.NoteOnEvent(tick=0, channel=1, data=[56, 71]),
   midi.NoteOnEvent(tick=0, channel=1, data=[37, 106]),
   midi.NoteOnEvent(tick=30, channel=1, data=[37, 0]),
   midi.NoteOnEvent(tick=0, channel=1, data=[25, 0]),
   midi.NoteOnEvent(tick=0, channel=1, data=[44, 0]),
   midi.NoteOnEvent(tick=0, channel=1, data=[56, 0]),
   midi.NoteOnEvent(tick=60, channel=1, data=[44, 82]),
   midi.NoteOnEvent(tick=0, channel=1, data=[51, 51]),
   midi.NoteOnEvent(tick=0, channel=1, data=[63, 57]),
   midi.NoteOnEvent(tick=0, channel=1, data=[32, 114]),
   midi.NoteOnEvent(tick=30, channel=1, data=[32, 0]),
   midi.NoteOnEvent(tick=0, channel=1, data=[44, 0]),
   midi.NoteOnEvent(tick=0, channel=1, data=[51, 0]),
   midi.NoteOnEvent(tick=0, channel=1, data=[63, 0]),
   midi.NoteOnEvent(tick=30, channel=1, data=[30, 113]),
   midi.NoteOnEvent(tick=0, channel=1, data=[49, 49]),
   midi.NoteOnEvent(tick=0, channel=1, data=[42, 91]),
   midi.NoteOnEvent(tick=30, channel=1, data=[42, 0]),
   midi.NoteOnEvent(tick=0, channel=1, data=[49, 0]),
   midi.NoteOnEvent(tick=0, channel=1, data=[30, 0]),
   midi.NoteOnEvent(tick=60, channel=1, data=[42, 112]),
   midi.NoteOnEvent(tick=0, channel=1, data=[49, 70]),
   midi.NoteOnEvent(tick=0, channel=1, data=[30, 127]),
   midi.NoteOnEvent(tick=30, channel=1, data=[30, 0]),
   midi.NoteOnEvent(tick=0, channel=1, data=[49, 0]),
   midi.NoteOnEvent(tick=0, channel=1, data=[42, 0]),
   midi.NoteOnEvent(tick=60, channel=1, data=[46, 46]),
   midi.NoteOnEvent(tick=0, channel=1, data=[39, 100]),
   midi.NoteOnEvent(tick=0, channel=1, data=[58, 50]),
   midi.NoteOnEvent(tick=0, channel=1, data=[27, 110]),
   midi.NoteOnEvent(tick=30, channel=1, data=[27, 0]),
   midi.NoteOnEvent(tick=0, channel=1, data=[46, 0]),
   midi.NoteOnEvent(tick=0, channel=1, data=[39, 0]),
   midi.NoteOnEvent(tick=0, channel=1, data=[58, 0]),
   midi.NoteOnEvent(tick=60, channel=1, data=[39, 81]),
   midi.NoteOnEvent(tick=0, channel=1, data=[27, 112]),
   midi.NoteOnEvent(tick=0, channel=1, data=[46, 65]),
   midi.NoteOnEvent(tick=0, channel=1, data=[58, 47]),
   midi.NoteOnEvent(tick=30, channel=1, data=[58, 0]),
   midi.NoteOnEvent(tick=0, channel=1, data=[39, 0]),
   midi.NoteOnEvent(tick=0, channel=1, data=[27, 0]),
   midi.NoteOnEvent(tick=0, channel=1, data=[46, 0]),
   midi.NoteOnEvent(tick=60, channel=1, data=[47, 77]),
   midi.NoteOnEvent(tick=0, channel=1, data=[59, 72]),
   midi.NoteOnEvent(tick=0, channel=1, data=[28, 127]),
   midi.NoteOnEvent(tick=0, channel=1, data=[40, 92]),
   midi.NoteOnEvent(tick=30, channel=1, data=[40, 0]),
   midi.NoteOnEvent(tick=0, channel=1, data=[47, 0]),
   midi.NoteOnEvent(tick=0, channel=1, data=[59, 0]),
   midi.NoteOnEvent(tick=0, channel=1, data=[28, 0]),
   midi.NoteOnEvent(tick=60, channel=1, data=[52, 39]),
   midi.NoteOnEvent(tick=0, channel=1, data=[40, 81]),
   midi.NoteOnEvent(tick=0, channel=1, data=[47, 47]),
   midi.NoteOnEvent(tick=0, channel=1, data=[28, 107]),
   midi.NoteOnEvent(tick=0, channel=1, data=[59, 46]),
   midi.NoteOnEvent(tick=30, channel=1, data=[59, 0]),
   midi.NoteOnEvent(tick=0, channel=1, data=[47, 0]),
   midi.NoteOnEvent(tick=0, channel=1, data=[52, 0]),
   midi.NoteOnEvent(tick=0, channel=1, data=[40, 0]),
   midi.NoteOnEvent(tick=0, channel=1, data=[28, 0]),
   midi.NoteOnEvent(tick=60, channel=1, data=[47, 75]),
   midi.NoteOnEvent(tick=0, channel=1, data=[28, 123]),
   midi.NoteOnEvent(tick=0, channel=1, data=[40, 96]),
   midi.NoteOnEvent(tick=0, channel=1, data=[59, 64]),
   midi.NoteOnEvent(tick=30, channel=1, data=[59, 0]),
   midi.NoteOnEvent(tick=0, channel=1, data=[47, 0]),
   midi.NoteOnEvent(tick=0, channel=1, data=[28, 0]),
   midi.NoteOnEvent(tick=0, channel=1, data=[40, 0]),
   midi.NoteOnEvent(tick=60, channel=1, data=[59, 53]),
   midi.NoteOnEvent(tick=0, channel=1, data=[40, 103]),
   midi.NoteOnEvent(tick=0, channel=1, data=[28, 114]),
   midi.NoteOnEvent(tick=0, channel=1, data=[47, 54]),
   midi.NoteOnEvent(tick=30, channel=1, data=[47, 0]),
   midi.NoteOnEvent(tick=0, channel=1, data=[59, 0]),
   midi.NoteOnEvent(tick=0, channel=1, data=[40, 0]),
   midi.NoteOnEvent(tick=0, channel=1, data=[28, 0]),
   midi.NoteOnEvent(tick=60, channel=1, data=[32, 123]),
   midi.NoteOnEvent(tick=0, channel=1, data=[44, 110]),
   midi.NoteOnEvent(tick=0, channel=1, data=[51, 58]),
   midi.NoteOnEvent(tick=0, channel=1, data=[63, 71]),
   midi.NoteOnEvent(tick=30, channel=1, data=[63, 0]),
   midi.NoteOnEvent(tick=0, channel=1, data=[32, 0]),
   midi.NoteOnEvent(tick=0, channel=1, data=[44, 0]),
   midi.NoteOnEvent(tick=0, channel=1, data=[51, 0]),
   midi.NoteOnEvent(tick=60, channel=1, data=[32, 126]),
   midi.NoteOnEvent(tick=0, channel=1, data=[44, 107]),
   midi.NoteOnEvent(tick=0, channel=1, data=[51, 58]),
   midi.NoteOnEvent(tick=0, channel=1, data=[63, 63]),
   midi.NoteOnEvent(tick=30, channel=1, data=[63, 0]),
   midi.NoteOnEvent(tick=0, channel=1, data=[32, 0]),
   midi.NoteOnEvent(tick=0, channel=1, data=[44, 0]),
   midi.NoteOnEvent(tick=0, channel=1, data=[51, 0]),
   midi.NoteOnEvent(tick=60, channel=1, data=[44, 70]),
   midi.NoteOnEvent(tick=0, channel=1, data=[25, 119]),
   midi.NoteOnEvent(tick=0, channel=1, data=[56, 51]),
   midi.NoteOnEvent(tick=0, channel=1, data=[37, 82]),
   midi.NoteOnEvent(tick=30, channel=1, data=[37, 0]),
   midi.NoteOnEvent(tick=0, channel=1, data=[44, 0]),
   midi.NoteOnEvent(tick=0, channel=1, data=[25, 0]),
   midi.NoteOnEvent(tick=0, channel=1, data=[56, 0]),
   midi.NoteOnEvent(tick=30, channel=1, data=[47, 63]),
   midi.NoteOnEvent(tick=0, channel=1, data=[56, 46]),
   midi.NoteOnEvent(tick=0, channel=1, data=[59, 57]),
   midi.NoteOnEvent(tick=0, channel=1, data=[40, 57]),
   midi.NoteOnEvent(tick=0, channel=1, data=[28, 114]),
   midi.NoteOnEvent(tick=30, channel=1, data=[28, 0]),
   midi.NoteOnEvent(tick=0, channel=1, data=[59, 0]),
   midi.NoteOnEvent(tick=0, channel=1, data=[47, 0]),
   midi.NoteOnEvent(tick=0, channel=1, data=[56, 0]),
   midi.NoteOnEvent(tick=0, channel=1, data=[40, 0]),
   midi.NoteOnEvent(tick=60, channel=1, data=[59, 63]),
   midi.NoteOnEvent(tick=0, channel=1, data=[47, 75]),
   midi.NoteOnEvent(tick=0, channel=1, data=[40, 105]),
   midi.NoteOnEvent(tick=0, channel=1, data=[28, 121]),
   midi.NoteOnEvent(tick=30, channel=1, data=[28, 0]),
   midi.NoteOnEvent(tick=0, channel=1, data=[59, 0]),
   midi.NoteOnEvent(tick=0, channel=1, data=[47, 0]),
   midi.NoteOnEvent(tick=0, channel=1, data=[40, 0]),
   midi.NoteOnEvent(tick=60, channel=1, data=[42, 78]),
   midi.NoteOnEvent(tick=0, channel=1, data=[54, 40]),
   midi.NoteOnEvent(tick=0, channel=1, data=[61, 51]),
   midi.NoteOnEvent(tick=0, channel=1, data=[49, 43]),
   midi.NoteOnEvent(tick=0, channel=1, data=[30, 109]),
   midi.NoteOnEvent(tick=30, channel=1, data=[30, 0]),
   midi.NoteOnEvent(tick=0, channel=1, data=[61, 0]),
   midi.NoteOnEvent(tick=0, channel=1, data=[42, 0]),
   midi.NoteOnEvent(tick=0, channel=1, data=[54, 0]),
   midi.NoteOnEvent(tick=0, channel=1, data=[49, 0]),
   midi.NoteOnEvent(tick=60, channel=1, data=[49, 49]),
   midi.NoteOnEvent(tick=0, channel=1, data=[42, 96]),
   midi.NoteOnEvent(tick=0, channel=1, data=[30, 119]),
   midi.NoteOnEvent(tick=30, channel=1, data=[30, 0]),
   midi.NoteOnEvent(tick=0, channel=1, data=[42, 0]),
   midi.NoteOnEvent(tick=0, channel=1, data=[49, 0]),
   midi.NoteOnEvent(tick=60, channel=1, data=[42, 107]),
   midi.NoteOnEvent(tick=0, channel=1, data=[49, 74]),
   midi.NoteOnEvent(tick=0, channel=1, data=[30, 127]),
   midi.NoteOnEvent(tick=30, channel=1, data=[30, 0]),
   midi.NoteOnEvent(tick=0, channel=1, data=[49, 0]),
   midi.NoteOnEvent(tick=0, channel=1, data=[42, 0]),
   midi.NoteOnEvent(tick=60, channel=1, data=[42, 110]),
   midi.NoteOnEvent(tick=0, channel=1, data=[30, 112]),
   midi.NoteOnEvent(tick=0, channel=1, data=[49, 46]),
   midi.NoteOnEvent(tick=30, channel=1, data=[49, 0]),
   midi.NoteOnEvent(tick=0, channel=1, data=[30, 0]),
   midi.NoteOnEvent(tick=0, channel=1, data=[42, 0]),
   midi.NoteOnEvent(tick=60, channel=1, data=[30, 120]),
   midi.NoteOnEvent(tick=0, channel=1, data=[42, 105]),
   midi.NoteOnEvent(tick=0, channel=1, data=[49, 56]),
   midi.NoteOnEvent(tick=30, channel=1, data=[49, 0]),
   midi.NoteOnEvent(tick=0, channel=1, data=[42, 0]),
   midi.NoteOnEvent(tick=0, channel=1, data=[30, 0]),
   midi.NoteOnEvent(tick=30, channel=1, data=[51, 63]),
   midi.NoteOnEvent(tick=0, channel=1, data=[44, 95]),
   midi.NoteOnEvent(tick=0, channel=1, data=[32, 127]),
   midi.NoteOnEvent(tick=30, channel=1, data=[32, 0]),
   midi.NoteOnEvent(tick=0, channel=1, data=[44, 0]),
   midi.NoteOnEvent(tick=0, channel=1, data=[51, 0]),
   midi.NoteOnEvent(tick=0, channel=1, data=[30, 119]),
   midi.NoteOnEvent(tick=0, channel=1, data=[42, 107]),
   midi.NoteOnEvent(tick=30, channel=1, data=[42, 0]),
   midi.NoteOnEvent(tick=0, channel=1, data=[30, 0]),
   midi.NoteOnEvent(tick=0, channel=1, data=[28, 116]),
   midi.NoteOnEvent(tick=0, channel=1, data=[47, 46]),
   midi.NoteOnEvent(tick=0, channel=1, data=[40, 78]),
   midi.NoteOnEvent(tick=0, channel=1, data=[59, 57]),
   midi.NoteOnEvent(tick=0, channel=1, data=[52, 44]),
   midi.NoteOnEvent(tick=30, channel=1, data=[52, 0]),
   midi.NoteOnEvent(tick=0, channel=1, data=[40, 0]),
   midi.NoteOnEvent(tick=0, channel=1, data=[28, 0]),
   midi.NoteOnEvent(tick=0, channel=1, data=[47, 0]),
   midi.NoteOnEvent(tick=0, channel=1, data=[59, 0]),
   midi.NoteOnEvent(tick=30, channel=1, data=[44, 64]),
   midi.NoteOnEvent(tick=0, channel=1, data=[56, 46]),
   midi.NoteOnEvent(tick=0, channel=1, data=[37, 93]),
   midi.NoteOnEvent(tick=0, channel=1, data=[25, 112]),
   midi.NoteOnEvent(tick=30, channel=1, data=[25, 0]),
   midi.NoteOnEvent(tick=0, channel=1, data=[44, 0]),
   midi.NoteOnEvent(tick=0, channel=1, data=[56, 0]),
   midi.NoteOnEvent(tick=0, channel=1, data=[37, 0]),
   midi.NoteOnEvent(tick=60, channel=1, data=[56, 71]),
   midi.NoteOnEvent(tick=0, channel=1, data=[56, 0]),
   midi.NoteOnEvent(tick=0, channel=1, data=[37, 106]),
   midi.NoteOnEvent(tick=0, channel=1, data=[37, 0]),
   midi.NoteOnEvent(tick=0, channel=1, data=[44, 79]),
   midi.NoteOnEvent(tick=0, channel=1, data=[44, 0]),
   midi.NoteOnEvent(tick=0, channel=1, data=[25, 120]),
   midi.NoteOnEvent(tick=0, channel=1, data=[25, 0]),
   midi.NoteOnEvent(tick=60, channel=1, data=[37, 106]),
   midi.NoteOnEvent(tick=0, channel=1, data=[37, 0]),
   midi.NoteOnEvent(tick=0, channel=1, data=[25, 120]),
   midi.NoteOnEvent(tick=0, channel=1, data=[25, 0]),
   midi.NoteOnEvent(tick=0, channel=1, data=[56, 71]),
   midi.NoteOnEvent(tick=0, channel=1, data=[56, 0]),
   midi.NoteOnEvent(tick=0, channel=1, data=[44, 79]),
   midi.NoteOnEvent(tick=0, channel=1, data=[44, 0]),
   midi.NoteOnEvent(tick=30, channel=1, data=[32, 114]),
   midi.NoteOnEvent(tick=0, channel=1, data=[63, 57]),
   midi.NoteOnEvent(tick=0, channel=1, data=[44, 82]),
   midi.NoteOnEvent(tick=0, channel=1, data=[51, 51]),
   midi.NoteOnEvent(tick=30, channel=1, data=[51, 0]),
   midi.NoteOnEvent(tick=0, channel=1, data=[32, 0]),
   midi.NoteOnEvent(tick=0, channel=1, data=[63, 0]),
   midi.NoteOnEvent(tick=0, channel=1, data=[44, 0]),
   midi.NoteOnEvent(tick=30, channel=1, data=[42, 91]),
   midi.NoteOnEvent(tick=0, channel=1, data=[30, 113]),
   midi.NoteOnEvent(tick=0, channel=1, data=[49, 49]),
   midi.NoteOnEvent(tick=30, channel=1, data=[49, 0]),
   midi.NoteOnEvent(tick=0, channel=1, data=[30, 0]),
   midi.NoteOnEvent(tick=0, channel=1, data=[42, 0]),
   midi.NoteOnEvent(tick=60, channel=1, data=[49, 70]),
   midi.NoteOnEvent(tick=0, channel=1, data=[30, 127]),
   midi.NoteOnEvent(tick=0, channel=1, data=[42, 112]),
   midi.NoteOnEvent(tick=30, channel=1, data=[42, 0]),
   midi.NoteOnEvent(tick=0, channel=1, data=[30, 0]),
   midi.NoteOnEvent(tick=0, channel=1, data=[49, 0]),
   midi.NoteOnEvent(tick=60, channel=1, data=[39, 100]),
   midi.NoteOnEvent(tick=0, channel=1, data=[27, 110]),
   midi.NoteOnEvent(tick=0, channel=1, data=[46, 46]),
   midi.NoteOnEvent(tick=0, channel=1, data=[58, 50]),
   midi.NoteOnEvent(tick=30, channel=1, data=[58, 0]),
   midi.NoteOnEvent(tick=0, channel=1, data=[39, 0]),
   midi.NoteOnEvent(tick=0, channel=1, data=[27, 0]),
   midi.NoteOnEvent(tick=0, channel=1, data=[46, 0]),
   midi.NoteOnEvent(tick=60, channel=1, data=[46, 65]),
   midi.NoteOnEvent(tick=0, channel=1, data=[39, 81]),
   midi.NoteOnEvent(tick=0, channel=1, data=[27, 112]),
   midi.NoteOnEvent(tick=0, channel=1, data=[58, 47]),
   midi.NoteOnEvent(tick=30, channel=1, data=[58, 0]),
   midi.NoteOnEvent(tick=0, channel=1, data=[46, 0]),
   midi.NoteOnEvent(tick=0, channel=1, data=[39, 0]),
   midi.NoteOnEvent(tick=0, channel=1, data=[27, 0]),
   midi.NoteOnEvent(tick=60, channel=1, data=[47, 77]),
   midi.NoteOnEvent(tick=0, channel=1, data=[28, 127]),
   midi.NoteOnEvent(tick=0, channel=1, data=[40, 92]),
   midi.NoteOnEvent(tick=0, channel=1, data=[59, 72]),
   midi.NoteOnEvent(tick=30, channel=1, data=[59, 0]),
   midi.NoteOnEvent(tick=0, channel=1, data=[47, 0]),
   midi.NoteOnEvent(tick=0, channel=1, data=[28, 0]),
   midi.NoteOnEvent(tick=0, channel=1, data=[40, 0]),
   midi.NoteOnEvent(tick=60, channel=1, data=[59, 46]),
   midi.NoteOnEvent(tick=0, channel=1, data=[28, 107]),
   midi.NoteOnEvent(tick=0, channel=1, data=[40, 81]),
   midi.NoteOnEvent(tick=0, channel=1, data=[47, 47]),
   midi.NoteOnEvent(tick=0, channel=1, data=[52, 39]),
   midi.NoteOnEvent(tick=30, channel=1, data=[52, 0]),
   midi.NoteOnEvent(tick=0, channel=1, data=[40, 0]),
   midi.NoteOnEvent(tick=0, channel=1, data=[59, 0]),
   midi.NoteOnEvent(tick=0, channel=1, data=[28, 0]),
   midi.NoteOnEvent(tick=0, channel=1, data=[47, 0]),
   midi.NoteOnEvent(tick=60, channel=1, data=[59, 64]),
   midi.NoteOnEvent(tick=0, channel=1, data=[40, 96]),
   midi.NoteOnEvent(tick=0, channel=1, data=[28, 123]),
   midi.NoteOnEvent(tick=0, channel=1, data=[47, 75]),
   midi.NoteOnEvent(tick=30, channel=1, data=[47, 0]),
   midi.NoteOnEvent(tick=0, channel=1, data=[59, 0]),
   midi.NoteOnEvent(tick=0, channel=1, data=[40, 0]),
   midi.NoteOnEvent(tick=0, channel=1, data=[28, 0]),
   midi.NoteOnEvent(tick=150, channel=1, data=[47, 77]),
   midi.NoteOnEvent(tick=0, channel=1, data=[40, 92]),
   midi.NoteOnEvent(tick=30, channel=1, data=[40, 0]),
   midi.NoteOnEvent(tick=0, channel=1, data=[47, 0]),
   midi.NoteOnEvent(tick=60, channel=1, data=[40, 81]),
   midi.NoteOnEvent(tick=0, channel=1, data=[47, 47]),
   midi.NoteOnEvent(tick=0, channel=1, data=[52, 39]),
   midi.NoteOnEvent(tick=30, channel=1, data=[52, 0]),
   midi.NoteOnEvent(tick=0, channel=1, data=[47, 0]),
   midi.NoteOnEvent(tick=0, channel=1, data=[40, 0]),
   midi.NoteOnEvent(tick=60, channel=1, data=[40, 96]),
   midi.NoteOnEvent(tick=0, channel=1, data=[47, 75]),
   midi.NoteOnEvent(tick=30, channel=1, data=[47, 0]),
   midi.NoteOnEvent(tick=0, channel=1, data=[40, 0]),
   midi.NoteOnEvent(tick=30, channel=1, data=[42, 91]),
   midi.NoteOnEvent(tick=0, channel=1, data=[49, 49]),
   midi.NoteOnEvent(tick=0, channel=1, data=[30, 113]),
   midi.NoteOnEvent(tick=30, channel=1, data=[30, 0]),
   midi.NoteOnEvent(tick=0, channel=1, data=[49, 0]),
   midi.NoteOnEvent(tick=0, channel=1, data=[42, 0]),
   midi.NoteOnEvent(tick=60, channel=1, data=[49, 70]),
   midi.NoteOnEvent(tick=0, channel=1, data=[30, 127]),
   midi.NoteOnEvent(tick=0, channel=1, data=[42, 112]),
   midi.NoteOnEvent(tick=30, channel=1, data=[42, 0]),
   midi.NoteOnEvent(tick=0, channel=1, data=[30, 0]),
   midi.NoteOnEvent(tick=0, channel=1, data=[49, 0]),
   midi.NoteOnEvent(tick=60, channel=1, data=[63, 71]),
   midi.NoteOnEvent(tick=0, channel=1, data=[44, 110]),
   midi.NoteOnEvent(tick=0, channel=1, data=[51, 58]),
   midi.NoteOnEvent(tick=0, channel=1, data=[32, 123]),
   midi.NoteOnEvent(tick=30, channel=1, data=[32, 0]),
   midi.NoteOnEvent(tick=0, channel=1, data=[63, 0]),
   midi.NoteOnEvent(tick=0, channel=1, data=[44, 0]),
   midi.NoteOnEvent(tick=0, channel=1, data=[51, 0]),
   midi.NoteOnEvent(tick=60, channel=1, data=[32, 126]),
   midi.NoteOnEvent(tick=0, channel=1, data=[44, 107]),
   midi.NoteOnEvent(tick=0, channel=1, data=[63, 63]),
   midi.NoteOnEvent(tick=0, channel=1, data=[51, 58]),
   midi.NoteOnEvent(tick=30, channel=1, data=[51, 0]),
   midi.NoteOnEvent(tick=0, channel=1, data=[32, 0]),
   midi.NoteOnEvent(tick=0, channel=1, data=[44, 0]),
   midi.NoteOnEvent(tick=0, channel=1, data=[63, 0]),
   midi.NoteOnEvent(tick=60, channel=1, data=[44, 70]),
   midi.NoteOnEvent(tick=0, channel=1, data=[25, 119]),
   midi.NoteOnEvent(tick=0, channel=1, data=[51, 51]),
   midi.NoteOnEvent(tick=0, channel=1, data=[32, 82]),
   midi.NoteOnEvent(tick=30, channel=1, data=[32, 0]),
   midi.NoteOnEvent(tick=0, channel=1, data=[44, 0]),
   midi.NoteOnEvent(tick=0, channel=1, data=[25, 0]),
   midi.NoteOnEvent(tick=0, channel=1, data=[51, 0]),
   midi.NoteOnEvent(tick=60, channel=1, data=[51, 58]),
   midi.NoteOnEvent(tick=0, channel=1, data=[63, 71]),
   midi.NoteOnEvent(tick=0, channel=1, data=[32, 123]),
   midi.NoteOnEvent(tick=0, channel=1, data=[44, 110]),
   midi.NoteOnEvent(tick=30, channel=1, data=[44, 0]),
   midi.NoteOnEvent(tick=0, channel=1, data=[51, 0]),
   midi.NoteOnEvent(tick=0, channel=1, data=[63, 0]),
   midi.NoteOnEvent(tick=0, channel=1, data=[32, 0]),
   midi.NoteOnEvent(tick=60, channel=1, data=[63, 63]),
   midi.NoteOnEvent(tick=0, channel=1, data=[44, 107]),
   midi.NoteOnEvent(tick=0, channel=1, data=[32, 126]),
   midi.NoteOnEvent(tick=0, channel=1, data=[51, 58]),
   midi.NoteOnEvent(tick=30, channel=1, data=[51, 0]),
   midi.NoteOnEvent(tick=0, channel=1, data=[63, 0]),
   midi.NoteOnEvent(tick=0, channel=1, data=[44, 0]),
   midi.NoteOnEvent(tick=0, channel=1, data=[32, 0]),
   midi.NoteOnEvent(tick=60, channel=1, data=[32, 82]),
   midi.NoteOnEvent(tick=0, channel=1, data=[51, 51]),
   midi.NoteOnEvent(tick=0, channel=1, data=[44, 70]),
   midi.NoteOnEvent(tick=0, channel=1, data=[25, 119]),
   midi.NoteOnEvent(tick=30, channel=1, data=[25, 0]),
   midi.NoteOnEvent(tick=0, channel=1, data=[32, 0]),
   midi.NoteOnEvent(tick=0, channel=1, data=[51, 0]),
   midi.NoteOnEvent(tick=0, channel=1, data=[44, 0]),
   midi.NoteOnEvent(tick=60, channel=1, data=[47, 77]),
   midi.NoteOnEvent(tick=0, channel=1, data=[40, 92]),
   midi.NoteOnEvent(tick=30, channel=1, data=[40, 0]),
   midi.NoteOnEvent(tick=0, channel=1, data=[47, 0]),
   midi.NoteOnEvent(tick=60, channel=1, data=[40, 81]),
   midi.NoteOnEvent(tick=0, channel=1, data=[52, 39]),
   midi.NoteOnEvent(tick=0, channel=1, data=[47, 47]),
   midi.NoteOnEvent(tick=30, channel=1, data=[47, 0]),
   midi.NoteOnEvent(tick=0, channel=1, data=[52, 0]),
   midi.NoteOnEvent(tick=0, channel=1, data=[40, 0]),
   midi.NoteOnEvent(tick=60, channel=1, data=[47, 75]),
   midi.NoteOnEvent(tick=0, channel=1, data=[40, 96]),
   midi.NoteOnEvent(tick=30, channel=1, data=[40, 0]),
   midi.NoteOnEvent(tick=0, channel=1, data=[47, 0]),
   midi.NoteOnEvent(tick=30, channel=1, data=[42, 91]),
   midi.NoteOnEvent(tick=0, channel=1, data=[30, 113]),
   midi.NoteOnEvent(tick=0, channel=1, data=[49, 49]),
   midi.NoteOnEvent(tick=30, channel=1, data=[49, 0]),
   midi.NoteOnEvent(tick=0, channel=1, data=[30, 0]),
   midi.NoteOnEvent(tick=0, channel=1, data=[42, 0]),
   midi.NoteOnEvent(tick=60, channel=1, data=[42, 112]),
   midi.NoteOnEvent(tick=0, channel=1, data=[30, 127]),
   midi.NoteOnEvent(tick=0, channel=1, data=[49, 70]),
   midi.NoteOnEvent(tick=30, channel=1, data=[49, 0]),
   midi.NoteOnEvent(tick=0, channel=1, data=[30, 0]),
   midi.NoteOnEvent(tick=0, channel=1, data=[42, 0]),
   midi.NoteOnEvent(tick=60, channel=1, data=[63, 71]),
   midi.NoteOnEvent(tick=0, channel=1, data=[44, 110]),
   midi.NoteOnEvent(tick=0, channel=1, data=[51, 58]),
   midi.NoteOnEvent(tick=0, channel=1, data=[32, 123]),
   midi.NoteOnEvent(tick=30, channel=1, data=[32, 0]),
   midi.NoteOnEvent(tick=0, channel=1, data=[63, 0]),
   midi.NoteOnEvent(tick=0, channel=1, data=[44, 0]),
   midi.NoteOnEvent(tick=0, channel=1, data=[51, 0]),
   midi.NoteOnEvent(tick=60, channel=1, data=[32, 126]),
   midi.NoteOnEvent(tick=0, channel=1, data=[51, 58]),
   midi.NoteOnEvent(tick=0, channel=1, data=[44, 107]),
   midi.NoteOnEvent(tick=0, channel=1, data=[63, 63]),
   midi.NoteOnEvent(tick=30, channel=1, data=[63, 0]),
   midi.NoteOnEvent(tick=0, channel=1, data=[32, 0]),
   midi.NoteOnEvent(tick=0, channel=1, data=[51, 0]),
   midi.NoteOnEvent(tick=0, channel=1, data=[44, 0]),
   midi.NoteOnEvent(tick=60, channel=1, data=[32, 82]),
   midi.NoteOnEvent(tick=0, channel=1, data=[44, 70]),
   midi.NoteOnEvent(tick=0, channel=1, data=[25, 119]),
   midi.NoteOnEvent(tick=0, channel=1, data=[51, 51]),
   midi.NoteOnEvent(tick=30, channel=1, data=[51, 0]),
   midi.NoteOnEvent(tick=0, channel=1, data=[32, 0]),
   midi.NoteOnEvent(tick=0, channel=1, data=[44, 0]),
   midi.NoteOnEvent(tick=0, channel=1, data=[25, 0]),
   midi.NoteOnEvent(tick=60, channel=1, data=[51, 58]),
   midi.NoteOnEvent(tick=0, channel=1, data=[44, 110]),
   midi.NoteOnEvent(tick=0, channel=1, data=[32, 123]),
   midi.NoteOnEvent(tick=0, channel=1, data=[63, 71]),
   midi.NoteOnEvent(tick=30, channel=1, data=[63, 0]),
   midi.NoteOnEvent(tick=0, channel=1, data=[51, 0]),
   midi.NoteOnEvent(tick=0, channel=1, data=[44, 0]),
   midi.NoteOnEvent(tick=0, channel=1, data=[32, 0]),
   midi.NoteOnEvent(tick=60, channel=1, data=[25, 112]),
   midi.NoteOnEvent(tick=0, channel=1, data=[56, 46]),
   midi.NoteOnEvent(tick=0, channel=1, data=[44, 64]),
   midi.NoteOnEvent(tick=0, channel=1, data=[37, 93]),
   midi.NoteOnEvent(tick=30, channel=1, data=[37, 0]),
   midi.NoteOnEvent(tick=0, channel=1, data=[25, 0]),
   midi.NoteOnEvent(tick=0, channel=1, data=[56, 0]),
   midi.NoteOnEvent(tick=0, channel=1, data=[44, 0]),
   midi.NoteOnEvent(tick=60, channel=1, data=[44, 64]),
   midi.NoteOnEvent(tick=0, channel=1, data=[56, 46]),
   midi.NoteOnEvent(tick=0, channel=1, data=[37, 93]),
   midi.NoteOnEvent(tick=0, channel=1, data=[25, 112]),
   midi.NoteOnEvent(tick=30, channel=1, data=[25, 0]),
   midi.NoteOnEvent(tick=0, channel=1, data=[44, 0]),
   midi.NoteOnEvent(tick=0, channel=1, data=[56, 0]),
   midi.NoteOnEvent(tick=0, channel=1, data=[37, 0]),
   midi.NoteOnEvent(tick=60, channel=1, data=[47, 77]),
   midi.NoteOnEvent(tick=0, channel=1, data=[40, 92]),
   midi.NoteOnEvent(tick=30, channel=1, data=[40, 0]),
   midi.NoteOnEvent(tick=0, channel=1, data=[47, 0]),
   midi.NoteOnEvent(tick=60, channel=1, data=[40, 81]),
   midi.NoteOnEvent(tick=0, channel=1, data=[47, 47]),
   midi.NoteOnEvent(tick=0, channel=1, data=[52, 39]),
   midi.NoteOnEvent(tick=30, channel=1, data=[52, 0]),
   midi.NoteOnEvent(tick=0, channel=1, data=[47, 0]),
   midi.NoteOnEvent(tick=0, channel=1, data=[40, 0]),
   midi.NoteOnEvent(tick=60, channel=1, data=[40, 96]),
   midi.NoteOnEvent(tick=0, channel=1, data=[47, 75]),
   midi.NoteOnEvent(tick=30, channel=1, data=[47, 0]),
   midi.NoteOnEvent(tick=0, channel=1, data=[40, 0]),
   midi.NoteOnEvent(tick=30, channel=1, data=[42, 91]),
   midi.NoteOnEvent(tick=0, channel=1, data=[49, 49]),
   midi.NoteOnEvent(tick=0, channel=1, data=[30, 113]),
   midi.NoteOnEvent(tick=30, channel=1, data=[30, 0]),
   midi.NoteOnEvent(tick=0, channel=1, data=[49, 0]),
   midi.NoteOnEvent(tick=0, channel=1, data=[42, 0]),
   midi.NoteOnEvent(tick=60, channel=1, data=[49, 70]),
   midi.NoteOnEvent(tick=0, channel=1, data=[30, 127]),
   midi.NoteOnEvent(tick=0, channel=1, data=[42, 112]),
   midi.NoteOnEvent(tick=30, channel=1, data=[42, 0]),
   midi.NoteOnEvent(tick=0, channel=1, data=[30, 0]),
   midi.NoteOnEvent(tick=0, channel=1, data=[49, 0]),
   midi.NoteOnEvent(tick=60, channel=1, data=[63, 71]),
   midi.NoteOnEvent(tick=0, channel=1, data=[44, 110]),
   midi.NoteOnEvent(tick=0, channel=1, data=[51, 58]),
   midi.NoteOnEvent(tick=0, channel=1, data=[32, 123]),
   midi.NoteOnEvent(tick=30, channel=1, data=[32, 0]),
   midi.NoteOnEvent(tick=0, channel=1, data=[63, 0]),
   midi.NoteOnEvent(tick=0, channel=1, data=[44, 0]),
   midi.NoteOnEvent(tick=0, channel=1, data=[51, 0]),
   midi.NoteOnEvent(tick=60, channel=1, data=[32, 126]),
   midi.NoteOnEvent(tick=0, channel=1, data=[44, 107]),
   midi.NoteOnEvent(tick=0, channel=1, data=[63, 63]),
   midi.NoteOnEvent(tick=0, channel=1, data=[51, 58]),
   midi.NoteOnEvent(tick=30, channel=1, data=[51, 0]),
   midi.NoteOnEvent(tick=0, channel=1, data=[32, 0]),
   midi.NoteOnEvent(tick=0, channel=1, data=[44, 0]),
   midi.NoteOnEvent(tick=0, channel=1, data=[63, 0]),
   midi.NoteOnEvent(tick=60, channel=1, data=[44, 70]),
   midi.NoteOnEvent(tick=0, channel=1, data=[25, 119]),
   midi.NoteOnEvent(tick=0, channel=1, data=[51, 51]),
   midi.NoteOnEvent(tick=0, channel=1, data=[32, 82]),
   midi.NoteOnEvent(tick=30, channel=1, data=[32, 0]),
   midi.NoteOnEvent(tick=0, channel=1, data=[44, 0]),
   midi.NoteOnEvent(tick=0, channel=1, data=[25, 0]),
   midi.NoteOnEvent(tick=0, channel=1, data=[51, 0]),
   midi.NoteOnEvent(tick=60, channel=1, data=[51, 58]),
   midi.NoteOnEvent(tick=0, channel=1, data=[63, 71]),
   midi.NoteOnEvent(tick=0, channel=1, data=[32, 123]),
   midi.NoteOnEvent(tick=0, channel=1, data=[44, 110]),
   midi.NoteOnEvent(tick=30, channel=1, data=[44, 0]),
   midi.NoteOnEvent(tick=0, channel=1, data=[51, 0]),
   midi.NoteOnEvent(tick=0, channel=1, data=[63, 0]),
   midi.NoteOnEvent(tick=0, channel=1, data=[32, 0]),
   midi.NoteOnEvent(tick=60, channel=1, data=[63, 63]),
   midi.NoteOnEvent(tick=0, channel=1, data=[44, 107]),
   midi.NoteOnEvent(tick=0, channel=1, data=[32, 126]),
   midi.NoteOnEvent(tick=0, channel=1, data=[51, 58]),
   midi.NoteOnEvent(tick=30, channel=1, data=[51, 0]),
   midi.NoteOnEvent(tick=0, channel=1, data=[63, 0]),
   midi.NoteOnEvent(tick=0, channel=1, data=[44, 0]),
   midi.NoteOnEvent(tick=0, channel=1, data=[32, 0]),
   midi.NoteOnEvent(tick=60, channel=1, data=[32, 82]),
   midi.NoteOnEvent(tick=0, channel=1, data=[51, 51]),
   midi.NoteOnEvent(tick=0, channel=1, data=[44, 70]),
   midi.NoteOnEvent(tick=0, channel=1, data=[25, 119]),
   midi.NoteOnEvent(tick=30, channel=1, data=[25, 0]),
   midi.NoteOnEvent(tick=0, channel=1, data=[32, 0]),
   midi.NoteOnEvent(tick=0, channel=1, data=[51, 0]),
   midi.NoteOnEvent(tick=0, channel=1, data=[44, 0]),
   midi.NoteOnEvent(tick=60, channel=1, data=[47, 77]),
   midi.NoteOnEvent(tick=0, channel=1, data=[40, 92]),
   midi.NoteOnEvent(tick=30, channel=1, data=[40, 0]),
   midi.NoteOnEvent(tick=0, channel=1, data=[47, 0]),
   midi.NoteOnEvent(tick=60, channel=1, data=[40, 81]),
   midi.NoteOnEvent(tick=0, channel=1, data=[52, 39]),
   midi.NoteOnEvent(tick=0, channel=1, data=[47, 47]),
   midi.NoteOnEvent(tick=30, channel=1, data=[47, 0]),
   midi.NoteOnEvent(tick=0, channel=1, data=[52, 0]),
   midi.NoteOnEvent(tick=0, channel=1, data=[40, 0]),
   midi.NoteOnEvent(tick=60, channel=1, data=[47, 75]),
   midi.NoteOnEvent(tick=0, channel=1, data=[40, 96]),
   midi.NoteOnEvent(tick=30, channel=1, data=[40, 0]),
   midi.NoteOnEvent(tick=0, channel=1, data=[47, 0]),
   midi.NoteOnEvent(tick=30, channel=1, data=[42, 91]),
   midi.NoteOnEvent(tick=0, channel=1, data=[30, 113]),
   midi.NoteOnEvent(tick=0, channel=1, data=[49, 49]),
   midi.NoteOnEvent(tick=30, channel=1, data=[49, 0]),
   midi.NoteOnEvent(tick=0, channel=1, data=[30, 0]),
   midi.NoteOnEvent(tick=0, channel=1, data=[42, 0]),
   midi.NoteOnEvent(tick=60, channel=1, data=[42, 112]),
   midi.NoteOnEvent(tick=0, channel=1, data=[30, 127]),
   midi.NoteOnEvent(tick=0, channel=1, data=[49, 70]),
   midi.NoteOnEvent(tick=30, channel=1, data=[49, 0]),
   midi.NoteOnEvent(tick=0, channel=1, data=[30, 0]),
   midi.NoteOnEvent(tick=0, channel=1, data=[42, 0]),
   midi.NoteOnEvent(tick=60, channel=1, data=[63, 71]),
   midi.NoteOnEvent(tick=0, channel=1, data=[44, 110]),
   midi.NoteOnEvent(tick=0, channel=1, data=[51, 58]),
   midi.NoteOnEvent(tick=0, channel=1, data=[32, 123]),
   midi.NoteOnEvent(tick=30, channel=1, data=[32, 0]),
   midi.NoteOnEvent(tick=0, channel=1, data=[63, 0]),
   midi.NoteOnEvent(tick=0, channel=1, data=[44, 0]),
   midi.NoteOnEvent(tick=0, channel=1, data=[51, 0]),
   midi.NoteOnEvent(tick=60, channel=1, data=[32, 126]),
   midi.NoteOnEvent(tick=0, channel=1, data=[51, 58]),
   midi.NoteOnEvent(tick=0, channel=1, data=[44, 107]),
   midi.NoteOnEvent(tick=0, channel=1, data=[63, 63]),
   midi.NoteOnEvent(tick=30, channel=1, data=[63, 0]),
   midi.NoteOnEvent(tick=0, channel=1, data=[32, 0]),
   midi.NoteOnEvent(tick=0, channel=1, data=[51, 0]),
   midi.NoteOnEvent(tick=0, channel=1, data=[44, 0]),
   midi.NoteOnEvent(tick=60, channel=1, data=[32, 82]),
   midi.NoteOnEvent(tick=0, channel=1, data=[44, 70]),
   midi.NoteOnEvent(tick=0, channel=1, data=[25, 119]),
   midi.NoteOnEvent(tick=0, channel=1, data=[51, 51]),
   midi.NoteOnEvent(tick=30, channel=1, data=[51, 0]),
   midi.NoteOnEvent(tick=0, channel=1, data=[32, 0]),
   midi.NoteOnEvent(tick=0, channel=1, data=[44, 0]),
   midi.NoteOnEvent(tick=0, channel=1, data=[25, 0]),
   midi.NoteOnEvent(tick=60, channel=1, data=[51, 58]),
   midi.NoteOnEvent(tick=0, channel=1, data=[44, 110]),
   midi.NoteOnEvent(tick=0, channel=1, data=[32, 123]),
   midi.NoteOnEvent(tick=0, channel=1, data=[63, 71]),
   midi.NoteOnEvent(tick=30, channel=1, data=[63, 0]),
   midi.NoteOnEvent(tick=0, channel=1, data=[51, 0]),
   midi.NoteOnEvent(tick=0, channel=1, data=[44, 0]),
   midi.NoteOnEvent(tick=0, channel=1, data=[32, 0]),
   midi.NoteOnEvent(tick=60, channel=1, data=[25, 112]),
   midi.NoteOnEvent(tick=0, channel=1, data=[56, 46]),
   midi.NoteOnEvent(tick=0, channel=1, data=[44, 64]),
   midi.NoteOnEvent(tick=0, channel=1, data=[37, 93]),
   midi.NoteOnEvent(tick=30, channel=1, data=[37, 0]),
   midi.NoteOnEvent(tick=0, channel=1, data=[25, 0]),
   midi.NoteOnEvent(tick=0, channel=1, data=[56, 0]),
   midi.NoteOnEvent(tick=0, channel=1, data=[44, 0]),
   midi.NoteOnEvent(tick=60, channel=1, data=[44, 64]),
   midi.NoteOnEvent(tick=0, channel=1, data=[56, 46]),
   midi.NoteOnEvent(tick=0, channel=1, data=[37, 93]),
   midi.NoteOnEvent(tick=0, channel=1, data=[25, 112]),
   midi.NoteOnEvent(tick=30, channel=1, data=[25, 0]),
   midi.NoteOnEvent(tick=0, channel=1, data=[44, 0]),
   midi.NoteOnEvent(tick=0, channel=1, data=[56, 0]),
   midi.NoteOnEvent(tick=0, channel=1, data=[37, 0]),
   midi.NoteOnEvent(tick=4860, channel=1, data=[51, 58]),
   midi.NoteOnEvent(tick=0, channel=1, data=[63, 71]),
   midi.NoteOnEvent(tick=0, channel=1, data=[44, 110]),
   midi.NoteOnEvent(tick=0, channel=1, data=[32, 123]),
   midi.NoteOnEvent(tick=30, channel=1, data=[32, 0]),
   midi.NoteOnEvent(tick=0, channel=1, data=[51, 0]),
   midi.NoteOnEvent(tick=0, channel=1, data=[63, 0]),
   midi.NoteOnEvent(tick=0, channel=1, data=[44, 0]),
   midi.NoteOnEvent(tick=60, channel=1, data=[63, 63]),
   midi.NoteOnEvent(tick=0, channel=1, data=[51, 58]),
   midi.NoteOnEvent(tick=0, channel=1, data=[32, 126]),
   midi.NoteOnEvent(tick=0, channel=1, data=[44, 107]),
   midi.NoteOnEvent(tick=30, channel=1, data=[44, 0]),
   midi.NoteOnEvent(tick=0, channel=1, data=[63, 0]),
   midi.NoteOnEvent(tick=0, channel=1, data=[51, 0]),
   midi.NoteOnEvent(tick=0, channel=1, data=[32, 0]),
   midi.NoteOnEvent(tick=60, channel=1, data=[25, 119]),
   midi.NoteOnEvent(tick=0, channel=1, data=[44, 70]),
   midi.NoteOnEvent(tick=0, channel=1, data=[37, 82]),
   midi.NoteOnEvent(tick=0, channel=1, data=[56, 51]),
   midi.NoteOnEvent(tick=30, channel=1, data=[56, 0]),
   midi.NoteOnEvent(tick=0, channel=1, data=[25, 0]),
   midi.NoteOnEvent(tick=0, channel=1, data=[44, 0]),
   midi.NoteOnEvent(tick=0, channel=1, data=[37, 0]),
   midi.NoteOnEvent(tick=30, channel=1, data=[56, 46]),
   midi.NoteOnEvent(tick=0, channel=1, data=[40, 57]),
   midi.NoteOnEvent(tick=0, channel=1, data=[59, 57]),
   midi.NoteOnEvent(tick=0, channel=1, data=[47, 63]),
   midi.NoteOnEvent(tick=0, channel=1, data=[28, 114]),
   midi.NoteOnEvent(tick=30, channel=1, data=[28, 0]),
   midi.NoteOnEvent(tick=0, channel=1, data=[59, 0]),
   midi.NoteOnEvent(tick=0, channel=1, data=[56, 0]),
   midi.NoteOnEvent(tick=0, channel=1, data=[40, 0]),
   midi.NoteOnEvent(tick=0, channel=1, data=[47, 0]),
   midi.NoteOnEvent(tick=60, channel=1, data=[47, 75]),
   midi.NoteOnEvent(tick=0, channel=1, data=[59, 63]),
   midi.NoteOnEvent(tick=0, channel=1, data=[28, 121]),
   midi.NoteOnEvent(tick=0, channel=1, data=[40, 105]),
   midi.NoteOnEvent(tick=30, channel=1, data=[40, 0]),
   midi.NoteOnEvent(tick=0, channel=1, data=[47, 0]),
   midi.NoteOnEvent(tick=0, channel=1, data=[59, 0]),
   midi.NoteOnEvent(tick=0, channel=1, data=[28, 0]),
   midi.NoteOnEvent(tick=60, channel=1, data=[42, 78]),
   midi.NoteOnEvent(tick=0, channel=1, data=[54, 40]),
   midi.NoteOnEvent(tick=0, channel=1, data=[49, 43]),
   midi.NoteOnEvent(tick=0, channel=1, data=[30, 109]),
   midi.NoteOnEvent(tick=0, channel=1, data=[61, 51]),
   midi.NoteOnEvent(tick=30, channel=1, data=[61, 0]),
   midi.NoteOnEvent(tick=0, channel=1, data=[49, 0]),
   midi.NoteOnEvent(tick=0, channel=1, data=[42, 0]),
   midi.NoteOnEvent(tick=0, channel=1, data=[54, 0]),
   midi.NoteOnEvent(tick=0, channel=1, data=[30, 0]),
   midi.NoteOnEvent(tick=60, channel=1, data=[30, 119]),
   midi.NoteOnEvent(tick=0, channel=1, data=[42, 96]),
   midi.NoteOnEvent(tick=0, channel=1, data=[49, 49]),
   midi.NoteOnEvent(tick=30, channel=1, data=[49, 0]),
   midi.NoteOnEvent(tick=0, channel=1, data=[42, 0]),
   midi.NoteOnEvent(tick=0, channel=1, data=[30, 0]),
   midi.NoteOnEvent(tick=60, channel=1, data=[49, 74]),
   midi.NoteOnEvent(tick=0, channel=1, data=[42, 107]),
   midi.NoteOnEvent(tick=0, channel=1, data=[30, 127]),
   midi.NoteOnEvent(tick=30, channel=1, data=[30, 0]),
   midi.NoteOnEvent(tick=0, channel=1, data=[42, 0]),
   midi.NoteOnEvent(tick=0, channel=1, data=[49, 0]),
   midi.NoteOnEvent(tick=60, channel=1, data=[30, 112]),
   midi.NoteOnEvent(tick=0, channel=1, data=[49, 46]),
   midi.NoteOnEvent(tick=0, channel=1, data=[42, 110]),
   midi.NoteOnEvent(tick=30, channel=1, data=[42, 0]),
   midi.NoteOnEvent(tick=0, channel=1, data=[49, 0]),
   midi.NoteOnEvent(tick=0, channel=1, data=[30, 0]),
   midi.NoteOnEvent(tick=60, channel=1, data=[30, 120]),
   midi.NoteOnEvent(tick=0, channel=1, data=[42, 105]),
   midi.NoteOnEvent(tick=0, channel=1, data=[49, 56]),
   midi.NoteOnEvent(tick=30, channel=1, data=[49, 0]),
   midi.NoteOnEvent(tick=0, channel=1, data=[42, 0]),
   midi.NoteOnEvent(tick=0, channel=1, data=[30, 0]),
   midi.NoteOnEvent(tick=30, channel=1, data=[51, 63]),
   midi.NoteOnEvent(tick=0, channel=1, data=[32, 127]),
   midi.NoteOnEvent(tick=0, channel=1, data=[44, 95]),
   midi.NoteOnEvent(tick=30, channel=1, data=[44, 0]),
   midi.NoteOnEvent(tick=0, channel=1, data=[32, 0]),
   midi.NoteOnEvent(tick=0, channel=1, data=[51, 0]),
   midi.NoteOnEvent(tick=0, channel=1, data=[42, 107]),
   midi.NoteOnEvent(tick=0, channel=1, data=[30, 119]),
   midi.NoteOnEvent(tick=30, channel=1, data=[30, 0]),
   midi.NoteOnEvent(tick=0, channel=1, data=[42, 0]),
   midi.NoteOnEvent(tick=0, channel=1, data=[28, 116]),
   midi.NoteOnEvent(tick=0, channel=1, data=[52, 44]),
   midi.NoteOnEvent(tick=0, channel=1, data=[47, 46]),
   midi.NoteOnEvent(tick=0, channel=1, data=[40, 78]),
   midi.NoteOnEvent(tick=0, channel=1, data=[59, 57]),
   midi.NoteOnEvent(tick=30, channel=1, data=[40, 0]),
   midi.NoteOnEvent(tick=0, channel=1, data=[47, 0]),
   midi.NoteOnEvent(tick=0, channel=1, data=[28, 0]),
   midi.NoteOnEvent(tick=0, channel=1, data=[52, 0]),
   midi.NoteOnEvent(tick=30, channel=1, data=[59, 0]),
   midi.NoteOnEvent(tick=0, channel=1, data=[25, 112]),
   midi.NoteOnEvent(tick=0, channel=1, data=[37, 93]),
   midi.NoteOnEvent(tick=0, channel=1, data=[44, 64]),
   midi.NoteOnEvent(tick=0, channel=1, data=[56, 46]),
   midi.NoteOnEvent(tick=30, channel=1, data=[56, 0]),
   midi.NoteOnEvent(tick=0, channel=1, data=[25, 0]),
   midi.NoteOnEvent(tick=0, channel=1, data=[37, 0]),
   midi.NoteOnEvent(tick=0, channel=1, data=[44, 0]),
   midi.NoteOnEvent(tick=60, channel=1, data=[25, 120]),
   midi.NoteOnEvent(tick=0, channel=1, data=[44, 79]),
   midi.NoteOnEvent(tick=0, channel=1, data=[56, 71]),
   midi.NoteOnEvent(tick=0, channel=1, data=[37, 106]),
   midi.NoteOnEvent(tick=30, channel=1, data=[37, 0]),
   midi.NoteOnEvent(tick=0, channel=1, data=[25, 0]),
   midi.NoteOnEvent(tick=0, channel=1, data=[44, 0]),
   midi.NoteOnEvent(tick=0, channel=1, data=[56, 0]),
   midi.NoteOnEvent(tick=60, channel=1, data=[44, 82]),
   midi.NoteOnEvent(tick=0, channel=1, data=[51, 51]),
   midi.NoteOnEvent(tick=0, channel=1, data=[63, 57]),
   midi.NoteOnEvent(tick=0, channel=1, data=[32, 114]),
   midi.NoteOnEvent(tick=30, channel=1, data=[32, 0]),
   midi.NoteOnEvent(tick=0, channel=1, data=[44, 0]),
   midi.NoteOnEvent(tick=0, channel=1, data=[51, 0]),
   midi.NoteOnEvent(tick=0, channel=1, data=[63, 0]),
   midi.NoteOnEvent(tick=30, channel=1, data=[30, 113]),
   midi.NoteOnEvent(tick=0, channel=1, data=[49, 49]),
   midi.NoteOnEvent(tick=0, channel=1, data=[42, 91]),
   midi.NoteOnEvent(tick=30, channel=1, data=[42, 0]),
   midi.NoteOnEvent(tick=0, channel=1, data=[49, 0]),
   midi.NoteOnEvent(tick=0, channel=1, data=[30, 0]),
   midi.NoteOnEvent(tick=60, channel=1, data=[42, 112]),
   midi.NoteOnEvent(tick=0, channel=1, data=[49, 70]),
   midi.NoteOnEvent(tick=0, channel=1, data=[30, 127]),
   midi.NoteOnEvent(tick=30, channel=1, data=[30, 0]),
   midi.NoteOnEvent(tick=0, channel=1, data=[49, 0]),
   midi.NoteOnEvent(tick=0, channel=1, data=[42, 0]),
   midi.NoteOnEvent(tick=60, channel=1, data=[46, 46]),
   midi.NoteOnEvent(tick=0, channel=1, data=[39, 100]),
   midi.NoteOnEvent(tick=0, channel=1, data=[58, 50]),
   midi.NoteOnEvent(tick=0, channel=1, data=[27, 110]),
   midi.NoteOnEvent(tick=30, channel=1, data=[27, 0]),
   midi.NoteOnEvent(tick=0, channel=1, data=[46, 0]),
   midi.NoteOnEvent(tick=0, channel=1, data=[39, 0]),
   midi.NoteOnEvent(tick=0, channel=1, data=[58, 0]),
   midi.NoteOnEvent(tick=60, channel=1, data=[39, 81]),
   midi.NoteOnEvent(tick=0, channel=1, data=[27, 112]),
   midi.NoteOnEvent(tick=0, channel=1, data=[46, 65]),
   midi.NoteOnEvent(tick=0, channel=1, data=[58, 47]),
   midi.NoteOnEvent(tick=30, channel=1, data=[58, 0]),
   midi.NoteOnEvent(tick=0, channel=1, data=[39, 0]),
   midi.NoteOnEvent(tick=0, channel=1, data=[27, 0]),
   midi.NoteOnEvent(tick=0, channel=1, data=[46, 0]),
   midi.NoteOnEvent(tick=60, channel=1, data=[47, 77]),
   midi.NoteOnEvent(tick=0, channel=1, data=[59, 72]),
   midi.NoteOnEvent(tick=0, channel=1, data=[28, 127]),
   midi.NoteOnEvent(tick=0, channel=1, data=[40, 92]),
   midi.NoteOnEvent(tick=30, channel=1, data=[40, 0]),
   midi.NoteOnEvent(tick=0, channel=1, data=[47, 0]),
   midi.NoteOnEvent(tick=0, channel=1, data=[59, 0]),
   midi.NoteOnEvent(tick=0, channel=1, data=[28, 0]),
   midi.NoteOnEvent(tick=60, channel=1, data=[52, 39]),
   midi.NoteOnEvent(tick=0, channel=1, data=[40, 81]),
   midi.NoteOnEvent(tick=0, channel=1, data=[47, 47]),
   midi.NoteOnEvent(tick=0, channel=1, data=[28, 107]),
   midi.NoteOnEvent(tick=0, channel=1, data=[59, 46]),
   midi.NoteOnEvent(tick=30, channel=1, data=[59, 0]),
   midi.NoteOnEvent(tick=0, channel=1, data=[47, 0]),
   midi.NoteOnEvent(tick=0, channel=1, data=[52, 0]),
   midi.NoteOnEvent(tick=0, channel=1, data=[40, 0]),
   midi.NoteOnEvent(tick=0, channel=1, data=[28, 0]),
   midi.NoteOnEvent(tick=60, channel=1, data=[47, 75]),
   midi.NoteOnEvent(tick=0, channel=1, data=[28, 123]),
   midi.NoteOnEvent(tick=0, channel=1, data=[40, 96]),
   midi.NoteOnEvent(tick=0, channel=1, data=[59, 64]),
   midi.NoteOnEvent(tick=30, channel=1, data=[59, 0]),
   midi.NoteOnEvent(tick=0, channel=1, data=[47, 0]),
   midi.NoteOnEvent(tick=0, channel=1, data=[28, 0]),
   midi.NoteOnEvent(tick=0, channel=1, data=[40, 0]),
   midi.NoteOnEvent(tick=60, channel=1, data=[59, 53]),
   midi.NoteOnEvent(tick=0, channel=1, data=[40, 103]),
   midi.NoteOnEvent(tick=0, channel=1, data=[28, 114]),
   midi.NoteOnEvent(tick=0, channel=1, data=[47, 54]),
   midi.NoteOnEvent(tick=30, channel=1, data=[47, 0]),
   midi.NoteOnEvent(tick=0, channel=1, data=[59, 0]),
   midi.NoteOnEvent(tick=0, channel=1, data=[40, 0]),
   midi.NoteOnEvent(tick=0, channel=1, data=[28, 0]),
   midi.NoteOnEvent(tick=60, channel=1, data=[32, 123]),
   midi.NoteOnEvent(tick=0, channel=1, data=[44, 110]),
   midi.NoteOnEvent(tick=0, channel=1, data=[51, 58]),
   midi.NoteOnEvent(tick=0, channel=1, data=[63, 71]),
   midi.NoteOnEvent(tick=30, channel=1, data=[63, 0]),
   midi.NoteOnEvent(tick=0, channel=1, data=[32, 0]),
   midi.NoteOnEvent(tick=0, channel=1, data=[44, 0]),
   midi.NoteOnEvent(tick=0, channel=1, data=[51, 0]),
   midi.NoteOnEvent(tick=60, channel=1, data=[32, 126]),
   midi.NoteOnEvent(tick=0, channel=1, data=[44, 107]),
   midi.NoteOnEvent(tick=0, channel=1, data=[51, 58]),
   midi.NoteOnEvent(tick=0, channel=1, data=[63, 63]),
   midi.NoteOnEvent(tick=30, channel=1, data=[63, 0]),
   midi.NoteOnEvent(tick=0, channel=1, data=[32, 0]),
   midi.NoteOnEvent(tick=0, channel=1, data=[44, 0]),
   midi.NoteOnEvent(tick=0, channel=1, data=[51, 0]),
   midi.NoteOnEvent(tick=60, channel=1, data=[44, 70]),
   midi.NoteOnEvent(tick=0, channel=1, data=[25, 119]),
   midi.NoteOnEvent(tick=0, channel=1, data=[56, 51]),
   midi.NoteOnEvent(tick=0, channel=1, data=[37, 82]),
   midi.NoteOnEvent(tick=30, channel=1, data=[37, 0]),
   midi.NoteOnEvent(tick=0, channel=1, data=[44, 0]),
   midi.NoteOnEvent(tick=0, channel=1, data=[25, 0]),
   midi.NoteOnEvent(tick=0, channel=1, data=[56, 0]),
   midi.NoteOnEvent(tick=30, channel=1, data=[47, 63]),
   midi.NoteOnEvent(tick=0, channel=1, data=[56, 46]),
   midi.NoteOnEvent(tick=0, channel=1, data=[59, 57]),
   midi.NoteOnEvent(tick=0, channel=1, data=[40, 57]),
   midi.NoteOnEvent(tick=0, channel=1, data=[28, 114]),
   midi.NoteOnEvent(tick=30, channel=1, data=[28, 0]),
   midi.NoteOnEvent(tick=0, channel=1, data=[59, 0]),
   midi.NoteOnEvent(tick=0, channel=1, data=[47, 0]),
   midi.NoteOnEvent(tick=0, channel=1, data=[56, 0]),
   midi.NoteOnEvent(tick=0, channel=1, data=[40, 0]),
   midi.NoteOnEvent(tick=60, channel=1, data=[59, 63]),
   midi.NoteOnEvent(tick=0, channel=1, data=[47, 75]),
   midi.NoteOnEvent(tick=0, channel=1, data=[40, 105]),
   midi.NoteOnEvent(tick=0, channel=1, data=[28, 121]),
   midi.NoteOnEvent(tick=30, channel=1, data=[28, 0]),
   midi.NoteOnEvent(tick=0, channel=1, data=[59, 0]),
   midi.NoteOnEvent(tick=0, channel=1, data=[47, 0]),
   midi.NoteOnEvent(tick=0, channel=1, data=[40, 0]),
   midi.NoteOnEvent(tick=60, channel=1, data=[42, 78]),
   midi.NoteOnEvent(tick=0, channel=1, data=[54, 40]),
   midi.NoteOnEvent(tick=0, channel=1, data=[61, 51]),
   midi.NoteOnEvent(tick=0, channel=1, data=[49, 43]),
   midi.NoteOnEvent(tick=0, channel=1, data=[30, 109]),
   midi.NoteOnEvent(tick=30, channel=1, data=[30, 0]),
   midi.NoteOnEvent(tick=0, channel=1, data=[61, 0]),
   midi.NoteOnEvent(tick=0, channel=1, data=[42, 0]),
   midi.NoteOnEvent(tick=0, channel=1, data=[54, 0]),
   midi.NoteOnEvent(tick=0, channel=1, data=[49, 0]),
   midi.NoteOnEvent(tick=60, channel=1, data=[49, 49]),
   midi.NoteOnEvent(tick=0, channel=1, data=[42, 96]),
   midi.NoteOnEvent(tick=0, channel=1, data=[30, 119]),
   midi.NoteOnEvent(tick=30, channel=1, data=[30, 0]),
   midi.NoteOnEvent(tick=0, channel=1, data=[42, 0]),
   midi.NoteOnEvent(tick=0, channel=1, data=[49, 0]),
   midi.NoteOnEvent(tick=60, channel=1, data=[42, 107]),
   midi.NoteOnEvent(tick=0, channel=1, data=[49, 74]),
   midi.NoteOnEvent(tick=0, channel=1, data=[30, 127]),
   midi.NoteOnEvent(tick=30, channel=1, data=[30, 0]),
   midi.NoteOnEvent(tick=0, channel=1, data=[49, 0]),
   midi.NoteOnEvent(tick=0, channel=1, data=[42, 0]),
   midi.NoteOnEvent(tick=60, channel=1, data=[42, 110]),
   midi.NoteOnEvent(tick=0, channel=1, data=[30, 112]),
   midi.NoteOnEvent(tick=0, channel=1, data=[49, 46]),
   midi.NoteOnEvent(tick=30, channel=1, data=[49, 0]),
   midi.NoteOnEvent(tick=0, channel=1, data=[30, 0]),
   midi.NoteOnEvent(tick=0, channel=1, data=[42, 0]),
   midi.NoteOnEvent(tick=60, channel=1, data=[30, 120]),
   midi.NoteOnEvent(tick=0, channel=1, data=[42, 105]),
   midi.NoteOnEvent(tick=0, channel=1, data=[49, 56]),
   midi.NoteOnEvent(tick=30, channel=1, data=[49, 0]),
   midi.NoteOnEvent(tick=0, channel=1, data=[42, 0]),
   midi.NoteOnEvent(tick=0, channel=1, data=[30, 0]),
   midi.NoteOnEvent(tick=30, channel=1, data=[51, 63]),
   midi.NoteOnEvent(tick=0, channel=1, data=[44, 95]),
   midi.NoteOnEvent(tick=0, channel=1, data=[32, 127]),
   midi.NoteOnEvent(tick=30, channel=1, data=[32, 0]),
   midi.NoteOnEvent(tick=0, channel=1, data=[44, 0]),
   midi.NoteOnEvent(tick=0, channel=1, data=[51, 0]),
   midi.NoteOnEvent(tick=0, channel=1, data=[30, 119]),
   midi.NoteOnEvent(tick=0, channel=1, data=[42, 107]),
   midi.NoteOnEvent(tick=30, channel=1, data=[42, 0]),
   midi.NoteOnEvent(tick=0, channel=1, data=[30, 0]),
   midi.NoteOnEvent(tick=0, channel=1, data=[28, 116]),
   midi.NoteOnEvent(tick=0, channel=1, data=[47, 46]),
   midi.NoteOnEvent(tick=0, channel=1, data=[40, 78]),
   midi.NoteOnEvent(tick=0, channel=1, data=[59, 57]),
   midi.NoteOnEvent(tick=0, channel=1, data=[52, 44]),
   midi.NoteOnEvent(tick=30, channel=1, data=[52, 0]),
   midi.NoteOnEvent(tick=0, channel=1, data=[40, 0]),
   midi.NoteOnEvent(tick=0, channel=1, data=[28, 0]),
   midi.NoteOnEvent(tick=0, channel=1, data=[47, 0]),
   midi.NoteOnEvent(tick=0, channel=1, data=[59, 0]),
   midi.NoteOnEvent(tick=30, channel=1, data=[44, 64]),
   midi.NoteOnEvent(tick=0, channel=1, data=[56, 46]),
   midi.NoteOnEvent(tick=0, channel=1, data=[37, 93]),
   midi.NoteOnEvent(tick=0, channel=1, data=[25, 112]),
   midi.NoteOnEvent(tick=30, channel=1, data=[25, 0]),
   midi.NoteOnEvent(tick=0, channel=1, data=[44, 0]),
   midi.NoteOnEvent(tick=0, channel=1, data=[56, 0]),
   midi.NoteOnEvent(tick=0, channel=1, data=[37, 0]),
   midi.NoteOnEvent(tick=60, channel=1, data=[56, 71]),
   midi.NoteOnEvent(tick=0, channel=1, data=[56, 0]),
   midi.NoteOnEvent(tick=0, channel=1, data=[37, 106]),
   midi.NoteOnEvent(tick=0, channel=1, data=[37, 0]),
   midi.NoteOnEvent(tick=0, channel=1, data=[44, 79]),
   midi.NoteOnEvent(tick=0, channel=1, data=[44, 0]),
   midi.NoteOnEvent(tick=0, channel=1, data=[25, 120]),
   midi.NoteOnEvent(tick=0, channel=1, data=[25, 0]),
   midi.NoteOnEvent(tick=60, channel=1, data=[37, 106]),
   midi.NoteOnEvent(tick=0, channel=1, data=[37, 0]),
   midi.NoteOnEvent(tick=0, channel=1, data=[25, 120]),
   midi.NoteOnEvent(tick=0, channel=1, data=[25, 0]),
   midi.NoteOnEvent(tick=0, channel=1, data=[56, 71]),
   midi.NoteOnEvent(tick=0, channel=1, data=[56, 0]),
   midi.NoteOnEvent(tick=0, channel=1, data=[44, 79]),
   midi.NoteOnEvent(tick=0, channel=1, data=[44, 0]),
   midi.NoteOnEvent(tick=30, channel=1, data=[32, 114]),
   midi.NoteOnEvent(tick=0, channel=1, data=[63, 57]),
   midi.NoteOnEvent(tick=0, channel=1, data=[44, 82]),
   midi.NoteOnEvent(tick=0, channel=1, data=[51, 51]),
   midi.NoteOnEvent(tick=30, channel=1, data=[51, 0]),
   midi.NoteOnEvent(tick=0, channel=1, data=[32, 0]),
   midi.NoteOnEvent(tick=0, channel=1, data=[63, 0]),
   midi.NoteOnEvent(tick=0, channel=1, data=[44, 0]),
   midi.NoteOnEvent(tick=30, channel=1, data=[42, 91]),
   midi.NoteOnEvent(tick=0, channel=1, data=[30, 113]),
   midi.NoteOnEvent(tick=0, channel=1, data=[49, 49]),
   midi.NoteOnEvent(tick=30, channel=1, data=[49, 0]),
   midi.NoteOnEvent(tick=0, channel=1, data=[30, 0]),
   midi.NoteOnEvent(tick=0, channel=1, data=[42, 0]),
   midi.NoteOnEvent(tick=60, channel=1, data=[49, 70]),
   midi.NoteOnEvent(tick=0, channel=1, data=[30, 127]),
   midi.NoteOnEvent(tick=0, channel=1, data=[42, 112]),
   midi.NoteOnEvent(tick=30, channel=1, data=[42, 0]),
   midi.NoteOnEvent(tick=0, channel=1, data=[30, 0]),
   midi.NoteOnEvent(tick=0, channel=1, data=[49, 0]),
   midi.NoteOnEvent(tick=60, channel=1, data=[39, 100]),
   midi.NoteOnEvent(tick=0, channel=1, data=[27, 110]),
   midi.NoteOnEvent(tick=0, channel=1, data=[46, 46]),
   midi.NoteOnEvent(tick=0, channel=1, data=[58, 50]),
   midi.NoteOnEvent(tick=30, channel=1, data=[58, 0]),
   midi.NoteOnEvent(tick=0, channel=1, data=[39, 0]),
   midi.NoteOnEvent(tick=0, channel=1, data=[27, 0]),
   midi.NoteOnEvent(tick=0, channel=1, data=[46, 0]),
   midi.NoteOnEvent(tick=60, channel=1, data=[46, 65]),
   midi.NoteOnEvent(tick=0, channel=1, data=[39, 81]),
   midi.NoteOnEvent(tick=0, channel=1, data=[27, 112]),
   midi.NoteOnEvent(tick=0, channel=1, data=[58, 47]),
   midi.NoteOnEvent(tick=30, channel=1, data=[58, 0]),
   midi.NoteOnEvent(tick=0, channel=1, data=[46, 0]),
   midi.NoteOnEvent(tick=0, channel=1, data=[39, 0]),
   midi.NoteOnEvent(tick=0, channel=1, data=[27, 0]),
   midi.NoteOnEvent(tick=60, channel=1, data=[47, 77]),
   midi.NoteOnEvent(tick=0, channel=1, data=[28, 127]),
   midi.NoteOnEvent(tick=0, channel=1, data=[40, 92]),
   midi.NoteOnEvent(tick=0, channel=1, data=[59, 72]),
   midi.NoteOnEvent(tick=30, channel=1, data=[59, 0]),
   midi.NoteOnEvent(tick=0, channel=1, data=[47, 0]),
   midi.NoteOnEvent(tick=0, channel=1, data=[28, 0]),
   midi.NoteOnEvent(tick=0, channel=1, data=[40, 0]),
   midi.NoteOnEvent(tick=60, channel=1, data=[59, 46]),
   midi.NoteOnEvent(tick=0, channel=1, data=[28, 107]),
   midi.NoteOnEvent(tick=0, channel=1, data=[40, 81]),
   midi.NoteOnEvent(tick=0, channel=1, data=[47, 47]),
   midi.NoteOnEvent(tick=0, channel=1, data=[52, 39]),
   midi.NoteOnEvent(tick=30, channel=1, data=[52, 0]),
   midi.NoteOnEvent(tick=0, channel=1, data=[40, 0]),
   midi.NoteOnEvent(tick=0, channel=1, data=[59, 0]),
   midi.NoteOnEvent(tick=0, channel=1, data=[28, 0]),
   midi.NoteOnEvent(tick=0, channel=1, data=[47, 0]),
   midi.NoteOnEvent(tick=60, channel=1, data=[59, 64]),
   midi.NoteOnEvent(tick=0, channel=1, data=[40, 96]),
   midi.NoteOnEvent(tick=0, channel=1, data=[28, 123]),
   midi.NoteOnEvent(tick=0, channel=1, data=[47, 75]),
   midi.NoteOnEvent(tick=30, channel=1, data=[47, 0]),
   midi.NoteOnEvent(tick=0, channel=1, data=[59, 0]),
   midi.NoteOnEvent(tick=0, channel=1, data=[40, 0]),
   midi.NoteOnEvent(tick=0, channel=1, data=[28, 0]),
   midi.NoteOnEvent(tick=150, channel=1, data=[51, 58]),
   midi.NoteOnEvent(tick=0, channel=1, data=[63, 71]),
   midi.NoteOnEvent(tick=0, channel=1, data=[44, 110]),
   midi.NoteOnEvent(tick=0, channel=1, data=[32, 123]),
   midi.NoteOnEvent(tick=30, channel=1, data=[32, 0]),
   midi.NoteOnEvent(tick=0, channel=1, data=[51, 0]),
   midi.NoteOnEvent(tick=0, channel=1, data=[63, 0]),
   midi.NoteOnEvent(tick=0, channel=1, data=[44, 0]),
   midi.NoteOnEvent(tick=60, channel=1, data=[63, 63]),
   midi.NoteOnEvent(tick=0, channel=1, data=[51, 58]),
   midi.NoteOnEvent(tick=0, channel=1, data=[32, 126]),
   midi.NoteOnEvent(tick=0, channel=1, data=[44, 107]),
   midi.NoteOnEvent(tick=30, channel=1, data=[44, 0]),
   midi.NoteOnEvent(tick=0, channel=1, data=[63, 0]),
   midi.NoteOnEvent(tick=0, channel=1, data=[51, 0]),
   midi.NoteOnEvent(tick=0, channel=1, data=[32, 0]),
   midi.NoteOnEvent(tick=60, channel=1, data=[25, 119]),
   midi.NoteOnEvent(tick=0, channel=1, data=[44, 70]),
   midi.NoteOnEvent(tick=0, channel=1, data=[37, 82]),
   midi.NoteOnEvent(tick=0, channel=1, data=[56, 51]),
   midi.NoteOnEvent(tick=30, channel=1, data=[56, 0]),
   midi.NoteOnEvent(tick=0, channel=1, data=[25, 0]),
   midi.NoteOnEvent(tick=0, channel=1, data=[44, 0]),
   midi.NoteOnEvent(tick=0, channel=1, data=[37, 0]),
   midi.NoteOnEvent(tick=30, channel=1, data=[56, 46]),
   midi.NoteOnEvent(tick=0, channel=1, data=[40, 57]),
   midi.NoteOnEvent(tick=0, channel=1, data=[59, 57]),
   midi.NoteOnEvent(tick=0, channel=1, data=[47, 63]),
   midi.NoteOnEvent(tick=0, channel=1, data=[28, 114]),
   midi.NoteOnEvent(tick=30, channel=1, data=[28, 0]),
   midi.NoteOnEvent(tick=0, channel=1, data=[59, 0]),
   midi.NoteOnEvent(tick=0, channel=1, data=[56, 0]),
   midi.NoteOnEvent(tick=0, channel=1, data=[40, 0]),
   midi.NoteOnEvent(tick=0, channel=1, data=[47, 0]),
   midi.NoteOnEvent(tick=60, channel=1, data=[47, 75]),
   midi.NoteOnEvent(tick=0, channel=1, data=[59, 63]),
   midi.NoteOnEvent(tick=0, channel=1, data=[28, 121]),
   midi.NoteOnEvent(tick=0, channel=1, data=[40, 105]),
   midi.NoteOnEvent(tick=30, channel=1, data=[40, 0]),
   midi.NoteOnEvent(tick=0, channel=1, data=[47, 0]),
   midi.NoteOnEvent(tick=0, channel=1, data=[59, 0]),
   midi.NoteOnEvent(tick=0, channel=1, data=[28, 0]),
   midi.NoteOnEvent(tick=60, channel=1, data=[42, 78]),
   midi.NoteOnEvent(tick=0, channel=1, data=[54, 40]),
   midi.NoteOnEvent(tick=0, channel=1, data=[49, 43]),
   midi.NoteOnEvent(tick=0, channel=1, data=[30, 109]),
   midi.NoteOnEvent(tick=0, channel=1, data=[61, 51]),
   midi.NoteOnEvent(tick=30, channel=1, data=[61, 0]),
   midi.NoteOnEvent(tick=0, channel=1, data=[49, 0]),
   midi.NoteOnEvent(tick=0, channel=1, data=[42, 0]),
   midi.NoteOnEvent(tick=0, channel=1, data=[54, 0]),
   midi.NoteOnEvent(tick=0, channel=1, data=[30, 0]),
   midi.NoteOnEvent(tick=60, channel=1, data=[30, 119]),
   midi.NoteOnEvent(tick=0, channel=1, data=[42, 96]),
   midi.NoteOnEvent(tick=0, channel=1, data=[49, 49]),
   midi.NoteOnEvent(tick=30, channel=1, data=[49, 0]),
   midi.NoteOnEvent(tick=0, channel=1, data=[42, 0]),
   midi.NoteOnEvent(tick=0, channel=1, data=[30, 0]),
   midi.NoteOnEvent(tick=60, channel=1, data=[49, 74]),
   midi.NoteOnEvent(tick=0, channel=1, data=[42, 107]),
   midi.NoteOnEvent(tick=0, channel=1, data=[30, 127]),
   midi.NoteOnEvent(tick=30, channel=1, data=[30, 0]),
   midi.NoteOnEvent(tick=0, channel=1, data=[42, 0]),
   midi.NoteOnEvent(tick=0, channel=1, data=[49, 0]),
   midi.NoteOnEvent(tick=60, channel=1, data=[30, 112]),
   midi.NoteOnEvent(tick=0, channel=1, data=[49, 46]),
   midi.NoteOnEvent(tick=0, channel=1, data=[42, 110]),
   midi.NoteOnEvent(tick=30, channel=1, data=[42, 0]),
   midi.NoteOnEvent(tick=0, channel=1, data=[49, 0]),
   midi.NoteOnEvent(tick=0, channel=1, data=[30, 0]),
   midi.NoteOnEvent(tick=60, channel=1, data=[30, 120]),
   midi.NoteOnEvent(tick=0, channel=1, data=[42, 105]),
   midi.NoteOnEvent(tick=0, channel=1, data=[49, 56]),
   midi.NoteOnEvent(tick=30, channel=1, data=[49, 0]),
   midi.NoteOnEvent(tick=0, channel=1, data=[42, 0]),
   midi.NoteOnEvent(tick=0, channel=1, data=[30, 0]),
   midi.NoteOnEvent(tick=30, channel=1, data=[51, 63]),
   midi.NoteOnEvent(tick=0, channel=1, data=[32, 127]),
   midi.NoteOnEvent(tick=0, channel=1, data=[44, 95]),
   midi.NoteOnEvent(tick=30, channel=1, data=[44, 0]),
   midi.NoteOnEvent(tick=0, channel=1, data=[32, 0]),
   midi.NoteOnEvent(tick=0, channel=1, data=[51, 0]),
   midi.NoteOnEvent(tick=0, channel=1, data=[42, 107]),
   midi.NoteOnEvent(tick=0, channel=1, data=[30, 119]),
   midi.NoteOnEvent(tick=30, channel=1, data=[30, 0]),
   midi.NoteOnEvent(tick=0, channel=1, data=[42, 0]),
   midi.NoteOnEvent(tick=0, channel=1, data=[28, 116]),
   midi.NoteOnEvent(tick=0, channel=1, data=[52, 44]),
   midi.NoteOnEvent(tick=0, channel=1, data=[47, 46]),
   midi.NoteOnEvent(tick=0, channel=1, data=[40, 78]),
   midi.NoteOnEvent(tick=0, channel=1, data=[59, 57]),
   midi.NoteOnEvent(tick=30, channel=1, data=[40, 0]),
   midi.NoteOnEvent(tick=0, channel=1, data=[47, 0]),
   midi.NoteOnEvent(tick=0, channel=1, data=[28, 0]),
   midi.NoteOnEvent(tick=0, channel=1, data=[52, 0]),
   midi.NoteOnEvent(tick=30, channel=1, data=[59, 0]),
   midi.NoteOnEvent(tick=0, channel=1, data=[25, 112]),
   midi.NoteOnEvent(tick=0, channel=1, data=[37, 93]),
   midi.NoteOnEvent(tick=0, channel=1, data=[44, 64]),
   midi.NoteOnEvent(tick=0, channel=1, data=[56, 46]),
   midi.NoteOnEvent(tick=30, channel=1, data=[56, 0]),
   midi.NoteOnEvent(tick=0, channel=1, data=[25, 0]),
   midi.NoteOnEvent(tick=0, channel=1, data=[37, 0]),
   midi.NoteOnEvent(tick=0, channel=1, data=[44, 0]),
   midi.NoteOnEvent(tick=60, channel=1, data=[25, 120]),
   midi.NoteOnEvent(tick=0, channel=1, data=[44, 79]),
   midi.NoteOnEvent(tick=0, channel=1, data=[56, 71]),
   midi.NoteOnEvent(tick=0, channel=1, data=[37, 106]),
   midi.NoteOnEvent(tick=30, channel=1, data=[37, 0]),
   midi.NoteOnEvent(tick=0, channel=1, data=[25, 0]),
   midi.NoteOnEvent(tick=0, channel=1, data=[44, 0]),
   midi.NoteOnEvent(tick=0, channel=1, data=[56, 0]),
   midi.NoteOnEvent(tick=60, channel=1, data=[44, 82]),
   midi.NoteOnEvent(tick=0, channel=1, data=[51, 51]),
   midi.NoteOnEvent(tick=0, channel=1, data=[63, 57]),
   midi.NoteOnEvent(tick=0, channel=1, data=[32, 114]),
   midi.NoteOnEvent(tick=30, channel=1, data=[32, 0]),
   midi.NoteOnEvent(tick=0, channel=1, data=[44, 0]),
   midi.NoteOnEvent(tick=0, channel=1, data=[51, 0]),
   midi.NoteOnEvent(tick=0, channel=1, data=[63, 0]),
   midi.NoteOnEvent(tick=30, channel=1, data=[30, 113]),
   midi.NoteOnEvent(tick=0, channel=1, data=[49, 49]),
   midi.NoteOnEvent(tick=0, channel=1, data=[42, 91]),
   midi.NoteOnEvent(tick=30, channel=1, data=[42, 0]),
   midi.NoteOnEvent(tick=0, channel=1, data=[49, 0]),
   midi.NoteOnEvent(tick=0, channel=1, data=[30, 0]),
   midi.NoteOnEvent(tick=60, channel=1, data=[42, 112]),
   midi.NoteOnEvent(tick=0, channel=1, data=[49, 70]),
   midi.NoteOnEvent(tick=0, channel=1, data=[30, 127]),
   midi.NoteOnEvent(tick=30, channel=1, data=[30, 0]),
   midi.NoteOnEvent(tick=0, channel=1, data=[49, 0]),
   midi.NoteOnEvent(tick=0, channel=1, data=[42, 0]),
   midi.NoteOnEvent(tick=60, channel=1, data=[46, 46]),
   midi.NoteOnEvent(tick=0, channel=1, data=[39, 100]),
   midi.NoteOnEvent(tick=0, channel=1, data=[58, 50]),
   midi.NoteOnEvent(tick=0, channel=1, data=[27, 110]),
   midi.NoteOnEvent(tick=30, channel=1, data=[27, 0]),
   midi.NoteOnEvent(tick=0, channel=1, data=[46, 0]),
   midi.NoteOnEvent(tick=0, channel=1, data=[39, 0]),
   midi.NoteOnEvent(tick=0, channel=1, data=[58, 0]),
   midi.NoteOnEvent(tick=60, channel=1, data=[39, 81]),
   midi.NoteOnEvent(tick=0, channel=1, data=[27, 112]),
   midi.NoteOnEvent(tick=0, channel=1, data=[46, 65]),
   midi.NoteOnEvent(tick=0, channel=1, data=[58, 47]),
   midi.NoteOnEvent(tick=30, channel=1, data=[58, 0]),
   midi.NoteOnEvent(tick=0, channel=1, data=[39, 0]),
   midi.NoteOnEvent(tick=0, channel=1, data=[27, 0]),
   midi.NoteOnEvent(tick=0, channel=1, data=[46, 0]),
   midi.NoteOnEvent(tick=60, channel=1, data=[47, 77]),
   midi.NoteOnEvent(tick=0, channel=1, data=[59, 72]),
   midi.NoteOnEvent(tick=0, channel=1, data=[28, 127]),
   midi.NoteOnEvent(tick=0, channel=1, data=[40, 92]),
   midi.NoteOnEvent(tick=30, channel=1, data=[40, 0]),
   midi.NoteOnEvent(tick=0, channel=1, data=[47, 0]),
   midi.NoteOnEvent(tick=0, channel=1, data=[59, 0]),
   midi.NoteOnEvent(tick=0, channel=1, data=[28, 0]),
   midi.NoteOnEvent(tick=60, channel=1, data=[52, 39]),
   midi.NoteOnEvent(tick=0, channel=1, data=[40, 81]),
   midi.NoteOnEvent(tick=0, channel=1, data=[47, 47]),
   midi.NoteOnEvent(tick=0, channel=1, data=[28, 107]),
   midi.NoteOnEvent(tick=0, channel=1, data=[59, 46]),
   midi.NoteOnEvent(tick=30, channel=1, data=[59, 0]),
   midi.NoteOnEvent(tick=0, channel=1, data=[47, 0]),
   midi.NoteOnEvent(tick=0, channel=1, data=[52, 0]),
   midi.NoteOnEvent(tick=0, channel=1, data=[40, 0]),
   midi.NoteOnEvent(tick=0, channel=1, data=[28, 0]),
   midi.NoteOnEvent(tick=60, channel=1, data=[47, 75]),
   midi.NoteOnEvent(tick=0, channel=1, data=[28, 123]),
   midi.NoteOnEvent(tick=0, channel=1, data=[40, 96]),
   midi.NoteOnEvent(tick=0, channel=1, data=[59, 64]),
   midi.NoteOnEvent(tick=30, channel=1, data=[59, 0]),
   midi.NoteOnEvent(tick=0, channel=1, data=[47, 0]),
   midi.NoteOnEvent(tick=0, channel=1, data=[28, 0]),
   midi.NoteOnEvent(tick=0, channel=1, data=[40, 0]),
   midi.NoteOnEvent(tick=60, channel=1, data=[59, 53]),
   midi.NoteOnEvent(tick=0, channel=1, data=[40, 103]),
   midi.NoteOnEvent(tick=0, channel=1, data=[28, 114]),
   midi.NoteOnEvent(tick=0, channel=1, data=[47, 54]),
   midi.NoteOnEvent(tick=30, channel=1, data=[47, 0]),
   midi.NoteOnEvent(tick=0, channel=1, data=[59, 0]),
   midi.NoteOnEvent(tick=0, channel=1, data=[40, 0]),
   midi.NoteOnEvent(tick=0, channel=1, data=[28, 0]),
   midi.NoteOnEvent(tick=60, channel=1, data=[32, 123]),
   midi.NoteOnEvent(tick=0, channel=1, data=[44, 110]),
   midi.NoteOnEvent(tick=0, channel=1, data=[51, 58]),
   midi.NoteOnEvent(tick=0, channel=1, data=[63, 71]),
   midi.NoteOnEvent(tick=30, channel=1, data=[63, 0]),
   midi.NoteOnEvent(tick=0, channel=1, data=[32, 0]),
   midi.NoteOnEvent(tick=0, channel=1, data=[44, 0]),
   midi.NoteOnEvent(tick=0, channel=1, data=[51, 0]),
   midi.NoteOnEvent(tick=60, channel=1, data=[32, 126]),
   midi.NoteOnEvent(tick=0, channel=1, data=[44, 107]),
   midi.NoteOnEvent(tick=0, channel=1, data=[51, 58]),
   midi.NoteOnEvent(tick=0, channel=1, data=[63, 63]),
   midi.NoteOnEvent(tick=30, channel=1, data=[63, 0]),
   midi.NoteOnEvent(tick=0, channel=1, data=[32, 0]),
   midi.NoteOnEvent(tick=0, channel=1, data=[44, 0]),
   midi.NoteOnEvent(tick=0, channel=1, data=[51, 0]),
   midi.NoteOnEvent(tick=60, channel=1, data=[44, 70]),
   midi.NoteOnEvent(tick=0, channel=1, data=[25, 119]),
   midi.NoteOnEvent(tick=0, channel=1, data=[56, 51]),
   midi.NoteOnEvent(tick=0, channel=1, data=[37, 82]),
   midi.NoteOnEvent(tick=30, channel=1, data=[37, 0]),
   midi.NoteOnEvent(tick=0, channel=1, data=[44, 0]),
   midi.NoteOnEvent(tick=0, channel=1, data=[25, 0]),
   midi.NoteOnEvent(tick=0, channel=1, data=[56, 0]),
   midi.NoteOnEvent(tick=30, channel=1, data=[47, 63]),
   midi.NoteOnEvent(tick=0, channel=1, data=[56, 46]),
   midi.NoteOnEvent(tick=0, channel=1, data=[59, 57]),
   midi.NoteOnEvent(tick=0, channel=1, data=[40, 57]),
   midi.NoteOnEvent(tick=0, channel=1, data=[28, 114]),
   midi.NoteOnEvent(tick=30, channel=1, data=[28, 0]),
   midi.NoteOnEvent(tick=0, channel=1, data=[59, 0]),
   midi.NoteOnEvent(tick=0, channel=1, data=[47, 0]),
   midi.NoteOnEvent(tick=0, channel=1, data=[56, 0]),
   midi.NoteOnEvent(tick=0, channel=1, data=[40, 0]),
   midi.NoteOnEvent(tick=60, channel=1, data=[59, 63]),
   midi.NoteOnEvent(tick=0, channel=1, data=[47, 75]),
   midi.NoteOnEvent(tick=0, channel=1, data=[40, 105]),
   midi.NoteOnEvent(tick=0, channel=1, data=[28, 121]),
   midi.NoteOnEvent(tick=30, channel=1, data=[28, 0]),
   midi.NoteOnEvent(tick=0, channel=1, data=[59, 0]),
   midi.NoteOnEvent(tick=0, channel=1, data=[47, 0]),
   midi.NoteOnEvent(tick=0, channel=1, data=[40, 0]),
   midi.NoteOnEvent(tick=60, channel=1, data=[42, 78]),
   midi.NoteOnEvent(tick=0, channel=1, data=[54, 40]),
   midi.NoteOnEvent(tick=0, channel=1, data=[61, 51]),
   midi.NoteOnEvent(tick=0, channel=1, data=[49, 43]),
   midi.NoteOnEvent(tick=0, channel=1, data=[30, 109]),
   midi.NoteOnEvent(tick=30, channel=1, data=[30, 0]),
   midi.NoteOnEvent(tick=0, channel=1, data=[61, 0]),
   midi.NoteOnEvent(tick=0, channel=1, data=[42, 0]),
   midi.NoteOnEvent(tick=0, channel=1, data=[54, 0]),
   midi.NoteOnEvent(tick=0, channel=1, data=[49, 0]),
   midi.NoteOnEvent(tick=60, channel=1, data=[49, 49]),
   midi.NoteOnEvent(tick=0, channel=1, data=[42, 96]),
   midi.NoteOnEvent(tick=0, channel=1, data=[30, 119]),
   midi.NoteOnEvent(tick=30, channel=1, data=[30, 0]),
   midi.NoteOnEvent(tick=0, channel=1, data=[42, 0]),
   midi.NoteOnEvent(tick=0, channel=1, data=[49, 0]),
   midi.NoteOnEvent(tick=60, channel=1, data=[42, 107]),
   midi.NoteOnEvent(tick=0, channel=1, data=[49, 74]),
   midi.NoteOnEvent(tick=0, channel=1, data=[30, 127]),
   midi.NoteOnEvent(tick=30, channel=1, data=[30, 0]),
   midi.NoteOnEvent(tick=0, channel=1, data=[49, 0]),
   midi.NoteOnEvent(tick=0, channel=1, data=[42, 0]),
   midi.NoteOnEvent(tick=60, channel=1, data=[42, 110]),
   midi.NoteOnEvent(tick=0, channel=1, data=[30, 112]),
   midi.NoteOnEvent(tick=0, channel=1, data=[49, 46]),
   midi.NoteOnEvent(tick=30, channel=1, data=[49, 0]),
   midi.NoteOnEvent(tick=0, channel=1, data=[30, 0]),
   midi.NoteOnEvent(tick=0, channel=1, data=[42, 0]),
   midi.NoteOnEvent(tick=60, channel=1, data=[30, 120]),
   midi.NoteOnEvent(tick=0, channel=1, data=[42, 105]),
   midi.NoteOnEvent(tick=0, channel=1, data=[49, 56]),
   midi.NoteOnEvent(tick=30, channel=1, data=[49, 0]),
   midi.NoteOnEvent(tick=0, channel=1, data=[42, 0]),
   midi.NoteOnEvent(tick=0, channel=1, data=[30, 0]),
   midi.NoteOnEvent(tick=30, channel=1, data=[51, 63]),
   midi.NoteOnEvent(tick=0, channel=1, data=[44, 95]),
   midi.NoteOnEvent(tick=0, channel=1, data=[32, 127]),
   midi.NoteOnEvent(tick=30, channel=1, data=[32, 0]),
   midi.NoteOnEvent(tick=0, channel=1, data=[44, 0]),
   midi.NoteOnEvent(tick=0, channel=1, data=[51, 0]),
   midi.NoteOnEvent(tick=0, channel=1, data=[30, 119]),
   midi.NoteOnEvent(tick=0, channel=1, data=[42, 107]),
   midi.NoteOnEvent(tick=30, channel=1, data=[42, 0]),
   midi.NoteOnEvent(tick=0, channel=1, data=[30, 0]),
   midi.NoteOnEvent(tick=0, channel=1, data=[28, 116]),
   midi.NoteOnEvent(tick=0, channel=1, data=[47, 46]),
   midi.NoteOnEvent(tick=0, channel=1, data=[40, 78]),
   midi.NoteOnEvent(tick=0, channel=1, data=[59, 57]),
   midi.NoteOnEvent(tick=0, channel=1, data=[52, 44]),
   midi.NoteOnEvent(tick=30, channel=1, data=[52, 0]),
   midi.NoteOnEvent(tick=0, channel=1, data=[40, 0]),
   midi.NoteOnEvent(tick=0, channel=1, data=[28, 0]),
   midi.NoteOnEvent(tick=0, channel=1, data=[47, 0]),
   midi.NoteOnEvent(tick=0, channel=1, data=[59, 0]),
   midi.NoteOnEvent(tick=30, channel=1, data=[44, 64]),
   midi.NoteOnEvent(tick=0, channel=1, data=[56, 46]),
   midi.NoteOnEvent(tick=0, channel=1, data=[37, 93]),
   midi.NoteOnEvent(tick=0, channel=1, data=[25, 112]),
   midi.NoteOnEvent(tick=30, channel=1, data=[25, 0]),
   midi.NoteOnEvent(tick=0, channel=1, data=[44, 0]),
   midi.NoteOnEvent(tick=0, channel=1, data=[56, 0]),
   midi.NoteOnEvent(tick=0, channel=1, data=[37, 0]),
   midi.NoteOnEvent(tick=60, channel=1, data=[56, 71]),
   midi.NoteOnEvent(tick=0, channel=1, data=[56, 0]),
   midi.NoteOnEvent(tick=0, channel=1, data=[37, 106]),
   midi.NoteOnEvent(tick=0, channel=1, data=[37, 0]),
   midi.NoteOnEvent(tick=0, channel=1, data=[44, 79]),
   midi.NoteOnEvent(tick=0, channel=1, data=[44, 0]),
   midi.NoteOnEvent(tick=0, channel=1, data=[25, 120]),
   midi.NoteOnEvent(tick=0, channel=1, data=[25, 0]),
   midi.NoteOnEvent(tick=60, channel=1, data=[37, 106]),
   midi.NoteOnEvent(tick=0, channel=1, data=[37, 0]),
   midi.NoteOnEvent(tick=0, channel=1, data=[25, 120]),
   midi.NoteOnEvent(tick=0, channel=1, data=[25, 0]),
   midi.NoteOnEvent(tick=0, channel=1, data=[56, 71]),
   midi.NoteOnEvent(tick=0, channel=1, data=[56, 0]),
   midi.NoteOnEvent(tick=0, channel=1, data=[44, 79]),
   midi.NoteOnEvent(tick=0, channel=1, data=[44, 0]),
   midi.NoteOnEvent(tick=30, channel=1, data=[32, 114]),
   midi.NoteOnEvent(tick=0, channel=1, data=[63, 57]),
   midi.NoteOnEvent(tick=0, channel=1, data=[44, 82]),
   midi.NoteOnEvent(tick=0, channel=1, data=[51, 51]),
   midi.NoteOnEvent(tick=30, channel=1, data=[51, 0]),
   midi.NoteOnEvent(tick=0, channel=1, data=[32, 0]),
   midi.NoteOnEvent(tick=0, channel=1, data=[63, 0]),
   midi.NoteOnEvent(tick=0, channel=1, data=[44, 0]),
   midi.NoteOnEvent(tick=30, channel=1, data=[42, 91]),
   midi.NoteOnEvent(tick=0, channel=1, data=[30, 113]),
   midi.NoteOnEvent(tick=0, channel=1, data=[49, 49]),
   midi.NoteOnEvent(tick=30, channel=1, data=[49, 0]),
   midi.NoteOnEvent(tick=0, channel=1, data=[30, 0]),
   midi.NoteOnEvent(tick=0, channel=1, data=[42, 0]),
   midi.NoteOnEvent(tick=60, channel=1, data=[49, 70]),
   midi.NoteOnEvent(tick=0, channel=1, data=[30, 127]),
   midi.NoteOnEvent(tick=0, channel=1, data=[42, 112]),
   midi.NoteOnEvent(tick=30, channel=1, data=[42, 0]),
   midi.NoteOnEvent(tick=0, channel=1, data=[30, 0]),
   midi.NoteOnEvent(tick=0, channel=1, data=[49, 0]),
   midi.NoteOnEvent(tick=60, channel=1, data=[39, 100]),
   midi.NoteOnEvent(tick=0, channel=1, data=[27, 110]),
   midi.NoteOnEvent(tick=0, channel=1, data=[46, 46]),
   midi.NoteOnEvent(tick=0, channel=1, data=[58, 50]),
   midi.NoteOnEvent(tick=30, channel=1, data=[58, 0]),
   midi.NoteOnEvent(tick=0, channel=1, data=[39, 0]),
   midi.NoteOnEvent(tick=0, channel=1, data=[27, 0]),
   midi.NoteOnEvent(tick=0, channel=1, data=[46, 0]),
   midi.NoteOnEvent(tick=60, channel=1, data=[46, 65]),
   midi.NoteOnEvent(tick=0, channel=1, data=[39, 81]),
   midi.NoteOnEvent(tick=0, channel=1, data=[27, 112]),
   midi.NoteOnEvent(tick=0, channel=1, data=[58, 47]),
   midi.NoteOnEvent(tick=30, channel=1, data=[58, 0]),
   midi.NoteOnEvent(tick=0, channel=1, data=[46, 0]),
   midi.NoteOnEvent(tick=0, channel=1, data=[39, 0]),
   midi.NoteOnEvent(tick=0, channel=1, data=[27, 0]),
   midi.NoteOnEvent(tick=60, channel=1, data=[47, 77]),
   midi.NoteOnEvent(tick=0, channel=1, data=[28, 127]),
   midi.NoteOnEvent(tick=0, channel=1, data=[40, 92]),
   midi.NoteOnEvent(tick=0, channel=1, data=[59, 72]),
   midi.NoteOnEvent(tick=30, channel=1, data=[59, 0]),
   midi.NoteOnEvent(tick=0, channel=1, data=[47, 0]),
   midi.NoteOnEvent(tick=0, channel=1, data=[28, 0]),
   midi.NoteOnEvent(tick=0, channel=1, data=[40, 0]),
   midi.NoteOnEvent(tick=60, channel=1, data=[59, 46]),
   midi.NoteOnEvent(tick=0, channel=1, data=[28, 107]),
   midi.NoteOnEvent(tick=0, channel=1, data=[40, 81]),
   midi.NoteOnEvent(tick=0, channel=1, data=[47, 47]),
   midi.NoteOnEvent(tick=0, channel=1, data=[52, 39]),
   midi.NoteOnEvent(tick=30, channel=1, data=[52, 0]),
   midi.NoteOnEvent(tick=0, channel=1, data=[40, 0]),
   midi.NoteOnEvent(tick=0, channel=1, data=[59, 0]),
   midi.NoteOnEvent(tick=0, channel=1, data=[28, 0]),
   midi.NoteOnEvent(tick=0, channel=1, data=[47, 0]),
   midi.NoteOnEvent(tick=60, channel=1, data=[59, 64]),
   midi.NoteOnEvent(tick=0, channel=1, data=[40, 96]),
   midi.NoteOnEvent(tick=0, channel=1, data=[28, 123]),
   midi.NoteOnEvent(tick=0, channel=1, data=[47, 75]),
   midi.NoteOnEvent(tick=30, channel=1, data=[47, 0]),
   midi.NoteOnEvent(tick=0, channel=1, data=[59, 0]),
   midi.NoteOnEvent(tick=0, channel=1, data=[40, 0]),
   midi.NoteOnEvent(tick=0, channel=1, data=[28, 0]),
   midi.NoteOnEvent(tick=150, channel=1, data=[47, 77]),
   midi.NoteOnEvent(tick=0, channel=1, data=[40, 92]),
   midi.NoteOnEvent(tick=30, channel=1, data=[40, 0]),
   midi.NoteOnEvent(tick=0, channel=1, data=[47, 0]),
   midi.NoteOnEvent(tick=60, channel=1, data=[40, 81]),
   midi.NoteOnEvent(tick=0, channel=1, data=[47, 47]),
   midi.NoteOnEvent(tick=0, channel=1, data=[52, 39]),
   midi.NoteOnEvent(tick=30, channel=1, data=[52, 0]),
   midi.NoteOnEvent(tick=0, channel=1, data=[47, 0]),
   midi.NoteOnEvent(tick=0, channel=1, data=[40, 0]),
   midi.NoteOnEvent(tick=60, channel=1, data=[40, 96]),
   midi.NoteOnEvent(tick=0, channel=1, data=[47, 75]),
   midi.NoteOnEvent(tick=30, channel=1, data=[47, 0]),
   midi.NoteOnEvent(tick=0, channel=1, data=[40, 0]),
   midi.NoteOnEvent(tick=30, channel=1, data=[42, 91]),
   midi.NoteOnEvent(tick=0, channel=1, data=[49, 49]),
   midi.NoteOnEvent(tick=0, channel=1, data=[30, 113]),
   midi.NoteOnEvent(tick=30, channel=1, data=[30, 0]),
   midi.NoteOnEvent(tick=0, channel=1, data=[49, 0]),
   midi.NoteOnEvent(tick=0, channel=1, data=[42, 0]),
   midi.NoteOnEvent(tick=60, channel=1, data=[49, 70]),
   midi.NoteOnEvent(tick=0, channel=1, data=[30, 127]),
   midi.NoteOnEvent(tick=0, channel=1, data=[42, 112]),
   midi.NoteOnEvent(tick=30, channel=1, data=[42, 0]),
   midi.NoteOnEvent(tick=0, channel=1, data=[30, 0]),
   midi.NoteOnEvent(tick=0, channel=1, data=[49, 0]),
   midi.NoteOnEvent(tick=60, channel=1, data=[63, 71]),
   midi.NoteOnEvent(tick=0, channel=1, data=[44, 110]),
   midi.NoteOnEvent(tick=0, channel=1, data=[51, 58]),
   midi.NoteOnEvent(tick=0, channel=1, data=[32, 123]),
   midi.NoteOnEvent(tick=30, channel=1, data=[32, 0]),
   midi.NoteOnEvent(tick=0, channel=1, data=[63, 0]),
   midi.NoteOnEvent(tick=0, channel=1, data=[44, 0]),
   midi.NoteOnEvent(tick=0, channel=1, data=[51, 0]),
   midi.NoteOnEvent(tick=60, channel=1, data=[32, 126]),
   midi.NoteOnEvent(tick=0, channel=1, data=[44, 107]),
   midi.NoteOnEvent(tick=0, channel=1, data=[63, 63]),
   midi.NoteOnEvent(tick=0, channel=1, data=[51, 58]),
   midi.NoteOnEvent(tick=30, channel=1, data=[51, 0]),
   midi.NoteOnEvent(tick=0, channel=1, data=[32, 0]),
   midi.NoteOnEvent(tick=0, channel=1, data=[44, 0]),
   midi.NoteOnEvent(tick=0, channel=1, data=[63, 0]),
   midi.NoteOnEvent(tick=60, channel=1, data=[44, 70]),
   midi.NoteOnEvent(tick=0, channel=1, data=[25, 119]),
   midi.NoteOnEvent(tick=0, channel=1, data=[51, 51]),
   midi.NoteOnEvent(tick=0, channel=1, data=[32, 82]),
   midi.NoteOnEvent(tick=30, channel=1, data=[32, 0]),
   midi.NoteOnEvent(tick=0, channel=1, data=[44, 0]),
   midi.NoteOnEvent(tick=0, channel=1, data=[25, 0]),
   midi.NoteOnEvent(tick=0, channel=1, data=[51, 0]),
   midi.NoteOnEvent(tick=60, channel=1, data=[51, 58]),
   midi.NoteOnEvent(tick=0, channel=1, data=[63, 71]),
   midi.NoteOnEvent(tick=0, channel=1, data=[32, 123]),
   midi.NoteOnEvent(tick=0, channel=1, data=[44, 110]),
   midi.NoteOnEvent(tick=30, channel=1, data=[44, 0]),
   midi.NoteOnEvent(tick=0, channel=1, data=[51, 0]),
   midi.NoteOnEvent(tick=0, channel=1, data=[63, 0]),
   midi.NoteOnEvent(tick=0, channel=1, data=[32, 0]),
   midi.NoteOnEvent(tick=60, channel=1, data=[63, 63]),
   midi.NoteOnEvent(tick=0, channel=1, data=[44, 107]),
   midi.NoteOnEvent(tick=0, channel=1, data=[32, 126]),
   midi.NoteOnEvent(tick=0, channel=1, data=[51, 58]),
   midi.NoteOnEvent(tick=30, channel=1, data=[51, 0]),
   midi.NoteOnEvent(tick=0, channel=1, data=[63, 0]),
   midi.NoteOnEvent(tick=0, channel=1, data=[44, 0]),
   midi.NoteOnEvent(tick=0, channel=1, data=[32, 0]),
   midi.NoteOnEvent(tick=60, channel=1, data=[32, 82]),
   midi.NoteOnEvent(tick=0, channel=1, data=[51, 51]),
   midi.NoteOnEvent(tick=0, channel=1, data=[44, 70]),
   midi.NoteOnEvent(tick=0, channel=1, data=[25, 119]),
   midi.NoteOnEvent(tick=30, channel=1, data=[25, 0]),
   midi.NoteOnEvent(tick=0, channel=1, data=[32, 0]),
   midi.NoteOnEvent(tick=0, channel=1, data=[51, 0]),
   midi.NoteOnEvent(tick=0, channel=1, data=[44, 0]),
   midi.NoteOnEvent(tick=60, channel=1, data=[47, 77]),
   midi.NoteOnEvent(tick=0, channel=1, data=[40, 92]),
   midi.NoteOnEvent(tick=30, channel=1, data=[40, 0]),
   midi.NoteOnEvent(tick=0, channel=1, data=[47, 0]),
   midi.NoteOnEvent(tick=60, channel=1, data=[40, 81]),
   midi.NoteOnEvent(tick=0, channel=1, data=[52, 39]),
   midi.NoteOnEvent(tick=0, channel=1, data=[47, 47]),
   midi.NoteOnEvent(tick=30, channel=1, data=[47, 0]),
   midi.NoteOnEvent(tick=0, channel=1, data=[52, 0]),
   midi.NoteOnEvent(tick=0, channel=1, data=[40, 0]),
   midi.NoteOnEvent(tick=60, channel=1, data=[47, 75]),
   midi.NoteOnEvent(tick=0, channel=1, data=[40, 96]),
   midi.NoteOnEvent(tick=30, channel=1, data=[40, 0]),
   midi.NoteOnEvent(tick=0, channel=1, data=[47, 0]),
   midi.NoteOnEvent(tick=30, channel=1, data=[42, 91]),
   midi.NoteOnEvent(tick=0, channel=1, data=[30, 113]),
   midi.NoteOnEvent(tick=0, channel=1, data=[49, 49]),
   midi.NoteOnEvent(tick=30, channel=1, data=[49, 0]),
   midi.NoteOnEvent(tick=0, channel=1, data=[30, 0]),
   midi.NoteOnEvent(tick=0, channel=1, data=[42, 0]),
   midi.NoteOnEvent(tick=60, channel=1, data=[42, 112]),
   midi.NoteOnEvent(tick=0, channel=1, data=[30, 127]),
   midi.NoteOnEvent(tick=0, channel=1, data=[49, 70]),
   midi.NoteOnEvent(tick=30, channel=1, data=[49, 0]),
   midi.NoteOnEvent(tick=0, channel=1, data=[30, 0]),
   midi.NoteOnEvent(tick=0, channel=1, data=[42, 0]),
   midi.NoteOnEvent(tick=60, channel=1, data=[63, 71]),
   midi.NoteOnEvent(tick=0, channel=1, data=[44, 110]),
   midi.NoteOnEvent(tick=0, channel=1, data=[51, 58]),
   midi.NoteOnEvent(tick=0, channel=1, data=[32, 123]),
   midi.NoteOnEvent(tick=30, channel=1, data=[32, 0]),
   midi.NoteOnEvent(tick=0, channel=1, data=[63, 0]),
   midi.NoteOnEvent(tick=0, channel=1, data=[44, 0]),
   midi.NoteOnEvent(tick=0, channel=1, data=[51, 0]),
   midi.NoteOnEvent(tick=60, channel=1, data=[32, 126]),
   midi.NoteOnEvent(tick=0, channel=1, data=[51, 58]),
   midi.NoteOnEvent(tick=0, channel=1, data=[44, 107]),
   midi.NoteOnEvent(tick=0, channel=1, data=[63, 63]),
   midi.NoteOnEvent(tick=30, channel=1, data=[63, 0]),
   midi.NoteOnEvent(tick=0, channel=1, data=[32, 0]),
   midi.NoteOnEvent(tick=0, channel=1, data=[51, 0]),
   midi.NoteOnEvent(tick=0, channel=1, data=[44, 0]),
   midi.NoteOnEvent(tick=60, channel=1, data=[32, 82]),
   midi.NoteOnEvent(tick=0, channel=1, data=[44, 70]),
   midi.NoteOnEvent(tick=0, channel=1, data=[25, 119]),
   midi.NoteOnEvent(tick=0, channel=1, data=[51, 51]),
   midi.NoteOnEvent(tick=30, channel=1, data=[51, 0]),
   midi.NoteOnEvent(tick=0, channel=1, data=[32, 0]),
   midi.NoteOnEvent(tick=0, channel=1, data=[44, 0]),
   midi.NoteOnEvent(tick=0, channel=1, data=[25, 0]),
   midi.NoteOnEvent(tick=60, channel=1, data=[51, 58]),
   midi.NoteOnEvent(tick=0, channel=1, data=[44, 110]),
   midi.NoteOnEvent(tick=0, channel=1, data=[32, 123]),
   midi.NoteOnEvent(tick=0, channel=1, data=[63, 71]),
   midi.NoteOnEvent(tick=30, channel=1, data=[63, 0]),
   midi.NoteOnEvent(tick=0, channel=1, data=[51, 0]),
   midi.NoteOnEvent(tick=0, channel=1, data=[44, 0]),
   midi.NoteOnEvent(tick=0, channel=1, data=[32, 0]),
   midi.NoteOnEvent(tick=60, channel=1, data=[25, 112]),
   midi.NoteOnEvent(tick=0, channel=1, data=[56, 46]),
   midi.NoteOnEvent(tick=0, channel=1, data=[44, 64]),
   midi.NoteOnEvent(tick=0, channel=1, data=[37, 93]),
   midi.NoteOnEvent(tick=30, channel=1, data=[37, 0]),
   midi.NoteOnEvent(tick=0, channel=1, data=[25, 0]),
   midi.NoteOnEvent(tick=0, channel=1, data=[56, 0]),
   midi.NoteOnEvent(tick=0, channel=1, data=[44, 0]),
   midi.NoteOnEvent(tick=60, channel=1, data=[44, 64]),
   midi.NoteOnEvent(tick=0, channel=1, data=[56, 46]),
   midi.NoteOnEvent(tick=0, channel=1, data=[37, 93]),
   midi.NoteOnEvent(tick=0, channel=1, data=[25, 112]),
   midi.NoteOnEvent(tick=30, channel=1, data=[25, 0]),
   midi.NoteOnEvent(tick=0, channel=1, data=[44, 0]),
   midi.NoteOnEvent(tick=0, channel=1, data=[56, 0]),
   midi.NoteOnEvent(tick=0, channel=1, data=[37, 0]),
   midi.NoteOnEvent(tick=60, channel=1, data=[47, 77]),
   midi.NoteOnEvent(tick=0, channel=1, data=[40, 92]),
   midi.NoteOnEvent(tick=30, channel=1, data=[40, 0]),
   midi.NoteOnEvent(tick=0, channel=1, data=[47, 0]),
   midi.NoteOnEvent(tick=60, channel=1, data=[40, 81]),
   midi.NoteOnEvent(tick=0, channel=1, data=[47, 47]),
   midi.NoteOnEvent(tick=0, channel=1, data=[52, 39]),
   midi.NoteOnEvent(tick=30, channel=1, data=[52, 0]),
   midi.NoteOnEvent(tick=0, channel=1, data=[47, 0]),
   midi.NoteOnEvent(tick=0, channel=1, data=[40, 0]),
   midi.NoteOnEvent(tick=60, channel=1, data=[40, 96]),
   midi.NoteOnEvent(tick=0, channel=1, data=[47, 75]),
   midi.NoteOnEvent(tick=30, channel=1, data=[47, 0]),
   midi.NoteOnEvent(tick=0, channel=1, data=[40, 0]),
   midi.NoteOnEvent(tick=30, channel=1, data=[42, 91]),
   midi.NoteOnEvent(tick=0, channel=1, data=[49, 49]),
   midi.NoteOnEvent(tick=0, channel=1, data=[30, 113]),
   midi.NoteOnEvent(tick=30, channel=1, data=[30, 0]),
   midi.NoteOnEvent(tick=0, channel=1, data=[49, 0]),
   midi.NoteOnEvent(tick=0, channel=1, data=[42, 0]),
   midi.NoteOnEvent(tick=60, channel=1, data=[49, 70]),
   midi.NoteOnEvent(tick=0, channel=1, data=[30, 127]),
   midi.NoteOnEvent(tick=0, channel=1, data=[42, 112]),
   midi.NoteOnEvent(tick=30, channel=1, data=[42, 0]),
   midi.NoteOnEvent(tick=0, channel=1, data=[30, 0]),
   midi.NoteOnEvent(tick=0, channel=1, data=[49, 0]),
   midi.NoteOnEvent(tick=60, channel=1, data=[63, 71]),
   midi.NoteOnEvent(tick=0, channel=1, data=[44, 110]),
   midi.NoteOnEvent(tick=0, channel=1, data=[51, 58]),
   midi.NoteOnEvent(tick=0, channel=1, data=[32, 123]),
   midi.NoteOnEvent(tick=30, channel=1, data=[32, 0]),
   midi.NoteOnEvent(tick=0, channel=1, data=[63, 0]),
   midi.NoteOnEvent(tick=0, channel=1, data=[44, 0]),
   midi.NoteOnEvent(tick=0, channel=1, data=[51, 0]),
   midi.NoteOnEvent(tick=60, channel=1, data=[32, 126]),
   midi.NoteOnEvent(tick=0, channel=1, data=[44, 107]),
   midi.NoteOnEvent(tick=0, channel=1, data=[63, 63]),
   midi.NoteOnEvent(tick=0, channel=1, data=[51, 58]),
   midi.NoteOnEvent(tick=30, channel=1, data=[51, 0]),
   midi.NoteOnEvent(tick=0, channel=1, data=[32, 0]),
   midi.NoteOnEvent(tick=0, channel=1, data=[44, 0]),
   midi.NoteOnEvent(tick=0, channel=1, data=[63, 0]),
   midi.NoteOnEvent(tick=60, channel=1, data=[44, 70]),
   midi.NoteOnEvent(tick=0, channel=1, data=[25, 119]),
   midi.NoteOnEvent(tick=0, channel=1, data=[51, 51]),
   midi.NoteOnEvent(tick=0, channel=1, data=[32, 82]),
   midi.NoteOnEvent(tick=30, channel=1, data=[32, 0]),
   midi.NoteOnEvent(tick=0, channel=1, data=[44, 0]),
   midi.NoteOnEvent(tick=0, channel=1, data=[25, 0]),
   midi.NoteOnEvent(tick=0, channel=1, data=[51, 0]),
   midi.NoteOnEvent(tick=60, channel=1, data=[51, 58]),
   midi.NoteOnEvent(tick=0, channel=1, data=[63, 71]),
   midi.NoteOnEvent(tick=0, channel=1, data=[32, 123]),
   midi.NoteOnEvent(tick=0, channel=1, data=[44, 110]),
   midi.NoteOnEvent(tick=30, channel=1, data=[44, 0]),
   midi.NoteOnEvent(tick=0, channel=1, data=[51, 0]),
   midi.NoteOnEvent(tick=0, channel=1, data=[63, 0]),
   midi.NoteOnEvent(tick=0, channel=1, data=[32, 0]),
   midi.NoteOnEvent(tick=60, channel=1, data=[63, 63]),
   midi.NoteOnEvent(tick=0, channel=1, data=[44, 107]),
   midi.NoteOnEvent(tick=0, channel=1, data=[32, 126]),
   midi.NoteOnEvent(tick=0, channel=1, data=[51, 58]),
   midi.NoteOnEvent(tick=30, channel=1, data=[51, 0]),
   midi.NoteOnEvent(tick=0, channel=1, data=[63, 0]),
   midi.NoteOnEvent(tick=0, channel=1, data=[44, 0]),
   midi.NoteOnEvent(tick=0, channel=1, data=[32, 0]),
   midi.NoteOnEvent(tick=60, channel=1, data=[32, 82]),
   midi.NoteOnEvent(tick=0, channel=1, data=[51, 51]),
   midi.NoteOnEvent(tick=0, channel=1, data=[44, 70]),
   midi.NoteOnEvent(tick=0, channel=1, data=[25, 119]),
   midi.NoteOnEvent(tick=30, channel=1, data=[25, 0]),
   midi.NoteOnEvent(tick=0, channel=1, data=[32, 0]),
   midi.NoteOnEvent(tick=0, channel=1, data=[51, 0]),
   midi.NoteOnEvent(tick=0, channel=1, data=[44, 0]),
   midi.NoteOnEvent(tick=60, channel=1, data=[47, 77]),
   midi.NoteOnEvent(tick=0, channel=1, data=[40, 92]),
   midi.NoteOnEvent(tick=30, channel=1, data=[40, 0]),
   midi.NoteOnEvent(tick=0, channel=1, data=[47, 0]),
   midi.NoteOnEvent(tick=60, channel=1, data=[40, 81]),
   midi.NoteOnEvent(tick=0, channel=1, data=[52, 39]),
   midi.NoteOnEvent(tick=0, channel=1, data=[47, 47]),
   midi.NoteOnEvent(tick=30, channel=1, data=[47, 0]),
   midi.NoteOnEvent(tick=0, channel=1, data=[52, 0]),
   midi.NoteOnEvent(tick=0, channel=1, data=[40, 0]),
   midi.NoteOnEvent(tick=60, channel=1, data=[47, 75]),
   midi.NoteOnEvent(tick=0, channel=1, data=[40, 96]),
   midi.NoteOnEvent(tick=30, channel=1, data=[40, 0]),
   midi.NoteOnEvent(tick=0, channel=1, data=[47, 0]),
   midi.NoteOnEvent(tick=30, channel=1, data=[42, 91]),
   midi.NoteOnEvent(tick=0, channel=1, data=[30, 113]),
   midi.NoteOnEvent(tick=0, channel=1, data=[49, 49]),
   midi.NoteOnEvent(tick=30, channel=1, data=[49, 0]),
   midi.NoteOnEvent(tick=0, channel=1, data=[30, 0]),
   midi.NoteOnEvent(tick=0, channel=1, data=[42, 0]),
   midi.NoteOnEvent(tick=60, channel=1, data=[42, 112]),
   midi.NoteOnEvent(tick=0, channel=1, data=[30, 127]),
   midi.NoteOnEvent(tick=0, channel=1, data=[49, 70]),
   midi.NoteOnEvent(tick=30, channel=1, data=[49, 0]),
   midi.NoteOnEvent(tick=0, channel=1, data=[30, 0]),
   midi.NoteOnEvent(tick=0, channel=1, data=[42, 0]),
   midi.NoteOnEvent(tick=60, channel=1, data=[63, 71]),
   midi.NoteOnEvent(tick=0, channel=1, data=[44, 110]),
   midi.NoteOnEvent(tick=0, channel=1, data=[51, 58]),
   midi.NoteOnEvent(tick=0, channel=1, data=[32, 123]),
   midi.NoteOnEvent(tick=30, channel=1, data=[32, 0]),
   midi.NoteOnEvent(tick=0, channel=1, data=[63, 0]),
   midi.NoteOnEvent(tick=0, channel=1, data=[44, 0]),
   midi.NoteOnEvent(tick=0, channel=1, data=[51, 0]),
   midi.NoteOnEvent(tick=60, channel=1, data=[32, 126]),
   midi.NoteOnEvent(tick=0, channel=1, data=[51, 58]),
   midi.NoteOnEvent(tick=0, channel=1, data=[44, 107]),
   midi.NoteOnEvent(tick=0, channel=1, data=[63, 63]),
   midi.NoteOnEvent(tick=30, channel=1, data=[63, 0]),
   midi.NoteOnEvent(tick=0, channel=1, data=[32, 0]),
   midi.NoteOnEvent(tick=0, channel=1, data=[51, 0]),
   midi.NoteOnEvent(tick=0, channel=1, data=[44, 0]),
   midi.NoteOnEvent(tick=60, channel=1, data=[32, 82]),
   midi.NoteOnEvent(tick=0, channel=1, data=[44, 70]),
   midi.NoteOnEvent(tick=0, channel=1, data=[25, 119]),
   midi.NoteOnEvent(tick=0, channel=1, data=[51, 51]),
   midi.NoteOnEvent(tick=30, channel=1, data=[51, 0]),
   midi.NoteOnEvent(tick=0, channel=1, data=[32, 0]),
   midi.NoteOnEvent(tick=0, channel=1, data=[44, 0]),
   midi.NoteOnEvent(tick=0, channel=1, data=[25, 0]),
   midi.NoteOnEvent(tick=60, channel=1, data=[51, 58]),
   midi.NoteOnEvent(tick=0, channel=1, data=[44, 110]),
   midi.NoteOnEvent(tick=0, channel=1, data=[32, 123]),
   midi.NoteOnEvent(tick=0, channel=1, data=[63, 71]),
   midi.NoteOnEvent(tick=30, channel=1, data=[63, 0]),
   midi.NoteOnEvent(tick=0, channel=1, data=[51, 0]),
   midi.NoteOnEvent(tick=0, channel=1, data=[44, 0]),
   midi.NoteOnEvent(tick=0, channel=1, data=[32, 0]),
   midi.NoteOnEvent(tick=60, channel=1, data=[25, 112]),
   midi.NoteOnEvent(tick=0, channel=1, data=[56, 46]),
   midi.NoteOnEvent(tick=0, channel=1, data=[44, 64]),
   midi.NoteOnEvent(tick=0, channel=1, data=[37, 93]),
   midi.NoteOnEvent(tick=30, channel=1, data=[37, 0]),
   midi.NoteOnEvent(tick=0, channel=1, data=[25, 0]),
   midi.NoteOnEvent(tick=0, channel=1, data=[56, 0]),
   midi.NoteOnEvent(tick=0, channel=1, data=[44, 0]),
   midi.NoteOnEvent(tick=60, channel=1, data=[44, 64]),
   midi.NoteOnEvent(tick=0, channel=1, data=[56, 46]),
   midi.NoteOnEvent(tick=0, channel=1, data=[37, 93]),
   midi.NoteOnEvent(tick=0, channel=1, data=[25, 112]),
   midi.NoteOnEvent(tick=30, channel=1, data=[25, 0]),
   midi.NoteOnEvent(tick=0, channel=1, data=[44, 0]),
   midi.NoteOnEvent(tick=0, channel=1, data=[56, 0]),
   midi.NoteOnEvent(tick=0, channel=1, data=[37, 0]),
   midi.NoteOnEvent(tick=4860, channel=1, data=[47, 77]),
   midi.NoteOnEvent(tick=0, channel=1, data=[40, 92]),
   midi.NoteOnEvent(tick=30, channel=1, data=[40, 0]),
   midi.NoteOnEvent(tick=0, channel=1, data=[47, 0]),
   midi.NoteOnEvent(tick=60, channel=1, data=[40, 81]),
   midi.NoteOnEvent(tick=0, channel=1, data=[47, 47]),
   midi.NoteOnEvent(tick=0, channel=1, data=[52, 39]),
   midi.NoteOnEvent(tick=30, channel=1, data=[52, 0]),
   midi.NoteOnEvent(tick=0, channel=1, data=[47, 0]),
   midi.NoteOnEvent(tick=0, channel=1, data=[40, 0]),
   midi.NoteOnEvent(tick=60, channel=1, data=[40, 96]),
   midi.NoteOnEvent(tick=0, channel=1, data=[47, 75]),
   midi.NoteOnEvent(tick=30, channel=1, data=[47, 0]),
   midi.NoteOnEvent(tick=0, channel=1, data=[40, 0]),
   midi.NoteOnEvent(tick=30, channel=1, data=[42, 91]),
   midi.NoteOnEvent(tick=0, channel=1, data=[49, 49]),
   midi.NoteOnEvent(tick=0, channel=1, data=[30, 113]),
   midi.NoteOnEvent(tick=30, channel=1, data=[30, 0]),
   midi.NoteOnEvent(tick=0, channel=1, data=[49, 0]),
   midi.NoteOnEvent(tick=0, channel=1, data=[42, 0]),
   midi.NoteOnEvent(tick=60, channel=1, data=[49, 70]),
   midi.NoteOnEvent(tick=0, channel=1, data=[30, 127]),
   midi.NoteOnEvent(tick=0, channel=1, data=[42, 112]),
   midi.NoteOnEvent(tick=30, channel=1, data=[42, 0]),
   midi.NoteOnEvent(tick=0, channel=1, data=[30, 0]),
   midi.NoteOnEvent(tick=0, channel=1, data=[49, 0]),
   midi.NoteOnEvent(tick=60, channel=1, data=[63, 71]),
   midi.NoteOnEvent(tick=0, channel=1, data=[44, 110]),
   midi.NoteOnEvent(tick=0, channel=1, data=[51, 58]),
   midi.NoteOnEvent(tick=0, channel=1, data=[32, 123]),
   midi.NoteOnEvent(tick=30, channel=1, data=[32, 0]),
   midi.NoteOnEvent(tick=0, channel=1, data=[63, 0]),
   midi.NoteOnEvent(tick=0, channel=1, data=[44, 0]),
   midi.NoteOnEvent(tick=0, channel=1, data=[51, 0]),
   midi.NoteOnEvent(tick=60, channel=1, data=[32, 126]),
   midi.NoteOnEvent(tick=0, channel=1, data=[44, 107]),
   midi.NoteOnEvent(tick=0, channel=1, data=[63, 63]),
   midi.NoteOnEvent(tick=0, channel=1, data=[51, 58]),
   midi.NoteOnEvent(tick=30, channel=1, data=[51, 0]),
   midi.NoteOnEvent(tick=0, channel=1, data=[32, 0]),
   midi.NoteOnEvent(tick=0, channel=1, data=[44, 0]),
   midi.NoteOnEvent(tick=0, channel=1, data=[63, 0]),
   midi.NoteOnEvent(tick=60, channel=1, data=[44, 70]),
   midi.NoteOnEvent(tick=0, channel=1, data=[25, 119]),
   midi.NoteOnEvent(tick=0, channel=1, data=[51, 51]),
   midi.NoteOnEvent(tick=0, channel=1, data=[32, 82]),
   midi.NoteOnEvent(tick=30, channel=1, data=[32, 0]),
   midi.NoteOnEvent(tick=0, channel=1, data=[44, 0]),
   midi.NoteOnEvent(tick=0, channel=1, data=[25, 0]),
   midi.NoteOnEvent(tick=0, channel=1, data=[51, 0]),
   midi.NoteOnEvent(tick=60, channel=1, data=[51, 58]),
   midi.NoteOnEvent(tick=0, channel=1, data=[63, 71]),
   midi.NoteOnEvent(tick=0, channel=1, data=[32, 123]),
   midi.NoteOnEvent(tick=0, channel=1, data=[44, 110]),
   midi.NoteOnEvent(tick=30, channel=1, data=[44, 0]),
   midi.NoteOnEvent(tick=0, channel=1, data=[51, 0]),
   midi.NoteOnEvent(tick=0, channel=1, data=[63, 0]),
   midi.NoteOnEvent(tick=0, channel=1, data=[32, 0]),
   midi.NoteOnEvent(tick=60, channel=1, data=[63, 63]),
   midi.NoteOnEvent(tick=0, channel=1, data=[44, 107]),
   midi.NoteOnEvent(tick=0, channel=1, data=[32, 126]),
   midi.NoteOnEvent(tick=0, channel=1, data=[51, 58]),
   midi.NoteOnEvent(tick=30, channel=1, data=[51, 0]),
   midi.NoteOnEvent(tick=0, channel=1, data=[63, 0]),
   midi.NoteOnEvent(tick=0, channel=1, data=[44, 0]),
   midi.NoteOnEvent(tick=0, channel=1, data=[32, 0]),
   midi.NoteOnEvent(tick=60, channel=1, data=[32, 82]),
   midi.NoteOnEvent(tick=0, channel=1, data=[51, 51]),
   midi.NoteOnEvent(tick=0, channel=1, data=[44, 70]),
   midi.NoteOnEvent(tick=0, channel=1, data=[25, 119]),
   midi.NoteOnEvent(tick=30, channel=1, data=[25, 0]),
   midi.NoteOnEvent(tick=0, channel=1, data=[32, 0]),
   midi.NoteOnEvent(tick=0, channel=1, data=[51, 0]),
   midi.NoteOnEvent(tick=0, channel=1, data=[44, 0]),
   midi.NoteOnEvent(tick=60, channel=1, data=[47, 77]),
   midi.NoteOnEvent(tick=0, channel=1, data=[40, 92]),
   midi.NoteOnEvent(tick=30, channel=1, data=[40, 0]),
   midi.NoteOnEvent(tick=0, channel=1, data=[47, 0]),
   midi.NoteOnEvent(tick=60, channel=1, data=[40, 81]),
   midi.NoteOnEvent(tick=0, channel=1, data=[52, 39]),
   midi.NoteOnEvent(tick=0, channel=1, data=[47, 47]),
   midi.NoteOnEvent(tick=30, channel=1, data=[47, 0]),
   midi.NoteOnEvent(tick=0, channel=1, data=[52, 0]),
   midi.NoteOnEvent(tick=0, channel=1, data=[40, 0]),
   midi.NoteOnEvent(tick=60, channel=1, data=[47, 75]),
   midi.NoteOnEvent(tick=0, channel=1, data=[40, 96]),
   midi.NoteOnEvent(tick=30, channel=1, data=[40, 0]),
   midi.NoteOnEvent(tick=0, channel=1, data=[47, 0]),
   midi.NoteOnEvent(tick=30, channel=1, data=[42, 91]),
   midi.NoteOnEvent(tick=0, channel=1, data=[30, 113]),
   midi.NoteOnEvent(tick=0, channel=1, data=[49, 49]),
   midi.NoteOnEvent(tick=30, channel=1, data=[49, 0]),
   midi.NoteOnEvent(tick=0, channel=1, data=[30, 0]),
   midi.NoteOnEvent(tick=0, channel=1, data=[42, 0]),
   midi.NoteOnEvent(tick=60, channel=1, data=[42, 112]),
   midi.NoteOnEvent(tick=0, channel=1, data=[30, 127]),
   midi.NoteOnEvent(tick=0, channel=1, data=[49, 70]),
   midi.NoteOnEvent(tick=30, channel=1, data=[49, 0]),
   midi.NoteOnEvent(tick=0, channel=1, data=[30, 0]),
   midi.NoteOnEvent(tick=0, channel=1, data=[42, 0]),
   midi.NoteOnEvent(tick=60, channel=1, data=[63, 71]),
   midi.NoteOnEvent(tick=0, channel=1, data=[44, 110]),
   midi.NoteOnEvent(tick=0, channel=1, data=[51, 58]),
   midi.NoteOnEvent(tick=0, channel=1, data=[32, 123]),
   midi.NoteOnEvent(tick=30, channel=1, data=[32, 0]),
   midi.NoteOnEvent(tick=0, channel=1, data=[63, 0]),
   midi.NoteOnEvent(tick=0, channel=1, data=[44, 0]),
   midi.NoteOnEvent(tick=0, channel=1, data=[51, 0]),
   midi.NoteOnEvent(tick=60, channel=1, data=[32, 126]),
   midi.NoteOnEvent(tick=0, channel=1, data=[51, 58]),
   midi.NoteOnEvent(tick=0, channel=1, data=[44, 107]),
   midi.NoteOnEvent(tick=0, channel=1, data=[63, 63]),
   midi.NoteOnEvent(tick=30, channel=1, data=[63, 0]),
   midi.NoteOnEvent(tick=0, channel=1, data=[32, 0]),
   midi.NoteOnEvent(tick=0, channel=1, data=[51, 0]),
   midi.NoteOnEvent(tick=0, channel=1, data=[44, 0]),
   midi.NoteOnEvent(tick=60, channel=1, data=[32, 82]),
   midi.NoteOnEvent(tick=0, channel=1, data=[44, 70]),
   midi.NoteOnEvent(tick=0, channel=1, data=[25, 119]),
   midi.NoteOnEvent(tick=0, channel=1, data=[51, 51]),
   midi.NoteOnEvent(tick=30, channel=1, data=[51, 0]),
   midi.NoteOnEvent(tick=0, channel=1, data=[32, 0]),
   midi.NoteOnEvent(tick=0, channel=1, data=[44, 0]),
   midi.NoteOnEvent(tick=0, channel=1, data=[25, 0]),
   midi.NoteOnEvent(tick=60, channel=1, data=[51, 58]),
   midi.NoteOnEvent(tick=0, channel=1, data=[44, 110]),
   midi.NoteOnEvent(tick=0, channel=1, data=[32, 123]),
   midi.NoteOnEvent(tick=0, channel=1, data=[63, 71]),
   midi.NoteOnEvent(tick=30, channel=1, data=[63, 0]),
   midi.NoteOnEvent(tick=0, channel=1, data=[51, 0]),
   midi.NoteOnEvent(tick=0, channel=1, data=[44, 0]),
   midi.NoteOnEvent(tick=0, channel=1, data=[32, 0]),
   midi.NoteOnEvent(tick=60, channel=1, data=[25, 112]),
   midi.NoteOnEvent(tick=0, channel=1, data=[56, 46]),
   midi.NoteOnEvent(tick=0, channel=1, data=[44, 64]),
   midi.NoteOnEvent(tick=0, channel=1, data=[37, 93]),
   midi.NoteOnEvent(tick=30, channel=1, data=[37, 0]),
   midi.NoteOnEvent(tick=0, channel=1, data=[25, 0]),
   midi.NoteOnEvent(tick=0, channel=1, data=[56, 0]),
   midi.NoteOnEvent(tick=0, channel=1, data=[44, 0]),
   midi.NoteOnEvent(tick=60, channel=1, data=[44, 64]),
   midi.NoteOnEvent(tick=0, channel=1, data=[56, 46]),
   midi.NoteOnEvent(tick=0, channel=1, data=[37, 93]),
   midi.NoteOnEvent(tick=0, channel=1, data=[25, 112]),
   midi.NoteOnEvent(tick=30, channel=1, data=[25, 0]),
   midi.NoteOnEvent(tick=0, channel=1, data=[44, 0]),
   midi.NoteOnEvent(tick=0, channel=1, data=[56, 0]),
   midi.NoteOnEvent(tick=0, channel=1, data=[37, 0]),
   midi.NoteOnEvent(tick=60, channel=1, data=[47, 77]),
   midi.NoteOnEvent(tick=0, channel=1, data=[40, 92]),
   midi.NoteOnEvent(tick=30, channel=1, data=[40, 0]),
   midi.NoteOnEvent(tick=0, channel=1, data=[47, 0]),
   midi.NoteOnEvent(tick=60, channel=1, data=[40, 81]),
   midi.NoteOnEvent(tick=0, channel=1, data=[47, 47]),
   midi.NoteOnEvent(tick=0, channel=1, data=[52, 39]),
   midi.NoteOnEvent(tick=30, channel=1, data=[52, 0]),
   midi.NoteOnEvent(tick=0, channel=1, data=[47, 0]),
   midi.NoteOnEvent(tick=0, channel=1, data=[40, 0]),
   midi.NoteOnEvent(tick=60, channel=1, data=[40, 96]),
   midi.NoteOnEvent(tick=0, channel=1, data=[47, 75]),
   midi.NoteOnEvent(tick=30, channel=1, data=[47, 0]),
   midi.NoteOnEvent(tick=0, channel=1, data=[40, 0]),
   midi.NoteOnEvent(tick=30, channel=1, data=[42, 91]),
   midi.NoteOnEvent(tick=0, channel=1, data=[49, 49]),
   midi.NoteOnEvent(tick=0, channel=1, data=[30, 113]),
   midi.NoteOnEvent(tick=30, channel=1, data=[30, 0]),
   midi.NoteOnEvent(tick=0, channel=1, data=[49, 0]),
   midi.NoteOnEvent(tick=0, channel=1, data=[42, 0]),
   midi.NoteOnEvent(tick=60, channel=1, data=[49, 70]),
   midi.NoteOnEvent(tick=0, channel=1, data=[30, 127]),
   midi.NoteOnEvent(tick=0, channel=1, data=[42, 112]),
   midi.NoteOnEvent(tick=30, channel=1, data=[42, 0]),
   midi.NoteOnEvent(tick=0, channel=1, data=[30, 0]),
   midi.NoteOnEvent(tick=0, channel=1, data=[49, 0]),
   midi.NoteOnEvent(tick=60, channel=1, data=[63, 71]),
   midi.NoteOnEvent(tick=0, channel=1, data=[44, 110]),
   midi.NoteOnEvent(tick=0, channel=1, data=[51, 58]),
   midi.NoteOnEvent(tick=0, channel=1, data=[32, 123]),
   midi.NoteOnEvent(tick=30, channel=1, data=[32, 0]),
   midi.NoteOnEvent(tick=0, channel=1, data=[63, 0]),
   midi.NoteOnEvent(tick=0, channel=1, data=[44, 0]),
   midi.NoteOnEvent(tick=0, channel=1, data=[51, 0]),
   midi.NoteOnEvent(tick=60, channel=1, data=[32, 126]),
   midi.NoteOnEvent(tick=0, channel=1, data=[44, 107]),
   midi.NoteOnEvent(tick=0, channel=1, data=[63, 63]),
   midi.NoteOnEvent(tick=0, channel=1, data=[51, 58]),
   midi.NoteOnEvent(tick=30, channel=1, data=[51, 0]),
   midi.NoteOnEvent(tick=0, channel=1, data=[32, 0]),
   midi.NoteOnEvent(tick=0, channel=1, data=[44, 0]),
   midi.NoteOnEvent(tick=0, channel=1, data=[63, 0]),
   midi.NoteOnEvent(tick=60, channel=1, data=[44, 70]),
   midi.NoteOnEvent(tick=0, channel=1, data=[25, 119]),
   midi.NoteOnEvent(tick=0, channel=1, data=[51, 51]),
   midi.NoteOnEvent(tick=0, channel=1, data=[32, 82]),
   midi.NoteOnEvent(tick=30, channel=1, data=[32, 0]),
   midi.NoteOnEvent(tick=0, channel=1, data=[44, 0]),
   midi.NoteOnEvent(tick=0, channel=1, data=[25, 0]),
   midi.NoteOnEvent(tick=0, channel=1, data=[51, 0]),
   midi.NoteOnEvent(tick=60, channel=1, data=[51, 58]),
   midi.NoteOnEvent(tick=0, channel=1, data=[63, 71]),
   midi.NoteOnEvent(tick=0, channel=1, data=[32, 123]),
   midi.NoteOnEvent(tick=0, channel=1, data=[44, 110]),
   midi.NoteOnEvent(tick=30, channel=1, data=[44, 0]),
   midi.NoteOnEvent(tick=0, channel=1, data=[51, 0]),
   midi.NoteOnEvent(tick=0, channel=1, data=[63, 0]),
   midi.NoteOnEvent(tick=0, channel=1, data=[32, 0]),
   midi.NoteOnEvent(tick=60, channel=1, data=[63, 63]),
   midi.NoteOnEvent(tick=0, channel=1, data=[44, 107]),
   midi.NoteOnEvent(tick=0, channel=1, data=[32, 126]),
   midi.NoteOnEvent(tick=0, channel=1, data=[51, 58]),
   midi.NoteOnEvent(tick=30, channel=1, data=[51, 0]),
   midi.NoteOnEvent(tick=0, channel=1, data=[63, 0]),
   midi.NoteOnEvent(tick=0, channel=1, data=[44, 0]),
   midi.NoteOnEvent(tick=0, channel=1, data=[32, 0]),
   midi.NoteOnEvent(tick=60, channel=1, data=[32, 82]),
   midi.NoteOnEvent(tick=0, channel=1, data=[51, 51]),
   midi.NoteOnEvent(tick=0, channel=1, data=[44, 70]),
   midi.NoteOnEvent(tick=0, channel=1, data=[25, 119]),
   midi.NoteOnEvent(tick=30, channel=1, data=[25, 0]),
   midi.NoteOnEvent(tick=0, channel=1, data=[32, 0]),
   midi.NoteOnEvent(tick=0, channel=1, data=[51, 0]),
   midi.NoteOnEvent(tick=0, channel=1, data=[44, 0]),
   midi.NoteOnEvent(tick=60, channel=1, data=[47, 77]),
   midi.NoteOnEvent(tick=0, channel=1, data=[40, 92]),
   midi.NoteOnEvent(tick=30, channel=1, data=[40, 0]),
   midi.NoteOnEvent(tick=0, channel=1, data=[47, 0]),
   midi.NoteOnEvent(tick=60, channel=1, data=[40, 81]),
   midi.NoteOnEvent(tick=0, channel=1, data=[52, 39]),
   midi.NoteOnEvent(tick=0, channel=1, data=[47, 47]),
   midi.NoteOnEvent(tick=30, channel=1, data=[47, 0]),
   midi.NoteOnEvent(tick=0, channel=1, data=[52, 0]),
   midi.NoteOnEvent(tick=0, channel=1, data=[40, 0]),
   midi.NoteOnEvent(tick=60, channel=1, data=[47, 75]),
   midi.NoteOnEvent(tick=0, channel=1, data=[40, 96]),
   midi.NoteOnEvent(tick=30, channel=1, data=[40, 0]),
   midi.NoteOnEvent(tick=0, channel=1, data=[47, 0]),
   midi.NoteOnEvent(tick=30, channel=1, data=[42, 91]),
   midi.NoteOnEvent(tick=0, channel=1, data=[30, 113]),
   midi.NoteOnEvent(tick=0, channel=1, data=[49, 49]),
   midi.NoteOnEvent(tick=30, channel=1, data=[49, 0]),
   midi.NoteOnEvent(tick=0, channel=1, data=[30, 0]),
   midi.NoteOnEvent(tick=0, channel=1, data=[42, 0]),
   midi.NoteOnEvent(tick=60, channel=1, data=[42, 112]),
   midi.NoteOnEvent(tick=0, channel=1, data=[30, 127]),
   midi.NoteOnEvent(tick=0, channel=1, data=[49, 70]),
   midi.NoteOnEvent(tick=30, channel=1, data=[49, 0]),
   midi.NoteOnEvent(tick=0, channel=1, data=[30, 0]),
   midi.NoteOnEvent(tick=0, channel=1, data=[42, 0]),
   midi.NoteOnEvent(tick=60, channel=1, data=[63, 71]),
   midi.NoteOnEvent(tick=0, channel=1, data=[44, 110]),
   midi.NoteOnEvent(tick=0, channel=1, data=[51, 58]),
   midi.NoteOnEvent(tick=0, channel=1, data=[32, 123]),
   midi.NoteOnEvent(tick=30, channel=1, data=[32, 0]),
   midi.NoteOnEvent(tick=0, channel=1, data=[63, 0]),
   midi.NoteOnEvent(tick=0, channel=1, data=[44, 0]),
   midi.NoteOnEvent(tick=0, channel=1, data=[51, 0]),
   midi.NoteOnEvent(tick=60, channel=1, data=[32, 126]),
   midi.NoteOnEvent(tick=0, channel=1, data=[51, 58]),
   midi.NoteOnEvent(tick=0, channel=1, data=[44, 107]),
   midi.NoteOnEvent(tick=0, channel=1, data=[63, 63]),
   midi.NoteOnEvent(tick=30, channel=1, data=[63, 0]),
   midi.NoteOnEvent(tick=0, channel=1, data=[32, 0]),
   midi.NoteOnEvent(tick=0, channel=1, data=[51, 0]),
   midi.NoteOnEvent(tick=0, channel=1, data=[44, 0]),
   midi.NoteOnEvent(tick=60, channel=1, data=[32, 82]),
   midi.NoteOnEvent(tick=0, channel=1, data=[44, 70]),
   midi.NoteOnEvent(tick=0, channel=1, data=[25, 119]),
   midi.NoteOnEvent(tick=0, channel=1, data=[51, 51]),
   midi.NoteOnEvent(tick=30, channel=1, data=[51, 0]),
   midi.NoteOnEvent(tick=0, channel=1, data=[32, 0]),
   midi.NoteOnEvent(tick=0, channel=1, data=[44, 0]),
   midi.NoteOnEvent(tick=0, channel=1, data=[25, 0]),
   midi.NoteOnEvent(tick=60, channel=1, data=[51, 58]),
   midi.NoteOnEvent(tick=0, channel=1, data=[44, 110]),
   midi.NoteOnEvent(tick=0, channel=1, data=[32, 123]),
   midi.NoteOnEvent(tick=0, channel=1, data=[63, 71]),
   midi.NoteOnEvent(tick=30, channel=1, data=[63, 0]),
   midi.NoteOnEvent(tick=0, channel=1, data=[51, 0]),
   midi.NoteOnEvent(tick=0, channel=1, data=[44, 0]),
   midi.NoteOnEvent(tick=0, channel=1, data=[32, 0]),
   midi.NoteOnEvent(tick=60, channel=1, data=[25, 112]),
   midi.NoteOnEvent(tick=0, channel=1, data=[56, 46]),
   midi.NoteOnEvent(tick=0, channel=1, data=[44, 64]),
   midi.NoteOnEvent(tick=0, channel=1, data=[37, 93]),
   midi.NoteOnEvent(tick=30, channel=1, data=[37, 0]),
   midi.NoteOnEvent(tick=0, channel=1, data=[25, 0]),
   midi.NoteOnEvent(tick=0, channel=1, data=[56, 0]),
   midi.NoteOnEvent(tick=0, channel=1, data=[44, 0]),
   midi.NoteOnEvent(tick=150, channel=1, data=[47, 77]),
   midi.NoteOnEvent(tick=0, channel=1, data=[40, 92]),
   midi.NoteOnEvent(tick=30, channel=1, data=[40, 0]),
   midi.NoteOnEvent(tick=0, channel=1, data=[47, 0]),
   midi.NoteOnEvent(tick=60, channel=1, data=[40, 81]),
   midi.NoteOnEvent(tick=0, channel=1, data=[47, 47]),
   midi.NoteOnEvent(tick=0, channel=1, data=[52, 39]),
   midi.NoteOnEvent(tick=30, channel=1, data=[52, 0]),
   midi.NoteOnEvent(tick=0, channel=1, data=[47, 0]),
   midi.NoteOnEvent(tick=0, channel=1, data=[40, 0]),
   midi.NoteOnEvent(tick=60, channel=1, data=[40, 96]),
   midi.NoteOnEvent(tick=0, channel=1, data=[47, 75]),
   midi.NoteOnEvent(tick=30, channel=1, data=[47, 0]),
   midi.NoteOnEvent(tick=0, channel=1, data=[40, 0]),
   midi.NoteOnEvent(tick=30, channel=1, data=[42, 91]),
   midi.NoteOnEvent(tick=0, channel=1, data=[49, 49]),
   midi.NoteOnEvent(tick=0, channel=1, data=[30, 113]),
   midi.NoteOnEvent(tick=30, channel=1, data=[30, 0]),
   midi.NoteOnEvent(tick=0, channel=1, data=[49, 0]),
   midi.NoteOnEvent(tick=0, channel=1, data=[42, 0]),
   midi.NoteOnEvent(tick=60, channel=1, data=[49, 70]),
   midi.NoteOnEvent(tick=0, channel=1, data=[30, 127]),
   midi.NoteOnEvent(tick=0, channel=1, data=[42, 112]),
   midi.NoteOnEvent(tick=30, channel=1, data=[42, 0]),
   midi.NoteOnEvent(tick=0, channel=1, data=[30, 0]),
   midi.NoteOnEvent(tick=0, channel=1, data=[49, 0]),
   midi.NoteOnEvent(tick=60, channel=1, data=[63, 71]),
   midi.NoteOnEvent(tick=0, channel=1, data=[44, 110]),
   midi.NoteOnEvent(tick=0, channel=1, data=[51, 58]),
   midi.NoteOnEvent(tick=0, channel=1, data=[32, 123]),
   midi.NoteOnEvent(tick=30, channel=1, data=[32, 0]),
   midi.NoteOnEvent(tick=0, channel=1, data=[63, 0]),
   midi.NoteOnEvent(tick=0, channel=1, data=[44, 0]),
   midi.NoteOnEvent(tick=0, channel=1, data=[51, 0]),
   midi.NoteOnEvent(tick=60, channel=1, data=[32, 126]),
   midi.NoteOnEvent(tick=0, channel=1, data=[44, 107]),
   midi.NoteOnEvent(tick=0, channel=1, data=[63, 63]),
   midi.NoteOnEvent(tick=0, channel=1, data=[51, 58]),
   midi.NoteOnEvent(tick=30, channel=1, data=[51, 0]),
   midi.NoteOnEvent(tick=0, channel=1, data=[32, 0]),
   midi.NoteOnEvent(tick=0, channel=1, data=[44, 0]),
   midi.NoteOnEvent(tick=0, channel=1, data=[63, 0]),
   midi.NoteOnEvent(tick=60, channel=1, data=[44, 70]),
   midi.NoteOnEvent(tick=0, channel=1, data=[25, 119]),
   midi.NoteOnEvent(tick=0, channel=1, data=[51, 51]),
   midi.NoteOnEvent(tick=0, channel=1, data=[32, 82]),
   midi.NoteOnEvent(tick=30, channel=1, data=[32, 0]),
   midi.NoteOnEvent(tick=0, channel=1, data=[44, 0]),
   midi.NoteOnEvent(tick=0, channel=1, data=[25, 0]),
   midi.NoteOnEvent(tick=0, channel=1, data=[51, 0]),
   midi.NoteOnEvent(tick=60, channel=1, data=[51, 58]),
   midi.NoteOnEvent(tick=0, channel=1, data=[63, 71]),
   midi.NoteOnEvent(tick=0, channel=1, data=[32, 123]),
   midi.NoteOnEvent(tick=0, channel=1, data=[44, 110]),
   midi.NoteOnEvent(tick=30, channel=1, data=[44, 0]),
   midi.NoteOnEvent(tick=0, channel=1, data=[51, 0]),
   midi.NoteOnEvent(tick=0, channel=1, data=[63, 0]),
   midi.NoteOnEvent(tick=0, channel=1, data=[32, 0]),
   midi.NoteOnEvent(tick=60, channel=1, data=[63, 63]),
   midi.NoteOnEvent(tick=0, channel=1, data=[44, 107]),
   midi.NoteOnEvent(tick=0, channel=1, data=[32, 126]),
   midi.NoteOnEvent(tick=0, channel=1, data=[51, 58]),
   midi.NoteOnEvent(tick=30, channel=1, data=[51, 0]),
   midi.NoteOnEvent(tick=0, channel=1, data=[63, 0]),
   midi.NoteOnEvent(tick=0, channel=1, data=[44, 0]),
   midi.NoteOnEvent(tick=0, channel=1, data=[32, 0]),
   midi.NoteOnEvent(tick=60, channel=1, data=[32, 82]),
   midi.NoteOnEvent(tick=0, channel=1, data=[51, 51]),
   midi.NoteOnEvent(tick=0, channel=1, data=[44, 70]),
   midi.NoteOnEvent(tick=0, channel=1, data=[25, 119]),
   midi.NoteOnEvent(tick=30, channel=1, data=[25, 0]),
   midi.NoteOnEvent(tick=0, channel=1, data=[32, 0]),
   midi.NoteOnEvent(tick=0, channel=1, data=[51, 0]),
   midi.NoteOnEvent(tick=0, channel=1, data=[44, 0]),
   midi.NoteOnEvent(tick=60, channel=1, data=[47, 77]),
   midi.NoteOnEvent(tick=0, channel=1, data=[40, 92]),
   midi.NoteOnEvent(tick=30, channel=1, data=[40, 0]),
   midi.NoteOnEvent(tick=0, channel=1, data=[47, 0]),
   midi.NoteOnEvent(tick=60, channel=1, data=[40, 81]),
   midi.NoteOnEvent(tick=0, channel=1, data=[52, 39]),
   midi.NoteOnEvent(tick=0, channel=1, data=[47, 47]),
   midi.NoteOnEvent(tick=30, channel=1, data=[47, 0]),
   midi.NoteOnEvent(tick=0, channel=1, data=[52, 0]),
   midi.NoteOnEvent(tick=0, channel=1, data=[40, 0]),
   midi.NoteOnEvent(tick=60, channel=1, data=[47, 75]),
   midi.NoteOnEvent(tick=0, channel=1, data=[40, 96]),
   midi.NoteOnEvent(tick=30, channel=1, data=[40, 0]),
   midi.NoteOnEvent(tick=0, channel=1, data=[47, 0]),
   midi.NoteOnEvent(tick=30, channel=1, data=[42, 91]),
   midi.NoteOnEvent(tick=0, channel=1, data=[30, 113]),
   midi.NoteOnEvent(tick=0, channel=1, data=[49, 49]),
   midi.NoteOnEvent(tick=30, channel=1, data=[49, 0]),
   midi.NoteOnEvent(tick=0, channel=1, data=[30, 0]),
   midi.NoteOnEvent(tick=0, channel=1, data=[42, 0]),
   midi.NoteOnEvent(tick=60, channel=1, data=[42, 112]),
   midi.NoteOnEvent(tick=0, channel=1, data=[30, 127]),
   midi.NoteOnEvent(tick=0, channel=1, data=[49, 70]),
   midi.NoteOnEvent(tick=30, channel=1, data=[49, 0]),
   midi.NoteOnEvent(tick=0, channel=1, data=[30, 0]),
   midi.NoteOnEvent(tick=0, channel=1, data=[42, 0]),
   midi.NoteOnEvent(tick=60, channel=1, data=[63, 71]),
   midi.NoteOnEvent(tick=0, channel=1, data=[44, 110]),
   midi.NoteOnEvent(tick=0, channel=1, data=[51, 58]),
   midi.NoteOnEvent(tick=0, channel=1, data=[32, 123]),
   midi.NoteOnEvent(tick=30, channel=1, data=[32, 0]),
   midi.NoteOnEvent(tick=0, channel=1, data=[63, 0]),
   midi.NoteOnEvent(tick=0, channel=1, data=[44, 0]),
   midi.NoteOnEvent(tick=0, channel=1, data=[51, 0]),
   midi.NoteOnEvent(tick=60, channel=1, data=[32, 126]),
   midi.NoteOnEvent(tick=0, channel=1, data=[51, 58]),
   midi.NoteOnEvent(tick=0, channel=1, data=[44, 107]),
   midi.NoteOnEvent(tick=0, channel=1, data=[63, 63]),
   midi.NoteOnEvent(tick=30, channel=1, data=[63, 0]),
   midi.NoteOnEvent(tick=0, channel=1, data=[32, 0]),
   midi.NoteOnEvent(tick=0, channel=1, data=[51, 0]),
   midi.NoteOnEvent(tick=0, channel=1, data=[44, 0]),
   midi.NoteOnEvent(tick=60, channel=1, data=[32, 82]),
   midi.NoteOnEvent(tick=0, channel=1, data=[44, 70]),
   midi.NoteOnEvent(tick=0, channel=1, data=[25, 119]),
   midi.NoteOnEvent(tick=0, channel=1, data=[51, 51]),
   midi.NoteOnEvent(tick=30, channel=1, data=[51, 0]),
   midi.NoteOnEvent(tick=0, channel=1, data=[32, 0]),
   midi.NoteOnEvent(tick=0, channel=1, data=[44, 0]),
   midi.NoteOnEvent(tick=0, channel=1, data=[25, 0]),
   midi.NoteOnEvent(tick=60, channel=1, data=[51, 58]),
   midi.NoteOnEvent(tick=0, channel=1, data=[44, 110]),
   midi.NoteOnEvent(tick=0, channel=1, data=[32, 123]),
   midi.NoteOnEvent(tick=0, channel=1, data=[63, 71]),
   midi.NoteOnEvent(tick=30, channel=1, data=[63, 0]),
   midi.NoteOnEvent(tick=0, channel=1, data=[51, 0]),
   midi.NoteOnEvent(tick=0, channel=1, data=[44, 0]),
   midi.NoteOnEvent(tick=0, channel=1, data=[32, 0]),
   midi.NoteOnEvent(tick=60, channel=1, data=[25, 112]),
   midi.NoteOnEvent(tick=0, channel=1, data=[56, 46]),
   midi.NoteOnEvent(tick=0, channel=1, data=[44, 64]),
   midi.NoteOnEvent(tick=0, channel=1, data=[37, 93]),
   midi.NoteOnEvent(tick=30, channel=1, data=[37, 0]),
   midi.NoteOnEvent(tick=0, channel=1, data=[25, 0]),
   midi.NoteOnEvent(tick=0, channel=1, data=[56, 0]),
   midi.NoteOnEvent(tick=0, channel=1, data=[44, 0]),
   midi.NoteOnEvent(tick=60, channel=1, data=[44, 64]),
   midi.NoteOnEvent(tick=0, channel=1, data=[56, 46]),
   midi.NoteOnEvent(tick=0, channel=1, data=[37, 93]),
   midi.NoteOnEvent(tick=0, channel=1, data=[25, 112]),
   midi.NoteOnEvent(tick=30, channel=1, data=[25, 0]),
   midi.NoteOnEvent(tick=0, channel=1, data=[44, 0]),
   midi.NoteOnEvent(tick=0, channel=1, data=[56, 0]),
   midi.NoteOnEvent(tick=0, channel=1, data=[37, 0]),
   midi.NoteOnEvent(tick=60, channel=1, data=[47, 77]),
   midi.NoteOnEvent(tick=0, channel=1, data=[40, 92]),
   midi.NoteOnEvent(tick=30, channel=1, data=[40, 0]),
   midi.NoteOnEvent(tick=0, channel=1, data=[47, 0]),
   midi.NoteOnEvent(tick=60, channel=1, data=[40, 81]),
   midi.NoteOnEvent(tick=0, channel=1, data=[47, 47]),
   midi.NoteOnEvent(tick=0, channel=1, data=[52, 39]),
   midi.NoteOnEvent(tick=30, channel=1, data=[52, 0]),
   midi.NoteOnEvent(tick=0, channel=1, data=[47, 0]),
   midi.NoteOnEvent(tick=0, channel=1, data=[40, 0]),
   midi.NoteOnEvent(tick=60, channel=1, data=[40, 96]),
   midi.NoteOnEvent(tick=0, channel=1, data=[47, 75]),
   midi.NoteOnEvent(tick=30, channel=1, data=[47, 0]),
   midi.NoteOnEvent(tick=0, channel=1, data=[40, 0]),
   midi.NoteOnEvent(tick=30, channel=1, data=[42, 91]),
   midi.NoteOnEvent(tick=0, channel=1, data=[49, 49]),
   midi.NoteOnEvent(tick=0, channel=1, data=[30, 113]),
   midi.NoteOnEvent(tick=30, channel=1, data=[30, 0]),
   midi.NoteOnEvent(tick=0, channel=1, data=[49, 0]),
   midi.NoteOnEvent(tick=0, channel=1, data=[42, 0]),
   midi.NoteOnEvent(tick=60, channel=1, data=[49, 70]),
   midi.NoteOnEvent(tick=0, channel=1, data=[30, 127]),
   midi.NoteOnEvent(tick=0, channel=1, data=[42, 112]),
   midi.NoteOnEvent(tick=30, channel=1, data=[42, 0]),
   midi.NoteOnEvent(tick=0, channel=1, data=[30, 0]),
   midi.NoteOnEvent(tick=0, channel=1, data=[49, 0]),
   midi.NoteOnEvent(tick=60, channel=1, data=[63, 71]),
   midi.NoteOnEvent(tick=0, channel=1, data=[44, 110]),
   midi.NoteOnEvent(tick=0, channel=1, data=[51, 58]),
   midi.NoteOnEvent(tick=0, channel=1, data=[32, 123]),
   midi.NoteOnEvent(tick=30, channel=1, data=[32, 0]),
   midi.NoteOnEvent(tick=0, channel=1, data=[63, 0]),
   midi.NoteOnEvent(tick=0, channel=1, data=[44, 0]),
   midi.NoteOnEvent(tick=0, channel=1, data=[51, 0]),
   midi.NoteOnEvent(tick=60, channel=1, data=[32, 126]),
   midi.NoteOnEvent(tick=0, channel=1, data=[44, 107]),
   midi.NoteOnEvent(tick=0, channel=1, data=[63, 63]),
   midi.NoteOnEvent(tick=0, channel=1, data=[51, 58]),
   midi.NoteOnEvent(tick=30, channel=1, data=[51, 0]),
   midi.NoteOnEvent(tick=0, channel=1, data=[32, 0]),
   midi.NoteOnEvent(tick=0, channel=1, data=[44, 0]),
   midi.NoteOnEvent(tick=0, channel=1, data=[63, 0]),
   midi.NoteOnEvent(tick=60, channel=1, data=[44, 70]),
   midi.NoteOnEvent(tick=0, channel=1, data=[25, 119]),
   midi.NoteOnEvent(tick=0, channel=1, data=[51, 51]),
   midi.NoteOnEvent(tick=0, channel=1, data=[32, 82]),
   midi.NoteOnEvent(tick=30, channel=1, data=[32, 0]),
   midi.NoteOnEvent(tick=0, channel=1, data=[44, 0]),
   midi.NoteOnEvent(tick=0, channel=1, data=[25, 0]),
   midi.NoteOnEvent(tick=0, channel=1, data=[51, 0]),
   midi.NoteOnEvent(tick=60, channel=1, data=[51, 58]),
   midi.NoteOnEvent(tick=0, channel=1, data=[63, 71]),
   midi.NoteOnEvent(tick=0, channel=1, data=[32, 123]),
   midi.NoteOnEvent(tick=0, channel=1, data=[44, 110]),
   midi.NoteOnEvent(tick=30, channel=1, data=[44, 0]),
   midi.NoteOnEvent(tick=0, channel=1, data=[51, 0]),
   midi.NoteOnEvent(tick=0, channel=1, data=[63, 0]),
   midi.NoteOnEvent(tick=0, channel=1, data=[32, 0]),
   midi.NoteOnEvent(tick=60, channel=1, data=[63, 63]),
   midi.NoteOnEvent(tick=0, channel=1, data=[44, 107]),
   midi.NoteOnEvent(tick=0, channel=1, data=[32, 126]),
   midi.NoteOnEvent(tick=0, channel=1, data=[51, 58]),
   midi.NoteOnEvent(tick=30, channel=1, data=[51, 0]),
   midi.NoteOnEvent(tick=0, channel=1, data=[63, 0]),
   midi.NoteOnEvent(tick=0, channel=1, data=[44, 0]),
   midi.NoteOnEvent(tick=0, channel=1, data=[32, 0]),
   midi.NoteOnEvent(tick=60, channel=1, data=[32, 82]),
   midi.NoteOnEvent(tick=0, channel=1, data=[51, 51]),
   midi.NoteOnEvent(tick=0, channel=1, data=[44, 70]),
   midi.NoteOnEvent(tick=0, channel=1, data=[25, 119]),
   midi.NoteOnEvent(tick=30, channel=1, data=[25, 0]),
   midi.NoteOnEvent(tick=0, channel=1, data=[32, 0]),
   midi.NoteOnEvent(tick=0, channel=1, data=[51, 0]),
   midi.NoteOnEvent(tick=0, channel=1, data=[44, 0]),
   midi.EndOfTrackEvent(tick=0, data=[])]),
 midi.Track(\
  [midi.TrackNameEvent(tick=0, text='Primary Accompaniment', data=[80, 114, 105, 109, 97, 114, 121, 32, 65, 99, 99, 111, 109, 112, 97, 110, 105, 109, 101, 110, 116]),
   midi.EndOfTrackEvent(tick=0, data=[])]),
 midi.Track(\
  [midi.TrackNameEvent(tick=0, text='Primary Melodic', data=[80, 114, 105, 109, 97, 114, 121, 32, 77, 101, 108, 111, 100, 105, 99]),
   midi.ControlChangeEvent(tick=122, channel=3, data=[0, 121]),
   midi.ControlChangeEvent(tick=0, channel=3, data=[32, 0]),
   midi.ProgramChangeEvent(tick=0, channel=3, data=[38]),
   midi.ControlChangeEvent(tick=0, channel=3, data=[91, 64]),
   midi.ControlChangeEvent(tick=0, channel=3, data=[93, 64]),
   midi.NoteOnEvent(tick=9478, channel=3, data=[44, 100]),
   midi.NoteOnEvent(tick=60, channel=3, data=[44, 0]),
   midi.NoteOnEvent(tick=30, channel=3, data=[44, 100]),
   midi.NoteOnEvent(tick=60, channel=3, data=[44, 0]),
   midi.NoteOnEvent(tick=30, channel=3, data=[37, 100]),
   midi.NoteOnEvent(tick=60, channel=3, data=[37, 0]),
   midi.NoteOnEvent(tick=0, channel=3, data=[40, 100]),
   midi.NoteOnEvent(tick=60, channel=3, data=[40, 0]),
   midi.NoteOnEvent(tick=30, channel=3, data=[40, 100]),
   midi.NoteOnEvent(tick=60, channel=3, data=[40, 0]),
   midi.NoteOnEvent(tick=30, channel=3, data=[42, 100]),
   midi.NoteOnEvent(tick=60, channel=3, data=[42, 0]),
   midi.NoteOnEvent(tick=30, channel=3, data=[42, 100]),
   midi.NoteOnEvent(tick=60, channel=3, data=[42, 0]),
   midi.NoteOnEvent(tick=30, channel=3, data=[42, 100]),
   midi.NoteOnEvent(tick=60, channel=3, data=[42, 0]),
   midi.NoteOnEvent(tick=30, channel=3, data=[42, 100]),
   midi.NoteOnEvent(tick=60, channel=3, data=[42, 0]),
   midi.NoteOnEvent(tick=30, channel=3, data=[42, 100]),
   midi.NoteOnEvent(tick=60, channel=3, data=[42, 0]),
   midi.NoteOnEvent(tick=0, channel=3, data=[44, 100]),
   midi.NoteOnEvent(tick=30, channel=3, data=[44, 0]),
   midi.NoteOnEvent(tick=0, channel=3, data=[42, 100]),
   midi.NoteOnEvent(tick=30, channel=3, data=[42, 0]),
   midi.NoteOnEvent(tick=0, channel=3, data=[40, 100]),
   midi.NoteOnEvent(tick=60, channel=3, data=[40, 0]),
   midi.NoteOnEvent(tick=0, channel=3, data=[37, 100]),
   midi.NoteOnEvent(tick=60, channel=3, data=[37, 0]),
   midi.NoteOnEvent(tick=30, channel=3, data=[37, 100]),
   midi.NoteOnEvent(tick=60, channel=3, data=[37, 0]),
   midi.NoteOnEvent(tick=30, channel=3, data=[44, 100]),
   midi.NoteOnEvent(tick=60, channel=3, data=[44, 0]),
   midi.NoteOnEvent(tick=0, channel=3, data=[42, 100]),
   midi.NoteOnEvent(tick=60, channel=3, data=[42, 0]),
   midi.NoteOnEvent(tick=30, channel=3, data=[42, 100]),
   midi.NoteOnEvent(tick=60, channel=3, data=[42, 0]),
   midi.NoteOnEvent(tick=30, channel=3, data=[39, 100]),
   midi.NoteOnEvent(tick=60, channel=3, data=[39, 0]),
   midi.NoteOnEvent(tick=30, channel=3, data=[39, 100]),
   midi.NoteOnEvent(tick=60, channel=3, data=[39, 0]),
   midi.NoteOnEvent(tick=30, channel=3, data=[40, 100]),
   midi.NoteOnEvent(tick=60, channel=3, data=[40, 0]),
   midi.NoteOnEvent(tick=30, channel=3, data=[40, 100]),
   midi.NoteOnEvent(tick=60, channel=3, data=[40, 0]),
   midi.NoteOnEvent(tick=30, channel=3, data=[40, 100]),
   midi.NoteOnEvent(tick=60, channel=3, data=[40, 0]),
   midi.NoteOnEvent(tick=30, channel=3, data=[40, 100]),
   midi.NoteOnEvent(tick=60, channel=3, data=[40, 0]),
   midi.NoteOnEvent(tick=30, channel=3, data=[44, 100]),
   midi.NoteOnEvent(tick=60, channel=3, data=[44, 0]),
   midi.NoteOnEvent(tick=30, channel=3, data=[44, 100]),
   midi.NoteOnEvent(tick=60, channel=3, data=[44, 0]),
   midi.NoteOnEvent(tick=30, channel=3, data=[37, 100]),
   midi.NoteOnEvent(tick=60, channel=3, data=[37, 0]),
   midi.NoteOnEvent(tick=0, channel=3, data=[40, 100]),
   midi.NoteOnEvent(tick=60, channel=3, data=[40, 0]),
   midi.NoteOnEvent(tick=30, channel=3, data=[40, 100]),
   midi.NoteOnEvent(tick=60, channel=3, data=[40, 0]),
   midi.NoteOnEvent(tick=30, channel=3, data=[42, 100]),
   midi.NoteOnEvent(tick=60, channel=3, data=[42, 0]),
   midi.NoteOnEvent(tick=30, channel=3, data=[42, 100]),
   midi.NoteOnEvent(tick=60, channel=3, data=[42, 0]),
   midi.NoteOnEvent(tick=30, channel=3, data=[42, 100]),
   midi.NoteOnEvent(tick=60, channel=3, data=[42, 0]),
   midi.NoteOnEvent(tick=30, channel=3, data=[42, 100]),
   midi.NoteOnEvent(tick=60, channel=3, data=[42, 0]),
   midi.NoteOnEvent(tick=30, channel=3, data=[42, 100]),
   midi.NoteOnEvent(tick=60, channel=3, data=[42, 0]),
   midi.NoteOnEvent(tick=0, channel=3, data=[44, 100]),
   midi.NoteOnEvent(tick=30, channel=3, data=[44, 0]),
   midi.NoteOnEvent(tick=0, channel=3, data=[42, 100]),
   midi.NoteOnEvent(tick=30, channel=3, data=[42, 0]),
   midi.NoteOnEvent(tick=0, channel=3, data=[40, 100]),
   midi.NoteOnEvent(tick=60, channel=3, data=[40, 0]),
   midi.NoteOnEvent(tick=0, channel=3, data=[37, 100]),
   midi.NoteOnEvent(tick=60, channel=3, data=[37, 0]),
   midi.NoteOnEvent(tick=30, channel=3, data=[37, 100]),
   midi.NoteOnEvent(tick=30, channel=3, data=[37, 0]),
   midi.NoteOnEvent(tick=30, channel=3, data=[37, 100]),
   midi.NoteOnEvent(tick=30, channel=3, data=[37, 0]),
   midi.NoteOnEvent(tick=0, channel=3, data=[44, 100]),
   midi.NoteOnEvent(tick=60, channel=3, data=[44, 0]),
   midi.NoteOnEvent(tick=0, channel=3, data=[42, 100]),
   midi.NoteOnEvent(tick=60, channel=3, data=[42, 0]),
   midi.NoteOnEvent(tick=30, channel=3, data=[42, 100]),
   midi.NoteOnEvent(tick=60, channel=3, data=[42, 0]),
   midi.NoteOnEvent(tick=30, channel=3, data=[39, 100]),
   midi.NoteOnEvent(tick=60, channel=3, data=[39, 0]),
   midi.NoteOnEvent(tick=30, channel=3, data=[39, 100]),
   midi.NoteOnEvent(tick=60, channel=3, data=[39, 0]),
   midi.NoteOnEvent(tick=30, channel=3, data=[40, 100]),
   midi.NoteOnEvent(tick=60, channel=3, data=[40, 0]),
   midi.NoteOnEvent(tick=30, channel=3, data=[40, 100]),
   midi.NoteOnEvent(tick=60, channel=3, data=[40, 0]),
   midi.NoteOnEvent(tick=30, channel=3, data=[40, 100]),
   midi.NoteOnEvent(tick=60, channel=3, data=[40, 0]),
   midi.NoteOnEvent(tick=120, channel=3, data=[44, 100]),
   midi.NoteOnEvent(tick=60, channel=3, data=[44, 0]),
   midi.NoteOnEvent(tick=30, channel=3, data=[44, 100]),
   midi.NoteOnEvent(tick=60, channel=3, data=[44, 0]),
   midi.NoteOnEvent(tick=30, channel=3, data=[37, 100]),
   midi.NoteOnEvent(tick=60, channel=3, data=[37, 0]),
   midi.NoteOnEvent(tick=0, channel=3, data=[40, 100]),
   midi.NoteOnEvent(tick=60, channel=3, data=[40, 0]),
   midi.NoteOnEvent(tick=30, channel=3, data=[40, 100]),
   midi.NoteOnEvent(tick=60, channel=3, data=[40, 0]),
   midi.NoteOnEvent(tick=30, channel=3, data=[42, 100]),
   midi.NoteOnEvent(tick=60, channel=3, data=[42, 0]),
   midi.NoteOnEvent(tick=30, channel=3, data=[42, 100]),
   midi.NoteOnEvent(tick=60, channel=3, data=[42, 0]),
   midi.NoteOnEvent(tick=30, channel=3, data=[42, 100]),
   midi.NoteOnEvent(tick=60, channel=3, data=[42, 0]),
   midi.NoteOnEvent(tick=30, channel=3, data=[42, 100]),
   midi.NoteOnEvent(tick=60, channel=3, data=[42, 0]),
   midi.NoteOnEvent(tick=30, channel=3, data=[42, 100]),
   midi.NoteOnEvent(tick=60, channel=3, data=[42, 0]),
   midi.NoteOnEvent(tick=0, channel=3, data=[44, 100]),
   midi.NoteOnEvent(tick=30, channel=3, data=[44, 0]),
   midi.NoteOnEvent(tick=0, channel=3, data=[42, 100]),
   midi.NoteOnEvent(tick=30, channel=3, data=[42, 0]),
   midi.NoteOnEvent(tick=0, channel=3, data=[40, 100]),
   midi.NoteOnEvent(tick=60, channel=3, data=[40, 0]),
   midi.NoteOnEvent(tick=0, channel=3, data=[37, 100]),
   midi.NoteOnEvent(tick=60, channel=3, data=[37, 0]),
   midi.NoteOnEvent(tick=30, channel=3, data=[37, 100]),
   midi.NoteOnEvent(tick=60, channel=3, data=[37, 0]),
   midi.NoteOnEvent(tick=30, channel=3, data=[44, 100]),
   midi.NoteOnEvent(tick=60, channel=3, data=[44, 0]),
   midi.NoteOnEvent(tick=0, channel=3, data=[42, 100]),
   midi.NoteOnEvent(tick=60, channel=3, data=[42, 0]),
   midi.NoteOnEvent(tick=30, channel=3, data=[42, 100]),
   midi.NoteOnEvent(tick=60, channel=3, data=[42, 0]),
   midi.NoteOnEvent(tick=30, channel=3, data=[39, 100]),
   midi.NoteOnEvent(tick=60, channel=3, data=[39, 0]),
   midi.NoteOnEvent(tick=30, channel=3, data=[39, 100]),
   midi.NoteOnEvent(tick=60, channel=3, data=[39, 0]),
   midi.NoteOnEvent(tick=30, channel=3, data=[40, 100]),
   midi.NoteOnEvent(tick=60, channel=3, data=[40, 0]),
   midi.NoteOnEvent(tick=30, channel=3, data=[40, 100]),
   midi.NoteOnEvent(tick=60, channel=3, data=[40, 0]),
   midi.NoteOnEvent(tick=30, channel=3, data=[40, 100]),
   midi.NoteOnEvent(tick=60, channel=3, data=[40, 0]),
   midi.NoteOnEvent(tick=30, channel=3, data=[40, 100]),
   midi.NoteOnEvent(tick=60, channel=3, data=[40, 0]),
   midi.NoteOnEvent(tick=30, channel=3, data=[44, 100]),
   midi.NoteOnEvent(tick=60, channel=3, data=[44, 0]),
   midi.NoteOnEvent(tick=30, channel=3, data=[44, 100]),
   midi.NoteOnEvent(tick=60, channel=3, data=[44, 0]),
   midi.NoteOnEvent(tick=30, channel=3, data=[37, 100]),
   midi.NoteOnEvent(tick=60, channel=3, data=[37, 0]),
   midi.NoteOnEvent(tick=0, channel=3, data=[40, 100]),
   midi.NoteOnEvent(tick=60, channel=3, data=[40, 0]),
   midi.NoteOnEvent(tick=30, channel=3, data=[40, 100]),
   midi.NoteOnEvent(tick=60, channel=3, data=[40, 0]),
   midi.NoteOnEvent(tick=30, channel=3, data=[42, 100]),
   midi.NoteOnEvent(tick=60, channel=3, data=[42, 0]),
   midi.NoteOnEvent(tick=30, channel=3, data=[42, 100]),
   midi.NoteOnEvent(tick=60, channel=3, data=[42, 0]),
   midi.NoteOnEvent(tick=30, channel=3, data=[42, 100]),
   midi.NoteOnEvent(tick=60, channel=3, data=[42, 0]),
   midi.NoteOnEvent(tick=30, channel=3, data=[42, 100]),
   midi.NoteOnEvent(tick=60, channel=3, data=[42, 0]),
   midi.NoteOnEvent(tick=30, channel=3, data=[42, 100]),
   midi.NoteOnEvent(tick=60, channel=3, data=[42, 0]),
   midi.NoteOnEvent(tick=0, channel=3, data=[44, 100]),
   midi.NoteOnEvent(tick=30, channel=3, data=[44, 0]),
   midi.NoteOnEvent(tick=0, channel=3, data=[42, 100]),
   midi.NoteOnEvent(tick=30, channel=3, data=[42, 0]),
   midi.NoteOnEvent(tick=0, channel=3, data=[40, 100]),
   midi.NoteOnEvent(tick=60, channel=3, data=[40, 0]),
   midi.NoteOnEvent(tick=0, channel=3, data=[37, 100]),
   midi.NoteOnEvent(tick=60, channel=3, data=[37, 0]),
   midi.NoteOnEvent(tick=30, channel=3, data=[37, 100]),
   midi.NoteOnEvent(tick=30, channel=3, data=[37, 0]),
   midi.NoteOnEvent(tick=30, channel=3, data=[37, 100]),
   midi.NoteOnEvent(tick=30, channel=3, data=[37, 0]),
   midi.NoteOnEvent(tick=0, channel=3, data=[44, 100]),
   midi.NoteOnEvent(tick=60, channel=3, data=[44, 0]),
   midi.NoteOnEvent(tick=0, channel=3, data=[42, 100]),
   midi.NoteOnEvent(tick=60, channel=3, data=[42, 0]),
   midi.NoteOnEvent(tick=30, channel=3, data=[42, 100]),
   midi.NoteOnEvent(tick=60, channel=3, data=[42, 0]),
   midi.NoteOnEvent(tick=30, channel=3, data=[39, 100]),
   midi.NoteOnEvent(tick=60, channel=3, data=[39, 0]),
   midi.NoteOnEvent(tick=30, channel=3, data=[39, 100]),
   midi.NoteOnEvent(tick=60, channel=3, data=[39, 0]),
   midi.NoteOnEvent(tick=30, channel=3, data=[40, 100]),
   midi.NoteOnEvent(tick=60, channel=3, data=[40, 0]),
   midi.NoteOnEvent(tick=30, channel=3, data=[40, 100]),
   midi.NoteOnEvent(tick=60, channel=3, data=[40, 0]),
   midi.NoteOnEvent(tick=30, channel=3, data=[40, 100]),
   midi.NoteOnEvent(tick=60, channel=3, data=[40, 0]),
   midi.NoteOnEvent(tick=120, channel=3, data=[40, 100]),
   midi.NoteOnEvent(tick=60, channel=3, data=[40, 0]),
   midi.NoteOnEvent(tick=30, channel=3, data=[40, 100]),
   midi.NoteOnEvent(tick=60, channel=3, data=[40, 0]),
   midi.NoteOnEvent(tick=30, channel=3, data=[40, 100]),
   midi.NoteOnEvent(tick=60, channel=3, data=[40, 0]),
   midi.NoteOnEvent(tick=0, channel=3, data=[42, 100]),
   midi.NoteOnEvent(tick=60, channel=3, data=[42, 0]),
   midi.NoteOnEvent(tick=30, channel=3, data=[42, 100]),
   midi.NoteOnEvent(tick=60, channel=3, data=[42, 0]),
   midi.NoteOnEvent(tick=30, channel=3, data=[44, 100]),
   midi.NoteOnEvent(tick=60, channel=3, data=[44, 0]),
   midi.NoteOnEvent(tick=30, channel=3, data=[44, 100]),
   midi.NoteOnEvent(tick=60, channel=3, data=[44, 0]),
   midi.NoteOnEvent(tick=30, channel=3, data=[44, 100]),
   midi.NoteOnEvent(tick=60, channel=3, data=[44, 0]),
   midi.NoteOnEvent(tick=30, channel=3, data=[44, 100]),
   midi.NoteOnEvent(tick=60, channel=3, data=[44, 0]),
   midi.NoteOnEvent(tick=30, channel=3, data=[44, 100]),
   midi.NoteOnEvent(tick=60, channel=3, data=[44, 0]),
   midi.NoteOnEvent(tick=30, channel=3, data=[44, 100]),
   midi.NoteOnEvent(tick=60, channel=3, data=[44, 0]),
   midi.NoteOnEvent(tick=30, channel=3, data=[40, 100]),
   midi.NoteOnEvent(tick=60, channel=3, data=[40, 0]),
   midi.NoteOnEvent(tick=30, channel=3, data=[40, 100]),
   midi.NoteOnEvent(tick=60, channel=3, data=[40, 0]),
   midi.NoteOnEvent(tick=30, channel=3, data=[40, 100]),
   midi.NoteOnEvent(tick=60, channel=3, data=[40, 0]),
   midi.NoteOnEvent(tick=0, channel=3, data=[42, 100]),
   midi.NoteOnEvent(tick=60, channel=3, data=[42, 0]),
   midi.NoteOnEvent(tick=30, channel=3, data=[42, 100]),
   midi.NoteOnEvent(tick=60, channel=3, data=[42, 0]),
   midi.NoteOnEvent(tick=30, channel=3, data=[44, 100]),
   midi.NoteOnEvent(tick=60, channel=3, data=[44, 0]),
   midi.NoteOnEvent(tick=30, channel=3, data=[44, 100]),
   midi.NoteOnEvent(tick=60, channel=3, data=[44, 0]),
   midi.NoteOnEvent(tick=30, channel=3, data=[44, 100]),
   midi.NoteOnEvent(tick=60, channel=3, data=[44, 0]),
   midi.NoteOnEvent(tick=30, channel=3, data=[44, 100]),
   midi.NoteOnEvent(tick=60, channel=3, data=[44, 0]),
   midi.NoteOnEvent(tick=30, channel=3, data=[37, 100]),
   midi.NoteOnEvent(tick=60, channel=3, data=[37, 0]),
   midi.NoteOnEvent(tick=30, channel=3, data=[37, 100]),
   midi.NoteOnEvent(tick=60, channel=3, data=[37, 0]),
   midi.NoteOnEvent(tick=30, channel=3, data=[40, 100]),
   midi.NoteOnEvent(tick=60, channel=3, data=[40, 0]),
   midi.NoteOnEvent(tick=30, channel=3, data=[40, 100]),
   midi.NoteOnEvent(tick=60, channel=3, data=[40, 0]),
   midi.NoteOnEvent(tick=30, channel=3, data=[40, 100]),
   midi.NoteOnEvent(tick=60, channel=3, data=[40, 0]),
   midi.NoteOnEvent(tick=0, channel=3, data=[42, 100]),
   midi.NoteOnEvent(tick=60, channel=3, data=[42, 0]),
   midi.NoteOnEvent(tick=30, channel=3, data=[42, 100]),
   midi.NoteOnEvent(tick=60, channel=3, data=[42, 0]),
   midi.NoteOnEvent(tick=30, channel=3, data=[44, 100]),
   midi.NoteOnEvent(tick=60, channel=3, data=[44, 0]),
   midi.NoteOnEvent(tick=30, channel=3, data=[44, 100]),
   midi.NoteOnEvent(tick=60, channel=3, data=[44, 0]),
   midi.NoteOnEvent(tick=30, channel=3, data=[44, 100]),
   midi.NoteOnEvent(tick=60, channel=3, data=[44, 0]),
   midi.NoteOnEvent(tick=30, channel=3, data=[44, 100]),
   midi.NoteOnEvent(tick=60, channel=3, data=[44, 0]),
   midi.NoteOnEvent(tick=30, channel=3, data=[44, 100]),
   midi.NoteOnEvent(tick=60, channel=3, data=[44, 0]),
   midi.NoteOnEvent(tick=30, channel=3, data=[44, 100]),
   midi.NoteOnEvent(tick=60, channel=3, data=[44, 0]),
   midi.NoteOnEvent(tick=30, channel=3, data=[40, 100]),
   midi.NoteOnEvent(tick=60, channel=3, data=[40, 0]),
   midi.NoteOnEvent(tick=30, channel=3, data=[40, 100]),
   midi.NoteOnEvent(tick=60, channel=3, data=[40, 0]),
   midi.NoteOnEvent(tick=30, channel=3, data=[40, 100]),
   midi.NoteOnEvent(tick=60, channel=3, data=[40, 0]),
   midi.NoteOnEvent(tick=0, channel=3, data=[42, 100]),
   midi.NoteOnEvent(tick=60, channel=3, data=[42, 0]),
   midi.NoteOnEvent(tick=30, channel=3, data=[42, 100]),
   midi.NoteOnEvent(tick=60, channel=3, data=[42, 0]),
   midi.NoteOnEvent(tick=30, channel=3, data=[44, 100]),
   midi.NoteOnEvent(tick=60, channel=3, data=[44, 0]),
   midi.NoteOnEvent(tick=30, channel=3, data=[44, 100]),
   midi.NoteOnEvent(tick=60, channel=3, data=[44, 0]),
   midi.NoteOnEvent(tick=30, channel=3, data=[44, 100]),
   midi.NoteOnEvent(tick=60, channel=3, data=[44, 0]),
   midi.NoteOnEvent(tick=30, channel=3, data=[44, 100]),
   midi.NoteOnEvent(tick=60, channel=3, data=[44, 0]),
   midi.NoteOnEvent(tick=30, channel=3, data=[44, 100]),
   midi.NoteOnEvent(tick=60, channel=3, data=[44, 0]),
   midi.NoteOnEvent(tick=30, channel=3, data=[44, 100]),
   midi.NoteOnEvent(tick=60, channel=3, data=[44, 0]),
   midi.NoteOnEvent(tick=4830, channel=3, data=[44, 100]),
   midi.NoteOnEvent(tick=60, channel=3, data=[44, 0]),
   midi.NoteOnEvent(tick=30, channel=3, data=[44, 100]),
   midi.NoteOnEvent(tick=60, channel=3, data=[44, 0]),
   midi.NoteOnEvent(tick=30, channel=3, data=[37, 100]),
   midi.NoteOnEvent(tick=60, channel=3, data=[37, 0]),
   midi.NoteOnEvent(tick=0, channel=3, data=[40, 100]),
   midi.NoteOnEvent(tick=60, channel=3, data=[40, 0]),
   midi.NoteOnEvent(tick=30, channel=3, data=[40, 100]),
   midi.NoteOnEvent(tick=60, channel=3, data=[40, 0]),
   midi.NoteOnEvent(tick=30, channel=3, data=[42, 100]),
   midi.NoteOnEvent(tick=60, channel=3, data=[42, 0]),
   midi.NoteOnEvent(tick=30, channel=3, data=[42, 100]),
   midi.NoteOnEvent(tick=60, channel=3, data=[42, 0]),
   midi.NoteOnEvent(tick=30, channel=3, data=[42, 100]),
   midi.NoteOnEvent(tick=60, channel=3, data=[42, 0]),
   midi.NoteOnEvent(tick=30, channel=3, data=[42, 100]),
   midi.NoteOnEvent(tick=60, channel=3, data=[42, 0]),
   midi.NoteOnEvent(tick=30, channel=3, data=[42, 100]),
   midi.NoteOnEvent(tick=60, channel=3, data=[42, 0]),
   midi.NoteOnEvent(tick=0, channel=3, data=[44, 100]),
   midi.NoteOnEvent(tick=30, channel=3, data=[44, 0]),
   midi.NoteOnEvent(tick=0, channel=3, data=[42, 100]),
   midi.NoteOnEvent(tick=30, channel=3, data=[42, 0]),
   midi.NoteOnEvent(tick=0, channel=3, data=[40, 100]),
   midi.NoteOnEvent(tick=60, channel=3, data=[40, 0]),
   midi.NoteOnEvent(tick=0, channel=3, data=[37, 100]),
   midi.NoteOnEvent(tick=60, channel=3, data=[37, 0]),
   midi.NoteOnEvent(tick=30, channel=3, data=[37, 100]),
   midi.NoteOnEvent(tick=60, channel=3, data=[37, 0]),
   midi.NoteOnEvent(tick=30, channel=3, data=[44, 100]),
   midi.NoteOnEvent(tick=60, channel=3, data=[44, 0]),
   midi.NoteOnEvent(tick=0, channel=3, data=[42, 100]),
   midi.NoteOnEvent(tick=60, channel=3, data=[42, 0]),
   midi.NoteOnEvent(tick=30, channel=3, data=[42, 100]),
   midi.NoteOnEvent(tick=60, channel=3, data=[42, 0]),
   midi.NoteOnEvent(tick=30, channel=3, data=[39, 100]),
   midi.NoteOnEvent(tick=60, channel=3, data=[39, 0]),
   midi.NoteOnEvent(tick=30, channel=3, data=[39, 100]),
   midi.NoteOnEvent(tick=60, channel=3, data=[39, 0]),
   midi.NoteOnEvent(tick=30, channel=3, data=[40, 100]),
   midi.NoteOnEvent(tick=60, channel=3, data=[40, 0]),
   midi.NoteOnEvent(tick=30, channel=3, data=[40, 100]),
   midi.NoteOnEvent(tick=60, channel=3, data=[40, 0]),
   midi.NoteOnEvent(tick=30, channel=3, data=[40, 100]),
   midi.NoteOnEvent(tick=60, channel=3, data=[40, 0]),
   midi.NoteOnEvent(tick=30, channel=3, data=[40, 100]),
   midi.NoteOnEvent(tick=60, channel=3, data=[40, 0]),
   midi.NoteOnEvent(tick=30, channel=3, data=[44, 100]),
   midi.NoteOnEvent(tick=60, channel=3, data=[44, 0]),
   midi.NoteOnEvent(tick=30, channel=3, data=[44, 100]),
   midi.NoteOnEvent(tick=60, channel=3, data=[44, 0]),
   midi.NoteOnEvent(tick=30, channel=3, data=[37, 100]),
   midi.NoteOnEvent(tick=60, channel=3, data=[37, 0]),
   midi.NoteOnEvent(tick=0, channel=3, data=[40, 100]),
   midi.NoteOnEvent(tick=60, channel=3, data=[40, 0]),
   midi.NoteOnEvent(tick=30, channel=3, data=[40, 100]),
   midi.NoteOnEvent(tick=60, channel=3, data=[40, 0]),
   midi.NoteOnEvent(tick=30, channel=3, data=[42, 100]),
   midi.NoteOnEvent(tick=60, channel=3, data=[42, 0]),
   midi.NoteOnEvent(tick=30, channel=3, data=[42, 100]),
   midi.NoteOnEvent(tick=60, channel=3, data=[42, 0]),
   midi.NoteOnEvent(tick=30, channel=3, data=[42, 100]),
   midi.NoteOnEvent(tick=60, channel=3, data=[42, 0]),
   midi.NoteOnEvent(tick=30, channel=3, data=[42, 100]),
   midi.NoteOnEvent(tick=60, channel=3, data=[42, 0]),
   midi.NoteOnEvent(tick=30, channel=3, data=[42, 100]),
   midi.NoteOnEvent(tick=60, channel=3, data=[42, 0]),
   midi.NoteOnEvent(tick=0, channel=3, data=[44, 100]),
   midi.NoteOnEvent(tick=30, channel=3, data=[44, 0]),
   midi.NoteOnEvent(tick=0, channel=3, data=[42, 100]),
   midi.NoteOnEvent(tick=30, channel=3, data=[42, 0]),
   midi.NoteOnEvent(tick=0, channel=3, data=[40, 100]),
   midi.NoteOnEvent(tick=60, channel=3, data=[40, 0]),
   midi.NoteOnEvent(tick=0, channel=3, data=[37, 100]),
   midi.NoteOnEvent(tick=60, channel=3, data=[37, 0]),
   midi.NoteOnEvent(tick=30, channel=3, data=[37, 100]),
   midi.NoteOnEvent(tick=30, channel=3, data=[37, 0]),
   midi.NoteOnEvent(tick=30, channel=3, data=[37, 100]),
   midi.NoteOnEvent(tick=30, channel=3, data=[37, 0]),
   midi.NoteOnEvent(tick=0, channel=3, data=[44, 100]),
   midi.NoteOnEvent(tick=60, channel=3, data=[44, 0]),
   midi.NoteOnEvent(tick=0, channel=3, data=[42, 100]),
   midi.NoteOnEvent(tick=60, channel=3, data=[42, 0]),
   midi.NoteOnEvent(tick=30, channel=3, data=[42, 100]),
   midi.NoteOnEvent(tick=60, channel=3, data=[42, 0]),
   midi.NoteOnEvent(tick=30, channel=3, data=[39, 100]),
   midi.NoteOnEvent(tick=60, channel=3, data=[39, 0]),
   midi.NoteOnEvent(tick=30, channel=3, data=[39, 100]),
   midi.NoteOnEvent(tick=60, channel=3, data=[39, 0]),
   midi.NoteOnEvent(tick=30, channel=3, data=[40, 100]),
   midi.NoteOnEvent(tick=60, channel=3, data=[40, 0]),
   midi.NoteOnEvent(tick=30, channel=3, data=[40, 100]),
   midi.NoteOnEvent(tick=60, channel=3, data=[40, 0]),
   midi.NoteOnEvent(tick=30, channel=3, data=[40, 100]),
   midi.NoteOnEvent(tick=60, channel=3, data=[40, 0]),
   midi.NoteOnEvent(tick=120, channel=3, data=[44, 100]),
   midi.NoteOnEvent(tick=60, channel=3, data=[44, 0]),
   midi.NoteOnEvent(tick=30, channel=3, data=[44, 100]),
   midi.NoteOnEvent(tick=60, channel=3, data=[44, 0]),
   midi.NoteOnEvent(tick=30, channel=3, data=[37, 100]),
   midi.NoteOnEvent(tick=60, channel=3, data=[37, 0]),
   midi.NoteOnEvent(tick=0, channel=3, data=[40, 100]),
   midi.NoteOnEvent(tick=60, channel=3, data=[40, 0]),
   midi.NoteOnEvent(tick=30, channel=3, data=[40, 100]),
   midi.NoteOnEvent(tick=60, channel=3, data=[40, 0]),
   midi.NoteOnEvent(tick=30, channel=3, data=[42, 100]),
   midi.NoteOnEvent(tick=60, channel=3, data=[42, 0]),
   midi.NoteOnEvent(tick=30, channel=3, data=[42, 100]),
   midi.NoteOnEvent(tick=60, channel=3, data=[42, 0]),
   midi.NoteOnEvent(tick=30, channel=3, data=[42, 100]),
   midi.NoteOnEvent(tick=60, channel=3, data=[42, 0]),
   midi.NoteOnEvent(tick=30, channel=3, data=[42, 100]),
   midi.NoteOnEvent(tick=60, channel=3, data=[42, 0]),
   midi.NoteOnEvent(tick=30, channel=3, data=[42, 100]),
   midi.NoteOnEvent(tick=60, channel=3, data=[42, 0]),
   midi.NoteOnEvent(tick=0, channel=3, data=[44, 100]),
   midi.NoteOnEvent(tick=30, channel=3, data=[44, 0]),
   midi.NoteOnEvent(tick=0, channel=3, data=[42, 100]),
   midi.NoteOnEvent(tick=30, channel=3, data=[42, 0]),
   midi.NoteOnEvent(tick=0, channel=3, data=[40, 100]),
   midi.NoteOnEvent(tick=60, channel=3, data=[40, 0]),
   midi.NoteOnEvent(tick=0, channel=3, data=[37, 100]),
   midi.NoteOnEvent(tick=60, channel=3, data=[37, 0]),
   midi.NoteOnEvent(tick=30, channel=3, data=[37, 100]),
   midi.NoteOnEvent(tick=60, channel=3, data=[37, 0]),
   midi.NoteOnEvent(tick=30, channel=3, data=[44, 100]),
   midi.NoteOnEvent(tick=60, channel=3, data=[44, 0]),
   midi.NoteOnEvent(tick=0, channel=3, data=[42, 100]),
   midi.NoteOnEvent(tick=60, channel=3, data=[42, 0]),
   midi.NoteOnEvent(tick=30, channel=3, data=[42, 100]),
   midi.NoteOnEvent(tick=60, channel=3, data=[42, 0]),
   midi.NoteOnEvent(tick=30, channel=3, data=[39, 100]),
   midi.NoteOnEvent(tick=60, channel=3, data=[39, 0]),
   midi.NoteOnEvent(tick=30, channel=3, data=[39, 100]),
   midi.NoteOnEvent(tick=60, channel=3, data=[39, 0]),
   midi.NoteOnEvent(tick=30, channel=3, data=[40, 100]),
   midi.NoteOnEvent(tick=60, channel=3, data=[40, 0]),
   midi.NoteOnEvent(tick=30, channel=3, data=[40, 100]),
   midi.NoteOnEvent(tick=60, channel=3, data=[40, 0]),
   midi.NoteOnEvent(tick=30, channel=3, data=[40, 100]),
   midi.NoteOnEvent(tick=60, channel=3, data=[40, 0]),
   midi.NoteOnEvent(tick=30, channel=3, data=[40, 100]),
   midi.NoteOnEvent(tick=60, channel=3, data=[40, 0]),
   midi.NoteOnEvent(tick=30, channel=3, data=[44, 100]),
   midi.NoteOnEvent(tick=60, channel=3, data=[44, 0]),
   midi.NoteOnEvent(tick=30, channel=3, data=[44, 100]),
   midi.NoteOnEvent(tick=60, channel=3, data=[44, 0]),
   midi.NoteOnEvent(tick=30, channel=3, data=[37, 100]),
   midi.NoteOnEvent(tick=60, channel=3, data=[37, 0]),
   midi.NoteOnEvent(tick=0, channel=3, data=[40, 100]),
   midi.NoteOnEvent(tick=60, channel=3, data=[40, 0]),
   midi.NoteOnEvent(tick=30, channel=3, data=[40, 100]),
   midi.NoteOnEvent(tick=60, channel=3, data=[40, 0]),
   midi.NoteOnEvent(tick=30, channel=3, data=[42, 100]),
   midi.NoteOnEvent(tick=60, channel=3, data=[42, 0]),
   midi.NoteOnEvent(tick=30, channel=3, data=[42, 100]),
   midi.NoteOnEvent(tick=60, channel=3, data=[42, 0]),
   midi.NoteOnEvent(tick=30, channel=3, data=[42, 100]),
   midi.NoteOnEvent(tick=60, channel=3, data=[42, 0]),
   midi.NoteOnEvent(tick=30, channel=3, data=[42, 100]),
   midi.NoteOnEvent(tick=60, channel=3, data=[42, 0]),
   midi.NoteOnEvent(tick=30, channel=3, data=[42, 100]),
   midi.NoteOnEvent(tick=60, channel=3, data=[42, 0]),
   midi.NoteOnEvent(tick=0, channel=3, data=[44, 100]),
   midi.NoteOnEvent(tick=30, channel=3, data=[44, 0]),
   midi.NoteOnEvent(tick=0, channel=3, data=[42, 100]),
   midi.NoteOnEvent(tick=30, channel=3, data=[42, 0]),
   midi.NoteOnEvent(tick=0, channel=3, data=[40, 100]),
   midi.NoteOnEvent(tick=60, channel=3, data=[40, 0]),
   midi.NoteOnEvent(tick=0, channel=3, data=[37, 100]),
   midi.NoteOnEvent(tick=60, channel=3, data=[37, 0]),
   midi.NoteOnEvent(tick=30, channel=3, data=[37, 100]),
   midi.NoteOnEvent(tick=30, channel=3, data=[37, 0]),
   midi.NoteOnEvent(tick=30, channel=3, data=[37, 100]),
   midi.NoteOnEvent(tick=30, channel=3, data=[37, 0]),
   midi.NoteOnEvent(tick=0, channel=3, data=[44, 100]),
   midi.NoteOnEvent(tick=60, channel=3, data=[44, 0]),
   midi.NoteOnEvent(tick=0, channel=3, data=[42, 100]),
   midi.NoteOnEvent(tick=60, channel=3, data=[42, 0]),
   midi.NoteOnEvent(tick=30, channel=3, data=[42, 100]),
   midi.NoteOnEvent(tick=60, channel=3, data=[42, 0]),
   midi.NoteOnEvent(tick=30, channel=3, data=[39, 100]),
   midi.NoteOnEvent(tick=60, channel=3, data=[39, 0]),
   midi.NoteOnEvent(tick=30, channel=3, data=[39, 100]),
   midi.NoteOnEvent(tick=60, channel=3, data=[39, 0]),
   midi.NoteOnEvent(tick=30, channel=3, data=[40, 100]),
   midi.NoteOnEvent(tick=60, channel=3, data=[40, 0]),
   midi.NoteOnEvent(tick=30, channel=3, data=[40, 100]),
   midi.NoteOnEvent(tick=60, channel=3, data=[40, 0]),
   midi.NoteOnEvent(tick=30, channel=3, data=[40, 100]),
   midi.NoteOnEvent(tick=60, channel=3, data=[40, 0]),
   midi.NoteOnEvent(tick=120, channel=3, data=[40, 100]),
   midi.NoteOnEvent(tick=60, channel=3, data=[40, 0]),
   midi.NoteOnEvent(tick=30, channel=3, data=[40, 100]),
   midi.NoteOnEvent(tick=60, channel=3, data=[40, 0]),
   midi.NoteOnEvent(tick=30, channel=3, data=[40, 100]),
   midi.NoteOnEvent(tick=60, channel=3, data=[40, 0]),
   midi.NoteOnEvent(tick=0, channel=3, data=[42, 100]),
   midi.NoteOnEvent(tick=60, channel=3, data=[42, 0]),
   midi.NoteOnEvent(tick=30, channel=3, data=[42, 100]),
   midi.NoteOnEvent(tick=60, channel=3, data=[42, 0]),
   midi.NoteOnEvent(tick=30, channel=3, data=[44, 100]),
   midi.NoteOnEvent(tick=60, channel=3, data=[44, 0]),
   midi.NoteOnEvent(tick=30, channel=3, data=[44, 100]),
   midi.NoteOnEvent(tick=60, channel=3, data=[44, 0]),
   midi.NoteOnEvent(tick=30, channel=3, data=[44, 100]),
   midi.NoteOnEvent(tick=60, channel=3, data=[44, 0]),
   midi.NoteOnEvent(tick=30, channel=3, data=[44, 100]),
   midi.NoteOnEvent(tick=60, channel=3, data=[44, 0]),
   midi.NoteOnEvent(tick=30, channel=3, data=[44, 100]),
   midi.NoteOnEvent(tick=60, channel=3, data=[44, 0]),
   midi.NoteOnEvent(tick=30, channel=3, data=[44, 100]),
   midi.NoteOnEvent(tick=60, channel=3, data=[44, 0]),
   midi.NoteOnEvent(tick=30, channel=3, data=[40, 100]),
   midi.NoteOnEvent(tick=60, channel=3, data=[40, 0]),
   midi.NoteOnEvent(tick=30, channel=3, data=[40, 100]),
   midi.NoteOnEvent(tick=60, channel=3, data=[40, 0]),
   midi.NoteOnEvent(tick=30, channel=3, data=[40, 100]),
   midi.NoteOnEvent(tick=60, channel=3, data=[40, 0]),
   midi.NoteOnEvent(tick=0, channel=3, data=[42, 100]),
   midi.NoteOnEvent(tick=60, channel=3, data=[42, 0]),
   midi.NoteOnEvent(tick=30, channel=3, data=[42, 100]),
   midi.NoteOnEvent(tick=60, channel=3, data=[42, 0]),
   midi.NoteOnEvent(tick=30, channel=3, data=[44, 100]),
   midi.NoteOnEvent(tick=60, channel=3, data=[44, 0]),
   midi.NoteOnEvent(tick=30, channel=3, data=[44, 100]),
   midi.NoteOnEvent(tick=60, channel=3, data=[44, 0]),
   midi.NoteOnEvent(tick=30, channel=3, data=[44, 100]),
   midi.NoteOnEvent(tick=60, channel=3, data=[44, 0]),
   midi.NoteOnEvent(tick=30, channel=3, data=[44, 100]),
   midi.NoteOnEvent(tick=60, channel=3, data=[44, 0]),
   midi.NoteOnEvent(tick=30, channel=3, data=[37, 100]),
   midi.NoteOnEvent(tick=60, channel=3, data=[37, 0]),
   midi.NoteOnEvent(tick=30, channel=3, data=[37, 100]),
   midi.NoteOnEvent(tick=60, channel=3, data=[37, 0]),
   midi.NoteOnEvent(tick=30, channel=3, data=[40, 100]),
   midi.NoteOnEvent(tick=60, channel=3, data=[40, 0]),
   midi.NoteOnEvent(tick=30, channel=3, data=[40, 100]),
   midi.NoteOnEvent(tick=60, channel=3, data=[40, 0]),
   midi.NoteOnEvent(tick=30, channel=3, data=[40, 100]),
   midi.NoteOnEvent(tick=60, channel=3, data=[40, 0]),
   midi.NoteOnEvent(tick=0, channel=3, data=[42, 100]),
   midi.NoteOnEvent(tick=60, channel=3, data=[42, 0]),
   midi.NoteOnEvent(tick=30, channel=3, data=[42, 100]),
   midi.NoteOnEvent(tick=60, channel=3, data=[42, 0]),
   midi.NoteOnEvent(tick=30, channel=3, data=[44, 100]),
   midi.NoteOnEvent(tick=60, channel=3, data=[44, 0]),
   midi.NoteOnEvent(tick=30, channel=3, data=[44, 100]),
   midi.NoteOnEvent(tick=60, channel=3, data=[44, 0]),
   midi.NoteOnEvent(tick=30, channel=3, data=[44, 100]),
   midi.NoteOnEvent(tick=60, channel=3, data=[44, 0]),
   midi.NoteOnEvent(tick=30, channel=3, data=[44, 100]),
   midi.NoteOnEvent(tick=60, channel=3, data=[44, 0]),
   midi.NoteOnEvent(tick=30, channel=3, data=[44, 100]),
   midi.NoteOnEvent(tick=60, channel=3, data=[44, 0]),
   midi.NoteOnEvent(tick=30, channel=3, data=[44, 100]),
   midi.NoteOnEvent(tick=60, channel=3, data=[44, 0]),
   midi.NoteOnEvent(tick=30, channel=3, data=[40, 100]),
   midi.NoteOnEvent(tick=60, channel=3, data=[40, 0]),
   midi.NoteOnEvent(tick=30, channel=3, data=[40, 100]),
   midi.NoteOnEvent(tick=60, channel=3, data=[40, 0]),
   midi.NoteOnEvent(tick=30, channel=3, data=[40, 100]),
   midi.NoteOnEvent(tick=60, channel=3, data=[40, 0]),
   midi.NoteOnEvent(tick=0, channel=3, data=[42, 100]),
   midi.NoteOnEvent(tick=60, channel=3, data=[42, 0]),
   midi.NoteOnEvent(tick=30, channel=3, data=[42, 100]),
   midi.NoteOnEvent(tick=60, channel=3, data=[42, 0]),
   midi.NoteOnEvent(tick=30, channel=3, data=[44, 100]),
   midi.NoteOnEvent(tick=60, channel=3, data=[44, 0]),
   midi.NoteOnEvent(tick=30, channel=3, data=[44, 100]),
   midi.NoteOnEvent(tick=60, channel=3, data=[44, 0]),
   midi.NoteOnEvent(tick=30, channel=3, data=[44, 100]),
   midi.NoteOnEvent(tick=60, channel=3, data=[44, 0]),
   midi.NoteOnEvent(tick=30, channel=3, data=[44, 100]),
   midi.NoteOnEvent(tick=60, channel=3, data=[44, 0]),
   midi.NoteOnEvent(tick=30, channel=3, data=[44, 100]),
   midi.NoteOnEvent(tick=60, channel=3, data=[44, 0]),
   midi.NoteOnEvent(tick=30, channel=3, data=[44, 100]),
   midi.NoteOnEvent(tick=60, channel=3, data=[44, 0]),
   midi.NoteOnEvent(tick=4830, channel=3, data=[40, 100]),
   midi.NoteOnEvent(tick=60, channel=3, data=[40, 0]),
   midi.NoteOnEvent(tick=30, channel=3, data=[40, 100]),
   midi.NoteOnEvent(tick=60, channel=3, data=[40, 0]),
   midi.NoteOnEvent(tick=30, channel=3, data=[40, 100]),
   midi.NoteOnEvent(tick=60, channel=3, data=[40, 0]),
   midi.NoteOnEvent(tick=0, channel=3, data=[42, 100]),
   midi.NoteOnEvent(tick=60, channel=3, data=[42, 0]),
   midi.NoteOnEvent(tick=30, channel=3, data=[42, 100]),
   midi.NoteOnEvent(tick=60, channel=3, data=[42, 0]),
   midi.NoteOnEvent(tick=30, channel=3, data=[44, 100]),
   midi.NoteOnEvent(tick=60, channel=3, data=[44, 0]),
   midi.NoteOnEvent(tick=30, channel=3, data=[44, 100]),
   midi.NoteOnEvent(tick=60, channel=3, data=[44, 0]),
   midi.NoteOnEvent(tick=30, channel=3, data=[44, 100]),
   midi.NoteOnEvent(tick=60, channel=3, data=[44, 0]),
   midi.NoteOnEvent(tick=30, channel=3, data=[44, 100]),
   midi.NoteOnEvent(tick=60, channel=3, data=[44, 0]),
   midi.NoteOnEvent(tick=30, channel=3, data=[44, 100]),
   midi.NoteOnEvent(tick=60, channel=3, data=[44, 0]),
   midi.NoteOnEvent(tick=30, channel=3, data=[44, 100]),
   midi.NoteOnEvent(tick=60, channel=3, data=[44, 0]),
   midi.NoteOnEvent(tick=30, channel=3, data=[40, 100]),
   midi.NoteOnEvent(tick=60, channel=3, data=[40, 0]),
   midi.NoteOnEvent(tick=30, channel=3, data=[40, 100]),
   midi.NoteOnEvent(tick=60, channel=3, data=[40, 0]),
   midi.NoteOnEvent(tick=30, channel=3, data=[40, 100]),
   midi.NoteOnEvent(tick=60, channel=3, data=[40, 0]),
   midi.NoteOnEvent(tick=0, channel=3, data=[42, 100]),
   midi.NoteOnEvent(tick=60, channel=3, data=[42, 0]),
   midi.NoteOnEvent(tick=30, channel=3, data=[42, 100]),
   midi.NoteOnEvent(tick=60, channel=3, data=[42, 0]),
   midi.NoteOnEvent(tick=30, channel=3, data=[44, 100]),
   midi.NoteOnEvent(tick=60, channel=3, data=[44, 0]),
   midi.NoteOnEvent(tick=30, channel=3, data=[44, 100]),
   midi.NoteOnEvent(tick=60, channel=3, data=[44, 0]),
   midi.NoteOnEvent(tick=30, channel=3, data=[44, 100]),
   midi.NoteOnEvent(tick=60, channel=3, data=[44, 0]),
   midi.NoteOnEvent(tick=30, channel=3, data=[44, 100]),
   midi.NoteOnEvent(tick=60, channel=3, data=[44, 0]),
   midi.NoteOnEvent(tick=30, channel=3, data=[37, 100]),
   midi.NoteOnEvent(tick=60, channel=3, data=[37, 0]),
   midi.NoteOnEvent(tick=30, channel=3, data=[37, 100]),
   midi.NoteOnEvent(tick=60, channel=3, data=[37, 0]),
   midi.NoteOnEvent(tick=30, channel=3, data=[40, 100]),
   midi.NoteOnEvent(tick=60, channel=3, data=[40, 0]),
   midi.NoteOnEvent(tick=30, channel=3, data=[40, 100]),
   midi.NoteOnEvent(tick=60, channel=3, data=[40, 0]),
   midi.NoteOnEvent(tick=30, channel=3, data=[40, 100]),
   midi.NoteOnEvent(tick=60, channel=3, data=[40, 0]),
   midi.NoteOnEvent(tick=0, channel=3, data=[42, 100]),
   midi.NoteOnEvent(tick=60, channel=3, data=[42, 0]),
   midi.NoteOnEvent(tick=30, channel=3, data=[42, 100]),
   midi.NoteOnEvent(tick=60, channel=3, data=[42, 0]),
   midi.NoteOnEvent(tick=30, channel=3, data=[44, 100]),
   midi.NoteOnEvent(tick=60, channel=3, data=[44, 0]),
   midi.NoteOnEvent(tick=30, channel=3, data=[44, 100]),
   midi.NoteOnEvent(tick=60, channel=3, data=[44, 0]),
   midi.NoteOnEvent(tick=30, channel=3, data=[44, 100]),
   midi.NoteOnEvent(tick=60, channel=3, data=[44, 0]),
   midi.NoteOnEvent(tick=30, channel=3, data=[44, 100]),
   midi.NoteOnEvent(tick=60, channel=3, data=[44, 0]),
   midi.NoteOnEvent(tick=30, channel=3, data=[44, 100]),
   midi.NoteOnEvent(tick=60, channel=3, data=[44, 0]),
   midi.NoteOnEvent(tick=30, channel=3, data=[44, 100]),
   midi.NoteOnEvent(tick=60, channel=3, data=[44, 0]),
   midi.NoteOnEvent(tick=30, channel=3, data=[40, 100]),
   midi.NoteOnEvent(tick=60, channel=3, data=[40, 0]),
   midi.NoteOnEvent(tick=30, channel=3, data=[40, 100]),
   midi.NoteOnEvent(tick=60, channel=3, data=[40, 0]),
   midi.NoteOnEvent(tick=30, channel=3, data=[40, 100]),
   midi.NoteOnEvent(tick=60, channel=3, data=[40, 0]),
   midi.NoteOnEvent(tick=0, channel=3, data=[42, 100]),
   midi.NoteOnEvent(tick=60, channel=3, data=[42, 0]),
   midi.NoteOnEvent(tick=30, channel=3, data=[42, 100]),
   midi.NoteOnEvent(tick=60, channel=3, data=[42, 0]),
   midi.NoteOnEvent(tick=30, channel=3, data=[44, 100]),
   midi.NoteOnEvent(tick=60, channel=3, data=[44, 0]),
   midi.NoteOnEvent(tick=30, channel=3, data=[44, 100]),
   midi.NoteOnEvent(tick=60, channel=3, data=[44, 0]),
   midi.NoteOnEvent(tick=30, channel=3, data=[44, 100]),
   midi.NoteOnEvent(tick=60, channel=3, data=[44, 0]),
   midi.NoteOnEvent(tick=30, channel=3, data=[44, 100]),
   midi.NoteOnEvent(tick=60, channel=3, data=[44, 0]),
   midi.NoteOnEvent(tick=30, channel=3, data=[37, 100]),
   midi.NoteOnEvent(tick=60, channel=3, data=[37, 0]),
   midi.NoteOnEvent(tick=120, channel=3, data=[40, 100]),
   midi.NoteOnEvent(tick=60, channel=3, data=[40, 0]),
   midi.NoteOnEvent(tick=30, channel=3, data=[40, 100]),
   midi.NoteOnEvent(tick=60, channel=3, data=[40, 0]),
   midi.NoteOnEvent(tick=30, channel=3, data=[40, 100]),
   midi.NoteOnEvent(tick=60, channel=3, data=[40, 0]),
   midi.NoteOnEvent(tick=0, channel=3, data=[42, 100]),
   midi.NoteOnEvent(tick=60, channel=3, data=[42, 0]),
   midi.NoteOnEvent(tick=30, channel=3, data=[42, 100]),
   midi.NoteOnEvent(tick=60, channel=3, data=[42, 0]),
   midi.NoteOnEvent(tick=30, channel=3, data=[44, 100]),
   midi.NoteOnEvent(tick=60, channel=3, data=[44, 0]),
   midi.NoteOnEvent(tick=30, channel=3, data=[44, 100]),
   midi.NoteOnEvent(tick=60, channel=3, data=[44, 0]),
   midi.NoteOnEvent(tick=30, channel=3, data=[44, 100]),
   midi.NoteOnEvent(tick=60, channel=3, data=[44, 0]),
   midi.NoteOnEvent(tick=30, channel=3, data=[44, 100]),
   midi.NoteOnEvent(tick=60, channel=3, data=[44, 0]),
   midi.NoteOnEvent(tick=30, channel=3, data=[44, 100]),
   midi.NoteOnEvent(tick=60, channel=3, data=[44, 0]),
   midi.NoteOnEvent(tick=30, channel=3, data=[44, 100]),
   midi.NoteOnEvent(tick=60, channel=3, data=[44, 0]),
   midi.NoteOnEvent(tick=30, channel=3, data=[40, 100]),
   midi.NoteOnEvent(tick=60, channel=3, data=[40, 0]),
   midi.NoteOnEvent(tick=30, channel=3, data=[40, 100]),
   midi.NoteOnEvent(tick=60, channel=3, data=[40, 0]),
   midi.NoteOnEvent(tick=30, channel=3, data=[40, 100]),
   midi.NoteOnEvent(tick=60, channel=3, data=[40, 0]),
   midi.NoteOnEvent(tick=0, channel=3, data=[42, 100]),
   midi.NoteOnEvent(tick=60, channel=3, data=[42, 0]),
   midi.NoteOnEvent(tick=30, channel=3, data=[42, 100]),
   midi.NoteOnEvent(tick=60, channel=3, data=[42, 0]),
   midi.NoteOnEvent(tick=30, channel=3, data=[44, 100]),
   midi.NoteOnEvent(tick=60, channel=3, data=[44, 0]),
   midi.NoteOnEvent(tick=30, channel=3, data=[44, 100]),
   midi.NoteOnEvent(tick=60, channel=3, data=[44, 0]),
   midi.NoteOnEvent(tick=30, channel=3, data=[44, 100]),
   midi.NoteOnEvent(tick=60, channel=3, data=[44, 0]),
   midi.NoteOnEvent(tick=30, channel=3, data=[44, 100]),
   midi.NoteOnEvent(tick=60, channel=3, data=[44, 0]),
   midi.NoteOnEvent(tick=30, channel=3, data=[37, 100]),
   midi.NoteOnEvent(tick=60, channel=3, data=[37, 0]),
   midi.NoteOnEvent(tick=30, channel=3, data=[37, 100]),
   midi.NoteOnEvent(tick=60, channel=3, data=[37, 0]),
   midi.NoteOnEvent(tick=30, channel=3, data=[40, 100]),
   midi.NoteOnEvent(tick=60, channel=3, data=[40, 0]),
   midi.NoteOnEvent(tick=30, channel=3, data=[40, 100]),
   midi.NoteOnEvent(tick=60, channel=3, data=[40, 0]),
   midi.NoteOnEvent(tick=30, channel=3, data=[40, 100]),
   midi.NoteOnEvent(tick=60, channel=3, data=[40, 0]),
   midi.NoteOnEvent(tick=0, channel=3, data=[42, 100]),
   midi.NoteOnEvent(tick=60, channel=3, data=[42, 0]),
   midi.NoteOnEvent(tick=30, channel=3, data=[42, 100]),
   midi.NoteOnEvent(tick=60, channel=3, data=[42, 0]),
   midi.NoteOnEvent(tick=30, channel=3, data=[44, 100]),
   midi.NoteOnEvent(tick=60, channel=3, data=[44, 0]),
   midi.NoteOnEvent(tick=30, channel=3, data=[44, 100]),
   midi.NoteOnEvent(tick=60, channel=3, data=[44, 0]),
   midi.NoteOnEvent(tick=30, channel=3, data=[44, 100]),
   midi.NoteOnEvent(tick=60, channel=3, data=[44, 0]),
   midi.NoteOnEvent(tick=30, channel=3, data=[44, 100]),
   midi.NoteOnEvent(tick=60, channel=3, data=[44, 0]),
   midi.NoteOnEvent(tick=30, channel=3, data=[44, 100]),
   midi.NoteOnEvent(tick=60, channel=3, data=[44, 0]),
   midi.NoteOnEvent(tick=30, channel=3, data=[44, 100]),
   midi.NoteOnEvent(tick=60, channel=3, data=[44, 0]),
   midi.EndOfTrackEvent(tick=0, data=[])]),
 midi.Track(\
  [midi.TrackNameEvent(tick=0, text='Secondary Accompaniment', data=[83, 101, 99, 111, 110, 100, 97, 114, 121, 32, 65, 99, 99, 111, 109, 112, 97, 110, 105, 109, 101, 110, 116]),
   midi.ControlChangeEvent(tick=123, channel=4, data=[0, 121]),
   midi.ControlChangeEvent(tick=0, channel=4, data=[32, 0]),
   midi.ProgramChangeEvent(tick=0, channel=4, data=[0]),
   midi.ControlChangeEvent(tick=0, channel=4, data=[91, 64]),
   midi.ControlChangeEvent(tick=0, channel=4, data=[93, 64]),
   midi.EndOfTrackEvent(tick=0, data=[])]),
 midi.Track(\
  [midi.TrackNameEvent(tick=0, text='Vocals', data=[86, 111, 99, 97, 108, 115]),
   midi.ControlChangeEvent(tick=123, channel=5, data=[0, 121]),
   midi.ControlChangeEvent(tick=0, channel=5, data=[32, 0]),
   midi.ProgramChangeEvent(tick=0, channel=5, data=[65]),
   midi.ControlChangeEvent(tick=1, channel=5, data=[7, 101]),
   midi.ControlChangeEvent(tick=0, channel=5, data=[91, 127]),
   midi.ControlChangeEvent(tick=0, channel=5, data=[93, 64]),
   midi.NoteOnEvent(tick=4736, channel=5, data=[68, 100]),
   midi.NoteOnEvent(tick=60, channel=5, data=[68, 0]),
   midi.NoteOnEvent(tick=0, channel=5, data=[73, 100]),
   midi.PitchWheelEvent(tick=0, channel=5, data=[0, 0]),
   midi.PitchWheelEvent(tick=17, channel=5, data=[0, 0]),
   midi.PitchWheelEvent(tick=6, channel=5, data=[26, 13]),
   midi.PitchWheelEvent(tick=7, channel=5, data=[69, 26]),
   midi.PitchWheelEvent(tick=6, channel=5, data=[111, 39]),
   midi.PitchWheelEvent(tick=6, channel=5, data=[26, 53]),
   midi.PitchWheelEvent(tick=5, channel=5, data=[0, 64]),
   midi.NoteOnEvent(tick=73, channel=5, data=[73, 0]),
   midi.NoteOnEvent(tick=0, channel=5, data=[71, 100]),
   midi.NoteOnEvent(tick=120, channel=5, data=[71, 0]),
   midi.NoteOnEvent(tick=60, channel=5, data=[68, 100]),
   midi.NoteOnEvent(tick=60, channel=5, data=[68, 0]),
   midi.PitchWheelEvent(tick=0, channel=5, data=[0, 0]),
   midi.NoteOnEvent(tick=0, channel=5, data=[71, 100]),
   midi.PitchWheelEvent(tick=17, channel=5, data=[0, 0]),
   midi.PitchWheelEvent(tick=1, channel=5, data=[0, 3]),
   midi.PitchWheelEvent(tick=6, channel=5, data=[0, 23]),
   midi.PitchWheelEvent(tick=7, channel=5, data=[0, 43]),
   midi.PitchWheelEvent(tick=6, channel=5, data=[0, 63]),
   midi.PitchWheelEvent(tick=0, channel=5, data=[0, 64]),
   midi.NoteOnEvent(tick=23, channel=5, data=[71, 0]),
   midi.NoteOnEvent(tick=0, channel=5, data=[68, 100]),
   midi.NoteOnEvent(tick=60, channel=5, data=[68, 0]),
   midi.PitchWheelEvent(tick=0, channel=5, data=[0, 0]),
   midi.NoteOnEvent(tick=0, channel=5, data=[68, 100]),
   midi.PitchWheelEvent(tick=20, channel=5, data=[0, 0]),
   midi.PitchWheelEvent(tick=6, channel=5, data=[13, 9]),
   midi.PitchWheelEvent(tick=6, channel=5, data=[13, 19]),
   midi.PitchWheelEvent(tick=6, channel=5, data=[13, 29]),
   midi.PitchWheelEvent(tick=7, channel=5, data=[13, 39]),
   midi.PitchWheelEvent(tick=6, channel=5, data=[13, 49]),
   midi.PitchWheelEvent(tick=6, channel=5, data=[13, 59]),
   midi.PitchWheelEvent(tick=3, channel=5, data=[0, 64]),
   midi.NoteOnEvent(tick=40, channel=5, data=[68, 0]),
   midi.NoteOnEvent(tick=320, channel=5, data=[68, 100]),
   midi.NoteOnEvent(tick=60, channel=5, data=[68, 0]),
   midi.NoteOnEvent(tick=0, channel=5, data=[73, 100]),
   midi.PitchWheelEvent(tick=0, channel=5, data=[0, 0]),
   midi.PitchWheelEvent(tick=17, channel=5, data=[0, 0]),
   midi.PitchWheelEvent(tick=6, channel=5, data=[26, 13]),
   midi.PitchWheelEvent(tick=7, channel=5, data=[69, 26]),
   midi.PitchWheelEvent(tick=6, channel=5, data=[111, 39]),
   midi.PitchWheelEvent(tick=6, channel=5, data=[26, 53]),
   midi.PitchWheelEvent(tick=5, channel=5, data=[0, 64]),
   midi.NoteOnEvent(tick=73, channel=5, data=[73, 0]),
   midi.NoteOnEvent(tick=0, channel=5, data=[71, 100]),
   midi.NoteOnEvent(tick=120, channel=5, data=[71, 0]),
   midi.NoteOnEvent(tick=60, channel=5, data=[68, 100]),
   midi.NoteOnEvent(tick=60, channel=5, data=[68, 0]),
   midi.NoteOnEvent(tick=0, channel=5, data=[71, 100]),
   midi.NoteOnEvent(tick=60, channel=5, data=[71, 0]),
   midi.PitchWheelEvent(tick=60, channel=5, data=[0, 0]),
   midi.NoteOnEvent(tick=0, channel=5, data=[73, 100]),
   midi.PitchWheelEvent(tick=17, channel=5, data=[0, 0]),
   midi.PitchWheelEvent(tick=6, channel=5, data=[26, 13]),
   midi.PitchWheelEvent(tick=7, channel=5, data=[69, 26]),
   midi.PitchWheelEvent(tick=6, channel=5, data=[111, 39]),
   midi.PitchWheelEvent(tick=6, channel=5, data=[26, 53]),
   midi.PitchWheelEvent(tick=5, channel=5, data=[0, 64]),
   midi.NoteOnEvent(tick=13, channel=5, data=[73, 0]),
   midi.NoteOnEvent(tick=60, channel=5, data=[71, 100]),
   midi.NoteOnEvent(tick=60, channel=5, data=[71, 0]),
   midi.PitchWheelEvent(tick=60, channel=5, data=[0, 0]),
   midi.NoteOnEvent(tick=0, channel=5, data=[68, 100]),
   midi.PitchWheelEvent(tick=20, channel=5, data=[0, 0]),
   midi.PitchWheelEvent(tick=6, channel=5, data=[13, 9]),
   midi.PitchWheelEvent(tick=6, channel=5, data=[13, 19]),
   midi.PitchWheelEvent(tick=6, channel=5, data=[13, 29]),
   midi.PitchWheelEvent(tick=7, channel=5, data=[13, 39]),
   midi.PitchWheelEvent(tick=6, channel=5, data=[13, 49]),
   midi.PitchWheelEvent(tick=6, channel=5, data=[13, 59]),
   midi.PitchWheelEvent(tick=3, channel=5, data=[0, 64]),
   midi.NoteOnEvent(tick=40, channel=5, data=[68, 0]),
   midi.NoteOnEvent(tick=80, channel=5, data=[68, 100]),
   midi.NoteOnEvent(tick=60, channel=5, data=[68, 0]),
   midi.NoteOnEvent(tick=0, channel=5, data=[73, 100]),
   midi.PitchWheelEvent(tick=0, channel=5, data=[0, 0]),
   midi.PitchWheelEvent(tick=17, channel=5, data=[0, 0]),
   midi.PitchWheelEvent(tick=6, channel=5, data=[26, 13]),
   midi.PitchWheelEvent(tick=7, channel=5, data=[69, 26]),
   midi.PitchWheelEvent(tick=6, channel=5, data=[111, 39]),
   midi.PitchWheelEvent(tick=6, channel=5, data=[26, 53]),
   midi.PitchWheelEvent(tick=5, channel=5, data=[0, 64]),
   midi.PitchWheelEvent(tick=3, channel=5, data=[0, 64]),
   midi.PitchWheelEvent(tick=6, channel=5, data=[51, 24]),
   midi.PitchWheelEvent(tick=4, channel=5, data=[51, 0]),
   midi.PitchWheelEvent(tick=0, channel=5, data=[0, 0]),
   midi.PitchWheelEvent(tick=17, channel=5, data=[0, 0]),
   midi.PitchWheelEvent(tick=6, channel=5, data=[26, 13]),
   midi.PitchWheelEvent(tick=7, channel=5, data=[69, 26]),
   midi.PitchWheelEvent(tick=6, channel=5, data=[111, 39]),
   midi.PitchWheelEvent(tick=6, channel=5, data=[26, 53]),
   midi.PitchWheelEvent(tick=5, channel=5, data=[0, 64]),
   midi.NoteOnEvent(tick=13, channel=5, data=[73, 0]),
   midi.NoteOnEvent(tick=0, channel=5, data=[71, 100]),
   midi.NoteOnEvent(tick=120, channel=5, data=[71, 0]),
   midi.NoteOnEvent(tick=60, channel=5, data=[68, 100]),
   midi.NoteOnEvent(tick=60, channel=5, data=[68, 0]),
   midi.PitchWheelEvent(tick=0, channel=5, data=[0, 0]),
   midi.NoteOnEvent(tick=0, channel=5, data=[71, 100]),
   midi.PitchWheelEvent(tick=17, channel=5, data=[0, 0]),
   midi.PitchWheelEvent(tick=1, channel=5, data=[0, 3]),
   midi.PitchWheelEvent(tick=6, channel=5, data=[0, 23]),
   midi.PitchWheelEvent(tick=7, channel=5, data=[0, 43]),
   midi.PitchWheelEvent(tick=6, channel=5, data=[0, 64]),
   midi.PitchWheelEvent(tick=0, channel=5, data=[0, 63]),
   midi.NoteOnEvent(tick=23, channel=5, data=[71, 0]),
   midi.NoteOnEvent(tick=0, channel=5, data=[68, 100]),
   midi.NoteOnEvent(tick=60, channel=5, data=[68, 0]),
   midi.PitchWheelEvent(tick=0, channel=5, data=[0, 0]),
   midi.NoteOnEvent(tick=0, channel=5, data=[68, 100]),
   midi.PitchWheelEvent(tick=20, channel=5, data=[0, 0]),
   midi.PitchWheelEvent(tick=6, channel=5, data=[13, 9]),
   midi.PitchWheelEvent(tick=6, channel=5, data=[13, 19]),
   midi.PitchWheelEvent(tick=6, channel=5, data=[13, 29]),
   midi.PitchWheelEvent(tick=7, channel=5, data=[13, 39]),
   midi.PitchWheelEvent(tick=6, channel=5, data=[13, 49]),
   midi.PitchWheelEvent(tick=6, channel=5, data=[13, 59]),
   midi.PitchWheelEvent(tick=3, channel=5, data=[0, 64]),
   midi.NoteOnEvent(tick=40, channel=5, data=[68, 0]),
   midi.NoteOnEvent(tick=200, channel=5, data=[68, 100]),
   midi.NoteOnEvent(tick=60, channel=5, data=[68, 0]),
   midi.PitchWheelEvent(tick=0, channel=5, data=[0, 0]),
   midi.NoteOnEvent(tick=0, channel=5, data=[73, 100]),
   midi.PitchWheelEvent(tick=17, channel=5, data=[0, 0]),
   midi.PitchWheelEvent(tick=1, channel=5, data=[0, 3]),
   midi.PitchWheelEvent(tick=6, channel=5, data=[0, 23]),
   midi.PitchWheelEvent(tick=7, channel=5, data=[0, 43]),
   midi.PitchWheelEvent(tick=6, channel=5, data=[0, 63]),
   midi.PitchWheelEvent(tick=0, channel=5, data=[0, 64]),
   midi.NoteOnEvent(tick=23, channel=5, data=[73, 0]),
   midi.NoteOnEvent(tick=30, channel=5, data=[71, 100]),
   midi.NoteOnEvent(tick=60, channel=5, data=[71, 0]),
   midi.NoteOnEvent(tick=30, channel=5, data=[68, 100]),
   midi.NoteOnEvent(tick=60, channel=5, data=[68, 0]),
   midi.PitchWheelEvent(tick=60, channel=5, data=[0, 0]),
   midi.NoteOnEvent(tick=0, channel=5, data=[73, 100]),
   midi.PitchWheelEvent(tick=17, channel=5, data=[0, 0]),
   midi.PitchWheelEvent(tick=1, channel=5, data=[0, 3]),
   midi.PitchWheelEvent(tick=6, channel=5, data=[0, 23]),
   midi.PitchWheelEvent(tick=7, channel=5, data=[0, 43]),
   midi.PitchWheelEvent(tick=6, channel=5, data=[0, 63]),
   midi.PitchWheelEvent(tick=0, channel=5, data=[0, 64]),
   midi.NoteOnEvent(tick=23, channel=5, data=[73, 0]),
   midi.NoteOnEvent(tick=30, channel=5, data=[71, 100]),
   midi.NoteOnEvent(tick=60, channel=5, data=[71, 0]),
   midi.NoteOnEvent(tick=30, channel=5, data=[73, 100]),
   midi.PitchWheelEvent(tick=0, channel=5, data=[0, 0]),
   midi.PitchWheelEvent(tick=17, channel=5, data=[0, 0]),
   midi.PitchWheelEvent(tick=1, channel=5, data=[0, 3]),
   midi.PitchWheelEvent(tick=6, channel=5, data=[0, 23]),
   midi.PitchWheelEvent(tick=7, channel=5, data=[0, 43]),
   midi.PitchWheelEvent(tick=6, channel=5, data=[0, 63]),
   midi.PitchWheelEvent(tick=0, channel=5, data=[0, 64]),
   midi.NoteOnEvent(tick=23, channel=5, data=[73, 0]),
   midi.NoteOnEvent(tick=30, channel=5, data=[71, 100]),
   midi.NoteOnEvent(tick=60, channel=5, data=[71, 0]),
   midi.NoteOnEvent(tick=30, channel=5, data=[68, 100]),
   midi.NoteOnEvent(tick=60, channel=5, data=[68, 0]),
   midi.NoteOnEvent(tick=180, channel=5, data=[68, 100]),
   midi.NoteOnEvent(tick=60, channel=5, data=[68, 0]),
   midi.PitchWheelEvent(tick=0, channel=5, data=[0, 0]),
   midi.NoteOnEvent(tick=0, channel=5, data=[73, 100]),
   midi.PitchWheelEvent(tick=17, channel=5, data=[0, 0]),
   midi.PitchWheelEvent(tick=1, channel=5, data=[0, 3]),
   midi.PitchWheelEvent(tick=6, channel=5, data=[0, 23]),
   midi.PitchWheelEvent(tick=7, channel=5, data=[0, 43]),
   midi.PitchWheelEvent(tick=6, channel=5, data=[0, 63]),
   midi.PitchWheelEvent(tick=0, channel=5, data=[0, 64]),
   midi.NoteOnEvent(tick=23, channel=5, data=[73, 0]),
   midi.NoteOnEvent(tick=30, channel=5, data=[71, 100]),
   midi.NoteOnEvent(tick=60, channel=5, data=[71, 0]),
   midi.NoteOnEvent(tick=30, channel=5, data=[68, 100]),
   midi.NoteOnEvent(tick=60, channel=5, data=[68, 0]),
   midi.NoteOnEvent(tick=60, channel=5, data=[73, 100]),
   midi.PitchWheelEvent(tick=0, channel=5, data=[0, 0]),
   midi.PitchWheelEvent(tick=17, channel=5, data=[0, 0]),
   midi.PitchWheelEvent(tick=1, channel=5, data=[0, 3]),
   midi.PitchWheelEvent(tick=6, channel=5, data=[0, 23]),
   midi.PitchWheelEvent(tick=7, channel=5, data=[0, 43]),
   midi.PitchWheelEvent(tick=6, channel=5, data=[0, 63]),
   midi.PitchWheelEvent(tick=0, channel=5, data=[0, 64]),
   midi.NoteOnEvent(tick=23, channel=5, data=[73, 0]),
   midi.NoteOnEvent(tick=30, channel=5, data=[71, 100]),
   midi.NoteOnEvent(tick=60, channel=5, data=[71, 0]),
   midi.PitchWheelEvent(tick=30, channel=5, data=[0, 0]),
   midi.NoteOnEvent(tick=0, channel=5, data=[73, 100]),
   midi.PitchWheelEvent(tick=17, channel=5, data=[0, 0]),
   midi.PitchWheelEvent(tick=1, channel=5, data=[0, 3]),
   midi.PitchWheelEvent(tick=6, channel=5, data=[0, 23]),
   midi.PitchWheelEvent(tick=7, channel=5, data=[0, 43]),
   midi.PitchWheelEvent(tick=6, channel=5, data=[0, 64]),
   midi.PitchWheelEvent(tick=0, channel=5, data=[0, 63]),
   midi.NoteOnEvent(tick=23, channel=5, data=[73, 0]),
   midi.NoteOnEvent(tick=60, channel=5, data=[71, 100]),
   midi.NoteOnEvent(tick=60, channel=5, data=[71, 0]),
   midi.NoteOnEvent(tick=60, channel=5, data=[73, 100]),
   midi.PitchWheelEvent(tick=0, channel=5, data=[0, 64]),
   midi.PitchWheelEvent(tick=17, channel=5, data=[0, 64]),
   midi.PitchWheelEvent(tick=1, channel=5, data=[0, 67]),
   midi.PitchWheelEvent(tick=6, channel=5, data=[0, 87]),
   midi.PitchWheelEvent(tick=7, channel=5, data=[0, 107]),
   midi.PitchWheelEvent(tick=6, channel=5, data=[127, 127]),
   midi.PitchWheelEvent(tick=0, channel=5, data=[0, 127]),
   midi.ControlChangeEvent(tick=203, channel=5, data=[7, 100]),
   midi.ControlChangeEvent(tick=95, channel=5, data=[7, 99]),
   midi.ControlChangeEvent(tick=94, channel=5, data=[7, 98]),
   midi.ControlChangeEvent(tick=95, channel=5, data=[7, 97]),
   midi.ControlChangeEvent(tick=94, channel=5, data=[7, 96]),
   midi.ControlChangeEvent(tick=95, channel=5, data=[7, 95]),
   midi.ControlChangeEvent(tick=94, channel=5, data=[7, 94]),
   midi.ControlChangeEvent(tick=95, channel=5, data=[7, 93]),
   midi.ControlChangeEvent(tick=94, channel=5, data=[7, 92]),
   midi.ControlChangeEvent(tick=95, channel=5, data=[7, 91]),
   midi.ControlChangeEvent(tick=94, channel=5, data=[7, 90]),
   midi.ControlChangeEvent(tick=95, channel=5, data=[7, 89]),
   midi.ControlChangeEvent(tick=94, channel=5, data=[7, 88]),
   midi.ControlChangeEvent(tick=95, channel=5, data=[7, 87]),
   midi.ControlChangeEvent(tick=94, channel=5, data=[7, 86]),
   midi.ControlChangeEvent(tick=95, channel=5, data=[7, 85]),
   midi.ControlChangeEvent(tick=94, channel=5, data=[7, 84]),
   midi.ControlChangeEvent(tick=95, channel=5, data=[7, 83]),
   midi.ControlChangeEvent(tick=94, channel=5, data=[7, 82]),
   midi.ControlChangeEvent(tick=95, channel=5, data=[7, 81]),
   midi.ControlChangeEvent(tick=94, channel=5, data=[7, 80]),
   midi.ControlChangeEvent(tick=95, channel=5, data=[7, 79]),
   midi.ControlChangeEvent(tick=94, channel=5, data=[7, 78]),
   midi.ControlChangeEvent(tick=95, channel=5, data=[7, 77]),
   midi.ControlChangeEvent(tick=94, channel=5, data=[7, 76]),
   midi.ControlChangeEvent(tick=95, channel=5, data=[7, 75]),
   midi.ControlChangeEvent(tick=94, channel=5, data=[7, 74]),
   midi.ControlChangeEvent(tick=95, channel=5, data=[7, 73]),
   midi.ControlChangeEvent(tick=94, channel=5, data=[7, 72]),
   midi.ControlChangeEvent(tick=95, channel=5, data=[7, 71]),
   midi.ControlChangeEvent(tick=94, channel=5, data=[7, 70]),
   midi.ControlChangeEvent(tick=95, channel=5, data=[7, 69]),
   midi.ControlChangeEvent(tick=94, channel=5, data=[7, 68]),
   midi.ControlChangeEvent(tick=95, channel=5, data=[7, 67]),
   midi.ControlChangeEvent(tick=94, channel=5, data=[7, 66]),
   midi.ControlChangeEvent(tick=95, channel=5, data=[7, 65]),
   midi.ControlChangeEvent(tick=94, channel=5, data=[7, 64]),
   midi.ControlChangeEvent(tick=95, channel=5, data=[7, 63]),
   midi.ControlChangeEvent(tick=94, channel=5, data=[7, 62]),
   midi.ControlChangeEvent(tick=95, channel=5, data=[7, 61]),
   midi.PitchWheelEvent(tick=34, channel=5, data=[0, 127]),
   midi.PitchWheelEvent(tick=0, channel=5, data=[127, 127]),
   midi.PitchWheelEvent(tick=6, channel=5, data=[0, 107]),
   midi.PitchWheelEvent(tick=7, channel=5, data=[0, 87]),
   midi.PitchWheelEvent(tick=6, channel=5, data=[0, 67]),
   midi.PitchWheelEvent(tick=1, channel=5, data=[0, 64]),
   midi.PitchWheelEvent(tick=1, channel=5, data=[0, 61]),
   midi.PitchWheelEvent(tick=6, channel=5, data=[0, 41]),
   midi.PitchWheelEvent(tick=7, channel=5, data=[0, 21]),
   midi.PitchWheelEvent(tick=6, channel=5, data=[0, 0]),
   midi.NoteOnEvent(tick=20, channel=5, data=[73, 0]),
   midi.ControlChangeEvent(tick=0, channel=5, data=[7, 60]),
   midi.ControlChangeEvent(tick=30, channel=5, data=[7, 100]),
   midi.PitchWheelEvent(tick=0, channel=5, data=[0, 64]),
   midi.NoteOnEvent(tick=210, channel=5, data=[68, 100]),
   midi.NoteOnEvent(tick=60, channel=5, data=[68, 0]),
   midi.PitchWheelEvent(tick=0, channel=5, data=[0, 0]),
   midi.NoteOnEvent(tick=0, channel=5, data=[75, 100]),
   midi.PitchWheelEvent(tick=17, channel=5, data=[0, 0]),
   midi.PitchWheelEvent(tick=1, channel=5, data=[0, 3]),
   midi.PitchWheelEvent(tick=6, channel=5, data=[0, 23]),
   midi.PitchWheelEvent(tick=7, channel=5, data=[0, 43]),
   midi.PitchWheelEvent(tick=6, channel=5, data=[0, 64]),
   midi.PitchWheelEvent(tick=0, channel=5, data=[0, 63]),
   midi.NoteOnEvent(tick=23, channel=5, data=[75, 0]),
   midi.NoteOnEvent(tick=0, channel=5, data=[75, 100]),
   midi.NoteOnEvent(tick=60, channel=5, data=[75, 0]),
   midi.NoteOnEvent(tick=0, channel=5, data=[75, 100]),
   midi.NoteOnEvent(tick=60, channel=5, data=[75, 0]),
   midi.NoteOnEvent(tick=0, channel=5, data=[76, 100]),
   midi.NoteOnEvent(tick=0, channel=5, data=[76, 100]),
   midi.NoteOnEvent(tick=60, channel=5, data=[76, 0]),
   midi.NoteOnEvent(tick=0, channel=5, data=[76, 0]),
   midi.NoteOnEvent(tick=0, channel=5, data=[73, 100]),
   midi.PitchWheelEvent(tick=12, channel=5, data=[0, 67]),
   midi.PitchWheelEvent(tick=6, channel=5, data=[0, 87]),
   midi.PitchWheelEvent(tick=7, channel=5, data=[0, 107]),
   midi.PitchWheelEvent(tick=4, channel=5, data=[127, 127]),
   midi.PitchWheelEvent(tick=39, channel=5, data=[0, 127]),
   midi.PitchWheelEvent(tick=0, channel=5, data=[127, 127]),
   midi.PitchWheelEvent(tick=9, channel=5, data=[0, 107]),
   midi.PitchWheelEvent(tick=11, channel=5, data=[0, 87]),
   midi.PitchWheelEvent(tick=9, channel=5, data=[0, 67]),
   midi.PitchWheelEvent(tick=12, channel=5, data=[0, 64]),
   midi.NoteOnEvent(tick=11, channel=5, data=[73, 0]),
   midi.NoteOnEvent(tick=0, channel=5, data=[73, 100]),
   midi.NoteOnEvent(tick=60, channel=5, data=[73, 0]),
   midi.NoteOnEvent(tick=0, channel=5, data=[71, 100]),
   midi.NoteOnEvent(tick=60, channel=5, data=[71, 0]),
   midi.NoteOnEvent(tick=0, channel=5, data=[71, 100]),
   midi.NoteOnEvent(tick=120, channel=5, data=[71, 0]),
   midi.NoteOnEvent(tick=0, channel=5, data=[73, 100]),
   midi.PitchWheelEvent(tick=0, channel=5, data=[0, 0]),
   midi.PitchWheelEvent(tick=17, channel=5, data=[0, 0]),
   midi.PitchWheelEvent(tick=1, channel=5, data=[0, 3]),
   midi.PitchWheelEvent(tick=6, channel=5, data=[0, 23]),
   midi.PitchWheelEvent(tick=7, channel=5, data=[0, 43]),
   midi.PitchWheelEvent(tick=6, channel=5, data=[0, 63]),
   midi.PitchWheelEvent(tick=0, channel=5, data=[0, 64]),
   midi.NoteOnEvent(tick=53, channel=5, data=[73, 0]),
   midi.NoteOnEvent(tick=270, channel=5, data=[75, 100]),
   midi.PitchWheelEvent(tick=0, channel=5, data=[0, 0]),
   midi.PitchWheelEvent(tick=17, channel=5, data=[0, 0]),
   midi.PitchWheelEvent(tick=1, channel=5, data=[0, 3]),
   midi.PitchWheelEvent(tick=6, channel=5, data=[0, 23]),
   midi.PitchWheelEvent(tick=7, channel=5, data=[0, 43]),
   midi.PitchWheelEvent(tick=6, channel=5, data=[0, 64]),
   midi.PitchWheelEvent(tick=0, channel=5, data=[0, 63]),
   midi.NoteOnEvent(tick=23, channel=5, data=[75, 0]),
   midi.NoteOnEvent(tick=0, channel=5, data=[75, 100]),
   midi.NoteOnEvent(tick=60, channel=5, data=[75, 0]),
   midi.NoteOnEvent(tick=0, channel=5, data=[75, 100]),
   midi.NoteOnEvent(tick=60, channel=5, data=[75, 0]),
   midi.NoteOnEvent(tick=0, channel=5, data=[76, 100]),
   midi.NoteOnEvent(tick=60, channel=5, data=[76, 0]),
   midi.NoteOnEvent(tick=0, channel=5, data=[73, 100]),
   midi.PitchWheelEvent(tick=12, channel=5, data=[0, 67]),
   midi.PitchWheelEvent(tick=6, channel=5, data=[0, 87]),
   midi.PitchWheelEvent(tick=7, channel=5, data=[0, 107]),
   midi.PitchWheelEvent(tick=4, channel=5, data=[127, 127]),
   midi.PitchWheelEvent(tick=39, channel=5, data=[0, 127]),
   midi.PitchWheelEvent(tick=0, channel=5, data=[127, 127]),
   midi.PitchWheelEvent(tick=9, channel=5, data=[0, 107]),
   midi.PitchWheelEvent(tick=11, channel=5, data=[0, 87]),
   midi.PitchWheelEvent(tick=9, channel=5, data=[0, 67]),
   midi.PitchWheelEvent(tick=12, channel=5, data=[0, 64]),
   midi.NoteOnEvent(tick=11, channel=5, data=[73, 0]),
   midi.PitchWheelEvent(tick=0, channel=5, data=[0, 64]),
   midi.NoteOnEvent(tick=0, channel=5, data=[73, 100]),
   midi.NoteOnEvent(tick=60, channel=5, data=[73, 0]),
   midi.NoteOnEvent(tick=0, channel=5, data=[71, 100]),
   midi.NoteOnEvent(tick=60, channel=5, data=[71, 0]),
   midi.NoteOnEvent(tick=0, channel=5, data=[71, 100]),
   midi.NoteOnEvent(tick=120, channel=5, data=[71, 0]),
   midi.NoteOnEvent(tick=0, channel=5, data=[73, 100]),
   midi.PitchWheelEvent(tick=0, channel=5, data=[0, 0]),
   midi.PitchWheelEvent(tick=17, channel=5, data=[0, 0]),
   midi.PitchWheelEvent(tick=1, channel=5, data=[0, 3]),
   midi.PitchWheelEvent(tick=6, channel=5, data=[0, 23]),
   midi.PitchWheelEvent(tick=7, channel=5, data=[0, 43]),
   midi.PitchWheelEvent(tick=6, channel=5, data=[0, 63]),
   midi.PitchWheelEvent(tick=0, channel=5, data=[0, 64]),
   midi.NoteOnEvent(tick=58, channel=5, data=[73, 0]),
   midi.NoteOnEvent(tick=0, channel=5, data=[68, 100]),
   midi.NoteOnEvent(tick=60, channel=5, data=[68, 0]),
   midi.NoteOnEvent(tick=85, channel=5, data=[68, 100]),
   midi.NoteOnEvent(tick=60, channel=5, data=[68, 0]),
   midi.NoteOnEvent(tick=0, channel=5, data=[68, 100]),
   midi.NoteOnEvent(tick=60, channel=5, data=[68, 0]),
   midi.PitchWheelEvent(tick=0, channel=5, data=[0, 0]),
   midi.NoteOnEvent(tick=0, channel=5, data=[75, 100]),
   midi.PitchWheelEvent(tick=17, channel=5, data=[0, 0]),
   midi.PitchWheelEvent(tick=1, channel=5, data=[0, 3]),
   midi.PitchWheelEvent(tick=6, channel=5, data=[0, 23]),
   midi.PitchWheelEvent(tick=7, channel=5, data=[0, 43]),
   midi.PitchWheelEvent(tick=6, channel=5, data=[0, 63]),
   midi.PitchWheelEvent(tick=0, channel=5, data=[0, 64]),
   midi.NoteOnEvent(tick=23, channel=5, data=[75, 0]),
   midi.NoteOnEvent(tick=0, channel=5, data=[75, 100]),
   midi.NoteOnEvent(tick=60, channel=5, data=[75, 0]),
   midi.NoteOnEvent(tick=0, channel=5, data=[75, 100]),
   midi.NoteOnEvent(tick=60, channel=5, data=[75, 0]),
   midi.NoteOnEvent(tick=0, channel=5, data=[76, 100]),
   midi.NoteOnEvent(tick=60, channel=5, data=[76, 0]),
   midi.NoteOnEvent(tick=0, channel=5, data=[73, 100]),
   midi.PitchWheelEvent(tick=12, channel=5, data=[0, 67]),
   midi.PitchWheelEvent(tick=6, channel=5, data=[0, 87]),
   midi.PitchWheelEvent(tick=7, channel=5, data=[0, 107]),
   midi.PitchWheelEvent(tick=4, channel=5, data=[127, 127]),
   midi.PitchWheelEvent(tick=39, channel=5, data=[0, 127]),
   midi.PitchWheelEvent(tick=0, channel=5, data=[127, 127]),
   midi.PitchWheelEvent(tick=9, channel=5, data=[0, 107]),
   midi.PitchWheelEvent(tick=11, channel=5, data=[0, 87]),
   midi.PitchWheelEvent(tick=9, channel=5, data=[0, 67]),
   midi.PitchWheelEvent(tick=12, channel=5, data=[0, 64]),
   midi.NoteOnEvent(tick=11, channel=5, data=[73, 0]),
   midi.NoteOnEvent(tick=0, channel=5, data=[73, 100]),
   midi.PitchWheelEvent(tick=0, channel=5, data=[0, 0]),
   midi.PitchWheelEvent(tick=60, channel=5, data=[0, 64]),
   midi.NoteOnEvent(tick=60, channel=5, data=[73, 0]),
   midi.NoteOnEvent(tick=60, channel=5, data=[68, 100]),
   midi.NoteOnEvent(tick=60, channel=5, data=[68, 0]),
   midi.NoteOnEvent(tick=0, channel=5, data=[75, 100]),
   midi.PitchWheelEvent(tick=0, channel=5, data=[0, 0]),
   midi.PitchWheelEvent(tick=17, channel=5, data=[0, 0]),
   midi.PitchWheelEvent(tick=1, channel=5, data=[0, 3]),
   midi.PitchWheelEvent(tick=6, channel=5, data=[0, 23]),
   midi.PitchWheelEvent(tick=7, channel=5, data=[0, 43]),
   midi.PitchWheelEvent(tick=6, channel=5, data=[0, 63]),
   midi.PitchWheelEvent(tick=0, channel=5, data=[0, 64]),
   midi.NoteOnEvent(tick=23, channel=5, data=[75, 0]),
   midi.NoteOnEvent(tick=0, channel=5, data=[76, 100]),
   midi.NoteOnEvent(tick=60, channel=5, data=[76, 0]),
   midi.NoteOnEvent(tick=0, channel=5, data=[78, 100]),
   midi.PitchWheelEvent(tick=0, channel=5, data=[0, 0]),
   midi.PitchWheelEvent(tick=17, channel=5, data=[0, 0]),
   midi.PitchWheelEvent(tick=1, channel=5, data=[0, 3]),
   midi.PitchWheelEvent(tick=6, channel=5, data=[0, 23]),
   midi.PitchWheelEvent(tick=7, channel=5, data=[0, 43]),
   midi.PitchWheelEvent(tick=6, channel=5, data=[0, 63]),
   midi.PitchWheelEvent(tick=0, channel=5, data=[0, 64]),
   midi.NoteOnEvent(tick=23, channel=5, data=[78, 0]),
   midi.PitchWheelEvent(tick=60, channel=5, data=[0, 0]),
   midi.NoteOnEvent(tick=0, channel=5, data=[75, 100]),
   midi.PitchWheelEvent(tick=17, channel=5, data=[0, 0]),
   midi.PitchWheelEvent(tick=1, channel=5, data=[0, 3]),
   midi.PitchWheelEvent(tick=6, channel=5, data=[0, 23]),
   midi.PitchWheelEvent(tick=7, channel=5, data=[0, 43]),
   midi.PitchWheelEvent(tick=6, channel=5, data=[0, 63]),
   midi.PitchWheelEvent(tick=0, channel=5, data=[0, 64]),
   midi.NoteOnEvent(tick=23, channel=5, data=[75, 0]),
   midi.PitchWheelEvent(tick=60, channel=5, data=[127, 127]),
   midi.NoteOnEvent(tick=0, channel=5, data=[71, 100]),
   midi.PitchWheelEvent(tick=4, channel=5, data=[0, 127]),
   midi.PitchWheelEvent(tick=0, channel=5, data=[127, 127]),
   midi.PitchWheelEvent(tick=2, channel=5, data=[0, 107]),
   midi.PitchWheelEvent(tick=3, channel=5, data=[0, 87]),
   midi.PitchWheelEvent(tick=2, channel=5, data=[0, 67]),
   midi.PitchWheelEvent(tick=3, channel=5, data=[0, 64]),
   midi.NoteOnEvent(tick=46, channel=5, data=[71, 0]),
   midi.NoteOnEvent(tick=60, channel=5, data=[73, 100]),
   midi.PitchWheelEvent(tick=0, channel=5, data=[0, 0]),
   midi.PitchWheelEvent(tick=17, channel=5, data=[0, 0]),
   midi.PitchWheelEvent(tick=1, channel=5, data=[0, 3]),
   midi.PitchWheelEvent(tick=6, channel=5, data=[0, 23]),
   midi.PitchWheelEvent(tick=7, channel=5, data=[0, 43]),
   midi.PitchWheelEvent(tick=6, channel=5, data=[0, 64]),
   midi.PitchWheelEvent(tick=0, channel=5, data=[0, 63]),
   midi.NoteOnEvent(tick=23, channel=5, data=[73, 0]),
   midi.PitchWheelEvent(tick=60, channel=5, data=[127, 127]),
   midi.NoteOnEvent(tick=0, channel=5, data=[71, 100]),
   midi.PitchWheelEvent(tick=8, channel=5, data=[0, 127]),
   midi.PitchWheelEvent(tick=0, channel=5, data=[127, 127]),
   midi.PitchWheelEvent(tick=5, channel=5, data=[0, 107]),
   midi.PitchWheelEvent(tick=5, channel=5, data=[0, 87]),
   midi.PitchWheelEvent(tick=5, channel=5, data=[0, 67]),
   midi.PitchWheelEvent(tick=6, channel=5, data=[0, 64]),
   midi.NoteOnEvent(tick=31, channel=5, data=[71, 0]),
   midi.NoteOnEvent(tick=30, channel=5, data=[71, 60]),
   midi.PitchWheelEvent(tick=0, channel=5, data=[127, 127]),
   midi.PitchWheelEvent(tick=8, channel=5, data=[0, 127]),
   midi.PitchWheelEvent(tick=0, channel=5, data=[127, 127]),
   midi.PitchWheelEvent(tick=5, channel=5, data=[0, 107]),
   midi.PitchWheelEvent(tick=5, channel=5, data=[0, 87]),
   midi.PitchWheelEvent(tick=5, channel=5, data=[0, 67]),
   midi.PitchWheelEvent(tick=6, channel=5, data=[0, 64]),
   midi.NoteOnEvent(tick=31, channel=5, data=[71, 0]),
   midi.PitchWheelEvent(tick=30, channel=5, data=[127, 127]),
   midi.NoteOnEvent(tick=0, channel=5, data=[71, 36]),
   midi.PitchWheelEvent(tick=8, channel=5, data=[0, 127]),
   midi.PitchWheelEvent(tick=0, channel=5, data=[127, 127]),
   midi.PitchWheelEvent(tick=5, channel=5, data=[0, 107]),
   midi.PitchWheelEvent(tick=5, channel=5, data=[0, 87]),
   midi.PitchWheelEvent(tick=5, channel=5, data=[0, 67]),
   midi.PitchWheelEvent(tick=6, channel=5, data=[0, 64]),
   midi.NoteOnEvent(tick=31, channel=5, data=[71, 0]),
   midi.PitchWheelEvent(tick=30, channel=5, data=[127, 127]),
   midi.NoteOnEvent(tick=0, channel=5, data=[71, 21]),
   midi.PitchWheelEvent(tick=8, channel=5, data=[127, 127]),
   midi.PitchWheelEvent(tick=0, channel=5, data=[0, 127]),
   midi.PitchWheelEvent(tick=5, channel=5, data=[0, 107]),
   midi.PitchWheelEvent(tick=5, channel=5, data=[0, 87]),
   midi.PitchWheelEvent(tick=5, channel=5, data=[0, 67]),
   midi.PitchWheelEvent(tick=6, channel=5, data=[0, 64]),
   midi.NoteOnEvent(tick=31, channel=5, data=[71, 0]),
   midi.PitchWheelEvent(tick=30, channel=5, data=[127, 127]),
   midi.NoteOnEvent(tick=0, channel=5, data=[71, 12]),
   midi.PitchWheelEvent(tick=8, channel=5, data=[0, 127]),
   midi.PitchWheelEvent(tick=0, channel=5, data=[127, 127]),
   midi.PitchWheelEvent(tick=5, channel=5, data=[0, 107]),
   midi.PitchWheelEvent(tick=5, channel=5, data=[0, 87]),
   midi.PitchWheelEvent(tick=5, channel=5, data=[0, 67]),
   midi.PitchWheelEvent(tick=6, channel=5, data=[0, 64]),
   midi.NoteOnEvent(tick=31, channel=5, data=[71, 0]),
   midi.NoteOnEvent(tick=30, channel=5, data=[71, 7]),
   midi.PitchWheelEvent(tick=0, channel=5, data=[127, 127]),
   midi.PitchWheelEvent(tick=8, channel=5, data=[0, 127]),
   midi.PitchWheelEvent(tick=0, channel=5, data=[127, 127]),
   midi.PitchWheelEvent(tick=5, channel=5, data=[0, 107]),
   midi.PitchWheelEvent(tick=5, channel=5, data=[0, 87]),
   midi.PitchWheelEvent(tick=5, channel=5, data=[0, 67]),
   midi.PitchWheelEvent(tick=6, channel=5, data=[0, 64]),
   midi.NoteOnEvent(tick=31, channel=5, data=[71, 0]),
   midi.NoteOnEvent(tick=510, channel=5, data=[68, 100]),
   midi.NoteOnEvent(tick=60, channel=5, data=[68, 0]),
   midi.PitchWheelEvent(tick=0, channel=5, data=[0, 0]),
   midi.NoteOnEvent(tick=0, channel=5, data=[71, 100]),
   midi.PitchWheelEvent(tick=1, channel=5, data=[0, 3]),
   midi.PitchWheelEvent(tick=6, channel=5, data=[0, 23]),
   midi.PitchWheelEvent(tick=7, channel=5, data=[0, 43]),
   midi.PitchWheelEvent(tick=6, channel=5, data=[0, 63]),
   midi.PitchWheelEvent(tick=0, channel=5, data=[0, 64]),
   midi.NoteOnEvent(tick=40, channel=5, data=[71, 0]),
   midi.NoteOnEvent(tick=0, channel=5, data=[68, 100]),
   midi.NoteOnEvent(tick=60, channel=5, data=[68, 0]),
   midi.PitchWheelEvent(tick=0, channel=5, data=[0, 0]),
   midi.NoteOnEvent(tick=0, channel=5, data=[71, 100]),
   midi.PitchWheelEvent(tick=17, channel=5, data=[0, 0]),
   midi.PitchWheelEvent(tick=1, channel=5, data=[0, 3]),
   midi.PitchWheelEvent(tick=6, channel=5, data=[0, 23]),
   midi.PitchWheelEvent(tick=7, channel=5, data=[0, 43]),
   midi.PitchWheelEvent(tick=6, channel=5, data=[0, 64]),
   midi.PitchWheelEvent(tick=0, channel=5, data=[0, 63]),
   midi.NoteOnEvent(tick=83, channel=5, data=[71, 0]),
   midi.NoteOnEvent(tick=0, channel=5, data=[68, 100]),
   midi.PitchWheelEvent(tick=0, channel=5, data=[0, 0]),
   midi.PitchWheelEvent(tick=17, channel=5, data=[0, 0]),
   midi.PitchWheelEvent(tick=1, channel=5, data=[0, 3]),
   midi.PitchWheelEvent(tick=6, channel=5, data=[0, 23]),
   midi.PitchWheelEvent(tick=7, channel=5, data=[0, 43]),
   midi.PitchWheelEvent(tick=6, channel=5, data=[0, 63]),
   midi.PitchWheelEvent(tick=0, channel=5, data=[0, 64]),
   midi.NoteOnEvent(tick=53, channel=5, data=[68, 0]),
   midi.NoteOnEvent(tick=30, channel=5, data=[73, 100]),
   midi.PitchWheelEvent(tick=0, channel=5, data=[0, 67]),
   midi.PitchWheelEvent(tick=6, channel=5, data=[0, 87]),
   midi.PitchWheelEvent(tick=7, channel=5, data=[0, 107]),
   midi.PitchWheelEvent(tick=4, channel=5, data=[127, 127]),
   midi.PitchWheelEvent(tick=27, channel=5, data=[127, 127]),
   midi.PitchWheelEvent(tick=8, channel=5, data=[127, 127]),
   midi.PitchWheelEvent(tick=0, channel=5, data=[0, 127]),
   midi.PitchWheelEvent(tick=4, channel=5, data=[0, 107]),
   midi.PitchWheelEvent(tick=6, channel=5, data=[0, 87]),
   midi.PitchWheelEvent(tick=4, channel=5, data=[0, 67]),
   midi.PitchWheelEvent(tick=6, channel=5, data=[0, 64]),
   midi.NoteOnEvent(tick=18, channel=5, data=[73, 0]),
   midi.NoteOnEvent(tick=30, channel=5, data=[69, 100]),
   midi.PitchWheelEvent(tick=0, channel=5, data=[127, 127]),
   midi.PitchWheelEvent(tick=44, channel=5, data=[0, 127]),
   midi.PitchWheelEvent(tick=0, channel=5, data=[127, 127]),
   midi.PitchWheelEvent(tick=6, channel=5, data=[0, 107]),
   midi.PitchWheelEvent(tick=7, channel=5, data=[0, 87]),
   midi.PitchWheelEvent(tick=6, channel=5, data=[0, 67]),
   midi.PitchWheelEvent(tick=1, channel=5, data=[0, 64]),
   midi.PitchWheelEvent(tick=1, channel=5, data=[0, 61]),
   midi.PitchWheelEvent(tick=6, channel=5, data=[0, 41]),
   midi.PitchWheelEvent(tick=7, channel=5, data=[0, 32]),
   midi.NoteOnEvent(tick=12, channel=5, data=[69, 0]),
   midi.PitchWheelEvent(tick=30, channel=5, data=[0, 64]),
   midi.NoteOnEvent(tick=0, channel=5, data=[71, 100]),
   midi.NoteOnEvent(tick=90, channel=5, data=[71, 0]),
   midi.NoteOnEvent(tick=0, channel=5, data=[73, 100]),
   midi.PitchWheelEvent(tick=0, channel=5, data=[0, 0]),
   midi.PitchWheelEvent(tick=17, channel=5, data=[0, 0]),
   midi.PitchWheelEvent(tick=1, channel=5, data=[0, 3]),
   midi.PitchWheelEvent(tick=6, channel=5, data=[0, 23]),
   midi.PitchWheelEvent(tick=7, channel=5, data=[0, 43]),
   midi.PitchWheelEvent(tick=6, channel=5, data=[0, 64]),
   midi.PitchWheelEvent(tick=0, channel=5, data=[0, 63]),
   midi.NoteOnEvent(tick=23, channel=5, data=[73, 0]),
   midi.PitchWheelEvent(tick=30, channel=5, data=[127, 127]),
   midi.NoteOnEvent(tick=0, channel=5, data=[66, 100]),
   midi.PitchWheelEvent(tick=44, channel=5, data=[127, 127]),
   midi.PitchWheelEvent(tick=8, channel=5, data=[127, 127]),
   midi.PitchWheelEvent(tick=0, channel=5, data=[0, 127]),
   midi.PitchWheelEvent(tick=4, channel=5, data=[0, 107]),
   midi.PitchWheelEvent(tick=6, channel=5, data=[0, 87]),
   midi.PitchWheelEvent(tick=4, channel=5, data=[0, 67]),
   midi.PitchWheelEvent(tick=6, channel=5, data=[0, 64]),
   midi.NoteOnEvent(tick=48, channel=5, data=[66, 0]),
   midi.NoteOnEvent(tick=120, channel=5, data=[66, 100]),
   midi.PitchWheelEvent(tick=17, channel=5, data=[0, 67]),
   midi.PitchWheelEvent(tick=6, channel=5, data=[0, 87]),
   midi.PitchWheelEvent(tick=7, channel=5, data=[0, 107]),
   midi.PitchWheelEvent(tick=4, channel=5, data=[127, 127]),
   midi.ControlChangeEvent(tick=3, channel=5, data=[1, 127]),
   midi.PitchWheelEvent(tick=78, channel=5, data=[0, 127]),
   midi.PitchWheelEvent(tick=0, channel=5, data=[127, 127]),
   midi.ControlChangeEvent(tick=5, channel=5, data=[1, 0]),
   midi.PitchWheelEvent(tick=4, channel=5, data=[0, 107]),
   midi.PitchWheelEvent(tick=10, channel=5, data=[0, 87]),
   midi.PitchWheelEvent(tick=9, channel=5, data=[0, 67]),
   midi.PitchWheelEvent(tick=12, channel=5, data=[0, 64]),
   midi.NoteOnEvent(tick=14, channel=5, data=[66, 0]),
   midi.NoteOnEvent(tick=671, channel=5, data=[68, 100]),
   midi.NoteOnEvent(tick=60, channel=5, data=[68, 0]),
   midi.PitchWheelEvent(tick=0, channel=5, data=[0, 0]),
   midi.NoteOnEvent(tick=0, channel=5, data=[71, 100]),
   midi.PitchWheelEvent(tick=1, channel=5, data=[0, 3]),
   midi.PitchWheelEvent(tick=6, channel=5, data=[0, 23]),
   midi.PitchWheelEvent(tick=7, channel=5, data=[0, 43]),
   midi.PitchWheelEvent(tick=6, channel=5, data=[0, 64]),
   midi.PitchWheelEvent(tick=0, channel=5, data=[0, 63]),
   midi.NoteOnEvent(tick=40, channel=5, data=[71, 0]),
   midi.NoteOnEvent(tick=0, channel=5, data=[68, 100]),
   midi.NoteOnEvent(tick=60, channel=5, data=[68, 0]),
   midi.PitchWheelEvent(tick=0, channel=5, data=[0, 0]),
   midi.NoteOnEvent(tick=0, channel=5, data=[71, 100]),
   midi.PitchWheelEvent(tick=1, channel=5, data=[0, 3]),
   midi.PitchWheelEvent(tick=6, channel=5, data=[0, 23]),
   midi.PitchWheelEvent(tick=7, channel=5, data=[0, 43]),
   midi.PitchWheelEvent(tick=6, channel=5, data=[0, 63]),
   midi.PitchWheelEvent(tick=0, channel=5, data=[0, 64]),
   midi.PitchWheelEvent(tick=40, channel=5, data=[0, 67]),
   midi.PitchWheelEvent(tick=6, channel=5, data=[0, 87]),
   midi.PitchWheelEvent(tick=7, channel=5, data=[0, 107]),
   midi.PitchWheelEvent(tick=4, channel=5, data=[127, 127]),
   midi.NoteOnEvent(tick=43, channel=5, data=[71, 0]),
   midi.NoteOnEvent(tick=0, channel=5, data=[73, 100]),
   midi.PitchWheelEvent(tick=0, channel=5, data=[0, 64]),
   midi.PitchWheelEvent(tick=17, channel=5, data=[0, 67]),
   midi.PitchWheelEvent(tick=6, channel=5, data=[0, 87]),
   midi.PitchWheelEvent(tick=7, channel=5, data=[0, 107]),
   midi.PitchWheelEvent(tick=4, channel=5, data=[127, 127]),
   midi.NoteOnEvent(tick=56, channel=5, data=[73, 0]),
   midi.NoteOnEvent(tick=30, channel=5, data=[73, 100]),
   midi.PitchWheelEvent(tick=0, channel=5, data=[0, 67]),
   midi.PitchWheelEvent(tick=6, channel=5, data=[0, 87]),
   midi.PitchWheelEvent(tick=7, channel=5, data=[0, 107]),
   midi.PitchWheelEvent(tick=4, channel=5, data=[127, 127]),
   midi.PitchWheelEvent(tick=27, channel=5, data=[127, 127]),
   midi.PitchWheelEvent(tick=8, channel=5, data=[0, 127]),
   midi.PitchWheelEvent(tick=0, channel=5, data=[127, 127]),
   midi.PitchWheelEvent(tick=4, channel=5, data=[0, 107]),
   midi.PitchWheelEvent(tick=6, channel=5, data=[0, 87]),
   midi.PitchWheelEvent(tick=4, channel=5, data=[0, 67]),
   midi.PitchWheelEvent(tick=6, channel=5, data=[0, 64]),
   midi.NoteOnEvent(tick=18, channel=5, data=[73, 0]),
   midi.PitchWheelEvent(tick=30, channel=5, data=[127, 127]),
   midi.NoteOnEvent(tick=0, channel=5, data=[69, 100]),
   midi.PitchWheelEvent(tick=44, channel=5, data=[0, 127]),
   midi.PitchWheelEvent(tick=0, channel=5, data=[127, 127]),
   midi.PitchWheelEvent(tick=6, channel=5, data=[0, 107]),
   midi.PitchWheelEvent(tick=7, channel=5, data=[0, 87]),
   midi.PitchWheelEvent(tick=6, channel=5, data=[0, 67]),
   midi.PitchWheelEvent(tick=1, channel=5, data=[0, 64]),
   midi.PitchWheelEvent(tick=1, channel=5, data=[0, 61]),
   midi.PitchWheelEvent(tick=6, channel=5, data=[0, 41]),
   midi.PitchWheelEvent(tick=7, channel=5, data=[0, 32]),
   midi.NoteOnEvent(tick=12, channel=5, data=[69, 0]),
   midi.PitchWheelEvent(tick=30, channel=5, data=[0, 64]),
   midi.NoteOnEvent(tick=0, channel=5, data=[71, 100]),
   midi.NoteOnEvent(tick=90, channel=5, data=[71, 0]),
   midi.NoteOnEvent(tick=0, channel=5, data=[73, 100]),
   midi.PitchWheelEvent(tick=0, channel=5, data=[0, 0]),
   midi.PitchWheelEvent(tick=17, channel=5, data=[0, 0]),
   midi.PitchWheelEvent(tick=1, channel=5, data=[0, 3]),
   midi.PitchWheelEvent(tick=6, channel=5, data=[0, 23]),
   midi.PitchWheelEvent(tick=7, channel=5, data=[0, 43]),
   midi.PitchWheelEvent(tick=6, channel=5, data=[0, 63]),
   midi.PitchWheelEvent(tick=0, channel=5, data=[0, 64]),
   midi.NoteOnEvent(tick=23, channel=5, data=[73, 0]),
   midi.NoteOnEvent(tick=30, channel=5, data=[73, 100]),
   midi.PitchWheelEvent(tick=0, channel=5, data=[0, 0]),
   midi.PitchWheelEvent(tick=33, channel=5, data=[0, 0]),
   midi.PitchWheelEvent(tick=2, channel=5, data=[0, 3]),
   midi.PitchWheelEvent(tick=12, channel=5, data=[0, 23]),
   midi.PitchWheelEvent(tick=14, channel=5, data=[0, 43]),
   midi.PitchWheelEvent(tick=12, channel=5, data=[0, 64]),
   midi.PitchWheelEvent(tick=0, channel=5, data=[0, 63]),
   midi.PitchWheelEvent(tick=17, channel=5, data=[0, 67]),
   midi.PitchWheelEvent(tick=6, channel=5, data=[0, 87]),
   midi.PitchWheelEvent(tick=7, channel=5, data=[0, 107]),
   midi.PitchWheelEvent(tick=4, channel=5, data=[127, 127]),
   midi.PitchWheelEvent(tick=10, channel=5, data=[127, 127]),
   midi.PitchWheelEvent(tick=0, channel=5, data=[0, 127]),
   midi.PitchWheelEvent(tick=4, channel=5, data=[0, 107]),
   midi.PitchWheelEvent(tick=6, channel=5, data=[0, 87]),
   midi.PitchWheelEvent(tick=4, channel=5, data=[0, 67]),
   midi.PitchWheelEvent(tick=6, channel=5, data=[0, 64]),
   midi.PitchWheelEvent(tick=43, channel=5, data=[0, 63]),
   midi.PitchWheelEvent(tick=6, channel=5, data=[0, 43]),
   midi.PitchWheelEvent(tick=7, channel=5, data=[0, 23]),
   midi.PitchWheelEvent(tick=6, channel=5, data=[0, 0]),
   midi.ControlChangeEvent(tick=11, channel=5, data=[1, 127]),
   midi.NoteOnEvent(tick=90, channel=5, data=[73, 0]),
   midi.NoteOnEvent(tick=0, channel=5, data=[66, 100]),
   midi.PitchWheelEvent(tick=0, channel=5, data=[127, 127]),
   midi.ControlChangeEvent(tick=0, channel=5, data=[1, 0]),
   midi.PitchWheelEvent(tick=33, channel=5, data=[0, 127]),
   midi.PitchWheelEvent(tick=0, channel=5, data=[127, 127]),
   midi.PitchWheelEvent(tick=5, channel=5, data=[0, 107]),
   midi.PitchWheelEvent(tick=5, channel=5, data=[0, 87]),
   midi.PitchWheelEvent(tick=4, channel=5, data=[0, 67]),
   midi.PitchWheelEvent(tick=6, channel=5, data=[0, 64]),
   midi.NoteOnEvent(tick=7, channel=5, data=[66, 0]),
   midi.NoteOnEvent(tick=0, channel=5, data=[63, 100]),
   midi.NoteOnEvent(tick=38, channel=5, data=[63, 0]),
   midi.NoteOnEvent(tick=202, channel=5, data=[68, 100]),
   midi.NoteOnEvent(tick=60, channel=5, data=[68, 0]),
   midi.NoteOnEvent(tick=0, channel=5, data=[73, 100]),
   midi.PitchWheelEvent(tick=0, channel=5, data=[0, 0]),
   midi.PitchWheelEvent(tick=17, channel=5, data=[0, 0]),
   midi.PitchWheelEvent(tick=6, channel=5, data=[26, 13]),
   midi.PitchWheelEvent(tick=7, channel=5, data=[69, 26]),
   midi.PitchWheelEvent(tick=6, channel=5, data=[111, 39]),
   midi.PitchWheelEvent(tick=6, channel=5, data=[26, 53]),
   midi.PitchWheelEvent(tick=5, channel=5, data=[0, 64]),
   midi.NoteOnEvent(tick=73, channel=5, data=[73, 0]),
   midi.NoteOnEvent(tick=0, channel=5, data=[71, 100]),
   midi.NoteOnEvent(tick=120, channel=5, data=[71, 0]),
   midi.NoteOnEvent(tick=60, channel=5, data=[68, 100]),
   midi.NoteOnEvent(tick=60, channel=5, data=[68, 0]),
   midi.PitchWheelEvent(tick=0, channel=5, data=[0, 0]),
   midi.NoteOnEvent(tick=0, channel=5, data=[71, 100]),
   midi.PitchWheelEvent(tick=17, channel=5, data=[0, 0]),
   midi.PitchWheelEvent(tick=1, channel=5, data=[0, 3]),
   midi.PitchWheelEvent(tick=6, channel=5, data=[0, 23]),
   midi.PitchWheelEvent(tick=7, channel=5, data=[0, 43]),
   midi.PitchWheelEvent(tick=6, channel=5, data=[0, 63]),
   midi.PitchWheelEvent(tick=0, channel=5, data=[0, 64]),
   midi.NoteOnEvent(tick=23, channel=5, data=[71, 0]),
   midi.NoteOnEvent(tick=0, channel=5, data=[68, 100]),
   midi.NoteOnEvent(tick=60, channel=5, data=[68, 0]),
   midi.PitchWheelEvent(tick=0, channel=5, data=[0, 0]),
   midi.NoteOnEvent(tick=0, channel=5, data=[68, 100]),
   midi.PitchWheelEvent(tick=20, channel=5, data=[0, 0]),
   midi.PitchWheelEvent(tick=6, channel=5, data=[13, 9]),
   midi.PitchWheelEvent(tick=6, channel=5, data=[13, 19]),
   midi.PitchWheelEvent(tick=6, channel=5, data=[13, 29]),
   midi.PitchWheelEvent(tick=7, channel=5, data=[13, 39]),
   midi.PitchWheelEvent(tick=6, channel=5, data=[13, 49]),
   midi.PitchWheelEvent(tick=6, channel=5, data=[13, 59]),
   midi.PitchWheelEvent(tick=3, channel=5, data=[0, 64]),
   midi.NoteOnEvent(tick=40, channel=5, data=[68, 0]),
   midi.NoteOnEvent(tick=320, channel=5, data=[68, 100]),
   midi.NoteOnEvent(tick=60, channel=5, data=[68, 0]),
   midi.NoteOnEvent(tick=0, channel=5, data=[73, 100]),
   midi.PitchWheelEvent(tick=0, channel=5, data=[0, 0]),
   midi.PitchWheelEvent(tick=17, channel=5, data=[0, 0]),
   midi.PitchWheelEvent(tick=6, channel=5, data=[26, 13]),
   midi.PitchWheelEvent(tick=7, channel=5, data=[69, 26]),
   midi.PitchWheelEvent(tick=6, channel=5, data=[111, 39]),
   midi.PitchWheelEvent(tick=6, channel=5, data=[26, 53]),
   midi.PitchWheelEvent(tick=5, channel=5, data=[0, 64]),
   midi.NoteOnEvent(tick=73, channel=5, data=[73, 0]),
   midi.NoteOnEvent(tick=0, channel=5, data=[71, 100]),
   midi.NoteOnEvent(tick=120, channel=5, data=[71, 0]),
   midi.NoteOnEvent(tick=60, channel=5, data=[68, 100]),
   midi.NoteOnEvent(tick=60, channel=5, data=[68, 0]),
   midi.NoteOnEvent(tick=0, channel=5, data=[71, 100]),
   midi.NoteOnEvent(tick=60, channel=5, data=[71, 0]),
   midi.PitchWheelEvent(tick=60, channel=5, data=[0, 0]),
   midi.NoteOnEvent(tick=0, channel=5, data=[73, 100]),
   midi.PitchWheelEvent(tick=17, channel=5, data=[0, 0]),
   midi.PitchWheelEvent(tick=6, channel=5, data=[26, 13]),
   midi.PitchWheelEvent(tick=7, channel=5, data=[69, 26]),
   midi.PitchWheelEvent(tick=6, channel=5, data=[111, 39]),
   midi.PitchWheelEvent(tick=6, channel=5, data=[26, 53]),
   midi.PitchWheelEvent(tick=5, channel=5, data=[0, 64]),
   midi.NoteOnEvent(tick=13, channel=5, data=[73, 0]),
   midi.NoteOnEvent(tick=60, channel=5, data=[71, 100]),
   midi.NoteOnEvent(tick=60, channel=5, data=[71, 0]),
   midi.PitchWheelEvent(tick=60, channel=5, data=[0, 0]),
   midi.NoteOnEvent(tick=0, channel=5, data=[68, 100]),
   midi.PitchWheelEvent(tick=20, channel=5, data=[0, 0]),
   midi.PitchWheelEvent(tick=6, channel=5, data=[13, 9]),
   midi.PitchWheelEvent(tick=6, channel=5, data=[13, 19]),
   midi.PitchWheelEvent(tick=6, channel=5, data=[13, 29]),
   midi.PitchWheelEvent(tick=7, channel=5, data=[13, 39]),
   midi.PitchWheelEvent(tick=6, channel=5, data=[13, 49]),
   midi.PitchWheelEvent(tick=6, channel=5, data=[13, 59]),
   midi.PitchWheelEvent(tick=3, channel=5, data=[0, 64]),
   midi.NoteOnEvent(tick=40, channel=5, data=[68, 0]),
   midi.NoteOnEvent(tick=80, channel=5, data=[68, 100]),
   midi.NoteOnEvent(tick=60, channel=5, data=[68, 0]),
   midi.NoteOnEvent(tick=0, channel=5, data=[73, 100]),
   midi.PitchWheelEvent(tick=0, channel=5, data=[0, 0]),
   midi.PitchWheelEvent(tick=17, channel=5, data=[0, 0]),
   midi.PitchWheelEvent(tick=6, channel=5, data=[26, 13]),
   midi.PitchWheelEvent(tick=7, channel=5, data=[69, 26]),
   midi.PitchWheelEvent(tick=6, channel=5, data=[111, 39]),
   midi.PitchWheelEvent(tick=6, channel=5, data=[26, 53]),
   midi.PitchWheelEvent(tick=5, channel=5, data=[0, 64]),
   midi.PitchWheelEvent(tick=3, channel=5, data=[0, 64]),
   midi.PitchWheelEvent(tick=6, channel=5, data=[51, 24]),
   midi.PitchWheelEvent(tick=4, channel=5, data=[51, 0]),
   midi.PitchWheelEvent(tick=0, channel=5, data=[0, 0]),
   midi.PitchWheelEvent(tick=17, channel=5, data=[0, 0]),
   midi.PitchWheelEvent(tick=6, channel=5, data=[26, 13]),
   midi.PitchWheelEvent(tick=7, channel=5, data=[69, 26]),
   midi.PitchWheelEvent(tick=6, channel=5, data=[111, 39]),
   midi.PitchWheelEvent(tick=6, channel=5, data=[26, 53]),
   midi.PitchWheelEvent(tick=5, channel=5, data=[0, 64]),
   midi.NoteOnEvent(tick=13, channel=5, data=[73, 0]),
   midi.NoteOnEvent(tick=0, channel=5, data=[71, 100]),
   midi.NoteOnEvent(tick=120, channel=5, data=[71, 0]),
   midi.NoteOnEvent(tick=60, channel=5, data=[68, 100]),
   midi.NoteOnEvent(tick=60, channel=5, data=[68, 0]),
   midi.PitchWheelEvent(tick=0, channel=5, data=[0, 0]),
   midi.NoteOnEvent(tick=0, channel=5, data=[71, 100]),
   midi.PitchWheelEvent(tick=17, channel=5, data=[0, 0]),
   midi.PitchWheelEvent(tick=1, channel=5, data=[0, 3]),
   midi.PitchWheelEvent(tick=6, channel=5, data=[0, 23]),
   midi.PitchWheelEvent(tick=7, channel=5, data=[0, 43]),
   midi.PitchWheelEvent(tick=6, channel=5, data=[0, 64]),
   midi.PitchWheelEvent(tick=0, channel=5, data=[0, 63]),
   midi.NoteOnEvent(tick=23, channel=5, data=[71, 0]),
   midi.NoteOnEvent(tick=0, channel=5, data=[68, 100]),
   midi.NoteOnEvent(tick=60, channel=5, data=[68, 0]),
   midi.PitchWheelEvent(tick=0, channel=5, data=[0, 0]),
   midi.NoteOnEvent(tick=0, channel=5, data=[68, 100]),
   midi.PitchWheelEvent(tick=20, channel=5, data=[0, 0]),
   midi.PitchWheelEvent(tick=6, channel=5, data=[13, 9]),
   midi.PitchWheelEvent(tick=6, channel=5, data=[13, 19]),
   midi.PitchWheelEvent(tick=6, channel=5, data=[13, 29]),
   midi.PitchWheelEvent(tick=7, channel=5, data=[13, 39]),
   midi.PitchWheelEvent(tick=6, channel=5, data=[13, 49]),
   midi.PitchWheelEvent(tick=6, channel=5, data=[13, 59]),
   midi.PitchWheelEvent(tick=3, channel=5, data=[0, 64]),
   midi.NoteOnEvent(tick=40, channel=5, data=[68, 0]),
   midi.NoteOnEvent(tick=200, channel=5, data=[68, 100]),
   midi.NoteOnEvent(tick=60, channel=5, data=[68, 0]),
   midi.PitchWheelEvent(tick=0, channel=5, data=[0, 0]),
   midi.NoteOnEvent(tick=0, channel=5, data=[73, 100]),
   midi.PitchWheelEvent(tick=17, channel=5, data=[0, 0]),
   midi.PitchWheelEvent(tick=1, channel=5, data=[0, 3]),
   midi.PitchWheelEvent(tick=6, channel=5, data=[0, 23]),
   midi.PitchWheelEvent(tick=7, channel=5, data=[0, 43]),
   midi.PitchWheelEvent(tick=6, channel=5, data=[0, 63]),
   midi.PitchWheelEvent(tick=0, channel=5, data=[0, 64]),
   midi.NoteOnEvent(tick=23, channel=5, data=[73, 0]),
   midi.NoteOnEvent(tick=30, channel=5, data=[71, 100]),
   midi.NoteOnEvent(tick=60, channel=5, data=[71, 0]),
   midi.NoteOnEvent(tick=30, channel=5, data=[68, 100]),
   midi.NoteOnEvent(tick=60, channel=5, data=[68, 0]),
   midi.PitchWheelEvent(tick=60, channel=5, data=[0, 0]),
   midi.NoteOnEvent(tick=0, channel=5, data=[73, 100]),
   midi.PitchWheelEvent(tick=17, channel=5, data=[0, 0]),
   midi.PitchWheelEvent(tick=1, channel=5, data=[0, 3]),
   midi.PitchWheelEvent(tick=6, channel=5, data=[0, 23]),
   midi.PitchWheelEvent(tick=7, channel=5, data=[0, 43]),
   midi.PitchWheelEvent(tick=6, channel=5, data=[0, 63]),
   midi.PitchWheelEvent(tick=0, channel=5, data=[0, 64]),
   midi.NoteOnEvent(tick=23, channel=5, data=[73, 0]),
   midi.NoteOnEvent(tick=30, channel=5, data=[71, 100]),
   midi.NoteOnEvent(tick=60, channel=5, data=[71, 0]),
   midi.NoteOnEvent(tick=30, channel=5, data=[73, 100]),
   midi.PitchWheelEvent(tick=0, channel=5, data=[0, 0]),
   midi.PitchWheelEvent(tick=17, channel=5, data=[0, 0]),
   midi.PitchWheelEvent(tick=1, channel=5, data=[0, 3]),
   midi.PitchWheelEvent(tick=6, channel=5, data=[0, 23]),
   midi.PitchWheelEvent(tick=7, channel=5, data=[0, 43]),
   midi.PitchWheelEvent(tick=6, channel=5, data=[0, 63]),
   midi.PitchWheelEvent(tick=0, channel=5, data=[0, 64]),
   midi.NoteOnEvent(tick=23, channel=5, data=[73, 0]),
   midi.NoteOnEvent(tick=30, channel=5, data=[71, 100]),
   midi.NoteOnEvent(tick=60, channel=5, data=[71, 0]),
   midi.NoteOnEvent(tick=30, channel=5, data=[68, 100]),
   midi.NoteOnEvent(tick=60, channel=5, data=[68, 0]),
   midi.NoteOnEvent(tick=180, channel=5, data=[68, 100]),
   midi.NoteOnEvent(tick=60, channel=5, data=[68, 0]),
   midi.PitchWheelEvent(tick=0, channel=5, data=[0, 0]),
   midi.NoteOnEvent(tick=0, channel=5, data=[73, 100]),
   midi.PitchWheelEvent(tick=17, channel=5, data=[0, 0]),
   midi.PitchWheelEvent(tick=1, channel=5, data=[0, 3]),
   midi.PitchWheelEvent(tick=6, channel=5, data=[0, 23]),
   midi.PitchWheelEvent(tick=7, channel=5, data=[0, 43]),
   midi.PitchWheelEvent(tick=6, channel=5, data=[0, 63]),
   midi.PitchWheelEvent(tick=0, channel=5, data=[0, 64]),
   midi.NoteOnEvent(tick=23, channel=5, data=[73, 0]),
   midi.NoteOnEvent(tick=30, channel=5, data=[71, 100]),
   midi.NoteOnEvent(tick=60, channel=5, data=[71, 0]),
   midi.NoteOnEvent(tick=30, channel=5, data=[68, 100]),
   midi.NoteOnEvent(tick=60, channel=5, data=[68, 0]),
   midi.NoteOnEvent(tick=60, channel=5, data=[73, 100]),
   midi.PitchWheelEvent(tick=0, channel=5, data=[0, 0]),
   midi.PitchWheelEvent(tick=17, channel=5, data=[0, 0]),
   midi.PitchWheelEvent(tick=1, channel=5, data=[0, 3]),
   midi.PitchWheelEvent(tick=6, channel=5, data=[0, 23]),
   midi.PitchWheelEvent(tick=7, channel=5, data=[0, 43]),
   midi.PitchWheelEvent(tick=6, channel=5, data=[0, 63]),
   midi.PitchWheelEvent(tick=0, channel=5, data=[0, 64]),
   midi.NoteOnEvent(tick=23, channel=5, data=[73, 0]),
   midi.NoteOnEvent(tick=30, channel=5, data=[71, 100]),
   midi.NoteOnEvent(tick=60, channel=5, data=[71, 0]),
   midi.PitchWheelEvent(tick=30, channel=5, data=[0, 0]),
   midi.NoteOnEvent(tick=0, channel=5, data=[73, 100]),
   midi.PitchWheelEvent(tick=17, channel=5, data=[0, 0]),
   midi.PitchWheelEvent(tick=1, channel=5, data=[0, 3]),
   midi.PitchWheelEvent(tick=6, channel=5, data=[0, 23]),
   midi.PitchWheelEvent(tick=7, channel=5, data=[0, 43]),
   midi.PitchWheelEvent(tick=6, channel=5, data=[0, 64]),
   midi.PitchWheelEvent(tick=0, channel=5, data=[0, 63]),
   midi.NoteOnEvent(tick=23, channel=5, data=[73, 0]),
   midi.NoteOnEvent(tick=60, channel=5, data=[71, 100]),
   midi.NoteOnEvent(tick=60, channel=5, data=[71, 0]),
   midi.NoteOnEvent(tick=60, channel=5, data=[73, 100]),
   midi.PitchWheelEvent(tick=0, channel=5, data=[0, 64]),
   midi.PitchWheelEvent(tick=17, channel=5, data=[0, 64]),
   midi.PitchWheelEvent(tick=1, channel=5, data=[0, 67]),
   midi.PitchWheelEvent(tick=6, channel=5, data=[0, 87]),
   midi.PitchWheelEvent(tick=7, channel=5, data=[0, 107]),
   midi.PitchWheelEvent(tick=6, channel=5, data=[127, 127]),
   midi.PitchWheelEvent(tick=0, channel=5, data=[0, 127]),
   midi.ControlChangeEvent(tick=203, channel=5, data=[7, 100]),
   midi.ControlChangeEvent(tick=95, channel=5, data=[7, 99]),
   midi.ControlChangeEvent(tick=94, channel=5, data=[7, 98]),
   midi.ControlChangeEvent(tick=95, channel=5, data=[7, 97]),
   midi.ControlChangeEvent(tick=94, channel=5, data=[7, 96]),
   midi.ControlChangeEvent(tick=95, channel=5, data=[7, 95]),
   midi.ControlChangeEvent(tick=94, channel=5, data=[7, 94]),
   midi.ControlChangeEvent(tick=95, channel=5, data=[7, 93]),
   midi.ControlChangeEvent(tick=94, channel=5, data=[7, 92]),
   midi.ControlChangeEvent(tick=95, channel=5, data=[7, 91]),
   midi.ControlChangeEvent(tick=94, channel=5, data=[7, 90]),
   midi.ControlChangeEvent(tick=95, channel=5, data=[7, 89]),
   midi.ControlChangeEvent(tick=94, channel=5, data=[7, 88]),
   midi.ControlChangeEvent(tick=95, channel=5, data=[7, 87]),
   midi.ControlChangeEvent(tick=94, channel=5, data=[7, 86]),
   midi.ControlChangeEvent(tick=95, channel=5, data=[7, 85]),
   midi.ControlChangeEvent(tick=94, channel=5, data=[7, 84]),
   midi.ControlChangeEvent(tick=95, channel=5, data=[7, 83]),
   midi.ControlChangeEvent(tick=94, channel=5, data=[7, 82]),
   midi.ControlChangeEvent(tick=95, channel=5, data=[7, 81]),
   midi.ControlChangeEvent(tick=94, channel=5, data=[7, 80]),
   midi.ControlChangeEvent(tick=95, channel=5, data=[7, 79]),
   midi.ControlChangeEvent(tick=94, channel=5, data=[7, 78]),
   midi.ControlChangeEvent(tick=95, channel=5, data=[7, 77]),
   midi.ControlChangeEvent(tick=94, channel=5, data=[7, 76]),
   midi.ControlChangeEvent(tick=95, channel=5, data=[7, 75]),
   midi.ControlChangeEvent(tick=94, channel=5, data=[7, 74]),
   midi.ControlChangeEvent(tick=95, channel=5, data=[7, 73]),
   midi.ControlChangeEvent(tick=94, channel=5, data=[7, 72]),
   midi.ControlChangeEvent(tick=95, channel=5, data=[7, 71]),
   midi.ControlChangeEvent(tick=94, channel=5, data=[7, 70]),
   midi.ControlChangeEvent(tick=95, channel=5, data=[7, 69]),
   midi.ControlChangeEvent(tick=94, channel=5, data=[7, 68]),
   midi.ControlChangeEvent(tick=95, channel=5, data=[7, 67]),
   midi.ControlChangeEvent(tick=94, channel=5, data=[7, 66]),
   midi.ControlChangeEvent(tick=95, channel=5, data=[7, 65]),
   midi.ControlChangeEvent(tick=94, channel=5, data=[7, 64]),
   midi.ControlChangeEvent(tick=95, channel=5, data=[7, 63]),
   midi.ControlChangeEvent(tick=94, channel=5, data=[7, 62]),
   midi.ControlChangeEvent(tick=95, channel=5, data=[7, 61]),
   midi.PitchWheelEvent(tick=34, channel=5, data=[0, 127]),
   midi.PitchWheelEvent(tick=0, channel=5, data=[127, 127]),
   midi.PitchWheelEvent(tick=6, channel=5, data=[0, 107]),
   midi.PitchWheelEvent(tick=7, channel=5, data=[0, 87]),
   midi.PitchWheelEvent(tick=6, channel=5, data=[0, 67]),
   midi.PitchWheelEvent(tick=1, channel=5, data=[0, 64]),
   midi.PitchWheelEvent(tick=1, channel=5, data=[0, 61]),
   midi.PitchWheelEvent(tick=6, channel=5, data=[0, 41]),
   midi.PitchWheelEvent(tick=7, channel=5, data=[0, 21]),
   midi.PitchWheelEvent(tick=6, channel=5, data=[0, 0]),
   midi.NoteOnEvent(tick=20, channel=5, data=[73, 0]),
   midi.ControlChangeEvent(tick=0, channel=5, data=[7, 60]),
   midi.ControlChangeEvent(tick=30, channel=5, data=[7, 100]),
   midi.PitchWheelEvent(tick=0, channel=5, data=[0, 64]),
   midi.NoteOnEvent(tick=210, channel=5, data=[68, 100]),
   midi.NoteOnEvent(tick=60, channel=5, data=[68, 0]),
   midi.PitchWheelEvent(tick=0, channel=5, data=[0, 0]),
   midi.NoteOnEvent(tick=0, channel=5, data=[75, 100]),
   midi.PitchWheelEvent(tick=17, channel=5, data=[0, 0]),
   midi.PitchWheelEvent(tick=1, channel=5, data=[0, 3]),
   midi.PitchWheelEvent(tick=6, channel=5, data=[0, 23]),
   midi.PitchWheelEvent(tick=7, channel=5, data=[0, 43]),
   midi.PitchWheelEvent(tick=6, channel=5, data=[0, 64]),
   midi.PitchWheelEvent(tick=0, channel=5, data=[0, 63]),
   midi.NoteOnEvent(tick=23, channel=5, data=[75, 0]),
   midi.NoteOnEvent(tick=0, channel=5, data=[75, 100]),
   midi.NoteOnEvent(tick=60, channel=5, data=[75, 0]),
   midi.NoteOnEvent(tick=0, channel=5, data=[75, 100]),
   midi.NoteOnEvent(tick=60, channel=5, data=[75, 0]),
   midi.NoteOnEvent(tick=0, channel=5, data=[76, 100]),
   midi.NoteOnEvent(tick=0, channel=5, data=[76, 100]),
   midi.NoteOnEvent(tick=60, channel=5, data=[76, 0]),
   midi.NoteOnEvent(tick=0, channel=5, data=[76, 0]),
   midi.NoteOnEvent(tick=0, channel=5, data=[73, 100]),
   midi.PitchWheelEvent(tick=12, channel=5, data=[0, 67]),
   midi.PitchWheelEvent(tick=6, channel=5, data=[0, 87]),
   midi.PitchWheelEvent(tick=7, channel=5, data=[0, 107]),
   midi.PitchWheelEvent(tick=4, channel=5, data=[127, 127]),
   midi.PitchWheelEvent(tick=39, channel=5, data=[0, 127]),
   midi.PitchWheelEvent(tick=0, channel=5, data=[127, 127]),
   midi.PitchWheelEvent(tick=9, channel=5, data=[0, 107]),
   midi.PitchWheelEvent(tick=11, channel=5, data=[0, 87]),
   midi.PitchWheelEvent(tick=9, channel=5, data=[0, 67]),
   midi.PitchWheelEvent(tick=12, channel=5, data=[0, 64]),
   midi.NoteOnEvent(tick=11, channel=5, data=[73, 0]),
   midi.NoteOnEvent(tick=0, channel=5, data=[73, 100]),
   midi.NoteOnEvent(tick=60, channel=5, data=[73, 0]),
   midi.NoteOnEvent(tick=0, channel=5, data=[71, 100]),
   midi.NoteOnEvent(tick=60, channel=5, data=[71, 0]),
   midi.NoteOnEvent(tick=0, channel=5, data=[71, 100]),
   midi.NoteOnEvent(tick=120, channel=5, data=[71, 0]),
   midi.NoteOnEvent(tick=0, channel=5, data=[73, 100]),
   midi.PitchWheelEvent(tick=0, channel=5, data=[0, 0]),
   midi.PitchWheelEvent(tick=17, channel=5, data=[0, 0]),
   midi.PitchWheelEvent(tick=1, channel=5, data=[0, 3]),
   midi.PitchWheelEvent(tick=6, channel=5, data=[0, 23]),
   midi.PitchWheelEvent(tick=7, channel=5, data=[0, 43]),
   midi.PitchWheelEvent(tick=6, channel=5, data=[0, 63]),
   midi.PitchWheelEvent(tick=0, channel=5, data=[0, 64]),
   midi.NoteOnEvent(tick=53, channel=5, data=[73, 0]),
   midi.NoteOnEvent(tick=270, channel=5, data=[75, 100]),
   midi.PitchWheelEvent(tick=0, channel=5, data=[0, 0]),
   midi.PitchWheelEvent(tick=17, channel=5, data=[0, 0]),
   midi.PitchWheelEvent(tick=1, channel=5, data=[0, 3]),
   midi.PitchWheelEvent(tick=6, channel=5, data=[0, 23]),
   midi.PitchWheelEvent(tick=7, channel=5, data=[0, 43]),
   midi.PitchWheelEvent(tick=6, channel=5, data=[0, 64]),
   midi.PitchWheelEvent(tick=0, channel=5, data=[0, 63]),
   midi.NoteOnEvent(tick=23, channel=5, data=[75, 0]),
   midi.NoteOnEvent(tick=0, channel=5, data=[75, 100]),
   midi.NoteOnEvent(tick=60, channel=5, data=[75, 0]),
   midi.NoteOnEvent(tick=0, channel=5, data=[75, 100]),
   midi.NoteOnEvent(tick=60, channel=5, data=[75, 0]),
   midi.NoteOnEvent(tick=0, channel=5, data=[76, 100]),
   midi.NoteOnEvent(tick=60, channel=5, data=[76, 0]),
   midi.NoteOnEvent(tick=0, channel=5, data=[73, 100]),
   midi.PitchWheelEvent(tick=12, channel=5, data=[0, 67]),
   midi.PitchWheelEvent(tick=6, channel=5, data=[0, 87]),
   midi.PitchWheelEvent(tick=7, channel=5, data=[0, 107]),
   midi.PitchWheelEvent(tick=4, channel=5, data=[127, 127]),
   midi.PitchWheelEvent(tick=39, channel=5, data=[0, 127]),
   midi.PitchWheelEvent(tick=0, channel=5, data=[127, 127]),
   midi.PitchWheelEvent(tick=9, channel=5, data=[0, 107]),
   midi.PitchWheelEvent(tick=11, channel=5, data=[0, 87]),
   midi.PitchWheelEvent(tick=9, channel=5, data=[0, 67]),
   midi.PitchWheelEvent(tick=12, channel=5, data=[0, 64]),
   midi.NoteOnEvent(tick=11, channel=5, data=[73, 0]),
   midi.PitchWheelEvent(tick=0, channel=5, data=[0, 64]),
   midi.NoteOnEvent(tick=0, channel=5, data=[73, 100]),
   midi.NoteOnEvent(tick=60, channel=5, data=[73, 0]),
   midi.NoteOnEvent(tick=0, channel=5, data=[71, 100]),
   midi.NoteOnEvent(tick=60, channel=5, data=[71, 0]),
   midi.NoteOnEvent(tick=0, channel=5, data=[71, 100]),
   midi.NoteOnEvent(tick=120, channel=5, data=[71, 0]),
   midi.NoteOnEvent(tick=0, channel=5, data=[73, 100]),
   midi.PitchWheelEvent(tick=0, channel=5, data=[0, 0]),
   midi.PitchWheelEvent(tick=17, channel=5, data=[0, 0]),
   midi.PitchWheelEvent(tick=1, channel=5, data=[0, 3]),
   midi.PitchWheelEvent(tick=6, channel=5, data=[0, 23]),
   midi.PitchWheelEvent(tick=7, channel=5, data=[0, 43]),
   midi.PitchWheelEvent(tick=6, channel=5, data=[0, 63]),
   midi.PitchWheelEvent(tick=0, channel=5, data=[0, 64]),
   midi.NoteOnEvent(tick=58, channel=5, data=[73, 0]),
   midi.NoteOnEvent(tick=0, channel=5, data=[68, 100]),
   midi.NoteOnEvent(tick=60, channel=5, data=[68, 0]),
   midi.NoteOnEvent(tick=85, channel=5, data=[68, 100]),
   midi.NoteOnEvent(tick=60, channel=5, data=[68, 0]),
   midi.NoteOnEvent(tick=0, channel=5, data=[68, 100]),
   midi.NoteOnEvent(tick=60, channel=5, data=[68, 0]),
   midi.PitchWheelEvent(tick=0, channel=5, data=[0, 0]),
   midi.NoteOnEvent(tick=0, channel=5, data=[75, 100]),
   midi.PitchWheelEvent(tick=17, channel=5, data=[0, 0]),
   midi.PitchWheelEvent(tick=1, channel=5, data=[0, 3]),
   midi.PitchWheelEvent(tick=6, channel=5, data=[0, 23]),
   midi.PitchWheelEvent(tick=7, channel=5, data=[0, 43]),
   midi.PitchWheelEvent(tick=6, channel=5, data=[0, 63]),
   midi.PitchWheelEvent(tick=0, channel=5, data=[0, 64]),
   midi.NoteOnEvent(tick=23, channel=5, data=[75, 0]),
   midi.NoteOnEvent(tick=0, channel=5, data=[75, 100]),
   midi.NoteOnEvent(tick=60, channel=5, data=[75, 0]),
   midi.NoteOnEvent(tick=0, channel=5, data=[75, 100]),
   midi.NoteOnEvent(tick=60, channel=5, data=[75, 0]),
   midi.NoteOnEvent(tick=0, channel=5, data=[76, 100]),
   midi.NoteOnEvent(tick=60, channel=5, data=[76, 0]),
   midi.NoteOnEvent(tick=0, channel=5, data=[73, 100]),
   midi.PitchWheelEvent(tick=12, channel=5, data=[0, 67]),
   midi.PitchWheelEvent(tick=6, channel=5, data=[0, 87]),
   midi.PitchWheelEvent(tick=7, channel=5, data=[0, 107]),
   midi.PitchWheelEvent(tick=4, channel=5, data=[127, 127]),
   midi.PitchWheelEvent(tick=39, channel=5, data=[0, 127]),
   midi.PitchWheelEvent(tick=0, channel=5, data=[127, 127]),
   midi.PitchWheelEvent(tick=9, channel=5, data=[0, 107]),
   midi.PitchWheelEvent(tick=11, channel=5, data=[0, 87]),
   midi.PitchWheelEvent(tick=9, channel=5, data=[0, 67]),
   midi.PitchWheelEvent(tick=12, channel=5, data=[0, 64]),
   midi.NoteOnEvent(tick=11, channel=5, data=[73, 0]),
   midi.NoteOnEvent(tick=0, channel=5, data=[73, 100]),
   midi.PitchWheelEvent(tick=0, channel=5, data=[0, 0]),
   midi.PitchWheelEvent(tick=60, channel=5, data=[0, 64]),
   midi.NoteOnEvent(tick=60, channel=5, data=[73, 0]),
   midi.NoteOnEvent(tick=60, channel=5, data=[68, 100]),
   midi.NoteOnEvent(tick=60, channel=5, data=[68, 0]),
   midi.NoteOnEvent(tick=0, channel=5, data=[75, 100]),
   midi.PitchWheelEvent(tick=0, channel=5, data=[0, 0]),
   midi.PitchWheelEvent(tick=17, channel=5, data=[0, 0]),
   midi.PitchWheelEvent(tick=1, channel=5, data=[0, 3]),
   midi.PitchWheelEvent(tick=6, channel=5, data=[0, 23]),
   midi.PitchWheelEvent(tick=7, channel=5, data=[0, 43]),
   midi.PitchWheelEvent(tick=6, channel=5, data=[0, 63]),
   midi.PitchWheelEvent(tick=0, channel=5, data=[0, 64]),
   midi.NoteOnEvent(tick=23, channel=5, data=[75, 0]),
   midi.NoteOnEvent(tick=0, channel=5, data=[76, 100]),
   midi.NoteOnEvent(tick=60, channel=5, data=[76, 0]),
   midi.NoteOnEvent(tick=0, channel=5, data=[78, 100]),
   midi.PitchWheelEvent(tick=0, channel=5, data=[0, 0]),
   midi.PitchWheelEvent(tick=17, channel=5, data=[0, 0]),
   midi.PitchWheelEvent(tick=1, channel=5, data=[0, 3]),
   midi.PitchWheelEvent(tick=6, channel=5, data=[0, 23]),
   midi.PitchWheelEvent(tick=7, channel=5, data=[0, 43]),
   midi.PitchWheelEvent(tick=6, channel=5, data=[0, 63]),
   midi.PitchWheelEvent(tick=0, channel=5, data=[0, 64]),
   midi.NoteOnEvent(tick=23, channel=5, data=[78, 0]),
   midi.PitchWheelEvent(tick=60, channel=5, data=[0, 0]),
   midi.NoteOnEvent(tick=0, channel=5, data=[75, 100]),
   midi.PitchWheelEvent(tick=17, channel=5, data=[0, 0]),
   midi.PitchWheelEvent(tick=1, channel=5, data=[0, 3]),
   midi.PitchWheelEvent(tick=6, channel=5, data=[0, 23]),
   midi.PitchWheelEvent(tick=7, channel=5, data=[0, 43]),
   midi.PitchWheelEvent(tick=6, channel=5, data=[0, 63]),
   midi.PitchWheelEvent(tick=0, channel=5, data=[0, 64]),
   midi.NoteOnEvent(tick=23, channel=5, data=[75, 0]),
   midi.PitchWheelEvent(tick=60, channel=5, data=[127, 127]),
   midi.NoteOnEvent(tick=0, channel=5, data=[71, 100]),
   midi.PitchWheelEvent(tick=4, channel=5, data=[0, 127]),
   midi.PitchWheelEvent(tick=0, channel=5, data=[127, 127]),
   midi.PitchWheelEvent(tick=2, channel=5, data=[0, 107]),
   midi.PitchWheelEvent(tick=3, channel=5, data=[0, 87]),
   midi.PitchWheelEvent(tick=2, channel=5, data=[0, 67]),
   midi.PitchWheelEvent(tick=3, channel=5, data=[0, 64]),
   midi.NoteOnEvent(tick=46, channel=5, data=[71, 0]),
   midi.NoteOnEvent(tick=60, channel=5, data=[73, 100]),
   midi.PitchWheelEvent(tick=0, channel=5, data=[0, 0]),
   midi.PitchWheelEvent(tick=17, channel=5, data=[0, 0]),
   midi.PitchWheelEvent(tick=1, channel=5, data=[0, 3]),
   midi.PitchWheelEvent(tick=6, channel=5, data=[0, 23]),
   midi.PitchWheelEvent(tick=7, channel=5, data=[0, 43]),
   midi.PitchWheelEvent(tick=6, channel=5, data=[0, 64]),
   midi.PitchWheelEvent(tick=0, channel=5, data=[0, 63]),
   midi.NoteOnEvent(tick=23, channel=5, data=[73, 0]),
   midi.PitchWheelEvent(tick=60, channel=5, data=[127, 127]),
   midi.NoteOnEvent(tick=0, channel=5, data=[71, 100]),
   midi.PitchWheelEvent(tick=8, channel=5, data=[0, 127]),
   midi.PitchWheelEvent(tick=0, channel=5, data=[127, 127]),
   midi.PitchWheelEvent(tick=5, channel=5, data=[0, 107]),
   midi.PitchWheelEvent(tick=5, channel=5, data=[0, 87]),
   midi.PitchWheelEvent(tick=5, channel=5, data=[0, 67]),
   midi.PitchWheelEvent(tick=6, channel=5, data=[0, 64]),
   midi.NoteOnEvent(tick=31, channel=5, data=[71, 0]),
   midi.NoteOnEvent(tick=30, channel=5, data=[71, 60]),
   midi.PitchWheelEvent(tick=0, channel=5, data=[127, 127]),
   midi.PitchWheelEvent(tick=8, channel=5, data=[0, 127]),
   midi.PitchWheelEvent(tick=0, channel=5, data=[127, 127]),
   midi.PitchWheelEvent(tick=5, channel=5, data=[0, 107]),
   midi.PitchWheelEvent(tick=5, channel=5, data=[0, 87]),
   midi.PitchWheelEvent(tick=5, channel=5, data=[0, 67]),
   midi.PitchWheelEvent(tick=6, channel=5, data=[0, 64]),
   midi.NoteOnEvent(tick=31, channel=5, data=[71, 0]),
   midi.PitchWheelEvent(tick=30, channel=5, data=[127, 127]),
   midi.NoteOnEvent(tick=0, channel=5, data=[71, 36]),
   midi.PitchWheelEvent(tick=8, channel=5, data=[0, 127]),
   midi.PitchWheelEvent(tick=0, channel=5, data=[127, 127]),
   midi.PitchWheelEvent(tick=5, channel=5, data=[0, 107]),
   midi.PitchWheelEvent(tick=5, channel=5, data=[0, 87]),
   midi.PitchWheelEvent(tick=5, channel=5, data=[0, 67]),
   midi.PitchWheelEvent(tick=6, channel=5, data=[0, 64]),
   midi.NoteOnEvent(tick=31, channel=5, data=[71, 0]),
   midi.PitchWheelEvent(tick=30, channel=5, data=[127, 127]),
   midi.NoteOnEvent(tick=0, channel=5, data=[71, 21]),
   midi.PitchWheelEvent(tick=8, channel=5, data=[127, 127]),
   midi.PitchWheelEvent(tick=0, channel=5, data=[0, 127]),
   midi.PitchWheelEvent(tick=5, channel=5, data=[0, 107]),
   midi.PitchWheelEvent(tick=5, channel=5, data=[0, 87]),
   midi.PitchWheelEvent(tick=5, channel=5, data=[0, 67]),
   midi.PitchWheelEvent(tick=6, channel=5, data=[0, 64]),
   midi.NoteOnEvent(tick=31, channel=5, data=[71, 0]),
   midi.PitchWheelEvent(tick=30, channel=5, data=[127, 127]),
   midi.NoteOnEvent(tick=0, channel=5, data=[71, 12]),
   midi.PitchWheelEvent(tick=8, channel=5, data=[0, 127]),
   midi.PitchWheelEvent(tick=0, channel=5, data=[127, 127]),
   midi.PitchWheelEvent(tick=5, channel=5, data=[0, 107]),
   midi.PitchWheelEvent(tick=5, channel=5, data=[0, 87]),
   midi.PitchWheelEvent(tick=5, channel=5, data=[0, 67]),
   midi.PitchWheelEvent(tick=6, channel=5, data=[0, 64]),
   midi.NoteOnEvent(tick=31, channel=5, data=[71, 0]),
   midi.NoteOnEvent(tick=30, channel=5, data=[71, 7]),
   midi.PitchWheelEvent(tick=0, channel=5, data=[127, 127]),
   midi.PitchWheelEvent(tick=8, channel=5, data=[0, 127]),
   midi.PitchWheelEvent(tick=0, channel=5, data=[127, 127]),
   midi.PitchWheelEvent(tick=5, channel=5, data=[0, 107]),
   midi.PitchWheelEvent(tick=5, channel=5, data=[0, 87]),
   midi.PitchWheelEvent(tick=5, channel=5, data=[0, 67]),
   midi.PitchWheelEvent(tick=6, channel=5, data=[0, 64]),
   midi.NoteOnEvent(tick=31, channel=5, data=[71, 0]),
   midi.NoteOnEvent(tick=510, channel=5, data=[68, 100]),
   midi.NoteOnEvent(tick=60, channel=5, data=[68, 0]),
   midi.PitchWheelEvent(tick=0, channel=5, data=[0, 0]),
   midi.NoteOnEvent(tick=0, channel=5, data=[71, 100]),
   midi.PitchWheelEvent(tick=1, channel=5, data=[0, 3]),
   midi.PitchWheelEvent(tick=6, channel=5, data=[0, 23]),
   midi.PitchWheelEvent(tick=7, channel=5, data=[0, 43]),
   midi.PitchWheelEvent(tick=6, channel=5, data=[0, 63]),
   midi.PitchWheelEvent(tick=0, channel=5, data=[0, 64]),
   midi.NoteOnEvent(tick=40, channel=5, data=[71, 0]),
   midi.NoteOnEvent(tick=0, channel=5, data=[68, 100]),
   midi.NoteOnEvent(tick=60, channel=5, data=[68, 0]),
   midi.PitchWheelEvent(tick=0, channel=5, data=[0, 0]),
   midi.NoteOnEvent(tick=0, channel=5, data=[71, 100]),
   midi.PitchWheelEvent(tick=17, channel=5, data=[0, 0]),
   midi.PitchWheelEvent(tick=1, channel=5, data=[0, 3]),
   midi.PitchWheelEvent(tick=6, channel=5, data=[0, 23]),
   midi.PitchWheelEvent(tick=7, channel=5, data=[0, 43]),
   midi.PitchWheelEvent(tick=6, channel=5, data=[0, 64]),
   midi.PitchWheelEvent(tick=0, channel=5, data=[0, 63]),
   midi.NoteOnEvent(tick=83, channel=5, data=[71, 0]),
   midi.NoteOnEvent(tick=0, channel=5, data=[68, 100]),
   midi.PitchWheelEvent(tick=0, channel=5, data=[0, 0]),
   midi.PitchWheelEvent(tick=17, channel=5, data=[0, 0]),
   midi.PitchWheelEvent(tick=1, channel=5, data=[0, 3]),
   midi.PitchWheelEvent(tick=6, channel=5, data=[0, 23]),
   midi.PitchWheelEvent(tick=7, channel=5, data=[0, 43]),
   midi.PitchWheelEvent(tick=6, channel=5, data=[0, 63]),
   midi.PitchWheelEvent(tick=0, channel=5, data=[0, 64]),
   midi.NoteOnEvent(tick=53, channel=5, data=[68, 0]),
   midi.NoteOnEvent(tick=30, channel=5, data=[73, 100]),
   midi.PitchWheelEvent(tick=0, channel=5, data=[0, 67]),
   midi.PitchWheelEvent(tick=6, channel=5, data=[0, 87]),
   midi.PitchWheelEvent(tick=7, channel=5, data=[0, 107]),
   midi.PitchWheelEvent(tick=4, channel=5, data=[127, 127]),
   midi.PitchWheelEvent(tick=27, channel=5, data=[127, 127]),
   midi.PitchWheelEvent(tick=8, channel=5, data=[127, 127]),
   midi.PitchWheelEvent(tick=0, channel=5, data=[0, 127]),
   midi.PitchWheelEvent(tick=4, channel=5, data=[0, 107]),
   midi.PitchWheelEvent(tick=6, channel=5, data=[0, 87]),
   midi.PitchWheelEvent(tick=4, channel=5, data=[0, 67]),
   midi.PitchWheelEvent(tick=6, channel=5, data=[0, 64]),
   midi.NoteOnEvent(tick=18, channel=5, data=[73, 0]),
   midi.NoteOnEvent(tick=30, channel=5, data=[69, 100]),
   midi.PitchWheelEvent(tick=0, channel=5, data=[127, 127]),
   midi.PitchWheelEvent(tick=44, channel=5, data=[0, 127]),
   midi.PitchWheelEvent(tick=0, channel=5, data=[127, 127]),
   midi.PitchWheelEvent(tick=6, channel=5, data=[0, 107]),
   midi.PitchWheelEvent(tick=7, channel=5, data=[0, 87]),
   midi.PitchWheelEvent(tick=6, channel=5, data=[0, 67]),
   midi.PitchWheelEvent(tick=1, channel=5, data=[0, 64]),
   midi.PitchWheelEvent(tick=1, channel=5, data=[0, 61]),
   midi.PitchWheelEvent(tick=6, channel=5, data=[0, 41]),
   midi.PitchWheelEvent(tick=7, channel=5, data=[0, 32]),
   midi.NoteOnEvent(tick=12, channel=5, data=[69, 0]),
   midi.PitchWheelEvent(tick=30, channel=5, data=[0, 64]),
   midi.NoteOnEvent(tick=0, channel=5, data=[71, 100]),
   midi.NoteOnEvent(tick=90, channel=5, data=[71, 0]),
   midi.NoteOnEvent(tick=0, channel=5, data=[73, 100]),
   midi.PitchWheelEvent(tick=0, channel=5, data=[0, 0]),
   midi.PitchWheelEvent(tick=17, channel=5, data=[0, 0]),
   midi.PitchWheelEvent(tick=1, channel=5, data=[0, 3]),
   midi.PitchWheelEvent(tick=6, channel=5, data=[0, 23]),
   midi.PitchWheelEvent(tick=7, channel=5, data=[0, 43]),
   midi.PitchWheelEvent(tick=6, channel=5, data=[0, 64]),
   midi.PitchWheelEvent(tick=0, channel=5, data=[0, 63]),
   midi.NoteOnEvent(tick=23, channel=5, data=[73, 0]),
   midi.PitchWheelEvent(tick=30, channel=5, data=[127, 127]),
   midi.NoteOnEvent(tick=0, channel=5, data=[66, 100]),
   midi.PitchWheelEvent(tick=44, channel=5, data=[127, 127]),
   midi.PitchWheelEvent(tick=8, channel=5, data=[127, 127]),
   midi.PitchWheelEvent(tick=0, channel=5, data=[0, 127]),
   midi.PitchWheelEvent(tick=4, channel=5, data=[0, 107]),
   midi.PitchWheelEvent(tick=6, channel=5, data=[0, 87]),
   midi.PitchWheelEvent(tick=4, channel=5, data=[0, 67]),
   midi.PitchWheelEvent(tick=6, channel=5, data=[0, 64]),
   midi.NoteOnEvent(tick=48, channel=5, data=[66, 0]),
   midi.NoteOnEvent(tick=120, channel=5, data=[66, 100]),
   midi.PitchWheelEvent(tick=17, channel=5, data=[0, 67]),
   midi.PitchWheelEvent(tick=6, channel=5, data=[0, 87]),
   midi.PitchWheelEvent(tick=7, channel=5, data=[0, 107]),
   midi.PitchWheelEvent(tick=4, channel=5, data=[127, 127]),
   midi.ControlChangeEvent(tick=3, channel=5, data=[1, 127]),
   midi.PitchWheelEvent(tick=78, channel=5, data=[0, 127]),
   midi.PitchWheelEvent(tick=0, channel=5, data=[127, 127]),
   midi.ControlChangeEvent(tick=5, channel=5, data=[1, 0]),
   midi.PitchWheelEvent(tick=4, channel=5, data=[0, 107]),
   midi.PitchWheelEvent(tick=10, channel=5, data=[0, 87]),
   midi.PitchWheelEvent(tick=9, channel=5, data=[0, 67]),
   midi.PitchWheelEvent(tick=12, channel=5, data=[0, 64]),
   midi.NoteOnEvent(tick=14, channel=5, data=[66, 0]),
   midi.NoteOnEvent(tick=671, channel=5, data=[68, 100]),
   midi.NoteOnEvent(tick=60, channel=5, data=[68, 0]),
   midi.PitchWheelEvent(tick=0, channel=5, data=[0, 0]),
   midi.NoteOnEvent(tick=0, channel=5, data=[71, 100]),
   midi.PitchWheelEvent(tick=1, channel=5, data=[0, 3]),
   midi.PitchWheelEvent(tick=6, channel=5, data=[0, 23]),
   midi.PitchWheelEvent(tick=7, channel=5, data=[0, 43]),
   midi.PitchWheelEvent(tick=6, channel=5, data=[0, 64]),
   midi.PitchWheelEvent(tick=0, channel=5, data=[0, 63]),
   midi.NoteOnEvent(tick=40, channel=5, data=[71, 0]),
   midi.NoteOnEvent(tick=0, channel=5, data=[68, 100]),
   midi.NoteOnEvent(tick=60, channel=5, data=[68, 0]),
   midi.PitchWheelEvent(tick=0, channel=5, data=[0, 0]),
   midi.NoteOnEvent(tick=0, channel=5, data=[71, 100]),
   midi.PitchWheelEvent(tick=1, channel=5, data=[0, 3]),
   midi.PitchWheelEvent(tick=6, channel=5, data=[0, 23]),
   midi.PitchWheelEvent(tick=7, channel=5, data=[0, 43]),
   midi.PitchWheelEvent(tick=6, channel=5, data=[0, 63]),
   midi.PitchWheelEvent(tick=0, channel=5, data=[0, 64]),
   midi.PitchWheelEvent(tick=40, channel=5, data=[0, 67]),
   midi.PitchWheelEvent(tick=6, channel=5, data=[0, 87]),
   midi.PitchWheelEvent(tick=7, channel=5, data=[0, 107]),
   midi.PitchWheelEvent(tick=4, channel=5, data=[127, 127]),
   midi.NoteOnEvent(tick=43, channel=5, data=[71, 0]),
   midi.NoteOnEvent(tick=0, channel=5, data=[73, 100]),
   midi.PitchWheelEvent(tick=0, channel=5, data=[0, 64]),
   midi.PitchWheelEvent(tick=17, channel=5, data=[0, 67]),
   midi.PitchWheelEvent(tick=6, channel=5, data=[0, 87]),
   midi.PitchWheelEvent(tick=7, channel=5, data=[0, 107]),
   midi.PitchWheelEvent(tick=4, channel=5, data=[127, 127]),
   midi.NoteOnEvent(tick=56, channel=5, data=[73, 0]),
   midi.NoteOnEvent(tick=30, channel=5, data=[73, 100]),
   midi.PitchWheelEvent(tick=0, channel=5, data=[0, 67]),
   midi.PitchWheelEvent(tick=6, channel=5, data=[0, 87]),
   midi.PitchWheelEvent(tick=7, channel=5, data=[0, 107]),
   midi.PitchWheelEvent(tick=4, channel=5, data=[127, 127]),
   midi.PitchWheelEvent(tick=27, channel=5, data=[127, 127]),
   midi.PitchWheelEvent(tick=8, channel=5, data=[0, 127]),
   midi.PitchWheelEvent(tick=0, channel=5, data=[127, 127]),
   midi.PitchWheelEvent(tick=4, channel=5, data=[0, 107]),
   midi.PitchWheelEvent(tick=6, channel=5, data=[0, 87]),
   midi.PitchWheelEvent(tick=4, channel=5, data=[0, 67]),
   midi.PitchWheelEvent(tick=6, channel=5, data=[0, 64]),
   midi.NoteOnEvent(tick=18, channel=5, data=[73, 0]),
   midi.PitchWheelEvent(tick=30, channel=5, data=[127, 127]),
   midi.NoteOnEvent(tick=0, channel=5, data=[69, 100]),
   midi.PitchWheelEvent(tick=44, channel=5, data=[0, 127]),
   midi.PitchWheelEvent(tick=0, channel=5, data=[127, 127]),
   midi.PitchWheelEvent(tick=6, channel=5, data=[0, 107]),
   midi.PitchWheelEvent(tick=7, channel=5, data=[0, 87]),
   midi.PitchWheelEvent(tick=6, channel=5, data=[0, 67]),
   midi.PitchWheelEvent(tick=1, channel=5, data=[0, 64]),
   midi.PitchWheelEvent(tick=1, channel=5, data=[0, 61]),
   midi.PitchWheelEvent(tick=6, channel=5, data=[0, 41]),
   midi.PitchWheelEvent(tick=7, channel=5, data=[0, 32]),
   midi.NoteOnEvent(tick=12, channel=5, data=[69, 0]),
   midi.PitchWheelEvent(tick=30, channel=5, data=[0, 64]),
   midi.NoteOnEvent(tick=0, channel=5, data=[71, 100]),
   midi.NoteOnEvent(tick=90, channel=5, data=[71, 0]),
   midi.NoteOnEvent(tick=0, channel=5, data=[73, 100]),
   midi.PitchWheelEvent(tick=0, channel=5, data=[0, 0]),
   midi.PitchWheelEvent(tick=17, channel=5, data=[0, 0]),
   midi.PitchWheelEvent(tick=1, channel=5, data=[0, 3]),
   midi.PitchWheelEvent(tick=6, channel=5, data=[0, 23]),
   midi.PitchWheelEvent(tick=7, channel=5, data=[0, 43]),
   midi.PitchWheelEvent(tick=6, channel=5, data=[0, 63]),
   midi.PitchWheelEvent(tick=0, channel=5, data=[0, 64]),
   midi.NoteOnEvent(tick=23, channel=5, data=[73, 0]),
   midi.NoteOnEvent(tick=30, channel=5, data=[73, 100]),
   midi.PitchWheelEvent(tick=0, channel=5, data=[0, 0]),
   midi.PitchWheelEvent(tick=33, channel=5, data=[0, 0]),
   midi.PitchWheelEvent(tick=2, channel=5, data=[0, 3]),
   midi.PitchWheelEvent(tick=12, channel=5, data=[0, 23]),
   midi.PitchWheelEvent(tick=14, channel=5, data=[0, 43]),
   midi.PitchWheelEvent(tick=12, channel=5, data=[0, 64]),
   midi.PitchWheelEvent(tick=0, channel=5, data=[0, 63]),
   midi.ControlChangeEvent(tick=17, channel=5, data=[1, 62]),
   midi.PitchWheelEvent(tick=0, channel=5, data=[0, 64]),
   midi.PitchWheelEvent(tick=30, channel=5, data=[35, 68]),
   midi.PitchWheelEvent(tick=30, channel=5, data=[69, 72]),
   midi.PitchWheelEvent(tick=30, channel=5, data=[103, 76]),
   midi.PitchWheelEvent(tick=30, channel=5, data=[9, 81]),
   midi.PitchWheelEvent(tick=30, channel=5, data=[43, 85]),
   midi.PitchWheelEvent(tick=30, channel=5, data=[77, 89]),
   midi.PitchWheelEvent(tick=30, channel=5, data=[111, 93]),
   midi.PitchWheelEvent(tick=30, channel=5, data=[17, 98]),
   midi.PitchWheelEvent(tick=30, channel=5, data=[51, 102]),
   midi.PitchWheelEvent(tick=30, channel=5, data=[85, 106]),
   midi.PitchWheelEvent(tick=30, channel=5, data=[119, 110]),
   midi.PitchWheelEvent(tick=30, channel=5, data=[25, 115]),
   midi.PitchWheelEvent(tick=30, channel=5, data=[59, 119]),
   midi.PitchWheelEvent(tick=30, channel=5, data=[93, 123]),
   midi.ControlChangeEvent(tick=30, channel=5, data=[1, 0]),
   midi.PitchWheelEvent(tick=0, channel=5, data=[127, 127]),
   midi.NoteOnEvent(tick=60, channel=5, data=[73, 0]),
   midi.PitchWheelEvent(tick=0, channel=5, data=[0, 64]),
   midi.NoteOnEvent(tick=0, channel=5, data=[68, 100]),
   midi.NoteOnEvent(tick=60, channel=5, data=[68, 0]),
   midi.NoteOnEvent(tick=0, channel=5, data=[73, 100]),
   midi.PitchWheelEvent(tick=0, channel=5, data=[0, 0]),
   midi.PitchWheelEvent(tick=17, channel=5, data=[0, 0]),
   midi.PitchWheelEvent(tick=6, channel=5, data=[26, 13]),
   midi.PitchWheelEvent(tick=7, channel=5, data=[69, 26]),
   midi.PitchWheelEvent(tick=6, channel=5, data=[111, 39]),
   midi.PitchWheelEvent(tick=6, channel=5, data=[26, 53]),
   midi.PitchWheelEvent(tick=5, channel=5, data=[0, 64]),
   midi.NoteOnEvent(tick=73, channel=5, data=[73, 0]),
   midi.NoteOnEvent(tick=0, channel=5, data=[71, 100]),
   midi.NoteOnEvent(tick=120, channel=5, data=[71, 0]),
   midi.NoteOnEvent(tick=60, channel=5, data=[68, 100]),
   midi.NoteOnEvent(tick=60, channel=5, data=[68, 0]),
   midi.PitchWheelEvent(tick=0, channel=5, data=[0, 0]),
   midi.NoteOnEvent(tick=0, channel=5, data=[71, 100]),
   midi.PitchWheelEvent(tick=17, channel=5, data=[0, 0]),
   midi.PitchWheelEvent(tick=1, channel=5, data=[0, 3]),
   midi.PitchWheelEvent(tick=6, channel=5, data=[0, 23]),
   midi.PitchWheelEvent(tick=7, channel=5, data=[0, 43]),
   midi.PitchWheelEvent(tick=6, channel=5, data=[0, 63]),
   midi.PitchWheelEvent(tick=0, channel=5, data=[0, 64]),
   midi.NoteOnEvent(tick=23, channel=5, data=[71, 0]),
   midi.NoteOnEvent(tick=0, channel=5, data=[68, 100]),
   midi.NoteOnEvent(tick=60, channel=5, data=[68, 0]),
   midi.PitchWheelEvent(tick=0, channel=5, data=[0, 0]),
   midi.NoteOnEvent(tick=0, channel=5, data=[68, 100]),
   midi.PitchWheelEvent(tick=20, channel=5, data=[0, 0]),
   midi.PitchWheelEvent(tick=6, channel=5, data=[13, 9]),
   midi.PitchWheelEvent(tick=6, channel=5, data=[13, 19]),
   midi.PitchWheelEvent(tick=6, channel=5, data=[13, 29]),
   midi.PitchWheelEvent(tick=7, channel=5, data=[13, 39]),
   midi.PitchWheelEvent(tick=6, channel=5, data=[13, 49]),
   midi.PitchWheelEvent(tick=6, channel=5, data=[13, 59]),
   midi.PitchWheelEvent(tick=3, channel=5, data=[0, 64]),
   midi.NoteOnEvent(tick=40, channel=5, data=[68, 0]),
   midi.NoteOnEvent(tick=320, channel=5, data=[68, 100]),
   midi.NoteOnEvent(tick=60, channel=5, data=[68, 0]),
   midi.NoteOnEvent(tick=0, channel=5, data=[73, 100]),
   midi.PitchWheelEvent(tick=0, channel=5, data=[0, 0]),
   midi.PitchWheelEvent(tick=17, channel=5, data=[0, 0]),
   midi.PitchWheelEvent(tick=6, channel=5, data=[26, 13]),
   midi.PitchWheelEvent(tick=7, channel=5, data=[69, 26]),
   midi.PitchWheelEvent(tick=6, channel=5, data=[111, 39]),
   midi.PitchWheelEvent(tick=6, channel=5, data=[26, 53]),
   midi.PitchWheelEvent(tick=5, channel=5, data=[0, 64]),
   midi.NoteOnEvent(tick=73, channel=5, data=[73, 0]),
   midi.NoteOnEvent(tick=0, channel=5, data=[71, 100]),
   midi.NoteOnEvent(tick=120, channel=5, data=[71, 0]),
   midi.NoteOnEvent(tick=60, channel=5, data=[68, 100]),
   midi.NoteOnEvent(tick=60, channel=5, data=[68, 0]),
   midi.NoteOnEvent(tick=0, channel=5, data=[71, 100]),
   midi.NoteOnEvent(tick=60, channel=5, data=[71, 0]),
   midi.NoteOnEvent(tick=60, channel=5, data=[73, 100]),
   midi.PitchWheelEvent(tick=0, channel=5, data=[0, 0]),
   midi.PitchWheelEvent(tick=17, channel=5, data=[0, 0]),
   midi.PitchWheelEvent(tick=6, channel=5, data=[26, 13]),
   midi.PitchWheelEvent(tick=7, channel=5, data=[69, 26]),
   midi.PitchWheelEvent(tick=6, channel=5, data=[111, 39]),
   midi.PitchWheelEvent(tick=6, channel=5, data=[26, 53]),
   midi.PitchWheelEvent(tick=5, channel=5, data=[0, 64]),
   midi.NoteOnEvent(tick=13, channel=5, data=[73, 0]),
   midi.NoteOnEvent(tick=60, channel=5, data=[71, 100]),
   midi.NoteOnEvent(tick=60, channel=5, data=[71, 0]),
   midi.PitchWheelEvent(tick=60, channel=5, data=[0, 0]),
   midi.NoteOnEvent(tick=0, channel=5, data=[68, 100]),
   midi.PitchWheelEvent(tick=20, channel=5, data=[0, 0]),
   midi.PitchWheelEvent(tick=6, channel=5, data=[13, 9]),
   midi.PitchWheelEvent(tick=6, channel=5, data=[13, 19]),
   midi.PitchWheelEvent(tick=6, channel=5, data=[13, 29]),
   midi.PitchWheelEvent(tick=7, channel=5, data=[13, 39]),
   midi.PitchWheelEvent(tick=6, channel=5, data=[13, 49]),
   midi.PitchWheelEvent(tick=6, channel=5, data=[13, 59]),
   midi.PitchWheelEvent(tick=3, channel=5, data=[0, 64]),
   midi.NoteOnEvent(tick=40, channel=5, data=[68, 0]),
   midi.NoteOnEvent(tick=80, channel=5, data=[68, 100]),
   midi.NoteOnEvent(tick=60, channel=5, data=[68, 0]),
   midi.NoteOnEvent(tick=0, channel=5, data=[73, 100]),
   midi.PitchWheelEvent(tick=0, channel=5, data=[0, 0]),
   midi.PitchWheelEvent(tick=17, channel=5, data=[0, 0]),
   midi.PitchWheelEvent(tick=6, channel=5, data=[26, 13]),
   midi.PitchWheelEvent(tick=7, channel=5, data=[69, 26]),
   midi.PitchWheelEvent(tick=6, channel=5, data=[111, 39]),
   midi.PitchWheelEvent(tick=6, channel=5, data=[26, 53]),
   midi.PitchWheelEvent(tick=5, channel=5, data=[0, 64]),
   midi.PitchWheelEvent(tick=3, channel=5, data=[0, 64]),
   midi.PitchWheelEvent(tick=6, channel=5, data=[51, 24]),
   midi.PitchWheelEvent(tick=4, channel=5, data=[51, 0]),
   midi.PitchWheelEvent(tick=0, channel=5, data=[0, 0]),
   midi.PitchWheelEvent(tick=17, channel=5, data=[0, 0]),
   midi.PitchWheelEvent(tick=6, channel=5, data=[26, 13]),
   midi.PitchWheelEvent(tick=7, channel=5, data=[69, 26]),
   midi.PitchWheelEvent(tick=6, channel=5, data=[111, 39]),
   midi.PitchWheelEvent(tick=6, channel=5, data=[26, 53]),
   midi.PitchWheelEvent(tick=5, channel=5, data=[0, 64]),
   midi.NoteOnEvent(tick=13, channel=5, data=[73, 0]),
   midi.NoteOnEvent(tick=0, channel=5, data=[71, 100]),
   midi.NoteOnEvent(tick=120, channel=5, data=[71, 0]),
   midi.NoteOnEvent(tick=60, channel=5, data=[68, 100]),
   midi.NoteOnEvent(tick=60, channel=5, data=[68, 0]),
   midi.NoteOnEvent(tick=0, channel=5, data=[71, 100]),
   midi.PitchWheelEvent(tick=0, channel=5, data=[0, 0]),
   midi.PitchWheelEvent(tick=17, channel=5, data=[0, 0]),
   midi.PitchWheelEvent(tick=1, channel=5, data=[0, 3]),
   midi.PitchWheelEvent(tick=6, channel=5, data=[0, 23]),
   midi.PitchWheelEvent(tick=7, channel=5, data=[0, 43]),
   midi.PitchWheelEvent(tick=6, channel=5, data=[0, 64]),
   midi.PitchWheelEvent(tick=0, channel=5, data=[0, 63]),
   midi.NoteOnEvent(tick=23, channel=5, data=[71, 0]),
   midi.NoteOnEvent(tick=0, channel=5, data=[68, 100]),
   midi.NoteOnEvent(tick=60, channel=5, data=[68, 0]),
   midi.PitchWheelEvent(tick=0, channel=5, data=[0, 0]),
   midi.NoteOnEvent(tick=0, channel=5, data=[68, 100]),
   midi.PitchWheelEvent(tick=20, channel=5, data=[0, 0]),
   midi.PitchWheelEvent(tick=6, channel=5, data=[13, 9]),
   midi.PitchWheelEvent(tick=6, channel=5, data=[13, 19]),
   midi.PitchWheelEvent(tick=6, channel=5, data=[13, 29]),
   midi.PitchWheelEvent(tick=7, channel=5, data=[13, 39]),
   midi.PitchWheelEvent(tick=6, channel=5, data=[13, 49]),
   midi.PitchWheelEvent(tick=6, channel=5, data=[13, 59]),
   midi.PitchWheelEvent(tick=3, channel=5, data=[0, 64]),
   midi.NoteOnEvent(tick=40, channel=5, data=[68, 0]),
   midi.NoteOnEvent(tick=200, channel=5, data=[68, 100]),
   midi.NoteOnEvent(tick=60, channel=5, data=[68, 0]),
   midi.PitchWheelEvent(tick=0, channel=5, data=[0, 0]),
   midi.NoteOnEvent(tick=0, channel=5, data=[73, 100]),
   midi.PitchWheelEvent(tick=17, channel=5, data=[0, 0]),
   midi.PitchWheelEvent(tick=1, channel=5, data=[0, 3]),
   midi.PitchWheelEvent(tick=6, channel=5, data=[0, 23]),
   midi.PitchWheelEvent(tick=7, channel=5, data=[0, 43]),
   midi.PitchWheelEvent(tick=6, channel=5, data=[0, 63]),
   midi.PitchWheelEvent(tick=0, channel=5, data=[0, 64]),
   midi.NoteOnEvent(tick=23, channel=5, data=[73, 0]),
   midi.NoteOnEvent(tick=30, channel=5, data=[71, 100]),
   midi.NoteOnEvent(tick=60, channel=5, data=[71, 0]),
   midi.NoteOnEvent(tick=30, channel=5, data=[68, 100]),
   midi.NoteOnEvent(tick=60, channel=5, data=[68, 0]),
   midi.PitchWheelEvent(tick=60, channel=5, data=[0, 0]),
   midi.NoteOnEvent(tick=0, channel=5, data=[73, 100]),
   midi.PitchWheelEvent(tick=17, channel=5, data=[0, 0]),
   midi.PitchWheelEvent(tick=1, channel=5, data=[0, 3]),
   midi.PitchWheelEvent(tick=6, channel=5, data=[0, 23]),
   midi.PitchWheelEvent(tick=7, channel=5, data=[0, 43]),
   midi.PitchWheelEvent(tick=6, channel=5, data=[0, 63]),
   midi.PitchWheelEvent(tick=0, channel=5, data=[0, 64]),
   midi.NoteOnEvent(tick=23, channel=5, data=[73, 0]),
   midi.NoteOnEvent(tick=30, channel=5, data=[71, 100]),
   midi.NoteOnEvent(tick=60, channel=5, data=[71, 0]),
   midi.NoteOnEvent(tick=30, channel=5, data=[73, 100]),
   midi.PitchWheelEvent(tick=0, channel=5, data=[0, 0]),
   midi.PitchWheelEvent(tick=17, channel=5, data=[0, 0]),
   midi.PitchWheelEvent(tick=1, channel=5, data=[0, 3]),
   midi.PitchWheelEvent(tick=6, channel=5, data=[0, 23]),
   midi.PitchWheelEvent(tick=7, channel=5, data=[0, 43]),
   midi.PitchWheelEvent(tick=6, channel=5, data=[0, 64]),
   midi.PitchWheelEvent(tick=0, channel=5, data=[0, 63]),
   midi.NoteOnEvent(tick=23, channel=5, data=[73, 0]),
   midi.NoteOnEvent(tick=30, channel=5, data=[71, 100]),
   midi.NoteOnEvent(tick=60, channel=5, data=[71, 0]),
   midi.NoteOnEvent(tick=30, channel=5, data=[68, 100]),
   midi.NoteOnEvent(tick=60, channel=5, data=[68, 0]),
   midi.NoteOnEvent(tick=180, channel=5, data=[68, 100]),
   midi.NoteOnEvent(tick=60, channel=5, data=[68, 0]),
   midi.NoteOnEvent(tick=0, channel=5, data=[73, 100]),
   midi.PitchWheelEvent(tick=0, channel=5, data=[0, 0]),
   midi.PitchWheelEvent(tick=17, channel=5, data=[0, 0]),
   midi.PitchWheelEvent(tick=1, channel=5, data=[0, 3]),
   midi.PitchWheelEvent(tick=6, channel=5, data=[0, 23]),
   midi.PitchWheelEvent(tick=7, channel=5, data=[0, 43]),
   midi.PitchWheelEvent(tick=6, channel=5, data=[0, 63]),
   midi.PitchWheelEvent(tick=0, channel=5, data=[0, 64]),
   midi.NoteOnEvent(tick=23, channel=5, data=[73, 0]),
   midi.NoteOnEvent(tick=30, channel=5, data=[71, 100]),
   midi.NoteOnEvent(tick=60, channel=5, data=[71, 0]),
   midi.NoteOnEvent(tick=30, channel=5, data=[68, 100]),
   midi.NoteOnEvent(tick=60, channel=5, data=[68, 0]),
   midi.NoteOnEvent(tick=60, channel=5, data=[73, 100]),
   midi.PitchWheelEvent(tick=0, channel=5, data=[0, 0]),
   midi.PitchWheelEvent(tick=17, channel=5, data=[0, 0]),
   midi.PitchWheelEvent(tick=1, channel=5, data=[0, 3]),
   midi.PitchWheelEvent(tick=6, channel=5, data=[0, 23]),
   midi.PitchWheelEvent(tick=7, channel=5, data=[0, 43]),
   midi.PitchWheelEvent(tick=6, channel=5, data=[0, 63]),
   midi.PitchWheelEvent(tick=0, channel=5, data=[0, 64]),
   midi.NoteOnEvent(tick=23, channel=5, data=[73, 0]),
   midi.NoteOnEvent(tick=30, channel=5, data=[71, 100]),
   midi.NoteOnEvent(tick=60, channel=5, data=[71, 0]),
   midi.PitchWheelEvent(tick=30, channel=5, data=[0, 0]),
   midi.NoteOnEvent(tick=0, channel=5, data=[73, 100]),
   midi.PitchWheelEvent(tick=17, channel=5, data=[0, 0]),
   midi.PitchWheelEvent(tick=1, channel=5, data=[0, 3]),
   midi.PitchWheelEvent(tick=6, channel=5, data=[0, 23]),
   midi.PitchWheelEvent(tick=7, channel=5, data=[0, 43]),
   midi.PitchWheelEvent(tick=6, channel=5, data=[0, 64]),
   midi.PitchWheelEvent(tick=0, channel=5, data=[0, 63]),
   midi.NoteOnEvent(tick=23, channel=5, data=[73, 0]),
   midi.NoteOnEvent(tick=60, channel=5, data=[71, 100]),
   midi.NoteOnEvent(tick=60, channel=5, data=[71, 0]),
   midi.NoteOnEvent(tick=60, channel=5, data=[73, 100]),
   midi.PitchWheelEvent(tick=0, channel=5, data=[0, 64]),
   midi.PitchWheelEvent(tick=17, channel=5, data=[0, 64]),
   midi.PitchWheelEvent(tick=1, channel=5, data=[0, 67]),
   midi.PitchWheelEvent(tick=6, channel=5, data=[0, 87]),
   midi.PitchWheelEvent(tick=7, channel=5, data=[0, 107]),
   midi.PitchWheelEvent(tick=6, channel=5, data=[127, 127]),
   midi.PitchWheelEvent(tick=0, channel=5, data=[0, 127]),
   midi.ControlChangeEvent(tick=203, channel=5, data=[7, 100]),
   midi.ControlChangeEvent(tick=191, channel=5, data=[7, 99]),
   midi.ControlChangeEvent(tick=190, channel=5, data=[7, 98]),
   midi.ControlChangeEvent(tick=191, channel=5, data=[7, 97]),
   midi.ControlChangeEvent(tick=190, channel=5, data=[7, 96]),
   midi.ControlChangeEvent(tick=191, channel=5, data=[7, 95]),
   midi.ControlChangeEvent(tick=190, channel=5, data=[7, 94]),
   midi.ControlChangeEvent(tick=191, channel=5, data=[7, 93]),
   midi.ControlChangeEvent(tick=190, channel=5, data=[7, 92]),
   midi.ControlChangeEvent(tick=191, channel=5, data=[7, 91]),
   midi.ControlChangeEvent(tick=190, channel=5, data=[7, 90]),
   midi.ControlChangeEvent(tick=191, channel=5, data=[7, 89]),
   midi.ControlChangeEvent(tick=190, channel=5, data=[7, 88]),
   midi.ControlChangeEvent(tick=191, channel=5, data=[7, 87]),
   midi.ControlChangeEvent(tick=190, channel=5, data=[7, 86]),
   midi.ControlChangeEvent(tick=191, channel=5, data=[7, 85]),
   midi.ControlChangeEvent(tick=190, channel=5, data=[7, 84]),
   midi.ControlChangeEvent(tick=191, channel=5, data=[7, 83]),
   midi.ControlChangeEvent(tick=190, channel=5, data=[7, 82]),
   midi.ControlChangeEvent(tick=191, channel=5, data=[7, 81]),
   midi.ControlChangeEvent(tick=190, channel=5, data=[7, 80]),
   midi.ControlChangeEvent(tick=191, channel=5, data=[7, 79]),
   midi.ControlChangeEvent(tick=190, channel=5, data=[7, 78]),
   midi.ControlChangeEvent(tick=191, channel=5, data=[7, 77]),
   midi.ControlChangeEvent(tick=190, channel=5, data=[7, 76]),
   midi.ControlChangeEvent(tick=191, channel=5, data=[7, 75]),
   midi.ControlChangeEvent(tick=190, channel=5, data=[7, 74]),
   midi.ControlChangeEvent(tick=191, channel=5, data=[7, 73]),
   midi.ControlChangeEvent(tick=190, channel=5, data=[7, 72]),
   midi.ControlChangeEvent(tick=191, channel=5, data=[7, 71]),
   midi.ControlChangeEvent(tick=190, channel=5, data=[7, 70]),
   midi.ControlChangeEvent(tick=191, channel=5, data=[7, 69]),
   midi.ControlChangeEvent(tick=190, channel=5, data=[7, 68]),
   midi.ControlChangeEvent(tick=191, channel=5, data=[7, 67]),
   midi.ControlChangeEvent(tick=190, channel=5, data=[7, 66]),
   midi.ControlChangeEvent(tick=191, channel=5, data=[7, 65]),
   midi.ControlChangeEvent(tick=190, channel=5, data=[7, 64]),
   midi.ControlChangeEvent(tick=191, channel=5, data=[7, 63]),
   midi.ControlChangeEvent(tick=190, channel=5, data=[7, 62]),
   midi.ControlChangeEvent(tick=191, channel=5, data=[7, 61]),
   midi.PitchWheelEvent(tick=130, channel=5, data=[127, 127]),
   midi.PitchWheelEvent(tick=0, channel=5, data=[0, 127]),
   midi.PitchWheelEvent(tick=6, channel=5, data=[0, 107]),
   midi.PitchWheelEvent(tick=7, channel=5, data=[0, 87]),
   midi.PitchWheelEvent(tick=6, channel=5, data=[0, 67]),
   midi.PitchWheelEvent(tick=1, channel=5, data=[0, 64]),
   midi.PitchWheelEvent(tick=1, channel=5, data=[0, 61]),
   midi.PitchWheelEvent(tick=6, channel=5, data=[0, 41]),
   midi.PitchWheelEvent(tick=7, channel=5, data=[0, 21]),
   midi.PitchWheelEvent(tick=6, channel=5, data=[0, 0]),
   midi.NoteOnEvent(tick=20, channel=5, data=[73, 0]),
   midi.ControlChangeEvent(tick=0, channel=5, data=[7, 60]),
   midi.ControlChangeEvent(tick=30, channel=5, data=[7, 100]),
   midi.PitchWheelEvent(tick=0, channel=5, data=[0, 64]),
   midi.EndOfTrackEvent(tick=0, data=[])]),
 midi.Track(\
  [midi.TrackNameEvent(tick=0, text='Backing Vocals', data=[66, 97, 99, 107, 105, 110, 103, 32, 86, 111, 99, 97, 108, 115]),
   midi.ControlChangeEvent(tick=124, channel=6, data=[0, 121]),
   midi.ControlChangeEvent(tick=0, channel=6, data=[32, 0]),
   midi.ProgramChangeEvent(tick=0, channel=6, data=[53]),
   midi.ControlChangeEvent(tick=0, channel=6, data=[91, 64]),
   midi.ControlChangeEvent(tick=0, channel=6, data=[93, 64]),
   midi.NoteOnEvent(tick=4736, channel=6, data=[68, 100]),
   midi.NoteOnEvent(tick=0, channel=6, data=[63, 100]),
   midi.NoteOnEvent(tick=0, channel=6, data=[56, 100]),
   midi.NoteOnEvent(tick=60, channel=6, data=[56, 0]),
   midi.NoteOnEvent(tick=0, channel=6, data=[63, 0]),
   midi.NoteOnEvent(tick=0, channel=6, data=[68, 0]),
   midi.PitchWheelEvent(tick=0, channel=6, data=[0, 0]),
   midi.NoteOnEvent(tick=0, channel=6, data=[76, 100]),
   midi.NoteOnEvent(tick=0, channel=6, data=[61, 100]),
   midi.NoteOnEvent(tick=0, channel=6, data=[73, 100]),
   midi.PitchWheelEvent(tick=17, channel=6, data=[0, 0]),
   midi.PitchWheelEvent(tick=6, channel=6, data=[26, 13]),
   midi.PitchWheelEvent(tick=7, channel=6, data=[69, 26]),
   midi.PitchWheelEvent(tick=6, channel=6, data=[111, 39]),
   midi.PitchWheelEvent(tick=6, channel=6, data=[26, 53]),
   midi.PitchWheelEvent(tick=5, channel=6, data=[0, 64]),
   midi.NoteOnEvent(tick=73, channel=6, data=[73, 0]),
   midi.NoteOnEvent(tick=0, channel=6, data=[61, 0]),
   midi.NoteOnEvent(tick=0, channel=6, data=[76, 0]),
   midi.NoteOnEvent(tick=0, channel=6, data=[71, 100]),
   midi.NoteOnEvent(tick=0, channel=6, data=[75, 100]),
   midi.NoteOnEvent(tick=0, channel=6, data=[59, 100]),
   midi.NoteOnEvent(tick=120, channel=6, data=[59, 0]),
   midi.NoteOnEvent(tick=0, channel=6, data=[75, 0]),
   midi.NoteOnEvent(tick=0, channel=6, data=[71, 0]),
   midi.NoteOnEvent(tick=60, channel=6, data=[63, 100]),
   midi.NoteOnEvent(tick=0, channel=6, data=[68, 100]),
   midi.NoteOnEvent(tick=0, channel=6, data=[56, 100]),
   midi.NoteOnEvent(tick=60, channel=6, data=[56, 0]),
   midi.NoteOnEvent(tick=0, channel=6, data=[68, 0]),
   midi.NoteOnEvent(tick=0, channel=6, data=[63, 0]),
   midi.PitchWheelEvent(tick=0, channel=6, data=[0, 0]),
   midi.NoteOnEvent(tick=0, channel=6, data=[71, 100]),
   midi.NoteOnEvent(tick=0, channel=6, data=[59, 100]),
   midi.NoteOnEvent(tick=0, channel=6, data=[75, 100]),
   midi.PitchWheelEvent(tick=17, channel=6, data=[0, 0]),
   midi.PitchWheelEvent(tick=1, channel=6, data=[0, 3]),
   midi.PitchWheelEvent(tick=6, channel=6, data=[0, 23]),
   midi.PitchWheelEvent(tick=7, channel=6, data=[0, 43]),
   midi.PitchWheelEvent(tick=6, channel=6, data=[0, 63]),
   midi.PitchWheelEvent(tick=0, channel=6, data=[0, 64]),
   midi.NoteOnEvent(tick=23, channel=6, data=[75, 0]),
   midi.NoteOnEvent(tick=0, channel=6, data=[59, 0]),
   midi.NoteOnEvent(tick=0, channel=6, data=[71, 0]),
   midi.NoteOnEvent(tick=0, channel=6, data=[71, 100]),
   midi.NoteOnEvent(tick=0, channel=6, data=[56, 100]),
   midi.NoteOnEvent(tick=0, channel=6, data=[68, 100]),
   midi.NoteOnEvent(tick=60, channel=6, data=[68, 0]),
   midi.NoteOnEvent(tick=0, channel=6, data=[56, 0]),
   midi.NoteOnEvent(tick=0, channel=6, data=[71, 0]),
   midi.PitchWheelEvent(tick=0, channel=6, data=[0, 0]),
   midi.NoteOnEvent(tick=0, channel=6, data=[71, 100]),
   midi.NoteOnEvent(tick=0, channel=6, data=[68, 100]),
   midi.NoteOnEvent(tick=0, channel=6, data=[56, 100]),
   midi.PitchWheelEvent(tick=20, channel=6, data=[0, 0]),
   midi.PitchWheelEvent(tick=6, channel=6, data=[13, 9]),
   midi.PitchWheelEvent(tick=6, channel=6, data=[13, 19]),
   midi.PitchWheelEvent(tick=6, channel=6, data=[13, 29]),
   midi.PitchWheelEvent(tick=7, channel=6, data=[13, 39]),
   midi.PitchWheelEvent(tick=6, channel=6, data=[13, 49]),
   midi.PitchWheelEvent(tick=6, channel=6, data=[13, 59]),
   midi.PitchWheelEvent(tick=3, channel=6, data=[0, 64]),
   midi.NoteOnEvent(tick=40, channel=6, data=[56, 0]),
   midi.NoteOnEvent(tick=0, channel=6, data=[68, 0]),
   midi.NoteOnEvent(tick=0, channel=6, data=[71, 0]),
   midi.NoteOnEvent(tick=380, channel=6, data=[73, 100]),
   midi.NoteOnEvent(tick=0, channel=6, data=[61, 100]),
   midi.NoteOnEvent(tick=0, channel=6, data=[76, 100]),
   midi.PitchWheelEvent(tick=0, channel=6, data=[0, 0]),
   midi.PitchWheelEvent(tick=17, channel=6, data=[0, 0]),
   midi.PitchWheelEvent(tick=6, channel=6, data=[26, 13]),
   midi.PitchWheelEvent(tick=7, channel=6, data=[69, 26]),
   midi.PitchWheelEvent(tick=6, channel=6, data=[111, 39]),
   midi.PitchWheelEvent(tick=6, channel=6, data=[26, 53]),
   midi.PitchWheelEvent(tick=5, channel=6, data=[0, 64]),
   midi.NoteOnEvent(tick=73, channel=6, data=[76, 0]),
   midi.NoteOnEvent(tick=0, channel=6, data=[61, 0]),
   midi.NoteOnEvent(tick=0, channel=6, data=[73, 0]),
   midi.NoteOnEvent(tick=0, channel=6, data=[71, 100]),
   midi.NoteOnEvent(tick=0, channel=6, data=[59, 100]),
   midi.NoteOnEvent(tick=0, channel=6, data=[75, 100]),
   midi.NoteOnEvent(tick=120, channel=6, data=[75, 0]),
   midi.NoteOnEvent(tick=0, channel=6, data=[59, 0]),
   midi.NoteOnEvent(tick=0, channel=6, data=[71, 0]),
   midi.NoteOnEvent(tick=60, channel=6, data=[63, 100]),
   midi.NoteOnEvent(tick=0, channel=6, data=[68, 100]),
   midi.NoteOnEvent(tick=0, channel=6, data=[56, 100]),
   midi.NoteOnEvent(tick=60, channel=6, data=[56, 0]),
   midi.NoteOnEvent(tick=0, channel=6, data=[68, 0]),
   midi.NoteOnEvent(tick=0, channel=6, data=[63, 0]),
   midi.NoteOnEvent(tick=0, channel=6, data=[71, 100]),
   midi.NoteOnEvent(tick=0, channel=6, data=[59, 100]),
   midi.NoteOnEvent(tick=0, channel=6, data=[75, 100]),
   midi.NoteOnEvent(tick=60, channel=6, data=[75, 0]),
   midi.NoteOnEvent(tick=0, channel=6, data=[59, 0]),
   midi.NoteOnEvent(tick=0, channel=6, data=[71, 0]),
   midi.NoteOnEvent(tick=60, channel=6, data=[73, 100]),
   midi.PitchWheelEvent(tick=0, channel=6, data=[0, 0]),
   midi.NoteOnEvent(tick=0, channel=6, data=[76, 100]),
   midi.NoteOnEvent(tick=0, channel=6, data=[61, 100]),
   midi.PitchWheelEvent(tick=17, channel=6, data=[0, 0]),
   midi.PitchWheelEvent(tick=6, channel=6, data=[26, 13]),
   midi.PitchWheelEvent(tick=7, channel=6, data=[69, 26]),
   midi.PitchWheelEvent(tick=6, channel=6, data=[111, 39]),
   midi.PitchWheelEvent(tick=6, channel=6, data=[26, 53]),
   midi.PitchWheelEvent(tick=5, channel=6, data=[0, 64]),
   midi.NoteOnEvent(tick=13, channel=6, data=[61, 0]),
   midi.NoteOnEvent(tick=0, channel=6, data=[76, 0]),
   midi.NoteOnEvent(tick=0, channel=6, data=[73, 0]),
   midi.NoteOnEvent(tick=60, channel=6, data=[71, 100]),
   midi.NoteOnEvent(tick=0, channel=6, data=[59, 100]),
   midi.NoteOnEvent(tick=0, channel=6, data=[75, 100]),
   midi.NoteOnEvent(tick=60, channel=6, data=[75, 0]),
   midi.NoteOnEvent(tick=0, channel=6, data=[59, 0]),
   midi.NoteOnEvent(tick=0, channel=6, data=[71, 0]),
   midi.PitchWheelEvent(tick=60, channel=6, data=[0, 0]),
   midi.NoteOnEvent(tick=0, channel=6, data=[71, 100]),
   midi.NoteOnEvent(tick=0, channel=6, data=[68, 100]),
   midi.NoteOnEvent(tick=0, channel=6, data=[56, 100]),
   midi.PitchWheelEvent(tick=20, channel=6, data=[0, 0]),
   midi.PitchWheelEvent(tick=6, channel=6, data=[13, 9]),
   midi.PitchWheelEvent(tick=6, channel=6, data=[13, 19]),
   midi.PitchWheelEvent(tick=6, channel=6, data=[13, 29]),
   midi.PitchWheelEvent(tick=7, channel=6, data=[13, 39]),
   midi.PitchWheelEvent(tick=6, channel=6, data=[13, 49]),
   midi.PitchWheelEvent(tick=6, channel=6, data=[13, 59]),
   midi.PitchWheelEvent(tick=3, channel=6, data=[0, 64]),
   midi.NoteOnEvent(tick=40, channel=6, data=[56, 0]),
   midi.NoteOnEvent(tick=0, channel=6, data=[68, 0]),
   midi.NoteOnEvent(tick=0, channel=6, data=[71, 0]),
   midi.NoteOnEvent(tick=80, channel=6, data=[68, 100]),
   midi.NoteOnEvent(tick=0, channel=6, data=[56, 100]),
   midi.NoteOnEvent(tick=0, channel=6, data=[63, 100]),
   midi.NoteOnEvent(tick=60, channel=6, data=[63, 0]),
   midi.NoteOnEvent(tick=0, channel=6, data=[56, 0]),
   midi.NoteOnEvent(tick=0, channel=6, data=[68, 0]),
   midi.NoteOnEvent(tick=0, channel=6, data=[61, 100]),
   midi.PitchWheelEvent(tick=0, channel=6, data=[0, 0]),
   midi.NoteOnEvent(tick=0, channel=6, data=[73, 100]),
   midi.NoteOnEvent(tick=0, channel=6, data=[76, 100]),
   midi.PitchWheelEvent(tick=17, channel=6, data=[0, 0]),
   midi.PitchWheelEvent(tick=6, channel=6, data=[26, 13]),
   midi.PitchWheelEvent(tick=7, channel=6, data=[69, 26]),
   midi.PitchWheelEvent(tick=6, channel=6, data=[111, 39]),
   midi.PitchWheelEvent(tick=6, channel=6, data=[26, 53]),
   midi.PitchWheelEvent(tick=5, channel=6, data=[0, 64]),
   midi.PitchWheelEvent(tick=3, channel=6, data=[0, 64]),
   midi.PitchWheelEvent(tick=6, channel=6, data=[51, 24]),
   midi.PitchWheelEvent(tick=4, channel=6, data=[0, 0]),
   midi.PitchWheelEvent(tick=0, channel=6, data=[51, 0]),
   midi.PitchWheelEvent(tick=17, channel=6, data=[0, 0]),
   midi.PitchWheelEvent(tick=6, channel=6, data=[26, 13]),
   midi.PitchWheelEvent(tick=7, channel=6, data=[69, 26]),
   midi.PitchWheelEvent(tick=6, channel=6, data=[111, 39]),
   midi.PitchWheelEvent(tick=6, channel=6, data=[26, 53]),
   midi.PitchWheelEvent(tick=5, channel=6, data=[0, 64]),
   midi.NoteOnEvent(tick=13, channel=6, data=[76, 0]),
   midi.NoteOnEvent(tick=0, channel=6, data=[73, 0]),
   midi.NoteOnEvent(tick=0, channel=6, data=[61, 0]),
   midi.NoteOnEvent(tick=0, channel=6, data=[71, 100]),
   midi.NoteOnEvent(tick=0, channel=6, data=[75, 100]),
   midi.NoteOnEvent(tick=0, channel=6, data=[59, 100]),
   midi.NoteOnEvent(tick=120, channel=6, data=[59, 0]),
   midi.NoteOnEvent(tick=0, channel=6, data=[75, 0]),
   midi.NoteOnEvent(tick=0, channel=6, data=[71, 0]),
   midi.NoteOnEvent(tick=60, channel=6, data=[63, 100]),
   midi.NoteOnEvent(tick=0, channel=6, data=[56, 100]),
   midi.NoteOnEvent(tick=0, channel=6, data=[68, 100]),
   midi.NoteOnEvent(tick=60, channel=6, data=[68, 0]),
   midi.NoteOnEvent(tick=0, channel=6, data=[56, 0]),
   midi.NoteOnEvent(tick=0, channel=6, data=[63, 0]),
   midi.PitchWheelEvent(tick=0, channel=6, data=[0, 0]),
   midi.NoteOnEvent(tick=0, channel=6, data=[71, 100]),
   midi.NoteOnEvent(tick=0, channel=6, data=[75, 100]),
   midi.NoteOnEvent(tick=0, channel=6, data=[59, 100]),
   midi.PitchWheelEvent(tick=17, channel=6, data=[0, 0]),
   midi.PitchWheelEvent(tick=1, channel=6, data=[0, 3]),
   midi.PitchWheelEvent(tick=6, channel=6, data=[0, 23]),
   midi.PitchWheelEvent(tick=7, channel=6, data=[0, 43]),
   midi.PitchWheelEvent(tick=6, channel=6, data=[0, 63]),
   midi.PitchWheelEvent(tick=0, channel=6, data=[0, 64]),
   midi.NoteOnEvent(tick=23, channel=6, data=[59, 0]),
   midi.NoteOnEvent(tick=0, channel=6, data=[75, 0]),
   midi.NoteOnEvent(tick=0, channel=6, data=[71, 0]),
   midi.NoteOnEvent(tick=0, channel=6, data=[71, 100]),
   midi.NoteOnEvent(tick=0, channel=6, data=[68, 100]),
   midi.NoteOnEvent(tick=0, channel=6, data=[56, 100]),
   midi.NoteOnEvent(tick=60, channel=6, data=[56, 0]),
   midi.NoteOnEvent(tick=0, channel=6, data=[68, 0]),
   midi.NoteOnEvent(tick=0, channel=6, data=[71, 0]),
   midi.PitchWheelEvent(tick=0, channel=6, data=[0, 0]),
   midi.NoteOnEvent(tick=0, channel=6, data=[71, 100]),
   midi.NoteOnEvent(tick=0, channel=6, data=[68, 100]),
   midi.NoteOnEvent(tick=0, channel=6, data=[56, 100]),
   midi.PitchWheelEvent(tick=20, channel=6, data=[0, 0]),
   midi.PitchWheelEvent(tick=6, channel=6, data=[13, 9]),
   midi.PitchWheelEvent(tick=6, channel=6, data=[13, 19]),
   midi.PitchWheelEvent(tick=6, channel=6, data=[13, 29]),
   midi.PitchWheelEvent(tick=7, channel=6, data=[13, 39]),
   midi.PitchWheelEvent(tick=6, channel=6, data=[13, 49]),
   midi.PitchWheelEvent(tick=6, channel=6, data=[13, 59]),
   midi.PitchWheelEvent(tick=3, channel=6, data=[0, 64]),
   midi.NoteOnEvent(tick=40, channel=6, data=[56, 0]),
   midi.NoteOnEvent(tick=0, channel=6, data=[68, 0]),
   midi.NoteOnEvent(tick=0, channel=6, data=[71, 0]),
   midi.NoteOnEvent(tick=200, channel=6, data=[68, 100]),
   midi.NoteOnEvent(tick=0, channel=6, data=[61, 100]),
   midi.NoteOnEvent(tick=0, channel=6, data=[56, 100]),
   midi.NoteOnEvent(tick=60, channel=6, data=[56, 0]),
   midi.NoteOnEvent(tick=0, channel=6, data=[61, 0]),
   midi.NoteOnEvent(tick=0, channel=6, data=[68, 0]),
   midi.PitchWheelEvent(tick=0, channel=6, data=[0, 0]),
   midi.NoteOnEvent(tick=0, channel=6, data=[66, 100]),
   midi.NoteOnEvent(tick=0, channel=6, data=[61, 100]),
   midi.NoteOnEvent(tick=0, channel=6, data=[73, 100]),
   midi.PitchWheelEvent(tick=17, channel=6, data=[0, 0]),
   midi.PitchWheelEvent(tick=1, channel=6, data=[0, 3]),
   midi.PitchWheelEvent(tick=6, channel=6, data=[0, 23]),
   midi.PitchWheelEvent(tick=7, channel=6, data=[0, 43]),
   midi.PitchWheelEvent(tick=6, channel=6, data=[0, 64]),
   midi.PitchWheelEvent(tick=0, channel=6, data=[0, 63]),
   midi.NoteOnEvent(tick=23, channel=6, data=[73, 0]),
   midi.NoteOnEvent(tick=0, channel=6, data=[61, 0]),
   midi.NoteOnEvent(tick=0, channel=6, data=[66, 0]),
   midi.NoteOnEvent(tick=30, channel=6, data=[71, 100]),
   midi.NoteOnEvent(tick=0, channel=6, data=[63, 100]),
   midi.NoteOnEvent(tick=0, channel=6, data=[59, 100]),
   midi.NoteOnEvent(tick=60, channel=6, data=[59, 0]),
   midi.NoteOnEvent(tick=0, channel=6, data=[63, 0]),
   midi.NoteOnEvent(tick=0, channel=6, data=[71, 0]),
   midi.NoteOnEvent(tick=30, channel=6, data=[56, 100]),
   midi.NoteOnEvent(tick=0, channel=6, data=[59, 100]),
   midi.NoteOnEvent(tick=0, channel=6, data=[68, 100]),
   midi.NoteOnEvent(tick=60, channel=6, data=[68, 0]),
   midi.NoteOnEvent(tick=0, channel=6, data=[59, 0]),
   midi.NoteOnEvent(tick=0, channel=6, data=[56, 0]),
   midi.NoteOnEvent(tick=60, channel=6, data=[73, 100]),
   midi.NoteOnEvent(tick=0, channel=6, data=[66, 100]),
   midi.PitchWheelEvent(tick=0, channel=6, data=[0, 0]),
   midi.NoteOnEvent(tick=0, channel=6, data=[61, 100]),
   midi.PitchWheelEvent(tick=17, channel=6, data=[0, 0]),
   midi.PitchWheelEvent(tick=1, channel=6, data=[0, 3]),
   midi.PitchWheelEvent(tick=6, channel=6, data=[0, 23]),
   midi.PitchWheelEvent(tick=7, channel=6, data=[0, 43]),
   midi.PitchWheelEvent(tick=6, channel=6, data=[0, 64]),
   midi.PitchWheelEvent(tick=0, channel=6, data=[0, 63]),
   midi.NoteOnEvent(tick=23, channel=6, data=[61, 0]),
   midi.NoteOnEvent(tick=0, channel=6, data=[66, 0]),
   midi.NoteOnEvent(tick=0, channel=6, data=[73, 0]),
   midi.NoteOnEvent(tick=30, channel=6, data=[71, 100]),
   midi.NoteOnEvent(tick=0, channel=6, data=[59, 100]),
   midi.NoteOnEvent(tick=0, channel=6, data=[63, 100]),
   midi.NoteOnEvent(tick=60, channel=6, data=[63, 0]),
   midi.NoteOnEvent(tick=0, channel=6, data=[59, 0]),
   midi.NoteOnEvent(tick=0, channel=6, data=[71, 0]),
   midi.PitchWheelEvent(tick=30, channel=6, data=[0, 0]),
   midi.NoteOnEvent(tick=0, channel=6, data=[73, 100]),
   midi.NoteOnEvent(tick=0, channel=6, data=[61, 100]),
   midi.NoteOnEvent(tick=0, channel=6, data=[66, 100]),
   midi.PitchWheelEvent(tick=17, channel=6, data=[0, 0]),
   midi.PitchWheelEvent(tick=1, channel=6, data=[0, 3]),
   midi.PitchWheelEvent(tick=6, channel=6, data=[0, 23]),
   midi.PitchWheelEvent(tick=7, channel=6, data=[0, 43]),
   midi.PitchWheelEvent(tick=6, channel=6, data=[0, 64]),
   midi.PitchWheelEvent(tick=0, channel=6, data=[0, 63]),
   midi.NoteOnEvent(tick=23, channel=6, data=[66, 0]),
   midi.NoteOnEvent(tick=0, channel=6, data=[61, 0]),
   midi.NoteOnEvent(tick=0, channel=6, data=[73, 0]),
   midi.NoteOnEvent(tick=30, channel=6, data=[71, 100]),
   midi.NoteOnEvent(tick=0, channel=6, data=[63, 100]),
   midi.NoteOnEvent(tick=0, channel=6, data=[59, 100]),
   midi.NoteOnEvent(tick=60, channel=6, data=[59, 0]),
   midi.NoteOnEvent(tick=0, channel=6, data=[63, 0]),
   midi.NoteOnEvent(tick=0, channel=6, data=[71, 0]),
   midi.NoteOnEvent(tick=30, channel=6, data=[56, 100]),
   midi.NoteOnEvent(tick=0, channel=6, data=[68, 100]),
   midi.NoteOnEvent(tick=0, channel=6, data=[59, 100]),
   midi.NoteOnEvent(tick=60, channel=6, data=[59, 0]),
   midi.NoteOnEvent(tick=0, channel=6, data=[68, 0]),
   midi.NoteOnEvent(tick=0, channel=6, data=[56, 0]),
   midi.NoteOnEvent(tick=180, channel=6, data=[56, 100]),
   midi.NoteOnEvent(tick=0, channel=6, data=[68, 100]),
   midi.NoteOnEvent(tick=0, channel=6, data=[61, 100]),
   midi.NoteOnEvent(tick=60, channel=6, data=[61, 0]),
   midi.NoteOnEvent(tick=0, channel=6, data=[68, 0]),
   midi.NoteOnEvent(tick=0, channel=6, data=[56, 0]),
   midi.NoteOnEvent(tick=0, channel=6, data=[66, 100]),
   midi.NoteOnEvent(tick=0, channel=6, data=[61, 100]),
   midi.PitchWheelEvent(tick=0, channel=6, data=[0, 0]),
   midi.NoteOnEvent(tick=0, channel=6, data=[73, 100]),
   midi.PitchWheelEvent(tick=17, channel=6, data=[0, 0]),
   midi.PitchWheelEvent(tick=1, channel=6, data=[0, 3]),
   midi.PitchWheelEvent(tick=6, channel=6, data=[0, 23]),
   midi.PitchWheelEvent(tick=7, channel=6, data=[0, 43]),
   midi.PitchWheelEvent(tick=6, channel=6, data=[0, 64]),
   midi.PitchWheelEvent(tick=0, channel=6, data=[0, 63]),
   midi.NoteOnEvent(tick=23, channel=6, data=[73, 0]),
   midi.NoteOnEvent(tick=0, channel=6, data=[61, 0]),
   midi.NoteOnEvent(tick=0, channel=6, data=[66, 0]),
   midi.NoteOnEvent(tick=30, channel=6, data=[71, 100]),
   midi.NoteOnEvent(tick=0, channel=6, data=[63, 100]),
   midi.NoteOnEvent(tick=0, channel=6, data=[59, 100]),
   midi.NoteOnEvent(tick=60, channel=6, data=[59, 0]),
   midi.NoteOnEvent(tick=0, channel=6, data=[63, 0]),
   midi.NoteOnEvent(tick=0, channel=6, data=[71, 0]),
   midi.NoteOnEvent(tick=30, channel=6, data=[59, 100]),
   midi.NoteOnEvent(tick=0, channel=6, data=[68, 100]),
   midi.NoteOnEvent(tick=0, channel=6, data=[56, 100]),
   midi.NoteOnEvent(tick=60, channel=6, data=[56, 0]),
   midi.NoteOnEvent(tick=0, channel=6, data=[68, 0]),
   midi.NoteOnEvent(tick=0, channel=6, data=[59, 0]),
   midi.NoteOnEvent(tick=60, channel=6, data=[66, 100]),
   midi.PitchWheelEvent(tick=0, channel=6, data=[0, 0]),
   midi.NoteOnEvent(tick=0, channel=6, data=[61, 100]),
   midi.NoteOnEvent(tick=0, channel=6, data=[73, 100]),
   midi.PitchWheelEvent(tick=17, channel=6, data=[0, 0]),
   midi.PitchWheelEvent(tick=1, channel=6, data=[0, 3]),
   midi.PitchWheelEvent(tick=6, channel=6, data=[0, 23]),
   midi.PitchWheelEvent(tick=7, channel=6, data=[0, 43]),
   midi.PitchWheelEvent(tick=6, channel=6, data=[0, 63]),
   midi.PitchWheelEvent(tick=0, channel=6, data=[0, 64]),
   midi.NoteOnEvent(tick=23, channel=6, data=[73, 0]),
   midi.NoteOnEvent(tick=0, channel=6, data=[61, 0]),
   midi.NoteOnEvent(tick=0, channel=6, data=[66, 0]),
   midi.NoteOnEvent(tick=30, channel=6, data=[71, 100]),
   midi.NoteOnEvent(tick=0, channel=6, data=[59, 100]),
   midi.NoteOnEvent(tick=0, channel=6, data=[63, 100]),
   midi.NoteOnEvent(tick=60, channel=6, data=[63, 0]),
   midi.NoteOnEvent(tick=0, channel=6, data=[59, 0]),
   midi.NoteOnEvent(tick=0, channel=6, data=[71, 0]),
   midi.PitchWheelEvent(tick=30, channel=6, data=[0, 0]),
   midi.NoteOnEvent(tick=0, channel=6, data=[61, 100]),
   midi.NoteOnEvent(tick=0, channel=6, data=[66, 100]),
   midi.NoteOnEvent(tick=0, channel=6, data=[73, 100]),
   midi.PitchWheelEvent(tick=17, channel=6, data=[0, 0]),
   midi.PitchWheelEvent(tick=1, channel=6, data=[0, 3]),
   midi.PitchWheelEvent(tick=6, channel=6, data=[0, 23]),
   midi.PitchWheelEvent(tick=7, channel=6, data=[0, 43]),
   midi.PitchWheelEvent(tick=6, channel=6, data=[0, 64]),
   midi.PitchWheelEvent(tick=0, channel=6, data=[0, 63]),
   midi.NoteOnEvent(tick=23, channel=6, data=[73, 0]),
   midi.NoteOnEvent(tick=0, channel=6, data=[66, 0]),
   midi.NoteOnEvent(tick=0, channel=6, data=[61, 0]),
   midi.NoteOnEvent(tick=60, channel=6, data=[71, 100]),
   midi.NoteOnEvent(tick=0, channel=6, data=[59, 100]),
   midi.NoteOnEvent(tick=0, channel=6, data=[63, 100]),
   midi.NoteOnEvent(tick=60, channel=6, data=[63, 0]),
   midi.NoteOnEvent(tick=0, channel=6, data=[59, 0]),
   midi.NoteOnEvent(tick=0, channel=6, data=[71, 0]),
   midi.NoteOnEvent(tick=4860, channel=6, data=[59, 100]),
   midi.NoteOnEvent(tick=0, channel=6, data=[63, 100]),
   midi.NoteOnEvent(tick=60, channel=6, data=[63, 0]),
   midi.NoteOnEvent(tick=0, channel=6, data=[59, 0]),
   midi.PitchWheelEvent(tick=60, channel=6, data=[0, 0]),
   midi.NoteOnEvent(tick=0, channel=6, data=[61, 100]),
   midi.NoteOnEvent(tick=0, channel=6, data=[64, 100]),
   midi.PitchWheelEvent(tick=17, channel=6, data=[0, 0]),
   midi.PitchWheelEvent(tick=6, channel=6, data=[26, 13]),
   midi.PitchWheelEvent(tick=7, channel=6, data=[69, 26]),
   midi.PitchWheelEvent(tick=6, channel=6, data=[111, 39]),
   midi.PitchWheelEvent(tick=6, channel=6, data=[26, 53]),
   midi.PitchWheelEvent(tick=5, channel=6, data=[0, 64]),
   midi.NoteOnEvent(tick=73, channel=6, data=[64, 0]),
   midi.NoteOnEvent(tick=0, channel=6, data=[61, 0]),
   midi.NoteOnEvent(tick=0, channel=6, data=[59, 100]),
   midi.NoteOnEvent(tick=0, channel=6, data=[63, 100]),
   midi.NoteOnEvent(tick=60, channel=6, data=[63, 0]),
   midi.NoteOnEvent(tick=0, channel=6, data=[59, 0]),
   midi.NoteOnEvent(tick=660, channel=6, data=[63, 100]),
   midi.NoteOnEvent(tick=0, channel=6, data=[59, 100]),
   midi.NoteOnEvent(tick=60, channel=6, data=[59, 0]),
   midi.NoteOnEvent(tick=0, channel=6, data=[63, 0]),
   midi.NoteOnEvent(tick=60, channel=6, data=[61, 100]),
   midi.PitchWheelEvent(tick=0, channel=6, data=[0, 0]),
   midi.NoteOnEvent(tick=0, channel=6, data=[64, 100]),
   midi.PitchWheelEvent(tick=17, channel=6, data=[0, 0]),
   midi.PitchWheelEvent(tick=6, channel=6, data=[26, 13]),
   midi.PitchWheelEvent(tick=7, channel=6, data=[69, 26]),
   midi.PitchWheelEvent(tick=6, channel=6, data=[111, 39]),
   midi.PitchWheelEvent(tick=6, channel=6, data=[26, 53]),
   midi.PitchWheelEvent(tick=5, channel=6, data=[0, 64]),
   midi.NoteOnEvent(tick=43, channel=6, data=[64, 0]),
   midi.NoteOnEvent(tick=0, channel=6, data=[61, 0]),
   midi.NoteOnEvent(tick=0, channel=6, data=[59, 100]),
   midi.NoteOnEvent(tick=0, channel=6, data=[63, 100]),
   midi.NoteOnEvent(tick=60, channel=6, data=[63, 0]),
   midi.NoteOnEvent(tick=0, channel=6, data=[59, 0]),
   midi.NoteOnEvent(tick=150, channel=6, data=[63, 100]),
   midi.NoteOnEvent(tick=0, channel=6, data=[59, 100]),
   midi.NoteOnEvent(tick=60, channel=6, data=[59, 0]),
   midi.NoteOnEvent(tick=0, channel=6, data=[63, 0]),
   midi.NoteOnEvent(tick=0, channel=6, data=[63, 100]),
   midi.NoteOnEvent(tick=0, channel=6, data=[68, 100]),
   midi.PitchWheelEvent(tick=0, channel=6, data=[0, 0]),
   midi.PitchWheelEvent(tick=17, channel=6, data=[0, 0]),
   midi.PitchWheelEvent(tick=6, channel=6, data=[26, 13]),
   midi.PitchWheelEvent(tick=7, channel=6, data=[69, 26]),
   midi.PitchWheelEvent(tick=6, channel=6, data=[111, 39]),
   midi.PitchWheelEvent(tick=6, channel=6, data=[26, 53]),
   midi.PitchWheelEvent(tick=5, channel=6, data=[0, 64]),
   midi.NoteOnEvent(tick=13, channel=6, data=[68, 0]),
   midi.NoteOnEvent(tick=0, channel=6, data=[63, 0]),
   midi.NoteOnEvent(tick=0, channel=6, data=[68, 100]),
   midi.NoteOnEvent(tick=0, channel=6, data=[63, 100]),
   midi.NoteOnEvent(tick=60, channel=6, data=[63, 0]),
   midi.NoteOnEvent(tick=0, channel=6, data=[68, 0]),
   midi.NoteOnEvent(tick=0, channel=6, data=[68, 100]),
   midi.NoteOnEvent(tick=0, channel=6, data=[63, 100]),
   midi.NoteOnEvent(tick=60, channel=6, data=[63, 0]),
   midi.NoteOnEvent(tick=0, channel=6, data=[68, 0]),
   midi.NoteOnEvent(tick=0, channel=6, data=[63, 100]),
   midi.NoteOnEvent(tick=0, channel=6, data=[68, 100]),
   midi.NoteOnEvent(tick=60, channel=6, data=[68, 0]),
   midi.NoteOnEvent(tick=0, channel=6, data=[63, 0]),
   midi.NoteOnEvent(tick=0, channel=6, data=[63, 100]),
   midi.NoteOnEvent(tick=0, channel=6, data=[68, 100]),
   midi.PitchWheelEvent(tick=0, channel=6, data=[0, 0]),
   midi.PitchWheelEvent(tick=17, channel=6, data=[0, 0]),
   midi.PitchWheelEvent(tick=6, channel=6, data=[26, 13]),
   midi.PitchWheelEvent(tick=7, channel=6, data=[69, 26]),
   midi.PitchWheelEvent(tick=6, channel=6, data=[111, 39]),
   midi.PitchWheelEvent(tick=6, channel=6, data=[26, 53]),
   midi.PitchWheelEvent(tick=5, channel=6, data=[0, 64]),
   midi.NoteOnEvent(tick=73, channel=6, data=[68, 0]),
   midi.NoteOnEvent(tick=0, channel=6, data=[63, 0]),
   midi.NoteOnEvent(tick=0, channel=6, data=[59, 100]),
   midi.NoteOnEvent(tick=0, channel=6, data=[63, 100]),
   midi.NoteOnEvent(tick=60, channel=6, data=[63, 0]),
   midi.NoteOnEvent(tick=0, channel=6, data=[59, 0]),
   midi.NoteOnEvent(tick=0, channel=6, data=[64, 100]),
   midi.NoteOnEvent(tick=0, channel=6, data=[61, 100]),
   midi.NoteOnEvent(tick=60, channel=6, data=[61, 0]),
   midi.NoteOnEvent(tick=0, channel=6, data=[64, 0]),
   midi.NoteOnEvent(tick=240, channel=6, data=[71, 100]),
   midi.NoteOnEvent(tick=0, channel=6, data=[66, 100]),
   midi.NoteOnEvent(tick=60, channel=6, data=[66, 0]),
   midi.NoteOnEvent(tick=0, channel=6, data=[71, 0]),
   midi.NoteOnEvent(tick=60, channel=6, data=[63, 100]),
   midi.NoteOnEvent(tick=0, channel=6, data=[66, 100]),
   midi.NoteOnEvent(tick=60, channel=6, data=[66, 0]),
   midi.NoteOnEvent(tick=0, channel=6, data=[63, 0]),
   midi.NoteOnEvent(tick=60, channel=6, data=[59, 100]),
   midi.NoteOnEvent(tick=0, channel=6, data=[63, 100]),
   midi.NoteOnEvent(tick=60, channel=6, data=[63, 0]),
   midi.NoteOnEvent(tick=0, channel=6, data=[59, 0]),
   midi.PitchWheelEvent(tick=60, channel=6, data=[0, 0]),
   midi.NoteOnEvent(tick=0, channel=6, data=[61, 100]),
   midi.NoteOnEvent(tick=0, channel=6, data=[64, 100]),
   midi.PitchWheelEvent(tick=17, channel=6, data=[0, 0]),
   midi.PitchWheelEvent(tick=6, channel=6, data=[26, 13]),
   midi.PitchWheelEvent(tick=7, channel=6, data=[69, 26]),
   midi.PitchWheelEvent(tick=6, channel=6, data=[111, 39]),
   midi.PitchWheelEvent(tick=6, channel=6, data=[26, 53]),
   midi.PitchWheelEvent(tick=5, channel=6, data=[0, 64]),
   midi.NoteOnEvent(tick=13, channel=6, data=[64, 0]),
   midi.NoteOnEvent(tick=0, channel=6, data=[61, 0]),
   midi.NoteOnEvent(tick=60, channel=6, data=[63, 100]),
   midi.NoteOnEvent(tick=0, channel=6, data=[59, 100]),
   midi.NoteOnEvent(tick=60, channel=6, data=[59, 0]),
   midi.NoteOnEvent(tick=0, channel=6, data=[63, 0]),
   midi.NoteOnEvent(tick=420, channel=6, data=[71, 110]),
   midi.NoteOnEvent(tick=0, channel=6, data=[68, 110]),
   midi.NoteOnEvent(tick=0, channel=6, data=[63, 110]),
   midi.NoteOnEvent(tick=20, channel=6, data=[63, 0]),
   midi.NoteOnEvent(tick=0, channel=6, data=[68, 0]),
   midi.NoteOnEvent(tick=0, channel=6, data=[71, 0]),
   midi.NoteOnEvent(tick=10, channel=6, data=[71, 110]),
   midi.NoteOnEvent(tick=0, channel=6, data=[68, 110]),
   midi.NoteOnEvent(tick=0, channel=6, data=[63, 110]),
   midi.NoteOnEvent(tick=20, channel=6, data=[63, 0]),
   midi.NoteOnEvent(tick=0, channel=6, data=[68, 0]),
   midi.NoteOnEvent(tick=0, channel=6, data=[71, 0]),
   midi.NoteOnEvent(tick=10, channel=6, data=[71, 110]),
   midi.NoteOnEvent(tick=0, channel=6, data=[68, 110]),
   midi.NoteOnEvent(tick=0, channel=6, data=[63, 110]),
   midi.NoteOnEvent(tick=20, channel=6, data=[63, 0]),
   midi.NoteOnEvent(tick=0, channel=6, data=[68, 0]),
   midi.NoteOnEvent(tick=0, channel=6, data=[71, 0]),
   midi.NoteOnEvent(tick=10, channel=6, data=[71, 110]),
   midi.NoteOnEvent(tick=0, channel=6, data=[68, 110]),
   midi.NoteOnEvent(tick=0, channel=6, data=[63, 110]),
   midi.NoteOnEvent(tick=20, channel=6, data=[63, 0]),
   midi.NoteOnEvent(tick=0, channel=6, data=[68, 0]),
   midi.NoteOnEvent(tick=0, channel=6, data=[71, 0]),
   midi.NoteOnEvent(tick=70, channel=6, data=[66, 110]),
   midi.NoteOnEvent(tick=0, channel=6, data=[75, 110]),
   midi.NoteOnEvent(tick=0, channel=6, data=[71, 110]),
   midi.NoteOnEvent(tick=20, channel=6, data=[71, 0]),
   midi.NoteOnEvent(tick=0, channel=6, data=[75, 0]),
   midi.NoteOnEvent(tick=0, channel=6, data=[66, 0]),
   midi.NoteOnEvent(tick=10, channel=6, data=[66, 110]),
   midi.NoteOnEvent(tick=0, channel=6, data=[75, 110]),
   midi.NoteOnEvent(tick=0, channel=6, data=[71, 110]),
   midi.NoteOnEvent(tick=20, channel=6, data=[71, 0]),
   midi.NoteOnEvent(tick=0, channel=6, data=[75, 0]),
   midi.NoteOnEvent(tick=0, channel=6, data=[66, 0]),
   midi.NoteOnEvent(tick=10, channel=6, data=[66, 110]),
   midi.NoteOnEvent(tick=0, channel=6, data=[75, 110]),
   midi.NoteOnEvent(tick=0, channel=6, data=[71, 110]),
   midi.NoteOnEvent(tick=20, channel=6, data=[71, 0]),
   midi.NoteOnEvent(tick=0, channel=6, data=[75, 0]),
   midi.NoteOnEvent(tick=0, channel=6, data=[66, 0]),
   midi.NoteOnEvent(tick=10, channel=6, data=[66, 110]),
   midi.NoteOnEvent(tick=0, channel=6, data=[75, 110]),
   midi.NoteOnEvent(tick=0, channel=6, data=[71, 110]),
   midi.NoteOnEvent(tick=20, channel=6, data=[71, 0]),
   midi.NoteOnEvent(tick=0, channel=6, data=[75, 0]),
   midi.NoteOnEvent(tick=0, channel=6, data=[66, 0]),
   midi.NoteOnEvent(tick=70, channel=6, data=[71, 110]),
   midi.NoteOnEvent(tick=0, channel=6, data=[76, 110]),
   midi.NoteOnEvent(tick=0, channel=6, data=[73, 110]),
   midi.NoteOnEvent(tick=20, channel=6, data=[73, 0]),
   midi.NoteOnEvent(tick=0, channel=6, data=[76, 0]),
   midi.NoteOnEvent(tick=0, channel=6, data=[71, 0]),
   midi.NoteOnEvent(tick=10, channel=6, data=[76, 110]),
   midi.NoteOnEvent(tick=0, channel=6, data=[71, 110]),
   midi.NoteOnEvent(tick=0, channel=6, data=[73, 110]),
   midi.NoteOnEvent(tick=20, channel=6, data=[73, 0]),
   midi.NoteOnEvent(tick=0, channel=6, data=[71, 0]),
   midi.NoteOnEvent(tick=0, channel=6, data=[76, 0]),
   midi.NoteOnEvent(tick=10, channel=6, data=[73, 110]),
   midi.NoteOnEvent(tick=0, channel=6, data=[76, 110]),
   midi.NoteOnEvent(tick=0, channel=6, data=[71, 110]),
   midi.NoteOnEvent(tick=20, channel=6, data=[71, 0]),
   midi.NoteOnEvent(tick=0, channel=6, data=[76, 0]),
   midi.NoteOnEvent(tick=0, channel=6, data=[73, 0]),
   midi.NoteOnEvent(tick=10, channel=6, data=[76, 110]),
   midi.NoteOnEvent(tick=0, channel=6, data=[71, 110]),
   midi.NoteOnEvent(tick=0, channel=6, data=[73, 110]),
   midi.NoteOnEvent(tick=20, channel=6, data=[73, 0]),
   midi.NoteOnEvent(tick=0, channel=6, data=[71, 0]),
   midi.NoteOnEvent(tick=0, channel=6, data=[76, 0]),
   midi.NoteOnEvent(tick=1450, channel=6, data=[63, 110]),
   midi.NoteOnEvent(tick=0, channel=6, data=[68, 110]),
   midi.NoteOnEvent(tick=0, channel=6, data=[71, 110]),
   midi.NoteOnEvent(tick=20, channel=6, data=[71, 0]),
   midi.NoteOnEvent(tick=0, channel=6, data=[68, 0]),
   midi.NoteOnEvent(tick=0, channel=6, data=[63, 0]),
   midi.NoteOnEvent(tick=10, channel=6, data=[71, 110]),
   midi.NoteOnEvent(tick=0, channel=6, data=[68, 110]),
   midi.NoteOnEvent(tick=0, channel=6, data=[63, 110]),
   midi.NoteOnEvent(tick=20, channel=6, data=[63, 0]),
   midi.NoteOnEvent(tick=0, channel=6, data=[68, 0]),
   midi.NoteOnEvent(tick=0, channel=6, data=[71, 0]),
   midi.NoteOnEvent(tick=10, channel=6, data=[71, 110]),
   midi.NoteOnEvent(tick=0, channel=6, data=[63, 110]),
   midi.NoteOnEvent(tick=0, channel=6, data=[68, 110]),
   midi.NoteOnEvent(tick=20, channel=6, data=[68, 0]),
   midi.NoteOnEvent(tick=0, channel=6, data=[63, 0]),
   midi.NoteOnEvent(tick=0, channel=6, data=[71, 0]),
   midi.NoteOnEvent(tick=10, channel=6, data=[63, 110]),
   midi.NoteOnEvent(tick=0, channel=6, data=[68, 110]),
   midi.NoteOnEvent(tick=0, channel=6, data=[71, 110]),
   midi.NoteOnEvent(tick=20, channel=6, data=[71, 0]),
   midi.NoteOnEvent(tick=0, channel=6, data=[68, 0]),
   midi.NoteOnEvent(tick=0, channel=6, data=[63, 0]),
   midi.NoteOnEvent(tick=70, channel=6, data=[75, 110]),
   midi.NoteOnEvent(tick=0, channel=6, data=[71, 110]),
   midi.NoteOnEvent(tick=0, channel=6, data=[68, 110]),
   midi.NoteOnEvent(tick=20, channel=6, data=[68, 0]),
   midi.NoteOnEvent(tick=0, channel=6, data=[71, 0]),
   midi.NoteOnEvent(tick=0, channel=6, data=[75, 0]),
   midi.NoteOnEvent(tick=10, channel=6, data=[75, 110]),
   midi.NoteOnEvent(tick=0, channel=6, data=[68, 110]),
   midi.NoteOnEvent(tick=0, channel=6, data=[71, 110]),
   midi.NoteOnEvent(tick=20, channel=6, data=[71, 0]),
   midi.NoteOnEvent(tick=0, channel=6, data=[68, 0]),
   midi.NoteOnEvent(tick=0, channel=6, data=[75, 0]),
   midi.NoteOnEvent(tick=10, channel=6, data=[75, 110]),
   midi.NoteOnEvent(tick=0, channel=6, data=[71, 110]),
   midi.NoteOnEvent(tick=0, channel=6, data=[68, 110]),
   midi.NoteOnEvent(tick=20, channel=6, data=[68, 0]),
   midi.NoteOnEvent(tick=0, channel=6, data=[71, 0]),
   midi.NoteOnEvent(tick=0, channel=6, data=[75, 0]),
   midi.NoteOnEvent(tick=10, channel=6, data=[68, 110]),
   midi.NoteOnEvent(tick=0, channel=6, data=[71, 110]),
   midi.NoteOnEvent(tick=0, channel=6, data=[75, 110]),
   midi.NoteOnEvent(tick=20, channel=6, data=[75, 0]),
   midi.NoteOnEvent(tick=0, channel=6, data=[71, 0]),
   midi.NoteOnEvent(tick=0, channel=6, data=[68, 0]),
   midi.NoteOnEvent(tick=70, channel=6, data=[76, 110]),
   midi.NoteOnEvent(tick=0, channel=6, data=[71, 110]),
   midi.NoteOnEvent(tick=0, channel=6, data=[73, 110]),
   midi.NoteOnEvent(tick=20, channel=6, data=[73, 0]),
   midi.NoteOnEvent(tick=0, channel=6, data=[71, 0]),
   midi.NoteOnEvent(tick=0, channel=6, data=[76, 0]),
   midi.NoteOnEvent(tick=10, channel=6, data=[76, 110]),
   midi.NoteOnEvent(tick=0, channel=6, data=[71, 110]),
   midi.NoteOnEvent(tick=0, channel=6, data=[73, 110]),
   midi.NoteOnEvent(tick=20, channel=6, data=[73, 0]),
   midi.NoteOnEvent(tick=0, channel=6, data=[71, 0]),
   midi.NoteOnEvent(tick=0, channel=6, data=[76, 0]),
   midi.NoteOnEvent(tick=10, channel=6, data=[76, 110]),
   midi.NoteOnEvent(tick=0, channel=6, data=[73, 110]),
   midi.NoteOnEvent(tick=0, channel=6, data=[71, 110]),
   midi.NoteOnEvent(tick=20, channel=6, data=[71, 0]),
   midi.NoteOnEvent(tick=0, channel=6, data=[73, 0]),
   midi.NoteOnEvent(tick=0, channel=6, data=[76, 0]),
   midi.NoteOnEvent(tick=10, channel=6, data=[71, 110]),
   midi.NoteOnEvent(tick=0, channel=6, data=[76, 110]),
   midi.NoteOnEvent(tick=0, channel=6, data=[73, 110]),
   midi.NoteOnEvent(tick=20, channel=6, data=[73, 0]),
   midi.NoteOnEvent(tick=0, channel=6, data=[76, 0]),
   midi.NoteOnEvent(tick=0, channel=6, data=[71, 0]),
   midi.NoteOnEvent(tick=1510, channel=6, data=[68, 100]),
   midi.NoteOnEvent(tick=0, channel=6, data=[63, 100]),
   midi.NoteOnEvent(tick=0, channel=6, data=[56, 100]),
   midi.NoteOnEvent(tick=60, channel=6, data=[56, 0]),
   midi.NoteOnEvent(tick=0, channel=6, data=[63, 0]),
   midi.NoteOnEvent(tick=0, channel=6, data=[68, 0]),
   midi.PitchWheelEvent(tick=0, channel=6, data=[0, 0]),
   midi.NoteOnEvent(tick=0, channel=6, data=[76, 100]),
   midi.NoteOnEvent(tick=0, channel=6, data=[61, 100]),
   midi.NoteOnEvent(tick=0, channel=6, data=[73, 100]),
   midi.PitchWheelEvent(tick=17, channel=6, data=[0, 0]),
   midi.PitchWheelEvent(tick=6, channel=6, data=[26, 13]),
   midi.PitchWheelEvent(tick=7, channel=6, data=[69, 26]),
   midi.PitchWheelEvent(tick=6, channel=6, data=[111, 39]),
   midi.PitchWheelEvent(tick=6, channel=6, data=[26, 53]),
   midi.PitchWheelEvent(tick=5, channel=6, data=[0, 64]),
   midi.NoteOnEvent(tick=73, channel=6, data=[73, 0]),
   midi.NoteOnEvent(tick=0, channel=6, data=[61, 0]),
   midi.NoteOnEvent(tick=0, channel=6, data=[76, 0]),
   midi.NoteOnEvent(tick=0, channel=6, data=[71, 100]),
   midi.NoteOnEvent(tick=0, channel=6, data=[75, 100]),
   midi.NoteOnEvent(tick=0, channel=6, data=[59, 100]),
   midi.NoteOnEvent(tick=120, channel=6, data=[59, 0]),
   midi.NoteOnEvent(tick=0, channel=6, data=[75, 0]),
   midi.NoteOnEvent(tick=0, channel=6, data=[71, 0]),
   midi.NoteOnEvent(tick=60, channel=6, data=[63, 100]),
   midi.NoteOnEvent(tick=0, channel=6, data=[68, 100]),
   midi.NoteOnEvent(tick=0, channel=6, data=[56, 100]),
   midi.NoteOnEvent(tick=60, channel=6, data=[56, 0]),
   midi.NoteOnEvent(tick=0, channel=6, data=[68, 0]),
   midi.NoteOnEvent(tick=0, channel=6, data=[63, 0]),
   midi.PitchWheelEvent(tick=0, channel=6, data=[0, 0]),
   midi.NoteOnEvent(tick=0, channel=6, data=[71, 100]),
   midi.NoteOnEvent(tick=0, channel=6, data=[59, 100]),
   midi.NoteOnEvent(tick=0, channel=6, data=[75, 100]),
   midi.PitchWheelEvent(tick=17, channel=6, data=[0, 0]),
   midi.PitchWheelEvent(tick=1, channel=6, data=[0, 3]),
   midi.PitchWheelEvent(tick=6, channel=6, data=[0, 23]),
   midi.PitchWheelEvent(tick=7, channel=6, data=[0, 43]),
   midi.PitchWheelEvent(tick=6, channel=6, data=[0, 63]),
   midi.PitchWheelEvent(tick=0, channel=6, data=[0, 64]),
   midi.NoteOnEvent(tick=23, channel=6, data=[75, 0]),
   midi.NoteOnEvent(tick=0, channel=6, data=[59, 0]),
   midi.NoteOnEvent(tick=0, channel=6, data=[71, 0]),
   midi.NoteOnEvent(tick=0, channel=6, data=[71, 100]),
   midi.NoteOnEvent(tick=0, channel=6, data=[56, 100]),
   midi.NoteOnEvent(tick=0, channel=6, data=[68, 100]),
   midi.NoteOnEvent(tick=60, channel=6, data=[68, 0]),
   midi.NoteOnEvent(tick=0, channel=6, data=[56, 0]),
   midi.NoteOnEvent(tick=0, channel=6, data=[71, 0]),
   midi.PitchWheelEvent(tick=0, channel=6, data=[0, 0]),
   midi.NoteOnEvent(tick=0, channel=6, data=[71, 100]),
   midi.NoteOnEvent(tick=0, channel=6, data=[68, 100]),
   midi.NoteOnEvent(tick=0, channel=6, data=[56, 100]),
   midi.PitchWheelEvent(tick=20, channel=6, data=[0, 0]),
   midi.PitchWheelEvent(tick=6, channel=6, data=[13, 9]),
   midi.PitchWheelEvent(tick=6, channel=6, data=[13, 19]),
   midi.PitchWheelEvent(tick=6, channel=6, data=[13, 29]),
   midi.PitchWheelEvent(tick=7, channel=6, data=[13, 39]),
   midi.PitchWheelEvent(tick=6, channel=6, data=[13, 49]),
   midi.PitchWheelEvent(tick=6, channel=6, data=[13, 59]),
   midi.PitchWheelEvent(tick=3, channel=6, data=[0, 64]),
   midi.NoteOnEvent(tick=40, channel=6, data=[56, 0]),
   midi.NoteOnEvent(tick=0, channel=6, data=[68, 0]),
   midi.NoteOnEvent(tick=0, channel=6, data=[71, 0]),
   midi.NoteOnEvent(tick=380, channel=6, data=[73, 100]),
   midi.NoteOnEvent(tick=0, channel=6, data=[61, 100]),
   midi.NoteOnEvent(tick=0, channel=6, data=[76, 100]),
   midi.PitchWheelEvent(tick=0, channel=6, data=[0, 0]),
   midi.PitchWheelEvent(tick=17, channel=6, data=[0, 0]),
   midi.PitchWheelEvent(tick=6, channel=6, data=[26, 13]),
   midi.PitchWheelEvent(tick=7, channel=6, data=[69, 26]),
   midi.PitchWheelEvent(tick=6, channel=6, data=[111, 39]),
   midi.PitchWheelEvent(tick=6, channel=6, data=[26, 53]),
   midi.PitchWheelEvent(tick=5, channel=6, data=[0, 64]),
   midi.NoteOnEvent(tick=73, channel=6, data=[76, 0]),
   midi.NoteOnEvent(tick=0, channel=6, data=[61, 0]),
   midi.NoteOnEvent(tick=0, channel=6, data=[73, 0]),
   midi.NoteOnEvent(tick=0, channel=6, data=[71, 100]),
   midi.NoteOnEvent(tick=0, channel=6, data=[59, 100]),
   midi.NoteOnEvent(tick=0, channel=6, data=[75, 100]),
   midi.NoteOnEvent(tick=120, channel=6, data=[75, 0]),
   midi.NoteOnEvent(tick=0, channel=6, data=[59, 0]),
   midi.NoteOnEvent(tick=0, channel=6, data=[71, 0]),
   midi.NoteOnEvent(tick=60, channel=6, data=[63, 100]),
   midi.NoteOnEvent(tick=0, channel=6, data=[68, 100]),
   midi.NoteOnEvent(tick=0, channel=6, data=[56, 100]),
   midi.NoteOnEvent(tick=60, channel=6, data=[56, 0]),
   midi.NoteOnEvent(tick=0, channel=6, data=[68, 0]),
   midi.NoteOnEvent(tick=0, channel=6, data=[63, 0]),
   midi.NoteOnEvent(tick=0, channel=6, data=[71, 100]),
   midi.NoteOnEvent(tick=0, channel=6, data=[59, 100]),
   midi.NoteOnEvent(tick=0, channel=6, data=[75, 100]),
   midi.NoteOnEvent(tick=60, channel=6, data=[75, 0]),
   midi.NoteOnEvent(tick=0, channel=6, data=[59, 0]),
   midi.NoteOnEvent(tick=0, channel=6, data=[71, 0]),
   midi.NoteOnEvent(tick=60, channel=6, data=[73, 100]),
   midi.PitchWheelEvent(tick=0, channel=6, data=[0, 0]),
   midi.NoteOnEvent(tick=0, channel=6, data=[76, 100]),
   midi.NoteOnEvent(tick=0, channel=6, data=[61, 100]),
   midi.PitchWheelEvent(tick=17, channel=6, data=[0, 0]),
   midi.PitchWheelEvent(tick=6, channel=6, data=[26, 13]),
   midi.PitchWheelEvent(tick=7, channel=6, data=[69, 26]),
   midi.PitchWheelEvent(tick=6, channel=6, data=[111, 39]),
   midi.PitchWheelEvent(tick=6, channel=6, data=[26, 53]),
   midi.PitchWheelEvent(tick=5, channel=6, data=[0, 64]),
   midi.NoteOnEvent(tick=13, channel=6, data=[61, 0]),
   midi.NoteOnEvent(tick=0, channel=6, data=[76, 0]),
   midi.NoteOnEvent(tick=0, channel=6, data=[73, 0]),
   midi.NoteOnEvent(tick=60, channel=6, data=[71, 100]),
   midi.NoteOnEvent(tick=0, channel=6, data=[59, 100]),
   midi.NoteOnEvent(tick=0, channel=6, data=[75, 100]),
   midi.NoteOnEvent(tick=60, channel=6, data=[75, 0]),
   midi.NoteOnEvent(tick=0, channel=6, data=[59, 0]),
   midi.NoteOnEvent(tick=0, channel=6, data=[71, 0]),
   midi.PitchWheelEvent(tick=60, channel=6, data=[0, 0]),
   midi.NoteOnEvent(tick=0, channel=6, data=[71, 100]),
   midi.NoteOnEvent(tick=0, channel=6, data=[68, 100]),
   midi.NoteOnEvent(tick=0, channel=6, data=[56, 100]),
   midi.PitchWheelEvent(tick=20, channel=6, data=[0, 0]),
   midi.PitchWheelEvent(tick=6, channel=6, data=[13, 9]),
   midi.PitchWheelEvent(tick=6, channel=6, data=[13, 19]),
   midi.PitchWheelEvent(tick=6, channel=6, data=[13, 29]),
   midi.PitchWheelEvent(tick=7, channel=6, data=[13, 39]),
   midi.PitchWheelEvent(tick=6, channel=6, data=[13, 49]),
   midi.PitchWheelEvent(tick=6, channel=6, data=[13, 59]),
   midi.PitchWheelEvent(tick=3, channel=6, data=[0, 64]),
   midi.NoteOnEvent(tick=40, channel=6, data=[56, 0]),
   midi.NoteOnEvent(tick=0, channel=6, data=[68, 0]),
   midi.NoteOnEvent(tick=0, channel=6, data=[71, 0]),
   midi.NoteOnEvent(tick=80, channel=6, data=[68, 100]),
   midi.NoteOnEvent(tick=0, channel=6, data=[56, 100]),
   midi.NoteOnEvent(tick=0, channel=6, data=[63, 100]),
   midi.NoteOnEvent(tick=60, channel=6, data=[63, 0]),
   midi.NoteOnEvent(tick=0, channel=6, data=[56, 0]),
   midi.NoteOnEvent(tick=0, channel=6, data=[68, 0]),
   midi.NoteOnEvent(tick=0, channel=6, data=[61, 100]),
   midi.PitchWheelEvent(tick=0, channel=6, data=[0, 0]),
   midi.NoteOnEvent(tick=0, channel=6, data=[73, 100]),
   midi.NoteOnEvent(tick=0, channel=6, data=[76, 100]),
   midi.PitchWheelEvent(tick=17, channel=6, data=[0, 0]),
   midi.PitchWheelEvent(tick=6, channel=6, data=[26, 13]),
   midi.PitchWheelEvent(tick=7, channel=6, data=[69, 26]),
   midi.PitchWheelEvent(tick=6, channel=6, data=[111, 39]),
   midi.PitchWheelEvent(tick=6, channel=6, data=[26, 53]),
   midi.PitchWheelEvent(tick=5, channel=6, data=[0, 64]),
   midi.PitchWheelEvent(tick=3, channel=6, data=[0, 64]),
   midi.PitchWheelEvent(tick=6, channel=6, data=[51, 24]),
   midi.PitchWheelEvent(tick=4, channel=6, data=[0, 0]),
   midi.PitchWheelEvent(tick=0, channel=6, data=[51, 0]),
   midi.PitchWheelEvent(tick=17, channel=6, data=[0, 0]),
   midi.PitchWheelEvent(tick=6, channel=6, data=[26, 13]),
   midi.PitchWheelEvent(tick=7, channel=6, data=[69, 26]),
   midi.PitchWheelEvent(tick=6, channel=6, data=[111, 39]),
   midi.PitchWheelEvent(tick=6, channel=6, data=[26, 53]),
   midi.PitchWheelEvent(tick=5, channel=6, data=[0, 64]),
   midi.NoteOnEvent(tick=13, channel=6, data=[76, 0]),
   midi.NoteOnEvent(tick=0, channel=6, data=[73, 0]),
   midi.NoteOnEvent(tick=0, channel=6, data=[61, 0]),
   midi.NoteOnEvent(tick=0, channel=6, data=[71, 100]),
   midi.NoteOnEvent(tick=0, channel=6, data=[75, 100]),
   midi.NoteOnEvent(tick=0, channel=6, data=[59, 100]),
   midi.NoteOnEvent(tick=120, channel=6, data=[59, 0]),
   midi.NoteOnEvent(tick=0, channel=6, data=[75, 0]),
   midi.NoteOnEvent(tick=0, channel=6, data=[71, 0]),
   midi.NoteOnEvent(tick=60, channel=6, data=[63, 100]),
   midi.NoteOnEvent(tick=0, channel=6, data=[56, 100]),
   midi.NoteOnEvent(tick=0, channel=6, data=[68, 100]),
   midi.NoteOnEvent(tick=60, channel=6, data=[68, 0]),
   midi.NoteOnEvent(tick=0, channel=6, data=[56, 0]),
   midi.NoteOnEvent(tick=0, channel=6, data=[63, 0]),
   midi.PitchWheelEvent(tick=0, channel=6, data=[0, 0]),
   midi.NoteOnEvent(tick=0, channel=6, data=[71, 100]),
   midi.NoteOnEvent(tick=0, channel=6, data=[75, 100]),
   midi.NoteOnEvent(tick=0, channel=6, data=[59, 100]),
   midi.PitchWheelEvent(tick=17, channel=6, data=[0, 0]),
   midi.PitchWheelEvent(tick=1, channel=6, data=[0, 3]),
   midi.PitchWheelEvent(tick=6, channel=6, data=[0, 23]),
   midi.PitchWheelEvent(tick=7, channel=6, data=[0, 43]),
   midi.PitchWheelEvent(tick=6, channel=6, data=[0, 63]),
   midi.PitchWheelEvent(tick=0, channel=6, data=[0, 64]),
   midi.NoteOnEvent(tick=23, channel=6, data=[59, 0]),
   midi.NoteOnEvent(tick=0, channel=6, data=[75, 0]),
   midi.NoteOnEvent(tick=0, channel=6, data=[71, 0]),
   midi.NoteOnEvent(tick=0, channel=6, data=[71, 100]),
   midi.NoteOnEvent(tick=0, channel=6, data=[68, 100]),
   midi.NoteOnEvent(tick=0, channel=6, data=[56, 100]),
   midi.NoteOnEvent(tick=60, channel=6, data=[56, 0]),
   midi.NoteOnEvent(tick=0, channel=6, data=[68, 0]),
   midi.NoteOnEvent(tick=0, channel=6, data=[71, 0]),
   midi.PitchWheelEvent(tick=0, channel=6, data=[0, 0]),
   midi.NoteOnEvent(tick=0, channel=6, data=[71, 100]),
   midi.NoteOnEvent(tick=0, channel=6, data=[68, 100]),
   midi.NoteOnEvent(tick=0, channel=6, data=[56, 100]),
   midi.PitchWheelEvent(tick=20, channel=6, data=[0, 0]),
   midi.PitchWheelEvent(tick=6, channel=6, data=[13, 9]),
   midi.PitchWheelEvent(tick=6, channel=6, data=[13, 19]),
   midi.PitchWheelEvent(tick=6, channel=6, data=[13, 29]),
   midi.PitchWheelEvent(tick=7, channel=6, data=[13, 39]),
   midi.PitchWheelEvent(tick=6, channel=6, data=[13, 49]),
   midi.PitchWheelEvent(tick=6, channel=6, data=[13, 59]),
   midi.PitchWheelEvent(tick=3, channel=6, data=[0, 64]),
   midi.NoteOnEvent(tick=40, channel=6, data=[56, 0]),
   midi.NoteOnEvent(tick=0, channel=6, data=[68, 0]),
   midi.NoteOnEvent(tick=0, channel=6, data=[71, 0]),
   midi.NoteOnEvent(tick=200, channel=6, data=[68, 100]),
   midi.NoteOnEvent(tick=0, channel=6, data=[61, 100]),
   midi.NoteOnEvent(tick=0, channel=6, data=[56, 100]),
   midi.NoteOnEvent(tick=60, channel=6, data=[56, 0]),
   midi.NoteOnEvent(tick=0, channel=6, data=[61, 0]),
   midi.NoteOnEvent(tick=0, channel=6, data=[68, 0]),
   midi.PitchWheelEvent(tick=0, channel=6, data=[0, 0]),
   midi.NoteOnEvent(tick=0, channel=6, data=[66, 100]),
   midi.NoteOnEvent(tick=0, channel=6, data=[61, 100]),
   midi.NoteOnEvent(tick=0, channel=6, data=[73, 100]),
   midi.PitchWheelEvent(tick=17, channel=6, data=[0, 0]),
   midi.PitchWheelEvent(tick=1, channel=6, data=[0, 3]),
   midi.PitchWheelEvent(tick=6, channel=6, data=[0, 23]),
   midi.PitchWheelEvent(tick=7, channel=6, data=[0, 43]),
   midi.PitchWheelEvent(tick=6, channel=6, data=[0, 64]),
   midi.PitchWheelEvent(tick=0, channel=6, data=[0, 63]),
   midi.NoteOnEvent(tick=23, channel=6, data=[73, 0]),
   midi.NoteOnEvent(tick=0, channel=6, data=[61, 0]),
   midi.NoteOnEvent(tick=0, channel=6, data=[66, 0]),
   midi.NoteOnEvent(tick=30, channel=6, data=[71, 100]),
   midi.NoteOnEvent(tick=0, channel=6, data=[63, 100]),
   midi.NoteOnEvent(tick=0, channel=6, data=[59, 100]),
   midi.NoteOnEvent(tick=60, channel=6, data=[59, 0]),
   midi.NoteOnEvent(tick=0, channel=6, data=[63, 0]),
   midi.NoteOnEvent(tick=0, channel=6, data=[71, 0]),
   midi.NoteOnEvent(tick=30, channel=6, data=[56, 100]),
   midi.NoteOnEvent(tick=0, channel=6, data=[59, 100]),
   midi.NoteOnEvent(tick=0, channel=6, data=[68, 100]),
   midi.NoteOnEvent(tick=60, channel=6, data=[68, 0]),
   midi.NoteOnEvent(tick=0, channel=6, data=[59, 0]),
   midi.NoteOnEvent(tick=0, channel=6, data=[56, 0]),
   midi.NoteOnEvent(tick=60, channel=6, data=[73, 100]),
   midi.NoteOnEvent(tick=0, channel=6, data=[66, 100]),
   midi.PitchWheelEvent(tick=0, channel=6, data=[0, 0]),
   midi.NoteOnEvent(tick=0, channel=6, data=[61, 100]),
   midi.PitchWheelEvent(tick=17, channel=6, data=[0, 0]),
   midi.PitchWheelEvent(tick=1, channel=6, data=[0, 3]),
   midi.PitchWheelEvent(tick=6, channel=6, data=[0, 23]),
   midi.PitchWheelEvent(tick=7, channel=6, data=[0, 43]),
   midi.PitchWheelEvent(tick=6, channel=6, data=[0, 64]),
   midi.PitchWheelEvent(tick=0, channel=6, data=[0, 63]),
   midi.NoteOnEvent(tick=23, channel=6, data=[61, 0]),
   midi.NoteOnEvent(tick=0, channel=6, data=[66, 0]),
   midi.NoteOnEvent(tick=0, channel=6, data=[73, 0]),
   midi.NoteOnEvent(tick=30, channel=6, data=[71, 100]),
   midi.NoteOnEvent(tick=0, channel=6, data=[59, 100]),
   midi.NoteOnEvent(tick=0, channel=6, data=[63, 100]),
   midi.NoteOnEvent(tick=60, channel=6, data=[63, 0]),
   midi.NoteOnEvent(tick=0, channel=6, data=[59, 0]),
   midi.NoteOnEvent(tick=0, channel=6, data=[71, 0]),
   midi.PitchWheelEvent(tick=30, channel=6, data=[0, 0]),
   midi.NoteOnEvent(tick=0, channel=6, data=[73, 100]),
   midi.NoteOnEvent(tick=0, channel=6, data=[61, 100]),
   midi.NoteOnEvent(tick=0, channel=6, data=[66, 100]),
   midi.PitchWheelEvent(tick=17, channel=6, data=[0, 0]),
   midi.PitchWheelEvent(tick=1, channel=6, data=[0, 3]),
   midi.PitchWheelEvent(tick=6, channel=6, data=[0, 23]),
   midi.PitchWheelEvent(tick=7, channel=6, data=[0, 43]),
   midi.PitchWheelEvent(tick=6, channel=6, data=[0, 64]),
   midi.PitchWheelEvent(tick=0, channel=6, data=[0, 63]),
   midi.NoteOnEvent(tick=23, channel=6, data=[66, 0]),
   midi.NoteOnEvent(tick=0, channel=6, data=[61, 0]),
   midi.NoteOnEvent(tick=0, channel=6, data=[73, 0]),
   midi.NoteOnEvent(tick=30, channel=6, data=[71, 100]),
   midi.NoteOnEvent(tick=0, channel=6, data=[63, 100]),
   midi.NoteOnEvent(tick=0, channel=6, data=[59, 100]),
   midi.NoteOnEvent(tick=60, channel=6, data=[59, 0]),
   midi.NoteOnEvent(tick=0, channel=6, data=[63, 0]),
   midi.NoteOnEvent(tick=0, channel=6, data=[71, 0]),
   midi.NoteOnEvent(tick=30, channel=6, data=[56, 100]),
   midi.NoteOnEvent(tick=0, channel=6, data=[68, 100]),
   midi.NoteOnEvent(tick=0, channel=6, data=[59, 100]),
   midi.NoteOnEvent(tick=60, channel=6, data=[59, 0]),
   midi.NoteOnEvent(tick=0, channel=6, data=[68, 0]),
   midi.NoteOnEvent(tick=0, channel=6, data=[56, 0]),
   midi.NoteOnEvent(tick=180, channel=6, data=[56, 100]),
   midi.NoteOnEvent(tick=0, channel=6, data=[68, 100]),
   midi.NoteOnEvent(tick=0, channel=6, data=[61, 100]),
   midi.NoteOnEvent(tick=60, channel=6, data=[61, 0]),
   midi.NoteOnEvent(tick=0, channel=6, data=[68, 0]),
   midi.NoteOnEvent(tick=0, channel=6, data=[56, 0]),
   midi.NoteOnEvent(tick=0, channel=6, data=[66, 100]),
   midi.NoteOnEvent(tick=0, channel=6, data=[61, 100]),
   midi.PitchWheelEvent(tick=0, channel=6, data=[0, 0]),
   midi.NoteOnEvent(tick=0, channel=6, data=[73, 100]),
   midi.PitchWheelEvent(tick=17, channel=6, data=[0, 0]),
   midi.PitchWheelEvent(tick=1, channel=6, data=[0, 3]),
   midi.PitchWheelEvent(tick=6, channel=6, data=[0, 23]),
   midi.PitchWheelEvent(tick=7, channel=6, data=[0, 43]),
   midi.PitchWheelEvent(tick=6, channel=6, data=[0, 64]),
   midi.PitchWheelEvent(tick=0, channel=6, data=[0, 63]),
   midi.NoteOnEvent(tick=23, channel=6, data=[73, 0]),
   midi.NoteOnEvent(tick=0, channel=6, data=[61, 0]),
   midi.NoteOnEvent(tick=0, channel=6, data=[66, 0]),
   midi.NoteOnEvent(tick=30, channel=6, data=[71, 100]),
   midi.NoteOnEvent(tick=0, channel=6, data=[63, 100]),
   midi.NoteOnEvent(tick=0, channel=6, data=[59, 100]),
   midi.NoteOnEvent(tick=60, channel=6, data=[59, 0]),
   midi.NoteOnEvent(tick=0, channel=6, data=[63, 0]),
   midi.NoteOnEvent(tick=0, channel=6, data=[71, 0]),
   midi.NoteOnEvent(tick=30, channel=6, data=[59, 100]),
   midi.NoteOnEvent(tick=0, channel=6, data=[68, 100]),
   midi.NoteOnEvent(tick=0, channel=6, data=[56, 100]),
   midi.NoteOnEvent(tick=60, channel=6, data=[56, 0]),
   midi.NoteOnEvent(tick=0, channel=6, data=[68, 0]),
   midi.NoteOnEvent(tick=0, channel=6, data=[59, 0]),
   midi.NoteOnEvent(tick=60, channel=6, data=[66, 100]),
   midi.PitchWheelEvent(tick=0, channel=6, data=[0, 0]),
   midi.NoteOnEvent(tick=0, channel=6, data=[61, 100]),
   midi.NoteOnEvent(tick=0, channel=6, data=[73, 100]),
   midi.PitchWheelEvent(tick=17, channel=6, data=[0, 0]),
   midi.PitchWheelEvent(tick=1, channel=6, data=[0, 3]),
   midi.PitchWheelEvent(tick=6, channel=6, data=[0, 23]),
   midi.PitchWheelEvent(tick=7, channel=6, data=[0, 43]),
   midi.PitchWheelEvent(tick=6, channel=6, data=[0, 63]),
   midi.PitchWheelEvent(tick=0, channel=6, data=[0, 64]),
   midi.NoteOnEvent(tick=23, channel=6, data=[73, 0]),
   midi.NoteOnEvent(tick=0, channel=6, data=[61, 0]),
   midi.NoteOnEvent(tick=0, channel=6, data=[66, 0]),
   midi.NoteOnEvent(tick=30, channel=6, data=[71, 100]),
   midi.NoteOnEvent(tick=0, channel=6, data=[59, 100]),
   midi.NoteOnEvent(tick=0, channel=6, data=[63, 100]),
   midi.NoteOnEvent(tick=60, channel=6, data=[63, 0]),
   midi.NoteOnEvent(tick=0, channel=6, data=[59, 0]),
   midi.NoteOnEvent(tick=0, channel=6, data=[71, 0]),
   midi.PitchWheelEvent(tick=30, channel=6, data=[0, 0]),
   midi.NoteOnEvent(tick=0, channel=6, data=[61, 100]),
   midi.NoteOnEvent(tick=0, channel=6, data=[66, 100]),
   midi.NoteOnEvent(tick=0, channel=6, data=[73, 100]),
   midi.PitchWheelEvent(tick=17, channel=6, data=[0, 0]),
   midi.PitchWheelEvent(tick=1, channel=6, data=[0, 3]),
   midi.PitchWheelEvent(tick=6, channel=6, data=[0, 23]),
   midi.PitchWheelEvent(tick=7, channel=6, data=[0, 43]),
   midi.PitchWheelEvent(tick=6, channel=6, data=[0, 64]),
   midi.PitchWheelEvent(tick=0, channel=6, data=[0, 63]),
   midi.NoteOnEvent(tick=23, channel=6, data=[73, 0]),
   midi.NoteOnEvent(tick=0, channel=6, data=[66, 0]),
   midi.NoteOnEvent(tick=0, channel=6, data=[61, 0]),
   midi.NoteOnEvent(tick=60, channel=6, data=[71, 100]),
   midi.NoteOnEvent(tick=0, channel=6, data=[59, 100]),
   midi.NoteOnEvent(tick=0, channel=6, data=[63, 100]),
   midi.NoteOnEvent(tick=60, channel=6, data=[63, 0]),
   midi.NoteOnEvent(tick=0, channel=6, data=[59, 0]),
   midi.NoteOnEvent(tick=0, channel=6, data=[71, 0]),
   midi.NoteOnEvent(tick=4860, channel=6, data=[59, 100]),
   midi.NoteOnEvent(tick=0, channel=6, data=[63, 100]),
   midi.NoteOnEvent(tick=60, channel=6, data=[63, 0]),
   midi.NoteOnEvent(tick=0, channel=6, data=[59, 0]),
   midi.PitchWheelEvent(tick=60, channel=6, data=[0, 0]),
   midi.NoteOnEvent(tick=0, channel=6, data=[61, 100]),
   midi.NoteOnEvent(tick=0, channel=6, data=[64, 100]),
   midi.PitchWheelEvent(tick=17, channel=6, data=[0, 0]),
   midi.PitchWheelEvent(tick=6, channel=6, data=[26, 13]),
   midi.PitchWheelEvent(tick=7, channel=6, data=[69, 26]),
   midi.PitchWheelEvent(tick=6, channel=6, data=[111, 39]),
   midi.PitchWheelEvent(tick=6, channel=6, data=[26, 53]),
   midi.PitchWheelEvent(tick=5, channel=6, data=[0, 64]),
   midi.NoteOnEvent(tick=73, channel=6, data=[64, 0]),
   midi.NoteOnEvent(tick=0, channel=6, data=[61, 0]),
   midi.NoteOnEvent(tick=0, channel=6, data=[59, 100]),
   midi.NoteOnEvent(tick=0, channel=6, data=[63, 100]),
   midi.NoteOnEvent(tick=60, channel=6, data=[63, 0]),
   midi.NoteOnEvent(tick=0, channel=6, data=[59, 0]),
   midi.NoteOnEvent(tick=660, channel=6, data=[63, 100]),
   midi.NoteOnEvent(tick=0, channel=6, data=[59, 100]),
   midi.NoteOnEvent(tick=60, channel=6, data=[59, 0]),
   midi.NoteOnEvent(tick=0, channel=6, data=[63, 0]),
   midi.NoteOnEvent(tick=60, channel=6, data=[61, 100]),
   midi.PitchWheelEvent(tick=0, channel=6, data=[0, 0]),
   midi.NoteOnEvent(tick=0, channel=6, data=[64, 100]),
   midi.PitchWheelEvent(tick=17, channel=6, data=[0, 0]),
   midi.PitchWheelEvent(tick=6, channel=6, data=[26, 13]),
   midi.PitchWheelEvent(tick=7, channel=6, data=[69, 26]),
   midi.PitchWheelEvent(tick=6, channel=6, data=[111, 39]),
   midi.PitchWheelEvent(tick=6, channel=6, data=[26, 53]),
   midi.PitchWheelEvent(tick=5, channel=6, data=[0, 64]),
   midi.NoteOnEvent(tick=43, channel=6, data=[64, 0]),
   midi.NoteOnEvent(tick=0, channel=6, data=[61, 0]),
   midi.NoteOnEvent(tick=0, channel=6, data=[59, 100]),
   midi.NoteOnEvent(tick=0, channel=6, data=[63, 100]),
   midi.NoteOnEvent(tick=60, channel=6, data=[63, 0]),
   midi.NoteOnEvent(tick=0, channel=6, data=[59, 0]),
   midi.NoteOnEvent(tick=150, channel=6, data=[63, 100]),
   midi.NoteOnEvent(tick=0, channel=6, data=[59, 100]),
   midi.NoteOnEvent(tick=60, channel=6, data=[59, 0]),
   midi.NoteOnEvent(tick=0, channel=6, data=[63, 0]),
   midi.NoteOnEvent(tick=0, channel=6, data=[63, 100]),
   midi.NoteOnEvent(tick=0, channel=6, data=[68, 100]),
   midi.PitchWheelEvent(tick=0, channel=6, data=[0, 0]),
   midi.PitchWheelEvent(tick=17, channel=6, data=[0, 0]),
   midi.PitchWheelEvent(tick=6, channel=6, data=[26, 13]),
   midi.PitchWheelEvent(tick=7, channel=6, data=[69, 26]),
   midi.PitchWheelEvent(tick=6, channel=6, data=[111, 39]),
   midi.PitchWheelEvent(tick=6, channel=6, data=[26, 53]),
   midi.PitchWheelEvent(tick=5, channel=6, data=[0, 64]),
   midi.NoteOnEvent(tick=13, channel=6, data=[68, 0]),
   midi.NoteOnEvent(tick=0, channel=6, data=[63, 0]),
   midi.NoteOnEvent(tick=0, channel=6, data=[68, 100]),
   midi.NoteOnEvent(tick=0, channel=6, data=[63, 100]),
   midi.NoteOnEvent(tick=60, channel=6, data=[63, 0]),
   midi.NoteOnEvent(tick=0, channel=6, data=[68, 0]),
   midi.NoteOnEvent(tick=0, channel=6, data=[68, 100]),
   midi.NoteOnEvent(tick=0, channel=6, data=[63, 100]),
   midi.NoteOnEvent(tick=60, channel=6, data=[63, 0]),
   midi.NoteOnEvent(tick=0, channel=6, data=[68, 0]),
   midi.NoteOnEvent(tick=0, channel=6, data=[63, 100]),
   midi.NoteOnEvent(tick=0, channel=6, data=[68, 100]),
   midi.NoteOnEvent(tick=60, channel=6, data=[68, 0]),
   midi.NoteOnEvent(tick=0, channel=6, data=[63, 0]),
   midi.NoteOnEvent(tick=0, channel=6, data=[63, 100]),
   midi.NoteOnEvent(tick=0, channel=6, data=[68, 100]),
   midi.PitchWheelEvent(tick=0, channel=6, data=[0, 0]),
   midi.PitchWheelEvent(tick=17, channel=6, data=[0, 0]),
   midi.PitchWheelEvent(tick=6, channel=6, data=[26, 13]),
   midi.PitchWheelEvent(tick=7, channel=6, data=[69, 26]),
   midi.PitchWheelEvent(tick=6, channel=6, data=[111, 39]),
   midi.PitchWheelEvent(tick=6, channel=6, data=[26, 53]),
   midi.PitchWheelEvent(tick=5, channel=6, data=[0, 64]),
   midi.NoteOnEvent(tick=73, channel=6, data=[68, 0]),
   midi.NoteOnEvent(tick=0, channel=6, data=[63, 0]),
   midi.NoteOnEvent(tick=0, channel=6, data=[59, 100]),
   midi.NoteOnEvent(tick=0, channel=6, data=[63, 100]),
   midi.NoteOnEvent(tick=60, channel=6, data=[63, 0]),
   midi.NoteOnEvent(tick=0, channel=6, data=[59, 0]),
   midi.NoteOnEvent(tick=0, channel=6, data=[64, 100]),
   midi.NoteOnEvent(tick=0, channel=6, data=[61, 100]),
   midi.NoteOnEvent(tick=60, channel=6, data=[61, 0]),
   midi.NoteOnEvent(tick=0, channel=6, data=[64, 0]),
   midi.NoteOnEvent(tick=240, channel=6, data=[71, 100]),
   midi.NoteOnEvent(tick=0, channel=6, data=[66, 100]),
   midi.NoteOnEvent(tick=60, channel=6, data=[66, 0]),
   midi.NoteOnEvent(tick=0, channel=6, data=[71, 0]),
   midi.NoteOnEvent(tick=60, channel=6, data=[63, 100]),
   midi.NoteOnEvent(tick=0, channel=6, data=[66, 100]),
   midi.NoteOnEvent(tick=60, channel=6, data=[66, 0]),
   midi.NoteOnEvent(tick=0, channel=6, data=[63, 0]),
   midi.NoteOnEvent(tick=60, channel=6, data=[59, 100]),
   midi.NoteOnEvent(tick=0, channel=6, data=[63, 100]),
   midi.NoteOnEvent(tick=60, channel=6, data=[63, 0]),
   midi.NoteOnEvent(tick=0, channel=6, data=[59, 0]),
   midi.PitchWheelEvent(tick=60, channel=6, data=[0, 0]),
   midi.NoteOnEvent(tick=0, channel=6, data=[61, 100]),
   midi.NoteOnEvent(tick=0, channel=6, data=[64, 100]),
   midi.PitchWheelEvent(tick=17, channel=6, data=[0, 0]),
   midi.PitchWheelEvent(tick=6, channel=6, data=[26, 13]),
   midi.PitchWheelEvent(tick=7, channel=6, data=[69, 26]),
   midi.PitchWheelEvent(tick=6, channel=6, data=[111, 39]),
   midi.PitchWheelEvent(tick=6, channel=6, data=[26, 53]),
   midi.PitchWheelEvent(tick=5, channel=6, data=[0, 64]),
   midi.NoteOnEvent(tick=13, channel=6, data=[64, 0]),
   midi.NoteOnEvent(tick=0, channel=6, data=[61, 0]),
   midi.NoteOnEvent(tick=60, channel=6, data=[63, 100]),
   midi.NoteOnEvent(tick=0, channel=6, data=[59, 100]),
   midi.NoteOnEvent(tick=60, channel=6, data=[59, 0]),
   midi.NoteOnEvent(tick=0, channel=6, data=[63, 0]),
   midi.NoteOnEvent(tick=420, channel=6, data=[71, 110]),
   midi.NoteOnEvent(tick=0, channel=6, data=[68, 110]),
   midi.NoteOnEvent(tick=0, channel=6, data=[63, 110]),
   midi.NoteOnEvent(tick=20, channel=6, data=[63, 0]),
   midi.NoteOnEvent(tick=0, channel=6, data=[68, 0]),
   midi.NoteOnEvent(tick=0, channel=6, data=[71, 0]),
   midi.NoteOnEvent(tick=10, channel=6, data=[71, 110]),
   midi.NoteOnEvent(tick=0, channel=6, data=[68, 110]),
   midi.NoteOnEvent(tick=0, channel=6, data=[63, 110]),
   midi.NoteOnEvent(tick=20, channel=6, data=[63, 0]),
   midi.NoteOnEvent(tick=0, channel=6, data=[68, 0]),
   midi.NoteOnEvent(tick=0, channel=6, data=[71, 0]),
   midi.NoteOnEvent(tick=10, channel=6, data=[71, 110]),
   midi.NoteOnEvent(tick=0, channel=6, data=[68, 110]),
   midi.NoteOnEvent(tick=0, channel=6, data=[63, 110]),
   midi.NoteOnEvent(tick=20, channel=6, data=[63, 0]),
   midi.NoteOnEvent(tick=0, channel=6, data=[68, 0]),
   midi.NoteOnEvent(tick=0, channel=6, data=[71, 0]),
   midi.NoteOnEvent(tick=10, channel=6, data=[71, 110]),
   midi.NoteOnEvent(tick=0, channel=6, data=[68, 110]),
   midi.NoteOnEvent(tick=0, channel=6, data=[63, 110]),
   midi.NoteOnEvent(tick=20, channel=6, data=[63, 0]),
   midi.NoteOnEvent(tick=0, channel=6, data=[68, 0]),
   midi.NoteOnEvent(tick=0, channel=6, data=[71, 0]),
   midi.NoteOnEvent(tick=70, channel=6, data=[66, 110]),
   midi.NoteOnEvent(tick=0, channel=6, data=[75, 110]),
   midi.NoteOnEvent(tick=0, channel=6, data=[71, 110]),
   midi.NoteOnEvent(tick=20, channel=6, data=[71, 0]),
   midi.NoteOnEvent(tick=0, channel=6, data=[75, 0]),
   midi.NoteOnEvent(tick=0, channel=6, data=[66, 0]),
   midi.NoteOnEvent(tick=10, channel=6, data=[66, 110]),
   midi.NoteOnEvent(tick=0, channel=6, data=[75, 110]),
   midi.NoteOnEvent(tick=0, channel=6, data=[71, 110]),
   midi.NoteOnEvent(tick=20, channel=6, data=[71, 0]),
   midi.NoteOnEvent(tick=0, channel=6, data=[75, 0]),
   midi.NoteOnEvent(tick=0, channel=6, data=[66, 0]),
   midi.NoteOnEvent(tick=10, channel=6, data=[66, 110]),
   midi.NoteOnEvent(tick=0, channel=6, data=[75, 110]),
   midi.NoteOnEvent(tick=0, channel=6, data=[71, 110]),
   midi.NoteOnEvent(tick=20, channel=6, data=[71, 0]),
   midi.NoteOnEvent(tick=0, channel=6, data=[75, 0]),
   midi.NoteOnEvent(tick=0, channel=6, data=[66, 0]),
   midi.NoteOnEvent(tick=10, channel=6, data=[66, 110]),
   midi.NoteOnEvent(tick=0, channel=6, data=[75, 110]),
   midi.NoteOnEvent(tick=0, channel=6, data=[71, 110]),
   midi.NoteOnEvent(tick=20, channel=6, data=[71, 0]),
   midi.NoteOnEvent(tick=0, channel=6, data=[75, 0]),
   midi.NoteOnEvent(tick=0, channel=6, data=[66, 0]),
   midi.NoteOnEvent(tick=70, channel=6, data=[71, 110]),
   midi.NoteOnEvent(tick=0, channel=6, data=[76, 110]),
   midi.NoteOnEvent(tick=0, channel=6, data=[73, 110]),
   midi.NoteOnEvent(tick=20, channel=6, data=[73, 0]),
   midi.NoteOnEvent(tick=0, channel=6, data=[76, 0]),
   midi.NoteOnEvent(tick=0, channel=6, data=[71, 0]),
   midi.NoteOnEvent(tick=10, channel=6, data=[76, 110]),
   midi.NoteOnEvent(tick=0, channel=6, data=[71, 110]),
   midi.NoteOnEvent(tick=0, channel=6, data=[73, 110]),
   midi.NoteOnEvent(tick=20, channel=6, data=[73, 0]),
   midi.NoteOnEvent(tick=0, channel=6, data=[71, 0]),
   midi.NoteOnEvent(tick=0, channel=6, data=[76, 0]),
   midi.NoteOnEvent(tick=10, channel=6, data=[73, 110]),
   midi.NoteOnEvent(tick=0, channel=6, data=[76, 110]),
   midi.NoteOnEvent(tick=0, channel=6, data=[71, 110]),
   midi.NoteOnEvent(tick=20, channel=6, data=[71, 0]),
   midi.NoteOnEvent(tick=0, channel=6, data=[76, 0]),
   midi.NoteOnEvent(tick=0, channel=6, data=[73, 0]),
   midi.NoteOnEvent(tick=10, channel=6, data=[76, 110]),
   midi.NoteOnEvent(tick=0, channel=6, data=[71, 110]),
   midi.NoteOnEvent(tick=0, channel=6, data=[73, 110]),
   midi.NoteOnEvent(tick=20, channel=6, data=[73, 0]),
   midi.NoteOnEvent(tick=0, channel=6, data=[71, 0]),
   midi.NoteOnEvent(tick=0, channel=6, data=[76, 0]),
   midi.NoteOnEvent(tick=1450, channel=6, data=[63, 110]),
   midi.NoteOnEvent(tick=0, channel=6, data=[68, 110]),
   midi.NoteOnEvent(tick=0, channel=6, data=[71, 110]),
   midi.NoteOnEvent(tick=20, channel=6, data=[71, 0]),
   midi.NoteOnEvent(tick=0, channel=6, data=[68, 0]),
   midi.NoteOnEvent(tick=0, channel=6, data=[63, 0]),
   midi.NoteOnEvent(tick=10, channel=6, data=[71, 110]),
   midi.NoteOnEvent(tick=0, channel=6, data=[68, 110]),
   midi.NoteOnEvent(tick=0, channel=6, data=[63, 110]),
   midi.NoteOnEvent(tick=20, channel=6, data=[63, 0]),
   midi.NoteOnEvent(tick=0, channel=6, data=[68, 0]),
   midi.NoteOnEvent(tick=0, channel=6, data=[71, 0]),
   midi.NoteOnEvent(tick=10, channel=6, data=[71, 110]),
   midi.NoteOnEvent(tick=0, channel=6, data=[63, 110]),
   midi.NoteOnEvent(tick=0, channel=6, data=[68, 110]),
   midi.NoteOnEvent(tick=20, channel=6, data=[68, 0]),
   midi.NoteOnEvent(tick=0, channel=6, data=[63, 0]),
   midi.NoteOnEvent(tick=0, channel=6, data=[71, 0]),
   midi.NoteOnEvent(tick=10, channel=6, data=[63, 110]),
   midi.NoteOnEvent(tick=0, channel=6, data=[68, 110]),
   midi.NoteOnEvent(tick=0, channel=6, data=[71, 110]),
   midi.NoteOnEvent(tick=20, channel=6, data=[71, 0]),
   midi.NoteOnEvent(tick=0, channel=6, data=[68, 0]),
   midi.NoteOnEvent(tick=0, channel=6, data=[63, 0]),
   midi.NoteOnEvent(tick=70, channel=6, data=[75, 110]),
   midi.NoteOnEvent(tick=0, channel=6, data=[71, 110]),
   midi.NoteOnEvent(tick=0, channel=6, data=[68, 110]),
   midi.NoteOnEvent(tick=20, channel=6, data=[68, 0]),
   midi.NoteOnEvent(tick=0, channel=6, data=[71, 0]),
   midi.NoteOnEvent(tick=0, channel=6, data=[75, 0]),
   midi.NoteOnEvent(tick=10, channel=6, data=[75, 110]),
   midi.NoteOnEvent(tick=0, channel=6, data=[68, 110]),
   midi.NoteOnEvent(tick=0, channel=6, data=[71, 110]),
   midi.NoteOnEvent(tick=20, channel=6, data=[71, 0]),
   midi.NoteOnEvent(tick=0, channel=6, data=[68, 0]),
   midi.NoteOnEvent(tick=0, channel=6, data=[75, 0]),
   midi.NoteOnEvent(tick=10, channel=6, data=[75, 110]),
   midi.NoteOnEvent(tick=0, channel=6, data=[71, 110]),
   midi.NoteOnEvent(tick=0, channel=6, data=[68, 110]),
   midi.NoteOnEvent(tick=20, channel=6, data=[68, 0]),
   midi.NoteOnEvent(tick=0, channel=6, data=[71, 0]),
   midi.NoteOnEvent(tick=0, channel=6, data=[75, 0]),
   midi.NoteOnEvent(tick=10, channel=6, data=[68, 110]),
   midi.NoteOnEvent(tick=0, channel=6, data=[71, 110]),
   midi.NoteOnEvent(tick=0, channel=6, data=[75, 110]),
   midi.NoteOnEvent(tick=20, channel=6, data=[75, 0]),
   midi.NoteOnEvent(tick=0, channel=6, data=[71, 0]),
   midi.NoteOnEvent(tick=0, channel=6, data=[68, 0]),
   midi.NoteOnEvent(tick=70, channel=6, data=[76, 110]),
   midi.NoteOnEvent(tick=0, channel=6, data=[71, 110]),
   midi.NoteOnEvent(tick=0, channel=6, data=[73, 110]),
   midi.NoteOnEvent(tick=20, channel=6, data=[73, 0]),
   midi.NoteOnEvent(tick=0, channel=6, data=[71, 0]),
   midi.NoteOnEvent(tick=0, channel=6, data=[76, 0]),
   midi.NoteOnEvent(tick=10, channel=6, data=[76, 110]),
   midi.NoteOnEvent(tick=0, channel=6, data=[71, 110]),
   midi.NoteOnEvent(tick=0, channel=6, data=[73, 110]),
   midi.NoteOnEvent(tick=20, channel=6, data=[73, 0]),
   midi.NoteOnEvent(tick=0, channel=6, data=[71, 0]),
   midi.NoteOnEvent(tick=0, channel=6, data=[76, 0]),
   midi.NoteOnEvent(tick=10, channel=6, data=[76, 110]),
   midi.NoteOnEvent(tick=0, channel=6, data=[73, 110]),
   midi.NoteOnEvent(tick=0, channel=6, data=[71, 110]),
   midi.NoteOnEvent(tick=20, channel=6, data=[71, 0]),
   midi.NoteOnEvent(tick=0, channel=6, data=[73, 0]),
   midi.NoteOnEvent(tick=0, channel=6, data=[76, 0]),
   midi.NoteOnEvent(tick=10, channel=6, data=[71, 110]),
   midi.NoteOnEvent(tick=0, channel=6, data=[76, 110]),
   midi.NoteOnEvent(tick=0, channel=6, data=[73, 110]),
   midi.NoteOnEvent(tick=20, channel=6, data=[73, 0]),
   midi.NoteOnEvent(tick=0, channel=6, data=[76, 0]),
   midi.NoteOnEvent(tick=0, channel=6, data=[71, 0]),
   midi.NoteOnEvent(tick=1510, channel=6, data=[68, 100]),
   midi.NoteOnEvent(tick=0, channel=6, data=[63, 100]),
   midi.NoteOnEvent(tick=0, channel=6, data=[56, 100]),
   midi.NoteOnEvent(tick=60, channel=6, data=[56, 0]),
   midi.NoteOnEvent(tick=0, channel=6, data=[63, 0]),
   midi.NoteOnEvent(tick=0, channel=6, data=[68, 0]),
   midi.PitchWheelEvent(tick=0, channel=6, data=[0, 0]),
   midi.NoteOnEvent(tick=0, channel=6, data=[76, 100]),
   midi.NoteOnEvent(tick=0, channel=6, data=[61, 100]),
   midi.NoteOnEvent(tick=0, channel=6, data=[73, 100]),
   midi.PitchWheelEvent(tick=17, channel=6, data=[0, 0]),
   midi.PitchWheelEvent(tick=6, channel=6, data=[26, 13]),
   midi.PitchWheelEvent(tick=7, channel=6, data=[69, 26]),
   midi.PitchWheelEvent(tick=6, channel=6, data=[111, 39]),
   midi.PitchWheelEvent(tick=6, channel=6, data=[26, 53]),
   midi.PitchWheelEvent(tick=5, channel=6, data=[0, 64]),
   midi.NoteOnEvent(tick=73, channel=6, data=[73, 0]),
   midi.NoteOnEvent(tick=0, channel=6, data=[61, 0]),
   midi.NoteOnEvent(tick=0, channel=6, data=[76, 0]),
   midi.NoteOnEvent(tick=0, channel=6, data=[71, 100]),
   midi.NoteOnEvent(tick=0, channel=6, data=[75, 100]),
   midi.NoteOnEvent(tick=0, channel=6, data=[59, 100]),
   midi.NoteOnEvent(tick=120, channel=6, data=[59, 0]),
   midi.NoteOnEvent(tick=0, channel=6, data=[75, 0]),
   midi.NoteOnEvent(tick=0, channel=6, data=[71, 0]),
   midi.NoteOnEvent(tick=60, channel=6, data=[63, 100]),
   midi.NoteOnEvent(tick=0, channel=6, data=[68, 100]),
   midi.NoteOnEvent(tick=0, channel=6, data=[56, 100]),
   midi.NoteOnEvent(tick=60, channel=6, data=[56, 0]),
   midi.NoteOnEvent(tick=0, channel=6, data=[68, 0]),
   midi.NoteOnEvent(tick=0, channel=6, data=[63, 0]),
   midi.PitchWheelEvent(tick=0, channel=6, data=[0, 0]),
   midi.NoteOnEvent(tick=0, channel=6, data=[71, 100]),
   midi.NoteOnEvent(tick=0, channel=6, data=[59, 100]),
   midi.NoteOnEvent(tick=0, channel=6, data=[75, 100]),
   midi.PitchWheelEvent(tick=17, channel=6, data=[0, 0]),
   midi.PitchWheelEvent(tick=1, channel=6, data=[0, 3]),
   midi.PitchWheelEvent(tick=6, channel=6, data=[0, 23]),
   midi.PitchWheelEvent(tick=7, channel=6, data=[0, 43]),
   midi.PitchWheelEvent(tick=6, channel=6, data=[0, 63]),
   midi.PitchWheelEvent(tick=0, channel=6, data=[0, 64]),
   midi.NoteOnEvent(tick=23, channel=6, data=[75, 0]),
   midi.NoteOnEvent(tick=0, channel=6, data=[59, 0]),
   midi.NoteOnEvent(tick=0, channel=6, data=[71, 0]),
   midi.NoteOnEvent(tick=0, channel=6, data=[71, 100]),
   midi.NoteOnEvent(tick=0, channel=6, data=[56, 100]),
   midi.NoteOnEvent(tick=0, channel=6, data=[68, 100]),
   midi.NoteOnEvent(tick=60, channel=6, data=[68, 0]),
   midi.NoteOnEvent(tick=0, channel=6, data=[56, 0]),
   midi.NoteOnEvent(tick=0, channel=6, data=[71, 0]),
   midi.PitchWheelEvent(tick=0, channel=6, data=[0, 0]),
   midi.NoteOnEvent(tick=0, channel=6, data=[71, 100]),
   midi.NoteOnEvent(tick=0, channel=6, data=[68, 100]),
   midi.NoteOnEvent(tick=0, channel=6, data=[56, 100]),
   midi.PitchWheelEvent(tick=20, channel=6, data=[0, 0]),
   midi.PitchWheelEvent(tick=6, channel=6, data=[13, 9]),
   midi.PitchWheelEvent(tick=6, channel=6, data=[13, 19]),
   midi.PitchWheelEvent(tick=6, channel=6, data=[13, 29]),
   midi.PitchWheelEvent(tick=7, channel=6, data=[13, 39]),
   midi.PitchWheelEvent(tick=6, channel=6, data=[13, 49]),
   midi.PitchWheelEvent(tick=6, channel=6, data=[13, 59]),
   midi.PitchWheelEvent(tick=3, channel=6, data=[0, 64]),
   midi.NoteOnEvent(tick=40, channel=6, data=[56, 0]),
   midi.NoteOnEvent(tick=0, channel=6, data=[68, 0]),
   midi.NoteOnEvent(tick=0, channel=6, data=[71, 0]),
   midi.NoteOnEvent(tick=380, channel=6, data=[73, 100]),
   midi.NoteOnEvent(tick=0, channel=6, data=[61, 100]),
   midi.NoteOnEvent(tick=0, channel=6, data=[76, 100]),
   midi.PitchWheelEvent(tick=0, channel=6, data=[0, 0]),
   midi.PitchWheelEvent(tick=17, channel=6, data=[0, 0]),
   midi.PitchWheelEvent(tick=6, channel=6, data=[26, 13]),
   midi.PitchWheelEvent(tick=7, channel=6, data=[69, 26]),
   midi.PitchWheelEvent(tick=6, channel=6, data=[111, 39]),
   midi.PitchWheelEvent(tick=6, channel=6, data=[26, 53]),
   midi.PitchWheelEvent(tick=5, channel=6, data=[0, 64]),
   midi.NoteOnEvent(tick=73, channel=6, data=[76, 0]),
   midi.NoteOnEvent(tick=0, channel=6, data=[61, 0]),
   midi.NoteOnEvent(tick=0, channel=6, data=[73, 0]),
   midi.NoteOnEvent(tick=0, channel=6, data=[71, 100]),
   midi.NoteOnEvent(tick=0, channel=6, data=[59, 100]),
   midi.NoteOnEvent(tick=0, channel=6, data=[75, 100]),
   midi.NoteOnEvent(tick=120, channel=6, data=[75, 0]),
   midi.NoteOnEvent(tick=0, channel=6, data=[59, 0]),
   midi.NoteOnEvent(tick=0, channel=6, data=[71, 0]),
   midi.NoteOnEvent(tick=60, channel=6, data=[63, 100]),
   midi.NoteOnEvent(tick=0, channel=6, data=[68, 100]),
   midi.NoteOnEvent(tick=0, channel=6, data=[56, 100]),
   midi.NoteOnEvent(tick=60, channel=6, data=[56, 0]),
   midi.NoteOnEvent(tick=0, channel=6, data=[68, 0]),
   midi.NoteOnEvent(tick=0, channel=6, data=[63, 0]),
   midi.NoteOnEvent(tick=0, channel=6, data=[71, 100]),
   midi.NoteOnEvent(tick=0, channel=6, data=[59, 100]),
   midi.NoteOnEvent(tick=0, channel=6, data=[75, 100]),
   midi.NoteOnEvent(tick=60, channel=6, data=[75, 0]),
   midi.NoteOnEvent(tick=0, channel=6, data=[59, 0]),
   midi.NoteOnEvent(tick=0, channel=6, data=[71, 0]),
   midi.NoteOnEvent(tick=60, channel=6, data=[73, 100]),
   midi.PitchWheelEvent(tick=0, channel=6, data=[0, 0]),
   midi.NoteOnEvent(tick=0, channel=6, data=[76, 100]),
   midi.NoteOnEvent(tick=0, channel=6, data=[61, 100]),
   midi.PitchWheelEvent(tick=17, channel=6, data=[0, 0]),
   midi.PitchWheelEvent(tick=6, channel=6, data=[26, 13]),
   midi.PitchWheelEvent(tick=7, channel=6, data=[69, 26]),
   midi.PitchWheelEvent(tick=6, channel=6, data=[111, 39]),
   midi.PitchWheelEvent(tick=6, channel=6, data=[26, 53]),
   midi.PitchWheelEvent(tick=5, channel=6, data=[0, 64]),
   midi.NoteOnEvent(tick=13, channel=6, data=[61, 0]),
   midi.NoteOnEvent(tick=0, channel=6, data=[76, 0]),
   midi.NoteOnEvent(tick=0, channel=6, data=[73, 0]),
   midi.NoteOnEvent(tick=60, channel=6, data=[71, 100]),
   midi.NoteOnEvent(tick=0, channel=6, data=[59, 100]),
   midi.NoteOnEvent(tick=0, channel=6, data=[75, 100]),
   midi.NoteOnEvent(tick=60, channel=6, data=[75, 0]),
   midi.NoteOnEvent(tick=0, channel=6, data=[59, 0]),
   midi.NoteOnEvent(tick=0, channel=6, data=[71, 0]),
   midi.PitchWheelEvent(tick=60, channel=6, data=[0, 0]),
   midi.NoteOnEvent(tick=0, channel=6, data=[71, 100]),
   midi.NoteOnEvent(tick=0, channel=6, data=[68, 100]),
   midi.NoteOnEvent(tick=0, channel=6, data=[56, 100]),
   midi.PitchWheelEvent(tick=20, channel=6, data=[0, 0]),
   midi.PitchWheelEvent(tick=6, channel=6, data=[13, 9]),
   midi.PitchWheelEvent(tick=6, channel=6, data=[13, 19]),
   midi.PitchWheelEvent(tick=6, channel=6, data=[13, 29]),
   midi.PitchWheelEvent(tick=7, channel=6, data=[13, 39]),
   midi.PitchWheelEvent(tick=6, channel=6, data=[13, 49]),
   midi.PitchWheelEvent(tick=6, channel=6, data=[13, 59]),
   midi.PitchWheelEvent(tick=3, channel=6, data=[0, 64]),
   midi.NoteOnEvent(tick=40, channel=6, data=[56, 0]),
   midi.NoteOnEvent(tick=0, channel=6, data=[68, 0]),
   midi.NoteOnEvent(tick=0, channel=6, data=[71, 0]),
   midi.NoteOnEvent(tick=80, channel=6, data=[68, 100]),
   midi.NoteOnEvent(tick=0, channel=6, data=[56, 100]),
   midi.NoteOnEvent(tick=0, channel=6, data=[63, 100]),
   midi.NoteOnEvent(tick=60, channel=6, data=[63, 0]),
   midi.NoteOnEvent(tick=0, channel=6, data=[56, 0]),
   midi.NoteOnEvent(tick=0, channel=6, data=[68, 0]),
   midi.NoteOnEvent(tick=0, channel=6, data=[61, 100]),
   midi.PitchWheelEvent(tick=0, channel=6, data=[0, 0]),
   midi.NoteOnEvent(tick=0, channel=6, data=[73, 100]),
   midi.NoteOnEvent(tick=0, channel=6, data=[76, 100]),
   midi.PitchWheelEvent(tick=17, channel=6, data=[0, 0]),
   midi.PitchWheelEvent(tick=6, channel=6, data=[26, 13]),
   midi.PitchWheelEvent(tick=7, channel=6, data=[69, 26]),
   midi.PitchWheelEvent(tick=6, channel=6, data=[111, 39]),
   midi.PitchWheelEvent(tick=6, channel=6, data=[26, 53]),
   midi.PitchWheelEvent(tick=5, channel=6, data=[0, 64]),
   midi.PitchWheelEvent(tick=3, channel=6, data=[0, 64]),
   midi.PitchWheelEvent(tick=6, channel=6, data=[51, 24]),
   midi.PitchWheelEvent(tick=4, channel=6, data=[0, 0]),
   midi.PitchWheelEvent(tick=0, channel=6, data=[51, 0]),
   midi.PitchWheelEvent(tick=17, channel=6, data=[0, 0]),
   midi.PitchWheelEvent(tick=6, channel=6, data=[26, 13]),
   midi.PitchWheelEvent(tick=7, channel=6, data=[69, 26]),
   midi.PitchWheelEvent(tick=6, channel=6, data=[111, 39]),
   midi.PitchWheelEvent(tick=6, channel=6, data=[26, 53]),
   midi.PitchWheelEvent(tick=5, channel=6, data=[0, 64]),
   midi.NoteOnEvent(tick=13, channel=6, data=[76, 0]),
   midi.NoteOnEvent(tick=0, channel=6, data=[73, 0]),
   midi.NoteOnEvent(tick=0, channel=6, data=[61, 0]),
   midi.NoteOnEvent(tick=0, channel=6, data=[71, 100]),
   midi.NoteOnEvent(tick=0, channel=6, data=[75, 100]),
   midi.NoteOnEvent(tick=0, channel=6, data=[59, 100]),
   midi.NoteOnEvent(tick=120, channel=6, data=[59, 0]),
   midi.NoteOnEvent(tick=0, channel=6, data=[75, 0]),
   midi.NoteOnEvent(tick=0, channel=6, data=[71, 0]),
   midi.NoteOnEvent(tick=60, channel=6, data=[63, 100]),
   midi.NoteOnEvent(tick=0, channel=6, data=[56, 100]),
   midi.NoteOnEvent(tick=0, channel=6, data=[68, 100]),
   midi.NoteOnEvent(tick=60, channel=6, data=[68, 0]),
   midi.NoteOnEvent(tick=0, channel=6, data=[56, 0]),
   midi.NoteOnEvent(tick=0, channel=6, data=[63, 0]),
   midi.PitchWheelEvent(tick=0, channel=6, data=[0, 0]),
   midi.NoteOnEvent(tick=0, channel=6, data=[71, 100]),
   midi.NoteOnEvent(tick=0, channel=6, data=[75, 100]),
   midi.NoteOnEvent(tick=0, channel=6, data=[59, 100]),
   midi.PitchWheelEvent(tick=17, channel=6, data=[0, 0]),
   midi.PitchWheelEvent(tick=1, channel=6, data=[0, 3]),
   midi.PitchWheelEvent(tick=6, channel=6, data=[0, 23]),
   midi.PitchWheelEvent(tick=7, channel=6, data=[0, 43]),
   midi.PitchWheelEvent(tick=6, channel=6, data=[0, 63]),
   midi.PitchWheelEvent(tick=0, channel=6, data=[0, 64]),
   midi.NoteOnEvent(tick=23, channel=6, data=[59, 0]),
   midi.NoteOnEvent(tick=0, channel=6, data=[75, 0]),
   midi.NoteOnEvent(tick=0, channel=6, data=[71, 0]),
   midi.NoteOnEvent(tick=0, channel=6, data=[71, 100]),
   midi.NoteOnEvent(tick=0, channel=6, data=[68, 100]),
   midi.NoteOnEvent(tick=0, channel=6, data=[56, 100]),
   midi.NoteOnEvent(tick=60, channel=6, data=[56, 0]),
   midi.NoteOnEvent(tick=0, channel=6, data=[68, 0]),
   midi.NoteOnEvent(tick=0, channel=6, data=[71, 0]),
   midi.PitchWheelEvent(tick=0, channel=6, data=[0, 0]),
   midi.NoteOnEvent(tick=0, channel=6, data=[71, 100]),
   midi.NoteOnEvent(tick=0, channel=6, data=[68, 100]),
   midi.NoteOnEvent(tick=0, channel=6, data=[56, 100]),
   midi.PitchWheelEvent(tick=20, channel=6, data=[0, 0]),
   midi.PitchWheelEvent(tick=6, channel=6, data=[13, 9]),
   midi.PitchWheelEvent(tick=6, channel=6, data=[13, 19]),
   midi.PitchWheelEvent(tick=6, channel=6, data=[13, 29]),
   midi.PitchWheelEvent(tick=7, channel=6, data=[13, 39]),
   midi.PitchWheelEvent(tick=6, channel=6, data=[13, 49]),
   midi.PitchWheelEvent(tick=6, channel=6, data=[13, 59]),
   midi.PitchWheelEvent(tick=3, channel=6, data=[0, 64]),
   midi.NoteOnEvent(tick=40, channel=6, data=[56, 0]),
   midi.NoteOnEvent(tick=0, channel=6, data=[68, 0]),
   midi.NoteOnEvent(tick=0, channel=6, data=[71, 0]),
   midi.NoteOnEvent(tick=200, channel=6, data=[68, 100]),
   midi.NoteOnEvent(tick=0, channel=6, data=[61, 100]),
   midi.NoteOnEvent(tick=0, channel=6, data=[56, 100]),
   midi.NoteOnEvent(tick=60, channel=6, data=[56, 0]),
   midi.NoteOnEvent(tick=0, channel=6, data=[61, 0]),
   midi.NoteOnEvent(tick=0, channel=6, data=[68, 0]),
   midi.PitchWheelEvent(tick=0, channel=6, data=[0, 0]),
   midi.NoteOnEvent(tick=0, channel=6, data=[66, 100]),
   midi.NoteOnEvent(tick=0, channel=6, data=[61, 100]),
   midi.NoteOnEvent(tick=0, channel=6, data=[73, 100]),
   midi.PitchWheelEvent(tick=17, channel=6, data=[0, 0]),
   midi.PitchWheelEvent(tick=1, channel=6, data=[0, 3]),
   midi.PitchWheelEvent(tick=6, channel=6, data=[0, 23]),
   midi.PitchWheelEvent(tick=7, channel=6, data=[0, 43]),
   midi.PitchWheelEvent(tick=6, channel=6, data=[0, 64]),
   midi.PitchWheelEvent(tick=0, channel=6, data=[0, 63]),
   midi.NoteOnEvent(tick=23, channel=6, data=[73, 0]),
   midi.NoteOnEvent(tick=0, channel=6, data=[61, 0]),
   midi.NoteOnEvent(tick=0, channel=6, data=[66, 0]),
   midi.NoteOnEvent(tick=30, channel=6, data=[71, 100]),
   midi.NoteOnEvent(tick=0, channel=6, data=[63, 100]),
   midi.NoteOnEvent(tick=0, channel=6, data=[59, 100]),
   midi.NoteOnEvent(tick=60, channel=6, data=[59, 0]),
   midi.NoteOnEvent(tick=0, channel=6, data=[63, 0]),
   midi.NoteOnEvent(tick=0, channel=6, data=[71, 0]),
   midi.NoteOnEvent(tick=30, channel=6, data=[56, 100]),
   midi.NoteOnEvent(tick=0, channel=6, data=[59, 100]),
   midi.NoteOnEvent(tick=0, channel=6, data=[68, 100]),
   midi.NoteOnEvent(tick=60, channel=6, data=[68, 0]),
   midi.NoteOnEvent(tick=0, channel=6, data=[59, 0]),
   midi.NoteOnEvent(tick=0, channel=6, data=[56, 0]),
   midi.NoteOnEvent(tick=60, channel=6, data=[73, 100]),
   midi.NoteOnEvent(tick=0, channel=6, data=[66, 100]),
   midi.PitchWheelEvent(tick=0, channel=6, data=[0, 0]),
   midi.NoteOnEvent(tick=0, channel=6, data=[61, 100]),
   midi.PitchWheelEvent(tick=17, channel=6, data=[0, 0]),
   midi.PitchWheelEvent(tick=1, channel=6, data=[0, 3]),
   midi.PitchWheelEvent(tick=6, channel=6, data=[0, 23]),
   midi.PitchWheelEvent(tick=7, channel=6, data=[0, 43]),
   midi.PitchWheelEvent(tick=6, channel=6, data=[0, 64]),
   midi.PitchWheelEvent(tick=0, channel=6, data=[0, 63]),
   midi.NoteOnEvent(tick=23, channel=6, data=[61, 0]),
   midi.NoteOnEvent(tick=0, channel=6, data=[66, 0]),
   midi.NoteOnEvent(tick=0, channel=6, data=[73, 0]),
   midi.NoteOnEvent(tick=30, channel=6, data=[71, 100]),
   midi.NoteOnEvent(tick=0, channel=6, data=[59, 100]),
   midi.NoteOnEvent(tick=0, channel=6, data=[63, 100]),
   midi.NoteOnEvent(tick=60, channel=6, data=[63, 0]),
   midi.NoteOnEvent(tick=0, channel=6, data=[59, 0]),
   midi.NoteOnEvent(tick=0, channel=6, data=[71, 0]),
   midi.PitchWheelEvent(tick=30, channel=6, data=[0, 0]),
   midi.NoteOnEvent(tick=0, channel=6, data=[73, 100]),
   midi.NoteOnEvent(tick=0, channel=6, data=[61, 100]),
   midi.NoteOnEvent(tick=0, channel=6, data=[66, 100]),
   midi.PitchWheelEvent(tick=17, channel=6, data=[0, 0]),
   midi.PitchWheelEvent(tick=1, channel=6, data=[0, 3]),
   midi.PitchWheelEvent(tick=6, channel=6, data=[0, 23]),
   midi.PitchWheelEvent(tick=7, channel=6, data=[0, 43]),
   midi.PitchWheelEvent(tick=6, channel=6, data=[0, 64]),
   midi.PitchWheelEvent(tick=0, channel=6, data=[0, 63]),
   midi.NoteOnEvent(tick=23, channel=6, data=[66, 0]),
   midi.NoteOnEvent(tick=0, channel=6, data=[61, 0]),
   midi.NoteOnEvent(tick=0, channel=6, data=[73, 0]),
   midi.NoteOnEvent(tick=30, channel=6, data=[71, 100]),
   midi.NoteOnEvent(tick=0, channel=6, data=[63, 100]),
   midi.NoteOnEvent(tick=0, channel=6, data=[59, 100]),
   midi.NoteOnEvent(tick=60, channel=6, data=[59, 0]),
   midi.NoteOnEvent(tick=0, channel=6, data=[63, 0]),
   midi.NoteOnEvent(tick=0, channel=6, data=[71, 0]),
   midi.NoteOnEvent(tick=30, channel=6, data=[56, 100]),
   midi.NoteOnEvent(tick=0, channel=6, data=[68, 100]),
   midi.NoteOnEvent(tick=0, channel=6, data=[59, 100]),
   midi.NoteOnEvent(tick=60, channel=6, data=[59, 0]),
   midi.NoteOnEvent(tick=0, channel=6, data=[68, 0]),
   midi.NoteOnEvent(tick=0, channel=6, data=[56, 0]),
   midi.NoteOnEvent(tick=180, channel=6, data=[56, 100]),
   midi.NoteOnEvent(tick=0, channel=6, data=[68, 100]),
   midi.NoteOnEvent(tick=0, channel=6, data=[61, 100]),
   midi.NoteOnEvent(tick=60, channel=6, data=[61, 0]),
   midi.NoteOnEvent(tick=0, channel=6, data=[68, 0]),
   midi.NoteOnEvent(tick=0, channel=6, data=[56, 0]),
   midi.NoteOnEvent(tick=0, channel=6, data=[66, 100]),
   midi.NoteOnEvent(tick=0, channel=6, data=[61, 100]),
   midi.PitchWheelEvent(tick=0, channel=6, data=[0, 0]),
   midi.NoteOnEvent(tick=0, channel=6, data=[73, 100]),
   midi.PitchWheelEvent(tick=17, channel=6, data=[0, 0]),
   midi.PitchWheelEvent(tick=1, channel=6, data=[0, 3]),
   midi.PitchWheelEvent(tick=6, channel=6, data=[0, 23]),
   midi.PitchWheelEvent(tick=7, channel=6, data=[0, 43]),
   midi.PitchWheelEvent(tick=6, channel=6, data=[0, 64]),
   midi.PitchWheelEvent(tick=0, channel=6, data=[0, 63]),
   midi.NoteOnEvent(tick=23, channel=6, data=[73, 0]),
   midi.NoteOnEvent(tick=0, channel=6, data=[61, 0]),
   midi.NoteOnEvent(tick=0, channel=6, data=[66, 0]),
   midi.NoteOnEvent(tick=30, channel=6, data=[71, 100]),
   midi.NoteOnEvent(tick=0, channel=6, data=[63, 100]),
   midi.NoteOnEvent(tick=0, channel=6, data=[59, 100]),
   midi.NoteOnEvent(tick=60, channel=6, data=[59, 0]),
   midi.NoteOnEvent(tick=0, channel=6, data=[63, 0]),
   midi.NoteOnEvent(tick=0, channel=6, data=[71, 0]),
   midi.NoteOnEvent(tick=30, channel=6, data=[59, 100]),
   midi.NoteOnEvent(tick=0, channel=6, data=[68, 100]),
   midi.NoteOnEvent(tick=0, channel=6, data=[56, 100]),
   midi.NoteOnEvent(tick=60, channel=6, data=[56, 0]),
   midi.NoteOnEvent(tick=0, channel=6, data=[68, 0]),
   midi.NoteOnEvent(tick=0, channel=6, data=[59, 0]),
   midi.NoteOnEvent(tick=60, channel=6, data=[66, 100]),
   midi.PitchWheelEvent(tick=0, channel=6, data=[0, 0]),
   midi.NoteOnEvent(tick=0, channel=6, data=[61, 100]),
   midi.NoteOnEvent(tick=0, channel=6, data=[73, 100]),
   midi.PitchWheelEvent(tick=17, channel=6, data=[0, 0]),
   midi.PitchWheelEvent(tick=1, channel=6, data=[0, 3]),
   midi.PitchWheelEvent(tick=6, channel=6, data=[0, 23]),
   midi.PitchWheelEvent(tick=7, channel=6, data=[0, 43]),
   midi.PitchWheelEvent(tick=6, channel=6, data=[0, 63]),
   midi.PitchWheelEvent(tick=0, channel=6, data=[0, 64]),
   midi.NoteOnEvent(tick=23, channel=6, data=[73, 0]),
   midi.NoteOnEvent(tick=0, channel=6, data=[61, 0]),
   midi.NoteOnEvent(tick=0, channel=6, data=[66, 0]),
   midi.NoteOnEvent(tick=30, channel=6, data=[71, 100]),
   midi.NoteOnEvent(tick=0, channel=6, data=[59, 100]),
   midi.NoteOnEvent(tick=0, channel=6, data=[63, 100]),
   midi.NoteOnEvent(tick=60, channel=6, data=[63, 0]),
   midi.NoteOnEvent(tick=0, channel=6, data=[59, 0]),
   midi.NoteOnEvent(tick=0, channel=6, data=[71, 0]),
   midi.PitchWheelEvent(tick=30, channel=6, data=[0, 0]),
   midi.NoteOnEvent(tick=0, channel=6, data=[61, 100]),
   midi.NoteOnEvent(tick=0, channel=6, data=[66, 100]),
   midi.NoteOnEvent(tick=0, channel=6, data=[73, 100]),
   midi.PitchWheelEvent(tick=17, channel=6, data=[0, 0]),
   midi.PitchWheelEvent(tick=1, channel=6, data=[0, 3]),
   midi.PitchWheelEvent(tick=6, channel=6, data=[0, 23]),
   midi.PitchWheelEvent(tick=7, channel=6, data=[0, 43]),
   midi.PitchWheelEvent(tick=6, channel=6, data=[0, 64]),
   midi.PitchWheelEvent(tick=0, channel=6, data=[0, 63]),
   midi.NoteOnEvent(tick=23, channel=6, data=[73, 0]),
   midi.NoteOnEvent(tick=0, channel=6, data=[66, 0]),
   midi.NoteOnEvent(tick=0, channel=6, data=[61, 0]),
   midi.NoteOnEvent(tick=60, channel=6, data=[71, 100]),
   midi.NoteOnEvent(tick=0, channel=6, data=[59, 100]),
   midi.NoteOnEvent(tick=0, channel=6, data=[63, 100]),
   midi.NoteOnEvent(tick=60, channel=6, data=[63, 0]),
   midi.NoteOnEvent(tick=0, channel=6, data=[59, 0]),
   midi.NoteOnEvent(tick=0, channel=6, data=[71, 0]),
   midi.NoteOnEvent(tick=450, channel=6, data=[68, 100]),
   midi.NoteOnEvent(tick=30, channel=6, data=[68, 0]),
   midi.NoteOnEvent(tick=0, channel=6, data=[66, 100]),
   midi.NoteOnEvent(tick=30, channel=6, data=[66, 0]),
   midi.NoteOnEvent(tick=30, channel=6, data=[63, 100]),
   midi.NoteOnEvent(tick=30, channel=6, data=[63, 0]),
   midi.NoteOnEvent(tick=60, channel=6, data=[63, 100]),
   midi.NoteOnEvent(tick=30, channel=6, data=[63, 0]),
   midi.NoteOnEvent(tick=60, channel=6, data=[66, 100]),
   midi.NoteOnEvent(tick=30, channel=6, data=[66, 0]),
   midi.NoteOnEvent(tick=60, channel=6, data=[66, 100]),
   midi.NoteOnEvent(tick=30, channel=6, data=[66, 0]),
   midi.NoteOnEvent(tick=60, channel=6, data=[66, 100]),
   midi.NoteOnEvent(tick=30, channel=6, data=[66, 0]),
   midi.NoteOnEvent(tick=60, channel=6, data=[66, 100]),
   midi.NoteOnEvent(tick=30, channel=6, data=[66, 0]),
   midi.NoteOnEvent(tick=60, channel=6, data=[66, 100]),
   midi.NoteOnEvent(tick=30, channel=6, data=[66, 0]),
   midi.NoteOnEvent(tick=30, channel=6, data=[68, 100]),
   midi.NoteOnEvent(tick=30, channel=6, data=[68, 0]),
   midi.NoteOnEvent(tick=0, channel=6, data=[66, 100]),
   midi.NoteOnEvent(tick=30, channel=6, data=[66, 0]),
   midi.NoteOnEvent(tick=0, channel=6, data=[63, 100]),
   midi.NoteOnEvent(tick=30, channel=6, data=[63, 0]),
   midi.NoteOnEvent(tick=180, channel=6, data=[61, 100]),
   midi.NoteOnEvent(tick=30, channel=6, data=[61, 0]),
   midi.NoteOnEvent(tick=0, channel=6, data=[63, 100]),
   midi.NoteOnEvent(tick=30, channel=6, data=[63, 0]),
   midi.NoteOnEvent(tick=30, channel=6, data=[66, 100]),
   midi.NoteOnEvent(tick=30, channel=6, data=[66, 0]),
   midi.NoteOnEvent(tick=60, channel=6, data=[66, 100]),
   midi.NoteOnEvent(tick=30, channel=6, data=[66, 0]),
   midi.NoteOnEvent(tick=60, channel=6, data=[61, 100]),
   midi.NoteOnEvent(tick=30, channel=6, data=[61, 0]),
   midi.NoteOnEvent(tick=60, channel=6, data=[61, 100]),
   midi.NoteOnEvent(tick=30, channel=6, data=[61, 0]),
   midi.NoteOnEvent(tick=60, channel=6, data=[63, 100]),
   midi.NoteOnEvent(tick=30, channel=6, data=[63, 0]),
   midi.NoteOnEvent(tick=60, channel=6, data=[63, 100]),
   midi.NoteOnEvent(tick=30, channel=6, data=[63, 0]),
   midi.NoteOnEvent(tick=60, channel=6, data=[66, 100]),
   midi.NoteOnEvent(tick=30, channel=6, data=[66, 0]),
   midi.NoteOnEvent(tick=60, channel=6, data=[66, 100]),
   midi.NoteOnEvent(tick=30, channel=6, data=[66, 0]),
   midi.NoteOnEvent(tick=210, channel=6, data=[68, 100]),
   midi.NoteOnEvent(tick=30, channel=6, data=[68, 0]),
   midi.NoteOnEvent(tick=0, channel=6, data=[66, 100]),
   midi.NoteOnEvent(tick=30, channel=6, data=[66, 0]),
   midi.NoteOnEvent(tick=30, channel=6, data=[63, 100]),
   midi.NoteOnEvent(tick=30, channel=6, data=[63, 0]),
   midi.NoteOnEvent(tick=60, channel=6, data=[63, 100]),
   midi.NoteOnEvent(tick=30, channel=6, data=[63, 0]),
   midi.NoteOnEvent(tick=60, channel=6, data=[66, 100]),
   midi.NoteOnEvent(tick=30, channel=6, data=[66, 0]),
   midi.NoteOnEvent(tick=60, channel=6, data=[66, 100]),
   midi.NoteOnEvent(tick=30, channel=6, data=[66, 0]),
   midi.NoteOnEvent(tick=60, channel=6, data=[66, 100]),
   midi.NoteOnEvent(tick=30, channel=6, data=[66, 0]),
   midi.NoteOnEvent(tick=60, channel=6, data=[66, 100]),
   midi.NoteOnEvent(tick=30, channel=6, data=[66, 0]),
   midi.NoteOnEvent(tick=60, channel=6, data=[66, 100]),
   midi.NoteOnEvent(tick=30, channel=6, data=[66, 0]),
   midi.NoteOnEvent(tick=30, channel=6, data=[68, 100]),
   midi.NoteOnEvent(tick=30, channel=6, data=[68, 0]),
   midi.NoteOnEvent(tick=0, channel=6, data=[66, 100]),
   midi.NoteOnEvent(tick=30, channel=6, data=[66, 0]),
   midi.NoteOnEvent(tick=0, channel=6, data=[63, 100]),
   midi.NoteOnEvent(tick=30, channel=6, data=[63, 0]),
   midi.NoteOnEvent(tick=180, channel=6, data=[61, 100]),
   midi.NoteOnEvent(tick=30, channel=6, data=[61, 0]),
   midi.NoteOnEvent(tick=0, channel=6, data=[63, 100]),
   midi.NoteOnEvent(tick=30, channel=6, data=[63, 0]),
   midi.NoteOnEvent(tick=30, channel=6, data=[66, 100]),
   midi.NoteOnEvent(tick=30, channel=6, data=[66, 0]),
   midi.NoteOnEvent(tick=60, channel=6, data=[66, 100]),
   midi.NoteOnEvent(tick=30, channel=6, data=[66, 0]),
   midi.NoteOnEvent(tick=60, channel=6, data=[61, 100]),
   midi.NoteOnEvent(tick=30, channel=6, data=[61, 0]),
   midi.NoteOnEvent(tick=60, channel=6, data=[61, 100]),
   midi.NoteOnEvent(tick=30, channel=6, data=[61, 0]),
   midi.NoteOnEvent(tick=60, channel=6, data=[63, 100]),
   midi.NoteOnEvent(tick=30, channel=6, data=[63, 0]),
   midi.NoteOnEvent(tick=60, channel=6, data=[63, 100]),
   midi.NoteOnEvent(tick=30, channel=6, data=[63, 0]),
   midi.NoteOnEvent(tick=60, channel=6, data=[63, 100]),
   midi.NoteOnEvent(tick=30, channel=6, data=[63, 0]),
   midi.NoteOnEvent(tick=30, channel=6, data=[68, 100]),
   midi.NoteOnEvent(tick=30, channel=6, data=[68, 0]),
   midi.NoteOnEvent(tick=0, channel=6, data=[66, 100]),
   midi.NoteOnEvent(tick=30, channel=6, data=[66, 0]),
   midi.NoteOnEvent(tick=0, channel=6, data=[63, 100]),
   midi.NoteOnEvent(tick=30, channel=6, data=[63, 0]),
   midi.NoteOnEvent(tick=180, channel=6, data=[68, 100]),
   midi.NoteOnEvent(tick=30, channel=6, data=[68, 0]),
   midi.NoteOnEvent(tick=0, channel=6, data=[66, 100]),
   midi.NoteOnEvent(tick=30, channel=6, data=[66, 0]),
   midi.NoteOnEvent(tick=30, channel=6, data=[63, 100]),
   midi.NoteOnEvent(tick=30, channel=6, data=[63, 0]),
   midi.NoteOnEvent(tick=60, channel=6, data=[63, 100]),
   midi.NoteOnEvent(tick=30, channel=6, data=[63, 0]),
   midi.NoteOnEvent(tick=60, channel=6, data=[66, 100]),
   midi.NoteOnEvent(tick=30, channel=6, data=[66, 0]),
   midi.NoteOnEvent(tick=60, channel=6, data=[66, 100]),
   midi.NoteOnEvent(tick=30, channel=6, data=[66, 0]),
   midi.NoteOnEvent(tick=60, channel=6, data=[66, 100]),
   midi.NoteOnEvent(tick=30, channel=6, data=[66, 0]),
   midi.NoteOnEvent(tick=60, channel=6, data=[66, 100]),
   midi.NoteOnEvent(tick=30, channel=6, data=[66, 0]),
   midi.NoteOnEvent(tick=60, channel=6, data=[66, 100]),
   midi.NoteOnEvent(tick=30, channel=6, data=[66, 0]),
   midi.NoteOnEvent(tick=30, channel=6, data=[68, 100]),
   midi.NoteOnEvent(tick=30, channel=6, data=[68, 0]),
   midi.NoteOnEvent(tick=0, channel=6, data=[66, 100]),
   midi.NoteOnEvent(tick=30, channel=6, data=[66, 0]),
   midi.NoteOnEvent(tick=0, channel=6, data=[63, 100]),
   midi.NoteOnEvent(tick=30, channel=6, data=[63, 0]),
   midi.NoteOnEvent(tick=180, channel=6, data=[61, 100]),
   midi.NoteOnEvent(tick=30, channel=6, data=[61, 0]),
   midi.NoteOnEvent(tick=0, channel=6, data=[63, 100]),
   midi.NoteOnEvent(tick=30, channel=6, data=[63, 0]),
   midi.NoteOnEvent(tick=30, channel=6, data=[66, 100]),
   midi.NoteOnEvent(tick=30, channel=6, data=[66, 0]),
   midi.NoteOnEvent(tick=60, channel=6, data=[66, 100]),
   midi.NoteOnEvent(tick=30, channel=6, data=[66, 0]),
   midi.NoteOnEvent(tick=60, channel=6, data=[61, 100]),
   midi.NoteOnEvent(tick=30, channel=6, data=[61, 0]),
   midi.NoteOnEvent(tick=60, channel=6, data=[61, 100]),
   midi.NoteOnEvent(tick=30, channel=6, data=[61, 0]),
   midi.NoteOnEvent(tick=60, channel=6, data=[63, 100]),
   midi.NoteOnEvent(tick=30, channel=6, data=[63, 0]),
   midi.NoteOnEvent(tick=60, channel=6, data=[63, 100]),
   midi.NoteOnEvent(tick=30, channel=6, data=[63, 0]),
   midi.NoteOnEvent(tick=60, channel=6, data=[66, 100]),
   midi.NoteOnEvent(tick=30, channel=6, data=[66, 0]),
   midi.NoteOnEvent(tick=60, channel=6, data=[66, 100]),
   midi.NoteOnEvent(tick=30, channel=6, data=[66, 0]),
   midi.NoteOnEvent(tick=210, channel=6, data=[68, 100]),
   midi.NoteOnEvent(tick=30, channel=6, data=[68, 0]),
   midi.NoteOnEvent(tick=0, channel=6, data=[66, 100]),
   midi.NoteOnEvent(tick=30, channel=6, data=[66, 0]),
   midi.NoteOnEvent(tick=30, channel=6, data=[63, 100]),
   midi.NoteOnEvent(tick=30, channel=6, data=[63, 0]),
   midi.NoteOnEvent(tick=60, channel=6, data=[63, 100]),
   midi.NoteOnEvent(tick=30, channel=6, data=[63, 0]),
   midi.NoteOnEvent(tick=60, channel=6, data=[66, 100]),
   midi.NoteOnEvent(tick=30, channel=6, data=[66, 0]),
   midi.NoteOnEvent(tick=60, channel=6, data=[66, 100]),
   midi.NoteOnEvent(tick=30, channel=6, data=[66, 0]),
   midi.NoteOnEvent(tick=60, channel=6, data=[66, 100]),
   midi.NoteOnEvent(tick=30, channel=6, data=[66, 0]),
   midi.NoteOnEvent(tick=60, channel=6, data=[66, 100]),
   midi.NoteOnEvent(tick=30, channel=6, data=[66, 0]),
   midi.NoteOnEvent(tick=60, channel=6, data=[66, 100]),
   midi.NoteOnEvent(tick=30, channel=6, data=[66, 0]),
   midi.NoteOnEvent(tick=30, channel=6, data=[68, 100]),
   midi.NoteOnEvent(tick=30, channel=6, data=[68, 0]),
   midi.NoteOnEvent(tick=0, channel=6, data=[66, 100]),
   midi.NoteOnEvent(tick=30, channel=6, data=[66, 0]),
   midi.NoteOnEvent(tick=0, channel=6, data=[63, 100]),
   midi.NoteOnEvent(tick=30, channel=6, data=[63, 0]),
   midi.EndOfTrackEvent(tick=0, data=[])]),
 midi.Track(\
  [midi.TrackNameEvent(tick=0, text='Piano 2', data=[80, 105, 97, 110, 111, 32, 50]),
   midi.ControlChangeEvent(tick=124, channel=7, data=[0, 121]),
   midi.ControlChangeEvent(tick=1, channel=7, data=[32, 0]),
   midi.ProgramChangeEvent(tick=0, channel=7, data=[0]),
   midi.ControlChangeEvent(tick=0, channel=7, data=[7, 101]),
   midi.ControlChangeEvent(tick=0, channel=7, data=[91, 64]),
   midi.ControlChangeEvent(tick=0, channel=7, data=[93, 64]),
   midi.ControlChangeEvent(tick=55, channel=7, data=[7, 0]),
   midi.ControlChangeEvent(tick=2, channel=7, data=[7, 1]),
   midi.ControlChangeEvent(tick=3, channel=7, data=[7, 2]),
   midi.ControlChangeEvent(tick=2, channel=7, data=[7, 3]),
   midi.ControlChangeEvent(tick=3, channel=7, data=[7, 4]),
   midi.ControlChangeEvent(tick=2, channel=7, data=[7, 5]),
   midi.ControlChangeEvent(tick=2, channel=7, data=[7, 6]),
   midi.ControlChangeEvent(tick=3, channel=7, data=[7, 7]),
   midi.ControlChangeEvent(tick=2, channel=7, data=[7, 8]),
   midi.ControlChangeEvent(tick=2, channel=7, data=[7, 9]),
   midi.ControlChangeEvent(tick=3, channel=7, data=[7, 10]),
   midi.ControlChangeEvent(tick=2, channel=7, data=[7, 11]),
   midi.ControlChangeEvent(tick=2, channel=7, data=[7, 12]),
   midi.ControlChangeEvent(tick=3, channel=7, data=[7, 13]),
   midi.ControlChangeEvent(tick=2, channel=7, data=[7, 14]),
   midi.ControlChangeEvent(tick=2, channel=7, data=[7, 15]),
   midi.ControlChangeEvent(tick=3, channel=7, data=[7, 16]),
   midi.ControlChangeEvent(tick=2, channel=7, data=[7, 17]),
   midi.ControlChangeEvent(tick=3, channel=7, data=[7, 18]),
   midi.ControlChangeEvent(tick=2, channel=7, data=[7, 19]),
   midi.ControlChangeEvent(tick=2, channel=7, data=[7, 20]),
   midi.ControlChangeEvent(tick=3, channel=7, data=[7, 21]),
   midi.ControlChangeEvent(tick=2, channel=7, data=[7, 22]),
   midi.ControlChangeEvent(tick=2, channel=7, data=[7, 23]),
   midi.ControlChangeEvent(tick=3, channel=7, data=[7, 24]),
   midi.ControlChangeEvent(tick=2, channel=7, data=[7, 25]),
   midi.NoteOnEvent(tick=481, channel=7, data=[63, 100]),
   midi.NoteOnEvent(tick=0, channel=7, data=[52, 100]),
   midi.NoteOnEvent(tick=0, channel=7, data=[47, 100]),
   midi.NoteOnEvent(tick=0, channel=7, data=[75, 100]),
   midi.NoteOnEvent(tick=0, channel=7, data=[71, 100]),
   midi.NoteOnEvent(tick=0, channel=7, data=[68, 100]),
   midi.NoteOnEvent(tick=0, channel=7, data=[59, 100]),
   midi.NoteOnEvent(tick=0, channel=7, data=[40, 100]),
   midi.NoteOnEvent(tick=0, channel=7, data=[56, 100]),
   midi.ControlChangeEvent(tick=1, channel=7, data=[7, 26]),
   midi.ControlChangeEvent(tick=3, channel=7, data=[7, 27]),
   midi.ControlChangeEvent(tick=2, channel=7, data=[7, 28]),
   midi.ControlChangeEvent(tick=3, channel=7, data=[7, 29]),
   midi.ControlChangeEvent(tick=2, channel=7, data=[7, 30]),
   midi.ControlChangeEvent(tick=2, channel=7, data=[7, 31]),
   midi.ControlChangeEvent(tick=3, channel=7, data=[7, 32]),
   midi.ControlChangeEvent(tick=2, channel=7, data=[7, 33]),
   midi.ControlChangeEvent(tick=2, channel=7, data=[7, 34]),
   midi.ControlChangeEvent(tick=3, channel=7, data=[7, 35]),
   midi.ControlChangeEvent(tick=2, channel=7, data=[7, 36]),
   midi.ControlChangeEvent(tick=2, channel=7, data=[7, 37]),
   midi.ControlChangeEvent(tick=3, channel=7, data=[7, 38]),
   midi.ControlChangeEvent(tick=2, channel=7, data=[7, 39]),
   midi.ControlChangeEvent(tick=3, channel=7, data=[7, 40]),
   midi.ControlChangeEvent(tick=2, channel=7, data=[7, 41]),
   midi.ControlChangeEvent(tick=2, channel=7, data=[7, 42]),
   midi.ControlChangeEvent(tick=3, channel=7, data=[7, 43]),
   midi.ControlChangeEvent(tick=2, channel=7, data=[7, 44]),
   midi.ControlChangeEvent(tick=2, channel=7, data=[7, 45]),
   midi.ControlChangeEvent(tick=3, channel=7, data=[7, 46]),
   midi.ControlChangeEvent(tick=2, channel=7, data=[7, 47]),
   midi.ControlChangeEvent(tick=2, channel=7, data=[7, 48]),
   midi.ControlChangeEvent(tick=3, channel=7, data=[7, 49]),
   midi.ControlChangeEvent(tick=2, channel=7, data=[7, 50]),
   midi.ControlChangeEvent(tick=3, channel=7, data=[7, 51]),
   midi.ControlChangeEvent(tick=2, channel=7, data=[7, 52]),
   midi.ControlChangeEvent(tick=2, channel=7, data=[7, 53]),
   midi.ControlChangeEvent(tick=3, channel=7, data=[7, 54]),
   midi.ControlChangeEvent(tick=2, channel=7, data=[7, 55]),
   midi.ControlChangeEvent(tick=2, channel=7, data=[7, 56]),
   midi.ControlChangeEvent(tick=3, channel=7, data=[7, 57]),
   midi.ControlChangeEvent(tick=2, channel=7, data=[7, 58]),
   midi.ControlChangeEvent(tick=2, channel=7, data=[7, 59]),
   midi.ControlChangeEvent(tick=3, channel=7, data=[7, 60]),
   midi.ControlChangeEvent(tick=2, channel=7, data=[7, 61]),
   midi.ControlChangeEvent(tick=3, channel=7, data=[7, 62]),
   midi.ControlChangeEvent(tick=2, channel=7, data=[7, 63]),
   midi.ControlChangeEvent(tick=2, channel=7, data=[7, 64]),
   midi.ControlChangeEvent(tick=3, channel=7, data=[7, 65]),
   midi.ControlChangeEvent(tick=2, channel=7, data=[7, 66]),
   midi.ControlChangeEvent(tick=2, channel=7, data=[7, 67]),
   midi.ControlChangeEvent(tick=3, channel=7, data=[7, 68]),
   midi.ControlChangeEvent(tick=2, channel=7, data=[7, 69]),
   midi.ControlChangeEvent(tick=2, channel=7, data=[7, 70]),
   midi.ControlChangeEvent(tick=3, channel=7, data=[7, 71]),
   midi.ControlChangeEvent(tick=2, channel=7, data=[7, 72]),
   midi.ControlChangeEvent(tick=3, channel=7, data=[7, 73]),
   midi.ControlChangeEvent(tick=2, channel=7, data=[7, 74]),
   midi.ControlChangeEvent(tick=2, channel=7, data=[7, 75]),
   midi.ControlChangeEvent(tick=3, channel=7, data=[7, 76]),
   midi.ControlChangeEvent(tick=2, channel=7, data=[7, 77]),
   midi.ControlChangeEvent(tick=2, channel=7, data=[7, 78]),
   midi.ControlChangeEvent(tick=3, channel=7, data=[7, 79]),
   midi.ControlChangeEvent(tick=2, channel=7, data=[7, 80]),
   midi.ControlChangeEvent(tick=2, channel=7, data=[7, 81]),
   midi.ControlChangeEvent(tick=3, channel=7, data=[7, 82]),
   midi.ControlChangeEvent(tick=2, channel=7, data=[7, 83]),
   midi.ControlChangeEvent(tick=2, channel=7, data=[7, 84]),
   midi.ControlChangeEvent(tick=3, channel=7, data=[7, 85]),
   midi.ControlChangeEvent(tick=2, channel=7, data=[7, 86]),
   midi.ControlChangeEvent(tick=3, channel=7, data=[7, 87]),
   midi.ControlChangeEvent(tick=2, channel=7, data=[7, 88]),
   midi.ControlChangeEvent(tick=2, channel=7, data=[7, 89]),
   midi.ControlChangeEvent(tick=3, channel=7, data=[7, 90]),
   midi.ControlChangeEvent(tick=2, channel=7, data=[7, 91]),
   midi.ControlChangeEvent(tick=2, channel=7, data=[7, 92]),
   midi.ControlChangeEvent(tick=3, channel=7, data=[7, 93]),
   midi.ControlChangeEvent(tick=2, channel=7, data=[7, 94]),
   midi.ControlChangeEvent(tick=2, channel=7, data=[7, 95]),
   midi.ControlChangeEvent(tick=3, channel=7, data=[7, 96]),
   midi.ControlChangeEvent(tick=2, channel=7, data=[7, 97]),
   midi.ControlChangeEvent(tick=3, channel=7, data=[7, 98]),
   midi.ControlChangeEvent(tick=2, channel=7, data=[7, 99]),
   midi.ControlChangeEvent(tick=2, channel=7, data=[7, 100]),
   midi.ControlChangeEvent(tick=3, channel=7, data=[7, 101]),
   midi.ControlChangeEvent(tick=2, channel=7, data=[7, 102]),
   midi.ControlChangeEvent(tick=2, channel=7, data=[7, 103]),
   midi.ControlChangeEvent(tick=3, channel=7, data=[7, 104]),
   midi.ControlChangeEvent(tick=2, channel=7, data=[7, 105]),
   midi.ControlChangeEvent(tick=2, channel=7, data=[7, 106]),
   midi.ControlChangeEvent(tick=3, channel=7, data=[7, 107]),
   midi.ControlChangeEvent(tick=2, channel=7, data=[7, 108]),
   midi.ControlChangeEvent(tick=3, channel=7, data=[7, 109]),
   midi.ControlChangeEvent(tick=2, channel=7, data=[7, 110]),
   midi.ControlChangeEvent(tick=2, channel=7, data=[7, 111]),
   midi.ControlChangeEvent(tick=3, channel=7, data=[7, 112]),
   midi.ControlChangeEvent(tick=2, channel=7, data=[7, 113]),
   midi.ControlChangeEvent(tick=2, channel=7, data=[7, 114]),
   midi.ControlChangeEvent(tick=3, channel=7, data=[7, 115]),
   midi.ControlChangeEvent(tick=2, channel=7, data=[7, 116]),
   midi.ControlChangeEvent(tick=2, channel=7, data=[7, 117]),
   midi.ControlChangeEvent(tick=3, channel=7, data=[7, 118]),
   midi.ControlChangeEvent(tick=2, channel=7, data=[7, 119]),
   midi.ControlChangeEvent(tick=3, channel=7, data=[7, 120]),
   midi.ControlChangeEvent(tick=2, channel=7, data=[7, 121]),
   midi.ControlChangeEvent(tick=2, channel=7, data=[7, 122]),
   midi.ControlChangeEvent(tick=3, channel=7, data=[7, 123]),
   midi.ControlChangeEvent(tick=2, channel=7, data=[7, 124]),
   midi.ControlChangeEvent(tick=2, channel=7, data=[7, 125]),
   midi.ControlChangeEvent(tick=3, channel=7, data=[7, 126]),
   midi.NoteOnEvent(tick=2, channel=7, data=[56, 0]),
   midi.NoteOnEvent(tick=0, channel=7, data=[75, 0]),
   midi.NoteOnEvent(tick=0, channel=7, data=[63, 0]),
   midi.NoteOnEvent(tick=0, channel=7, data=[71, 0]),
   midi.NoteOnEvent(tick=0, channel=7, data=[52, 0]),
   midi.NoteOnEvent(tick=0, channel=7, data=[47, 0]),
   midi.NoteOnEvent(tick=0, channel=7, data=[59, 0]),
   midi.NoteOnEvent(tick=0, channel=7, data=[68, 0]),
   midi.NoteOnEvent(tick=0, channel=7, data=[40, 0]),
   midi.ControlChangeEvent(tick=0, channel=7, data=[7, 100]),
   midi.NoteOnEvent(tick=0, channel=7, data=[40, 100]),
   midi.NoteOnEvent(tick=0, channel=7, data=[56, 100]),
   midi.NoteOnEvent(tick=0, channel=7, data=[59, 100]),
   midi.NoteOnEvent(tick=0, channel=7, data=[63, 100]),
   midi.NoteOnEvent(tick=0, channel=7, data=[68, 100]),
   midi.NoteOnEvent(tick=0, channel=7, data=[71, 100]),
   midi.NoteOnEvent(tick=0, channel=7, data=[75, 100]),
   midi.NoteOnEvent(tick=0, channel=7, data=[47, 100]),
   midi.NoteOnEvent(tick=0, channel=7, data=[52, 100]),
   midi.NoteOnEvent(tick=240, channel=7, data=[52, 0]),
   midi.NoteOnEvent(tick=0, channel=7, data=[63, 0]),
   midi.NoteOnEvent(tick=0, channel=7, data=[40, 0]),
   midi.NoteOnEvent(tick=0, channel=7, data=[68, 0]),
   midi.NoteOnEvent(tick=0, channel=7, data=[56, 0]),
   midi.NoteOnEvent(tick=0, channel=7, data=[59, 0]),
   midi.NoteOnEvent(tick=0, channel=7, data=[75, 0]),
   midi.NoteOnEvent(tick=0, channel=7, data=[71, 0]),
   midi.NoteOnEvent(tick=0, channel=7, data=[47, 0]),
   midi.NoteOnEvent(tick=0, channel=7, data=[73, 100]),
   midi.NoteOnEvent(tick=0, channel=7, data=[66, 100]),
   midi.NoteOnEvent(tick=0, channel=7, data=[54, 100]),
   midi.NoteOnEvent(tick=0, channel=7, data=[49, 100]),
   midi.NoteOnEvent(tick=0, channel=7, data=[58, 100]),
   midi.NoteOnEvent(tick=0, channel=7, data=[42, 100]),
   midi.NoteOnEvent(tick=0, channel=7, data=[61, 100]),
   midi.NoteOnEvent(tick=0, channel=7, data=[68, 100]),
   midi.NoteOnEvent(tick=180, channel=7, data=[68, 0]),
   midi.NoteOnEvent(tick=0, channel=7, data=[73, 0]),
   midi.NoteOnEvent(tick=0, channel=7, data=[58, 0]),
   midi.NoteOnEvent(tick=0, channel=7, data=[66, 0]),
   midi.NoteOnEvent(tick=0, channel=7, data=[54, 0]),
   midi.NoteOnEvent(tick=0, channel=7, data=[49, 0]),
   midi.NoteOnEvent(tick=0, channel=7, data=[42, 0]),
   midi.NoteOnEvent(tick=0, channel=7, data=[61, 0]),
   midi.NoteOnEvent(tick=0, channel=7, data=[56, 100]),
   midi.NoteOnEvent(tick=0, channel=7, data=[68, 100]),
   midi.NoteOnEvent(tick=0, channel=7, data=[44, 100]),
   midi.NoteOnEvent(tick=0, channel=7, data=[51, 100]),
   midi.NoteOnEvent(tick=0, channel=7, data=[59, 100]),
   midi.NoteOnEvent(tick=0, channel=7, data=[63, 100]),
   midi.NoteOnEvent(tick=0, channel=7, data=[71, 100]),
   midi.NoteOnEvent(tick=0, channel=7, data=[75, 100]),
   midi.NoteOnEvent(tick=240, channel=7, data=[68, 0]),
   midi.NoteOnEvent(tick=0, channel=7, data=[56, 0]),
   midi.NoteOnEvent(tick=0, channel=7, data=[56, 100]),
   midi.NoteOnEvent(tick=0, channel=7, data=[68, 100]),
   midi.NoteOnEvent(tick=60, channel=7, data=[68, 0]),
   midi.NoteOnEvent(tick=0, channel=7, data=[56, 0]),
   midi.NoteOnEvent(tick=0, channel=7, data=[56, 100]),
   midi.NoteOnEvent(tick=0, channel=7, data=[68, 100]),
   midi.NoteOnEvent(tick=60, channel=7, data=[68, 0]),
   midi.NoteOnEvent(tick=0, channel=7, data=[56, 0]),
   midi.NoteOnEvent(tick=0, channel=7, data=[59, 0]),
   midi.NoteOnEvent(tick=0, channel=7, data=[71, 0]),
   midi.NoteOnEvent(tick=0, channel=7, data=[71, 100]),
   midi.NoteOnEvent(tick=0, channel=7, data=[59, 100]),
   midi.NoteOnEvent(tick=60, channel=7, data=[59, 0]),
   midi.NoteOnEvent(tick=0, channel=7, data=[71, 0]),
   midi.NoteOnEvent(tick=0, channel=7, data=[73, 100]),
   midi.NoteOnEvent(tick=0, channel=7, data=[61, 100]),
   midi.NoteOnEvent(tick=60, channel=7, data=[61, 0]),
   midi.NoteOnEvent(tick=0, channel=7, data=[75, 0]),
   midi.NoteOnEvent(tick=0, channel=7, data=[63, 0]),
   midi.NoteOnEvent(tick=0, channel=7, data=[73, 0]),
   midi.NoteOnEvent(tick=0, channel=7, data=[63, 100]),
   midi.NoteOnEvent(tick=0, channel=7, data=[75, 100]),
   midi.NoteOnEvent(tick=60, channel=7, data=[75, 0]),
   midi.NoteOnEvent(tick=0, channel=7, data=[44, 0]),
   midi.NoteOnEvent(tick=0, channel=7, data=[51, 0]),
   midi.NoteOnEvent(tick=0, channel=7, data=[63, 0]),
   midi.NoteOnEvent(tick=0, channel=7, data=[40, 100]),
   midi.NoteOnEvent(tick=0, channel=7, data=[56, 100]),
   midi.NoteOnEvent(tick=0, channel=7, data=[59, 100]),
   midi.NoteOnEvent(tick=0, channel=7, data=[63, 100]),
   midi.NoteOnEvent(tick=0, channel=7, data=[68, 100]),
   midi.NoteOnEvent(tick=0, channel=7, data=[71, 100]),
   midi.NoteOnEvent(tick=0, channel=7, data=[52, 100]),
   midi.NoteOnEvent(tick=0, channel=7, data=[47, 100]),
   midi.NoteOnEvent(tick=0, channel=7, data=[75, 100]),
   midi.NoteOnEvent(tick=240, channel=7, data=[75, 0]),
   midi.NoteOnEvent(tick=0, channel=7, data=[63, 0]),
   midi.NoteOnEvent(tick=0, channel=7, data=[40, 0]),
   midi.NoteOnEvent(tick=0, channel=7, data=[68, 0]),
   midi.NoteOnEvent(tick=0, channel=7, data=[56, 0]),
   midi.NoteOnEvent(tick=0, channel=7, data=[59, 0]),
   midi.NoteOnEvent(tick=0, channel=7, data=[52, 0]),
   midi.NoteOnEvent(tick=0, channel=7, data=[71, 0]),
   midi.NoteOnEvent(tick=0, channel=7, data=[47, 0]),
   midi.NoteOnEvent(tick=0, channel=7, data=[73, 100]),
   midi.NoteOnEvent(tick=0, channel=7, data=[54, 100]),
   midi.NoteOnEvent(tick=0, channel=7, data=[66, 100]),
   midi.NoteOnEvent(tick=0, channel=7, data=[58, 100]),
   midi.NoteOnEvent(tick=0, channel=7, data=[42, 100]),
   midi.NoteOnEvent(tick=0, channel=7, data=[49, 100]),
   midi.NoteOnEvent(tick=0, channel=7, data=[68, 100]),
   midi.NoteOnEvent(tick=0, channel=7, data=[61, 100]),
   midi.NoteOnEvent(tick=180, channel=7, data=[61, 0]),
   midi.NoteOnEvent(tick=0, channel=7, data=[73, 0]),
   midi.NoteOnEvent(tick=0, channel=7, data=[42, 0]),
   midi.NoteOnEvent(tick=0, channel=7, data=[54, 0]),
   midi.NoteOnEvent(tick=0, channel=7, data=[66, 0]),
   midi.NoteOnEvent(tick=0, channel=7, data=[58, 0]),
   midi.NoteOnEvent(tick=0, channel=7, data=[49, 0]),
   midi.NoteOnEvent(tick=0, channel=7, data=[68, 0]),
   midi.NoteOnEvent(tick=0, channel=7, data=[44, 100]),
   midi.NoteOnEvent(tick=0, channel=7, data=[51, 100]),
   midi.NoteOnEvent(tick=0, channel=7, data=[56, 100]),
   midi.NoteOnEvent(tick=0, channel=7, data=[75, 100]),
   midi.NoteOnEvent(tick=0, channel=7, data=[68, 100]),
   midi.NoteOnEvent(tick=0, channel=7, data=[71, 100]),
   midi.NoteOnEvent(tick=0, channel=7, data=[63, 100]),
   midi.NoteOnEvent(tick=0, channel=7, data=[59, 100]),
   midi.NoteOnEvent(tick=240, channel=7, data=[59, 0]),
   midi.NoteOnEvent(tick=0, channel=7, data=[71, 0]),
   midi.NoteOnEvent(tick=0, channel=7, data=[59, 100]),
   midi.NoteOnEvent(tick=0, channel=7, data=[71, 100]),
   midi.NoteOnEvent(tick=30, channel=7, data=[71, 0]),
   midi.NoteOnEvent(tick=0, channel=7, data=[59, 0]),
   midi.NoteOnEvent(tick=0, channel=7, data=[61, 100]),
   midi.NoteOnEvent(tick=0, channel=7, data=[73, 100]),
   midi.NoteOnEvent(tick=30, channel=7, data=[73, 0]),
   midi.NoteOnEvent(tick=0, channel=7, data=[61, 0]),
   midi.NoteOnEvent(tick=0, channel=7, data=[75, 0]),
   midi.NoteOnEvent(tick=0, channel=7, data=[63, 0]),
   midi.NoteOnEvent(tick=0, channel=7, data=[63, 100]),
   midi.NoteOnEvent(tick=0, channel=7, data=[75, 100]),
   midi.NoteOnEvent(tick=60, channel=7, data=[75, 0]),
   midi.NoteOnEvent(tick=0, channel=7, data=[63, 0]),
   midi.NoteOnEvent(tick=0, channel=7, data=[61, 100]),
   midi.NoteOnEvent(tick=0, channel=7, data=[73, 100]),
   midi.NoteOnEvent(tick=60, channel=7, data=[73, 0]),
   midi.NoteOnEvent(tick=0, channel=7, data=[61, 0]),
   midi.NoteOnEvent(tick=0, channel=7, data=[59, 100]),
   midi.NoteOnEvent(tick=0, channel=7, data=[71, 100]),
   midi.NoteOnEvent(tick=60, channel=7, data=[71, 0]),
   midi.NoteOnEvent(tick=0, channel=7, data=[56, 0]),
   midi.NoteOnEvent(tick=0, channel=7, data=[68, 0]),
   midi.NoteOnEvent(tick=0, channel=7, data=[59, 0]),
   midi.NoteOnEvent(tick=0, channel=7, data=[56, 100]),
   midi.NoteOnEvent(tick=0, channel=7, data=[68, 100]),
   midi.NoteOnEvent(tick=60, channel=7, data=[68, 0]),
   midi.NoteOnEvent(tick=0, channel=7, data=[51, 0]),
   midi.NoteOnEvent(tick=0, channel=7, data=[44, 0]),
   midi.NoteOnEvent(tick=0, channel=7, data=[56, 0]),
   midi.NoteOnEvent(tick=0, channel=7, data=[75, 100]),
   midi.NoteOnEvent(tick=0, channel=7, data=[47, 100]),
   midi.NoteOnEvent(tick=0, channel=7, data=[52, 100]),
   midi.NoteOnEvent(tick=0, channel=7, data=[40, 100]),
   midi.NoteOnEvent(tick=0, channel=7, data=[56, 100]),
   midi.NoteOnEvent(tick=0, channel=7, data=[63, 100]),
   midi.NoteOnEvent(tick=0, channel=7, data=[68, 100]),
   midi.NoteOnEvent(tick=0, channel=7, data=[71, 100]),
   midi.NoteOnEvent(tick=0, channel=7, data=[59, 100]),
   midi.NoteOnEvent(tick=240, channel=7, data=[59, 0]),
   midi.NoteOnEvent(tick=0, channel=7, data=[40, 0]),
   midi.NoteOnEvent(tick=0, channel=7, data=[75, 0]),
   midi.NoteOnEvent(tick=0, channel=7, data=[56, 0]),
   midi.NoteOnEvent(tick=0, channel=7, data=[47, 0]),
   midi.NoteOnEvent(tick=0, channel=7, data=[52, 0]),
   midi.NoteOnEvent(tick=0, channel=7, data=[68, 0]),
   midi.NoteOnEvent(tick=0, channel=7, data=[63, 0]),
   midi.NoteOnEvent(tick=0, channel=7, data=[71, 0]),
   midi.NoteOnEvent(tick=0, channel=7, data=[61, 100]),
   midi.NoteOnEvent(tick=0, channel=7, data=[42, 100]),
   midi.NoteOnEvent(tick=0, channel=7, data=[68, 100]),
   midi.NoteOnEvent(tick=0, channel=7, data=[73, 100]),
   midi.NoteOnEvent(tick=0, channel=7, data=[66, 100]),
   midi.NoteOnEvent(tick=0, channel=7, data=[49, 100]),
   midi.NoteOnEvent(tick=0, channel=7, data=[54, 100]),
   midi.NoteOnEvent(tick=0, channel=7, data=[58, 100]),
   midi.NoteOnEvent(tick=180, channel=7, data=[58, 0]),
   midi.NoteOnEvent(tick=0, channel=7, data=[61, 0]),
   midi.NoteOnEvent(tick=0, channel=7, data=[66, 0]),
   midi.NoteOnEvent(tick=0, channel=7, data=[42, 0]),
   midi.NoteOnEvent(tick=0, channel=7, data=[68, 0]),
   midi.NoteOnEvent(tick=0, channel=7, data=[73, 0]),
   midi.NoteOnEvent(tick=0, channel=7, data=[49, 0]),
   midi.NoteOnEvent(tick=0, channel=7, data=[54, 0]),
   midi.NoteOnEvent(tick=0, channel=7, data=[71, 100]),
   midi.NoteOnEvent(tick=0, channel=7, data=[68, 100]),
   midi.NoteOnEvent(tick=0, channel=7, data=[56, 100]),
   midi.NoteOnEvent(tick=0, channel=7, data=[51, 100]),
   midi.NoteOnEvent(tick=0, channel=7, data=[44, 100]),
   midi.NoteOnEvent(tick=0, channel=7, data=[63, 100]),
   midi.NoteOnEvent(tick=0, channel=7, data=[75, 100]),
   midi.NoteOnEvent(tick=0, channel=7, data=[59, 100]),
   midi.NoteOnEvent(tick=360, channel=7, data=[59, 0]),
   midi.NoteOnEvent(tick=0, channel=7, data=[71, 0]),
   midi.NoteOnEvent(tick=0, channel=7, data=[44, 0]),
   midi.NoteOnEvent(tick=0, channel=7, data=[68, 0]),
   midi.NoteOnEvent(tick=0, channel=7, data=[56, 0]),
   midi.NoteOnEvent(tick=0, channel=7, data=[51, 0]),
   midi.NoteOnEvent(tick=0, channel=7, data=[63, 0]),
   midi.NoteOnEvent(tick=0, channel=7, data=[75, 0]),
   midi.NoteOnEvent(tick=0, channel=7, data=[71, 100]),
   midi.NoteOnEvent(tick=0, channel=7, data=[59, 100]),
   midi.NoteOnEvent(tick=0, channel=7, data=[56, 100]),
   midi.NoteOnEvent(tick=0, channel=7, data=[68, 100]),
   midi.NoteOnEvent(tick=0, channel=7, data=[51, 100]),
   midi.NoteOnEvent(tick=0, channel=7, data=[75, 100]),
   midi.NoteOnEvent(tick=0, channel=7, data=[44, 100]),
   midi.NoteOnEvent(tick=0, channel=7, data=[63, 100]),
   midi.NoteOnEvent(tick=60, channel=7, data=[63, 0]),
   midi.NoteOnEvent(tick=0, channel=7, data=[71, 0]),
   midi.NoteOnEvent(tick=0, channel=7, data=[51, 0]),
   midi.NoteOnEvent(tick=0, channel=7, data=[59, 0]),
   midi.NoteOnEvent(tick=0, channel=7, data=[56, 0]),
   midi.NoteOnEvent(tick=0, channel=7, data=[68, 0]),
   midi.NoteOnEvent(tick=0, channel=7, data=[75, 0]),
   midi.NoteOnEvent(tick=0, channel=7, data=[44, 0]),
   midi.NoteOnEvent(tick=30, channel=7, data=[63, 100]),
   midi.NoteOnEvent(tick=0, channel=7, data=[44, 100]),
   midi.NoteOnEvent(tick=0, channel=7, data=[51, 100]),
   midi.NoteOnEvent(tick=0, channel=7, data=[68, 100]),
   midi.NoteOnEvent(tick=0, channel=7, data=[75, 100]),
   midi.NoteOnEvent(tick=0, channel=7, data=[56, 100]),
   midi.NoteOnEvent(tick=0, channel=7, data=[71, 100]),
   midi.NoteOnEvent(tick=0, channel=7, data=[59, 100]),
   midi.NoteOnEvent(tick=90, channel=7, data=[59, 0]),
   midi.NoteOnEvent(tick=0, channel=7, data=[63, 0]),
   midi.NoteOnEvent(tick=0, channel=7, data=[75, 0]),
   midi.NoteOnEvent(tick=0, channel=7, data=[44, 0]),
   midi.NoteOnEvent(tick=0, channel=7, data=[51, 0]),
   midi.NoteOnEvent(tick=0, channel=7, data=[68, 0]),
   midi.NoteOnEvent(tick=0, channel=7, data=[56, 0]),
   midi.NoteOnEvent(tick=0, channel=7, data=[71, 0]),
   midi.NoteOnEvent(tick=0, channel=7, data=[56, 100]),
   midi.NoteOnEvent(tick=0, channel=7, data=[59, 100]),
   midi.NoteOnEvent(tick=0, channel=7, data=[63, 100]),
   midi.NoteOnEvent(tick=0, channel=7, data=[40, 100]),
   midi.NoteOnEvent(tick=0, channel=7, data=[71, 100]),
   midi.NoteOnEvent(tick=0, channel=7, data=[75, 100]),
   midi.NoteOnEvent(tick=0, channel=7, data=[47, 100]),
   midi.NoteOnEvent(tick=0, channel=7, data=[68, 100]),
   midi.NoteOnEvent(tick=0, channel=7, data=[52, 100]),
   midi.NoteOnEvent(tick=240, channel=7, data=[52, 0]),
   midi.NoteOnEvent(tick=0, channel=7, data=[40, 0]),
   midi.NoteOnEvent(tick=0, channel=7, data=[56, 0]),
   midi.NoteOnEvent(tick=0, channel=7, data=[71, 0]),
   midi.NoteOnEvent(tick=0, channel=7, data=[59, 0]),
   midi.NoteOnEvent(tick=0, channel=7, data=[63, 0]),
   midi.NoteOnEvent(tick=0, channel=7, data=[47, 0]),
   midi.NoteOnEvent(tick=0, channel=7, data=[75, 0]),
   midi.NoteOnEvent(tick=0, channel=7, data=[68, 0]),
   midi.NoteOnEvent(tick=0, channel=7, data=[73, 100]),
   midi.NoteOnEvent(tick=0, channel=7, data=[66, 100]),
   midi.NoteOnEvent(tick=0, channel=7, data=[54, 100]),
   midi.NoteOnEvent(tick=0, channel=7, data=[68, 100]),
   midi.NoteOnEvent(tick=0, channel=7, data=[58, 100]),
   midi.NoteOnEvent(tick=0, channel=7, data=[42, 100]),
   midi.NoteOnEvent(tick=0, channel=7, data=[49, 100]),
   midi.NoteOnEvent(tick=0, channel=7, data=[61, 100]),
   midi.NoteOnEvent(tick=180, channel=7, data=[61, 0]),
   midi.NoteOnEvent(tick=0, channel=7, data=[73, 0]),
   midi.NoteOnEvent(tick=0, channel=7, data=[58, 0]),
   midi.NoteOnEvent(tick=0, channel=7, data=[66, 0]),
   midi.NoteOnEvent(tick=0, channel=7, data=[54, 0]),
   midi.NoteOnEvent(tick=0, channel=7, data=[68, 0]),
   midi.NoteOnEvent(tick=0, channel=7, data=[42, 0]),
   midi.NoteOnEvent(tick=0, channel=7, data=[49, 0]),
   midi.NoteOnEvent(tick=0, channel=7, data=[32, 120]),
   midi.NoteOnEvent(tick=0, channel=7, data=[75, 100]),
   midi.NoteOnEvent(tick=0, channel=7, data=[59, 100]),
   midi.NoteOnEvent(tick=0, channel=7, data=[71, 100]),
   midi.NoteOnEvent(tick=0, channel=7, data=[68, 100]),
   midi.NoteOnEvent(tick=0, channel=7, data=[44, 100]),
   midi.NoteOnEvent(tick=0, channel=7, data=[63, 100]),
   midi.NoteOnEvent(tick=0, channel=7, data=[51, 100]),
   midi.NoteOnEvent(tick=0, channel=7, data=[56, 100]),
   midi.NoteOnEvent(tick=540, channel=7, data=[56, 0]),
   midi.NoteOnEvent(tick=0, channel=7, data=[71, 0]),
   midi.NoteOnEvent(tick=0, channel=7, data=[32, 0]),
   midi.NoteOnEvent(tick=0, channel=7, data=[68, 0]),
   midi.NoteOnEvent(tick=0, channel=7, data=[75, 0]),
   midi.NoteOnEvent(tick=0, channel=7, data=[59, 0]),
   midi.NoteOnEvent(tick=0, channel=7, data=[63, 0]),
   midi.NoteOnEvent(tick=0, channel=7, data=[44, 0]),
   midi.NoteOnEvent(tick=0, channel=7, data=[51, 0]),
   midi.NoteOnEvent(tick=0, channel=7, data=[56, 100]),
   midi.NoteOnEvent(tick=0, channel=7, data=[40, 100]),
   midi.NoteOnEvent(tick=0, channel=7, data=[56, 100]),
   midi.NoteOnEvent(tick=0, channel=7, data=[59, 100]),
   midi.NoteOnEvent(tick=0, channel=7, data=[63, 100]),
   midi.NoteOnEvent(tick=0, channel=7, data=[68, 100]),
   midi.NoteOnEvent(tick=0, channel=7, data=[71, 100]),
   midi.NoteOnEvent(tick=0, channel=7, data=[75, 100]),
   midi.NoteOnEvent(tick=0, channel=7, data=[47, 100]),
   midi.NoteOnEvent(tick=0, channel=7, data=[52, 100]),
   midi.NoteOnEvent(tick=60, channel=7, data=[56, 0]),
   midi.NoteOnEvent(tick=180, channel=7, data=[59, 0]),
   midi.NoteOnEvent(tick=0, channel=7, data=[63, 0]),
   midi.NoteOnEvent(tick=0, channel=7, data=[40, 0]),
   midi.NoteOnEvent(tick=0, channel=7, data=[68, 0]),
   midi.NoteOnEvent(tick=0, channel=7, data=[56, 0]),
   midi.NoteOnEvent(tick=0, channel=7, data=[47, 0]),
   midi.NoteOnEvent(tick=0, channel=7, data=[75, 0]),
   midi.NoteOnEvent(tick=0, channel=7, data=[71, 0]),
   midi.NoteOnEvent(tick=0, channel=7, data=[52, 0]),
   midi.NoteOnEvent(tick=0, channel=7, data=[73, 100]),
   midi.NoteOnEvent(tick=0, channel=7, data=[66, 100]),
   midi.NoteOnEvent(tick=0, channel=7, data=[54, 100]),
   midi.NoteOnEvent(tick=0, channel=7, data=[49, 100]),
   midi.NoteOnEvent(tick=0, channel=7, data=[58, 100]),
   midi.NoteOnEvent(tick=0, channel=7, data=[42, 100]),
   midi.NoteOnEvent(tick=0, channel=7, data=[61, 100]),
   midi.NoteOnEvent(tick=0, channel=7, data=[68, 100]),
   midi.NoteOnEvent(tick=180, channel=7, data=[68, 0]),
   midi.NoteOnEvent(tick=0, channel=7, data=[73, 0]),
   midi.NoteOnEvent(tick=0, channel=7, data=[58, 0]),
   midi.NoteOnEvent(tick=0, channel=7, data=[66, 0]),
   midi.NoteOnEvent(tick=0, channel=7, data=[54, 0]),
   midi.NoteOnEvent(tick=0, channel=7, data=[49, 0]),
   midi.NoteOnEvent(tick=0, channel=7, data=[42, 0]),
   midi.NoteOnEvent(tick=0, channel=7, data=[61, 0]),
   midi.NoteOnEvent(tick=0, channel=7, data=[44, 100]),
   midi.NoteOnEvent(tick=0, channel=7, data=[51, 100]),
   midi.NoteOnEvent(tick=0, channel=7, data=[56, 100]),
   midi.NoteOnEvent(tick=0, channel=7, data=[63, 100]),
   midi.NoteOnEvent(tick=0, channel=7, data=[68, 100]),
   midi.NoteOnEvent(tick=0, channel=7, data=[75, 100]),
   midi.NoteOnEvent(tick=0, channel=7, data=[59, 100]),
   midi.NoteOnEvent(tick=0, channel=7, data=[71, 100]),
   midi.NoteOnEvent(tick=360, channel=7, data=[71, 0]),
   midi.NoteOnEvent(tick=0, channel=7, data=[44, 0]),
   midi.NoteOnEvent(tick=0, channel=7, data=[68, 0]),
   midi.NoteOnEvent(tick=0, channel=7, data=[51, 0]),
   midi.NoteOnEvent(tick=0, channel=7, data=[56, 0]),
   midi.NoteOnEvent(tick=0, channel=7, data=[63, 0]),
   midi.NoteOnEvent(tick=0, channel=7, data=[75, 0]),
   midi.NoteOnEvent(tick=0, channel=7, data=[59, 0]),
   midi.NoteOnEvent(tick=0, channel=7, data=[44, 100]),
   midi.NoteOnEvent(tick=0, channel=7, data=[51, 100]),
   midi.NoteOnEvent(tick=0, channel=7, data=[56, 100]),
   midi.NoteOnEvent(tick=0, channel=7, data=[63, 100]),
   midi.NoteOnEvent(tick=0, channel=7, data=[68, 100]),
   midi.NoteOnEvent(tick=0, channel=7, data=[75, 100]),
   midi.NoteOnEvent(tick=0, channel=7, data=[71, 100]),
   midi.NoteOnEvent(tick=0, channel=7, data=[59, 100]),
   midi.NoteOnEvent(tick=60, channel=7, data=[59, 0]),
   midi.NoteOnEvent(tick=0, channel=7, data=[44, 0]),
   midi.NoteOnEvent(tick=0, channel=7, data=[68, 0]),
   midi.NoteOnEvent(tick=0, channel=7, data=[51, 0]),
   midi.NoteOnEvent(tick=0, channel=7, data=[56, 0]),
   midi.NoteOnEvent(tick=0, channel=7, data=[63, 0]),
   midi.NoteOnEvent(tick=0, channel=7, data=[75, 0]),
   midi.NoteOnEvent(tick=0, channel=7, data=[71, 0]),
   midi.NoteOnEvent(tick=30, channel=7, data=[51, 100]),
   midi.NoteOnEvent(tick=0, channel=7, data=[44, 100]),
   midi.NoteOnEvent(tick=0, channel=7, data=[75, 100]),
   midi.NoteOnEvent(tick=0, channel=7, data=[71, 100]),
   midi.NoteOnEvent(tick=0, channel=7, data=[68, 100]),
   midi.NoteOnEvent(tick=0, channel=7, data=[63, 100]),
   midi.NoteOnEvent(tick=0, channel=7, data=[59, 100]),
   midi.NoteOnEvent(tick=0, channel=7, data=[56, 100]),
   midi.NoteOnEvent(tick=60, channel=7, data=[56, 0]),
   midi.NoteOnEvent(tick=0, channel=7, data=[51, 0]),
   midi.NoteOnEvent(tick=0, channel=7, data=[68, 0]),
   midi.NoteOnEvent(tick=0, channel=7, data=[44, 0]),
   midi.NoteOnEvent(tick=0, channel=7, data=[75, 0]),
   midi.NoteOnEvent(tick=0, channel=7, data=[71, 0]),
   midi.NoteOnEvent(tick=0, channel=7, data=[63, 0]),
   midi.NoteOnEvent(tick=0, channel=7, data=[59, 0]),
   midi.NoteOnEvent(tick=30, channel=7, data=[40, 100]),
   midi.NoteOnEvent(tick=0, channel=7, data=[56, 100]),
   midi.NoteOnEvent(tick=0, channel=7, data=[59, 100]),
   midi.NoteOnEvent(tick=0, channel=7, data=[63, 100]),
   midi.NoteOnEvent(tick=0, channel=7, data=[68, 100]),
   midi.NoteOnEvent(tick=0, channel=7, data=[71, 100]),
   midi.NoteOnEvent(tick=0, channel=7, data=[52, 100]),
   midi.NoteOnEvent(tick=0, channel=7, data=[47, 100]),
   midi.NoteOnEvent(tick=0, channel=7, data=[75, 100]),
   midi.NoteOnEvent(tick=240, channel=7, data=[75, 0]),
   midi.NoteOnEvent(tick=0, channel=7, data=[63, 0]),
   midi.NoteOnEvent(tick=0, channel=7, data=[40, 0]),
   midi.NoteOnEvent(tick=0, channel=7, data=[68, 0]),
   midi.NoteOnEvent(tick=0, channel=7, data=[56, 0]),
   midi.NoteOnEvent(tick=0, channel=7, data=[59, 0]),
   midi.NoteOnEvent(tick=0, channel=7, data=[52, 0]),
   midi.NoteOnEvent(tick=0, channel=7, data=[71, 0]),
   midi.NoteOnEvent(tick=0, channel=7, data=[47, 0]),
   midi.NoteOnEvent(tick=0, channel=7, data=[73, 100]),
   midi.NoteOnEvent(tick=0, channel=7, data=[54, 100]),
   midi.NoteOnEvent(tick=0, channel=7, data=[66, 100]),
   midi.NoteOnEvent(tick=0, channel=7, data=[58, 100]),
   midi.NoteOnEvent(tick=0, channel=7, data=[42, 100]),
   midi.NoteOnEvent(tick=0, channel=7, data=[49, 100]),
   midi.NoteOnEvent(tick=0, channel=7, data=[68, 100]),
   midi.NoteOnEvent(tick=0, channel=7, data=[61, 100]),
   midi.NoteOnEvent(tick=180, channel=7, data=[61, 0]),
   midi.NoteOnEvent(tick=0, channel=7, data=[73, 0]),
   midi.NoteOnEvent(tick=0, channel=7, data=[42, 0]),
   midi.NoteOnEvent(tick=0, channel=7, data=[54, 0]),
   midi.NoteOnEvent(tick=0, channel=7, data=[66, 0]),
   midi.NoteOnEvent(tick=0, channel=7, data=[58, 0]),
   midi.NoteOnEvent(tick=0, channel=7, data=[49, 0]),
   midi.NoteOnEvent(tick=0, channel=7, data=[68, 0]),
   midi.NoteOnEvent(tick=0, channel=7, data=[44, 100]),
   midi.NoteOnEvent(tick=0, channel=7, data=[51, 100]),
   midi.NoteOnEvent(tick=0, channel=7, data=[56, 100]),
   midi.NoteOnEvent(tick=0, channel=7, data=[59, 100]),
   midi.NoteOnEvent(tick=0, channel=7, data=[63, 100]),
   midi.NoteOnEvent(tick=0, channel=7, data=[68, 100]),
   midi.NoteOnEvent(tick=0, channel=7, data=[71, 100]),
   midi.NoteOnEvent(tick=0, channel=7, data=[75, 100]),
   midi.NoteOnEvent(tick=360, channel=7, data=[75, 0]),
   midi.NoteOnEvent(tick=0, channel=7, data=[44, 0]),
   midi.NoteOnEvent(tick=0, channel=7, data=[63, 0]),
   midi.NoteOnEvent(tick=0, channel=7, data=[51, 0]),
   midi.NoteOnEvent(tick=0, channel=7, data=[56, 0]),
   midi.NoteOnEvent(tick=0, channel=7, data=[59, 0]),
   midi.NoteOnEvent(tick=0, channel=7, data=[68, 0]),
   midi.NoteOnEvent(tick=0, channel=7, data=[71, 0]),
   midi.NoteOnEvent(tick=0, channel=7, data=[37, 100]),
   midi.NoteOnEvent(tick=0, channel=7, data=[44, 100]),
   midi.NoteOnEvent(tick=0, channel=7, data=[49, 100]),
   midi.NoteOnEvent(tick=0, channel=7, data=[56, 100]),
   midi.NoteOnEvent(tick=0, channel=7, data=[59, 100]),
   midi.NoteOnEvent(tick=0, channel=7, data=[63, 100]),
   midi.NoteOnEvent(tick=0, channel=7, data=[66, 100]),
   midi.NoteOnEvent(tick=0, channel=7, data=[71, 100]),
   midi.NoteOnEvent(tick=0, channel=7, data=[75, 100]),
   midi.NoteOnEvent(tick=60, channel=7, data=[75, 0]),
   midi.NoteOnEvent(tick=0, channel=7, data=[56, 0]),
   midi.NoteOnEvent(tick=0, channel=7, data=[37, 0]),
   midi.NoteOnEvent(tick=0, channel=7, data=[59, 0]),
   midi.NoteOnEvent(tick=0, channel=7, data=[44, 0]),
   midi.NoteOnEvent(tick=0, channel=7, data=[49, 0]),
   midi.NoteOnEvent(tick=0, channel=7, data=[66, 0]),
   midi.NoteOnEvent(tick=0, channel=7, data=[63, 0]),
   midi.NoteOnEvent(tick=0, channel=7, data=[71, 0]),
   midi.NoteOnEvent(tick=30, channel=7, data=[37, 100]),
   midi.NoteOnEvent(tick=0, channel=7, data=[44, 100]),
   midi.NoteOnEvent(tick=0, channel=7, data=[49, 100]),
   midi.NoteOnEvent(tick=0, channel=7, data=[56, 100]),
   midi.NoteOnEvent(tick=0, channel=7, data=[59, 100]),
   midi.NoteOnEvent(tick=0, channel=7, data=[63, 100]),
   midi.NoteOnEvent(tick=0, channel=7, data=[66, 100]),
   midi.NoteOnEvent(tick=0, channel=7, data=[71, 100]),
   midi.NoteOnEvent(tick=0, channel=7, data=[75, 100]),
   midi.NoteOnEvent(tick=60, channel=7, data=[75, 0]),
   midi.NoteOnEvent(tick=0, channel=7, data=[56, 0]),
   midi.NoteOnEvent(tick=0, channel=7, data=[37, 0]),
   midi.NoteOnEvent(tick=0, channel=7, data=[59, 0]),
   midi.NoteOnEvent(tick=0, channel=7, data=[44, 0]),
   midi.NoteOnEvent(tick=0, channel=7, data=[49, 0]),
   midi.NoteOnEvent(tick=0, channel=7, data=[66, 0]),
   midi.NoteOnEvent(tick=0, channel=7, data=[63, 0]),
   midi.NoteOnEvent(tick=0, channel=7, data=[71, 0]),
   midi.NoteOnEvent(tick=30, channel=7, data=[75, 100]),
   midi.NoteOnEvent(tick=0, channel=7, data=[47, 100]),
   midi.NoteOnEvent(tick=0, channel=7, data=[52, 100]),
   midi.NoteOnEvent(tick=0, channel=7, data=[40, 100]),
   midi.NoteOnEvent(tick=0, channel=7, data=[56, 100]),
   midi.NoteOnEvent(tick=0, channel=7, data=[63, 100]),
   midi.NoteOnEvent(tick=0, channel=7, data=[68, 100]),
   midi.NoteOnEvent(tick=0, channel=7, data=[71, 100]),
   midi.NoteOnEvent(tick=0, channel=7, data=[59, 100]),
   midi.NoteOnEvent(tick=240, channel=7, data=[59, 0]),
   midi.NoteOnEvent(tick=0, channel=7, data=[40, 0]),
   midi.NoteOnEvent(tick=0, channel=7, data=[75, 0]),
   midi.NoteOnEvent(tick=0, channel=7, data=[56, 0]),
   midi.NoteOnEvent(tick=0, channel=7, data=[47, 0]),
   midi.NoteOnEvent(tick=0, channel=7, data=[52, 0]),
   midi.NoteOnEvent(tick=0, channel=7, data=[68, 0]),
   midi.NoteOnEvent(tick=0, channel=7, data=[63, 0]),
   midi.NoteOnEvent(tick=0, channel=7, data=[71, 0]),
   midi.NoteOnEvent(tick=0, channel=7, data=[61, 100]),
   midi.NoteOnEvent(tick=0, channel=7, data=[42, 100]),
   midi.NoteOnEvent(tick=0, channel=7, data=[68, 100]),
   midi.NoteOnEvent(tick=0, channel=7, data=[73, 100]),
   midi.NoteOnEvent(tick=0, channel=7, data=[66, 100]),
   midi.NoteOnEvent(tick=0, channel=7, data=[49, 100]),
   midi.NoteOnEvent(tick=0, channel=7, data=[54, 100]),
   midi.NoteOnEvent(tick=0, channel=7, data=[58, 100]),
   midi.NoteOnEvent(tick=180, channel=7, data=[58, 0]),
   midi.NoteOnEvent(tick=0, channel=7, data=[61, 0]),
   midi.NoteOnEvent(tick=0, channel=7, data=[66, 0]),
   midi.NoteOnEvent(tick=0, channel=7, data=[42, 0]),
   midi.NoteOnEvent(tick=0, channel=7, data=[68, 0]),
   midi.NoteOnEvent(tick=0, channel=7, data=[73, 0]),
   midi.NoteOnEvent(tick=0, channel=7, data=[49, 0]),
   midi.NoteOnEvent(tick=0, channel=7, data=[54, 0]),
   midi.NoteOnEvent(tick=0, channel=7, data=[71, 100]),
   midi.NoteOnEvent(tick=0, channel=7, data=[68, 100]),
   midi.NoteOnEvent(tick=0, channel=7, data=[56, 100]),
   midi.NoteOnEvent(tick=0, channel=7, data=[51, 100]),
   midi.NoteOnEvent(tick=0, channel=7, data=[44, 100]),
   midi.NoteOnEvent(tick=0, channel=7, data=[63, 100]),
   midi.NoteOnEvent(tick=0, channel=7, data=[75, 100]),
   midi.NoteOnEvent(tick=0, channel=7, data=[59, 100]),
   midi.NoteOnEvent(tick=360, channel=7, data=[59, 0]),
   midi.NoteOnEvent(tick=0, channel=7, data=[71, 0]),
   midi.NoteOnEvent(tick=0, channel=7, data=[44, 0]),
   midi.NoteOnEvent(tick=0, channel=7, data=[68, 0]),
   midi.NoteOnEvent(tick=0, channel=7, data=[56, 0]),
   midi.NoteOnEvent(tick=0, channel=7, data=[51, 0]),
   midi.NoteOnEvent(tick=0, channel=7, data=[63, 0]),
   midi.NoteOnEvent(tick=0, channel=7, data=[75, 0]),
   midi.NoteOnEvent(tick=0, channel=7, data=[51, 100]),
   midi.NoteOnEvent(tick=0, channel=7, data=[75, 100]),
   midi.NoteOnEvent(tick=0, channel=7, data=[44, 100]),
   midi.NoteOnEvent(tick=0, channel=7, data=[63, 100]),
   midi.NoteOnEvent(tick=0, channel=7, data=[59, 100]),
   midi.NoteOnEvent(tick=0, channel=7, data=[56, 100]),
   midi.NoteOnEvent(tick=0, channel=7, data=[68, 100]),
   midi.NoteOnEvent(tick=0, channel=7, data=[71, 100]),
   midi.NoteOnEvent(tick=60, channel=7, data=[71, 0]),
   midi.NoteOnEvent(tick=0, channel=7, data=[51, 0]),
   midi.NoteOnEvent(tick=0, channel=7, data=[59, 0]),
   midi.NoteOnEvent(tick=0, channel=7, data=[75, 0]),
   midi.NoteOnEvent(tick=0, channel=7, data=[44, 0]),
   midi.NoteOnEvent(tick=0, channel=7, data=[63, 0]),
   midi.NoteOnEvent(tick=0, channel=7, data=[56, 0]),
   midi.NoteOnEvent(tick=0, channel=7, data=[68, 0]),
   midi.NoteOnEvent(tick=30, channel=7, data=[68, 100]),
   midi.NoteOnEvent(tick=0, channel=7, data=[63, 100]),
   midi.NoteOnEvent(tick=0, channel=7, data=[44, 100]),
   midi.NoteOnEvent(tick=0, channel=7, data=[51, 100]),
   midi.NoteOnEvent(tick=0, channel=7, data=[59, 100]),
   midi.NoteOnEvent(tick=0, channel=7, data=[56, 100]),
   midi.NoteOnEvent(tick=0, channel=7, data=[75, 100]),
   midi.NoteOnEvent(tick=0, channel=7, data=[71, 100]),
   midi.NoteOnEvent(tick=90, channel=7, data=[71, 0]),
   midi.NoteOnEvent(tick=0, channel=7, data=[68, 0]),
   midi.NoteOnEvent(tick=0, channel=7, data=[59, 0]),
   midi.NoteOnEvent(tick=0, channel=7, data=[63, 0]),
   midi.NoteOnEvent(tick=0, channel=7, data=[44, 0]),
   midi.NoteOnEvent(tick=0, channel=7, data=[51, 0]),
   midi.NoteOnEvent(tick=0, channel=7, data=[56, 0]),
   midi.NoteOnEvent(tick=0, channel=7, data=[75, 0]),
   midi.NoteOnEvent(tick=0, channel=7, data=[59, 100]),
   midi.NoteOnEvent(tick=0, channel=7, data=[56, 100]),
   midi.NoteOnEvent(tick=0, channel=7, data=[68, 100]),
   midi.NoteOnEvent(tick=0, channel=7, data=[63, 100]),
   midi.NoteOnEvent(tick=0, channel=7, data=[40, 100]),
   midi.NoteOnEvent(tick=0, channel=7, data=[71, 100]),
   midi.NoteOnEvent(tick=0, channel=7, data=[75, 100]),
   midi.NoteOnEvent(tick=0, channel=7, data=[47, 100]),
   midi.NoteOnEvent(tick=0, channel=7, data=[52, 100]),
   midi.NoteOnEvent(tick=240, channel=7, data=[52, 0]),
   midi.NoteOnEvent(tick=0, channel=7, data=[63, 0]),
   midi.NoteOnEvent(tick=0, channel=7, data=[59, 0]),
   midi.NoteOnEvent(tick=0, channel=7, data=[40, 0]),
   midi.NoteOnEvent(tick=0, channel=7, data=[56, 0]),
   midi.NoteOnEvent(tick=0, channel=7, data=[68, 0]),
   midi.NoteOnEvent(tick=0, channel=7, data=[75, 0]),
   midi.NoteOnEvent(tick=0, channel=7, data=[71, 0]),
   midi.NoteOnEvent(tick=0, channel=7, data=[47, 0]),
   midi.NoteOnEvent(tick=0, channel=7, data=[58, 100]),
   midi.NoteOnEvent(tick=0, channel=7, data=[68, 100]),
   midi.NoteOnEvent(tick=0, channel=7, data=[49, 100]),
   midi.NoteOnEvent(tick=0, channel=7, data=[61, 100]),
   midi.NoteOnEvent(tick=0, channel=7, data=[54, 100]),
   midi.NoteOnEvent(tick=0, channel=7, data=[73, 100]),
   midi.NoteOnEvent(tick=0, channel=7, data=[42, 100]),
   midi.NoteOnEvent(tick=0, channel=7, data=[66, 100]),
   midi.NoteOnEvent(tick=180, channel=7, data=[66, 0]),
   midi.NoteOnEvent(tick=0, channel=7, data=[58, 0]),
   midi.NoteOnEvent(tick=0, channel=7, data=[54, 0]),
   midi.NoteOnEvent(tick=0, channel=7, data=[68, 0]),
   midi.NoteOnEvent(tick=0, channel=7, data=[49, 0]),
   midi.NoteOnEvent(tick=0, channel=7, data=[61, 0]),
   midi.NoteOnEvent(tick=0, channel=7, data=[73, 0]),
   midi.NoteOnEvent(tick=0, channel=7, data=[42, 0]),
   midi.NoteOnEvent(tick=0, channel=7, data=[51, 100]),
   midi.NoteOnEvent(tick=0, channel=7, data=[56, 100]),
   midi.NoteOnEvent(tick=0, channel=7, data=[75, 100]),
   midi.NoteOnEvent(tick=0, channel=7, data=[68, 100]),
   midi.NoteOnEvent(tick=0, channel=7, data=[63, 100]),
   midi.NoteOnEvent(tick=0, channel=7, data=[44, 100]),
   midi.NoteOnEvent(tick=0, channel=7, data=[71, 100]),
   midi.NoteOnEvent(tick=0, channel=7, data=[59, 100]),
   midi.NoteOnEvent(tick=360, channel=7, data=[59, 0]),
   midi.NoteOnEvent(tick=0, channel=7, data=[51, 0]),
   midi.NoteOnEvent(tick=0, channel=7, data=[63, 0]),
   midi.NoteOnEvent(tick=0, channel=7, data=[56, 0]),
   midi.NoteOnEvent(tick=0, channel=7, data=[75, 0]),
   midi.NoteOnEvent(tick=0, channel=7, data=[68, 0]),
   midi.NoteOnEvent(tick=0, channel=7, data=[44, 0]),
   midi.NoteOnEvent(tick=0, channel=7, data=[71, 0]),
   midi.NoteOnEvent(tick=0, channel=7, data=[71, 100]),
   midi.NoteOnEvent(tick=0, channel=7, data=[63, 100]),
   midi.NoteOnEvent(tick=0, channel=7, data=[56, 100]),
   midi.NoteOnEvent(tick=0, channel=7, data=[68, 100]),
   midi.NoteOnEvent(tick=0, channel=7, data=[51, 100]),
   midi.NoteOnEvent(tick=0, channel=7, data=[59, 100]),
   midi.NoteOnEvent(tick=0, channel=7, data=[75, 100]),
   midi.NoteOnEvent(tick=0, channel=7, data=[44, 100]),
   midi.NoteOnEvent(tick=60, channel=7, data=[44, 0]),
   midi.NoteOnEvent(tick=0, channel=7, data=[71, 0]),
   midi.NoteOnEvent(tick=0, channel=7, data=[51, 0]),
   midi.NoteOnEvent(tick=0, channel=7, data=[63, 0]),
   midi.NoteOnEvent(tick=0, channel=7, data=[56, 0]),
   midi.NoteOnEvent(tick=0, channel=7, data=[68, 0]),
   midi.NoteOnEvent(tick=0, channel=7, data=[59, 0]),
   midi.NoteOnEvent(tick=0, channel=7, data=[75, 0]),
   midi.NoteOnEvent(tick=30, channel=7, data=[44, 100]),
   midi.NoteOnEvent(tick=0, channel=7, data=[56, 100]),
   midi.NoteOnEvent(tick=0, channel=7, data=[75, 100]),
   midi.NoteOnEvent(tick=0, channel=7, data=[63, 100]),
   midi.NoteOnEvent(tick=0, channel=7, data=[68, 100]),
   midi.NoteOnEvent(tick=0, channel=7, data=[71, 100]),
   midi.NoteOnEvent(tick=0, channel=7, data=[59, 100]),
   midi.NoteOnEvent(tick=0, channel=7, data=[51, 100]),
   midi.NoteOnEvent(tick=90, channel=7, data=[51, 0]),
   midi.NoteOnEvent(tick=0, channel=7, data=[44, 0]),
   midi.NoteOnEvent(tick=0, channel=7, data=[68, 0]),
   midi.NoteOnEvent(tick=0, channel=7, data=[56, 0]),
   midi.NoteOnEvent(tick=0, channel=7, data=[75, 0]),
   midi.NoteOnEvent(tick=0, channel=7, data=[63, 0]),
   midi.NoteOnEvent(tick=0, channel=7, data=[71, 0]),
   midi.NoteOnEvent(tick=0, channel=7, data=[59, 0]),
   midi.NoteOnEvent(tick=0, channel=7, data=[52, 100]),
   midi.NoteOnEvent(tick=0, channel=7, data=[59, 100]),
   midi.NoteOnEvent(tick=0, channel=7, data=[56, 100]),
   midi.NoteOnEvent(tick=0, channel=7, data=[68, 100]),
   midi.NoteOnEvent(tick=0, channel=7, data=[75, 100]),
   midi.NoteOnEvent(tick=0, channel=7, data=[71, 100]),
   midi.NoteOnEvent(tick=0, channel=7, data=[40, 100]),
   midi.NoteOnEvent(tick=0, channel=7, data=[63, 100]),
   midi.NoteOnEvent(tick=0, channel=7, data=[47, 100]),
   midi.NoteOnEvent(tick=240, channel=7, data=[47, 0]),
   midi.NoteOnEvent(tick=0, channel=7, data=[68, 0]),
   midi.NoteOnEvent(tick=0, channel=7, data=[52, 0]),
   midi.NoteOnEvent(tick=0, channel=7, data=[75, 0]),
   midi.NoteOnEvent(tick=0, channel=7, data=[59, 0]),
   midi.NoteOnEvent(tick=0, channel=7, data=[56, 0]),
   midi.NoteOnEvent(tick=0, channel=7, data=[40, 0]),
   midi.NoteOnEvent(tick=0, channel=7, data=[71, 0]),
   midi.NoteOnEvent(tick=0, channel=7, data=[63, 0]),
   midi.NoteOnEvent(tick=0, channel=7, data=[58, 100]),
   midi.NoteOnEvent(tick=0, channel=7, data=[61, 100]),
   midi.NoteOnEvent(tick=0, channel=7, data=[49, 100]),
   midi.NoteOnEvent(tick=0, channel=7, data=[42, 100]),
   midi.NoteOnEvent(tick=0, channel=7, data=[54, 100]),
   midi.NoteOnEvent(tick=0, channel=7, data=[66, 100]),
   midi.NoteOnEvent(tick=0, channel=7, data=[68, 100]),
   midi.NoteOnEvent(tick=0, channel=7, data=[73, 100]),
   midi.NoteOnEvent(tick=180, channel=7, data=[73, 0]),
   midi.NoteOnEvent(tick=0, channel=7, data=[58, 0]),
   midi.NoteOnEvent(tick=0, channel=7, data=[54, 0]),
   midi.NoteOnEvent(tick=0, channel=7, data=[61, 0]),
   midi.NoteOnEvent(tick=0, channel=7, data=[49, 0]),
   midi.NoteOnEvent(tick=0, channel=7, data=[42, 0]),
   midi.NoteOnEvent(tick=0, channel=7, data=[66, 0]),
   midi.NoteOnEvent(tick=0, channel=7, data=[68, 0]),
   midi.NoteOnEvent(tick=0, channel=7, data=[51, 100]),
   midi.NoteOnEvent(tick=0, channel=7, data=[56, 100]),
   midi.NoteOnEvent(tick=0, channel=7, data=[75, 100]),
   midi.NoteOnEvent(tick=0, channel=7, data=[59, 100]),
   midi.NoteOnEvent(tick=0, channel=7, data=[71, 100]),
   midi.NoteOnEvent(tick=0, channel=7, data=[44, 100]),
   midi.NoteOnEvent(tick=0, channel=7, data=[68, 100]),
   midi.NoteOnEvent(tick=0, channel=7, data=[63, 100]),
   midi.NoteOnEvent(tick=360, channel=7, data=[63, 0]),
   midi.NoteOnEvent(tick=0, channel=7, data=[51, 0]),
   midi.NoteOnEvent(tick=0, channel=7, data=[71, 0]),
   midi.NoteOnEvent(tick=0, channel=7, data=[56, 0]),
   midi.NoteOnEvent(tick=0, channel=7, data=[75, 0]),
   midi.NoteOnEvent(tick=0, channel=7, data=[59, 0]),
   midi.NoteOnEvent(tick=0, channel=7, data=[44, 0]),
   midi.NoteOnEvent(tick=0, channel=7, data=[68, 0]),
   midi.ControlChangeEvent(tick=7560, channel=7, data=[7, 0]),
   midi.ControlChangeEvent(tick=2, channel=7, data=[7, 1]),
   midi.ControlChangeEvent(tick=3, channel=7, data=[7, 2]),
   midi.ControlChangeEvent(tick=2, channel=7, data=[7, 3]),
   midi.ControlChangeEvent(tick=3, channel=7, data=[7, 4]),
   midi.ControlChangeEvent(tick=2, channel=7, data=[7, 5]),
   midi.ControlChangeEvent(tick=2, channel=7, data=[7, 6]),
   midi.ControlChangeEvent(tick=3, channel=7, data=[7, 7]),
   midi.ControlChangeEvent(tick=2, channel=7, data=[7, 8]),
   midi.ControlChangeEvent(tick=2, channel=7, data=[7, 9]),
   midi.ControlChangeEvent(tick=3, channel=7, data=[7, 10]),
   midi.ControlChangeEvent(tick=2, channel=7, data=[7, 11]),
   midi.ControlChangeEvent(tick=2, channel=7, data=[7, 12]),
   midi.ControlChangeEvent(tick=3, channel=7, data=[7, 13]),
   midi.ControlChangeEvent(tick=2, channel=7, data=[7, 14]),
   midi.ControlChangeEvent(tick=2, channel=7, data=[7, 15]),
   midi.ControlChangeEvent(tick=3, channel=7, data=[7, 16]),
   midi.ControlChangeEvent(tick=2, channel=7, data=[7, 17]),
   midi.ControlChangeEvent(tick=3, channel=7, data=[7, 18]),
   midi.ControlChangeEvent(tick=2, channel=7, data=[7, 19]),
   midi.ControlChangeEvent(tick=2, channel=7, data=[7, 20]),
   midi.ControlChangeEvent(tick=3, channel=7, data=[7, 21]),
   midi.ControlChangeEvent(tick=2, channel=7, data=[7, 22]),
   midi.ControlChangeEvent(tick=2, channel=7, data=[7, 23]),
   midi.ControlChangeEvent(tick=3, channel=7, data=[7, 24]),
   midi.ControlChangeEvent(tick=2, channel=7, data=[7, 25]),
   midi.NoteOnEvent(tick=1, channel=7, data=[63, 100]),
   midi.NoteOnEvent(tick=0, channel=7, data=[52, 100]),
   midi.NoteOnEvent(tick=0, channel=7, data=[47, 100]),
   midi.NoteOnEvent(tick=0, channel=7, data=[75, 100]),
   midi.NoteOnEvent(tick=0, channel=7, data=[71, 100]),
   midi.NoteOnEvent(tick=0, channel=7, data=[68, 100]),
   midi.NoteOnEvent(tick=0, channel=7, data=[59, 100]),
   midi.NoteOnEvent(tick=0, channel=7, data=[40, 100]),
   midi.NoteOnEvent(tick=0, channel=7, data=[56, 100]),
   midi.ControlChangeEvent(tick=1, channel=7, data=[7, 26]),
   midi.ControlChangeEvent(tick=3, channel=7, data=[7, 27]),
   midi.ControlChangeEvent(tick=2, channel=7, data=[7, 28]),
   midi.ControlChangeEvent(tick=3, channel=7, data=[7, 29]),
   midi.ControlChangeEvent(tick=2, channel=7, data=[7, 30]),
   midi.ControlChangeEvent(tick=2, channel=7, data=[7, 31]),
   midi.ControlChangeEvent(tick=3, channel=7, data=[7, 32]),
   midi.ControlChangeEvent(tick=2, channel=7, data=[7, 33]),
   midi.ControlChangeEvent(tick=2, channel=7, data=[7, 34]),
   midi.ControlChangeEvent(tick=3, channel=7, data=[7, 35]),
   midi.ControlChangeEvent(tick=2, channel=7, data=[7, 36]),
   midi.ControlChangeEvent(tick=2, channel=7, data=[7, 37]),
   midi.ControlChangeEvent(tick=3, channel=7, data=[7, 38]),
   midi.ControlChangeEvent(tick=2, channel=7, data=[7, 39]),
   midi.ControlChangeEvent(tick=3, channel=7, data=[7, 40]),
   midi.ControlChangeEvent(tick=2, channel=7, data=[7, 41]),
   midi.ControlChangeEvent(tick=2, channel=7, data=[7, 42]),
   midi.ControlChangeEvent(tick=3, channel=7, data=[7, 43]),
   midi.ControlChangeEvent(tick=2, channel=7, data=[7, 44]),
   midi.ControlChangeEvent(tick=2, channel=7, data=[7, 45]),
   midi.ControlChangeEvent(tick=3, channel=7, data=[7, 46]),
   midi.ControlChangeEvent(tick=2, channel=7, data=[7, 47]),
   midi.ControlChangeEvent(tick=2, channel=7, data=[7, 48]),
   midi.ControlChangeEvent(tick=3, channel=7, data=[7, 49]),
   midi.ControlChangeEvent(tick=2, channel=7, data=[7, 50]),
   midi.ControlChangeEvent(tick=3, channel=7, data=[7, 51]),
   midi.ControlChangeEvent(tick=2, channel=7, data=[7, 52]),
   midi.ControlChangeEvent(tick=2, channel=7, data=[7, 53]),
   midi.ControlChangeEvent(tick=3, channel=7, data=[7, 54]),
   midi.ControlChangeEvent(tick=2, channel=7, data=[7, 55]),
   midi.ControlChangeEvent(tick=2, channel=7, data=[7, 56]),
   midi.ControlChangeEvent(tick=3, channel=7, data=[7, 57]),
   midi.ControlChangeEvent(tick=2, channel=7, data=[7, 58]),
   midi.ControlChangeEvent(tick=2, channel=7, data=[7, 59]),
   midi.ControlChangeEvent(tick=3, channel=7, data=[7, 60]),
   midi.ControlChangeEvent(tick=2, channel=7, data=[7, 61]),
   midi.ControlChangeEvent(tick=3, channel=7, data=[7, 62]),
   midi.ControlChangeEvent(tick=2, channel=7, data=[7, 63]),
   midi.ControlChangeEvent(tick=2, channel=7, data=[7, 64]),
   midi.ControlChangeEvent(tick=3, channel=7, data=[7, 65]),
   midi.ControlChangeEvent(tick=2, channel=7, data=[7, 66]),
   midi.ControlChangeEvent(tick=2, channel=7, data=[7, 67]),
   midi.ControlChangeEvent(tick=3, channel=7, data=[7, 68]),
   midi.ControlChangeEvent(tick=2, channel=7, data=[7, 69]),
   midi.ControlChangeEvent(tick=2, channel=7, data=[7, 70]),
   midi.ControlChangeEvent(tick=3, channel=7, data=[7, 71]),
   midi.ControlChangeEvent(tick=2, channel=7, data=[7, 72]),
   midi.ControlChangeEvent(tick=3, channel=7, data=[7, 73]),
   midi.ControlChangeEvent(tick=2, channel=7, data=[7, 74]),
   midi.ControlChangeEvent(tick=2, channel=7, data=[7, 75]),
   midi.ControlChangeEvent(tick=3, channel=7, data=[7, 76]),
   midi.ControlChangeEvent(tick=2, channel=7, data=[7, 77]),
   midi.ControlChangeEvent(tick=2, channel=7, data=[7, 78]),
   midi.ControlChangeEvent(tick=3, channel=7, data=[7, 79]),
   midi.ControlChangeEvent(tick=2, channel=7, data=[7, 80]),
   midi.ControlChangeEvent(tick=2, channel=7, data=[7, 81]),
   midi.ControlChangeEvent(tick=3, channel=7, data=[7, 82]),
   midi.ControlChangeEvent(tick=2, channel=7, data=[7, 83]),
   midi.ControlChangeEvent(tick=2, channel=7, data=[7, 84]),
   midi.ControlChangeEvent(tick=3, channel=7, data=[7, 85]),
   midi.ControlChangeEvent(tick=2, channel=7, data=[7, 86]),
   midi.ControlChangeEvent(tick=3, channel=7, data=[7, 87]),
   midi.ControlChangeEvent(tick=2, channel=7, data=[7, 88]),
   midi.ControlChangeEvent(tick=2, channel=7, data=[7, 89]),
   midi.ControlChangeEvent(tick=3, channel=7, data=[7, 90]),
   midi.ControlChangeEvent(tick=2, channel=7, data=[7, 91]),
   midi.ControlChangeEvent(tick=2, channel=7, data=[7, 92]),
   midi.ControlChangeEvent(tick=3, channel=7, data=[7, 93]),
   midi.ControlChangeEvent(tick=2, channel=7, data=[7, 94]),
   midi.ControlChangeEvent(tick=2, channel=7, data=[7, 95]),
   midi.ControlChangeEvent(tick=3, channel=7, data=[7, 96]),
   midi.ControlChangeEvent(tick=2, channel=7, data=[7, 97]),
   midi.ControlChangeEvent(tick=3, channel=7, data=[7, 98]),
   midi.ControlChangeEvent(tick=2, channel=7, data=[7, 99]),
   midi.ControlChangeEvent(tick=2, channel=7, data=[7, 100]),
   midi.ControlChangeEvent(tick=3, channel=7, data=[7, 101]),
   midi.ControlChangeEvent(tick=2, channel=7, data=[7, 102]),
   midi.ControlChangeEvent(tick=2, channel=7, data=[7, 103]),
   midi.ControlChangeEvent(tick=3, channel=7, data=[7, 104]),
   midi.ControlChangeEvent(tick=2, channel=7, data=[7, 105]),
   midi.ControlChangeEvent(tick=2, channel=7, data=[7, 106]),
   midi.ControlChangeEvent(tick=3, channel=7, data=[7, 107]),
   midi.ControlChangeEvent(tick=2, channel=7, data=[7, 108]),
   midi.ControlChangeEvent(tick=3, channel=7, data=[7, 109]),
   midi.ControlChangeEvent(tick=2, channel=7, data=[7, 110]),
   midi.ControlChangeEvent(tick=2, channel=7, data=[7, 111]),
   midi.ControlChangeEvent(tick=3, channel=7, data=[7, 112]),
   midi.ControlChangeEvent(tick=2, channel=7, data=[7, 113]),
   midi.ControlChangeEvent(tick=2, channel=7, data=[7, 114]),
   midi.ControlChangeEvent(tick=3, channel=7, data=[7, 115]),
   midi.ControlChangeEvent(tick=2, channel=7, data=[7, 116]),
   midi.ControlChangeEvent(tick=2, channel=7, data=[7, 117]),
   midi.ControlChangeEvent(tick=3, channel=7, data=[7, 118]),
   midi.ControlChangeEvent(tick=2, channel=7, data=[7, 119]),
   midi.ControlChangeEvent(tick=3, channel=7, data=[7, 120]),
   midi.ControlChangeEvent(tick=2, channel=7, data=[7, 121]),
   midi.ControlChangeEvent(tick=2, channel=7, data=[7, 122]),
   midi.ControlChangeEvent(tick=3, channel=7, data=[7, 123]),
   midi.ControlChangeEvent(tick=2, channel=7, data=[7, 124]),
   midi.ControlChangeEvent(tick=2, channel=7, data=[7, 125]),
   midi.ControlChangeEvent(tick=3, channel=7, data=[7, 126]),
   midi.NoteOnEvent(tick=2, channel=7, data=[56, 0]),
   midi.NoteOnEvent(tick=0, channel=7, data=[75, 0]),
   midi.NoteOnEvent(tick=0, channel=7, data=[63, 0]),
   midi.NoteOnEvent(tick=0, channel=7, data=[71, 0]),
   midi.NoteOnEvent(tick=0, channel=7, data=[52, 0]),
   midi.NoteOnEvent(tick=0, channel=7, data=[47, 0]),
   midi.NoteOnEvent(tick=0, channel=7, data=[59, 0]),
   midi.NoteOnEvent(tick=0, channel=7, data=[68, 0]),
   midi.NoteOnEvent(tick=0, channel=7, data=[40, 0]),
   midi.ControlChangeEvent(tick=0, channel=7, data=[7, 100]),
   midi.NoteOnEvent(tick=0, channel=7, data=[40, 100]),
   midi.NoteOnEvent(tick=0, channel=7, data=[56, 100]),
   midi.NoteOnEvent(tick=0, channel=7, data=[59, 100]),
   midi.NoteOnEvent(tick=0, channel=7, data=[63, 100]),
   midi.NoteOnEvent(tick=0, channel=7, data=[68, 100]),
   midi.NoteOnEvent(tick=0, channel=7, data=[71, 100]),
   midi.NoteOnEvent(tick=0, channel=7, data=[75, 100]),
   midi.NoteOnEvent(tick=0, channel=7, data=[47, 100]),
   midi.NoteOnEvent(tick=0, channel=7, data=[52, 100]),
   midi.NoteOnEvent(tick=240, channel=7, data=[52, 0]),
   midi.NoteOnEvent(tick=0, channel=7, data=[63, 0]),
   midi.NoteOnEvent(tick=0, channel=7, data=[40, 0]),
   midi.NoteOnEvent(tick=0, channel=7, data=[68, 0]),
   midi.NoteOnEvent(tick=0, channel=7, data=[56, 0]),
   midi.NoteOnEvent(tick=0, channel=7, data=[59, 0]),
   midi.NoteOnEvent(tick=0, channel=7, data=[75, 0]),
   midi.NoteOnEvent(tick=0, channel=7, data=[71, 0]),
   midi.NoteOnEvent(tick=0, channel=7, data=[47, 0]),
   midi.NoteOnEvent(tick=0, channel=7, data=[73, 100]),
   midi.NoteOnEvent(tick=0, channel=7, data=[66, 100]),
   midi.NoteOnEvent(tick=0, channel=7, data=[54, 100]),
   midi.NoteOnEvent(tick=0, channel=7, data=[49, 100]),
   midi.NoteOnEvent(tick=0, channel=7, data=[58, 100]),
   midi.NoteOnEvent(tick=0, channel=7, data=[42, 100]),
   midi.NoteOnEvent(tick=0, channel=7, data=[61, 100]),
   midi.NoteOnEvent(tick=0, channel=7, data=[68, 100]),
   midi.NoteOnEvent(tick=180, channel=7, data=[68, 0]),
   midi.NoteOnEvent(tick=0, channel=7, data=[73, 0]),
   midi.NoteOnEvent(tick=0, channel=7, data=[58, 0]),
   midi.NoteOnEvent(tick=0, channel=7, data=[66, 0]),
   midi.NoteOnEvent(tick=0, channel=7, data=[54, 0]),
   midi.NoteOnEvent(tick=0, channel=7, data=[49, 0]),
   midi.NoteOnEvent(tick=0, channel=7, data=[42, 0]),
   midi.NoteOnEvent(tick=0, channel=7, data=[61, 0]),
   midi.NoteOnEvent(tick=0, channel=7, data=[44, 100]),
   midi.NoteOnEvent(tick=0, channel=7, data=[51, 100]),
   midi.NoteOnEvent(tick=0, channel=7, data=[56, 100]),
   midi.NoteOnEvent(tick=0, channel=7, data=[63, 100]),
   midi.NoteOnEvent(tick=0, channel=7, data=[68, 100]),
   midi.NoteOnEvent(tick=0, channel=7, data=[75, 100]),
   midi.NoteOnEvent(tick=0, channel=7, data=[59, 100]),
   midi.NoteOnEvent(tick=0, channel=7, data=[71, 100]),
   midi.NoteOnEvent(tick=360, channel=7, data=[71, 0]),
   midi.NoteOnEvent(tick=0, channel=7, data=[44, 0]),
   midi.NoteOnEvent(tick=0, channel=7, data=[68, 0]),
   midi.NoteOnEvent(tick=0, channel=7, data=[51, 0]),
   midi.NoteOnEvent(tick=0, channel=7, data=[56, 0]),
   midi.NoteOnEvent(tick=0, channel=7, data=[63, 0]),
   midi.NoteOnEvent(tick=0, channel=7, data=[75, 0]),
   midi.NoteOnEvent(tick=0, channel=7, data=[59, 0]),
   midi.NoteOnEvent(tick=0, channel=7, data=[44, 100]),
   midi.NoteOnEvent(tick=0, channel=7, data=[51, 100]),
   midi.NoteOnEvent(tick=0, channel=7, data=[56, 100]),
   midi.NoteOnEvent(tick=0, channel=7, data=[63, 100]),
   midi.NoteOnEvent(tick=0, channel=7, data=[68, 100]),
   midi.NoteOnEvent(tick=0, channel=7, data=[75, 100]),
   midi.NoteOnEvent(tick=0, channel=7, data=[71, 100]),
   midi.NoteOnEvent(tick=0, channel=7, data=[59, 100]),
   midi.NoteOnEvent(tick=60, channel=7, data=[59, 0]),
   midi.NoteOnEvent(tick=0, channel=7, data=[44, 0]),
   midi.NoteOnEvent(tick=0, channel=7, data=[68, 0]),
   midi.NoteOnEvent(tick=0, channel=7, data=[51, 0]),
   midi.NoteOnEvent(tick=0, channel=7, data=[56, 0]),
   midi.NoteOnEvent(tick=0, channel=7, data=[63, 0]),
   midi.NoteOnEvent(tick=0, channel=7, data=[75, 0]),
   midi.NoteOnEvent(tick=0, channel=7, data=[71, 0]),
   midi.NoteOnEvent(tick=30, channel=7, data=[51, 100]),
   midi.NoteOnEvent(tick=0, channel=7, data=[44, 100]),
   midi.NoteOnEvent(tick=0, channel=7, data=[75, 100]),
   midi.NoteOnEvent(tick=0, channel=7, data=[71, 100]),
   midi.NoteOnEvent(tick=0, channel=7, data=[68, 100]),
   midi.NoteOnEvent(tick=0, channel=7, data=[63, 100]),
   midi.NoteOnEvent(tick=0, channel=7, data=[59, 100]),
   midi.NoteOnEvent(tick=0, channel=7, data=[56, 100]),
   midi.NoteOnEvent(tick=60, channel=7, data=[56, 0]),
   midi.NoteOnEvent(tick=0, channel=7, data=[51, 0]),
   midi.NoteOnEvent(tick=0, channel=7, data=[68, 0]),
   midi.NoteOnEvent(tick=0, channel=7, data=[44, 0]),
   midi.NoteOnEvent(tick=0, channel=7, data=[75, 0]),
   midi.NoteOnEvent(tick=0, channel=7, data=[71, 0]),
   midi.NoteOnEvent(tick=0, channel=7, data=[63, 0]),
   midi.NoteOnEvent(tick=0, channel=7, data=[59, 0]),
   midi.NoteOnEvent(tick=30, channel=7, data=[40, 100]),
   midi.NoteOnEvent(tick=0, channel=7, data=[56, 100]),
   midi.NoteOnEvent(tick=0, channel=7, data=[59, 100]),
   midi.NoteOnEvent(tick=0, channel=7, data=[63, 100]),
   midi.NoteOnEvent(tick=0, channel=7, data=[68, 100]),
   midi.NoteOnEvent(tick=0, channel=7, data=[71, 100]),
   midi.NoteOnEvent(tick=0, channel=7, data=[52, 100]),
   midi.NoteOnEvent(tick=0, channel=7, data=[47, 100]),
   midi.NoteOnEvent(tick=0, channel=7, data=[75, 100]),
   midi.NoteOnEvent(tick=240, channel=7, data=[75, 0]),
   midi.NoteOnEvent(tick=0, channel=7, data=[63, 0]),
   midi.NoteOnEvent(tick=0, channel=7, data=[40, 0]),
   midi.NoteOnEvent(tick=0, channel=7, data=[68, 0]),
   midi.NoteOnEvent(tick=0, channel=7, data=[56, 0]),
   midi.NoteOnEvent(tick=0, channel=7, data=[59, 0]),
   midi.NoteOnEvent(tick=0, channel=7, data=[52, 0]),
   midi.NoteOnEvent(tick=0, channel=7, data=[71, 0]),
   midi.NoteOnEvent(tick=0, channel=7, data=[47, 0]),
   midi.NoteOnEvent(tick=0, channel=7, data=[73, 100]),
   midi.NoteOnEvent(tick=0, channel=7, data=[54, 100]),
   midi.NoteOnEvent(tick=0, channel=7, data=[66, 100]),
   midi.NoteOnEvent(tick=0, channel=7, data=[58, 100]),
   midi.NoteOnEvent(tick=0, channel=7, data=[42, 100]),
   midi.NoteOnEvent(tick=0, channel=7, data=[49, 100]),
   midi.NoteOnEvent(tick=0, channel=7, data=[68, 100]),
   midi.NoteOnEvent(tick=0, channel=7, data=[61, 100]),
   midi.NoteOnEvent(tick=180, channel=7, data=[61, 0]),
   midi.NoteOnEvent(tick=0, channel=7, data=[73, 0]),
   midi.NoteOnEvent(tick=0, channel=7, data=[42, 0]),
   midi.NoteOnEvent(tick=0, channel=7, data=[54, 0]),
   midi.NoteOnEvent(tick=0, channel=7, data=[66, 0]),
   midi.NoteOnEvent(tick=0, channel=7, data=[58, 0]),
   midi.NoteOnEvent(tick=0, channel=7, data=[49, 0]),
   midi.NoteOnEvent(tick=0, channel=7, data=[68, 0]),
   midi.NoteOnEvent(tick=0, channel=7, data=[44, 100]),
   midi.NoteOnEvent(tick=0, channel=7, data=[51, 100]),
   midi.NoteOnEvent(tick=0, channel=7, data=[56, 100]),
   midi.NoteOnEvent(tick=0, channel=7, data=[59, 100]),
   midi.NoteOnEvent(tick=0, channel=7, data=[63, 100]),
   midi.NoteOnEvent(tick=0, channel=7, data=[68, 100]),
   midi.NoteOnEvent(tick=0, channel=7, data=[71, 100]),
   midi.NoteOnEvent(tick=0, channel=7, data=[75, 100]),
   midi.NoteOnEvent(tick=360, channel=7, data=[75, 0]),
   midi.NoteOnEvent(tick=0, channel=7, data=[44, 0]),
   midi.NoteOnEvent(tick=0, channel=7, data=[63, 0]),
   midi.NoteOnEvent(tick=0, channel=7, data=[51, 0]),
   midi.NoteOnEvent(tick=0, channel=7, data=[56, 0]),
   midi.NoteOnEvent(tick=0, channel=7, data=[59, 0]),
   midi.NoteOnEvent(tick=0, channel=7, data=[68, 0]),
   midi.NoteOnEvent(tick=0, channel=7, data=[71, 0]),
   midi.NoteOnEvent(tick=0, channel=7, data=[37, 100]),
   midi.NoteOnEvent(tick=0, channel=7, data=[44, 100]),
   midi.NoteOnEvent(tick=0, channel=7, data=[49, 100]),
   midi.NoteOnEvent(tick=0, channel=7, data=[56, 100]),
   midi.NoteOnEvent(tick=0, channel=7, data=[59, 100]),
   midi.NoteOnEvent(tick=0, channel=7, data=[63, 100]),
   midi.NoteOnEvent(tick=0, channel=7, data=[66, 100]),
   midi.NoteOnEvent(tick=0, channel=7, data=[71, 100]),
   midi.NoteOnEvent(tick=0, channel=7, data=[75, 100]),
   midi.NoteOnEvent(tick=60, channel=7, data=[75, 0]),
   midi.NoteOnEvent(tick=0, channel=7, data=[56, 0]),
   midi.NoteOnEvent(tick=0, channel=7, data=[37, 0]),
   midi.NoteOnEvent(tick=0, channel=7, data=[59, 0]),
   midi.NoteOnEvent(tick=0, channel=7, data=[44, 0]),
   midi.NoteOnEvent(tick=0, channel=7, data=[49, 0]),
   midi.NoteOnEvent(tick=0, channel=7, data=[66, 0]),
   midi.NoteOnEvent(tick=0, channel=7, data=[63, 0]),
   midi.NoteOnEvent(tick=0, channel=7, data=[71, 0]),
   midi.NoteOnEvent(tick=30, channel=7, data=[37, 100]),
   midi.NoteOnEvent(tick=0, channel=7, data=[44, 100]),
   midi.NoteOnEvent(tick=0, channel=7, data=[49, 100]),
   midi.NoteOnEvent(tick=0, channel=7, data=[56, 100]),
   midi.NoteOnEvent(tick=0, channel=7, data=[59, 100]),
   midi.NoteOnEvent(tick=0, channel=7, data=[63, 100]),
   midi.NoteOnEvent(tick=0, channel=7, data=[66, 100]),
   midi.NoteOnEvent(tick=0, channel=7, data=[71, 100]),
   midi.NoteOnEvent(tick=0, channel=7, data=[75, 100]),
   midi.NoteOnEvent(tick=60, channel=7, data=[75, 0]),
   midi.NoteOnEvent(tick=0, channel=7, data=[56, 0]),
   midi.NoteOnEvent(tick=0, channel=7, data=[37, 0]),
   midi.NoteOnEvent(tick=0, channel=7, data=[59, 0]),
   midi.NoteOnEvent(tick=0, channel=7, data=[44, 0]),
   midi.NoteOnEvent(tick=0, channel=7, data=[49, 0]),
   midi.NoteOnEvent(tick=0, channel=7, data=[66, 0]),
   midi.NoteOnEvent(tick=0, channel=7, data=[63, 0]),
   midi.NoteOnEvent(tick=0, channel=7, data=[71, 0]),
   midi.NoteOnEvent(tick=30, channel=7, data=[75, 100]),
   midi.NoteOnEvent(tick=0, channel=7, data=[47, 100]),
   midi.NoteOnEvent(tick=0, channel=7, data=[52, 100]),
   midi.NoteOnEvent(tick=0, channel=7, data=[40, 100]),
   midi.NoteOnEvent(tick=0, channel=7, data=[56, 100]),
   midi.NoteOnEvent(tick=0, channel=7, data=[63, 100]),
   midi.NoteOnEvent(tick=0, channel=7, data=[68, 100]),
   midi.NoteOnEvent(tick=0, channel=7, data=[71, 100]),
   midi.NoteOnEvent(tick=0, channel=7, data=[59, 100]),
   midi.NoteOnEvent(tick=240, channel=7, data=[59, 0]),
   midi.NoteOnEvent(tick=0, channel=7, data=[40, 0]),
   midi.NoteOnEvent(tick=0, channel=7, data=[75, 0]),
   midi.NoteOnEvent(tick=0, channel=7, data=[56, 0]),
   midi.NoteOnEvent(tick=0, channel=7, data=[47, 0]),
   midi.NoteOnEvent(tick=0, channel=7, data=[52, 0]),
   midi.NoteOnEvent(tick=0, channel=7, data=[68, 0]),
   midi.NoteOnEvent(tick=0, channel=7, data=[63, 0]),
   midi.NoteOnEvent(tick=0, channel=7, data=[71, 0]),
   midi.NoteOnEvent(tick=0, channel=7, data=[61, 100]),
   midi.NoteOnEvent(tick=0, channel=7, data=[42, 100]),
   midi.NoteOnEvent(tick=0, channel=7, data=[68, 100]),
   midi.NoteOnEvent(tick=0, channel=7, data=[73, 100]),
   midi.NoteOnEvent(tick=0, channel=7, data=[66, 100]),
   midi.NoteOnEvent(tick=0, channel=7, data=[49, 100]),
   midi.NoteOnEvent(tick=0, channel=7, data=[54, 100]),
   midi.NoteOnEvent(tick=0, channel=7, data=[58, 100]),
   midi.NoteOnEvent(tick=180, channel=7, data=[58, 0]),
   midi.NoteOnEvent(tick=0, channel=7, data=[61, 0]),
   midi.NoteOnEvent(tick=0, channel=7, data=[66, 0]),
   midi.NoteOnEvent(tick=0, channel=7, data=[42, 0]),
   midi.NoteOnEvent(tick=0, channel=7, data=[68, 0]),
   midi.NoteOnEvent(tick=0, channel=7, data=[73, 0]),
   midi.NoteOnEvent(tick=0, channel=7, data=[49, 0]),
   midi.NoteOnEvent(tick=0, channel=7, data=[54, 0]),
   midi.NoteOnEvent(tick=0, channel=7, data=[71, 100]),
   midi.NoteOnEvent(tick=0, channel=7, data=[68, 100]),
   midi.NoteOnEvent(tick=0, channel=7, data=[56, 100]),
   midi.NoteOnEvent(tick=0, channel=7, data=[51, 100]),
   midi.NoteOnEvent(tick=0, channel=7, data=[44, 100]),
   midi.NoteOnEvent(tick=0, channel=7, data=[63, 100]),
   midi.NoteOnEvent(tick=0, channel=7, data=[75, 100]),
   midi.NoteOnEvent(tick=0, channel=7, data=[59, 100]),
   midi.NoteOnEvent(tick=360, channel=7, data=[59, 0]),
   midi.NoteOnEvent(tick=0, channel=7, data=[71, 0]),
   midi.NoteOnEvent(tick=0, channel=7, data=[44, 0]),
   midi.NoteOnEvent(tick=0, channel=7, data=[68, 0]),
   midi.NoteOnEvent(tick=0, channel=7, data=[56, 0]),
   midi.NoteOnEvent(tick=0, channel=7, data=[51, 0]),
   midi.NoteOnEvent(tick=0, channel=7, data=[63, 0]),
   midi.NoteOnEvent(tick=0, channel=7, data=[75, 0]),
   midi.NoteOnEvent(tick=0, channel=7, data=[51, 100]),
   midi.NoteOnEvent(tick=0, channel=7, data=[75, 100]),
   midi.NoteOnEvent(tick=0, channel=7, data=[44, 100]),
   midi.NoteOnEvent(tick=0, channel=7, data=[63, 100]),
   midi.NoteOnEvent(tick=0, channel=7, data=[59, 100]),
   midi.NoteOnEvent(tick=0, channel=7, data=[56, 100]),
   midi.NoteOnEvent(tick=0, channel=7, data=[68, 100]),
   midi.NoteOnEvent(tick=0, channel=7, data=[71, 100]),
   midi.NoteOnEvent(tick=60, channel=7, data=[71, 0]),
   midi.NoteOnEvent(tick=0, channel=7, data=[51, 0]),
   midi.NoteOnEvent(tick=0, channel=7, data=[59, 0]),
   midi.NoteOnEvent(tick=0, channel=7, data=[75, 0]),
   midi.NoteOnEvent(tick=0, channel=7, data=[44, 0]),
   midi.NoteOnEvent(tick=0, channel=7, data=[63, 0]),
   midi.NoteOnEvent(tick=0, channel=7, data=[56, 0]),
   midi.NoteOnEvent(tick=0, channel=7, data=[68, 0]),
   midi.NoteOnEvent(tick=30, channel=7, data=[68, 100]),
   midi.NoteOnEvent(tick=0, channel=7, data=[63, 100]),
   midi.NoteOnEvent(tick=0, channel=7, data=[44, 100]),
   midi.NoteOnEvent(tick=0, channel=7, data=[51, 100]),
   midi.NoteOnEvent(tick=0, channel=7, data=[59, 100]),
   midi.NoteOnEvent(tick=0, channel=7, data=[56, 100]),
   midi.NoteOnEvent(tick=0, channel=7, data=[75, 100]),
   midi.NoteOnEvent(tick=0, channel=7, data=[71, 100]),
   midi.NoteOnEvent(tick=90, channel=7, data=[71, 0]),
   midi.NoteOnEvent(tick=0, channel=7, data=[68, 0]),
   midi.NoteOnEvent(tick=0, channel=7, data=[59, 0]),
   midi.NoteOnEvent(tick=0, channel=7, data=[63, 0]),
   midi.NoteOnEvent(tick=0, channel=7, data=[44, 0]),
   midi.NoteOnEvent(tick=0, channel=7, data=[51, 0]),
   midi.NoteOnEvent(tick=0, channel=7, data=[56, 0]),
   midi.NoteOnEvent(tick=0, channel=7, data=[75, 0]),
   midi.NoteOnEvent(tick=0, channel=7, data=[59, 100]),
   midi.NoteOnEvent(tick=0, channel=7, data=[56, 100]),
   midi.NoteOnEvent(tick=0, channel=7, data=[68, 100]),
   midi.NoteOnEvent(tick=0, channel=7, data=[63, 100]),
   midi.NoteOnEvent(tick=0, channel=7, data=[40, 100]),
   midi.NoteOnEvent(tick=0, channel=7, data=[71, 100]),
   midi.NoteOnEvent(tick=0, channel=7, data=[75, 100]),
   midi.NoteOnEvent(tick=0, channel=7, data=[47, 100]),
   midi.NoteOnEvent(tick=0, channel=7, data=[52, 100]),
   midi.NoteOnEvent(tick=240, channel=7, data=[52, 0]),
   midi.NoteOnEvent(tick=0, channel=7, data=[63, 0]),
   midi.NoteOnEvent(tick=0, channel=7, data=[59, 0]),
   midi.NoteOnEvent(tick=0, channel=7, data=[40, 0]),
   midi.NoteOnEvent(tick=0, channel=7, data=[56, 0]),
   midi.NoteOnEvent(tick=0, channel=7, data=[68, 0]),
   midi.NoteOnEvent(tick=0, channel=7, data=[75, 0]),
   midi.NoteOnEvent(tick=0, channel=7, data=[71, 0]),
   midi.NoteOnEvent(tick=0, channel=7, data=[47, 0]),
   midi.NoteOnEvent(tick=0, channel=7, data=[58, 100]),
   midi.NoteOnEvent(tick=0, channel=7, data=[68, 100]),
   midi.NoteOnEvent(tick=0, channel=7, data=[49, 100]),
   midi.NoteOnEvent(tick=0, channel=7, data=[61, 100]),
   midi.NoteOnEvent(tick=0, channel=7, data=[54, 100]),
   midi.NoteOnEvent(tick=0, channel=7, data=[73, 100]),
   midi.NoteOnEvent(tick=0, channel=7, data=[42, 100]),
   midi.NoteOnEvent(tick=0, channel=7, data=[66, 100]),
   midi.NoteOnEvent(tick=180, channel=7, data=[66, 0]),
   midi.NoteOnEvent(tick=0, channel=7, data=[58, 0]),
   midi.NoteOnEvent(tick=0, channel=7, data=[54, 0]),
   midi.NoteOnEvent(tick=0, channel=7, data=[68, 0]),
   midi.NoteOnEvent(tick=0, channel=7, data=[49, 0]),
   midi.NoteOnEvent(tick=0, channel=7, data=[61, 0]),
   midi.NoteOnEvent(tick=0, channel=7, data=[73, 0]),
   midi.NoteOnEvent(tick=0, channel=7, data=[42, 0]),
   midi.NoteOnEvent(tick=0, channel=7, data=[59, 100]),
   midi.NoteOnEvent(tick=0, channel=7, data=[71, 100]),
   midi.NoteOnEvent(tick=0, channel=7, data=[44, 100]),
   midi.NoteOnEvent(tick=0, channel=7, data=[68, 100]),
   midi.NoteOnEvent(tick=0, channel=7, data=[75, 100]),
   midi.NoteOnEvent(tick=0, channel=7, data=[56, 100]),
   midi.NoteOnEvent(tick=0, channel=7, data=[51, 100]),
   midi.NoteOnEvent(tick=0, channel=7, data=[63, 100]),
   midi.NoteOnEvent(tick=540, channel=7, data=[63, 0]),
   midi.NoteOnEvent(tick=0, channel=7, data=[59, 0]),
   midi.NoteOnEvent(tick=0, channel=7, data=[75, 0]),
   midi.NoteOnEvent(tick=0, channel=7, data=[71, 0]),
   midi.NoteOnEvent(tick=0, channel=7, data=[44, 0]),
   midi.NoteOnEvent(tick=0, channel=7, data=[68, 0]),
   midi.NoteOnEvent(tick=0, channel=7, data=[56, 0]),
   midi.NoteOnEvent(tick=0, channel=7, data=[51, 0]),
   midi.NoteOnEvent(tick=0, channel=7, data=[40, 100]),
   midi.NoteOnEvent(tick=0, channel=7, data=[56, 100]),
   midi.NoteOnEvent(tick=0, channel=7, data=[59, 100]),
   midi.NoteOnEvent(tick=0, channel=7, data=[63, 100]),
   midi.NoteOnEvent(tick=0, channel=7, data=[68, 100]),
   midi.NoteOnEvent(tick=0, channel=7, data=[71, 100]),
   midi.NoteOnEvent(tick=0, channel=7, data=[75, 100]),
   midi.NoteOnEvent(tick=0, channel=7, data=[47, 100]),
   midi.NoteOnEvent(tick=0, channel=7, data=[52, 100]),
   midi.NoteOnEvent(tick=240, channel=7, data=[52, 0]),
   midi.NoteOnEvent(tick=0, channel=7, data=[63, 0]),
   midi.NoteOnEvent(tick=0, channel=7, data=[40, 0]),
   midi.NoteOnEvent(tick=0, channel=7, data=[68, 0]),
   midi.NoteOnEvent(tick=0, channel=7, data=[56, 0]),
   midi.NoteOnEvent(tick=0, channel=7, data=[59, 0]),
   midi.NoteOnEvent(tick=0, channel=7, data=[75, 0]),
   midi.NoteOnEvent(tick=0, channel=7, data=[71, 0]),
   midi.NoteOnEvent(tick=0, channel=7, data=[47, 0]),
   midi.NoteOnEvent(tick=0, channel=7, data=[73, 100]),
   midi.NoteOnEvent(tick=0, channel=7, data=[66, 100]),
   midi.NoteOnEvent(tick=0, channel=7, data=[54, 100]),
   midi.NoteOnEvent(tick=0, channel=7, data=[49, 100]),
   midi.NoteOnEvent(tick=0, channel=7, data=[58, 100]),
   midi.NoteOnEvent(tick=0, channel=7, data=[42, 100]),
   midi.NoteOnEvent(tick=0, channel=7, data=[61, 100]),
   midi.NoteOnEvent(tick=0, channel=7, data=[68, 100]),
   midi.NoteOnEvent(tick=180, channel=7, data=[68, 0]),
   midi.NoteOnEvent(tick=0, channel=7, data=[73, 0]),
   midi.NoteOnEvent(tick=0, channel=7, data=[58, 0]),
   midi.NoteOnEvent(tick=0, channel=7, data=[66, 0]),
   midi.NoteOnEvent(tick=0, channel=7, data=[54, 0]),
   midi.NoteOnEvent(tick=0, channel=7, data=[49, 0]),
   midi.NoteOnEvent(tick=0, channel=7, data=[42, 0]),
   midi.NoteOnEvent(tick=0, channel=7, data=[61, 0]),
   midi.NoteOnEvent(tick=0, channel=7, data=[44, 100]),
   midi.NoteOnEvent(tick=0, channel=7, data=[51, 100]),
   midi.NoteOnEvent(tick=0, channel=7, data=[56, 100]),
   midi.NoteOnEvent(tick=0, channel=7, data=[63, 100]),
   midi.NoteOnEvent(tick=0, channel=7, data=[68, 100]),
   midi.NoteOnEvent(tick=0, channel=7, data=[75, 100]),
   midi.NoteOnEvent(tick=0, channel=7, data=[59, 100]),
   midi.NoteOnEvent(tick=0, channel=7, data=[71, 100]),
   midi.NoteOnEvent(tick=360, channel=7, data=[71, 0]),
   midi.NoteOnEvent(tick=0, channel=7, data=[44, 0]),
   midi.NoteOnEvent(tick=0, channel=7, data=[68, 0]),
   midi.NoteOnEvent(tick=0, channel=7, data=[51, 0]),
   midi.NoteOnEvent(tick=0, channel=7, data=[56, 0]),
   midi.NoteOnEvent(tick=0, channel=7, data=[63, 0]),
   midi.NoteOnEvent(tick=0, channel=7, data=[75, 0]),
   midi.NoteOnEvent(tick=0, channel=7, data=[59, 0]),
   midi.NoteOnEvent(tick=0, channel=7, data=[44, 100]),
   midi.NoteOnEvent(tick=0, channel=7, data=[51, 100]),
   midi.NoteOnEvent(tick=0, channel=7, data=[56, 100]),
   midi.NoteOnEvent(tick=0, channel=7, data=[63, 100]),
   midi.NoteOnEvent(tick=0, channel=7, data=[68, 100]),
   midi.NoteOnEvent(tick=0, channel=7, data=[75, 100]),
   midi.NoteOnEvent(tick=0, channel=7, data=[71, 100]),
   midi.NoteOnEvent(tick=0, channel=7, data=[59, 100]),
   midi.NoteOnEvent(tick=60, channel=7, data=[59, 0]),
   midi.NoteOnEvent(tick=0, channel=7, data=[44, 0]),
   midi.NoteOnEvent(tick=0, channel=7, data=[68, 0]),
   midi.NoteOnEvent(tick=0, channel=7, data=[51, 0]),
   midi.NoteOnEvent(tick=0, channel=7, data=[56, 0]),
   midi.NoteOnEvent(tick=0, channel=7, data=[63, 0]),
   midi.NoteOnEvent(tick=0, channel=7, data=[75, 0]),
   midi.NoteOnEvent(tick=0, channel=7, data=[71, 0]),
   midi.NoteOnEvent(tick=30, channel=7, data=[51, 100]),
   midi.NoteOnEvent(tick=0, channel=7, data=[44, 100]),
   midi.NoteOnEvent(tick=0, channel=7, data=[75, 100]),
   midi.NoteOnEvent(tick=0, channel=7, data=[71, 100]),
   midi.NoteOnEvent(tick=0, channel=7, data=[68, 100]),
   midi.NoteOnEvent(tick=0, channel=7, data=[63, 100]),
   midi.NoteOnEvent(tick=0, channel=7, data=[59, 100]),
   midi.NoteOnEvent(tick=0, channel=7, data=[56, 100]),
   midi.NoteOnEvent(tick=60, channel=7, data=[56, 0]),
   midi.NoteOnEvent(tick=0, channel=7, data=[51, 0]),
   midi.NoteOnEvent(tick=0, channel=7, data=[68, 0]),
   midi.NoteOnEvent(tick=0, channel=7, data=[44, 0]),
   midi.NoteOnEvent(tick=0, channel=7, data=[75, 0]),
   midi.NoteOnEvent(tick=0, channel=7, data=[71, 0]),
   midi.NoteOnEvent(tick=0, channel=7, data=[63, 0]),
   midi.NoteOnEvent(tick=0, channel=7, data=[59, 0]),
   midi.NoteOnEvent(tick=30, channel=7, data=[40, 100]),
   midi.NoteOnEvent(tick=0, channel=7, data=[56, 100]),
   midi.NoteOnEvent(tick=0, channel=7, data=[59, 100]),
   midi.NoteOnEvent(tick=0, channel=7, data=[63, 100]),
   midi.NoteOnEvent(tick=0, channel=7, data=[68, 100]),
   midi.NoteOnEvent(tick=0, channel=7, data=[71, 100]),
   midi.NoteOnEvent(tick=0, channel=7, data=[52, 100]),
   midi.NoteOnEvent(tick=0, channel=7, data=[47, 100]),
   midi.NoteOnEvent(tick=0, channel=7, data=[75, 100]),
   midi.NoteOnEvent(tick=240, channel=7, data=[75, 0]),
   midi.NoteOnEvent(tick=0, channel=7, data=[63, 0]),
   midi.NoteOnEvent(tick=0, channel=7, data=[40, 0]),
   midi.NoteOnEvent(tick=0, channel=7, data=[68, 0]),
   midi.NoteOnEvent(tick=0, channel=7, data=[56, 0]),
   midi.NoteOnEvent(tick=0, channel=7, data=[59, 0]),
   midi.NoteOnEvent(tick=0, channel=7, data=[52, 0]),
   midi.NoteOnEvent(tick=0, channel=7, data=[71, 0]),
   midi.NoteOnEvent(tick=0, channel=7, data=[47, 0]),
   midi.NoteOnEvent(tick=0, channel=7, data=[73, 100]),
   midi.NoteOnEvent(tick=0, channel=7, data=[54, 100]),
   midi.NoteOnEvent(tick=0, channel=7, data=[66, 100]),
   midi.NoteOnEvent(tick=0, channel=7, data=[58, 100]),
   midi.NoteOnEvent(tick=0, channel=7, data=[42, 100]),
   midi.NoteOnEvent(tick=0, channel=7, data=[49, 100]),
   midi.NoteOnEvent(tick=0, channel=7, data=[68, 100]),
   midi.NoteOnEvent(tick=0, channel=7, data=[61, 100]),
   midi.NoteOnEvent(tick=180, channel=7, data=[61, 0]),
   midi.NoteOnEvent(tick=0, channel=7, data=[73, 0]),
   midi.NoteOnEvent(tick=0, channel=7, data=[42, 0]),
   midi.NoteOnEvent(tick=0, channel=7, data=[54, 0]),
   midi.NoteOnEvent(tick=0, channel=7, data=[66, 0]),
   midi.NoteOnEvent(tick=0, channel=7, data=[58, 0]),
   midi.NoteOnEvent(tick=0, channel=7, data=[49, 0]),
   midi.NoteOnEvent(tick=0, channel=7, data=[68, 0]),
   midi.NoteOnEvent(tick=0, channel=7, data=[44, 100]),
   midi.NoteOnEvent(tick=0, channel=7, data=[51, 100]),
   midi.NoteOnEvent(tick=0, channel=7, data=[56, 100]),
   midi.NoteOnEvent(tick=0, channel=7, data=[59, 100]),
   midi.NoteOnEvent(tick=0, channel=7, data=[63, 100]),
   midi.NoteOnEvent(tick=0, channel=7, data=[68, 100]),
   midi.NoteOnEvent(tick=0, channel=7, data=[71, 100]),
   midi.NoteOnEvent(tick=0, channel=7, data=[75, 100]),
   midi.NoteOnEvent(tick=360, channel=7, data=[75, 0]),
   midi.NoteOnEvent(tick=0, channel=7, data=[44, 0]),
   midi.NoteOnEvent(tick=0, channel=7, data=[63, 0]),
   midi.NoteOnEvent(tick=0, channel=7, data=[51, 0]),
   midi.NoteOnEvent(tick=0, channel=7, data=[56, 0]),
   midi.NoteOnEvent(tick=0, channel=7, data=[59, 0]),
   midi.NoteOnEvent(tick=0, channel=7, data=[68, 0]),
   midi.NoteOnEvent(tick=0, channel=7, data=[71, 0]),
   midi.NoteOnEvent(tick=0, channel=7, data=[37, 100]),
   midi.NoteOnEvent(tick=0, channel=7, data=[44, 100]),
   midi.NoteOnEvent(tick=0, channel=7, data=[49, 100]),
   midi.NoteOnEvent(tick=0, channel=7, data=[56, 100]),
   midi.NoteOnEvent(tick=0, channel=7, data=[59, 100]),
   midi.NoteOnEvent(tick=0, channel=7, data=[63, 100]),
   midi.NoteOnEvent(tick=0, channel=7, data=[66, 100]),
   midi.NoteOnEvent(tick=0, channel=7, data=[71, 100]),
   midi.NoteOnEvent(tick=0, channel=7, data=[75, 100]),
   midi.NoteOnEvent(tick=60, channel=7, data=[75, 0]),
   midi.NoteOnEvent(tick=0, channel=7, data=[56, 0]),
   midi.NoteOnEvent(tick=0, channel=7, data=[37, 0]),
   midi.NoteOnEvent(tick=0, channel=7, data=[59, 0]),
   midi.NoteOnEvent(tick=0, channel=7, data=[44, 0]),
   midi.NoteOnEvent(tick=0, channel=7, data=[49, 0]),
   midi.NoteOnEvent(tick=0, channel=7, data=[66, 0]),
   midi.NoteOnEvent(tick=0, channel=7, data=[63, 0]),
   midi.NoteOnEvent(tick=0, channel=7, data=[71, 0]),
   midi.NoteOnEvent(tick=30, channel=7, data=[37, 100]),
   midi.NoteOnEvent(tick=0, channel=7, data=[44, 100]),
   midi.NoteOnEvent(tick=0, channel=7, data=[49, 100]),
   midi.NoteOnEvent(tick=0, channel=7, data=[56, 100]),
   midi.NoteOnEvent(tick=0, channel=7, data=[59, 100]),
   midi.NoteOnEvent(tick=0, channel=7, data=[63, 100]),
   midi.NoteOnEvent(tick=0, channel=7, data=[66, 100]),
   midi.NoteOnEvent(tick=0, channel=7, data=[71, 100]),
   midi.NoteOnEvent(tick=0, channel=7, data=[75, 100]),
   midi.NoteOnEvent(tick=60, channel=7, data=[75, 0]),
   midi.NoteOnEvent(tick=0, channel=7, data=[56, 0]),
   midi.NoteOnEvent(tick=0, channel=7, data=[37, 0]),
   midi.NoteOnEvent(tick=0, channel=7, data=[59, 0]),
   midi.NoteOnEvent(tick=0, channel=7, data=[44, 0]),
   midi.NoteOnEvent(tick=0, channel=7, data=[49, 0]),
   midi.NoteOnEvent(tick=0, channel=7, data=[66, 0]),
   midi.NoteOnEvent(tick=0, channel=7, data=[63, 0]),
   midi.NoteOnEvent(tick=0, channel=7, data=[71, 0]),
   midi.NoteOnEvent(tick=30, channel=7, data=[75, 100]),
   midi.NoteOnEvent(tick=0, channel=7, data=[47, 100]),
   midi.NoteOnEvent(tick=0, channel=7, data=[52, 100]),
   midi.NoteOnEvent(tick=0, channel=7, data=[40, 100]),
   midi.NoteOnEvent(tick=0, channel=7, data=[56, 100]),
   midi.NoteOnEvent(tick=0, channel=7, data=[63, 100]),
   midi.NoteOnEvent(tick=0, channel=7, data=[68, 100]),
   midi.NoteOnEvent(tick=0, channel=7, data=[71, 100]),
   midi.NoteOnEvent(tick=0, channel=7, data=[59, 100]),
   midi.NoteOnEvent(tick=240, channel=7, data=[59, 0]),
   midi.NoteOnEvent(tick=0, channel=7, data=[40, 0]),
   midi.NoteOnEvent(tick=0, channel=7, data=[75, 0]),
   midi.NoteOnEvent(tick=0, channel=7, data=[56, 0]),
   midi.NoteOnEvent(tick=0, channel=7, data=[47, 0]),
   midi.NoteOnEvent(tick=0, channel=7, data=[52, 0]),
   midi.NoteOnEvent(tick=0, channel=7, data=[68, 0]),
   midi.NoteOnEvent(tick=0, channel=7, data=[63, 0]),
   midi.NoteOnEvent(tick=0, channel=7, data=[71, 0]),
   midi.NoteOnEvent(tick=0, channel=7, data=[61, 100]),
   midi.NoteOnEvent(tick=0, channel=7, data=[42, 100]),
   midi.NoteOnEvent(tick=0, channel=7, data=[68, 100]),
   midi.NoteOnEvent(tick=0, channel=7, data=[73, 100]),
   midi.NoteOnEvent(tick=0, channel=7, data=[66, 100]),
   midi.NoteOnEvent(tick=0, channel=7, data=[49, 100]),
   midi.NoteOnEvent(tick=0, channel=7, data=[54, 100]),
   midi.NoteOnEvent(tick=0, channel=7, data=[58, 100]),
   midi.NoteOnEvent(tick=180, channel=7, data=[58, 0]),
   midi.NoteOnEvent(tick=0, channel=7, data=[61, 0]),
   midi.NoteOnEvent(tick=0, channel=7, data=[66, 0]),
   midi.NoteOnEvent(tick=0, channel=7, data=[42, 0]),
   midi.NoteOnEvent(tick=0, channel=7, data=[68, 0]),
   midi.NoteOnEvent(tick=0, channel=7, data=[73, 0]),
   midi.NoteOnEvent(tick=0, channel=7, data=[49, 0]),
   midi.NoteOnEvent(tick=0, channel=7, data=[54, 0]),
   midi.NoteOnEvent(tick=0, channel=7, data=[71, 100]),
   midi.NoteOnEvent(tick=0, channel=7, data=[68, 100]),
   midi.NoteOnEvent(tick=0, channel=7, data=[56, 100]),
   midi.NoteOnEvent(tick=0, channel=7, data=[51, 100]),
   midi.NoteOnEvent(tick=0, channel=7, data=[44, 100]),
   midi.NoteOnEvent(tick=0, channel=7, data=[63, 100]),
   midi.NoteOnEvent(tick=0, channel=7, data=[75, 100]),
   midi.NoteOnEvent(tick=0, channel=7, data=[59, 100]),
   midi.NoteOnEvent(tick=360, channel=7, data=[59, 0]),
   midi.NoteOnEvent(tick=0, channel=7, data=[71, 0]),
   midi.NoteOnEvent(tick=0, channel=7, data=[44, 0]),
   midi.NoteOnEvent(tick=0, channel=7, data=[68, 0]),
   midi.NoteOnEvent(tick=0, channel=7, data=[56, 0]),
   midi.NoteOnEvent(tick=0, channel=7, data=[51, 0]),
   midi.NoteOnEvent(tick=0, channel=7, data=[63, 0]),
   midi.NoteOnEvent(tick=0, channel=7, data=[75, 0]),
   midi.NoteOnEvent(tick=0, channel=7, data=[51, 100]),
   midi.NoteOnEvent(tick=0, channel=7, data=[75, 100]),
   midi.NoteOnEvent(tick=0, channel=7, data=[44, 100]),
   midi.NoteOnEvent(tick=0, channel=7, data=[63, 100]),
   midi.NoteOnEvent(tick=0, channel=7, data=[59, 100]),
   midi.NoteOnEvent(tick=0, channel=7, data=[56, 100]),
   midi.NoteOnEvent(tick=0, channel=7, data=[68, 100]),
   midi.NoteOnEvent(tick=0, channel=7, data=[71, 100]),
   midi.NoteOnEvent(tick=60, channel=7, data=[71, 0]),
   midi.NoteOnEvent(tick=0, channel=7, data=[51, 0]),
   midi.NoteOnEvent(tick=0, channel=7, data=[59, 0]),
   midi.NoteOnEvent(tick=0, channel=7, data=[75, 0]),
   midi.NoteOnEvent(tick=0, channel=7, data=[44, 0]),
   midi.NoteOnEvent(tick=0, channel=7, data=[63, 0]),
   midi.NoteOnEvent(tick=0, channel=7, data=[56, 0]),
   midi.NoteOnEvent(tick=0, channel=7, data=[68, 0]),
   midi.NoteOnEvent(tick=30, channel=7, data=[68, 100]),
   midi.NoteOnEvent(tick=0, channel=7, data=[63, 100]),
   midi.NoteOnEvent(tick=0, channel=7, data=[44, 100]),
   midi.NoteOnEvent(tick=0, channel=7, data=[51, 100]),
   midi.NoteOnEvent(tick=0, channel=7, data=[59, 100]),
   midi.NoteOnEvent(tick=0, channel=7, data=[56, 100]),
   midi.NoteOnEvent(tick=0, channel=7, data=[75, 100]),
   midi.NoteOnEvent(tick=0, channel=7, data=[71, 100]),
   midi.NoteOnEvent(tick=90, channel=7, data=[71, 0]),
   midi.NoteOnEvent(tick=0, channel=7, data=[68, 0]),
   midi.NoteOnEvent(tick=0, channel=7, data=[59, 0]),
   midi.NoteOnEvent(tick=0, channel=7, data=[63, 0]),
   midi.NoteOnEvent(tick=0, channel=7, data=[44, 0]),
   midi.NoteOnEvent(tick=0, channel=7, data=[51, 0]),
   midi.NoteOnEvent(tick=0, channel=7, data=[56, 0]),
   midi.NoteOnEvent(tick=0, channel=7, data=[75, 0]),
   midi.NoteOnEvent(tick=0, channel=7, data=[59, 100]),
   midi.NoteOnEvent(tick=0, channel=7, data=[56, 100]),
   midi.NoteOnEvent(tick=0, channel=7, data=[68, 100]),
   midi.NoteOnEvent(tick=0, channel=7, data=[63, 100]),
   midi.NoteOnEvent(tick=0, channel=7, data=[40, 100]),
   midi.NoteOnEvent(tick=0, channel=7, data=[71, 100]),
   midi.NoteOnEvent(tick=0, channel=7, data=[75, 100]),
   midi.NoteOnEvent(tick=0, channel=7, data=[47, 100]),
   midi.NoteOnEvent(tick=0, channel=7, data=[52, 100]),
   midi.NoteOnEvent(tick=240, channel=7, data=[52, 0]),
   midi.NoteOnEvent(tick=0, channel=7, data=[63, 0]),
   midi.NoteOnEvent(tick=0, channel=7, data=[59, 0]),
   midi.NoteOnEvent(tick=0, channel=7, data=[40, 0]),
   midi.NoteOnEvent(tick=0, channel=7, data=[56, 0]),
   midi.NoteOnEvent(tick=0, channel=7, data=[68, 0]),
   midi.NoteOnEvent(tick=0, channel=7, data=[75, 0]),
   midi.NoteOnEvent(tick=0, channel=7, data=[71, 0]),
   midi.NoteOnEvent(tick=0, channel=7, data=[47, 0]),
   midi.NoteOnEvent(tick=0, channel=7, data=[58, 100]),
   midi.NoteOnEvent(tick=0, channel=7, data=[68, 100]),
   midi.NoteOnEvent(tick=0, channel=7, data=[49, 100]),
   midi.NoteOnEvent(tick=0, channel=7, data=[61, 100]),
   midi.NoteOnEvent(tick=0, channel=7, data=[54, 100]),
   midi.NoteOnEvent(tick=0, channel=7, data=[73, 100]),
   midi.NoteOnEvent(tick=0, channel=7, data=[42, 100]),
   midi.NoteOnEvent(tick=0, channel=7, data=[66, 100]),
   midi.NoteOnEvent(tick=180, channel=7, data=[66, 0]),
   midi.NoteOnEvent(tick=0, channel=7, data=[58, 0]),
   midi.NoteOnEvent(tick=0, channel=7, data=[54, 0]),
   midi.NoteOnEvent(tick=0, channel=7, data=[68, 0]),
   midi.NoteOnEvent(tick=0, channel=7, data=[49, 0]),
   midi.NoteOnEvent(tick=0, channel=7, data=[61, 0]),
   midi.NoteOnEvent(tick=0, channel=7, data=[73, 0]),
   midi.NoteOnEvent(tick=0, channel=7, data=[42, 0]),
   midi.NoteOnEvent(tick=0, channel=7, data=[51, 100]),
   midi.NoteOnEvent(tick=0, channel=7, data=[56, 100]),
   midi.NoteOnEvent(tick=0, channel=7, data=[75, 100]),
   midi.NoteOnEvent(tick=0, channel=7, data=[68, 100]),
   midi.NoteOnEvent(tick=0, channel=7, data=[63, 100]),
   midi.NoteOnEvent(tick=0, channel=7, data=[44, 100]),
   midi.NoteOnEvent(tick=0, channel=7, data=[71, 100]),
   midi.NoteOnEvent(tick=0, channel=7, data=[59, 100]),
   midi.NoteOnEvent(tick=360, channel=7, data=[59, 0]),
   midi.NoteOnEvent(tick=0, channel=7, data=[51, 0]),
   midi.NoteOnEvent(tick=0, channel=7, data=[63, 0]),
   midi.NoteOnEvent(tick=0, channel=7, data=[56, 0]),
   midi.NoteOnEvent(tick=0, channel=7, data=[75, 0]),
   midi.NoteOnEvent(tick=0, channel=7, data=[68, 0]),
   midi.NoteOnEvent(tick=0, channel=7, data=[44, 0]),
   midi.NoteOnEvent(tick=0, channel=7, data=[71, 0]),
   midi.NoteOnEvent(tick=0, channel=7, data=[71, 100]),
   midi.NoteOnEvent(tick=0, channel=7, data=[63, 100]),
   midi.NoteOnEvent(tick=0, channel=7, data=[56, 100]),
   midi.NoteOnEvent(tick=0, channel=7, data=[68, 100]),
   midi.NoteOnEvent(tick=0, channel=7, data=[51, 100]),
   midi.NoteOnEvent(tick=0, channel=7, data=[59, 100]),
   midi.NoteOnEvent(tick=0, channel=7, data=[75, 100]),
   midi.NoteOnEvent(tick=0, channel=7, data=[44, 100]),
   midi.NoteOnEvent(tick=60, channel=7, data=[44, 0]),
   midi.NoteOnEvent(tick=0, channel=7, data=[71, 0]),
   midi.NoteOnEvent(tick=0, channel=7, data=[51, 0]),
   midi.NoteOnEvent(tick=0, channel=7, data=[63, 0]),
   midi.NoteOnEvent(tick=0, channel=7, data=[56, 0]),
   midi.NoteOnEvent(tick=0, channel=7, data=[68, 0]),
   midi.NoteOnEvent(tick=0, channel=7, data=[59, 0]),
   midi.NoteOnEvent(tick=0, channel=7, data=[75, 0]),
   midi.NoteOnEvent(tick=30, channel=7, data=[44, 100]),
   midi.NoteOnEvent(tick=0, channel=7, data=[56, 100]),
   midi.NoteOnEvent(tick=0, channel=7, data=[75, 100]),
   midi.NoteOnEvent(tick=0, channel=7, data=[63, 100]),
   midi.NoteOnEvent(tick=0, channel=7, data=[68, 100]),
   midi.NoteOnEvent(tick=0, channel=7, data=[71, 100]),
   midi.NoteOnEvent(tick=0, channel=7, data=[59, 100]),
   midi.NoteOnEvent(tick=0, channel=7, data=[51, 100]),
   midi.NoteOnEvent(tick=90, channel=7, data=[51, 0]),
   midi.NoteOnEvent(tick=0, channel=7, data=[44, 0]),
   midi.NoteOnEvent(tick=0, channel=7, data=[68, 0]),
   midi.NoteOnEvent(tick=0, channel=7, data=[56, 0]),
   midi.NoteOnEvent(tick=0, channel=7, data=[75, 0]),
   midi.NoteOnEvent(tick=0, channel=7, data=[63, 0]),
   midi.NoteOnEvent(tick=0, channel=7, data=[71, 0]),
   midi.NoteOnEvent(tick=0, channel=7, data=[59, 0]),
   midi.NoteOnEvent(tick=0, channel=7, data=[52, 100]),
   midi.NoteOnEvent(tick=0, channel=7, data=[59, 100]),
   midi.NoteOnEvent(tick=0, channel=7, data=[56, 100]),
   midi.NoteOnEvent(tick=0, channel=7, data=[68, 100]),
   midi.NoteOnEvent(tick=0, channel=7, data=[75, 100]),
   midi.NoteOnEvent(tick=0, channel=7, data=[71, 100]),
   midi.NoteOnEvent(tick=0, channel=7, data=[40, 100]),
   midi.NoteOnEvent(tick=0, channel=7, data=[63, 100]),
   midi.NoteOnEvent(tick=0, channel=7, data=[47, 100]),
   midi.NoteOnEvent(tick=240, channel=7, data=[47, 0]),
   midi.NoteOnEvent(tick=0, channel=7, data=[68, 0]),
   midi.NoteOnEvent(tick=0, channel=7, data=[52, 0]),
   midi.NoteOnEvent(tick=0, channel=7, data=[75, 0]),
   midi.NoteOnEvent(tick=0, channel=7, data=[59, 0]),
   midi.NoteOnEvent(tick=0, channel=7, data=[56, 0]),
   midi.NoteOnEvent(tick=0, channel=7, data=[40, 0]),
   midi.NoteOnEvent(tick=0, channel=7, data=[71, 0]),
   midi.NoteOnEvent(tick=0, channel=7, data=[63, 0]),
   midi.NoteOnEvent(tick=0, channel=7, data=[58, 100]),
   midi.NoteOnEvent(tick=0, channel=7, data=[61, 100]),
   midi.NoteOnEvent(tick=0, channel=7, data=[49, 100]),
   midi.NoteOnEvent(tick=0, channel=7, data=[42, 100]),
   midi.NoteOnEvent(tick=0, channel=7, data=[54, 100]),
   midi.NoteOnEvent(tick=0, channel=7, data=[66, 100]),
   midi.NoteOnEvent(tick=0, channel=7, data=[68, 100]),
   midi.NoteOnEvent(tick=0, channel=7, data=[73, 100]),
   midi.NoteOnEvent(tick=180, channel=7, data=[73, 0]),
   midi.NoteOnEvent(tick=0, channel=7, data=[58, 0]),
   midi.NoteOnEvent(tick=0, channel=7, data=[54, 0]),
   midi.NoteOnEvent(tick=0, channel=7, data=[61, 0]),
   midi.NoteOnEvent(tick=0, channel=7, data=[49, 0]),
   midi.NoteOnEvent(tick=0, channel=7, data=[42, 0]),
   midi.NoteOnEvent(tick=0, channel=7, data=[66, 0]),
   midi.NoteOnEvent(tick=0, channel=7, data=[68, 0]),
   midi.NoteOnEvent(tick=0, channel=7, data=[51, 100]),
   midi.NoteOnEvent(tick=0, channel=7, data=[56, 100]),
   midi.NoteOnEvent(tick=0, channel=7, data=[75, 100]),
   midi.NoteOnEvent(tick=0, channel=7, data=[59, 100]),
   midi.NoteOnEvent(tick=0, channel=7, data=[71, 100]),
   midi.NoteOnEvent(tick=0, channel=7, data=[44, 100]),
   midi.NoteOnEvent(tick=0, channel=7, data=[68, 100]),
   midi.NoteOnEvent(tick=0, channel=7, data=[63, 100]),
   midi.NoteOnEvent(tick=360, channel=7, data=[63, 0]),
   midi.NoteOnEvent(tick=0, channel=7, data=[51, 0]),
   midi.NoteOnEvent(tick=0, channel=7, data=[71, 0]),
   midi.NoteOnEvent(tick=0, channel=7, data=[56, 0]),
   midi.NoteOnEvent(tick=0, channel=7, data=[75, 0]),
   midi.NoteOnEvent(tick=0, channel=7, data=[59, 0]),
   midi.NoteOnEvent(tick=0, channel=7, data=[44, 0]),
   midi.NoteOnEvent(tick=0, channel=7, data=[68, 0]),
   midi.ControlChangeEvent(tick=7560, channel=7, data=[7, 0]),
   midi.ControlChangeEvent(tick=2, channel=7, data=[7, 1]),
   midi.ControlChangeEvent(tick=3, channel=7, data=[7, 2]),
   midi.ControlChangeEvent(tick=2, channel=7, data=[7, 3]),
   midi.ControlChangeEvent(tick=3, channel=7, data=[7, 4]),
   midi.ControlChangeEvent(tick=2, channel=7, data=[7, 5]),
   midi.ControlChangeEvent(tick=2, channel=7, data=[7, 6]),
   midi.ControlChangeEvent(tick=3, channel=7, data=[7, 7]),
   midi.ControlChangeEvent(tick=2, channel=7, data=[7, 8]),
   midi.ControlChangeEvent(tick=2, channel=7, data=[7, 9]),
   midi.ControlChangeEvent(tick=3, channel=7, data=[7, 10]),
   midi.ControlChangeEvent(tick=2, channel=7, data=[7, 11]),
   midi.ControlChangeEvent(tick=2, channel=7, data=[7, 12]),
   midi.ControlChangeEvent(tick=3, channel=7, data=[7, 13]),
   midi.ControlChangeEvent(tick=2, channel=7, data=[7, 14]),
   midi.ControlChangeEvent(tick=2, channel=7, data=[7, 15]),
   midi.ControlChangeEvent(tick=3, channel=7, data=[7, 16]),
   midi.ControlChangeEvent(tick=2, channel=7, data=[7, 17]),
   midi.ControlChangeEvent(tick=3, channel=7, data=[7, 18]),
   midi.ControlChangeEvent(tick=2, channel=7, data=[7, 19]),
   midi.ControlChangeEvent(tick=2, channel=7, data=[7, 20]),
   midi.ControlChangeEvent(tick=3, channel=7, data=[7, 21]),
   midi.ControlChangeEvent(tick=2, channel=7, data=[7, 22]),
   midi.ControlChangeEvent(tick=2, channel=7, data=[7, 23]),
   midi.ControlChangeEvent(tick=3, channel=7, data=[7, 24]),
   midi.ControlChangeEvent(tick=2, channel=7, data=[7, 25]),
   midi.NoteOnEvent(tick=1, channel=7, data=[63, 100]),
   midi.NoteOnEvent(tick=0, channel=7, data=[52, 100]),
   midi.NoteOnEvent(tick=0, channel=7, data=[47, 100]),
   midi.NoteOnEvent(tick=0, channel=7, data=[75, 100]),
   midi.NoteOnEvent(tick=0, channel=7, data=[71, 100]),
   midi.NoteOnEvent(tick=0, channel=7, data=[68, 100]),
   midi.NoteOnEvent(tick=0, channel=7, data=[59, 100]),
   midi.NoteOnEvent(tick=0, channel=7, data=[40, 100]),
   midi.NoteOnEvent(tick=0, channel=7, data=[56, 100]),
   midi.ControlChangeEvent(tick=1, channel=7, data=[7, 26]),
   midi.ControlChangeEvent(tick=3, channel=7, data=[7, 27]),
   midi.ControlChangeEvent(tick=2, channel=7, data=[7, 28]),
   midi.ControlChangeEvent(tick=3, channel=7, data=[7, 29]),
   midi.ControlChangeEvent(tick=2, channel=7, data=[7, 30]),
   midi.ControlChangeEvent(tick=2, channel=7, data=[7, 31]),
   midi.ControlChangeEvent(tick=3, channel=7, data=[7, 32]),
   midi.ControlChangeEvent(tick=2, channel=7, data=[7, 33]),
   midi.ControlChangeEvent(tick=2, channel=7, data=[7, 34]),
   midi.ControlChangeEvent(tick=3, channel=7, data=[7, 35]),
   midi.ControlChangeEvent(tick=2, channel=7, data=[7, 36]),
   midi.ControlChangeEvent(tick=2, channel=7, data=[7, 37]),
   midi.ControlChangeEvent(tick=3, channel=7, data=[7, 38]),
   midi.ControlChangeEvent(tick=2, channel=7, data=[7, 39]),
   midi.ControlChangeEvent(tick=3, channel=7, data=[7, 40]),
   midi.ControlChangeEvent(tick=2, channel=7, data=[7, 41]),
   midi.ControlChangeEvent(tick=2, channel=7, data=[7, 42]),
   midi.ControlChangeEvent(tick=3, channel=7, data=[7, 43]),
   midi.ControlChangeEvent(tick=2, channel=7, data=[7, 44]),
   midi.ControlChangeEvent(tick=2, channel=7, data=[7, 45]),
   midi.ControlChangeEvent(tick=3, channel=7, data=[7, 46]),
   midi.ControlChangeEvent(tick=2, channel=7, data=[7, 47]),
   midi.ControlChangeEvent(tick=2, channel=7, data=[7, 48]),
   midi.ControlChangeEvent(tick=3, channel=7, data=[7, 49]),
   midi.ControlChangeEvent(tick=2, channel=7, data=[7, 50]),
   midi.ControlChangeEvent(tick=3, channel=7, data=[7, 51]),
   midi.ControlChangeEvent(tick=2, channel=7, data=[7, 52]),
   midi.ControlChangeEvent(tick=2, channel=7, data=[7, 53]),
   midi.ControlChangeEvent(tick=3, channel=7, data=[7, 54]),
   midi.ControlChangeEvent(tick=2, channel=7, data=[7, 55]),
   midi.ControlChangeEvent(tick=2, channel=7, data=[7, 56]),
   midi.ControlChangeEvent(tick=3, channel=7, data=[7, 57]),
   midi.ControlChangeEvent(tick=2, channel=7, data=[7, 58]),
   midi.ControlChangeEvent(tick=2, channel=7, data=[7, 59]),
   midi.ControlChangeEvent(tick=3, channel=7, data=[7, 60]),
   midi.ControlChangeEvent(tick=2, channel=7, data=[7, 61]),
   midi.ControlChangeEvent(tick=3, channel=7, data=[7, 62]),
   midi.ControlChangeEvent(tick=2, channel=7, data=[7, 63]),
   midi.ControlChangeEvent(tick=2, channel=7, data=[7, 64]),
   midi.ControlChangeEvent(tick=3, channel=7, data=[7, 65]),
   midi.ControlChangeEvent(tick=2, channel=7, data=[7, 66]),
   midi.ControlChangeEvent(tick=2, channel=7, data=[7, 67]),
   midi.ControlChangeEvent(tick=3, channel=7, data=[7, 68]),
   midi.ControlChangeEvent(tick=2, channel=7, data=[7, 69]),
   midi.ControlChangeEvent(tick=2, channel=7, data=[7, 70]),
   midi.ControlChangeEvent(tick=3, channel=7, data=[7, 71]),
   midi.ControlChangeEvent(tick=2, channel=7, data=[7, 72]),
   midi.ControlChangeEvent(tick=3, channel=7, data=[7, 73]),
   midi.ControlChangeEvent(tick=2, channel=7, data=[7, 74]),
   midi.ControlChangeEvent(tick=2, channel=7, data=[7, 75]),
   midi.ControlChangeEvent(tick=3, channel=7, data=[7, 76]),
   midi.ControlChangeEvent(tick=2, channel=7, data=[7, 77]),
   midi.ControlChangeEvent(tick=2, channel=7, data=[7, 78]),
   midi.ControlChangeEvent(tick=3, channel=7, data=[7, 79]),
   midi.ControlChangeEvent(tick=2, channel=7, data=[7, 80]),
   midi.ControlChangeEvent(tick=2, channel=7, data=[7, 81]),
   midi.ControlChangeEvent(tick=3, channel=7, data=[7, 82]),
   midi.ControlChangeEvent(tick=2, channel=7, data=[7, 83]),
   midi.ControlChangeEvent(tick=2, channel=7, data=[7, 84]),
   midi.ControlChangeEvent(tick=3, channel=7, data=[7, 85]),
   midi.ControlChangeEvent(tick=2, channel=7, data=[7, 86]),
   midi.ControlChangeEvent(tick=3, channel=7, data=[7, 87]),
   midi.ControlChangeEvent(tick=2, channel=7, data=[7, 88]),
   midi.ControlChangeEvent(tick=2, channel=7, data=[7, 89]),
   midi.ControlChangeEvent(tick=3, channel=7, data=[7, 90]),
   midi.ControlChangeEvent(tick=2, channel=7, data=[7, 91]),
   midi.ControlChangeEvent(tick=2, channel=7, data=[7, 92]),
   midi.ControlChangeEvent(tick=3, channel=7, data=[7, 93]),
   midi.ControlChangeEvent(tick=2, channel=7, data=[7, 94]),
   midi.ControlChangeEvent(tick=2, channel=7, data=[7, 95]),
   midi.ControlChangeEvent(tick=3, channel=7, data=[7, 96]),
   midi.ControlChangeEvent(tick=2, channel=7, data=[7, 97]),
   midi.ControlChangeEvent(tick=3, channel=7, data=[7, 98]),
   midi.ControlChangeEvent(tick=2, channel=7, data=[7, 99]),
   midi.ControlChangeEvent(tick=2, channel=7, data=[7, 100]),
   midi.ControlChangeEvent(tick=3, channel=7, data=[7, 101]),
   midi.ControlChangeEvent(tick=2, channel=7, data=[7, 102]),
   midi.ControlChangeEvent(tick=2, channel=7, data=[7, 103]),
   midi.ControlChangeEvent(tick=3, channel=7, data=[7, 104]),
   midi.ControlChangeEvent(tick=2, channel=7, data=[7, 105]),
   midi.ControlChangeEvent(tick=2, channel=7, data=[7, 106]),
   midi.ControlChangeEvent(tick=3, channel=7, data=[7, 107]),
   midi.ControlChangeEvent(tick=2, channel=7, data=[7, 108]),
   midi.ControlChangeEvent(tick=3, channel=7, data=[7, 109]),
   midi.ControlChangeEvent(tick=2, channel=7, data=[7, 110]),
   midi.ControlChangeEvent(tick=2, channel=7, data=[7, 111]),
   midi.ControlChangeEvent(tick=3, channel=7, data=[7, 112]),
   midi.ControlChangeEvent(tick=2, channel=7, data=[7, 113]),
   midi.ControlChangeEvent(tick=2, channel=7, data=[7, 114]),
   midi.ControlChangeEvent(tick=3, channel=7, data=[7, 115]),
   midi.ControlChangeEvent(tick=2, channel=7, data=[7, 116]),
   midi.ControlChangeEvent(tick=2, channel=7, data=[7, 117]),
   midi.ControlChangeEvent(tick=3, channel=7, data=[7, 118]),
   midi.ControlChangeEvent(tick=2, channel=7, data=[7, 119]),
   midi.ControlChangeEvent(tick=3, channel=7, data=[7, 120]),
   midi.ControlChangeEvent(tick=2, channel=7, data=[7, 121]),
   midi.ControlChangeEvent(tick=2, channel=7, data=[7, 122]),
   midi.ControlChangeEvent(tick=3, channel=7, data=[7, 123]),
   midi.ControlChangeEvent(tick=2, channel=7, data=[7, 124]),
   midi.ControlChangeEvent(tick=2, channel=7, data=[7, 125]),
   midi.ControlChangeEvent(tick=3, channel=7, data=[7, 126]),
   midi.NoteOnEvent(tick=2, channel=7, data=[56, 0]),
   midi.NoteOnEvent(tick=0, channel=7, data=[75, 0]),
   midi.NoteOnEvent(tick=0, channel=7, data=[63, 0]),
   midi.NoteOnEvent(tick=0, channel=7, data=[71, 0]),
   midi.NoteOnEvent(tick=0, channel=7, data=[52, 0]),
   midi.NoteOnEvent(tick=0, channel=7, data=[47, 0]),
   midi.NoteOnEvent(tick=0, channel=7, data=[59, 0]),
   midi.NoteOnEvent(tick=0, channel=7, data=[68, 0]),
   midi.NoteOnEvent(tick=0, channel=7, data=[40, 0]),
   midi.ControlChangeEvent(tick=0, channel=7, data=[7, 100]),
   midi.NoteOnEvent(tick=0, channel=7, data=[40, 100]),
   midi.NoteOnEvent(tick=0, channel=7, data=[56, 100]),
   midi.NoteOnEvent(tick=0, channel=7, data=[59, 100]),
   midi.NoteOnEvent(tick=0, channel=7, data=[63, 100]),
   midi.NoteOnEvent(tick=0, channel=7, data=[68, 100]),
   midi.NoteOnEvent(tick=0, channel=7, data=[71, 100]),
   midi.NoteOnEvent(tick=0, channel=7, data=[75, 100]),
   midi.NoteOnEvent(tick=0, channel=7, data=[47, 100]),
   midi.NoteOnEvent(tick=0, channel=7, data=[52, 100]),
   midi.NoteOnEvent(tick=240, channel=7, data=[52, 0]),
   midi.NoteOnEvent(tick=0, channel=7, data=[63, 0]),
   midi.NoteOnEvent(tick=0, channel=7, data=[40, 0]),
   midi.NoteOnEvent(tick=0, channel=7, data=[68, 0]),
   midi.NoteOnEvent(tick=0, channel=7, data=[56, 0]),
   midi.NoteOnEvent(tick=0, channel=7, data=[59, 0]),
   midi.NoteOnEvent(tick=0, channel=7, data=[75, 0]),
   midi.NoteOnEvent(tick=0, channel=7, data=[71, 0]),
   midi.NoteOnEvent(tick=0, channel=7, data=[47, 0]),
   midi.NoteOnEvent(tick=0, channel=7, data=[73, 100]),
   midi.NoteOnEvent(tick=0, channel=7, data=[66, 100]),
   midi.NoteOnEvent(tick=0, channel=7, data=[54, 100]),
   midi.NoteOnEvent(tick=0, channel=7, data=[49, 100]),
   midi.NoteOnEvent(tick=0, channel=7, data=[58, 100]),
   midi.NoteOnEvent(tick=0, channel=7, data=[42, 100]),
   midi.NoteOnEvent(tick=0, channel=7, data=[61, 100]),
   midi.NoteOnEvent(tick=0, channel=7, data=[68, 100]),
   midi.NoteOnEvent(tick=180, channel=7, data=[68, 0]),
   midi.NoteOnEvent(tick=0, channel=7, data=[73, 0]),
   midi.NoteOnEvent(tick=0, channel=7, data=[58, 0]),
   midi.NoteOnEvent(tick=0, channel=7, data=[66, 0]),
   midi.NoteOnEvent(tick=0, channel=7, data=[54, 0]),
   midi.NoteOnEvent(tick=0, channel=7, data=[49, 0]),
   midi.NoteOnEvent(tick=0, channel=7, data=[42, 0]),
   midi.NoteOnEvent(tick=0, channel=7, data=[61, 0]),
   midi.NoteOnEvent(tick=0, channel=7, data=[44, 100]),
   midi.NoteOnEvent(tick=0, channel=7, data=[51, 100]),
   midi.NoteOnEvent(tick=0, channel=7, data=[56, 100]),
   midi.NoteOnEvent(tick=0, channel=7, data=[63, 100]),
   midi.NoteOnEvent(tick=0, channel=7, data=[68, 100]),
   midi.NoteOnEvent(tick=0, channel=7, data=[75, 100]),
   midi.NoteOnEvent(tick=0, channel=7, data=[59, 100]),
   midi.NoteOnEvent(tick=0, channel=7, data=[71, 100]),
   midi.NoteOnEvent(tick=360, channel=7, data=[71, 0]),
   midi.NoteOnEvent(tick=0, channel=7, data=[44, 0]),
   midi.NoteOnEvent(tick=0, channel=7, data=[68, 0]),
   midi.NoteOnEvent(tick=0, channel=7, data=[51, 0]),
   midi.NoteOnEvent(tick=0, channel=7, data=[56, 0]),
   midi.NoteOnEvent(tick=0, channel=7, data=[63, 0]),
   midi.NoteOnEvent(tick=0, channel=7, data=[75, 0]),
   midi.NoteOnEvent(tick=0, channel=7, data=[59, 0]),
   midi.NoteOnEvent(tick=0, channel=7, data=[44, 100]),
   midi.NoteOnEvent(tick=0, channel=7, data=[51, 100]),
   midi.NoteOnEvent(tick=0, channel=7, data=[56, 100]),
   midi.NoteOnEvent(tick=0, channel=7, data=[63, 100]),
   midi.NoteOnEvent(tick=0, channel=7, data=[68, 100]),
   midi.NoteOnEvent(tick=0, channel=7, data=[75, 100]),
   midi.NoteOnEvent(tick=0, channel=7, data=[71, 100]),
   midi.NoteOnEvent(tick=0, channel=7, data=[59, 100]),
   midi.NoteOnEvent(tick=60, channel=7, data=[59, 0]),
   midi.NoteOnEvent(tick=0, channel=7, data=[44, 0]),
   midi.NoteOnEvent(tick=0, channel=7, data=[68, 0]),
   midi.NoteOnEvent(tick=0, channel=7, data=[51, 0]),
   midi.NoteOnEvent(tick=0, channel=7, data=[56, 0]),
   midi.NoteOnEvent(tick=0, channel=7, data=[63, 0]),
   midi.NoteOnEvent(tick=0, channel=7, data=[75, 0]),
   midi.NoteOnEvent(tick=0, channel=7, data=[71, 0]),
   midi.NoteOnEvent(tick=30, channel=7, data=[51, 100]),
   midi.NoteOnEvent(tick=0, channel=7, data=[44, 100]),
   midi.NoteOnEvent(tick=0, channel=7, data=[75, 100]),
   midi.NoteOnEvent(tick=0, channel=7, data=[71, 100]),
   midi.NoteOnEvent(tick=0, channel=7, data=[68, 100]),
   midi.NoteOnEvent(tick=0, channel=7, data=[63, 100]),
   midi.NoteOnEvent(tick=0, channel=7, data=[59, 100]),
   midi.NoteOnEvent(tick=0, channel=7, data=[56, 100]),
   midi.NoteOnEvent(tick=60, channel=7, data=[56, 0]),
   midi.NoteOnEvent(tick=0, channel=7, data=[51, 0]),
   midi.NoteOnEvent(tick=0, channel=7, data=[68, 0]),
   midi.NoteOnEvent(tick=0, channel=7, data=[44, 0]),
   midi.NoteOnEvent(tick=0, channel=7, data=[75, 0]),
   midi.NoteOnEvent(tick=0, channel=7, data=[71, 0]),
   midi.NoteOnEvent(tick=0, channel=7, data=[63, 0]),
   midi.NoteOnEvent(tick=0, channel=7, data=[59, 0]),
   midi.NoteOnEvent(tick=30, channel=7, data=[40, 100]),
   midi.NoteOnEvent(tick=0, channel=7, data=[56, 100]),
   midi.NoteOnEvent(tick=0, channel=7, data=[59, 100]),
   midi.NoteOnEvent(tick=0, channel=7, data=[63, 100]),
   midi.NoteOnEvent(tick=0, channel=7, data=[68, 100]),
   midi.NoteOnEvent(tick=0, channel=7, data=[71, 100]),
   midi.NoteOnEvent(tick=0, channel=7, data=[52, 100]),
   midi.NoteOnEvent(tick=0, channel=7, data=[47, 100]),
   midi.NoteOnEvent(tick=0, channel=7, data=[75, 100]),
   midi.NoteOnEvent(tick=240, channel=7, data=[75, 0]),
   midi.NoteOnEvent(tick=0, channel=7, data=[63, 0]),
   midi.NoteOnEvent(tick=0, channel=7, data=[40, 0]),
   midi.NoteOnEvent(tick=0, channel=7, data=[68, 0]),
   midi.NoteOnEvent(tick=0, channel=7, data=[56, 0]),
   midi.NoteOnEvent(tick=0, channel=7, data=[59, 0]),
   midi.NoteOnEvent(tick=0, channel=7, data=[52, 0]),
   midi.NoteOnEvent(tick=0, channel=7, data=[71, 0]),
   midi.NoteOnEvent(tick=0, channel=7, data=[47, 0]),
   midi.NoteOnEvent(tick=0, channel=7, data=[73, 100]),
   midi.NoteOnEvent(tick=0, channel=7, data=[54, 100]),
   midi.NoteOnEvent(tick=0, channel=7, data=[66, 100]),
   midi.NoteOnEvent(tick=0, channel=7, data=[58, 100]),
   midi.NoteOnEvent(tick=0, channel=7, data=[42, 100]),
   midi.NoteOnEvent(tick=0, channel=7, data=[49, 100]),
   midi.NoteOnEvent(tick=0, channel=7, data=[68, 100]),
   midi.NoteOnEvent(tick=0, channel=7, data=[61, 100]),
   midi.NoteOnEvent(tick=180, channel=7, data=[61, 0]),
   midi.NoteOnEvent(tick=0, channel=7, data=[73, 0]),
   midi.NoteOnEvent(tick=0, channel=7, data=[42, 0]),
   midi.NoteOnEvent(tick=0, channel=7, data=[54, 0]),
   midi.NoteOnEvent(tick=0, channel=7, data=[66, 0]),
   midi.NoteOnEvent(tick=0, channel=7, data=[58, 0]),
   midi.NoteOnEvent(tick=0, channel=7, data=[49, 0]),
   midi.NoteOnEvent(tick=0, channel=7, data=[68, 0]),
   midi.NoteOnEvent(tick=0, channel=7, data=[44, 100]),
   midi.NoteOnEvent(tick=0, channel=7, data=[51, 100]),
   midi.NoteOnEvent(tick=0, channel=7, data=[56, 100]),
   midi.NoteOnEvent(tick=0, channel=7, data=[59, 100]),
   midi.NoteOnEvent(tick=0, channel=7, data=[63, 100]),
   midi.NoteOnEvent(tick=0, channel=7, data=[68, 100]),
   midi.NoteOnEvent(tick=0, channel=7, data=[71, 100]),
   midi.NoteOnEvent(tick=0, channel=7, data=[75, 100]),
   midi.NoteOnEvent(tick=360, channel=7, data=[75, 0]),
   midi.NoteOnEvent(tick=0, channel=7, data=[44, 0]),
   midi.NoteOnEvent(tick=0, channel=7, data=[63, 0]),
   midi.NoteOnEvent(tick=0, channel=7, data=[51, 0]),
   midi.NoteOnEvent(tick=0, channel=7, data=[56, 0]),
   midi.NoteOnEvent(tick=0, channel=7, data=[59, 0]),
   midi.NoteOnEvent(tick=0, channel=7, data=[68, 0]),
   midi.NoteOnEvent(tick=0, channel=7, data=[71, 0]),
   midi.NoteOnEvent(tick=0, channel=7, data=[37, 100]),
   midi.NoteOnEvent(tick=0, channel=7, data=[44, 100]),
   midi.NoteOnEvent(tick=0, channel=7, data=[49, 100]),
   midi.NoteOnEvent(tick=0, channel=7, data=[56, 100]),
   midi.NoteOnEvent(tick=0, channel=7, data=[59, 100]),
   midi.NoteOnEvent(tick=0, channel=7, data=[63, 100]),
   midi.NoteOnEvent(tick=0, channel=7, data=[66, 100]),
   midi.NoteOnEvent(tick=0, channel=7, data=[71, 100]),
   midi.NoteOnEvent(tick=0, channel=7, data=[75, 100]),
   midi.NoteOnEvent(tick=60, channel=7, data=[75, 0]),
   midi.NoteOnEvent(tick=0, channel=7, data=[56, 0]),
   midi.NoteOnEvent(tick=0, channel=7, data=[37, 0]),
   midi.NoteOnEvent(tick=0, channel=7, data=[59, 0]),
   midi.NoteOnEvent(tick=0, channel=7, data=[44, 0]),
   midi.NoteOnEvent(tick=0, channel=7, data=[49, 0]),
   midi.NoteOnEvent(tick=0, channel=7, data=[66, 0]),
   midi.NoteOnEvent(tick=0, channel=7, data=[63, 0]),
   midi.NoteOnEvent(tick=0, channel=7, data=[71, 0]),
   midi.NoteOnEvent(tick=30, channel=7, data=[37, 100]),
   midi.NoteOnEvent(tick=0, channel=7, data=[44, 100]),
   midi.NoteOnEvent(tick=0, channel=7, data=[49, 100]),
   midi.NoteOnEvent(tick=0, channel=7, data=[56, 100]),
   midi.NoteOnEvent(tick=0, channel=7, data=[59, 100]),
   midi.NoteOnEvent(tick=0, channel=7, data=[63, 100]),
   midi.NoteOnEvent(tick=0, channel=7, data=[66, 100]),
   midi.NoteOnEvent(tick=0, channel=7, data=[71, 100]),
   midi.NoteOnEvent(tick=0, channel=7, data=[75, 100]),
   midi.NoteOnEvent(tick=60, channel=7, data=[75, 0]),
   midi.NoteOnEvent(tick=0, channel=7, data=[56, 0]),
   midi.NoteOnEvent(tick=0, channel=7, data=[37, 0]),
   midi.NoteOnEvent(tick=0, channel=7, data=[59, 0]),
   midi.NoteOnEvent(tick=0, channel=7, data=[44, 0]),
   midi.NoteOnEvent(tick=0, channel=7, data=[49, 0]),
   midi.NoteOnEvent(tick=0, channel=7, data=[66, 0]),
   midi.NoteOnEvent(tick=0, channel=7, data=[63, 0]),
   midi.NoteOnEvent(tick=0, channel=7, data=[71, 0]),
   midi.NoteOnEvent(tick=30, channel=7, data=[75, 100]),
   midi.NoteOnEvent(tick=0, channel=7, data=[47, 100]),
   midi.NoteOnEvent(tick=0, channel=7, data=[52, 100]),
   midi.NoteOnEvent(tick=0, channel=7, data=[40, 100]),
   midi.NoteOnEvent(tick=0, channel=7, data=[56, 100]),
   midi.NoteOnEvent(tick=0, channel=7, data=[63, 100]),
   midi.NoteOnEvent(tick=0, channel=7, data=[68, 100]),
   midi.NoteOnEvent(tick=0, channel=7, data=[71, 100]),
   midi.NoteOnEvent(tick=0, channel=7, data=[59, 100]),
   midi.NoteOnEvent(tick=240, channel=7, data=[59, 0]),
   midi.NoteOnEvent(tick=0, channel=7, data=[40, 0]),
   midi.NoteOnEvent(tick=0, channel=7, data=[75, 0]),
   midi.NoteOnEvent(tick=0, channel=7, data=[56, 0]),
   midi.NoteOnEvent(tick=0, channel=7, data=[47, 0]),
   midi.NoteOnEvent(tick=0, channel=7, data=[52, 0]),
   midi.NoteOnEvent(tick=0, channel=7, data=[68, 0]),
   midi.NoteOnEvent(tick=0, channel=7, data=[63, 0]),
   midi.NoteOnEvent(tick=0, channel=7, data=[71, 0]),
   midi.NoteOnEvent(tick=0, channel=7, data=[61, 100]),
   midi.NoteOnEvent(tick=0, channel=7, data=[42, 100]),
   midi.NoteOnEvent(tick=0, channel=7, data=[68, 100]),
   midi.NoteOnEvent(tick=0, channel=7, data=[73, 100]),
   midi.NoteOnEvent(tick=0, channel=7, data=[66, 100]),
   midi.NoteOnEvent(tick=0, channel=7, data=[49, 100]),
   midi.NoteOnEvent(tick=0, channel=7, data=[54, 100]),
   midi.NoteOnEvent(tick=0, channel=7, data=[58, 100]),
   midi.NoteOnEvent(tick=180, channel=7, data=[58, 0]),
   midi.NoteOnEvent(tick=0, channel=7, data=[61, 0]),
   midi.NoteOnEvent(tick=0, channel=7, data=[66, 0]),
   midi.NoteOnEvent(tick=0, channel=7, data=[42, 0]),
   midi.NoteOnEvent(tick=0, channel=7, data=[68, 0]),
   midi.NoteOnEvent(tick=0, channel=7, data=[73, 0]),
   midi.NoteOnEvent(tick=0, channel=7, data=[49, 0]),
   midi.NoteOnEvent(tick=0, channel=7, data=[54, 0]),
   midi.NoteOnEvent(tick=0, channel=7, data=[71, 100]),
   midi.NoteOnEvent(tick=0, channel=7, data=[68, 100]),
   midi.NoteOnEvent(tick=0, channel=7, data=[56, 100]),
   midi.NoteOnEvent(tick=0, channel=7, data=[51, 100]),
   midi.NoteOnEvent(tick=0, channel=7, data=[44, 100]),
   midi.NoteOnEvent(tick=0, channel=7, data=[63, 100]),
   midi.NoteOnEvent(tick=0, channel=7, data=[75, 100]),
   midi.NoteOnEvent(tick=0, channel=7, data=[59, 100]),
   midi.NoteOnEvent(tick=360, channel=7, data=[59, 0]),
   midi.NoteOnEvent(tick=0, channel=7, data=[71, 0]),
   midi.NoteOnEvent(tick=0, channel=7, data=[44, 0]),
   midi.NoteOnEvent(tick=0, channel=7, data=[68, 0]),
   midi.NoteOnEvent(tick=0, channel=7, data=[56, 0]),
   midi.NoteOnEvent(tick=0, channel=7, data=[51, 0]),
   midi.NoteOnEvent(tick=0, channel=7, data=[63, 0]),
   midi.NoteOnEvent(tick=0, channel=7, data=[75, 0]),
   midi.NoteOnEvent(tick=0, channel=7, data=[51, 100]),
   midi.NoteOnEvent(tick=0, channel=7, data=[75, 100]),
   midi.NoteOnEvent(tick=0, channel=7, data=[44, 100]),
   midi.NoteOnEvent(tick=0, channel=7, data=[63, 100]),
   midi.NoteOnEvent(tick=0, channel=7, data=[59, 100]),
   midi.NoteOnEvent(tick=0, channel=7, data=[56, 100]),
   midi.NoteOnEvent(tick=0, channel=7, data=[68, 100]),
   midi.NoteOnEvent(tick=0, channel=7, data=[71, 100]),
   midi.NoteOnEvent(tick=60, channel=7, data=[71, 0]),
   midi.NoteOnEvent(tick=0, channel=7, data=[51, 0]),
   midi.NoteOnEvent(tick=0, channel=7, data=[59, 0]),
   midi.NoteOnEvent(tick=0, channel=7, data=[75, 0]),
   midi.NoteOnEvent(tick=0, channel=7, data=[44, 0]),
   midi.NoteOnEvent(tick=0, channel=7, data=[63, 0]),
   midi.NoteOnEvent(tick=0, channel=7, data=[56, 0]),
   midi.NoteOnEvent(tick=0, channel=7, data=[68, 0]),
   midi.NoteOnEvent(tick=30, channel=7, data=[68, 100]),
   midi.NoteOnEvent(tick=0, channel=7, data=[63, 100]),
   midi.NoteOnEvent(tick=0, channel=7, data=[44, 100]),
   midi.NoteOnEvent(tick=0, channel=7, data=[51, 100]),
   midi.NoteOnEvent(tick=0, channel=7, data=[59, 100]),
   midi.NoteOnEvent(tick=0, channel=7, data=[56, 100]),
   midi.NoteOnEvent(tick=0, channel=7, data=[75, 100]),
   midi.NoteOnEvent(tick=0, channel=7, data=[71, 100]),
   midi.NoteOnEvent(tick=90, channel=7, data=[71, 0]),
   midi.NoteOnEvent(tick=0, channel=7, data=[68, 0]),
   midi.NoteOnEvent(tick=0, channel=7, data=[59, 0]),
   midi.NoteOnEvent(tick=0, channel=7, data=[63, 0]),
   midi.NoteOnEvent(tick=0, channel=7, data=[44, 0]),
   midi.NoteOnEvent(tick=0, channel=7, data=[51, 0]),
   midi.NoteOnEvent(tick=0, channel=7, data=[56, 0]),
   midi.NoteOnEvent(tick=0, channel=7, data=[75, 0]),
   midi.NoteOnEvent(tick=0, channel=7, data=[59, 100]),
   midi.NoteOnEvent(tick=0, channel=7, data=[56, 100]),
   midi.NoteOnEvent(tick=0, channel=7, data=[68, 100]),
   midi.NoteOnEvent(tick=0, channel=7, data=[63, 100]),
   midi.NoteOnEvent(tick=0, channel=7, data=[40, 100]),
   midi.NoteOnEvent(tick=0, channel=7, data=[71, 100]),
   midi.NoteOnEvent(tick=0, channel=7, data=[75, 100]),
   midi.NoteOnEvent(tick=0, channel=7, data=[47, 100]),
   midi.NoteOnEvent(tick=0, channel=7, data=[52, 100]),
   midi.NoteOnEvent(tick=240, channel=7, data=[52, 0]),
   midi.NoteOnEvent(tick=0, channel=7, data=[63, 0]),
   midi.NoteOnEvent(tick=0, channel=7, data=[59, 0]),
   midi.NoteOnEvent(tick=0, channel=7, data=[40, 0]),
   midi.NoteOnEvent(tick=0, channel=7, data=[56, 0]),
   midi.NoteOnEvent(tick=0, channel=7, data=[68, 0]),
   midi.NoteOnEvent(tick=0, channel=7, data=[75, 0]),
   midi.NoteOnEvent(tick=0, channel=7, data=[71, 0]),
   midi.NoteOnEvent(tick=0, channel=7, data=[47, 0]),
   midi.NoteOnEvent(tick=0, channel=7, data=[58, 100]),
   midi.NoteOnEvent(tick=0, channel=7, data=[68, 100]),
   midi.NoteOnEvent(tick=0, channel=7, data=[49, 100]),
   midi.NoteOnEvent(tick=0, channel=7, data=[61, 100]),
   midi.NoteOnEvent(tick=0, channel=7, data=[54, 100]),
   midi.NoteOnEvent(tick=0, channel=7, data=[73, 100]),
   midi.NoteOnEvent(tick=0, channel=7, data=[42, 100]),
   midi.NoteOnEvent(tick=0, channel=7, data=[66, 100]),
   midi.NoteOnEvent(tick=180, channel=7, data=[66, 0]),
   midi.NoteOnEvent(tick=0, channel=7, data=[58, 0]),
   midi.NoteOnEvent(tick=0, channel=7, data=[54, 0]),
   midi.NoteOnEvent(tick=0, channel=7, data=[68, 0]),
   midi.NoteOnEvent(tick=0, channel=7, data=[49, 0]),
   midi.NoteOnEvent(tick=0, channel=7, data=[61, 0]),
   midi.NoteOnEvent(tick=0, channel=7, data=[73, 0]),
   midi.NoteOnEvent(tick=0, channel=7, data=[42, 0]),
   midi.NoteOnEvent(tick=0, channel=7, data=[59, 100]),
   midi.NoteOnEvent(tick=0, channel=7, data=[71, 100]),
   midi.NoteOnEvent(tick=0, channel=7, data=[44, 100]),
   midi.NoteOnEvent(tick=0, channel=7, data=[68, 100]),
   midi.NoteOnEvent(tick=0, channel=7, data=[75, 100]),
   midi.NoteOnEvent(tick=0, channel=7, data=[56, 100]),
   midi.NoteOnEvent(tick=0, channel=7, data=[51, 100]),
   midi.NoteOnEvent(tick=0, channel=7, data=[63, 100]),
   midi.NoteOnEvent(tick=540, channel=7, data=[63, 0]),
   midi.NoteOnEvent(tick=0, channel=7, data=[59, 0]),
   midi.NoteOnEvent(tick=0, channel=7, data=[75, 0]),
   midi.NoteOnEvent(tick=0, channel=7, data=[71, 0]),
   midi.NoteOnEvent(tick=0, channel=7, data=[44, 0]),
   midi.NoteOnEvent(tick=0, channel=7, data=[68, 0]),
   midi.NoteOnEvent(tick=0, channel=7, data=[56, 0]),
   midi.NoteOnEvent(tick=0, channel=7, data=[51, 0]),
   midi.NoteOnEvent(tick=0, channel=7, data=[40, 100]),
   midi.NoteOnEvent(tick=0, channel=7, data=[56, 100]),
   midi.NoteOnEvent(tick=0, channel=7, data=[59, 100]),
   midi.NoteOnEvent(tick=0, channel=7, data=[63, 100]),
   midi.NoteOnEvent(tick=0, channel=7, data=[68, 100]),
   midi.NoteOnEvent(tick=0, channel=7, data=[71, 100]),
   midi.NoteOnEvent(tick=0, channel=7, data=[75, 100]),
   midi.NoteOnEvent(tick=0, channel=7, data=[47, 100]),
   midi.NoteOnEvent(tick=0, channel=7, data=[52, 100]),
   midi.NoteOnEvent(tick=240, channel=7, data=[52, 0]),
   midi.NoteOnEvent(tick=0, channel=7, data=[63, 0]),
   midi.NoteOnEvent(tick=0, channel=7, data=[40, 0]),
   midi.NoteOnEvent(tick=0, channel=7, data=[68, 0]),
   midi.NoteOnEvent(tick=0, channel=7, data=[56, 0]),
   midi.NoteOnEvent(tick=0, channel=7, data=[59, 0]),
   midi.NoteOnEvent(tick=0, channel=7, data=[75, 0]),
   midi.NoteOnEvent(tick=0, channel=7, data=[71, 0]),
   midi.NoteOnEvent(tick=0, channel=7, data=[47, 0]),
   midi.NoteOnEvent(tick=0, channel=7, data=[73, 100]),
   midi.NoteOnEvent(tick=0, channel=7, data=[66, 100]),
   midi.NoteOnEvent(tick=0, channel=7, data=[54, 100]),
   midi.NoteOnEvent(tick=0, channel=7, data=[49, 100]),
   midi.NoteOnEvent(tick=0, channel=7, data=[58, 100]),
   midi.NoteOnEvent(tick=0, channel=7, data=[42, 100]),
   midi.NoteOnEvent(tick=0, channel=7, data=[61, 100]),
   midi.NoteOnEvent(tick=0, channel=7, data=[68, 100]),
   midi.NoteOnEvent(tick=180, channel=7, data=[68, 0]),
   midi.NoteOnEvent(tick=0, channel=7, data=[73, 0]),
   midi.NoteOnEvent(tick=0, channel=7, data=[58, 0]),
   midi.NoteOnEvent(tick=0, channel=7, data=[66, 0]),
   midi.NoteOnEvent(tick=0, channel=7, data=[54, 0]),
   midi.NoteOnEvent(tick=0, channel=7, data=[49, 0]),
   midi.NoteOnEvent(tick=0, channel=7, data=[42, 0]),
   midi.NoteOnEvent(tick=0, channel=7, data=[61, 0]),
   midi.NoteOnEvent(tick=0, channel=7, data=[44, 100]),
   midi.NoteOnEvent(tick=0, channel=7, data=[51, 100]),
   midi.NoteOnEvent(tick=0, channel=7, data=[56, 100]),
   midi.NoteOnEvent(tick=0, channel=7, data=[63, 100]),
   midi.NoteOnEvent(tick=0, channel=7, data=[68, 100]),
   midi.NoteOnEvent(tick=0, channel=7, data=[75, 100]),
   midi.NoteOnEvent(tick=0, channel=7, data=[59, 100]),
   midi.NoteOnEvent(tick=0, channel=7, data=[71, 100]),
   midi.NoteOnEvent(tick=360, channel=7, data=[71, 0]),
   midi.NoteOnEvent(tick=0, channel=7, data=[44, 0]),
   midi.NoteOnEvent(tick=0, channel=7, data=[68, 0]),
   midi.NoteOnEvent(tick=0, channel=7, data=[51, 0]),
   midi.NoteOnEvent(tick=0, channel=7, data=[56, 0]),
   midi.NoteOnEvent(tick=0, channel=7, data=[63, 0]),
   midi.NoteOnEvent(tick=0, channel=7, data=[75, 0]),
   midi.NoteOnEvent(tick=0, channel=7, data=[59, 0]),
   midi.NoteOnEvent(tick=0, channel=7, data=[44, 100]),
   midi.NoteOnEvent(tick=0, channel=7, data=[51, 100]),
   midi.NoteOnEvent(tick=0, channel=7, data=[56, 100]),
   midi.NoteOnEvent(tick=0, channel=7, data=[63, 100]),
   midi.NoteOnEvent(tick=0, channel=7, data=[68, 100]),
   midi.NoteOnEvent(tick=0, channel=7, data=[75, 100]),
   midi.NoteOnEvent(tick=0, channel=7, data=[71, 100]),
   midi.NoteOnEvent(tick=0, channel=7, data=[59, 100]),
   midi.NoteOnEvent(tick=60, channel=7, data=[59, 0]),
   midi.NoteOnEvent(tick=0, channel=7, data=[44, 0]),
   midi.NoteOnEvent(tick=0, channel=7, data=[68, 0]),
   midi.NoteOnEvent(tick=0, channel=7, data=[51, 0]),
   midi.NoteOnEvent(tick=0, channel=7, data=[56, 0]),
   midi.NoteOnEvent(tick=0, channel=7, data=[63, 0]),
   midi.NoteOnEvent(tick=0, channel=7, data=[75, 0]),
   midi.NoteOnEvent(tick=0, channel=7, data=[71, 0]),
   midi.NoteOnEvent(tick=30, channel=7, data=[51, 100]),
   midi.NoteOnEvent(tick=0, channel=7, data=[44, 100]),
   midi.NoteOnEvent(tick=0, channel=7, data=[75, 100]),
   midi.NoteOnEvent(tick=0, channel=7, data=[71, 100]),
   midi.NoteOnEvent(tick=0, channel=7, data=[68, 100]),
   midi.NoteOnEvent(tick=0, channel=7, data=[63, 100]),
   midi.NoteOnEvent(tick=0, channel=7, data=[59, 100]),
   midi.NoteOnEvent(tick=0, channel=7, data=[56, 100]),
   midi.NoteOnEvent(tick=60, channel=7, data=[56, 0]),
   midi.NoteOnEvent(tick=0, channel=7, data=[51, 0]),
   midi.NoteOnEvent(tick=0, channel=7, data=[68, 0]),
   midi.NoteOnEvent(tick=0, channel=7, data=[44, 0]),
   midi.NoteOnEvent(tick=0, channel=7, data=[75, 0]),
   midi.NoteOnEvent(tick=0, channel=7, data=[71, 0]),
   midi.NoteOnEvent(tick=0, channel=7, data=[63, 0]),
   midi.NoteOnEvent(tick=0, channel=7, data=[59, 0]),
   midi.NoteOnEvent(tick=30, channel=7, data=[40, 100]),
   midi.NoteOnEvent(tick=0, channel=7, data=[56, 100]),
   midi.NoteOnEvent(tick=0, channel=7, data=[59, 100]),
   midi.NoteOnEvent(tick=0, channel=7, data=[63, 100]),
   midi.NoteOnEvent(tick=0, channel=7, data=[68, 100]),
   midi.NoteOnEvent(tick=0, channel=7, data=[71, 100]),
   midi.NoteOnEvent(tick=0, channel=7, data=[52, 100]),
   midi.NoteOnEvent(tick=0, channel=7, data=[47, 100]),
   midi.NoteOnEvent(tick=0, channel=7, data=[75, 100]),
   midi.NoteOnEvent(tick=240, channel=7, data=[75, 0]),
   midi.NoteOnEvent(tick=0, channel=7, data=[63, 0]),
   midi.NoteOnEvent(tick=0, channel=7, data=[40, 0]),
   midi.NoteOnEvent(tick=0, channel=7, data=[68, 0]),
   midi.NoteOnEvent(tick=0, channel=7, data=[56, 0]),
   midi.NoteOnEvent(tick=0, channel=7, data=[59, 0]),
   midi.NoteOnEvent(tick=0, channel=7, data=[52, 0]),
   midi.NoteOnEvent(tick=0, channel=7, data=[71, 0]),
   midi.NoteOnEvent(tick=0, channel=7, data=[47, 0]),
   midi.NoteOnEvent(tick=0, channel=7, data=[73, 100]),
   midi.NoteOnEvent(tick=0, channel=7, data=[54, 100]),
   midi.NoteOnEvent(tick=0, channel=7, data=[66, 100]),
   midi.NoteOnEvent(tick=0, channel=7, data=[58, 100]),
   midi.NoteOnEvent(tick=0, channel=7, data=[42, 100]),
   midi.NoteOnEvent(tick=0, channel=7, data=[49, 100]),
   midi.NoteOnEvent(tick=0, channel=7, data=[68, 100]),
   midi.NoteOnEvent(tick=0, channel=7, data=[61, 100]),
   midi.NoteOnEvent(tick=180, channel=7, data=[61, 0]),
   midi.NoteOnEvent(tick=0, channel=7, data=[73, 0]),
   midi.NoteOnEvent(tick=0, channel=7, data=[42, 0]),
   midi.NoteOnEvent(tick=0, channel=7, data=[54, 0]),
   midi.NoteOnEvent(tick=0, channel=7, data=[66, 0]),
   midi.NoteOnEvent(tick=0, channel=7, data=[58, 0]),
   midi.NoteOnEvent(tick=0, channel=7, data=[49, 0]),
   midi.NoteOnEvent(tick=0, channel=7, data=[68, 0]),
   midi.NoteOnEvent(tick=0, channel=7, data=[44, 100]),
   midi.NoteOnEvent(tick=0, channel=7, data=[51, 100]),
   midi.NoteOnEvent(tick=0, channel=7, data=[56, 100]),
   midi.NoteOnEvent(tick=0, channel=7, data=[59, 100]),
   midi.NoteOnEvent(tick=0, channel=7, data=[63, 100]),
   midi.NoteOnEvent(tick=0, channel=7, data=[68, 100]),
   midi.NoteOnEvent(tick=0, channel=7, data=[71, 100]),
   midi.NoteOnEvent(tick=0, channel=7, data=[75, 100]),
   midi.NoteOnEvent(tick=360, channel=7, data=[75, 0]),
   midi.NoteOnEvent(tick=0, channel=7, data=[44, 0]),
   midi.NoteOnEvent(tick=0, channel=7, data=[63, 0]),
   midi.NoteOnEvent(tick=0, channel=7, data=[51, 0]),
   midi.NoteOnEvent(tick=0, channel=7, data=[56, 0]),
   midi.NoteOnEvent(tick=0, channel=7, data=[59, 0]),
   midi.NoteOnEvent(tick=0, channel=7, data=[68, 0]),
   midi.NoteOnEvent(tick=0, channel=7, data=[71, 0]),
   midi.NoteOnEvent(tick=0, channel=7, data=[37, 100]),
   midi.NoteOnEvent(tick=0, channel=7, data=[44, 100]),
   midi.NoteOnEvent(tick=0, channel=7, data=[49, 100]),
   midi.NoteOnEvent(tick=0, channel=7, data=[56, 100]),
   midi.NoteOnEvent(tick=0, channel=7, data=[59, 100]),
   midi.NoteOnEvent(tick=0, channel=7, data=[63, 100]),
   midi.NoteOnEvent(tick=0, channel=7, data=[66, 100]),
   midi.NoteOnEvent(tick=0, channel=7, data=[71, 100]),
   midi.NoteOnEvent(tick=0, channel=7, data=[75, 100]),
   midi.NoteOnEvent(tick=60, channel=7, data=[75, 0]),
   midi.NoteOnEvent(tick=0, channel=7, data=[56, 0]),
   midi.NoteOnEvent(tick=0, channel=7, data=[37, 0]),
   midi.NoteOnEvent(tick=0, channel=7, data=[59, 0]),
   midi.NoteOnEvent(tick=0, channel=7, data=[44, 0]),
   midi.NoteOnEvent(tick=0, channel=7, data=[49, 0]),
   midi.NoteOnEvent(tick=0, channel=7, data=[66, 0]),
   midi.NoteOnEvent(tick=0, channel=7, data=[63, 0]),
   midi.NoteOnEvent(tick=0, channel=7, data=[71, 0]),
   midi.NoteOnEvent(tick=30, channel=7, data=[37, 100]),
   midi.NoteOnEvent(tick=0, channel=7, data=[44, 100]),
   midi.NoteOnEvent(tick=0, channel=7, data=[49, 100]),
   midi.NoteOnEvent(tick=0, channel=7, data=[56, 100]),
   midi.NoteOnEvent(tick=0, channel=7, data=[59, 100]),
   midi.NoteOnEvent(tick=0, channel=7, data=[63, 100]),
   midi.NoteOnEvent(tick=0, channel=7, data=[66, 100]),
   midi.NoteOnEvent(tick=0, channel=7, data=[71, 100]),
   midi.NoteOnEvent(tick=0, channel=7, data=[75, 100]),
   midi.NoteOnEvent(tick=60, channel=7, data=[75, 0]),
   midi.NoteOnEvent(tick=0, channel=7, data=[56, 0]),
   midi.NoteOnEvent(tick=0, channel=7, data=[37, 0]),
   midi.NoteOnEvent(tick=0, channel=7, data=[59, 0]),
   midi.NoteOnEvent(tick=0, channel=7, data=[44, 0]),
   midi.NoteOnEvent(tick=0, channel=7, data=[49, 0]),
   midi.NoteOnEvent(tick=0, channel=7, data=[66, 0]),
   midi.NoteOnEvent(tick=0, channel=7, data=[63, 0]),
   midi.NoteOnEvent(tick=0, channel=7, data=[71, 0]),
   midi.NoteOnEvent(tick=30, channel=7, data=[75, 100]),
   midi.NoteOnEvent(tick=0, channel=7, data=[47, 100]),
   midi.NoteOnEvent(tick=0, channel=7, data=[52, 100]),
   midi.NoteOnEvent(tick=0, channel=7, data=[40, 100]),
   midi.NoteOnEvent(tick=0, channel=7, data=[56, 100]),
   midi.NoteOnEvent(tick=0, channel=7, data=[63, 100]),
   midi.NoteOnEvent(tick=0, channel=7, data=[68, 100]),
   midi.NoteOnEvent(tick=0, channel=7, data=[71, 100]),
   midi.NoteOnEvent(tick=0, channel=7, data=[59, 100]),
   midi.NoteOnEvent(tick=240, channel=7, data=[59, 0]),
   midi.NoteOnEvent(tick=0, channel=7, data=[40, 0]),
   midi.NoteOnEvent(tick=0, channel=7, data=[75, 0]),
   midi.NoteOnEvent(tick=0, channel=7, data=[56, 0]),
   midi.NoteOnEvent(tick=0, channel=7, data=[47, 0]),
   midi.NoteOnEvent(tick=0, channel=7, data=[52, 0]),
   midi.NoteOnEvent(tick=0, channel=7, data=[68, 0]),
   midi.NoteOnEvent(tick=0, channel=7, data=[63, 0]),
   midi.NoteOnEvent(tick=0, channel=7, data=[71, 0]),
   midi.NoteOnEvent(tick=0, channel=7, data=[61, 100]),
   midi.NoteOnEvent(tick=0, channel=7, data=[42, 100]),
   midi.NoteOnEvent(tick=0, channel=7, data=[68, 100]),
   midi.NoteOnEvent(tick=0, channel=7, data=[73, 100]),
   midi.NoteOnEvent(tick=0, channel=7, data=[66, 100]),
   midi.NoteOnEvent(tick=0, channel=7, data=[49, 100]),
   midi.NoteOnEvent(tick=0, channel=7, data=[54, 100]),
   midi.NoteOnEvent(tick=0, channel=7, data=[58, 100]),
   midi.NoteOnEvent(tick=180, channel=7, data=[58, 0]),
   midi.NoteOnEvent(tick=0, channel=7, data=[61, 0]),
   midi.NoteOnEvent(tick=0, channel=7, data=[66, 0]),
   midi.NoteOnEvent(tick=0, channel=7, data=[42, 0]),
   midi.NoteOnEvent(tick=0, channel=7, data=[68, 0]),
   midi.NoteOnEvent(tick=0, channel=7, data=[73, 0]),
   midi.NoteOnEvent(tick=0, channel=7, data=[49, 0]),
   midi.NoteOnEvent(tick=0, channel=7, data=[54, 0]),
   midi.NoteOnEvent(tick=0, channel=7, data=[71, 100]),
   midi.NoteOnEvent(tick=0, channel=7, data=[68, 100]),
   midi.NoteOnEvent(tick=0, channel=7, data=[56, 100]),
   midi.NoteOnEvent(tick=0, channel=7, data=[51, 100]),
   midi.NoteOnEvent(tick=0, channel=7, data=[44, 100]),
   midi.NoteOnEvent(tick=0, channel=7, data=[63, 100]),
   midi.NoteOnEvent(tick=0, channel=7, data=[75, 100]),
   midi.NoteOnEvent(tick=0, channel=7, data=[59, 100]),
   midi.NoteOnEvent(tick=360, channel=7, data=[59, 0]),
   midi.NoteOnEvent(tick=0, channel=7, data=[71, 0]),
   midi.NoteOnEvent(tick=0, channel=7, data=[44, 0]),
   midi.NoteOnEvent(tick=0, channel=7, data=[68, 0]),
   midi.NoteOnEvent(tick=0, channel=7, data=[56, 0]),
   midi.NoteOnEvent(tick=0, channel=7, data=[51, 0]),
   midi.NoteOnEvent(tick=0, channel=7, data=[63, 0]),
   midi.NoteOnEvent(tick=0, channel=7, data=[75, 0]),
   midi.NoteOnEvent(tick=0, channel=7, data=[51, 100]),
   midi.NoteOnEvent(tick=0, channel=7, data=[75, 100]),
   midi.NoteOnEvent(tick=0, channel=7, data=[44, 100]),
   midi.NoteOnEvent(tick=0, channel=7, data=[63, 100]),
   midi.NoteOnEvent(tick=0, channel=7, data=[59, 100]),
   midi.NoteOnEvent(tick=0, channel=7, data=[56, 100]),
   midi.NoteOnEvent(tick=0, channel=7, data=[68, 100]),
   midi.NoteOnEvent(tick=0, channel=7, data=[71, 100]),
   midi.NoteOnEvent(tick=60, channel=7, data=[71, 0]),
   midi.NoteOnEvent(tick=0, channel=7, data=[51, 0]),
   midi.NoteOnEvent(tick=0, channel=7, data=[59, 0]),
   midi.NoteOnEvent(tick=0, channel=7, data=[75, 0]),
   midi.NoteOnEvent(tick=0, channel=7, data=[44, 0]),
   midi.NoteOnEvent(tick=0, channel=7, data=[63, 0]),
   midi.NoteOnEvent(tick=0, channel=7, data=[56, 0]),
   midi.NoteOnEvent(tick=0, channel=7, data=[68, 0]),
   midi.NoteOnEvent(tick=30, channel=7, data=[68, 100]),
   midi.NoteOnEvent(tick=0, channel=7, data=[63, 100]),
   midi.NoteOnEvent(tick=0, channel=7, data=[44, 100]),
   midi.NoteOnEvent(tick=0, channel=7, data=[51, 100]),
   midi.NoteOnEvent(tick=0, channel=7, data=[59, 100]),
   midi.NoteOnEvent(tick=0, channel=7, data=[56, 100]),
   midi.NoteOnEvent(tick=0, channel=7, data=[75, 100]),
   midi.NoteOnEvent(tick=0, channel=7, data=[71, 100]),
   midi.NoteOnEvent(tick=90, channel=7, data=[71, 0]),
   midi.NoteOnEvent(tick=0, channel=7, data=[68, 0]),
   midi.NoteOnEvent(tick=0, channel=7, data=[59, 0]),
   midi.NoteOnEvent(tick=0, channel=7, data=[63, 0]),
   midi.NoteOnEvent(tick=0, channel=7, data=[44, 0]),
   midi.NoteOnEvent(tick=0, channel=7, data=[51, 0]),
   midi.NoteOnEvent(tick=0, channel=7, data=[56, 0]),
   midi.NoteOnEvent(tick=0, channel=7, data=[75, 0]),
   midi.NoteOnEvent(tick=0, channel=7, data=[59, 100]),
   midi.NoteOnEvent(tick=0, channel=7, data=[56, 100]),
   midi.NoteOnEvent(tick=0, channel=7, data=[68, 100]),
   midi.NoteOnEvent(tick=0, channel=7, data=[63, 100]),
   midi.NoteOnEvent(tick=0, channel=7, data=[40, 100]),
   midi.NoteOnEvent(tick=0, channel=7, data=[71, 100]),
   midi.NoteOnEvent(tick=0, channel=7, data=[75, 100]),
   midi.NoteOnEvent(tick=0, channel=7, data=[47, 100]),
   midi.NoteOnEvent(tick=0, channel=7, data=[52, 100]),
   midi.NoteOnEvent(tick=240, channel=7, data=[52, 0]),
   midi.NoteOnEvent(tick=0, channel=7, data=[63, 0]),
   midi.NoteOnEvent(tick=0, channel=7, data=[59, 0]),
   midi.NoteOnEvent(tick=0, channel=7, data=[40, 0]),
   midi.NoteOnEvent(tick=0, channel=7, data=[56, 0]),
   midi.NoteOnEvent(tick=0, channel=7, data=[68, 0]),
   midi.NoteOnEvent(tick=0, channel=7, data=[75, 0]),
   midi.NoteOnEvent(tick=0, channel=7, data=[71, 0]),
   midi.NoteOnEvent(tick=0, channel=7, data=[47, 0]),
   midi.NoteOnEvent(tick=0, channel=7, data=[58, 100]),
   midi.NoteOnEvent(tick=0, channel=7, data=[68, 100]),
   midi.NoteOnEvent(tick=0, channel=7, data=[49, 100]),
   midi.NoteOnEvent(tick=0, channel=7, data=[61, 100]),
   midi.NoteOnEvent(tick=0, channel=7, data=[54, 100]),
   midi.NoteOnEvent(tick=0, channel=7, data=[73, 100]),
   midi.NoteOnEvent(tick=0, channel=7, data=[42, 100]),
   midi.NoteOnEvent(tick=0, channel=7, data=[66, 100]),
   midi.NoteOnEvent(tick=180, channel=7, data=[66, 0]),
   midi.NoteOnEvent(tick=0, channel=7, data=[58, 0]),
   midi.NoteOnEvent(tick=0, channel=7, data=[54, 0]),
   midi.NoteOnEvent(tick=0, channel=7, data=[68, 0]),
   midi.NoteOnEvent(tick=0, channel=7, data=[49, 0]),
   midi.NoteOnEvent(tick=0, channel=7, data=[61, 0]),
   midi.NoteOnEvent(tick=0, channel=7, data=[73, 0]),
   midi.NoteOnEvent(tick=0, channel=7, data=[42, 0]),
   midi.NoteOnEvent(tick=0, channel=7, data=[51, 100]),
   midi.NoteOnEvent(tick=0, channel=7, data=[56, 100]),
   midi.NoteOnEvent(tick=0, channel=7, data=[75, 100]),
   midi.NoteOnEvent(tick=0, channel=7, data=[68, 100]),
   midi.NoteOnEvent(tick=0, channel=7, data=[63, 100]),
   midi.NoteOnEvent(tick=0, channel=7, data=[44, 100]),
   midi.NoteOnEvent(tick=0, channel=7, data=[71, 100]),
   midi.NoteOnEvent(tick=0, channel=7, data=[59, 100]),
   midi.NoteOnEvent(tick=360, channel=7, data=[59, 0]),
   midi.NoteOnEvent(tick=0, channel=7, data=[51, 0]),
   midi.NoteOnEvent(tick=0, channel=7, data=[63, 0]),
   midi.NoteOnEvent(tick=0, channel=7, data=[56, 0]),
   midi.NoteOnEvent(tick=0, channel=7, data=[75, 0]),
   midi.NoteOnEvent(tick=0, channel=7, data=[68, 0]),
   midi.NoteOnEvent(tick=0, channel=7, data=[44, 0]),
   midi.NoteOnEvent(tick=0, channel=7, data=[71, 0]),
   midi.NoteOnEvent(tick=0, channel=7, data=[71, 100]),
   midi.NoteOnEvent(tick=0, channel=7, data=[63, 100]),
   midi.NoteOnEvent(tick=0, channel=7, data=[56, 100]),
   midi.NoteOnEvent(tick=0, channel=7, data=[68, 100]),
   midi.NoteOnEvent(tick=0, channel=7, data=[51, 100]),
   midi.NoteOnEvent(tick=0, channel=7, data=[59, 100]),
   midi.NoteOnEvent(tick=0, channel=7, data=[75, 100]),
   midi.NoteOnEvent(tick=0, channel=7, data=[44, 100]),
   midi.NoteOnEvent(tick=60, channel=7, data=[44, 0]),
   midi.NoteOnEvent(tick=0, channel=7, data=[71, 0]),
   midi.NoteOnEvent(tick=0, channel=7, data=[51, 0]),
   midi.NoteOnEvent(tick=0, channel=7, data=[63, 0]),
   midi.NoteOnEvent(tick=0, channel=7, data=[56, 0]),
   midi.NoteOnEvent(tick=0, channel=7, data=[68, 0]),
   midi.NoteOnEvent(tick=0, channel=7, data=[59, 0]),
   midi.NoteOnEvent(tick=0, channel=7, data=[75, 0]),
   midi.NoteOnEvent(tick=30, channel=7, data=[44, 100]),
   midi.NoteOnEvent(tick=0, channel=7, data=[56, 100]),
   midi.NoteOnEvent(tick=0, channel=7, data=[75, 100]),
   midi.NoteOnEvent(tick=0, channel=7, data=[63, 100]),
   midi.NoteOnEvent(tick=0, channel=7, data=[68, 100]),
   midi.NoteOnEvent(tick=0, channel=7, data=[71, 100]),
   midi.NoteOnEvent(tick=0, channel=7, data=[59, 100]),
   midi.NoteOnEvent(tick=0, channel=7, data=[51, 100]),
   midi.NoteOnEvent(tick=90, channel=7, data=[51, 0]),
   midi.NoteOnEvent(tick=0, channel=7, data=[44, 0]),
   midi.NoteOnEvent(tick=0, channel=7, data=[68, 0]),
   midi.NoteOnEvent(tick=0, channel=7, data=[56, 0]),
   midi.NoteOnEvent(tick=0, channel=7, data=[75, 0]),
   midi.NoteOnEvent(tick=0, channel=7, data=[63, 0]),
   midi.NoteOnEvent(tick=0, channel=7, data=[71, 0]),
   midi.NoteOnEvent(tick=0, channel=7, data=[59, 0]),
   midi.NoteOnEvent(tick=0, channel=7, data=[52, 100]),
   midi.NoteOnEvent(tick=0, channel=7, data=[59, 100]),
   midi.NoteOnEvent(tick=0, channel=7, data=[56, 100]),
   midi.NoteOnEvent(tick=0, channel=7, data=[68, 100]),
   midi.NoteOnEvent(tick=0, channel=7, data=[75, 100]),
   midi.NoteOnEvent(tick=0, channel=7, data=[71, 100]),
   midi.NoteOnEvent(tick=0, channel=7, data=[40, 100]),
   midi.NoteOnEvent(tick=0, channel=7, data=[63, 100]),
   midi.NoteOnEvent(tick=0, channel=7, data=[47, 100]),
   midi.NoteOnEvent(tick=240, channel=7, data=[47, 0]),
   midi.NoteOnEvent(tick=0, channel=7, data=[68, 0]),
   midi.NoteOnEvent(tick=0, channel=7, data=[52, 0]),
   midi.NoteOnEvent(tick=0, channel=7, data=[75, 0]),
   midi.NoteOnEvent(tick=0, channel=7, data=[59, 0]),
   midi.NoteOnEvent(tick=0, channel=7, data=[56, 0]),
   midi.NoteOnEvent(tick=0, channel=7, data=[40, 0]),
   midi.NoteOnEvent(tick=0, channel=7, data=[71, 0]),
   midi.NoteOnEvent(tick=0, channel=7, data=[63, 0]),
   midi.NoteOnEvent(tick=0, channel=7, data=[58, 100]),
   midi.NoteOnEvent(tick=0, channel=7, data=[61, 100]),
   midi.NoteOnEvent(tick=0, channel=7, data=[49, 100]),
   midi.NoteOnEvent(tick=0, channel=7, data=[42, 100]),
   midi.NoteOnEvent(tick=0, channel=7, data=[54, 100]),
   midi.NoteOnEvent(tick=0, channel=7, data=[66, 100]),
   midi.NoteOnEvent(tick=0, channel=7, data=[68, 100]),
   midi.NoteOnEvent(tick=0, channel=7, data=[73, 100]),
   midi.NoteOnEvent(tick=180, channel=7, data=[73, 0]),
   midi.NoteOnEvent(tick=0, channel=7, data=[58, 0]),
   midi.NoteOnEvent(tick=0, channel=7, data=[54, 0]),
   midi.NoteOnEvent(tick=0, channel=7, data=[61, 0]),
   midi.NoteOnEvent(tick=0, channel=7, data=[49, 0]),
   midi.NoteOnEvent(tick=0, channel=7, data=[42, 0]),
   midi.NoteOnEvent(tick=0, channel=7, data=[66, 0]),
   midi.NoteOnEvent(tick=0, channel=7, data=[68, 0]),
   midi.NoteOnEvent(tick=0, channel=7, data=[51, 100]),
   midi.NoteOnEvent(tick=0, channel=7, data=[56, 100]),
   midi.NoteOnEvent(tick=0, channel=7, data=[75, 100]),
   midi.NoteOnEvent(tick=0, channel=7, data=[59, 100]),
   midi.NoteOnEvent(tick=0, channel=7, data=[71, 100]),
   midi.NoteOnEvent(tick=0, channel=7, data=[44, 100]),
   midi.NoteOnEvent(tick=0, channel=7, data=[68, 100]),
   midi.NoteOnEvent(tick=0, channel=7, data=[63, 100]),
   midi.NoteOnEvent(tick=360, channel=7, data=[63, 0]),
   midi.NoteOnEvent(tick=0, channel=7, data=[51, 0]),
   midi.NoteOnEvent(tick=0, channel=7, data=[71, 0]),
   midi.NoteOnEvent(tick=0, channel=7, data=[56, 0]),
   midi.NoteOnEvent(tick=0, channel=7, data=[75, 0]),
   midi.NoteOnEvent(tick=0, channel=7, data=[59, 0]),
   midi.NoteOnEvent(tick=0, channel=7, data=[44, 0]),
   midi.NoteOnEvent(tick=0, channel=7, data=[68, 0]),
   midi.NoteOnEvent(tick=180, channel=7, data=[40, 100]),
   midi.NoteOnEvent(tick=0, channel=7, data=[56, 100]),
   midi.NoteOnEvent(tick=0, channel=7, data=[59, 100]),
   midi.NoteOnEvent(tick=0, channel=7, data=[63, 100]),
   midi.NoteOnEvent(tick=0, channel=7, data=[68, 100]),
   midi.NoteOnEvent(tick=0, channel=7, data=[71, 100]),
   midi.NoteOnEvent(tick=0, channel=7, data=[75, 100]),
   midi.NoteOnEvent(tick=0, channel=7, data=[47, 100]),
   midi.NoteOnEvent(tick=0, channel=7, data=[52, 100]),
   midi.NoteOnEvent(tick=240, channel=7, data=[52, 0]),
   midi.NoteOnEvent(tick=0, channel=7, data=[63, 0]),
   midi.NoteOnEvent(tick=0, channel=7, data=[40, 0]),
   midi.NoteOnEvent(tick=0, channel=7, data=[68, 0]),
   midi.NoteOnEvent(tick=0, channel=7, data=[56, 0]),
   midi.NoteOnEvent(tick=0, channel=7, data=[59, 0]),
   midi.NoteOnEvent(tick=0, channel=7, data=[75, 0]),
   midi.NoteOnEvent(tick=0, channel=7, data=[71, 0]),
   midi.NoteOnEvent(tick=0, channel=7, data=[47, 0]),
   midi.NoteOnEvent(tick=0, channel=7, data=[73, 100]),
   midi.NoteOnEvent(tick=0, channel=7, data=[66, 100]),
   midi.NoteOnEvent(tick=0, channel=7, data=[54, 100]),
   midi.NoteOnEvent(tick=0, channel=7, data=[49, 100]),
   midi.NoteOnEvent(tick=0, channel=7, data=[58, 100]),
   midi.NoteOnEvent(tick=0, channel=7, data=[42, 100]),
   midi.NoteOnEvent(tick=0, channel=7, data=[61, 100]),
   midi.NoteOnEvent(tick=0, channel=7, data=[68, 100]),
   midi.NoteOnEvent(tick=180, channel=7, data=[68, 0]),
   midi.NoteOnEvent(tick=0, channel=7, data=[73, 0]),
   midi.NoteOnEvent(tick=0, channel=7, data=[58, 0]),
   midi.NoteOnEvent(tick=0, channel=7, data=[66, 0]),
   midi.NoteOnEvent(tick=0, channel=7, data=[54, 0]),
   midi.NoteOnEvent(tick=0, channel=7, data=[49, 0]),
   midi.NoteOnEvent(tick=0, channel=7, data=[42, 0]),
   midi.NoteOnEvent(tick=0, channel=7, data=[61, 0]),
   midi.NoteOnEvent(tick=0, channel=7, data=[44, 100]),
   midi.NoteOnEvent(tick=0, channel=7, data=[51, 100]),
   midi.NoteOnEvent(tick=0, channel=7, data=[56, 100]),
   midi.NoteOnEvent(tick=0, channel=7, data=[63, 100]),
   midi.NoteOnEvent(tick=0, channel=7, data=[68, 100]),
   midi.NoteOnEvent(tick=0, channel=7, data=[75, 100]),
   midi.NoteOnEvent(tick=0, channel=7, data=[59, 100]),
   midi.NoteOnEvent(tick=0, channel=7, data=[71, 100]),
   midi.NoteOnEvent(tick=360, channel=7, data=[71, 0]),
   midi.NoteOnEvent(tick=0, channel=7, data=[44, 0]),
   midi.NoteOnEvent(tick=0, channel=7, data=[68, 0]),
   midi.NoteOnEvent(tick=0, channel=7, data=[51, 0]),
   midi.NoteOnEvent(tick=0, channel=7, data=[56, 0]),
   midi.NoteOnEvent(tick=0, channel=7, data=[63, 0]),
   midi.NoteOnEvent(tick=0, channel=7, data=[75, 0]),
   midi.NoteOnEvent(tick=0, channel=7, data=[59, 0]),
   midi.NoteOnEvent(tick=0, channel=7, data=[44, 100]),
   midi.NoteOnEvent(tick=0, channel=7, data=[51, 100]),
   midi.NoteOnEvent(tick=0, channel=7, data=[56, 100]),
   midi.NoteOnEvent(tick=0, channel=7, data=[63, 100]),
   midi.NoteOnEvent(tick=0, channel=7, data=[68, 100]),
   midi.NoteOnEvent(tick=0, channel=7, data=[75, 100]),
   midi.NoteOnEvent(tick=0, channel=7, data=[71, 100]),
   midi.NoteOnEvent(tick=0, channel=7, data=[59, 100]),
   midi.NoteOnEvent(tick=60, channel=7, data=[59, 0]),
   midi.NoteOnEvent(tick=0, channel=7, data=[44, 0]),
   midi.NoteOnEvent(tick=0, channel=7, data=[68, 0]),
   midi.NoteOnEvent(tick=0, channel=7, data=[51, 0]),
   midi.NoteOnEvent(tick=0, channel=7, data=[56, 0]),
   midi.NoteOnEvent(tick=0, channel=7, data=[63, 0]),
   midi.NoteOnEvent(tick=0, channel=7, data=[75, 0]),
   midi.NoteOnEvent(tick=0, channel=7, data=[71, 0]),
   midi.NoteOnEvent(tick=30, channel=7, data=[51, 100]),
   midi.NoteOnEvent(tick=0, channel=7, data=[44, 100]),
   midi.NoteOnEvent(tick=0, channel=7, data=[75, 100]),
   midi.NoteOnEvent(tick=0, channel=7, data=[71, 100]),
   midi.NoteOnEvent(tick=0, channel=7, data=[68, 100]),
   midi.NoteOnEvent(tick=0, channel=7, data=[63, 100]),
   midi.NoteOnEvent(tick=0, channel=7, data=[59, 100]),
   midi.NoteOnEvent(tick=0, channel=7, data=[56, 100]),
   midi.NoteOnEvent(tick=60, channel=7, data=[56, 0]),
   midi.NoteOnEvent(tick=0, channel=7, data=[51, 0]),
   midi.NoteOnEvent(tick=0, channel=7, data=[68, 0]),
   midi.NoteOnEvent(tick=0, channel=7, data=[44, 0]),
   midi.NoteOnEvent(tick=0, channel=7, data=[75, 0]),
   midi.NoteOnEvent(tick=0, channel=7, data=[71, 0]),
   midi.NoteOnEvent(tick=0, channel=7, data=[63, 0]),
   midi.NoteOnEvent(tick=0, channel=7, data=[59, 0]),
   midi.NoteOnEvent(tick=30, channel=7, data=[40, 100]),
   midi.NoteOnEvent(tick=0, channel=7, data=[56, 100]),
   midi.NoteOnEvent(tick=0, channel=7, data=[59, 100]),
   midi.NoteOnEvent(tick=0, channel=7, data=[63, 100]),
   midi.NoteOnEvent(tick=0, channel=7, data=[68, 100]),
   midi.NoteOnEvent(tick=0, channel=7, data=[71, 100]),
   midi.NoteOnEvent(tick=0, channel=7, data=[52, 100]),
   midi.NoteOnEvent(tick=0, channel=7, data=[47, 100]),
   midi.NoteOnEvent(tick=0, channel=7, data=[75, 100]),
   midi.NoteOnEvent(tick=240, channel=7, data=[75, 0]),
   midi.NoteOnEvent(tick=0, channel=7, data=[63, 0]),
   midi.NoteOnEvent(tick=0, channel=7, data=[40, 0]),
   midi.NoteOnEvent(tick=0, channel=7, data=[68, 0]),
   midi.NoteOnEvent(tick=0, channel=7, data=[56, 0]),
   midi.NoteOnEvent(tick=0, channel=7, data=[59, 0]),
   midi.NoteOnEvent(tick=0, channel=7, data=[52, 0]),
   midi.NoteOnEvent(tick=0, channel=7, data=[71, 0]),
   midi.NoteOnEvent(tick=0, channel=7, data=[47, 0]),
   midi.NoteOnEvent(tick=0, channel=7, data=[73, 100]),
   midi.NoteOnEvent(tick=0, channel=7, data=[54, 100]),
   midi.NoteOnEvent(tick=0, channel=7, data=[66, 100]),
   midi.NoteOnEvent(tick=0, channel=7, data=[58, 100]),
   midi.NoteOnEvent(tick=0, channel=7, data=[42, 100]),
   midi.NoteOnEvent(tick=0, channel=7, data=[49, 100]),
   midi.NoteOnEvent(tick=0, channel=7, data=[68, 100]),
   midi.NoteOnEvent(tick=0, channel=7, data=[61, 100]),
   midi.NoteOnEvent(tick=180, channel=7, data=[61, 0]),
   midi.NoteOnEvent(tick=0, channel=7, data=[73, 0]),
   midi.NoteOnEvent(tick=0, channel=7, data=[42, 0]),
   midi.NoteOnEvent(tick=0, channel=7, data=[54, 0]),
   midi.NoteOnEvent(tick=0, channel=7, data=[66, 0]),
   midi.NoteOnEvent(tick=0, channel=7, data=[58, 0]),
   midi.NoteOnEvent(tick=0, channel=7, data=[49, 0]),
   midi.NoteOnEvent(tick=0, channel=7, data=[68, 0]),
   midi.NoteOnEvent(tick=0, channel=7, data=[44, 100]),
   midi.NoteOnEvent(tick=0, channel=7, data=[51, 100]),
   midi.NoteOnEvent(tick=0, channel=7, data=[56, 100]),
   midi.NoteOnEvent(tick=0, channel=7, data=[59, 100]),
   midi.NoteOnEvent(tick=0, channel=7, data=[63, 100]),
   midi.NoteOnEvent(tick=0, channel=7, data=[68, 100]),
   midi.NoteOnEvent(tick=0, channel=7, data=[71, 100]),
   midi.NoteOnEvent(tick=0, channel=7, data=[75, 100]),
   midi.NoteOnEvent(tick=360, channel=7, data=[75, 0]),
   midi.NoteOnEvent(tick=0, channel=7, data=[44, 0]),
   midi.NoteOnEvent(tick=0, channel=7, data=[63, 0]),
   midi.NoteOnEvent(tick=0, channel=7, data=[51, 0]),
   midi.NoteOnEvent(tick=0, channel=7, data=[56, 0]),
   midi.NoteOnEvent(tick=0, channel=7, data=[59, 0]),
   midi.NoteOnEvent(tick=0, channel=7, data=[68, 0]),
   midi.NoteOnEvent(tick=0, channel=7, data=[71, 0]),
   midi.NoteOnEvent(tick=0, channel=7, data=[37, 100]),
   midi.NoteOnEvent(tick=0, channel=7, data=[44, 100]),
   midi.NoteOnEvent(tick=0, channel=7, data=[49, 100]),
   midi.NoteOnEvent(tick=0, channel=7, data=[56, 100]),
   midi.NoteOnEvent(tick=0, channel=7, data=[59, 100]),
   midi.NoteOnEvent(tick=0, channel=7, data=[63, 100]),
   midi.NoteOnEvent(tick=0, channel=7, data=[66, 100]),
   midi.NoteOnEvent(tick=0, channel=7, data=[71, 100]),
   midi.NoteOnEvent(tick=0, channel=7, data=[75, 100]),
   midi.NoteOnEvent(tick=60, channel=7, data=[75, 0]),
   midi.NoteOnEvent(tick=0, channel=7, data=[56, 0]),
   midi.NoteOnEvent(tick=0, channel=7, data=[37, 0]),
   midi.NoteOnEvent(tick=0, channel=7, data=[59, 0]),
   midi.NoteOnEvent(tick=0, channel=7, data=[44, 0]),
   midi.NoteOnEvent(tick=0, channel=7, data=[49, 0]),
   midi.NoteOnEvent(tick=0, channel=7, data=[66, 0]),
   midi.NoteOnEvent(tick=0, channel=7, data=[63, 0]),
   midi.NoteOnEvent(tick=0, channel=7, data=[71, 0]),
   midi.NoteOnEvent(tick=30, channel=7, data=[37, 100]),
   midi.NoteOnEvent(tick=0, channel=7, data=[44, 100]),
   midi.NoteOnEvent(tick=0, channel=7, data=[49, 100]),
   midi.NoteOnEvent(tick=0, channel=7, data=[56, 100]),
   midi.NoteOnEvent(tick=0, channel=7, data=[59, 100]),
   midi.NoteOnEvent(tick=0, channel=7, data=[63, 100]),
   midi.NoteOnEvent(tick=0, channel=7, data=[66, 100]),
   midi.NoteOnEvent(tick=0, channel=7, data=[71, 100]),
   midi.NoteOnEvent(tick=0, channel=7, data=[75, 100]),
   midi.NoteOnEvent(tick=60, channel=7, data=[75, 0]),
   midi.NoteOnEvent(tick=0, channel=7, data=[56, 0]),
   midi.NoteOnEvent(tick=0, channel=7, data=[37, 0]),
   midi.NoteOnEvent(tick=0, channel=7, data=[59, 0]),
   midi.NoteOnEvent(tick=0, channel=7, data=[44, 0]),
   midi.NoteOnEvent(tick=0, channel=7, data=[49, 0]),
   midi.NoteOnEvent(tick=0, channel=7, data=[66, 0]),
   midi.NoteOnEvent(tick=0, channel=7, data=[63, 0]),
   midi.NoteOnEvent(tick=0, channel=7, data=[71, 0]),
   midi.NoteOnEvent(tick=30, channel=7, data=[75, 100]),
   midi.NoteOnEvent(tick=0, channel=7, data=[47, 100]),
   midi.NoteOnEvent(tick=0, channel=7, data=[52, 100]),
   midi.NoteOnEvent(tick=0, channel=7, data=[40, 100]),
   midi.NoteOnEvent(tick=0, channel=7, data=[56, 100]),
   midi.NoteOnEvent(tick=0, channel=7, data=[63, 100]),
   midi.NoteOnEvent(tick=0, channel=7, data=[68, 100]),
   midi.NoteOnEvent(tick=0, channel=7, data=[71, 100]),
   midi.NoteOnEvent(tick=0, channel=7, data=[59, 100]),
   midi.NoteOnEvent(tick=240, channel=7, data=[59, 0]),
   midi.NoteOnEvent(tick=0, channel=7, data=[40, 0]),
   midi.NoteOnEvent(tick=0, channel=7, data=[75, 0]),
   midi.NoteOnEvent(tick=0, channel=7, data=[56, 0]),
   midi.NoteOnEvent(tick=0, channel=7, data=[47, 0]),
   midi.NoteOnEvent(tick=0, channel=7, data=[52, 0]),
   midi.NoteOnEvent(tick=0, channel=7, data=[68, 0]),
   midi.NoteOnEvent(tick=0, channel=7, data=[63, 0]),
   midi.NoteOnEvent(tick=0, channel=7, data=[71, 0]),
   midi.NoteOnEvent(tick=0, channel=7, data=[61, 100]),
   midi.NoteOnEvent(tick=0, channel=7, data=[42, 100]),
   midi.NoteOnEvent(tick=0, channel=7, data=[68, 100]),
   midi.NoteOnEvent(tick=0, channel=7, data=[73, 100]),
   midi.NoteOnEvent(tick=0, channel=7, data=[66, 100]),
   midi.NoteOnEvent(tick=0, channel=7, data=[49, 100]),
   midi.NoteOnEvent(tick=0, channel=7, data=[54, 100]),
   midi.NoteOnEvent(tick=0, channel=7, data=[58, 100]),
   midi.NoteOnEvent(tick=180, channel=7, data=[58, 0]),
   midi.NoteOnEvent(tick=0, channel=7, data=[61, 0]),
   midi.NoteOnEvent(tick=0, channel=7, data=[66, 0]),
   midi.NoteOnEvent(tick=0, channel=7, data=[42, 0]),
   midi.NoteOnEvent(tick=0, channel=7, data=[68, 0]),
   midi.NoteOnEvent(tick=0, channel=7, data=[73, 0]),
   midi.NoteOnEvent(tick=0, channel=7, data=[49, 0]),
   midi.NoteOnEvent(tick=0, channel=7, data=[54, 0]),
   midi.NoteOnEvent(tick=0, channel=7, data=[71, 100]),
   midi.NoteOnEvent(tick=0, channel=7, data=[68, 100]),
   midi.NoteOnEvent(tick=0, channel=7, data=[56, 100]),
   midi.NoteOnEvent(tick=0, channel=7, data=[51, 100]),
   midi.NoteOnEvent(tick=0, channel=7, data=[44, 100]),
   midi.NoteOnEvent(tick=0, channel=7, data=[63, 100]),
   midi.NoteOnEvent(tick=0, channel=7, data=[75, 100]),
   midi.NoteOnEvent(tick=0, channel=7, data=[59, 100]),
   midi.NoteOnEvent(tick=360, channel=7, data=[59, 0]),
   midi.NoteOnEvent(tick=0, channel=7, data=[71, 0]),
   midi.NoteOnEvent(tick=0, channel=7, data=[44, 0]),
   midi.NoteOnEvent(tick=0, channel=7, data=[68, 0]),
   midi.NoteOnEvent(tick=0, channel=7, data=[56, 0]),
   midi.NoteOnEvent(tick=0, channel=7, data=[51, 0]),
   midi.NoteOnEvent(tick=0, channel=7, data=[63, 0]),
   midi.NoteOnEvent(tick=0, channel=7, data=[75, 0]),
   midi.NoteOnEvent(tick=0, channel=7, data=[51, 100]),
   midi.NoteOnEvent(tick=0, channel=7, data=[75, 100]),
   midi.NoteOnEvent(tick=0, channel=7, data=[44, 100]),
   midi.NoteOnEvent(tick=0, channel=7, data=[63, 100]),
   midi.NoteOnEvent(tick=0, channel=7, data=[59, 100]),
   midi.NoteOnEvent(tick=0, channel=7, data=[56, 100]),
   midi.NoteOnEvent(tick=0, channel=7, data=[68, 100]),
   midi.NoteOnEvent(tick=0, channel=7, data=[71, 100]),
   midi.NoteOnEvent(tick=60, channel=7, data=[71, 0]),
   midi.NoteOnEvent(tick=0, channel=7, data=[51, 0]),
   midi.NoteOnEvent(tick=0, channel=7, data=[59, 0]),
   midi.NoteOnEvent(tick=0, channel=7, data=[75, 0]),
   midi.NoteOnEvent(tick=0, channel=7, data=[44, 0]),
   midi.NoteOnEvent(tick=0, channel=7, data=[63, 0]),
   midi.NoteOnEvent(tick=0, channel=7, data=[56, 0]),
   midi.NoteOnEvent(tick=0, channel=7, data=[68, 0]),
   midi.NoteOnEvent(tick=30, channel=7, data=[68, 100]),
   midi.NoteOnEvent(tick=0, channel=7, data=[63, 100]),
   midi.NoteOnEvent(tick=0, channel=7, data=[44, 100]),
   midi.NoteOnEvent(tick=0, channel=7, data=[51, 100]),
   midi.NoteOnEvent(tick=0, channel=7, data=[59, 100]),
   midi.NoteOnEvent(tick=0, channel=7, data=[56, 100]),
   midi.NoteOnEvent(tick=0, channel=7, data=[75, 100]),
   midi.NoteOnEvent(tick=0, channel=7, data=[71, 100]),
   midi.NoteOnEvent(tick=90, channel=7, data=[71, 0]),
   midi.NoteOnEvent(tick=0, channel=7, data=[68, 0]),
   midi.NoteOnEvent(tick=0, channel=7, data=[59, 0]),
   midi.NoteOnEvent(tick=0, channel=7, data=[63, 0]),
   midi.NoteOnEvent(tick=0, channel=7, data=[44, 0]),
   midi.NoteOnEvent(tick=0, channel=7, data=[51, 0]),
   midi.NoteOnEvent(tick=0, channel=7, data=[56, 0]),
   midi.NoteOnEvent(tick=0, channel=7, data=[75, 0]),
   midi.NoteOnEvent(tick=0, channel=7, data=[59, 100]),
   midi.NoteOnEvent(tick=0, channel=7, data=[56, 100]),
   midi.NoteOnEvent(tick=0, channel=7, data=[68, 100]),
   midi.NoteOnEvent(tick=0, channel=7, data=[63, 100]),
   midi.NoteOnEvent(tick=0, channel=7, data=[40, 100]),
   midi.NoteOnEvent(tick=0, channel=7, data=[71, 100]),
   midi.NoteOnEvent(tick=0, channel=7, data=[75, 100]),
   midi.NoteOnEvent(tick=0, channel=7, data=[47, 100]),
   midi.NoteOnEvent(tick=0, channel=7, data=[52, 100]),
   midi.NoteOnEvent(tick=240, channel=7, data=[52, 0]),
   midi.NoteOnEvent(tick=0, channel=7, data=[63, 0]),
   midi.NoteOnEvent(tick=0, channel=7, data=[59, 0]),
   midi.NoteOnEvent(tick=0, channel=7, data=[40, 0]),
   midi.NoteOnEvent(tick=0, channel=7, data=[56, 0]),
   midi.NoteOnEvent(tick=0, channel=7, data=[68, 0]),
   midi.NoteOnEvent(tick=0, channel=7, data=[75, 0]),
   midi.NoteOnEvent(tick=0, channel=7, data=[71, 0]),
   midi.NoteOnEvent(tick=0, channel=7, data=[47, 0]),
   midi.NoteOnEvent(tick=0, channel=7, data=[58, 100]),
   midi.NoteOnEvent(tick=0, channel=7, data=[68, 100]),
   midi.NoteOnEvent(tick=0, channel=7, data=[49, 100]),
   midi.NoteOnEvent(tick=0, channel=7, data=[61, 100]),
   midi.NoteOnEvent(tick=0, channel=7, data=[54, 100]),
   midi.NoteOnEvent(tick=0, channel=7, data=[73, 100]),
   midi.NoteOnEvent(tick=0, channel=7, data=[42, 100]),
   midi.NoteOnEvent(tick=0, channel=7, data=[66, 100]),
   midi.NoteOnEvent(tick=180, channel=7, data=[66, 0]),
   midi.NoteOnEvent(tick=0, channel=7, data=[58, 0]),
   midi.NoteOnEvent(tick=0, channel=7, data=[54, 0]),
   midi.NoteOnEvent(tick=0, channel=7, data=[68, 0]),
   midi.NoteOnEvent(tick=0, channel=7, data=[49, 0]),
   midi.NoteOnEvent(tick=0, channel=7, data=[61, 0]),
   midi.NoteOnEvent(tick=0, channel=7, data=[73, 0]),
   midi.NoteOnEvent(tick=0, channel=7, data=[42, 0]),
   midi.NoteOnEvent(tick=0, channel=7, data=[59, 100]),
   midi.NoteOnEvent(tick=0, channel=7, data=[71, 100]),
   midi.NoteOnEvent(tick=0, channel=7, data=[44, 100]),
   midi.NoteOnEvent(tick=0, channel=7, data=[68, 100]),
   midi.NoteOnEvent(tick=0, channel=7, data=[75, 100]),
   midi.NoteOnEvent(tick=0, channel=7, data=[56, 100]),
   midi.NoteOnEvent(tick=0, channel=7, data=[51, 100]),
   midi.NoteOnEvent(tick=0, channel=7, data=[63, 100]),
   midi.NoteOnEvent(tick=540, channel=7, data=[63, 0]),
   midi.NoteOnEvent(tick=0, channel=7, data=[59, 0]),
   midi.NoteOnEvent(tick=0, channel=7, data=[75, 0]),
   midi.NoteOnEvent(tick=0, channel=7, data=[71, 0]),
   midi.NoteOnEvent(tick=0, channel=7, data=[44, 0]),
   midi.NoteOnEvent(tick=0, channel=7, data=[68, 0]),
   midi.NoteOnEvent(tick=0, channel=7, data=[56, 0]),
   midi.NoteOnEvent(tick=0, channel=7, data=[51, 0]),
   midi.NoteOnEvent(tick=0, channel=7, data=[40, 100]),
   midi.NoteOnEvent(tick=0, channel=7, data=[56, 100]),
   midi.NoteOnEvent(tick=0, channel=7, data=[59, 100]),
   midi.NoteOnEvent(tick=0, channel=7, data=[63, 100]),
   midi.NoteOnEvent(tick=0, channel=7, data=[68, 100]),
   midi.NoteOnEvent(tick=0, channel=7, data=[71, 100]),
   midi.NoteOnEvent(tick=0, channel=7, data=[75, 100]),
   midi.NoteOnEvent(tick=0, channel=7, data=[47, 100]),
   midi.NoteOnEvent(tick=0, channel=7, data=[52, 100]),
   midi.NoteOnEvent(tick=240, channel=7, data=[52, 0]),
   midi.NoteOnEvent(tick=0, channel=7, data=[63, 0]),
   midi.NoteOnEvent(tick=0, channel=7, data=[40, 0]),
   midi.NoteOnEvent(tick=0, channel=7, data=[68, 0]),
   midi.NoteOnEvent(tick=0, channel=7, data=[56, 0]),
   midi.NoteOnEvent(tick=0, channel=7, data=[59, 0]),
   midi.NoteOnEvent(tick=0, channel=7, data=[75, 0]),
   midi.NoteOnEvent(tick=0, channel=7, data=[71, 0]),
   midi.NoteOnEvent(tick=0, channel=7, data=[47, 0]),
   midi.NoteOnEvent(tick=0, channel=7, data=[73, 100]),
   midi.NoteOnEvent(tick=0, channel=7, data=[66, 100]),
   midi.NoteOnEvent(tick=0, channel=7, data=[54, 100]),
   midi.NoteOnEvent(tick=0, channel=7, data=[49, 100]),
   midi.NoteOnEvent(tick=0, channel=7, data=[58, 100]),
   midi.NoteOnEvent(tick=0, channel=7, data=[42, 100]),
   midi.NoteOnEvent(tick=0, channel=7, data=[61, 100]),
   midi.NoteOnEvent(tick=0, channel=7, data=[68, 100]),
   midi.NoteOnEvent(tick=180, channel=7, data=[68, 0]),
   midi.NoteOnEvent(tick=0, channel=7, data=[73, 0]),
   midi.NoteOnEvent(tick=0, channel=7, data=[58, 0]),
   midi.NoteOnEvent(tick=0, channel=7, data=[66, 0]),
   midi.NoteOnEvent(tick=0, channel=7, data=[54, 0]),
   midi.NoteOnEvent(tick=0, channel=7, data=[49, 0]),
   midi.NoteOnEvent(tick=0, channel=7, data=[42, 0]),
   midi.NoteOnEvent(tick=0, channel=7, data=[61, 0]),
   midi.NoteOnEvent(tick=0, channel=7, data=[44, 100]),
   midi.NoteOnEvent(tick=0, channel=7, data=[51, 100]),
   midi.NoteOnEvent(tick=0, channel=7, data=[56, 100]),
   midi.NoteOnEvent(tick=0, channel=7, data=[63, 100]),
   midi.NoteOnEvent(tick=0, channel=7, data=[68, 100]),
   midi.NoteOnEvent(tick=0, channel=7, data=[75, 100]),
   midi.NoteOnEvent(tick=0, channel=7, data=[59, 100]),
   midi.NoteOnEvent(tick=0, channel=7, data=[71, 100]),
   midi.NoteOnEvent(tick=360, channel=7, data=[71, 0]),
   midi.NoteOnEvent(tick=0, channel=7, data=[44, 0]),
   midi.NoteOnEvent(tick=0, channel=7, data=[68, 0]),
   midi.NoteOnEvent(tick=0, channel=7, data=[51, 0]),
   midi.NoteOnEvent(tick=0, channel=7, data=[56, 0]),
   midi.NoteOnEvent(tick=0, channel=7, data=[63, 0]),
   midi.NoteOnEvent(tick=0, channel=7, data=[75, 0]),
   midi.NoteOnEvent(tick=0, channel=7, data=[59, 0]),
   midi.NoteOnEvent(tick=0, channel=7, data=[44, 100]),
   midi.NoteOnEvent(tick=0, channel=7, data=[51, 100]),
   midi.NoteOnEvent(tick=0, channel=7, data=[56, 100]),
   midi.NoteOnEvent(tick=0, channel=7, data=[63, 100]),
   midi.NoteOnEvent(tick=0, channel=7, data=[68, 100]),
   midi.NoteOnEvent(tick=0, channel=7, data=[75, 100]),
   midi.NoteOnEvent(tick=0, channel=7, data=[71, 100]),
   midi.NoteOnEvent(tick=0, channel=7, data=[59, 100]),
   midi.NoteOnEvent(tick=60, channel=7, data=[59, 0]),
   midi.NoteOnEvent(tick=0, channel=7, data=[44, 0]),
   midi.NoteOnEvent(tick=0, channel=7, data=[68, 0]),
   midi.NoteOnEvent(tick=0, channel=7, data=[51, 0]),
   midi.NoteOnEvent(tick=0, channel=7, data=[56, 0]),
   midi.NoteOnEvent(tick=0, channel=7, data=[63, 0]),
   midi.NoteOnEvent(tick=0, channel=7, data=[75, 0]),
   midi.NoteOnEvent(tick=0, channel=7, data=[71, 0]),
   midi.NoteOnEvent(tick=30, channel=7, data=[51, 100]),
   midi.NoteOnEvent(tick=0, channel=7, data=[44, 100]),
   midi.NoteOnEvent(tick=0, channel=7, data=[75, 100]),
   midi.NoteOnEvent(tick=0, channel=7, data=[71, 100]),
   midi.NoteOnEvent(tick=0, channel=7, data=[68, 100]),
   midi.NoteOnEvent(tick=0, channel=7, data=[63, 100]),
   midi.NoteOnEvent(tick=0, channel=7, data=[59, 100]),
   midi.NoteOnEvent(tick=0, channel=7, data=[56, 100]),
   midi.NoteOnEvent(tick=60, channel=7, data=[56, 0]),
   midi.NoteOnEvent(tick=0, channel=7, data=[51, 0]),
   midi.NoteOnEvent(tick=0, channel=7, data=[68, 0]),
   midi.NoteOnEvent(tick=0, channel=7, data=[44, 0]),
   midi.NoteOnEvent(tick=0, channel=7, data=[75, 0]),
   midi.NoteOnEvent(tick=0, channel=7, data=[71, 0]),
   midi.NoteOnEvent(tick=0, channel=7, data=[63, 0]),
   midi.NoteOnEvent(tick=0, channel=7, data=[59, 0]),
   midi.NoteOnEvent(tick=30, channel=7, data=[40, 100]),
   midi.NoteOnEvent(tick=0, channel=7, data=[56, 100]),
   midi.NoteOnEvent(tick=0, channel=7, data=[59, 100]),
   midi.NoteOnEvent(tick=0, channel=7, data=[63, 100]),
   midi.NoteOnEvent(tick=0, channel=7, data=[68, 100]),
   midi.NoteOnEvent(tick=0, channel=7, data=[71, 100]),
   midi.NoteOnEvent(tick=0, channel=7, data=[52, 100]),
   midi.NoteOnEvent(tick=0, channel=7, data=[47, 100]),
   midi.NoteOnEvent(tick=0, channel=7, data=[75, 100]),
   midi.NoteOnEvent(tick=240, channel=7, data=[75, 0]),
   midi.NoteOnEvent(tick=0, channel=7, data=[63, 0]),
   midi.NoteOnEvent(tick=0, channel=7, data=[40, 0]),
   midi.NoteOnEvent(tick=0, channel=7, data=[68, 0]),
   midi.NoteOnEvent(tick=0, channel=7, data=[56, 0]),
   midi.NoteOnEvent(tick=0, channel=7, data=[59, 0]),
   midi.NoteOnEvent(tick=0, channel=7, data=[52, 0]),
   midi.NoteOnEvent(tick=0, channel=7, data=[71, 0]),
   midi.NoteOnEvent(tick=0, channel=7, data=[47, 0]),
   midi.NoteOnEvent(tick=0, channel=7, data=[73, 100]),
   midi.NoteOnEvent(tick=0, channel=7, data=[54, 100]),
   midi.NoteOnEvent(tick=0, channel=7, data=[66, 100]),
   midi.NoteOnEvent(tick=0, channel=7, data=[58, 100]),
   midi.NoteOnEvent(tick=0, channel=7, data=[42, 100]),
   midi.NoteOnEvent(tick=0, channel=7, data=[49, 100]),
   midi.NoteOnEvent(tick=0, channel=7, data=[68, 100]),
   midi.NoteOnEvent(tick=0, channel=7, data=[61, 100]),
   midi.NoteOnEvent(tick=180, channel=7, data=[61, 0]),
   midi.NoteOnEvent(tick=0, channel=7, data=[73, 0]),
   midi.NoteOnEvent(tick=0, channel=7, data=[42, 0]),
   midi.NoteOnEvent(tick=0, channel=7, data=[54, 0]),
   midi.NoteOnEvent(tick=0, channel=7, data=[66, 0]),
   midi.NoteOnEvent(tick=0, channel=7, data=[58, 0]),
   midi.NoteOnEvent(tick=0, channel=7, data=[49, 0]),
   midi.NoteOnEvent(tick=0, channel=7, data=[68, 0]),
   midi.NoteOnEvent(tick=0, channel=7, data=[44, 100]),
   midi.NoteOnEvent(tick=0, channel=7, data=[51, 100]),
   midi.NoteOnEvent(tick=0, channel=7, data=[56, 100]),
   midi.NoteOnEvent(tick=0, channel=7, data=[59, 100]),
   midi.NoteOnEvent(tick=0, channel=7, data=[63, 100]),
   midi.NoteOnEvent(tick=0, channel=7, data=[68, 100]),
   midi.NoteOnEvent(tick=0, channel=7, data=[71, 100]),
   midi.NoteOnEvent(tick=0, channel=7, data=[75, 100]),
   midi.NoteOnEvent(tick=360, channel=7, data=[75, 0]),
   midi.NoteOnEvent(tick=0, channel=7, data=[44, 0]),
   midi.NoteOnEvent(tick=0, channel=7, data=[63, 0]),
   midi.NoteOnEvent(tick=0, channel=7, data=[51, 0]),
   midi.NoteOnEvent(tick=0, channel=7, data=[56, 0]),
   midi.NoteOnEvent(tick=0, channel=7, data=[59, 0]),
   midi.NoteOnEvent(tick=0, channel=7, data=[68, 0]),
   midi.NoteOnEvent(tick=0, channel=7, data=[71, 0]),
   midi.NoteOnEvent(tick=0, channel=7, data=[37, 100]),
   midi.NoteOnEvent(tick=0, channel=7, data=[44, 100]),
   midi.NoteOnEvent(tick=0, channel=7, data=[49, 100]),
   midi.NoteOnEvent(tick=0, channel=7, data=[56, 100]),
   midi.NoteOnEvent(tick=0, channel=7, data=[59, 100]),
   midi.NoteOnEvent(tick=0, channel=7, data=[63, 100]),
   midi.NoteOnEvent(tick=0, channel=7, data=[66, 100]),
   midi.NoteOnEvent(tick=0, channel=7, data=[71, 100]),
   midi.NoteOnEvent(tick=0, channel=7, data=[75, 100]),
   midi.NoteOnEvent(tick=60, channel=7, data=[75, 0]),
   midi.NoteOnEvent(tick=0, channel=7, data=[56, 0]),
   midi.NoteOnEvent(tick=0, channel=7, data=[37, 0]),
   midi.NoteOnEvent(tick=0, channel=7, data=[59, 0]),
   midi.NoteOnEvent(tick=0, channel=7, data=[44, 0]),
   midi.NoteOnEvent(tick=0, channel=7, data=[49, 0]),
   midi.NoteOnEvent(tick=0, channel=7, data=[66, 0]),
   midi.NoteOnEvent(tick=0, channel=7, data=[63, 0]),
   midi.NoteOnEvent(tick=0, channel=7, data=[71, 0]),
   midi.NoteOnEvent(tick=30, channel=7, data=[37, 100]),
   midi.NoteOnEvent(tick=0, channel=7, data=[44, 100]),
   midi.NoteOnEvent(tick=0, channel=7, data=[49, 100]),
   midi.NoteOnEvent(tick=0, channel=7, data=[56, 100]),
   midi.NoteOnEvent(tick=0, channel=7, data=[59, 100]),
   midi.NoteOnEvent(tick=0, channel=7, data=[63, 100]),
   midi.NoteOnEvent(tick=0, channel=7, data=[66, 100]),
   midi.NoteOnEvent(tick=0, channel=7, data=[71, 100]),
   midi.NoteOnEvent(tick=0, channel=7, data=[75, 100]),
   midi.NoteOnEvent(tick=60, channel=7, data=[75, 0]),
   midi.NoteOnEvent(tick=0, channel=7, data=[56, 0]),
   midi.NoteOnEvent(tick=0, channel=7, data=[37, 0]),
   midi.NoteOnEvent(tick=0, channel=7, data=[59, 0]),
   midi.NoteOnEvent(tick=0, channel=7, data=[44, 0]),
   midi.NoteOnEvent(tick=0, channel=7, data=[49, 0]),
   midi.NoteOnEvent(tick=0, channel=7, data=[66, 0]),
   midi.NoteOnEvent(tick=0, channel=7, data=[63, 0]),
   midi.NoteOnEvent(tick=0, channel=7, data=[71, 0]),
   midi.NoteOnEvent(tick=30, channel=7, data=[75, 100]),
   midi.NoteOnEvent(tick=0, channel=7, data=[47, 100]),
   midi.NoteOnEvent(tick=0, channel=7, data=[52, 100]),
   midi.NoteOnEvent(tick=0, channel=7, data=[40, 100]),
   midi.NoteOnEvent(tick=0, channel=7, data=[56, 100]),
   midi.NoteOnEvent(tick=0, channel=7, data=[63, 100]),
   midi.NoteOnEvent(tick=0, channel=7, data=[68, 100]),
   midi.NoteOnEvent(tick=0, channel=7, data=[71, 100]),
   midi.NoteOnEvent(tick=0, channel=7, data=[59, 100]),
   midi.NoteOnEvent(tick=240, channel=7, data=[59, 0]),
   midi.NoteOnEvent(tick=0, channel=7, data=[40, 0]),
   midi.NoteOnEvent(tick=0, channel=7, data=[75, 0]),
   midi.NoteOnEvent(tick=0, channel=7, data=[56, 0]),
   midi.NoteOnEvent(tick=0, channel=7, data=[47, 0]),
   midi.NoteOnEvent(tick=0, channel=7, data=[52, 0]),
   midi.NoteOnEvent(tick=0, channel=7, data=[68, 0]),
   midi.NoteOnEvent(tick=0, channel=7, data=[63, 0]),
   midi.NoteOnEvent(tick=0, channel=7, data=[71, 0]),
   midi.NoteOnEvent(tick=0, channel=7, data=[61, 100]),
   midi.NoteOnEvent(tick=0, channel=7, data=[42, 100]),
   midi.NoteOnEvent(tick=0, channel=7, data=[68, 100]),
   midi.NoteOnEvent(tick=0, channel=7, data=[73, 100]),
   midi.NoteOnEvent(tick=0, channel=7, data=[66, 100]),
   midi.NoteOnEvent(tick=0, channel=7, data=[49, 100]),
   midi.NoteOnEvent(tick=0, channel=7, data=[54, 100]),
   midi.NoteOnEvent(tick=0, channel=7, data=[58, 100]),
   midi.NoteOnEvent(tick=180, channel=7, data=[58, 0]),
   midi.NoteOnEvent(tick=0, channel=7, data=[61, 0]),
   midi.NoteOnEvent(tick=0, channel=7, data=[66, 0]),
   midi.NoteOnEvent(tick=0, channel=7, data=[42, 0]),
   midi.NoteOnEvent(tick=0, channel=7, data=[68, 0]),
   midi.NoteOnEvent(tick=0, channel=7, data=[73, 0]),
   midi.NoteOnEvent(tick=0, channel=7, data=[49, 0]),
   midi.NoteOnEvent(tick=0, channel=7, data=[54, 0]),
   midi.NoteOnEvent(tick=0, channel=7, data=[71, 100]),
   midi.NoteOnEvent(tick=0, channel=7, data=[68, 100]),
   midi.NoteOnEvent(tick=0, channel=7, data=[56, 100]),
   midi.NoteOnEvent(tick=0, channel=7, data=[51, 100]),
   midi.NoteOnEvent(tick=0, channel=7, data=[44, 100]),
   midi.NoteOnEvent(tick=0, channel=7, data=[63, 100]),
   midi.NoteOnEvent(tick=0, channel=7, data=[75, 100]),
   midi.NoteOnEvent(tick=0, channel=7, data=[59, 100]),
   midi.NoteOnEvent(tick=360, channel=7, data=[59, 0]),
   midi.NoteOnEvent(tick=0, channel=7, data=[71, 0]),
   midi.NoteOnEvent(tick=0, channel=7, data=[44, 0]),
   midi.NoteOnEvent(tick=0, channel=7, data=[68, 0]),
   midi.NoteOnEvent(tick=0, channel=7, data=[56, 0]),
   midi.NoteOnEvent(tick=0, channel=7, data=[51, 0]),
   midi.NoteOnEvent(tick=0, channel=7, data=[63, 0]),
   midi.NoteOnEvent(tick=0, channel=7, data=[75, 0]),
   midi.NoteOnEvent(tick=0, channel=7, data=[51, 100]),
   midi.NoteOnEvent(tick=0, channel=7, data=[75, 100]),
   midi.NoteOnEvent(tick=0, channel=7, data=[44, 100]),
   midi.NoteOnEvent(tick=0, channel=7, data=[63, 100]),
   midi.NoteOnEvent(tick=0, channel=7, data=[59, 100]),
   midi.NoteOnEvent(tick=0, channel=7, data=[56, 100]),
   midi.NoteOnEvent(tick=0, channel=7, data=[68, 100]),
   midi.NoteOnEvent(tick=0, channel=7, data=[71, 100]),
   midi.NoteOnEvent(tick=60, channel=7, data=[71, 0]),
   midi.NoteOnEvent(tick=0, channel=7, data=[51, 0]),
   midi.NoteOnEvent(tick=0, channel=7, data=[59, 0]),
   midi.NoteOnEvent(tick=0, channel=7, data=[75, 0]),
   midi.NoteOnEvent(tick=0, channel=7, data=[44, 0]),
   midi.NoteOnEvent(tick=0, channel=7, data=[63, 0]),
   midi.NoteOnEvent(tick=0, channel=7, data=[56, 0]),
   midi.NoteOnEvent(tick=0, channel=7, data=[68, 0]),
   midi.NoteOnEvent(tick=30, channel=7, data=[68, 100]),
   midi.NoteOnEvent(tick=0, channel=7, data=[63, 100]),
   midi.NoteOnEvent(tick=0, channel=7, data=[44, 100]),
   midi.NoteOnEvent(tick=0, channel=7, data=[51, 100]),
   midi.NoteOnEvent(tick=0, channel=7, data=[59, 100]),
   midi.NoteOnEvent(tick=0, channel=7, data=[56, 100]),
   midi.NoteOnEvent(tick=0, channel=7, data=[75, 100]),
   midi.NoteOnEvent(tick=0, channel=7, data=[71, 100]),
   midi.NoteOnEvent(tick=90, channel=7, data=[71, 0]),
   midi.NoteOnEvent(tick=0, channel=7, data=[68, 0]),
   midi.NoteOnEvent(tick=0, channel=7, data=[59, 0]),
   midi.NoteOnEvent(tick=0, channel=7, data=[63, 0]),
   midi.NoteOnEvent(tick=0, channel=7, data=[44, 0]),
   midi.NoteOnEvent(tick=0, channel=7, data=[51, 0]),
   midi.NoteOnEvent(tick=0, channel=7, data=[56, 0]),
   midi.NoteOnEvent(tick=0, channel=7, data=[75, 0]),
   midi.NoteOnEvent(tick=0, channel=7, data=[59, 100]),
   midi.NoteOnEvent(tick=0, channel=7, data=[56, 100]),
   midi.NoteOnEvent(tick=0, channel=7, data=[68, 100]),
   midi.NoteOnEvent(tick=0, channel=7, data=[63, 100]),
   midi.NoteOnEvent(tick=0, channel=7, data=[40, 100]),
   midi.NoteOnEvent(tick=0, channel=7, data=[71, 100]),
   midi.NoteOnEvent(tick=0, channel=7, data=[75, 100]),
   midi.NoteOnEvent(tick=0, channel=7, data=[47, 100]),
   midi.NoteOnEvent(tick=0, channel=7, data=[52, 100]),
   midi.NoteOnEvent(tick=240, channel=7, data=[52, 0]),
   midi.NoteOnEvent(tick=0, channel=7, data=[63, 0]),
   midi.NoteOnEvent(tick=0, channel=7, data=[59, 0]),
   midi.NoteOnEvent(tick=0, channel=7, data=[40, 0]),
   midi.NoteOnEvent(tick=0, channel=7, data=[56, 0]),
   midi.NoteOnEvent(tick=0, channel=7, data=[68, 0]),
   midi.NoteOnEvent(tick=0, channel=7, data=[75, 0]),
   midi.NoteOnEvent(tick=0, channel=7, data=[71, 0]),
   midi.NoteOnEvent(tick=0, channel=7, data=[47, 0]),
   midi.NoteOnEvent(tick=0, channel=7, data=[58, 100]),
   midi.NoteOnEvent(tick=0, channel=7, data=[68, 100]),
   midi.NoteOnEvent(tick=0, channel=7, data=[49, 100]),
   midi.NoteOnEvent(tick=0, channel=7, data=[61, 100]),
   midi.NoteOnEvent(tick=0, channel=7, data=[54, 100]),
   midi.NoteOnEvent(tick=0, channel=7, data=[73, 100]),
   midi.NoteOnEvent(tick=0, channel=7, data=[42, 100]),
   midi.NoteOnEvent(tick=0, channel=7, data=[66, 100]),
   midi.NoteOnEvent(tick=180, channel=7, data=[66, 0]),
   midi.NoteOnEvent(tick=0, channel=7, data=[58, 0]),
   midi.NoteOnEvent(tick=0, channel=7, data=[54, 0]),
   midi.NoteOnEvent(tick=0, channel=7, data=[68, 0]),
   midi.NoteOnEvent(tick=0, channel=7, data=[49, 0]),
   midi.NoteOnEvent(tick=0, channel=7, data=[61, 0]),
   midi.NoteOnEvent(tick=0, channel=7, data=[73, 0]),
   midi.NoteOnEvent(tick=0, channel=7, data=[42, 0]),
   midi.NoteOnEvent(tick=0, channel=7, data=[59, 100]),
   midi.NoteOnEvent(tick=0, channel=7, data=[71, 100]),
   midi.NoteOnEvent(tick=0, channel=7, data=[44, 100]),
   midi.NoteOnEvent(tick=0, channel=7, data=[68, 100]),
   midi.NoteOnEvent(tick=0, channel=7, data=[32, 100]),
   midi.NoteOnEvent(tick=0, channel=7, data=[75, 100]),
   midi.NoteOnEvent(tick=0, channel=7, data=[56, 100]),
   midi.NoteOnEvent(tick=0, channel=7, data=[51, 100]),
   midi.NoteOnEvent(tick=0, channel=7, data=[63, 100]),
   midi.NoteOnEvent(tick=540, channel=7, data=[63, 0]),
   midi.NoteOnEvent(tick=0, channel=7, data=[68, 0]),
   midi.NoteOnEvent(tick=0, channel=7, data=[59, 0]),
   midi.NoteOnEvent(tick=0, channel=7, data=[32, 0]),
   midi.NoteOnEvent(tick=0, channel=7, data=[71, 0]),
   midi.NoteOnEvent(tick=0, channel=7, data=[44, 0]),
   midi.NoteOnEvent(tick=0, channel=7, data=[56, 0]),
   midi.NoteOnEvent(tick=0, channel=7, data=[75, 0]),
   midi.NoteOnEvent(tick=0, channel=7, data=[51, 0]),
   midi.EndOfTrackEvent(tick=0, data=[])]),
 midi.Track(\
  [midi.TrackNameEvent(tick=0, text='Alternative 3', data=[65, 108, 116, 101, 114, 110, 97, 116, 105, 118, 101, 32, 51]),
   midi.EndOfTrackEvent(tick=0, data=[])]),
 midi.Track(\
  [midi.TrackNameEvent(tick=0, text='Drums & Percussion', data=[68, 114, 117, 109, 115, 32, 38, 32, 80, 101, 114, 99, 117, 115, 115, 105, 111, 110]),
   midi.ControlChangeEvent(tick=126, channel=9, data=[0, 120]),
   midi.ControlChangeEvent(tick=0, channel=9, data=[32, 0]),
   midi.ProgramChangeEvent(tick=0, channel=9, data=[0]),
   midi.ControlChangeEvent(tick=0, channel=9, data=[91, 64]),
   midi.NoteOnEvent(tick=4554, channel=9, data=[39, 100]),
   midi.NoteOnEvent(tick=60, channel=9, data=[39, 0]),
   midi.NoteOnEvent(tick=4980, channel=9, data=[39, 100]),
   midi.NoteOnEvent(tick=60, channel=9, data=[39, 0]),
   midi.NoteOnEvent(tick=180, channel=9, data=[39, 100]),
   midi.NoteOnEvent(tick=60, channel=9, data=[39, 0]),
   midi.NoteOnEvent(tick=180, channel=9, data=[39, 100]),
   midi.NoteOnEvent(tick=60, channel=9, data=[39, 0]),
   midi.NoteOnEvent(tick=180, channel=9, data=[39, 100]),
   midi.NoteOnEvent(tick=60, channel=9, data=[39, 0]),
   midi.NoteOnEvent(tick=180, channel=9, data=[39, 100]),
   midi.NoteOnEvent(tick=60, channel=9, data=[39, 0]),
   midi.NoteOnEvent(tick=180, channel=9, data=[39, 100]),
   midi.NoteOnEvent(tick=60, channel=9, data=[39, 0]),
   midi.NoteOnEvent(tick=180, channel=9, data=[39, 100]),
   midi.NoteOnEvent(tick=60, channel=9, data=[39, 0]),
   midi.NoteOnEvent(tick=180, channel=9, data=[39, 100]),
   midi.NoteOnEvent(tick=60, channel=9, data=[39, 0]),
   midi.NoteOnEvent(tick=60, channel=9, data=[35, 100]),
   midi.NoteOnEvent(tick=60, channel=9, data=[35, 0]),
   midi.NoteOnEvent(tick=60, channel=9, data=[35, 100]),
   midi.NoteOnEvent(tick=0, channel=9, data=[39, 100]),
   midi.NoteOnEvent(tick=60, channel=9, data=[39, 0]),
   midi.NoteOnEvent(tick=0, channel=9, data=[35, 0]),
   midi.NoteOnEvent(tick=60, channel=9, data=[35, 100]),
   midi.NoteOnEvent(tick=60, channel=9, data=[35, 0]),
   midi.NoteOnEvent(tick=60, channel=9, data=[35, 100]),
   midi.NoteOnEvent(tick=0, channel=9, data=[39, 100]),
   midi.NoteOnEvent(tick=60, channel=9, data=[39, 0]),
   midi.NoteOnEvent(tick=0, channel=9, data=[35, 0]),
   midi.NoteOnEvent(tick=60, channel=9, data=[35, 100]),
   midi.NoteOnEvent(tick=60, channel=9, data=[35, 0]),
   midi.NoteOnEvent(tick=60, channel=9, data=[35, 100]),
   midi.NoteOnEvent(tick=0, channel=9, data=[39, 100]),
   midi.NoteOnEvent(tick=60, channel=9, data=[39, 0]),
   midi.NoteOnEvent(tick=0, channel=9, data=[35, 0]),
   midi.NoteOnEvent(tick=60, channel=9, data=[35, 100]),
   midi.NoteOnEvent(tick=60, channel=9, data=[35, 0]),
   midi.NoteOnEvent(tick=60, channel=9, data=[35, 100]),
   midi.NoteOnEvent(tick=0, channel=9, data=[39, 100]),
   midi.NoteOnEvent(tick=60, channel=9, data=[39, 0]),
   midi.NoteOnEvent(tick=0, channel=9, data=[35, 0]),
   midi.NoteOnEvent(tick=60, channel=9, data=[35, 100]),
   midi.NoteOnEvent(tick=60, channel=9, data=[35, 0]),
   midi.NoteOnEvent(tick=60, channel=9, data=[35, 100]),
   midi.NoteOnEvent(tick=0, channel=9, data=[39, 100]),
   midi.NoteOnEvent(tick=60, channel=9, data=[39, 0]),
   midi.NoteOnEvent(tick=0, channel=9, data=[35, 0]),
   midi.NoteOnEvent(tick=60, channel=9, data=[35, 100]),
   midi.NoteOnEvent(tick=60, channel=9, data=[35, 0]),
   midi.NoteOnEvent(tick=60, channel=9, data=[35, 100]),
   midi.NoteOnEvent(tick=0, channel=9, data=[39, 100]),
   midi.NoteOnEvent(tick=60, channel=9, data=[39, 0]),
   midi.NoteOnEvent(tick=0, channel=9, data=[35, 0]),
   midi.NoteOnEvent(tick=60, channel=9, data=[35, 100]),
   midi.NoteOnEvent(tick=60, channel=9, data=[35, 0]),
   midi.NoteOnEvent(tick=60, channel=9, data=[35, 100]),
   midi.NoteOnEvent(tick=0, channel=9, data=[39, 100]),
   midi.NoteOnEvent(tick=60, channel=9, data=[39, 0]),
   midi.NoteOnEvent(tick=0, channel=9, data=[35, 0]),
   midi.NoteOnEvent(tick=180, channel=9, data=[35, 100]),
   midi.NoteOnEvent(tick=0, channel=9, data=[39, 100]),
   midi.NoteOnEvent(tick=60, channel=9, data=[39, 0]),
   midi.NoteOnEvent(tick=0, channel=9, data=[35, 0]),
   midi.NoteOnEvent(tick=60, channel=9, data=[35, 100]),
   midi.NoteOnEvent(tick=0, channel=9, data=[44, 100]),
   midi.NoteOnEvent(tick=40, channel=9, data=[42, 100]),
   midi.NoteOnEvent(tick=20, channel=9, data=[44, 0]),
   midi.NoteOnEvent(tick=0, channel=9, data=[35, 0]),
   midi.NoteOnEvent(tick=0, channel=9, data=[46, 100]),
   midi.NoteOnEvent(tick=40, channel=9, data=[42, 0]),
   midi.NoteOnEvent(tick=20, channel=9, data=[46, 0]),
   midi.NoteOnEvent(tick=0, channel=9, data=[35, 100]),
   midi.NoteOnEvent(tick=0, channel=9, data=[39, 100]),
   midi.NoteOnEvent(tick=0, channel=9, data=[44, 100]),
   midi.NoteOnEvent(tick=60, channel=9, data=[44, 0]),
   midi.NoteOnEvent(tick=0, channel=9, data=[39, 0]),
   midi.NoteOnEvent(tick=0, channel=9, data=[35, 0]),
   midi.NoteOnEvent(tick=0, channel=9, data=[46, 100]),
   midi.NoteOnEvent(tick=60, channel=9, data=[46, 0]),
   midi.NoteOnEvent(tick=0, channel=9, data=[35, 100]),
   midi.NoteOnEvent(tick=0, channel=9, data=[44, 100]),
   midi.NoteOnEvent(tick=40, channel=9, data=[42, 100]),
   midi.NoteOnEvent(tick=20, channel=9, data=[44, 0]),
   midi.NoteOnEvent(tick=0, channel=9, data=[35, 0]),
   midi.NoteOnEvent(tick=0, channel=9, data=[46, 100]),
   midi.NoteOnEvent(tick=40, channel=9, data=[42, 0]),
   midi.NoteOnEvent(tick=20, channel=9, data=[46, 0]),
   midi.NoteOnEvent(tick=0, channel=9, data=[35, 100]),
   midi.NoteOnEvent(tick=0, channel=9, data=[39, 100]),
   midi.NoteOnEvent(tick=0, channel=9, data=[44, 100]),
   midi.NoteOnEvent(tick=60, channel=9, data=[44, 0]),
   midi.NoteOnEvent(tick=0, channel=9, data=[39, 0]),
   midi.NoteOnEvent(tick=0, channel=9, data=[35, 0]),
   midi.NoteOnEvent(tick=0, channel=9, data=[46, 100]),
   midi.NoteOnEvent(tick=60, channel=9, data=[46, 0]),
   midi.NoteOnEvent(tick=0, channel=9, data=[35, 100]),
   midi.NoteOnEvent(tick=0, channel=9, data=[44, 100]),
   midi.NoteOnEvent(tick=40, channel=9, data=[42, 100]),
   midi.NoteOnEvent(tick=20, channel=9, data=[44, 0]),
   midi.NoteOnEvent(tick=0, channel=9, data=[35, 0]),
   midi.NoteOnEvent(tick=0, channel=9, data=[46, 100]),
   midi.NoteOnEvent(tick=40, channel=9, data=[42, 0]),
   midi.NoteOnEvent(tick=20, channel=9, data=[46, 0]),
   midi.NoteOnEvent(tick=0, channel=9, data=[35, 100]),
   midi.NoteOnEvent(tick=0, channel=9, data=[39, 100]),
   midi.NoteOnEvent(tick=0, channel=9, data=[44, 100]),
   midi.NoteOnEvent(tick=60, channel=9, data=[44, 0]),
   midi.NoteOnEvent(tick=0, channel=9, data=[39, 0]),
   midi.NoteOnEvent(tick=0, channel=9, data=[35, 0]),
   midi.NoteOnEvent(tick=0, channel=9, data=[46, 100]),
   midi.NoteOnEvent(tick=60, channel=9, data=[46, 0]),
   midi.NoteOnEvent(tick=0, channel=9, data=[35, 100]),
   midi.NoteOnEvent(tick=0, channel=9, data=[44, 100]),
   midi.NoteOnEvent(tick=40, channel=9, data=[42, 100]),
   midi.NoteOnEvent(tick=20, channel=9, data=[44, 0]),
   midi.NoteOnEvent(tick=0, channel=9, data=[35, 0]),
   midi.NoteOnEvent(tick=0, channel=9, data=[46, 100]),
   midi.NoteOnEvent(tick=40, channel=9, data=[42, 0]),
   midi.NoteOnEvent(tick=20, channel=9, data=[46, 0]),
   midi.NoteOnEvent(tick=0, channel=9, data=[35, 100]),
   midi.NoteOnEvent(tick=0, channel=9, data=[39, 100]),
   midi.NoteOnEvent(tick=0, channel=9, data=[44, 100]),
   midi.NoteOnEvent(tick=60, channel=9, data=[44, 0]),
   midi.NoteOnEvent(tick=0, channel=9, data=[39, 0]),
   midi.NoteOnEvent(tick=0, channel=9, data=[35, 0]),
   midi.NoteOnEvent(tick=0, channel=9, data=[46, 100]),
   midi.NoteOnEvent(tick=60, channel=9, data=[46, 0]),
   midi.NoteOnEvent(tick=0, channel=9, data=[35, 100]),
   midi.NoteOnEvent(tick=0, channel=9, data=[44, 100]),
   midi.NoteOnEvent(tick=40, channel=9, data=[42, 100]),
   midi.NoteOnEvent(tick=20, channel=9, data=[44, 0]),
   midi.NoteOnEvent(tick=0, channel=9, data=[35, 0]),
   midi.NoteOnEvent(tick=0, channel=9, data=[46, 100]),
   midi.NoteOnEvent(tick=40, channel=9, data=[42, 0]),
   midi.NoteOnEvent(tick=20, channel=9, data=[46, 0]),
   midi.NoteOnEvent(tick=0, channel=9, data=[35, 100]),
   midi.NoteOnEvent(tick=0, channel=9, data=[39, 100]),
   midi.NoteOnEvent(tick=0, channel=9, data=[44, 100]),
   midi.NoteOnEvent(tick=60, channel=9, data=[44, 0]),
   midi.NoteOnEvent(tick=0, channel=9, data=[39, 0]),
   midi.NoteOnEvent(tick=0, channel=9, data=[35, 0]),
   midi.NoteOnEvent(tick=0, channel=9, data=[46, 100]),
   midi.NoteOnEvent(tick=60, channel=9, data=[46, 0]),
   midi.NoteOnEvent(tick=0, channel=9, data=[35, 100]),
   midi.NoteOnEvent(tick=0, channel=9, data=[44, 100]),
   midi.NoteOnEvent(tick=40, channel=9, data=[42, 100]),
   midi.NoteOnEvent(tick=20, channel=9, data=[44, 0]),
   midi.NoteOnEvent(tick=0, channel=9, data=[35, 0]),
   midi.NoteOnEvent(tick=0, channel=9, data=[46, 100]),
   midi.NoteOnEvent(tick=40, channel=9, data=[42, 0]),
   midi.NoteOnEvent(tick=20, channel=9, data=[46, 0]),
   midi.NoteOnEvent(tick=0, channel=9, data=[35, 100]),
   midi.NoteOnEvent(tick=0, channel=9, data=[39, 100]),
   midi.NoteOnEvent(tick=0, channel=9, data=[44, 100]),
   midi.NoteOnEvent(tick=60, channel=9, data=[44, 0]),
   midi.NoteOnEvent(tick=0, channel=9, data=[39, 0]),
   midi.NoteOnEvent(tick=0, channel=9, data=[35, 0]),
   midi.NoteOnEvent(tick=0, channel=9, data=[46, 100]),
   midi.NoteOnEvent(tick=60, channel=9, data=[46, 0]),
   midi.NoteOnEvent(tick=0, channel=9, data=[35, 100]),
   midi.NoteOnEvent(tick=0, channel=9, data=[44, 100]),
   midi.NoteOnEvent(tick=40, channel=9, data=[42, 100]),
   midi.NoteOnEvent(tick=20, channel=9, data=[44, 0]),
   midi.NoteOnEvent(tick=0, channel=9, data=[35, 0]),
   midi.NoteOnEvent(tick=0, channel=9, data=[46, 100]),
   midi.NoteOnEvent(tick=40, channel=9, data=[42, 0]),
   midi.NoteOnEvent(tick=20, channel=9, data=[46, 0]),
   midi.NoteOnEvent(tick=0, channel=9, data=[35, 100]),
   midi.NoteOnEvent(tick=0, channel=9, data=[39, 100]),
   midi.NoteOnEvent(tick=0, channel=9, data=[44, 100]),
   midi.NoteOnEvent(tick=60, channel=9, data=[44, 0]),
   midi.NoteOnEvent(tick=0, channel=9, data=[39, 0]),
   midi.NoteOnEvent(tick=0, channel=9, data=[35, 0]),
   midi.NoteOnEvent(tick=0, channel=9, data=[46, 100]),
   midi.NoteOnEvent(tick=60, channel=9, data=[46, 0]),
   midi.NoteOnEvent(tick=0, channel=9, data=[35, 100]),
   midi.NoteOnEvent(tick=0, channel=9, data=[44, 100]),
   midi.NoteOnEvent(tick=40, channel=9, data=[42, 100]),
   midi.NoteOnEvent(tick=20, channel=9, data=[44, 0]),
   midi.NoteOnEvent(tick=0, channel=9, data=[35, 0]),
   midi.NoteOnEvent(tick=0, channel=9, data=[46, 100]),
   midi.NoteOnEvent(tick=40, channel=9, data=[42, 0]),
   midi.NoteOnEvent(tick=20, channel=9, data=[46, 0]),
   midi.NoteOnEvent(tick=0, channel=9, data=[35, 100]),
   midi.NoteOnEvent(tick=0, channel=9, data=[39, 100]),
   midi.NoteOnEvent(tick=0, channel=9, data=[44, 100]),
   midi.NoteOnEvent(tick=60, channel=9, data=[44, 0]),
   midi.NoteOnEvent(tick=0, channel=9, data=[39, 0]),
   midi.NoteOnEvent(tick=0, channel=9, data=[35, 0]),
   midi.NoteOnEvent(tick=0, channel=9, data=[46, 100]),
   midi.NoteOnEvent(tick=60, channel=9, data=[46, 0]),
   midi.NoteOnEvent(tick=0, channel=9, data=[35, 100]),
   midi.NoteOnEvent(tick=0, channel=9, data=[44, 100]),
   midi.NoteOnEvent(tick=40, channel=9, data=[42, 100]),
   midi.NoteOnEvent(tick=20, channel=9, data=[44, 0]),
   midi.NoteOnEvent(tick=0, channel=9, data=[35, 0]),
   midi.NoteOnEvent(tick=0, channel=9, data=[46, 100]),
   midi.NoteOnEvent(tick=40, channel=9, data=[42, 0]),
   midi.NoteOnEvent(tick=20, channel=9, data=[46, 0]),
   midi.NoteOnEvent(tick=0, channel=9, data=[35, 100]),
   midi.NoteOnEvent(tick=0, channel=9, data=[39, 100]),
   midi.NoteOnEvent(tick=0, channel=9, data=[44, 100]),
   midi.NoteOnEvent(tick=60, channel=9, data=[44, 0]),
   midi.NoteOnEvent(tick=0, channel=9, data=[39, 0]),
   midi.NoteOnEvent(tick=0, channel=9, data=[35, 0]),
   midi.NoteOnEvent(tick=0, channel=9, data=[46, 100]),
   midi.NoteOnEvent(tick=60, channel=9, data=[46, 0]),
   midi.NoteOnEvent(tick=0, channel=9, data=[35, 100]),
   midi.NoteOnEvent(tick=0, channel=9, data=[44, 100]),
   midi.NoteOnEvent(tick=40, channel=9, data=[42, 100]),
   midi.NoteOnEvent(tick=20, channel=9, data=[44, 0]),
   midi.NoteOnEvent(tick=0, channel=9, data=[35, 0]),
   midi.NoteOnEvent(tick=0, channel=9, data=[46, 100]),
   midi.NoteOnEvent(tick=40, channel=9, data=[42, 0]),
   midi.NoteOnEvent(tick=20, channel=9, data=[46, 0]),
   midi.NoteOnEvent(tick=0, channel=9, data=[35, 100]),
   midi.NoteOnEvent(tick=0, channel=9, data=[39, 100]),
   midi.NoteOnEvent(tick=0, channel=9, data=[44, 100]),
   midi.NoteOnEvent(tick=60, channel=9, data=[44, 0]),
   midi.NoteOnEvent(tick=0, channel=9, data=[39, 0]),
   midi.NoteOnEvent(tick=0, channel=9, data=[35, 0]),
   midi.NoteOnEvent(tick=0, channel=9, data=[46, 100]),
   midi.NoteOnEvent(tick=60, channel=9, data=[46, 0]),
   midi.NoteOnEvent(tick=0, channel=9, data=[35, 100]),
   midi.NoteOnEvent(tick=0, channel=9, data=[44, 100]),
   midi.NoteOnEvent(tick=40, channel=9, data=[42, 100]),
   midi.NoteOnEvent(tick=20, channel=9, data=[44, 0]),
   midi.NoteOnEvent(tick=0, channel=9, data=[35, 0]),
   midi.NoteOnEvent(tick=0, channel=9, data=[46, 100]),
   midi.NoteOnEvent(tick=40, channel=9, data=[42, 0]),
   midi.NoteOnEvent(tick=20, channel=9, data=[46, 0]),
   midi.NoteOnEvent(tick=0, channel=9, data=[35, 100]),
   midi.NoteOnEvent(tick=0, channel=9, data=[39, 100]),
   midi.NoteOnEvent(tick=0, channel=9, data=[44, 100]),
   midi.NoteOnEvent(tick=60, channel=9, data=[44, 0]),
   midi.NoteOnEvent(tick=0, channel=9, data=[39, 0]),
   midi.NoteOnEvent(tick=0, channel=9, data=[35, 0]),
   midi.NoteOnEvent(tick=0, channel=9, data=[46, 100]),
   midi.NoteOnEvent(tick=60, channel=9, data=[46, 0]),
   midi.NoteOnEvent(tick=0, channel=9, data=[35, 100]),
   midi.NoteOnEvent(tick=0, channel=9, data=[44, 100]),
   midi.NoteOnEvent(tick=40, channel=9, data=[42, 100]),
   midi.NoteOnEvent(tick=20, channel=9, data=[44, 0]),
   midi.NoteOnEvent(tick=0, channel=9, data=[35, 0]),
   midi.NoteOnEvent(tick=0, channel=9, data=[46, 100]),
   midi.NoteOnEvent(tick=40, channel=9, data=[42, 0]),
   midi.NoteOnEvent(tick=20, channel=9, data=[46, 0]),
   midi.NoteOnEvent(tick=0, channel=9, data=[35, 100]),
   midi.NoteOnEvent(tick=0, channel=9, data=[39, 100]),
   midi.NoteOnEvent(tick=0, channel=9, data=[44, 100]),
   midi.NoteOnEvent(tick=60, channel=9, data=[44, 0]),
   midi.NoteOnEvent(tick=0, channel=9, data=[39, 0]),
   midi.NoteOnEvent(tick=0, channel=9, data=[35, 0]),
   midi.NoteOnEvent(tick=0, channel=9, data=[46, 100]),
   midi.NoteOnEvent(tick=60, channel=9, data=[46, 0]),
   midi.NoteOnEvent(tick=0, channel=9, data=[35, 100]),
   midi.NoteOnEvent(tick=0, channel=9, data=[44, 100]),
   midi.NoteOnEvent(tick=40, channel=9, data=[42, 100]),
   midi.NoteOnEvent(tick=20, channel=9, data=[44, 0]),
   midi.NoteOnEvent(tick=0, channel=9, data=[35, 0]),
   midi.NoteOnEvent(tick=0, channel=9, data=[46, 100]),
   midi.NoteOnEvent(tick=40, channel=9, data=[42, 0]),
   midi.NoteOnEvent(tick=20, channel=9, data=[46, 0]),
   midi.NoteOnEvent(tick=0, channel=9, data=[35, 100]),
   midi.NoteOnEvent(tick=0, channel=9, data=[39, 100]),
   midi.NoteOnEvent(tick=0, channel=9, data=[44, 100]),
   midi.NoteOnEvent(tick=60, channel=9, data=[44, 0]),
   midi.NoteOnEvent(tick=0, channel=9, data=[39, 0]),
   midi.NoteOnEvent(tick=0, channel=9, data=[35, 0]),
   midi.NoteOnEvent(tick=0, channel=9, data=[46, 100]),
   midi.NoteOnEvent(tick=60, channel=9, data=[46, 0]),
   midi.NoteOnEvent(tick=0, channel=9, data=[35, 100]),
   midi.NoteOnEvent(tick=0, channel=9, data=[44, 100]),
   midi.NoteOnEvent(tick=40, channel=9, data=[42, 100]),
   midi.NoteOnEvent(tick=20, channel=9, data=[44, 0]),
   midi.NoteOnEvent(tick=0, channel=9, data=[35, 0]),
   midi.NoteOnEvent(tick=0, channel=9, data=[46, 100]),
   midi.NoteOnEvent(tick=40, channel=9, data=[42, 0]),
   midi.NoteOnEvent(tick=20, channel=9, data=[46, 0]),
   midi.NoteOnEvent(tick=0, channel=9, data=[35, 100]),
   midi.NoteOnEvent(tick=0, channel=9, data=[39, 100]),
   midi.NoteOnEvent(tick=0, channel=9, data=[44, 100]),
   midi.NoteOnEvent(tick=60, channel=9, data=[44, 0]),
   midi.NoteOnEvent(tick=0, channel=9, data=[39, 0]),
   midi.NoteOnEvent(tick=0, channel=9, data=[35, 0]),
   midi.NoteOnEvent(tick=0, channel=9, data=[46, 100]),
   midi.NoteOnEvent(tick=60, channel=9, data=[46, 0]),
   midi.NoteOnEvent(tick=0, channel=9, data=[35, 100]),
   midi.NoteOnEvent(tick=0, channel=9, data=[44, 100]),
   midi.NoteOnEvent(tick=40, channel=9, data=[42, 100]),
   midi.NoteOnEvent(tick=20, channel=9, data=[44, 0]),
   midi.NoteOnEvent(tick=0, channel=9, data=[35, 0]),
   midi.NoteOnEvent(tick=0, channel=9, data=[46, 100]),
   midi.NoteOnEvent(tick=40, channel=9, data=[42, 0]),
   midi.NoteOnEvent(tick=20, channel=9, data=[46, 0]),
   midi.NoteOnEvent(tick=0, channel=9, data=[35, 100]),
   midi.NoteOnEvent(tick=0, channel=9, data=[39, 100]),
   midi.NoteOnEvent(tick=0, channel=9, data=[44, 100]),
   midi.NoteOnEvent(tick=60, channel=9, data=[44, 0]),
   midi.NoteOnEvent(tick=0, channel=9, data=[39, 0]),
   midi.NoteOnEvent(tick=0, channel=9, data=[35, 0]),
   midi.NoteOnEvent(tick=0, channel=9, data=[46, 100]),
   midi.NoteOnEvent(tick=60, channel=9, data=[46, 0]),
   midi.NoteOnEvent(tick=0, channel=9, data=[35, 100]),
   midi.NoteOnEvent(tick=0, channel=9, data=[44, 100]),
   midi.NoteOnEvent(tick=40, channel=9, data=[42, 100]),
   midi.NoteOnEvent(tick=20, channel=9, data=[44, 0]),
   midi.NoteOnEvent(tick=0, channel=9, data=[35, 0]),
   midi.NoteOnEvent(tick=0, channel=9, data=[46, 100]),
   midi.NoteOnEvent(tick=40, channel=9, data=[42, 0]),
   midi.NoteOnEvent(tick=20, channel=9, data=[46, 0]),
   midi.NoteOnEvent(tick=120, channel=9, data=[35, 100]),
   midi.NoteOnEvent(tick=0, channel=9, data=[44, 100]),
   midi.NoteOnEvent(tick=0, channel=9, data=[44, 100]),
   midi.NoteOnEvent(tick=40, channel=9, data=[42, 100]),
   midi.NoteOnEvent(tick=20, channel=9, data=[44, 0]),
   midi.NoteOnEvent(tick=0, channel=9, data=[35, 0]),
   midi.NoteOnEvent(tick=0, channel=9, data=[44, 0]),
   midi.NoteOnEvent(tick=0, channel=9, data=[46, 100]),
   midi.NoteOnEvent(tick=40, channel=9, data=[42, 0]),
   midi.NoteOnEvent(tick=20, channel=9, data=[46, 0]),
   midi.NoteOnEvent(tick=0, channel=9, data=[35, 100]),
   midi.NoteOnEvent(tick=0, channel=9, data=[39, 100]),
   midi.NoteOnEvent(tick=0, channel=9, data=[44, 100]),
   midi.NoteOnEvent(tick=60, channel=9, data=[44, 0]),
   midi.NoteOnEvent(tick=0, channel=9, data=[39, 0]),
   midi.NoteOnEvent(tick=0, channel=9, data=[35, 0]),
   midi.NoteOnEvent(tick=0, channel=9, data=[46, 100]),
   midi.NoteOnEvent(tick=60, channel=9, data=[46, 0]),
   midi.NoteOnEvent(tick=0, channel=9, data=[35, 100]),
   midi.NoteOnEvent(tick=0, channel=9, data=[44, 100]),
   midi.NoteOnEvent(tick=40, channel=9, data=[42, 100]),
   midi.NoteOnEvent(tick=20, channel=9, data=[44, 0]),
   midi.NoteOnEvent(tick=0, channel=9, data=[35, 0]),
   midi.NoteOnEvent(tick=0, channel=9, data=[46, 100]),
   midi.NoteOnEvent(tick=40, channel=9, data=[42, 0]),
   midi.NoteOnEvent(tick=20, channel=9, data=[46, 0]),
   midi.NoteOnEvent(tick=0, channel=9, data=[35, 100]),
   midi.NoteOnEvent(tick=0, channel=9, data=[39, 100]),
   midi.NoteOnEvent(tick=0, channel=9, data=[44, 100]),
   midi.NoteOnEvent(tick=60, channel=9, data=[44, 0]),
   midi.NoteOnEvent(tick=0, channel=9, data=[39, 0]),
   midi.NoteOnEvent(tick=0, channel=9, data=[35, 0]),
   midi.NoteOnEvent(tick=0, channel=9, data=[46, 100]),
   midi.NoteOnEvent(tick=60, channel=9, data=[46, 0]),
   midi.NoteOnEvent(tick=0, channel=9, data=[35, 100]),
   midi.NoteOnEvent(tick=0, channel=9, data=[44, 100]),
   midi.NoteOnEvent(tick=40, channel=9, data=[42, 100]),
   midi.NoteOnEvent(tick=20, channel=9, data=[44, 0]),
   midi.NoteOnEvent(tick=0, channel=9, data=[35, 0]),
   midi.NoteOnEvent(tick=0, channel=9, data=[46, 100]),
   midi.NoteOnEvent(tick=40, channel=9, data=[42, 0]),
   midi.NoteOnEvent(tick=20, channel=9, data=[46, 0]),
   midi.NoteOnEvent(tick=0, channel=9, data=[35, 100]),
   midi.NoteOnEvent(tick=0, channel=9, data=[39, 100]),
   midi.NoteOnEvent(tick=0, channel=9, data=[44, 100]),
   midi.NoteOnEvent(tick=60, channel=9, data=[44, 0]),
   midi.NoteOnEvent(tick=0, channel=9, data=[39, 0]),
   midi.NoteOnEvent(tick=0, channel=9, data=[35, 0]),
   midi.NoteOnEvent(tick=0, channel=9, data=[46, 100]),
   midi.NoteOnEvent(tick=60, channel=9, data=[46, 0]),
   midi.NoteOnEvent(tick=0, channel=9, data=[35, 100]),
   midi.NoteOnEvent(tick=0, channel=9, data=[44, 100]),
   midi.NoteOnEvent(tick=40, channel=9, data=[42, 100]),
   midi.NoteOnEvent(tick=20, channel=9, data=[44, 0]),
   midi.NoteOnEvent(tick=0, channel=9, data=[35, 0]),
   midi.NoteOnEvent(tick=0, channel=9, data=[46, 100]),
   midi.NoteOnEvent(tick=40, channel=9, data=[42, 0]),
   midi.NoteOnEvent(tick=20, channel=9, data=[46, 0]),
   midi.NoteOnEvent(tick=0, channel=9, data=[35, 100]),
   midi.NoteOnEvent(tick=0, channel=9, data=[39, 100]),
   midi.NoteOnEvent(tick=0, channel=9, data=[44, 100]),
   midi.NoteOnEvent(tick=60, channel=9, data=[44, 0]),
   midi.NoteOnEvent(tick=0, channel=9, data=[39, 0]),
   midi.NoteOnEvent(tick=0, channel=9, data=[35, 0]),
   midi.NoteOnEvent(tick=0, channel=9, data=[46, 100]),
   midi.NoteOnEvent(tick=60, channel=9, data=[46, 0]),
   midi.NoteOnEvent(tick=0, channel=9, data=[35, 100]),
   midi.NoteOnEvent(tick=0, channel=9, data=[44, 100]),
   midi.NoteOnEvent(tick=40, channel=9, data=[42, 100]),
   midi.NoteOnEvent(tick=20, channel=9, data=[44, 0]),
   midi.NoteOnEvent(tick=0, channel=9, data=[35, 0]),
   midi.NoteOnEvent(tick=0, channel=9, data=[46, 100]),
   midi.NoteOnEvent(tick=40, channel=9, data=[42, 0]),
   midi.NoteOnEvent(tick=20, channel=9, data=[46, 0]),
   midi.NoteOnEvent(tick=0, channel=9, data=[35, 100]),
   midi.NoteOnEvent(tick=0, channel=9, data=[39, 100]),
   midi.NoteOnEvent(tick=0, channel=9, data=[44, 100]),
   midi.NoteOnEvent(tick=60, channel=9, data=[44, 0]),
   midi.NoteOnEvent(tick=0, channel=9, data=[39, 0]),
   midi.NoteOnEvent(tick=0, channel=9, data=[35, 0]),
   midi.NoteOnEvent(tick=0, channel=9, data=[46, 100]),
   midi.NoteOnEvent(tick=60, channel=9, data=[46, 0]),
   midi.NoteOnEvent(tick=0, channel=9, data=[35, 100]),
   midi.NoteOnEvent(tick=0, channel=9, data=[44, 100]),
   midi.NoteOnEvent(tick=40, channel=9, data=[42, 100]),
   midi.NoteOnEvent(tick=20, channel=9, data=[44, 0]),
   midi.NoteOnEvent(tick=0, channel=9, data=[35, 0]),
   midi.NoteOnEvent(tick=0, channel=9, data=[46, 100]),
   midi.NoteOnEvent(tick=40, channel=9, data=[42, 0]),
   midi.NoteOnEvent(tick=20, channel=9, data=[46, 0]),
   midi.NoteOnEvent(tick=0, channel=9, data=[35, 100]),
   midi.NoteOnEvent(tick=0, channel=9, data=[39, 100]),
   midi.NoteOnEvent(tick=0, channel=9, data=[44, 100]),
   midi.NoteOnEvent(tick=60, channel=9, data=[44, 0]),
   midi.NoteOnEvent(tick=0, channel=9, data=[39, 0]),
   midi.NoteOnEvent(tick=0, channel=9, data=[35, 0]),
   midi.NoteOnEvent(tick=0, channel=9, data=[46, 100]),
   midi.NoteOnEvent(tick=60, channel=9, data=[46, 0]),
   midi.NoteOnEvent(tick=0, channel=9, data=[35, 100]),
   midi.NoteOnEvent(tick=0, channel=9, data=[44, 100]),
   midi.NoteOnEvent(tick=40, channel=9, data=[42, 100]),
   midi.NoteOnEvent(tick=20, channel=9, data=[44, 0]),
   midi.NoteOnEvent(tick=0, channel=9, data=[35, 0]),
   midi.NoteOnEvent(tick=0, channel=9, data=[46, 100]),
   midi.NoteOnEvent(tick=40, channel=9, data=[42, 0]),
   midi.NoteOnEvent(tick=20, channel=9, data=[46, 0]),
   midi.NoteOnEvent(tick=0, channel=9, data=[35, 100]),
   midi.NoteOnEvent(tick=0, channel=9, data=[39, 100]),
   midi.NoteOnEvent(tick=0, channel=9, data=[44, 100]),
   midi.NoteOnEvent(tick=60, channel=9, data=[44, 0]),
   midi.NoteOnEvent(tick=0, channel=9, data=[39, 0]),
   midi.NoteOnEvent(tick=0, channel=9, data=[35, 0]),
   midi.NoteOnEvent(tick=0, channel=9, data=[46, 100]),
   midi.NoteOnEvent(tick=60, channel=9, data=[46, 0]),
   midi.NoteOnEvent(tick=0, channel=9, data=[35, 100]),
   midi.NoteOnEvent(tick=0, channel=9, data=[44, 100]),
   midi.NoteOnEvent(tick=40, channel=9, data=[42, 100]),
   midi.NoteOnEvent(tick=20, channel=9, data=[44, 0]),
   midi.NoteOnEvent(tick=0, channel=9, data=[35, 0]),
   midi.NoteOnEvent(tick=0, channel=9, data=[46, 100]),
   midi.NoteOnEvent(tick=40, channel=9, data=[42, 0]),
   midi.NoteOnEvent(tick=20, channel=9, data=[46, 0]),
   midi.NoteOnEvent(tick=0, channel=9, data=[35, 100]),
   midi.NoteOnEvent(tick=0, channel=9, data=[39, 100]),
   midi.NoteOnEvent(tick=0, channel=9, data=[44, 100]),
   midi.NoteOnEvent(tick=60, channel=9, data=[44, 0]),
   midi.NoteOnEvent(tick=0, channel=9, data=[39, 0]),
   midi.NoteOnEvent(tick=0, channel=9, data=[35, 0]),
   midi.NoteOnEvent(tick=0, channel=9, data=[46, 100]),
   midi.NoteOnEvent(tick=60, channel=9, data=[46, 0]),
   midi.NoteOnEvent(tick=0, channel=9, data=[35, 100]),
   midi.NoteOnEvent(tick=0, channel=9, data=[44, 100]),
   midi.NoteOnEvent(tick=40, channel=9, data=[42, 100]),
   midi.NoteOnEvent(tick=20, channel=9, data=[44, 0]),
   midi.NoteOnEvent(tick=0, channel=9, data=[35, 0]),
   midi.NoteOnEvent(tick=0, channel=9, data=[46, 100]),
   midi.NoteOnEvent(tick=40, channel=9, data=[42, 0]),
   midi.NoteOnEvent(tick=20, channel=9, data=[46, 0]),
   midi.NoteOnEvent(tick=0, channel=9, data=[35, 100]),
   midi.NoteOnEvent(tick=0, channel=9, data=[39, 100]),
   midi.NoteOnEvent(tick=0, channel=9, data=[44, 100]),
   midi.NoteOnEvent(tick=60, channel=9, data=[44, 0]),
   midi.NoteOnEvent(tick=0, channel=9, data=[39, 0]),
   midi.NoteOnEvent(tick=0, channel=9, data=[35, 0]),
   midi.NoteOnEvent(tick=0, channel=9, data=[46, 100]),
   midi.NoteOnEvent(tick=60, channel=9, data=[46, 0]),
   midi.NoteOnEvent(tick=0, channel=9, data=[35, 100]),
   midi.NoteOnEvent(tick=0, channel=9, data=[44, 100]),
   midi.NoteOnEvent(tick=40, channel=9, data=[42, 100]),
   midi.NoteOnEvent(tick=20, channel=9, data=[44, 0]),
   midi.NoteOnEvent(tick=0, channel=9, data=[35, 0]),
   midi.NoteOnEvent(tick=0, channel=9, data=[46, 100]),
   midi.NoteOnEvent(tick=40, channel=9, data=[42, 0]),
   midi.NoteOnEvent(tick=20, channel=9, data=[46, 0]),
   midi.NoteOnEvent(tick=0, channel=9, data=[35, 100]),
   midi.NoteOnEvent(tick=0, channel=9, data=[39, 100]),
   midi.NoteOnEvent(tick=0, channel=9, data=[44, 100]),
   midi.NoteOnEvent(tick=60, channel=9, data=[44, 0]),
   midi.NoteOnEvent(tick=0, channel=9, data=[39, 0]),
   midi.NoteOnEvent(tick=0, channel=9, data=[35, 0]),
   midi.NoteOnEvent(tick=0, channel=9, data=[46, 100]),
   midi.NoteOnEvent(tick=60, channel=9, data=[46, 0]),
   midi.NoteOnEvent(tick=0, channel=9, data=[35, 100]),
   midi.NoteOnEvent(tick=0, channel=9, data=[44, 100]),
   midi.NoteOnEvent(tick=40, channel=9, data=[42, 100]),
   midi.NoteOnEvent(tick=20, channel=9, data=[44, 0]),
   midi.NoteOnEvent(tick=0, channel=9, data=[35, 0]),
   midi.NoteOnEvent(tick=0, channel=9, data=[46, 100]),
   midi.NoteOnEvent(tick=40, channel=9, data=[42, 0]),
   midi.NoteOnEvent(tick=20, channel=9, data=[46, 0]),
   midi.NoteOnEvent(tick=0, channel=9, data=[35, 100]),
   midi.NoteOnEvent(tick=0, channel=9, data=[39, 100]),
   midi.NoteOnEvent(tick=0, channel=9, data=[44, 100]),
   midi.NoteOnEvent(tick=60, channel=9, data=[44, 0]),
   midi.NoteOnEvent(tick=0, channel=9, data=[39, 0]),
   midi.NoteOnEvent(tick=0, channel=9, data=[35, 0]),
   midi.NoteOnEvent(tick=0, channel=9, data=[46, 100]),
   midi.NoteOnEvent(tick=60, channel=9, data=[46, 0]),
   midi.NoteOnEvent(tick=0, channel=9, data=[35, 100]),
   midi.NoteOnEvent(tick=0, channel=9, data=[44, 100]),
   midi.NoteOnEvent(tick=40, channel=9, data=[42, 100]),
   midi.NoteOnEvent(tick=20, channel=9, data=[44, 0]),
   midi.NoteOnEvent(tick=0, channel=9, data=[35, 0]),
   midi.NoteOnEvent(tick=0, channel=9, data=[46, 100]),
   midi.NoteOnEvent(tick=40, channel=9, data=[42, 0]),
   midi.NoteOnEvent(tick=20, channel=9, data=[46, 0]),
   midi.NoteOnEvent(tick=0, channel=9, data=[35, 100]),
   midi.NoteOnEvent(tick=0, channel=9, data=[39, 100]),
   midi.NoteOnEvent(tick=0, channel=9, data=[44, 100]),
   midi.NoteOnEvent(tick=60, channel=9, data=[44, 0]),
   midi.NoteOnEvent(tick=0, channel=9, data=[39, 0]),
   midi.NoteOnEvent(tick=0, channel=9, data=[35, 0]),
   midi.NoteOnEvent(tick=0, channel=9, data=[46, 100]),
   midi.NoteOnEvent(tick=60, channel=9, data=[46, 0]),
   midi.NoteOnEvent(tick=0, channel=9, data=[35, 100]),
   midi.NoteOnEvent(tick=0, channel=9, data=[44, 100]),
   midi.NoteOnEvent(tick=40, channel=9, data=[42, 100]),
   midi.NoteOnEvent(tick=20, channel=9, data=[44, 0]),
   midi.NoteOnEvent(tick=0, channel=9, data=[35, 0]),
   midi.NoteOnEvent(tick=0, channel=9, data=[46, 100]),
   midi.NoteOnEvent(tick=40, channel=9, data=[42, 0]),
   midi.NoteOnEvent(tick=20, channel=9, data=[46, 0]),
   midi.NoteOnEvent(tick=0, channel=9, data=[35, 100]),
   midi.NoteOnEvent(tick=0, channel=9, data=[39, 100]),
   midi.NoteOnEvent(tick=0, channel=9, data=[44, 100]),
   midi.NoteOnEvent(tick=60, channel=9, data=[44, 0]),
   midi.NoteOnEvent(tick=0, channel=9, data=[39, 0]),
   midi.NoteOnEvent(tick=0, channel=9, data=[35, 0]),
   midi.NoteOnEvent(tick=0, channel=9, data=[46, 100]),
   midi.NoteOnEvent(tick=60, channel=9, data=[46, 0]),
   midi.NoteOnEvent(tick=0, channel=9, data=[35, 100]),
   midi.NoteOnEvent(tick=0, channel=9, data=[44, 100]),
   midi.NoteOnEvent(tick=40, channel=9, data=[42, 100]),
   midi.NoteOnEvent(tick=20, channel=9, data=[44, 0]),
   midi.NoteOnEvent(tick=0, channel=9, data=[35, 0]),
   midi.NoteOnEvent(tick=0, channel=9, data=[46, 100]),
   midi.NoteOnEvent(tick=40, channel=9, data=[42, 0]),
   midi.NoteOnEvent(tick=20, channel=9, data=[46, 0]),
   midi.NoteOnEvent(tick=0, channel=9, data=[35, 100]),
   midi.NoteOnEvent(tick=0, channel=9, data=[39, 100]),
   midi.NoteOnEvent(tick=0, channel=9, data=[44, 100]),
   midi.NoteOnEvent(tick=60, channel=9, data=[44, 0]),
   midi.NoteOnEvent(tick=0, channel=9, data=[39, 0]),
   midi.NoteOnEvent(tick=0, channel=9, data=[35, 0]),
   midi.NoteOnEvent(tick=0, channel=9, data=[46, 100]),
   midi.NoteOnEvent(tick=60, channel=9, data=[46, 0]),
   midi.NoteOnEvent(tick=0, channel=9, data=[35, 100]),
   midi.NoteOnEvent(tick=0, channel=9, data=[44, 100]),
   midi.NoteOnEvent(tick=40, channel=9, data=[42, 100]),
   midi.NoteOnEvent(tick=20, channel=9, data=[44, 0]),
   midi.NoteOnEvent(tick=0, channel=9, data=[35, 0]),
   midi.NoteOnEvent(tick=0, channel=9, data=[46, 100]),
   midi.NoteOnEvent(tick=40, channel=9, data=[42, 0]),
   midi.NoteOnEvent(tick=20, channel=9, data=[46, 0]),
   midi.NoteOnEvent(tick=0, channel=9, data=[35, 100]),
   midi.NoteOnEvent(tick=0, channel=9, data=[39, 100]),
   midi.NoteOnEvent(tick=0, channel=9, data=[44, 100]),
   midi.NoteOnEvent(tick=60, channel=9, data=[44, 0]),
   midi.NoteOnEvent(tick=0, channel=9, data=[39, 0]),
   midi.NoteOnEvent(tick=0, channel=9, data=[35, 0]),
   midi.NoteOnEvent(tick=0, channel=9, data=[46, 100]),
   midi.NoteOnEvent(tick=60, channel=9, data=[46, 0]),
   midi.NoteOnEvent(tick=0, channel=9, data=[35, 100]),
   midi.NoteOnEvent(tick=0, channel=9, data=[44, 100]),
   midi.NoteOnEvent(tick=40, channel=9, data=[42, 100]),
   midi.NoteOnEvent(tick=20, channel=9, data=[44, 0]),
   midi.NoteOnEvent(tick=0, channel=9, data=[35, 0]),
   midi.NoteOnEvent(tick=0, channel=9, data=[46, 100]),
   midi.NoteOnEvent(tick=40, channel=9, data=[42, 0]),
   midi.NoteOnEvent(tick=20, channel=9, data=[46, 0]),
   midi.NoteOnEvent(tick=0, channel=9, data=[35, 100]),
   midi.NoteOnEvent(tick=0, channel=9, data=[39, 100]),
   midi.NoteOnEvent(tick=0, channel=9, data=[44, 100]),
   midi.NoteOnEvent(tick=60, channel=9, data=[44, 0]),
   midi.NoteOnEvent(tick=0, channel=9, data=[39, 0]),
   midi.NoteOnEvent(tick=0, channel=9, data=[35, 0]),
   midi.NoteOnEvent(tick=4980, channel=9, data=[39, 100]),
   midi.NoteOnEvent(tick=60, channel=9, data=[39, 0]),
   midi.NoteOnEvent(tick=180, channel=9, data=[39, 100]),
   midi.NoteOnEvent(tick=60, channel=9, data=[39, 0]),
   midi.NoteOnEvent(tick=180, channel=9, data=[39, 100]),
   midi.NoteOnEvent(tick=60, channel=9, data=[39, 0]),
   midi.NoteOnEvent(tick=180, channel=9, data=[39, 100]),
   midi.NoteOnEvent(tick=60, channel=9, data=[39, 0]),
   midi.NoteOnEvent(tick=180, channel=9, data=[39, 100]),
   midi.NoteOnEvent(tick=60, channel=9, data=[39, 0]),
   midi.NoteOnEvent(tick=180, channel=9, data=[39, 100]),
   midi.NoteOnEvent(tick=60, channel=9, data=[39, 0]),
   midi.NoteOnEvent(tick=180, channel=9, data=[39, 100]),
   midi.NoteOnEvent(tick=60, channel=9, data=[39, 0]),
   midi.NoteOnEvent(tick=180, channel=9, data=[39, 100]),
   midi.NoteOnEvent(tick=60, channel=9, data=[39, 0]),
   midi.NoteOnEvent(tick=60, channel=9, data=[35, 100]),
   midi.NoteOnEvent(tick=60, channel=9, data=[35, 0]),
   midi.NoteOnEvent(tick=60, channel=9, data=[35, 100]),
   midi.NoteOnEvent(tick=0, channel=9, data=[39, 100]),
   midi.NoteOnEvent(tick=60, channel=9, data=[39, 0]),
   midi.NoteOnEvent(tick=0, channel=9, data=[35, 0]),
   midi.NoteOnEvent(tick=60, channel=9, data=[35, 100]),
   midi.NoteOnEvent(tick=60, channel=9, data=[35, 0]),
   midi.NoteOnEvent(tick=60, channel=9, data=[35, 100]),
   midi.NoteOnEvent(tick=0, channel=9, data=[39, 100]),
   midi.NoteOnEvent(tick=60, channel=9, data=[39, 0]),
   midi.NoteOnEvent(tick=0, channel=9, data=[35, 0]),
   midi.NoteOnEvent(tick=60, channel=9, data=[35, 100]),
   midi.NoteOnEvent(tick=60, channel=9, data=[35, 0]),
   midi.NoteOnEvent(tick=60, channel=9, data=[35, 100]),
   midi.NoteOnEvent(tick=0, channel=9, data=[39, 100]),
   midi.NoteOnEvent(tick=60, channel=9, data=[39, 0]),
   midi.NoteOnEvent(tick=0, channel=9, data=[35, 0]),
   midi.NoteOnEvent(tick=60, channel=9, data=[35, 100]),
   midi.NoteOnEvent(tick=60, channel=9, data=[35, 0]),
   midi.NoteOnEvent(tick=60, channel=9, data=[35, 100]),
   midi.NoteOnEvent(tick=0, channel=9, data=[39, 100]),
   midi.NoteOnEvent(tick=60, channel=9, data=[39, 0]),
   midi.NoteOnEvent(tick=0, channel=9, data=[35, 0]),
   midi.NoteOnEvent(tick=60, channel=9, data=[35, 100]),
   midi.NoteOnEvent(tick=60, channel=9, data=[35, 0]),
   midi.NoteOnEvent(tick=60, channel=9, data=[35, 100]),
   midi.NoteOnEvent(tick=0, channel=9, data=[39, 100]),
   midi.NoteOnEvent(tick=60, channel=9, data=[39, 0]),
   midi.NoteOnEvent(tick=0, channel=9, data=[35, 0]),
   midi.NoteOnEvent(tick=60, channel=9, data=[35, 100]),
   midi.NoteOnEvent(tick=60, channel=9, data=[35, 0]),
   midi.NoteOnEvent(tick=60, channel=9, data=[35, 100]),
   midi.NoteOnEvent(tick=0, channel=9, data=[39, 100]),
   midi.NoteOnEvent(tick=60, channel=9, data=[39, 0]),
   midi.NoteOnEvent(tick=0, channel=9, data=[35, 0]),
   midi.NoteOnEvent(tick=60, channel=9, data=[35, 100]),
   midi.NoteOnEvent(tick=60, channel=9, data=[35, 0]),
   midi.NoteOnEvent(tick=60, channel=9, data=[35, 100]),
   midi.NoteOnEvent(tick=0, channel=9, data=[39, 100]),
   midi.NoteOnEvent(tick=60, channel=9, data=[39, 0]),
   midi.NoteOnEvent(tick=0, channel=9, data=[35, 0]),
   midi.NoteOnEvent(tick=60, channel=9, data=[35, 100]),
   midi.NoteOnEvent(tick=60, channel=9, data=[35, 0]),
   midi.NoteOnEvent(tick=60, channel=9, data=[35, 100]),
   midi.NoteOnEvent(tick=0, channel=9, data=[39, 100]),
   midi.NoteOnEvent(tick=60, channel=9, data=[39, 0]),
   midi.NoteOnEvent(tick=0, channel=9, data=[35, 0]),
   midi.NoteOnEvent(tick=60, channel=9, data=[35, 100]),
   midi.NoteOnEvent(tick=0, channel=9, data=[44, 100]),
   midi.NoteOnEvent(tick=40, channel=9, data=[42, 100]),
   midi.NoteOnEvent(tick=20, channel=9, data=[44, 0]),
   midi.NoteOnEvent(tick=0, channel=9, data=[35, 0]),
   midi.NoteOnEvent(tick=0, channel=9, data=[46, 100]),
   midi.NoteOnEvent(tick=40, channel=9, data=[42, 0]),
   midi.NoteOnEvent(tick=20, channel=9, data=[46, 0]),
   midi.NoteOnEvent(tick=0, channel=9, data=[35, 100]),
   midi.NoteOnEvent(tick=0, channel=9, data=[39, 100]),
   midi.NoteOnEvent(tick=0, channel=9, data=[44, 100]),
   midi.NoteOnEvent(tick=60, channel=9, data=[44, 0]),
   midi.NoteOnEvent(tick=0, channel=9, data=[39, 0]),
   midi.NoteOnEvent(tick=0, channel=9, data=[35, 0]),
   midi.NoteOnEvent(tick=0, channel=9, data=[46, 100]),
   midi.NoteOnEvent(tick=60, channel=9, data=[46, 0]),
   midi.NoteOnEvent(tick=0, channel=9, data=[35, 100]),
   midi.NoteOnEvent(tick=0, channel=9, data=[44, 100]),
   midi.NoteOnEvent(tick=40, channel=9, data=[42, 100]),
   midi.NoteOnEvent(tick=20, channel=9, data=[44, 0]),
   midi.NoteOnEvent(tick=0, channel=9, data=[35, 0]),
   midi.NoteOnEvent(tick=0, channel=9, data=[46, 100]),
   midi.NoteOnEvent(tick=40, channel=9, data=[42, 0]),
   midi.NoteOnEvent(tick=20, channel=9, data=[46, 0]),
   midi.NoteOnEvent(tick=0, channel=9, data=[35, 100]),
   midi.NoteOnEvent(tick=0, channel=9, data=[39, 100]),
   midi.NoteOnEvent(tick=0, channel=9, data=[44, 100]),
   midi.NoteOnEvent(tick=60, channel=9, data=[44, 0]),
   midi.NoteOnEvent(tick=0, channel=9, data=[39, 0]),
   midi.NoteOnEvent(tick=0, channel=9, data=[35, 0]),
   midi.NoteOnEvent(tick=0, channel=9, data=[46, 100]),
   midi.NoteOnEvent(tick=60, channel=9, data=[46, 0]),
   midi.NoteOnEvent(tick=0, channel=9, data=[35, 100]),
   midi.NoteOnEvent(tick=0, channel=9, data=[44, 100]),
   midi.NoteOnEvent(tick=40, channel=9, data=[42, 100]),
   midi.NoteOnEvent(tick=20, channel=9, data=[44, 0]),
   midi.NoteOnEvent(tick=0, channel=9, data=[35, 0]),
   midi.NoteOnEvent(tick=0, channel=9, data=[46, 100]),
   midi.NoteOnEvent(tick=40, channel=9, data=[42, 0]),
   midi.NoteOnEvent(tick=20, channel=9, data=[46, 0]),
   midi.NoteOnEvent(tick=0, channel=9, data=[35, 100]),
   midi.NoteOnEvent(tick=0, channel=9, data=[39, 100]),
   midi.NoteOnEvent(tick=0, channel=9, data=[44, 100]),
   midi.NoteOnEvent(tick=60, channel=9, data=[44, 0]),
   midi.NoteOnEvent(tick=0, channel=9, data=[39, 0]),
   midi.NoteOnEvent(tick=0, channel=9, data=[35, 0]),
   midi.NoteOnEvent(tick=0, channel=9, data=[46, 100]),
   midi.NoteOnEvent(tick=60, channel=9, data=[46, 0]),
   midi.NoteOnEvent(tick=0, channel=9, data=[35, 100]),
   midi.NoteOnEvent(tick=0, channel=9, data=[44, 100]),
   midi.NoteOnEvent(tick=40, channel=9, data=[42, 100]),
   midi.NoteOnEvent(tick=20, channel=9, data=[44, 0]),
   midi.NoteOnEvent(tick=0, channel=9, data=[35, 0]),
   midi.NoteOnEvent(tick=0, channel=9, data=[46, 100]),
   midi.NoteOnEvent(tick=40, channel=9, data=[42, 0]),
   midi.NoteOnEvent(tick=20, channel=9, data=[46, 0]),
   midi.NoteOnEvent(tick=0, channel=9, data=[35, 100]),
   midi.NoteOnEvent(tick=0, channel=9, data=[39, 100]),
   midi.NoteOnEvent(tick=0, channel=9, data=[44, 100]),
   midi.NoteOnEvent(tick=60, channel=9, data=[44, 0]),
   midi.NoteOnEvent(tick=0, channel=9, data=[39, 0]),
   midi.NoteOnEvent(tick=0, channel=9, data=[35, 0]),
   midi.NoteOnEvent(tick=0, channel=9, data=[46, 100]),
   midi.NoteOnEvent(tick=60, channel=9, data=[46, 0]),
   midi.NoteOnEvent(tick=0, channel=9, data=[35, 100]),
   midi.NoteOnEvent(tick=0, channel=9, data=[44, 100]),
   midi.NoteOnEvent(tick=40, channel=9, data=[42, 100]),
   midi.NoteOnEvent(tick=20, channel=9, data=[44, 0]),
   midi.NoteOnEvent(tick=0, channel=9, data=[35, 0]),
   midi.NoteOnEvent(tick=0, channel=9, data=[46, 100]),
   midi.NoteOnEvent(tick=40, channel=9, data=[42, 0]),
   midi.NoteOnEvent(tick=20, channel=9, data=[46, 0]),
   midi.NoteOnEvent(tick=0, channel=9, data=[35, 100]),
   midi.NoteOnEvent(tick=0, channel=9, data=[39, 100]),
   midi.NoteOnEvent(tick=0, channel=9, data=[44, 100]),
   midi.NoteOnEvent(tick=60, channel=9, data=[44, 0]),
   midi.NoteOnEvent(tick=0, channel=9, data=[39, 0]),
   midi.NoteOnEvent(tick=0, channel=9, data=[35, 0]),
   midi.NoteOnEvent(tick=0, channel=9, data=[46, 100]),
   midi.NoteOnEvent(tick=60, channel=9, data=[46, 0]),
   midi.NoteOnEvent(tick=0, channel=9, data=[35, 100]),
   midi.NoteOnEvent(tick=0, channel=9, data=[44, 100]),
   midi.NoteOnEvent(tick=40, channel=9, data=[42, 100]),
   midi.NoteOnEvent(tick=20, channel=9, data=[44, 0]),
   midi.NoteOnEvent(tick=0, channel=9, data=[35, 0]),
   midi.NoteOnEvent(tick=0, channel=9, data=[46, 100]),
   midi.NoteOnEvent(tick=40, channel=9, data=[42, 0]),
   midi.NoteOnEvent(tick=20, channel=9, data=[46, 0]),
   midi.NoteOnEvent(tick=0, channel=9, data=[35, 100]),
   midi.NoteOnEvent(tick=0, channel=9, data=[39, 100]),
   midi.NoteOnEvent(tick=0, channel=9, data=[44, 100]),
   midi.NoteOnEvent(tick=60, channel=9, data=[44, 0]),
   midi.NoteOnEvent(tick=0, channel=9, data=[39, 0]),
   midi.NoteOnEvent(tick=0, channel=9, data=[35, 0]),
   midi.NoteOnEvent(tick=0, channel=9, data=[46, 100]),
   midi.NoteOnEvent(tick=60, channel=9, data=[46, 0]),
   midi.NoteOnEvent(tick=0, channel=9, data=[35, 100]),
   midi.NoteOnEvent(tick=0, channel=9, data=[44, 100]),
   midi.NoteOnEvent(tick=40, channel=9, data=[42, 100]),
   midi.NoteOnEvent(tick=20, channel=9, data=[44, 0]),
   midi.NoteOnEvent(tick=0, channel=9, data=[35, 0]),
   midi.NoteOnEvent(tick=0, channel=9, data=[46, 100]),
   midi.NoteOnEvent(tick=40, channel=9, data=[42, 0]),
   midi.NoteOnEvent(tick=20, channel=9, data=[46, 0]),
   midi.NoteOnEvent(tick=0, channel=9, data=[35, 100]),
   midi.NoteOnEvent(tick=0, channel=9, data=[39, 100]),
   midi.NoteOnEvent(tick=0, channel=9, data=[44, 100]),
   midi.NoteOnEvent(tick=60, channel=9, data=[44, 0]),
   midi.NoteOnEvent(tick=0, channel=9, data=[39, 0]),
   midi.NoteOnEvent(tick=0, channel=9, data=[35, 0]),
   midi.NoteOnEvent(tick=0, channel=9, data=[46, 100]),
   midi.NoteOnEvent(tick=60, channel=9, data=[46, 0]),
   midi.NoteOnEvent(tick=0, channel=9, data=[35, 100]),
   midi.NoteOnEvent(tick=0, channel=9, data=[44, 100]),
   midi.NoteOnEvent(tick=40, channel=9, data=[42, 100]),
   midi.NoteOnEvent(tick=20, channel=9, data=[44, 0]),
   midi.NoteOnEvent(tick=0, channel=9, data=[35, 0]),
   midi.NoteOnEvent(tick=0, channel=9, data=[46, 100]),
   midi.NoteOnEvent(tick=40, channel=9, data=[42, 0]),
   midi.NoteOnEvent(tick=20, channel=9, data=[46, 0]),
   midi.NoteOnEvent(tick=0, channel=9, data=[35, 100]),
   midi.NoteOnEvent(tick=0, channel=9, data=[39, 100]),
   midi.NoteOnEvent(tick=0, channel=9, data=[44, 100]),
   midi.NoteOnEvent(tick=60, channel=9, data=[44, 0]),
   midi.NoteOnEvent(tick=0, channel=9, data=[39, 0]),
   midi.NoteOnEvent(tick=0, channel=9, data=[35, 0]),
   midi.NoteOnEvent(tick=0, channel=9, data=[46, 100]),
   midi.NoteOnEvent(tick=60, channel=9, data=[46, 0]),
   midi.NoteOnEvent(tick=0, channel=9, data=[35, 100]),
   midi.NoteOnEvent(tick=0, channel=9, data=[44, 100]),
   midi.NoteOnEvent(tick=40, channel=9, data=[42, 100]),
   midi.NoteOnEvent(tick=20, channel=9, data=[44, 0]),
   midi.NoteOnEvent(tick=0, channel=9, data=[35, 0]),
   midi.NoteOnEvent(tick=0, channel=9, data=[46, 100]),
   midi.NoteOnEvent(tick=40, channel=9, data=[42, 0]),
   midi.NoteOnEvent(tick=20, channel=9, data=[46, 0]),
   midi.NoteOnEvent(tick=0, channel=9, data=[35, 100]),
   midi.NoteOnEvent(tick=0, channel=9, data=[39, 100]),
   midi.NoteOnEvent(tick=0, channel=9, data=[44, 100]),
   midi.NoteOnEvent(tick=60, channel=9, data=[44, 0]),
   midi.NoteOnEvent(tick=0, channel=9, data=[39, 0]),
   midi.NoteOnEvent(tick=0, channel=9, data=[35, 0]),
   midi.NoteOnEvent(tick=0, channel=9, data=[46, 100]),
   midi.NoteOnEvent(tick=60, channel=9, data=[46, 0]),
   midi.NoteOnEvent(tick=0, channel=9, data=[35, 100]),
   midi.NoteOnEvent(tick=0, channel=9, data=[44, 100]),
   midi.NoteOnEvent(tick=40, channel=9, data=[42, 100]),
   midi.NoteOnEvent(tick=20, channel=9, data=[44, 0]),
   midi.NoteOnEvent(tick=0, channel=9, data=[35, 0]),
   midi.NoteOnEvent(tick=0, channel=9, data=[46, 100]),
   midi.NoteOnEvent(tick=40, channel=9, data=[42, 0]),
   midi.NoteOnEvent(tick=20, channel=9, data=[46, 0]),
   midi.NoteOnEvent(tick=0, channel=9, data=[35, 100]),
   midi.NoteOnEvent(tick=0, channel=9, data=[39, 100]),
   midi.NoteOnEvent(tick=0, channel=9, data=[44, 100]),
   midi.NoteOnEvent(tick=60, channel=9, data=[44, 0]),
   midi.NoteOnEvent(tick=0, channel=9, data=[39, 0]),
   midi.NoteOnEvent(tick=0, channel=9, data=[35, 0]),
   midi.NoteOnEvent(tick=0, channel=9, data=[46, 100]),
   midi.NoteOnEvent(tick=60, channel=9, data=[46, 0]),
   midi.NoteOnEvent(tick=0, channel=9, data=[35, 100]),
   midi.NoteOnEvent(tick=0, channel=9, data=[44, 100]),
   midi.NoteOnEvent(tick=40, channel=9, data=[42, 100]),
   midi.NoteOnEvent(tick=20, channel=9, data=[44, 0]),
   midi.NoteOnEvent(tick=0, channel=9, data=[35, 0]),
   midi.NoteOnEvent(tick=0, channel=9, data=[46, 100]),
   midi.NoteOnEvent(tick=40, channel=9, data=[42, 0]),
   midi.NoteOnEvent(tick=20, channel=9, data=[46, 0]),
   midi.NoteOnEvent(tick=0, channel=9, data=[35, 100]),
   midi.NoteOnEvent(tick=0, channel=9, data=[39, 100]),
   midi.NoteOnEvent(tick=0, channel=9, data=[44, 100]),
   midi.NoteOnEvent(tick=60, channel=9, data=[44, 0]),
   midi.NoteOnEvent(tick=0, channel=9, data=[39, 0]),
   midi.NoteOnEvent(tick=0, channel=9, data=[35, 0]),
   midi.NoteOnEvent(tick=0, channel=9, data=[46, 100]),
   midi.NoteOnEvent(tick=60, channel=9, data=[46, 0]),
   midi.NoteOnEvent(tick=0, channel=9, data=[35, 100]),
   midi.NoteOnEvent(tick=0, channel=9, data=[44, 100]),
   midi.NoteOnEvent(tick=40, channel=9, data=[42, 100]),
   midi.NoteOnEvent(tick=20, channel=9, data=[44, 0]),
   midi.NoteOnEvent(tick=0, channel=9, data=[35, 0]),
   midi.NoteOnEvent(tick=0, channel=9, data=[46, 100]),
   midi.NoteOnEvent(tick=40, channel=9, data=[42, 0]),
   midi.NoteOnEvent(tick=20, channel=9, data=[46, 0]),
   midi.NoteOnEvent(tick=0, channel=9, data=[35, 100]),
   midi.NoteOnEvent(tick=0, channel=9, data=[39, 100]),
   midi.NoteOnEvent(tick=0, channel=9, data=[44, 100]),
   midi.NoteOnEvent(tick=60, channel=9, data=[44, 0]),
   midi.NoteOnEvent(tick=0, channel=9, data=[39, 0]),
   midi.NoteOnEvent(tick=0, channel=9, data=[35, 0]),
   midi.NoteOnEvent(tick=0, channel=9, data=[46, 100]),
   midi.NoteOnEvent(tick=60, channel=9, data=[46, 0]),
   midi.NoteOnEvent(tick=0, channel=9, data=[35, 100]),
   midi.NoteOnEvent(tick=0, channel=9, data=[44, 100]),
   midi.NoteOnEvent(tick=40, channel=9, data=[42, 100]),
   midi.NoteOnEvent(tick=20, channel=9, data=[44, 0]),
   midi.NoteOnEvent(tick=0, channel=9, data=[35, 0]),
   midi.NoteOnEvent(tick=0, channel=9, data=[46, 100]),
   midi.NoteOnEvent(tick=40, channel=9, data=[42, 0]),
   midi.NoteOnEvent(tick=20, channel=9, data=[46, 0]),
   midi.NoteOnEvent(tick=0, channel=9, data=[35, 100]),
   midi.NoteOnEvent(tick=0, channel=9, data=[39, 100]),
   midi.NoteOnEvent(tick=0, channel=9, data=[44, 100]),
   midi.NoteOnEvent(tick=60, channel=9, data=[44, 0]),
   midi.NoteOnEvent(tick=0, channel=9, data=[39, 0]),
   midi.NoteOnEvent(tick=0, channel=9, data=[35, 0]),
   midi.NoteOnEvent(tick=0, channel=9, data=[46, 100]),
   midi.NoteOnEvent(tick=60, channel=9, data=[46, 0]),
   midi.NoteOnEvent(tick=0, channel=9, data=[35, 100]),
   midi.NoteOnEvent(tick=0, channel=9, data=[44, 100]),
   midi.NoteOnEvent(tick=40, channel=9, data=[42, 100]),
   midi.NoteOnEvent(tick=20, channel=9, data=[44, 0]),
   midi.NoteOnEvent(tick=0, channel=9, data=[35, 0]),
   midi.NoteOnEvent(tick=0, channel=9, data=[46, 100]),
   midi.NoteOnEvent(tick=40, channel=9, data=[42, 0]),
   midi.NoteOnEvent(tick=20, channel=9, data=[46, 0]),
   midi.NoteOnEvent(tick=0, channel=9, data=[35, 100]),
   midi.NoteOnEvent(tick=0, channel=9, data=[39, 100]),
   midi.NoteOnEvent(tick=0, channel=9, data=[44, 100]),
   midi.NoteOnEvent(tick=60, channel=9, data=[44, 0]),
   midi.NoteOnEvent(tick=0, channel=9, data=[39, 0]),
   midi.NoteOnEvent(tick=0, channel=9, data=[35, 0]),
   midi.NoteOnEvent(tick=0, channel=9, data=[46, 100]),
   midi.NoteOnEvent(tick=60, channel=9, data=[46, 0]),
   midi.NoteOnEvent(tick=0, channel=9, data=[35, 100]),
   midi.NoteOnEvent(tick=0, channel=9, data=[44, 100]),
   midi.NoteOnEvent(tick=40, channel=9, data=[42, 100]),
   midi.NoteOnEvent(tick=20, channel=9, data=[44, 0]),
   midi.NoteOnEvent(tick=0, channel=9, data=[35, 0]),
   midi.NoteOnEvent(tick=0, channel=9, data=[46, 100]),
   midi.NoteOnEvent(tick=40, channel=9, data=[42, 0]),
   midi.NoteOnEvent(tick=20, channel=9, data=[46, 0]),
   midi.NoteOnEvent(tick=0, channel=9, data=[35, 100]),
   midi.NoteOnEvent(tick=0, channel=9, data=[39, 100]),
   midi.NoteOnEvent(tick=0, channel=9, data=[44, 100]),
   midi.NoteOnEvent(tick=60, channel=9, data=[44, 0]),
   midi.NoteOnEvent(tick=0, channel=9, data=[39, 0]),
   midi.NoteOnEvent(tick=0, channel=9, data=[35, 0]),
   midi.NoteOnEvent(tick=0, channel=9, data=[46, 100]),
   midi.NoteOnEvent(tick=60, channel=9, data=[46, 0]),
   midi.NoteOnEvent(tick=0, channel=9, data=[35, 100]),
   midi.NoteOnEvent(tick=0, channel=9, data=[44, 100]),
   midi.NoteOnEvent(tick=40, channel=9, data=[42, 100]),
   midi.NoteOnEvent(tick=20, channel=9, data=[44, 0]),
   midi.NoteOnEvent(tick=0, channel=9, data=[35, 0]),
   midi.NoteOnEvent(tick=0, channel=9, data=[46, 100]),
   midi.NoteOnEvent(tick=40, channel=9, data=[42, 0]),
   midi.NoteOnEvent(tick=20, channel=9, data=[46, 0]),
   midi.NoteOnEvent(tick=120, channel=9, data=[35, 100]),
   midi.NoteOnEvent(tick=0, channel=9, data=[44, 100]),
   midi.NoteOnEvent(tick=40, channel=9, data=[42, 100]),
   midi.NoteOnEvent(tick=20, channel=9, data=[44, 0]),
   midi.NoteOnEvent(tick=0, channel=9, data=[35, 0]),
   midi.NoteOnEvent(tick=0, channel=9, data=[46, 100]),
   midi.NoteOnEvent(tick=40, channel=9, data=[42, 0]),
   midi.NoteOnEvent(tick=20, channel=9, data=[46, 0]),
   midi.NoteOnEvent(tick=0, channel=9, data=[35, 100]),
   midi.NoteOnEvent(tick=0, channel=9, data=[39, 100]),
   midi.NoteOnEvent(tick=0, channel=9, data=[44, 100]),
   midi.NoteOnEvent(tick=60, channel=9, data=[44, 0]),
   midi.NoteOnEvent(tick=0, channel=9, data=[39, 0]),
   midi.NoteOnEvent(tick=0, channel=9, data=[35, 0]),
   midi.NoteOnEvent(tick=0, channel=9, data=[46, 100]),
   midi.NoteOnEvent(tick=60, channel=9, data=[46, 0]),
   midi.NoteOnEvent(tick=0, channel=9, data=[35, 100]),
   midi.NoteOnEvent(tick=0, channel=9, data=[44, 100]),
   midi.NoteOnEvent(tick=40, channel=9, data=[42, 100]),
   midi.NoteOnEvent(tick=20, channel=9, data=[44, 0]),
   midi.NoteOnEvent(tick=0, channel=9, data=[35, 0]),
   midi.NoteOnEvent(tick=0, channel=9, data=[46, 100]),
   midi.NoteOnEvent(tick=40, channel=9, data=[42, 0]),
   midi.NoteOnEvent(tick=20, channel=9, data=[46, 0]),
   midi.NoteOnEvent(tick=0, channel=9, data=[35, 100]),
   midi.NoteOnEvent(tick=0, channel=9, data=[39, 100]),
   midi.NoteOnEvent(tick=0, channel=9, data=[44, 100]),
   midi.NoteOnEvent(tick=60, channel=9, data=[44, 0]),
   midi.NoteOnEvent(tick=0, channel=9, data=[39, 0]),
   midi.NoteOnEvent(tick=0, channel=9, data=[35, 0]),
   midi.NoteOnEvent(tick=0, channel=9, data=[46, 100]),
   midi.NoteOnEvent(tick=60, channel=9, data=[46, 0]),
   midi.NoteOnEvent(tick=0, channel=9, data=[35, 100]),
   midi.NoteOnEvent(tick=0, channel=9, data=[44, 100]),
   midi.NoteOnEvent(tick=40, channel=9, data=[42, 100]),
   midi.NoteOnEvent(tick=20, channel=9, data=[44, 0]),
   midi.NoteOnEvent(tick=0, channel=9, data=[35, 0]),
   midi.NoteOnEvent(tick=0, channel=9, data=[46, 100]),
   midi.NoteOnEvent(tick=40, channel=9, data=[42, 0]),
   midi.NoteOnEvent(tick=20, channel=9, data=[46, 0]),
   midi.NoteOnEvent(tick=0, channel=9, data=[35, 100]),
   midi.NoteOnEvent(tick=0, channel=9, data=[39, 100]),
   midi.NoteOnEvent(tick=0, channel=9, data=[44, 100]),
   midi.NoteOnEvent(tick=60, channel=9, data=[44, 0]),
   midi.NoteOnEvent(tick=0, channel=9, data=[39, 0]),
   midi.NoteOnEvent(tick=0, channel=9, data=[35, 0]),
   midi.NoteOnEvent(tick=0, channel=9, data=[46, 100]),
   midi.NoteOnEvent(tick=60, channel=9, data=[46, 0]),
   midi.NoteOnEvent(tick=0, channel=9, data=[35, 100]),
   midi.NoteOnEvent(tick=0, channel=9, data=[44, 100]),
   midi.NoteOnEvent(tick=40, channel=9, data=[42, 100]),
   midi.NoteOnEvent(tick=20, channel=9, data=[44, 0]),
   midi.NoteOnEvent(tick=0, channel=9, data=[35, 0]),
   midi.NoteOnEvent(tick=0, channel=9, data=[46, 100]),
   midi.NoteOnEvent(tick=40, channel=9, data=[42, 0]),
   midi.NoteOnEvent(tick=20, channel=9, data=[46, 0]),
   midi.NoteOnEvent(tick=0, channel=9, data=[35, 100]),
   midi.NoteOnEvent(tick=0, channel=9, data=[39, 100]),
   midi.NoteOnEvent(tick=0, channel=9, data=[44, 100]),
   midi.NoteOnEvent(tick=60, channel=9, data=[44, 0]),
   midi.NoteOnEvent(tick=0, channel=9, data=[39, 0]),
   midi.NoteOnEvent(tick=0, channel=9, data=[35, 0]),
   midi.NoteOnEvent(tick=0, channel=9, data=[46, 100]),
   midi.NoteOnEvent(tick=60, channel=9, data=[46, 0]),
   midi.NoteOnEvent(tick=0, channel=9, data=[35, 100]),
   midi.NoteOnEvent(tick=0, channel=9, data=[44, 100]),
   midi.NoteOnEvent(tick=40, channel=9, data=[42, 100]),
   midi.NoteOnEvent(tick=20, channel=9, data=[44, 0]),
   midi.NoteOnEvent(tick=0, channel=9, data=[35, 0]),
   midi.NoteOnEvent(tick=0, channel=9, data=[46, 100]),
   midi.NoteOnEvent(tick=40, channel=9, data=[42, 0]),
   midi.NoteOnEvent(tick=20, channel=9, data=[46, 0]),
   midi.NoteOnEvent(tick=0, channel=9, data=[35, 100]),
   midi.NoteOnEvent(tick=0, channel=9, data=[39, 100]),
   midi.NoteOnEvent(tick=0, channel=9, data=[44, 100]),
   midi.NoteOnEvent(tick=60, channel=9, data=[44, 0]),
   midi.NoteOnEvent(tick=0, channel=9, data=[39, 0]),
   midi.NoteOnEvent(tick=0, channel=9, data=[35, 0]),
   midi.NoteOnEvent(tick=0, channel=9, data=[46, 100]),
   midi.NoteOnEvent(tick=60, channel=9, data=[46, 0]),
   midi.NoteOnEvent(tick=0, channel=9, data=[35, 100]),
   midi.NoteOnEvent(tick=0, channel=9, data=[44, 100]),
   midi.NoteOnEvent(tick=40, channel=9, data=[42, 100]),
   midi.NoteOnEvent(tick=20, channel=9, data=[44, 0]),
   midi.NoteOnEvent(tick=0, channel=9, data=[35, 0]),
   midi.NoteOnEvent(tick=0, channel=9, data=[46, 100]),
   midi.NoteOnEvent(tick=40, channel=9, data=[42, 0]),
   midi.NoteOnEvent(tick=20, channel=9, data=[46, 0]),
   midi.NoteOnEvent(tick=0, channel=9, data=[35, 100]),
   midi.NoteOnEvent(tick=0, channel=9, data=[39, 100]),
   midi.NoteOnEvent(tick=0, channel=9, data=[44, 100]),
   midi.NoteOnEvent(tick=60, channel=9, data=[44, 0]),
   midi.NoteOnEvent(tick=0, channel=9, data=[39, 0]),
   midi.NoteOnEvent(tick=0, channel=9, data=[35, 0]),
   midi.NoteOnEvent(tick=0, channel=9, data=[46, 100]),
   midi.NoteOnEvent(tick=60, channel=9, data=[46, 0]),
   midi.NoteOnEvent(tick=0, channel=9, data=[35, 100]),
   midi.NoteOnEvent(tick=0, channel=9, data=[44, 100]),
   midi.NoteOnEvent(tick=40, channel=9, data=[42, 100]),
   midi.NoteOnEvent(tick=20, channel=9, data=[44, 0]),
   midi.NoteOnEvent(tick=0, channel=9, data=[35, 0]),
   midi.NoteOnEvent(tick=0, channel=9, data=[46, 100]),
   midi.NoteOnEvent(tick=40, channel=9, data=[42, 0]),
   midi.NoteOnEvent(tick=20, channel=9, data=[46, 0]),
   midi.NoteOnEvent(tick=0, channel=9, data=[35, 100]),
   midi.NoteOnEvent(tick=0, channel=9, data=[39, 100]),
   midi.NoteOnEvent(tick=0, channel=9, data=[44, 100]),
   midi.NoteOnEvent(tick=60, channel=9, data=[44, 0]),
   midi.NoteOnEvent(tick=0, channel=9, data=[39, 0]),
   midi.NoteOnEvent(tick=0, channel=9, data=[35, 0]),
   midi.NoteOnEvent(tick=0, channel=9, data=[46, 100]),
   midi.NoteOnEvent(tick=60, channel=9, data=[46, 0]),
   midi.NoteOnEvent(tick=0, channel=9, data=[35, 100]),
   midi.NoteOnEvent(tick=0, channel=9, data=[44, 100]),
   midi.NoteOnEvent(tick=40, channel=9, data=[42, 100]),
   midi.NoteOnEvent(tick=20, channel=9, data=[44, 0]),
   midi.NoteOnEvent(tick=0, channel=9, data=[35, 0]),
   midi.NoteOnEvent(tick=0, channel=9, data=[46, 100]),
   midi.NoteOnEvent(tick=40, channel=9, data=[42, 0]),
   midi.NoteOnEvent(tick=20, channel=9, data=[46, 0]),
   midi.NoteOnEvent(tick=0, channel=9, data=[35, 100]),
   midi.NoteOnEvent(tick=0, channel=9, data=[39, 100]),
   midi.NoteOnEvent(tick=0, channel=9, data=[44, 100]),
   midi.NoteOnEvent(tick=60, channel=9, data=[44, 0]),
   midi.NoteOnEvent(tick=0, channel=9, data=[39, 0]),
   midi.NoteOnEvent(tick=0, channel=9, data=[35, 0]),
   midi.NoteOnEvent(tick=0, channel=9, data=[46, 100]),
   midi.NoteOnEvent(tick=60, channel=9, data=[46, 0]),
   midi.NoteOnEvent(tick=0, channel=9, data=[35, 100]),
   midi.NoteOnEvent(tick=0, channel=9, data=[44, 100]),
   midi.NoteOnEvent(tick=40, channel=9, data=[42, 100]),
   midi.NoteOnEvent(tick=20, channel=9, data=[44, 0]),
   midi.NoteOnEvent(tick=0, channel=9, data=[35, 0]),
   midi.NoteOnEvent(tick=0, channel=9, data=[46, 100]),
   midi.NoteOnEvent(tick=40, channel=9, data=[42, 0]),
   midi.NoteOnEvent(tick=20, channel=9, data=[46, 0]),
   midi.NoteOnEvent(tick=0, channel=9, data=[35, 100]),
   midi.NoteOnEvent(tick=0, channel=9, data=[39, 100]),
   midi.NoteOnEvent(tick=0, channel=9, data=[44, 100]),
   midi.NoteOnEvent(tick=60, channel=9, data=[44, 0]),
   midi.NoteOnEvent(tick=0, channel=9, data=[39, 0]),
   midi.NoteOnEvent(tick=0, channel=9, data=[35, 0]),
   midi.NoteOnEvent(tick=0, channel=9, data=[46, 100]),
   midi.NoteOnEvent(tick=60, channel=9, data=[46, 0]),
   midi.NoteOnEvent(tick=0, channel=9, data=[35, 100]),
   midi.NoteOnEvent(tick=0, channel=9, data=[44, 100]),
   midi.NoteOnEvent(tick=40, channel=9, data=[42, 100]),
   midi.NoteOnEvent(tick=20, channel=9, data=[44, 0]),
   midi.NoteOnEvent(tick=0, channel=9, data=[35, 0]),
   midi.NoteOnEvent(tick=0, channel=9, data=[46, 100]),
   midi.NoteOnEvent(tick=40, channel=9, data=[42, 0]),
   midi.NoteOnEvent(tick=20, channel=9, data=[46, 0]),
   midi.NoteOnEvent(tick=0, channel=9, data=[35, 100]),
   midi.NoteOnEvent(tick=0, channel=9, data=[39, 100]),
   midi.NoteOnEvent(tick=0, channel=9, data=[44, 100]),
   midi.NoteOnEvent(tick=60, channel=9, data=[44, 0]),
   midi.NoteOnEvent(tick=0, channel=9, data=[39, 0]),
   midi.NoteOnEvent(tick=0, channel=9, data=[35, 0]),
   midi.NoteOnEvent(tick=0, channel=9, data=[46, 100]),
   midi.NoteOnEvent(tick=60, channel=9, data=[46, 0]),
   midi.NoteOnEvent(tick=0, channel=9, data=[35, 100]),
   midi.NoteOnEvent(tick=0, channel=9, data=[44, 100]),
   midi.NoteOnEvent(tick=40, channel=9, data=[42, 100]),
   midi.NoteOnEvent(tick=20, channel=9, data=[44, 0]),
   midi.NoteOnEvent(tick=0, channel=9, data=[35, 0]),
   midi.NoteOnEvent(tick=0, channel=9, data=[46, 100]),
   midi.NoteOnEvent(tick=40, channel=9, data=[42, 0]),
   midi.NoteOnEvent(tick=20, channel=9, data=[46, 0]),
   midi.NoteOnEvent(tick=0, channel=9, data=[35, 100]),
   midi.NoteOnEvent(tick=0, channel=9, data=[39, 100]),
   midi.NoteOnEvent(tick=0, channel=9, data=[44, 100]),
   midi.NoteOnEvent(tick=60, channel=9, data=[44, 0]),
   midi.NoteOnEvent(tick=0, channel=9, data=[39, 0]),
   midi.NoteOnEvent(tick=0, channel=9, data=[35, 0]),
   midi.NoteOnEvent(tick=0, channel=9, data=[46, 100]),
   midi.NoteOnEvent(tick=60, channel=9, data=[46, 0]),
   midi.NoteOnEvent(tick=0, channel=9, data=[35, 100]),
   midi.NoteOnEvent(tick=0, channel=9, data=[44, 100]),
   midi.NoteOnEvent(tick=40, channel=9, data=[42, 100]),
   midi.NoteOnEvent(tick=20, channel=9, data=[44, 0]),
   midi.NoteOnEvent(tick=0, channel=9, data=[35, 0]),
   midi.NoteOnEvent(tick=0, channel=9, data=[46, 100]),
   midi.NoteOnEvent(tick=40, channel=9, data=[42, 0]),
   midi.NoteOnEvent(tick=20, channel=9, data=[46, 0]),
   midi.NoteOnEvent(tick=0, channel=9, data=[35, 100]),
   midi.NoteOnEvent(tick=0, channel=9, data=[39, 100]),
   midi.NoteOnEvent(tick=0, channel=9, data=[44, 100]),
   midi.NoteOnEvent(tick=60, channel=9, data=[44, 0]),
   midi.NoteOnEvent(tick=0, channel=9, data=[39, 0]),
   midi.NoteOnEvent(tick=0, channel=9, data=[35, 0]),
   midi.NoteOnEvent(tick=0, channel=9, data=[46, 100]),
   midi.NoteOnEvent(tick=60, channel=9, data=[46, 0]),
   midi.NoteOnEvent(tick=0, channel=9, data=[35, 100]),
   midi.NoteOnEvent(tick=0, channel=9, data=[44, 100]),
   midi.NoteOnEvent(tick=40, channel=9, data=[42, 100]),
   midi.NoteOnEvent(tick=20, channel=9, data=[44, 0]),
   midi.NoteOnEvent(tick=0, channel=9, data=[35, 0]),
   midi.NoteOnEvent(tick=0, channel=9, data=[46, 100]),
   midi.NoteOnEvent(tick=40, channel=9, data=[42, 0]),
   midi.NoteOnEvent(tick=20, channel=9, data=[46, 0]),
   midi.NoteOnEvent(tick=0, channel=9, data=[35, 100]),
   midi.NoteOnEvent(tick=0, channel=9, data=[39, 100]),
   midi.NoteOnEvent(tick=0, channel=9, data=[44, 100]),
   midi.NoteOnEvent(tick=60, channel=9, data=[44, 0]),
   midi.NoteOnEvent(tick=0, channel=9, data=[39, 0]),
   midi.NoteOnEvent(tick=0, channel=9, data=[35, 0]),
   midi.NoteOnEvent(tick=0, channel=9, data=[46, 100]),
   midi.NoteOnEvent(tick=60, channel=9, data=[46, 0]),
   midi.NoteOnEvent(tick=0, channel=9, data=[35, 100]),
   midi.NoteOnEvent(tick=0, channel=9, data=[44, 100]),
   midi.NoteOnEvent(tick=40, channel=9, data=[42, 100]),
   midi.NoteOnEvent(tick=20, channel=9, data=[44, 0]),
   midi.NoteOnEvent(tick=0, channel=9, data=[35, 0]),
   midi.NoteOnEvent(tick=0, channel=9, data=[46, 100]),
   midi.NoteOnEvent(tick=40, channel=9, data=[42, 0]),
   midi.NoteOnEvent(tick=20, channel=9, data=[46, 0]),
   midi.NoteOnEvent(tick=0, channel=9, data=[35, 100]),
   midi.NoteOnEvent(tick=0, channel=9, data=[39, 100]),
   midi.NoteOnEvent(tick=0, channel=9, data=[44, 100]),
   midi.NoteOnEvent(tick=60, channel=9, data=[44, 0]),
   midi.NoteOnEvent(tick=0, channel=9, data=[39, 0]),
   midi.NoteOnEvent(tick=0, channel=9, data=[35, 0]),
   midi.NoteOnEvent(tick=0, channel=9, data=[46, 100]),
   midi.NoteOnEvent(tick=60, channel=9, data=[46, 0]),
   midi.NoteOnEvent(tick=0, channel=9, data=[35, 100]),
   midi.NoteOnEvent(tick=0, channel=9, data=[44, 100]),
   midi.NoteOnEvent(tick=40, channel=9, data=[42, 100]),
   midi.NoteOnEvent(tick=20, channel=9, data=[44, 0]),
   midi.NoteOnEvent(tick=0, channel=9, data=[35, 0]),
   midi.NoteOnEvent(tick=0, channel=9, data=[46, 100]),
   midi.NoteOnEvent(tick=40, channel=9, data=[42, 0]),
   midi.NoteOnEvent(tick=20, channel=9, data=[46, 0]),
   midi.NoteOnEvent(tick=0, channel=9, data=[35, 100]),
   midi.NoteOnEvent(tick=0, channel=9, data=[39, 100]),
   midi.NoteOnEvent(tick=0, channel=9, data=[44, 100]),
   midi.NoteOnEvent(tick=60, channel=9, data=[44, 0]),
   midi.NoteOnEvent(tick=0, channel=9, data=[39, 0]),
   midi.NoteOnEvent(tick=0, channel=9, data=[35, 0]),
   midi.NoteOnEvent(tick=0, channel=9, data=[46, 100]),
   midi.NoteOnEvent(tick=60, channel=9, data=[46, 0]),
   midi.NoteOnEvent(tick=0, channel=9, data=[35, 100]),
   midi.NoteOnEvent(tick=0, channel=9, data=[44, 100]),
   midi.NoteOnEvent(tick=40, channel=9, data=[42, 100]),
   midi.NoteOnEvent(tick=20, channel=9, data=[44, 0]),
   midi.NoteOnEvent(tick=0, channel=9, data=[35, 0]),
   midi.NoteOnEvent(tick=0, channel=9, data=[46, 100]),
   midi.NoteOnEvent(tick=40, channel=9, data=[42, 0]),
   midi.NoteOnEvent(tick=20, channel=9, data=[46, 0]),
   midi.NoteOnEvent(tick=0, channel=9, data=[35, 100]),
   midi.NoteOnEvent(tick=0, channel=9, data=[39, 100]),
   midi.NoteOnEvent(tick=0, channel=9, data=[44, 100]),
   midi.NoteOnEvent(tick=60, channel=9, data=[44, 0]),
   midi.NoteOnEvent(tick=0, channel=9, data=[39, 0]),
   midi.NoteOnEvent(tick=0, channel=9, data=[35, 0]),
   midi.NoteOnEvent(tick=4860, channel=9, data=[35, 100]),
   midi.NoteOnEvent(tick=0, channel=9, data=[44, 100]),
   midi.NoteOnEvent(tick=40, channel=9, data=[42, 100]),
   midi.NoteOnEvent(tick=20, channel=9, data=[44, 0]),
   midi.NoteOnEvent(tick=0, channel=9, data=[35, 0]),
   midi.NoteOnEvent(tick=0, channel=9, data=[46, 100]),
   midi.NoteOnEvent(tick=40, channel=9, data=[42, 0]),
   midi.NoteOnEvent(tick=20, channel=9, data=[46, 0]),
   midi.NoteOnEvent(tick=0, channel=9, data=[35, 100]),
   midi.NoteOnEvent(tick=0, channel=9, data=[44, 100]),
   midi.NoteOnEvent(tick=0, channel=9, data=[39, 100]),
   midi.NoteOnEvent(tick=60, channel=9, data=[39, 0]),
   midi.NoteOnEvent(tick=0, channel=9, data=[44, 0]),
   midi.NoteOnEvent(tick=0, channel=9, data=[35, 0]),
   midi.NoteOnEvent(tick=0, channel=9, data=[46, 100]),
   midi.NoteOnEvent(tick=30, channel=9, data=[36, 80]),
   midi.NoteOnEvent(tick=0, channel=9, data=[39, 80]),
   midi.NoteOnEvent(tick=30, channel=9, data=[46, 0]),
   midi.NoteOnEvent(tick=0, channel=9, data=[35, 100]),
   midi.NoteOnEvent(tick=0, channel=9, data=[44, 100]),
   midi.NoteOnEvent(tick=30, channel=9, data=[39, 0]),
   midi.NoteOnEvent(tick=0, channel=9, data=[36, 0]),
   midi.NoteOnEvent(tick=10, channel=9, data=[42, 100]),
   midi.NoteOnEvent(tick=20, channel=9, data=[35, 0]),
   midi.NoteOnEvent(tick=0, channel=9, data=[44, 0]),
   midi.NoteOnEvent(tick=0, channel=9, data=[46, 100]),
   midi.NoteOnEvent(tick=40, channel=9, data=[42, 0]),
   midi.NoteOnEvent(tick=20, channel=9, data=[46, 0]),
   midi.NoteOnEvent(tick=0, channel=9, data=[35, 100]),
   midi.NoteOnEvent(tick=0, channel=9, data=[44, 100]),
   midi.NoteOnEvent(tick=0, channel=9, data=[39, 100]),
   midi.NoteOnEvent(tick=60, channel=9, data=[39, 0]),
   midi.NoteOnEvent(tick=0, channel=9, data=[44, 0]),
   midi.NoteOnEvent(tick=0, channel=9, data=[35, 0]),
   midi.NoteOnEvent(tick=0, channel=9, data=[46, 100]),
   midi.NoteOnEvent(tick=30, channel=9, data=[36, 80]),
   midi.NoteOnEvent(tick=0, channel=9, data=[39, 80]),
   midi.NoteOnEvent(tick=30, channel=9, data=[39, 0]),
   midi.NoteOnEvent(tick=0, channel=9, data=[36, 0]),
   midi.NoteOnEvent(tick=0, channel=9, data=[46, 0]),
   midi.NoteOnEvent(tick=0, channel=9, data=[35, 100]),
   midi.NoteOnEvent(tick=0, channel=9, data=[44, 100]),
   midi.NoteOnEvent(tick=40, channel=9, data=[42, 100]),
   midi.NoteOnEvent(tick=20, channel=9, data=[44, 0]),
   midi.NoteOnEvent(tick=0, channel=9, data=[35, 0]),
   midi.NoteOnEvent(tick=0, channel=9, data=[46, 100]),
   midi.NoteOnEvent(tick=40, channel=9, data=[42, 0]),
   midi.NoteOnEvent(tick=20, channel=9, data=[46, 0]),
   midi.NoteOnEvent(tick=0, channel=9, data=[35, 100]),
   midi.NoteOnEvent(tick=0, channel=9, data=[44, 100]),
   midi.NoteOnEvent(tick=0, channel=9, data=[39, 100]),
   midi.NoteOnEvent(tick=60, channel=9, data=[39, 0]),
   midi.NoteOnEvent(tick=0, channel=9, data=[44, 0]),
   midi.NoteOnEvent(tick=0, channel=9, data=[35, 0]),
   midi.NoteOnEvent(tick=0, channel=9, data=[46, 100]),
   midi.NoteOnEvent(tick=30, channel=9, data=[36, 80]),
   midi.NoteOnEvent(tick=0, channel=9, data=[39, 80]),
   midi.NoteOnEvent(tick=30, channel=9, data=[46, 0]),
   midi.NoteOnEvent(tick=0, channel=9, data=[35, 100]),
   midi.NoteOnEvent(tick=0, channel=9, data=[44, 100]),
   midi.NoteOnEvent(tick=30, channel=9, data=[39, 0]),
   midi.NoteOnEvent(tick=0, channel=9, data=[36, 0]),
   midi.NoteOnEvent(tick=10, channel=9, data=[42, 100]),
   midi.NoteOnEvent(tick=20, channel=9, data=[35, 0]),
   midi.NoteOnEvent(tick=0, channel=9, data=[44, 0]),
   midi.NoteOnEvent(tick=0, channel=9, data=[46, 100]),
   midi.NoteOnEvent(tick=40, channel=9, data=[42, 0]),
   midi.NoteOnEvent(tick=20, channel=9, data=[46, 0]),
   midi.NoteOnEvent(tick=0, channel=9, data=[35, 100]),
   midi.NoteOnEvent(tick=0, channel=9, data=[44, 100]),
   midi.NoteOnEvent(tick=0, channel=9, data=[39, 100]),
   midi.NoteOnEvent(tick=60, channel=9, data=[39, 0]),
   midi.NoteOnEvent(tick=0, channel=9, data=[44, 0]),
   midi.NoteOnEvent(tick=0, channel=9, data=[35, 0]),
   midi.NoteOnEvent(tick=0, channel=9, data=[46, 100]),
   midi.NoteOnEvent(tick=30, channel=9, data=[36, 80]),
   midi.NoteOnEvent(tick=0, channel=9, data=[39, 80]),
   midi.NoteOnEvent(tick=30, channel=9, data=[39, 0]),
   midi.NoteOnEvent(tick=0, channel=9, data=[36, 0]),
   midi.NoteOnEvent(tick=0, channel=9, data=[46, 0]),
   midi.NoteOnEvent(tick=0, channel=9, data=[35, 100]),
   midi.NoteOnEvent(tick=0, channel=9, data=[44, 100]),
   midi.NoteOnEvent(tick=40, channel=9, data=[42, 100]),
   midi.NoteOnEvent(tick=20, channel=9, data=[44, 0]),
   midi.NoteOnEvent(tick=0, channel=9, data=[35, 0]),
   midi.NoteOnEvent(tick=0, channel=9, data=[46, 100]),
   midi.NoteOnEvent(tick=40, channel=9, data=[42, 0]),
   midi.NoteOnEvent(tick=20, channel=9, data=[46, 0]),
   midi.NoteOnEvent(tick=0, channel=9, data=[35, 100]),
   midi.NoteOnEvent(tick=0, channel=9, data=[44, 100]),
   midi.NoteOnEvent(tick=0, channel=9, data=[39, 100]),
   midi.NoteOnEvent(tick=60, channel=9, data=[39, 0]),
   midi.NoteOnEvent(tick=0, channel=9, data=[44, 0]),
   midi.NoteOnEvent(tick=0, channel=9, data=[35, 0]),
   midi.NoteOnEvent(tick=0, channel=9, data=[46, 100]),
   midi.NoteOnEvent(tick=30, channel=9, data=[36, 80]),
   midi.NoteOnEvent(tick=0, channel=9, data=[39, 80]),
   midi.NoteOnEvent(tick=30, channel=9, data=[46, 0]),
   midi.NoteOnEvent(tick=0, channel=9, data=[35, 100]),
   midi.NoteOnEvent(tick=0, channel=9, data=[44, 100]),
   midi.NoteOnEvent(tick=30, channel=9, data=[39, 0]),
   midi.NoteOnEvent(tick=0, channel=9, data=[36, 0]),
   midi.NoteOnEvent(tick=10, channel=9, data=[42, 100]),
   midi.NoteOnEvent(tick=20, channel=9, data=[35, 0]),
   midi.NoteOnEvent(tick=0, channel=9, data=[44, 0]),
   midi.NoteOnEvent(tick=0, channel=9, data=[46, 100]),
   midi.NoteOnEvent(tick=40, channel=9, data=[42, 0]),
   midi.NoteOnEvent(tick=20, channel=9, data=[46, 0]),
   midi.NoteOnEvent(tick=0, channel=9, data=[35, 100]),
   midi.NoteOnEvent(tick=0, channel=9, data=[44, 100]),
   midi.NoteOnEvent(tick=0, channel=9, data=[39, 100]),
   midi.NoteOnEvent(tick=60, channel=9, data=[39, 0]),
   midi.NoteOnEvent(tick=0, channel=9, data=[44, 0]),
   midi.NoteOnEvent(tick=0, channel=9, data=[35, 0]),
   midi.NoteOnEvent(tick=0, channel=9, data=[46, 100]),
   midi.NoteOnEvent(tick=30, channel=9, data=[36, 80]),
   midi.NoteOnEvent(tick=0, channel=9, data=[39, 80]),
   midi.NoteOnEvent(tick=30, channel=9, data=[39, 0]),
   midi.NoteOnEvent(tick=0, channel=9, data=[36, 0]),
   midi.NoteOnEvent(tick=0, channel=9, data=[46, 0]),
   midi.NoteOnEvent(tick=0, channel=9, data=[35, 100]),
   midi.NoteOnEvent(tick=0, channel=9, data=[44, 100]),
   midi.NoteOnEvent(tick=40, channel=9, data=[42, 100]),
   midi.NoteOnEvent(tick=20, channel=9, data=[44, 0]),
   midi.NoteOnEvent(tick=0, channel=9, data=[35, 0]),
   midi.NoteOnEvent(tick=0, channel=9, data=[46, 100]),
   midi.NoteOnEvent(tick=40, channel=9, data=[42, 0]),
   midi.NoteOnEvent(tick=20, channel=9, data=[46, 0]),
   midi.NoteOnEvent(tick=0, channel=9, data=[35, 100]),
   midi.NoteOnEvent(tick=0, channel=9, data=[44, 100]),
   midi.NoteOnEvent(tick=0, channel=9, data=[39, 100]),
   midi.NoteOnEvent(tick=60, channel=9, data=[39, 0]),
   midi.NoteOnEvent(tick=0, channel=9, data=[44, 0]),
   midi.NoteOnEvent(tick=0, channel=9, data=[35, 0]),
   midi.NoteOnEvent(tick=0, channel=9, data=[46, 100]),
   midi.NoteOnEvent(tick=30, channel=9, data=[36, 80]),
   midi.NoteOnEvent(tick=0, channel=9, data=[39, 80]),
   midi.NoteOnEvent(tick=30, channel=9, data=[46, 0]),
   midi.NoteOnEvent(tick=0, channel=9, data=[44, 100]),
   midi.NoteOnEvent(tick=0, channel=9, data=[35, 100]),
   midi.NoteOnEvent(tick=0, channel=9, data=[44, 100]),
   midi.NoteOnEvent(tick=30, channel=9, data=[39, 0]),
   midi.NoteOnEvent(tick=0, channel=9, data=[36, 0]),
   midi.NoteOnEvent(tick=10, channel=9, data=[42, 100]),
   midi.NoteOnEvent(tick=0, channel=9, data=[42, 100]),
   midi.NoteOnEvent(tick=20, channel=9, data=[35, 0]),
   midi.NoteOnEvent(tick=0, channel=9, data=[44, 0]),
   midi.NoteOnEvent(tick=0, channel=9, data=[44, 0]),
   midi.NoteOnEvent(tick=0, channel=9, data=[46, 100]),
   midi.NoteOnEvent(tick=0, channel=9, data=[39, 80]),
   midi.NoteOnEvent(tick=0, channel=9, data=[36, 100]),
   midi.NoteOnEvent(tick=0, channel=9, data=[46, 100]),
   midi.NoteOnEvent(tick=40, channel=9, data=[42, 0]),
   midi.NoteOnEvent(tick=0, channel=9, data=[42, 0]),
   midi.NoteOnEvent(tick=0, channel=9, data=[36, 80]),
   midi.NoteOnEvent(tick=20, channel=9, data=[36, 0]),
   midi.NoteOnEvent(tick=0, channel=9, data=[46, 0]),
   midi.NoteOnEvent(tick=0, channel=9, data=[39, 0]),
   midi.NoteOnEvent(tick=0, channel=9, data=[46, 0]),
   midi.NoteOnEvent(tick=0, channel=9, data=[35, 100]),
   midi.NoteOnEvent(tick=0, channel=9, data=[44, 100]),
   midi.NoteOnEvent(tick=0, channel=9, data=[39, 100]),
   midi.NoteOnEvent(tick=40, channel=9, data=[36, 0]),
   midi.NoteOnEvent(tick=20, channel=9, data=[35, 0]),
   midi.NoteOnEvent(tick=0, channel=9, data=[44, 0]),
   midi.NoteOnEvent(tick=0, channel=9, data=[39, 0]),
   midi.NoteOnEvent(tick=0, channel=9, data=[46, 100]),
   midi.NoteOnEvent(tick=30, channel=9, data=[36, 80]),
   midi.NoteOnEvent(tick=0, channel=9, data=[39, 80]),
   midi.NoteOnEvent(tick=30, channel=9, data=[39, 0]),
   midi.NoteOnEvent(tick=0, channel=9, data=[36, 0]),
   midi.NoteOnEvent(tick=0, channel=9, data=[46, 0]),
   midi.NoteOnEvent(tick=0, channel=9, data=[35, 100]),
   midi.NoteOnEvent(tick=0, channel=9, data=[44, 100]),
   midi.NoteOnEvent(tick=40, channel=9, data=[42, 100]),
   midi.NoteOnEvent(tick=20, channel=9, data=[44, 0]),
   midi.NoteOnEvent(tick=0, channel=9, data=[35, 0]),
   midi.NoteOnEvent(tick=0, channel=9, data=[46, 100]),
   midi.NoteOnEvent(tick=40, channel=9, data=[42, 0]),
   midi.NoteOnEvent(tick=20, channel=9, data=[46, 0]),
   midi.NoteOnEvent(tick=0, channel=9, data=[35, 100]),
   midi.NoteOnEvent(tick=0, channel=9, data=[44, 100]),
   midi.NoteOnEvent(tick=0, channel=9, data=[39, 100]),
   midi.NoteOnEvent(tick=60, channel=9, data=[39, 0]),
   midi.NoteOnEvent(tick=0, channel=9, data=[44, 0]),
   midi.NoteOnEvent(tick=0, channel=9, data=[35, 0]),
   midi.NoteOnEvent(tick=0, channel=9, data=[46, 100]),
   midi.NoteOnEvent(tick=30, channel=9, data=[36, 80]),
   midi.NoteOnEvent(tick=0, channel=9, data=[39, 80]),
   midi.NoteOnEvent(tick=30, channel=9, data=[46, 0]),
   midi.NoteOnEvent(tick=0, channel=9, data=[35, 100]),
   midi.NoteOnEvent(tick=0, channel=9, data=[44, 100]),
   midi.NoteOnEvent(tick=30, channel=9, data=[39, 0]),
   midi.NoteOnEvent(tick=0, channel=9, data=[36, 0]),
   midi.NoteOnEvent(tick=10, channel=9, data=[42, 100]),
   midi.NoteOnEvent(tick=20, channel=9, data=[35, 0]),
   midi.NoteOnEvent(tick=0, channel=9, data=[44, 0]),
   midi.NoteOnEvent(tick=0, channel=9, data=[46, 100]),
   midi.NoteOnEvent(tick=40, channel=9, data=[42, 0]),
   midi.NoteOnEvent(tick=20, channel=9, data=[46, 0]),
   midi.NoteOnEvent(tick=0, channel=9, data=[35, 100]),
   midi.NoteOnEvent(tick=0, channel=9, data=[44, 100]),
   midi.NoteOnEvent(tick=0, channel=9, data=[39, 100]),
   midi.NoteOnEvent(tick=60, channel=9, data=[39, 0]),
   midi.NoteOnEvent(tick=0, channel=9, data=[44, 0]),
   midi.NoteOnEvent(tick=0, channel=9, data=[35, 0]),
   midi.NoteOnEvent(tick=0, channel=9, data=[46, 100]),
   midi.NoteOnEvent(tick=30, channel=9, data=[36, 80]),
   midi.NoteOnEvent(tick=0, channel=9, data=[39, 80]),
   midi.NoteOnEvent(tick=30, channel=9, data=[39, 0]),
   midi.NoteOnEvent(tick=0, channel=9, data=[36, 0]),
   midi.NoteOnEvent(tick=0, channel=9, data=[46, 0]),
   midi.NoteOnEvent(tick=0, channel=9, data=[35, 100]),
   midi.NoteOnEvent(tick=0, channel=9, data=[44, 100]),
   midi.NoteOnEvent(tick=40, channel=9, data=[42, 100]),
   midi.NoteOnEvent(tick=20, channel=9, data=[44, 0]),
   midi.NoteOnEvent(tick=0, channel=9, data=[35, 0]),
   midi.NoteOnEvent(tick=0, channel=9, data=[46, 100]),
   midi.NoteOnEvent(tick=40, channel=9, data=[42, 0]),
   midi.NoteOnEvent(tick=20, channel=9, data=[46, 0]),
   midi.NoteOnEvent(tick=0, channel=9, data=[35, 100]),
   midi.NoteOnEvent(tick=0, channel=9, data=[44, 100]),
   midi.NoteOnEvent(tick=0, channel=9, data=[39, 100]),
   midi.NoteOnEvent(tick=60, channel=9, data=[39, 0]),
   midi.NoteOnEvent(tick=0, channel=9, data=[44, 0]),
   midi.NoteOnEvent(tick=0, channel=9, data=[35, 0]),
   midi.NoteOnEvent(tick=0, channel=9, data=[46, 100]),
   midi.NoteOnEvent(tick=30, channel=9, data=[36, 80]),
   midi.NoteOnEvent(tick=0, channel=9, data=[39, 80]),
   midi.NoteOnEvent(tick=30, channel=9, data=[46, 0]),
   midi.NoteOnEvent(tick=0, channel=9, data=[35, 100]),
   midi.NoteOnEvent(tick=0, channel=9, data=[44, 100]),
   midi.NoteOnEvent(tick=30, channel=9, data=[39, 0]),
   midi.NoteOnEvent(tick=0, channel=9, data=[36, 0]),
   midi.NoteOnEvent(tick=10, channel=9, data=[42, 100]),
   midi.NoteOnEvent(tick=20, channel=9, data=[35, 0]),
   midi.NoteOnEvent(tick=0, channel=9, data=[44, 0]),
   midi.NoteOnEvent(tick=0, channel=9, data=[46, 100]),
   midi.NoteOnEvent(tick=40, channel=9, data=[42, 0]),
   midi.NoteOnEvent(tick=20, channel=9, data=[46, 0]),
   midi.NoteOnEvent(tick=0, channel=9, data=[35, 100]),
   midi.NoteOnEvent(tick=0, channel=9, data=[44, 100]),
   midi.NoteOnEvent(tick=0, channel=9, data=[39, 100]),
   midi.NoteOnEvent(tick=60, channel=9, data=[39, 0]),
   midi.NoteOnEvent(tick=0, channel=9, data=[44, 0]),
   midi.NoteOnEvent(tick=0, channel=9, data=[35, 0]),
   midi.NoteOnEvent(tick=0, channel=9, data=[46, 100]),
   midi.NoteOnEvent(tick=30, channel=9, data=[36, 80]),
   midi.NoteOnEvent(tick=0, channel=9, data=[39, 80]),
   midi.NoteOnEvent(tick=30, channel=9, data=[39, 0]),
   midi.NoteOnEvent(tick=0, channel=9, data=[36, 0]),
   midi.NoteOnEvent(tick=0, channel=9, data=[46, 0]),
   midi.NoteOnEvent(tick=0, channel=9, data=[35, 100]),
   midi.NoteOnEvent(tick=0, channel=9, data=[44, 100]),
   midi.NoteOnEvent(tick=40, channel=9, data=[42, 100]),
   midi.NoteOnEvent(tick=20, channel=9, data=[44, 0]),
   midi.NoteOnEvent(tick=0, channel=9, data=[35, 0]),
   midi.NoteOnEvent(tick=0, channel=9, data=[46, 100]),
   midi.NoteOnEvent(tick=40, channel=9, data=[42, 0]),
   midi.NoteOnEvent(tick=20, channel=9, data=[46, 0]),
   midi.NoteOnEvent(tick=0, channel=9, data=[35, 100]),
   midi.NoteOnEvent(tick=0, channel=9, data=[44, 100]),
   midi.NoteOnEvent(tick=0, channel=9, data=[39, 100]),
   midi.NoteOnEvent(tick=60, channel=9, data=[39, 0]),
   midi.NoteOnEvent(tick=0, channel=9, data=[44, 0]),
   midi.NoteOnEvent(tick=0, channel=9, data=[35, 0]),
   midi.NoteOnEvent(tick=0, channel=9, data=[46, 100]),
   midi.NoteOnEvent(tick=30, channel=9, data=[36, 80]),
   midi.NoteOnEvent(tick=0, channel=9, data=[39, 80]),
   midi.NoteOnEvent(tick=30, channel=9, data=[46, 0]),
   midi.NoteOnEvent(tick=0, channel=9, data=[35, 100]),
   midi.NoteOnEvent(tick=0, channel=9, data=[44, 100]),
   midi.NoteOnEvent(tick=30, channel=9, data=[39, 0]),
   midi.NoteOnEvent(tick=0, channel=9, data=[36, 0]),
   midi.NoteOnEvent(tick=10, channel=9, data=[42, 100]),
   midi.NoteOnEvent(tick=20, channel=9, data=[35, 0]),
   midi.NoteOnEvent(tick=0, channel=9, data=[44, 0]),
   midi.NoteOnEvent(tick=0, channel=9, data=[46, 100]),
   midi.NoteOnEvent(tick=40, channel=9, data=[42, 0]),
   midi.NoteOnEvent(tick=20, channel=9, data=[46, 0]),
   midi.NoteOnEvent(tick=0, channel=9, data=[35, 100]),
   midi.NoteOnEvent(tick=0, channel=9, data=[44, 100]),
   midi.NoteOnEvent(tick=0, channel=9, data=[39, 100]),
   midi.NoteOnEvent(tick=60, channel=9, data=[39, 0]),
   midi.NoteOnEvent(tick=0, channel=9, data=[44, 0]),
   midi.NoteOnEvent(tick=0, channel=9, data=[35, 0]),
   midi.NoteOnEvent(tick=0, channel=9, data=[46, 100]),
   midi.NoteOnEvent(tick=30, channel=9, data=[36, 80]),
   midi.NoteOnEvent(tick=0, channel=9, data=[39, 80]),
   midi.NoteOnEvent(tick=30, channel=9, data=[39, 0]),
   midi.NoteOnEvent(tick=0, channel=9, data=[36, 0]),
   midi.NoteOnEvent(tick=0, channel=9, data=[46, 0]),
   midi.NoteOnEvent(tick=0, channel=9, data=[35, 100]),
   midi.NoteOnEvent(tick=0, channel=9, data=[44, 100]),
   midi.NoteOnEvent(tick=40, channel=9, data=[42, 100]),
   midi.NoteOnEvent(tick=20, channel=9, data=[44, 0]),
   midi.NoteOnEvent(tick=0, channel=9, data=[35, 0]),
   midi.NoteOnEvent(tick=0, channel=9, data=[46, 100]),
   midi.NoteOnEvent(tick=40, channel=9, data=[42, 0]),
   midi.NoteOnEvent(tick=20, channel=9, data=[46, 0]),
   midi.NoteOnEvent(tick=0, channel=9, data=[35, 100]),
   midi.NoteOnEvent(tick=0, channel=9, data=[44, 100]),
   midi.NoteOnEvent(tick=0, channel=9, data=[39, 100]),
   midi.NoteOnEvent(tick=60, channel=9, data=[39, 0]),
   midi.NoteOnEvent(tick=0, channel=9, data=[44, 0]),
   midi.NoteOnEvent(tick=0, channel=9, data=[35, 0]),
   midi.NoteOnEvent(tick=0, channel=9, data=[46, 100]),
   midi.NoteOnEvent(tick=30, channel=9, data=[36, 80]),
   midi.NoteOnEvent(tick=0, channel=9, data=[39, 80]),
   midi.NoteOnEvent(tick=30, channel=9, data=[46, 0]),
   midi.NoteOnEvent(tick=0, channel=9, data=[35, 100]),
   midi.NoteOnEvent(tick=0, channel=9, data=[44, 100]),
   midi.NoteOnEvent(tick=30, channel=9, data=[39, 0]),
   midi.NoteOnEvent(tick=0, channel=9, data=[36, 0]),
   midi.NoteOnEvent(tick=10, channel=9, data=[42, 100]),
   midi.NoteOnEvent(tick=20, channel=9, data=[35, 0]),
   midi.NoteOnEvent(tick=0, channel=9, data=[44, 0]),
   midi.NoteOnEvent(tick=0, channel=9, data=[46, 100]),
   midi.NoteOnEvent(tick=40, channel=9, data=[42, 0]),
   midi.NoteOnEvent(tick=20, channel=9, data=[46, 0]),
   midi.NoteOnEvent(tick=120, channel=9, data=[35, 100]),
   midi.NoteOnEvent(tick=0, channel=9, data=[44, 100]),
   midi.NoteOnEvent(tick=40, channel=9, data=[42, 100]),
   midi.NoteOnEvent(tick=20, channel=9, data=[44, 0]),
   midi.NoteOnEvent(tick=0, channel=9, data=[35, 0]),
   midi.NoteOnEvent(tick=0, channel=9, data=[46, 100]),
   midi.NoteOnEvent(tick=40, channel=9, data=[42, 0]),
   midi.NoteOnEvent(tick=20, channel=9, data=[46, 0]),
   midi.NoteOnEvent(tick=0, channel=9, data=[35, 100]),
   midi.NoteOnEvent(tick=0, channel=9, data=[44, 100]),
   midi.NoteOnEvent(tick=0, channel=9, data=[39, 100]),
   midi.NoteOnEvent(tick=60, channel=9, data=[39, 0]),
   midi.NoteOnEvent(tick=0, channel=9, data=[44, 0]),
   midi.NoteOnEvent(tick=0, channel=9, data=[35, 0]),
   midi.NoteOnEvent(tick=0, channel=9, data=[46, 100]),
   midi.NoteOnEvent(tick=30, channel=9, data=[36, 80]),
   midi.NoteOnEvent(tick=0, channel=9, data=[39, 80]),
   midi.NoteOnEvent(tick=30, channel=9, data=[46, 0]),
   midi.NoteOnEvent(tick=0, channel=9, data=[35, 100]),
   midi.NoteOnEvent(tick=0, channel=9, data=[44, 100]),
   midi.NoteOnEvent(tick=30, channel=9, data=[39, 0]),
   midi.NoteOnEvent(tick=0, channel=9, data=[36, 0]),
   midi.NoteOnEvent(tick=10, channel=9, data=[42, 100]),
   midi.NoteOnEvent(tick=20, channel=9, data=[35, 0]),
   midi.NoteOnEvent(tick=0, channel=9, data=[44, 0]),
   midi.NoteOnEvent(tick=0, channel=9, data=[46, 100]),
   midi.NoteOnEvent(tick=40, channel=9, data=[42, 0]),
   midi.NoteOnEvent(tick=20, channel=9, data=[46, 0]),
   midi.NoteOnEvent(tick=0, channel=9, data=[35, 100]),
   midi.NoteOnEvent(tick=0, channel=9, data=[44, 100]),
   midi.NoteOnEvent(tick=0, channel=9, data=[39, 100]),
   midi.NoteOnEvent(tick=60, channel=9, data=[39, 0]),
   midi.NoteOnEvent(tick=0, channel=9, data=[44, 0]),
   midi.NoteOnEvent(tick=0, channel=9, data=[35, 0]),
   midi.NoteOnEvent(tick=0, channel=9, data=[46, 100]),
   midi.NoteOnEvent(tick=30, channel=9, data=[36, 80]),
   midi.NoteOnEvent(tick=0, channel=9, data=[39, 80]),
   midi.NoteOnEvent(tick=30, channel=9, data=[39, 0]),
   midi.NoteOnEvent(tick=0, channel=9, data=[36, 0]),
   midi.NoteOnEvent(tick=0, channel=9, data=[46, 0]),
   midi.NoteOnEvent(tick=0, channel=9, data=[35, 100]),
   midi.NoteOnEvent(tick=0, channel=9, data=[44, 100]),
   midi.NoteOnEvent(tick=40, channel=9, data=[42, 100]),
   midi.NoteOnEvent(tick=20, channel=9, data=[44, 0]),
   midi.NoteOnEvent(tick=0, channel=9, data=[35, 0]),
   midi.NoteOnEvent(tick=0, channel=9, data=[46, 100]),
   midi.NoteOnEvent(tick=40, channel=9, data=[42, 0]),
   midi.NoteOnEvent(tick=20, channel=9, data=[46, 0]),
   midi.NoteOnEvent(tick=0, channel=9, data=[35, 100]),
   midi.NoteOnEvent(tick=0, channel=9, data=[44, 100]),
   midi.NoteOnEvent(tick=0, channel=9, data=[39, 100]),
   midi.NoteOnEvent(tick=60, channel=9, data=[39, 0]),
   midi.NoteOnEvent(tick=0, channel=9, data=[44, 0]),
   midi.NoteOnEvent(tick=0, channel=9, data=[35, 0]),
   midi.NoteOnEvent(tick=0, channel=9, data=[46, 100]),
   midi.NoteOnEvent(tick=30, channel=9, data=[36, 80]),
   midi.NoteOnEvent(tick=0, channel=9, data=[39, 80]),
   midi.NoteOnEvent(tick=30, channel=9, data=[46, 0]),
   midi.NoteOnEvent(tick=0, channel=9, data=[35, 100]),
   midi.NoteOnEvent(tick=0, channel=9, data=[44, 100]),
   midi.NoteOnEvent(tick=30, channel=9, data=[39, 0]),
   midi.NoteOnEvent(tick=0, channel=9, data=[36, 0]),
   midi.NoteOnEvent(tick=10, channel=9, data=[42, 100]),
   midi.NoteOnEvent(tick=20, channel=9, data=[35, 0]),
   midi.NoteOnEvent(tick=0, channel=9, data=[44, 0]),
   midi.NoteOnEvent(tick=0, channel=9, data=[46, 100]),
   midi.NoteOnEvent(tick=40, channel=9, data=[42, 0]),
   midi.NoteOnEvent(tick=20, channel=9, data=[46, 0]),
   midi.NoteOnEvent(tick=0, channel=9, data=[35, 100]),
   midi.NoteOnEvent(tick=0, channel=9, data=[44, 100]),
   midi.NoteOnEvent(tick=0, channel=9, data=[39, 100]),
   midi.NoteOnEvent(tick=60, channel=9, data=[39, 0]),
   midi.NoteOnEvent(tick=0, channel=9, data=[44, 0]),
   midi.NoteOnEvent(tick=0, channel=9, data=[35, 0]),
   midi.NoteOnEvent(tick=0, channel=9, data=[46, 100]),
   midi.NoteOnEvent(tick=30, channel=9, data=[36, 80]),
   midi.NoteOnEvent(tick=0, channel=9, data=[39, 80]),
   midi.NoteOnEvent(tick=30, channel=9, data=[39, 0]),
   midi.NoteOnEvent(tick=0, channel=9, data=[36, 0]),
   midi.NoteOnEvent(tick=0, channel=9, data=[46, 0]),
   midi.NoteOnEvent(tick=0, channel=9, data=[35, 100]),
   midi.NoteOnEvent(tick=0, channel=9, data=[44, 100]),
   midi.NoteOnEvent(tick=40, channel=9, data=[42, 100]),
   midi.NoteOnEvent(tick=20, channel=9, data=[44, 0]),
   midi.NoteOnEvent(tick=0, channel=9, data=[35, 0]),
   midi.NoteOnEvent(tick=0, channel=9, data=[46, 100]),
   midi.NoteOnEvent(tick=40, channel=9, data=[42, 0]),
   midi.NoteOnEvent(tick=20, channel=9, data=[46, 0]),
   midi.NoteOnEvent(tick=0, channel=9, data=[35, 100]),
   midi.NoteOnEvent(tick=0, channel=9, data=[44, 100]),
   midi.NoteOnEvent(tick=0, channel=9, data=[39, 100]),
   midi.NoteOnEvent(tick=60, channel=9, data=[39, 0]),
   midi.NoteOnEvent(tick=0, channel=9, data=[44, 0]),
   midi.NoteOnEvent(tick=0, channel=9, data=[35, 0]),
   midi.NoteOnEvent(tick=0, channel=9, data=[46, 100]),
   midi.NoteOnEvent(tick=30, channel=9, data=[36, 80]),
   midi.NoteOnEvent(tick=0, channel=9, data=[39, 80]),
   midi.NoteOnEvent(tick=30, channel=9, data=[46, 0]),
   midi.NoteOnEvent(tick=0, channel=9, data=[35, 100]),
   midi.NoteOnEvent(tick=0, channel=9, data=[44, 100]),
   midi.NoteOnEvent(tick=30, channel=9, data=[39, 0]),
   midi.NoteOnEvent(tick=0, channel=9, data=[36, 0]),
   midi.NoteOnEvent(tick=10, channel=9, data=[42, 100]),
   midi.NoteOnEvent(tick=20, channel=9, data=[35, 0]),
   midi.NoteOnEvent(tick=0, channel=9, data=[44, 0]),
   midi.NoteOnEvent(tick=0, channel=9, data=[46, 100]),
   midi.NoteOnEvent(tick=40, channel=9, data=[42, 0]),
   midi.NoteOnEvent(tick=20, channel=9, data=[46, 0]),
   midi.NoteOnEvent(tick=0, channel=9, data=[35, 100]),
   midi.NoteOnEvent(tick=0, channel=9, data=[44, 100]),
   midi.NoteOnEvent(tick=0, channel=9, data=[39, 100]),
   midi.NoteOnEvent(tick=60, channel=9, data=[39, 0]),
   midi.NoteOnEvent(tick=0, channel=9, data=[44, 0]),
   midi.NoteOnEvent(tick=0, channel=9, data=[35, 0]),
   midi.NoteOnEvent(tick=0, channel=9, data=[46, 100]),
   midi.NoteOnEvent(tick=30, channel=9, data=[36, 80]),
   midi.NoteOnEvent(tick=0, channel=9, data=[39, 80]),
   midi.NoteOnEvent(tick=30, channel=9, data=[39, 0]),
   midi.NoteOnEvent(tick=0, channel=9, data=[36, 0]),
   midi.NoteOnEvent(tick=0, channel=9, data=[46, 0]),
   midi.NoteOnEvent(tick=0, channel=9, data=[35, 100]),
   midi.NoteOnEvent(tick=0, channel=9, data=[44, 100]),
   midi.NoteOnEvent(tick=40, channel=9, data=[42, 100]),
   midi.NoteOnEvent(tick=20, channel=9, data=[44, 0]),
   midi.NoteOnEvent(tick=0, channel=9, data=[35, 0]),
   midi.NoteOnEvent(tick=0, channel=9, data=[46, 100]),
   midi.NoteOnEvent(tick=40, channel=9, data=[42, 0]),
   midi.NoteOnEvent(tick=20, channel=9, data=[46, 0]),
   midi.NoteOnEvent(tick=0, channel=9, data=[35, 100]),
   midi.NoteOnEvent(tick=0, channel=9, data=[44, 100]),
   midi.NoteOnEvent(tick=0, channel=9, data=[39, 100]),
   midi.NoteOnEvent(tick=60, channel=9, data=[39, 0]),
   midi.NoteOnEvent(tick=0, channel=9, data=[44, 0]),
   midi.NoteOnEvent(tick=0, channel=9, data=[35, 0]),
   midi.NoteOnEvent(tick=0, channel=9, data=[46, 100]),
   midi.NoteOnEvent(tick=30, channel=9, data=[36, 80]),
   midi.NoteOnEvent(tick=0, channel=9, data=[39, 80]),
   midi.NoteOnEvent(tick=30, channel=9, data=[46, 0]),
   midi.NoteOnEvent(tick=0, channel=9, data=[44, 100]),
   midi.NoteOnEvent(tick=0, channel=9, data=[35, 100]),
   midi.NoteOnEvent(tick=0, channel=9, data=[44, 100]),
   midi.NoteOnEvent(tick=30, channel=9, data=[39, 0]),
   midi.NoteOnEvent(tick=0, channel=9, data=[36, 0]),
   midi.NoteOnEvent(tick=10, channel=9, data=[42, 100]),
   midi.NoteOnEvent(tick=0, channel=9, data=[42, 100]),
   midi.NoteOnEvent(tick=20, channel=9, data=[35, 0]),
   midi.NoteOnEvent(tick=0, channel=9, data=[44, 0]),
   midi.NoteOnEvent(tick=0, channel=9, data=[44, 0]),
   midi.NoteOnEvent(tick=0, channel=9, data=[46, 100]),
   midi.NoteOnEvent(tick=0, channel=9, data=[39, 80]),
   midi.NoteOnEvent(tick=0, channel=9, data=[36, 80]),
   midi.NoteOnEvent(tick=0, channel=9, data=[46, 100]),
   midi.NoteOnEvent(tick=40, channel=9, data=[42, 0]),
   midi.NoteOnEvent(tick=0, channel=9, data=[42, 0]),
   midi.NoteOnEvent(tick=0, channel=9, data=[36, 80]),
   midi.NoteOnEvent(tick=20, channel=9, data=[36, 0]),
   midi.NoteOnEvent(tick=0, channel=9, data=[46, 0]),
   midi.NoteOnEvent(tick=0, channel=9, data=[39, 0]),
   midi.NoteOnEvent(tick=0, channel=9, data=[46, 0]),
   midi.NoteOnEvent(tick=0, channel=9, data=[35, 100]),
   midi.NoteOnEvent(tick=0, channel=9, data=[44, 100]),
   midi.NoteOnEvent(tick=0, channel=9, data=[39, 100]),
   midi.NoteOnEvent(tick=40, channel=9, data=[36, 0]),
   midi.NoteOnEvent(tick=20, channel=9, data=[35, 0]),
   midi.NoteOnEvent(tick=0, channel=9, data=[44, 0]),
   midi.NoteOnEvent(tick=0, channel=9, data=[39, 0]),
   midi.NoteOnEvent(tick=0, channel=9, data=[46, 100]),
   midi.NoteOnEvent(tick=30, channel=9, data=[36, 80]),
   midi.NoteOnEvent(tick=0, channel=9, data=[39, 80]),
   midi.NoteOnEvent(tick=30, channel=9, data=[39, 0]),
   midi.NoteOnEvent(tick=0, channel=9, data=[36, 0]),
   midi.NoteOnEvent(tick=0, channel=9, data=[46, 0]),
   midi.NoteOnEvent(tick=0, channel=9, data=[35, 100]),
   midi.NoteOnEvent(tick=0, channel=9, data=[44, 100]),
   midi.NoteOnEvent(tick=40, channel=9, data=[42, 100]),
   midi.NoteOnEvent(tick=20, channel=9, data=[44, 0]),
   midi.NoteOnEvent(tick=0, channel=9, data=[35, 0]),
   midi.NoteOnEvent(tick=0, channel=9, data=[46, 100]),
   midi.NoteOnEvent(tick=40, channel=9, data=[42, 0]),
   midi.NoteOnEvent(tick=20, channel=9, data=[46, 0]),
   midi.NoteOnEvent(tick=0, channel=9, data=[35, 100]),
   midi.NoteOnEvent(tick=0, channel=9, data=[44, 100]),
   midi.NoteOnEvent(tick=0, channel=9, data=[39, 100]),
   midi.NoteOnEvent(tick=60, channel=9, data=[39, 0]),
   midi.NoteOnEvent(tick=0, channel=9, data=[44, 0]),
   midi.NoteOnEvent(tick=0, channel=9, data=[35, 0]),
   midi.NoteOnEvent(tick=0, channel=9, data=[46, 100]),
   midi.NoteOnEvent(tick=30, channel=9, data=[36, 80]),
   midi.NoteOnEvent(tick=0, channel=9, data=[39, 80]),
   midi.NoteOnEvent(tick=30, channel=9, data=[46, 0]),
   midi.NoteOnEvent(tick=0, channel=9, data=[35, 100]),
   midi.NoteOnEvent(tick=0, channel=9, data=[44, 100]),
   midi.NoteOnEvent(tick=30, channel=9, data=[39, 0]),
   midi.NoteOnEvent(tick=0, channel=9, data=[36, 0]),
   midi.NoteOnEvent(tick=10, channel=9, data=[42, 100]),
   midi.NoteOnEvent(tick=20, channel=9, data=[35, 0]),
   midi.NoteOnEvent(tick=0, channel=9, data=[44, 0]),
   midi.NoteOnEvent(tick=0, channel=9, data=[46, 100]),
   midi.NoteOnEvent(tick=40, channel=9, data=[42, 0]),
   midi.NoteOnEvent(tick=20, channel=9, data=[46, 0]),
   midi.NoteOnEvent(tick=0, channel=9, data=[35, 100]),
   midi.NoteOnEvent(tick=0, channel=9, data=[44, 100]),
   midi.NoteOnEvent(tick=0, channel=9, data=[39, 100]),
   midi.NoteOnEvent(tick=60, channel=9, data=[39, 0]),
   midi.NoteOnEvent(tick=0, channel=9, data=[44, 0]),
   midi.NoteOnEvent(tick=0, channel=9, data=[35, 0]),
   midi.NoteOnEvent(tick=0, channel=9, data=[46, 100]),
   midi.NoteOnEvent(tick=30, channel=9, data=[36, 80]),
   midi.NoteOnEvent(tick=0, channel=9, data=[39, 80]),
   midi.NoteOnEvent(tick=30, channel=9, data=[39, 0]),
   midi.NoteOnEvent(tick=0, channel=9, data=[36, 0]),
   midi.NoteOnEvent(tick=0, channel=9, data=[46, 0]),
   midi.NoteOnEvent(tick=0, channel=9, data=[35, 100]),
   midi.NoteOnEvent(tick=0, channel=9, data=[44, 100]),
   midi.NoteOnEvent(tick=40, channel=9, data=[42, 100]),
   midi.NoteOnEvent(tick=20, channel=9, data=[44, 0]),
   midi.NoteOnEvent(tick=0, channel=9, data=[35, 0]),
   midi.NoteOnEvent(tick=0, channel=9, data=[46, 100]),
   midi.NoteOnEvent(tick=40, channel=9, data=[42, 0]),
   midi.NoteOnEvent(tick=20, channel=9, data=[46, 0]),
   midi.NoteOnEvent(tick=0, channel=9, data=[35, 100]),
   midi.NoteOnEvent(tick=0, channel=9, data=[44, 100]),
   midi.NoteOnEvent(tick=0, channel=9, data=[39, 100]),
   midi.NoteOnEvent(tick=60, channel=9, data=[39, 0]),
   midi.NoteOnEvent(tick=0, channel=9, data=[44, 0]),
   midi.NoteOnEvent(tick=0, channel=9, data=[35, 0]),
   midi.NoteOnEvent(tick=0, channel=9, data=[46, 100]),
   midi.NoteOnEvent(tick=30, channel=9, data=[36, 80]),
   midi.NoteOnEvent(tick=0, channel=9, data=[39, 80]),
   midi.NoteOnEvent(tick=30, channel=9, data=[46, 0]),
   midi.NoteOnEvent(tick=0, channel=9, data=[35, 100]),
   midi.NoteOnEvent(tick=0, channel=9, data=[44, 100]),
   midi.NoteOnEvent(tick=30, channel=9, data=[39, 0]),
   midi.NoteOnEvent(tick=0, channel=9, data=[36, 0]),
   midi.NoteOnEvent(tick=10, channel=9, data=[42, 100]),
   midi.NoteOnEvent(tick=20, channel=9, data=[35, 0]),
   midi.NoteOnEvent(tick=0, channel=9, data=[44, 0]),
   midi.NoteOnEvent(tick=0, channel=9, data=[46, 100]),
   midi.NoteOnEvent(tick=40, channel=9, data=[42, 0]),
   midi.NoteOnEvent(tick=20, channel=9, data=[46, 0]),
   midi.NoteOnEvent(tick=0, channel=9, data=[35, 100]),
   midi.NoteOnEvent(tick=0, channel=9, data=[44, 100]),
   midi.NoteOnEvent(tick=0, channel=9, data=[39, 100]),
   midi.NoteOnEvent(tick=60, channel=9, data=[39, 0]),
   midi.NoteOnEvent(tick=0, channel=9, data=[44, 0]),
   midi.NoteOnEvent(tick=0, channel=9, data=[35, 0]),
   midi.NoteOnEvent(tick=0, channel=9, data=[46, 100]),
   midi.NoteOnEvent(tick=30, channel=9, data=[36, 80]),
   midi.NoteOnEvent(tick=0, channel=9, data=[39, 80]),
   midi.NoteOnEvent(tick=30, channel=9, data=[39, 0]),
   midi.NoteOnEvent(tick=0, channel=9, data=[36, 0]),
   midi.NoteOnEvent(tick=0, channel=9, data=[46, 0]),
   midi.EndOfTrackEvent(tick=0, data=[])])])
